<svg width="800" height="800" fill="none" xmlns="http://www.w3.org/2000/svg"><g filter="url(#a)"><path d="M281 140.2a.451.451 0 0 1 .45.45v1.314l.882-.882a.458.458 0 0 1 .321-.143.445.445 0 0 1 .326.132.437.437 0 0 1 .132.326.442.442 0 0 1-.143.321l-1.518 1.518v1.314h1.314l1.518-1.518a.458.458 0 0 1 .321-.143.445.445 0 0 1 .326.132.437.437 0 0 1 .132.326.442.442 0 0 1-.143.321l-.882.882h1.314a.451.451 0 0 1 .318.768.447.447 0 0 1-.318.132h-1.314l.882.882a.443.443 0 0 1 .143.321.445.445 0 0 1-.132.327.457.457 0 0 1-.326.131.442.442 0 0 1-.321-.143l-1.518-1.518h-1.314v1.314l1.518 1.518a.443.443 0 0 1 .143.321.445.445 0 0 1-.132.327.457.457 0 0 1-.326.131.442.442 0 0 1-.321-.143l-.882-.882v1.314a.447.447 0 0 1-.768.318.445.445 0 0 1-.132-.318v-1.314l-.882.882a.448.448 0 0 1-.625-.011.452.452 0 0 1-.011-.625l1.518-1.518v-1.314h-1.314l-1.518 1.518a.448.448 0 0 1-.625-.011.452.452 0 0 1-.011-.625l.882-.882h-1.314a.447.447 0 0 1-.45-.45.447.447 0 0 1 .45-.45h1.314l-.882-.882a.448.448 0 0 1 .011-.625.452.452 0 0 1 .625-.011l1.518 1.518h1.314v-1.314l-1.518-1.518a.448.448 0 0 1 .011-.625.452.452 0 0 1 .625-.011l.882.882v-1.314a.447.447 0 0 1 .45-.45Z" fill="#fff"/></g><g filter="url(#b)"><path d="m561.837 23.088 1.917-.51a.389.389 0 0 1 .483.266.389.389 0 0 1-.276.476l-1.166.311.834.477a.375.375 0 0 1 .14.514.38.38 0 0 1-.518.138l-.834-.476.314 1.159a.385.385 0 0 1-.276.476.389.389 0 0 1-.479-.274l-.513-1.905-.868-.498a1.903 1.903 0 0 1-1.03.596v.986l1.404 1.395a.387.387 0 1 1-.551.547l-.853-.847v.956a.377.377 0 0 1-.755 0v-.952l-.852.847a.395.395 0 0 1-.552 0 .39.39 0 0 1 0-.547l1.404-1.395v-.986a1.888 1.888 0 0 1-1.03-.597l-.864.495-.513 1.905a.392.392 0 0 1-.716.093.394.394 0 0 1-.039-.295l.313-1.159-.834.48a.38.38 0 0 1-.517-.139.371.371 0 0 1-.038-.282.353.353 0 0 1 .174-.224l.834-.48-1.166-.311a.392.392 0 0 1-.275-.476.391.391 0 0 1 .479-.274l1.917.51.868-.499a1.791 1.791 0 0 1-.106-.589c0-.206.041-.405.106-.581l-.868-.499-1.917.51a.39.39 0 0 1-.479-.273.387.387 0 0 1 .275-.477l1.166-.311-.834-.48a.378.378 0 0 1-.136-.514.379.379 0 0 1 .514-.139l.837.48-.313-1.158a.386.386 0 0 1 .276-.473.388.388 0 0 1 .475.274l.513 1.905.864.495a1.903 1.903 0 0 1 1.031-.596v-.986l-1.404-1.395a.386.386 0 0 1 .275-.66c.103 0 .202.04.275.112l.853.847v-.956a.377.377 0 0 1 .755 0v.956l.852-.847a.396.396 0 0 1 .552 0 .39.39 0 0 1 0 .547l-1.404 1.396v.986c.396.082.756.29 1.026.592l.868-.498.513-1.905a.392.392 0 0 1 .479-.274c.208.056.333.27.276.476l-.313 1.159.834-.477a.38.38 0 0 1 .517.14.378.378 0 0 1-.136.51l-.834.476 1.166.31a.389.389 0 1 1-.204.75l-1.917-.51-.868.5c.064.183.106.382.106.588 0 .206-.041.401-.106.589l.869.499ZM560.316 22c0-.621-.507-1.125-1.132-1.125A1.127 1.127 0 0 0 558.052 22c0 .622.507 1.125 1.132 1.125A1.13 1.13 0 0 0 560.316 22Z" fill="#fff"/></g><g filter="url(#c)"><path d="m57.837 395.088 1.916-.51a.389.389 0 0 1 .483.266.387.387 0 0 1-.275.476l-1.166.312.834.476a.375.375 0 0 1 .14.514.38.38 0 0 1-.518.138l-.834-.476.314 1.159a.384.384 0 0 1-.276.476.39.39 0 0 1-.479-.274l-.513-1.905-.868-.498a1.91 1.91 0 0 1-1.03.596v.986l1.404 1.395a.39.39 0 0 1 0 .548c-.151.15-.4.15-.552 0l-.852-.848v.956a.379.379 0 0 1-.644.267.378.378 0 0 1-.11-.267v-.952l-.853.847c-.152.15-.4.15-.552 0a.386.386 0 0 1 0-.547l1.404-1.395v-.986a1.886 1.886 0 0 1-1.03-.597l-.864.495-.513 1.905a.392.392 0 0 1-.716.093.39.39 0 0 1-.04-.295l.314-1.159-.834.48a.383.383 0 0 1-.565-.276.369.369 0 0 1 .184-.369l.834-.48-1.166-.311a.392.392 0 0 1-.276-.476.392.392 0 0 1 .48-.274l1.917.51.868-.499a1.802 1.802 0 0 1-.106-.589c0-.206.041-.405.106-.581l-.868-.499-1.917.51a.39.39 0 0 1-.48-.273.39.39 0 0 1 .276-.477l1.166-.311-.834-.48a.375.375 0 0 1-.136-.514.377.377 0 0 1 .514-.138l.837.48-.313-1.159a.389.389 0 0 1 .751-.199l.513 1.905.864.495a1.9 1.9 0 0 1 1.03-.596v-.986l-1.403-1.395a.39.39 0 0 1 0-.548.394.394 0 0 1 .55 0l.853.848v-.957a.377.377 0 1 1 .755 0v.957l.852-.848a.395.395 0 0 1 .552 0 .39.39 0 0 1 0 .548l-1.404 1.395v.986c.396.082.756.29 1.026.592l.868-.498.513-1.905a.392.392 0 0 1 .48-.274.39.39 0 0 1 .275.476l-.313 1.159.834-.476a.379.379 0 0 1 .553.421.374.374 0 0 1-.172.227l-.834.477 1.166.311a.389.389 0 1 1-.204.75l-1.917-.51-.868.499c.064.183.106.382.106.588 0 .207-.041.402-.106.589l.868.499ZM56.316 394c0-.621-.507-1.125-1.132-1.125A1.128 1.128 0 0 0 54.052 394c0 .622.507 1.125 1.132 1.125A1.128 1.128 0 0 0 56.316 394Z" fill="#fff"/></g><g clip-path="url(#d)" filter="url(#e)"><path d="m48.807 61.541-.875.503-.797-.46.927-.536c.216-.122-.234-.909-.45-.78l-1.377.797-1.108-.64V59.29l1.108-.64 1.377.796c.216.122.666-.657.45-.779l-.926-.537.797-.458.874.502c.157.095.494-.485.33-.572l-.545-.312.51-.294c.25-.147-.277-1.056-.528-.909l-.511.294v-.632c0-.181-.667-.181-.667 0v1.013l-.797.459v-1.074c0-.25-.9-.25-.9 0v1.593l-1.099.632-.987-.554v-1.281l1.376-.796c.217-.122-.233-.91-.45-.78l-.925.536v-.917l.874-.504c.156-.096-.173-.667-.329-.572l-.545.312v-.595c0-.295-1.056-.295-1.056 0v.588l-.545-.312c-.156-.095-.493.485-.33.572l.874.502v.918l-.927-.537c-.216-.122-.666.658-.45.78l1.377.796v1.282l-.987.554-1.1-.641v-1.576c0-.25-.9-.25-.9 0v1.074l-.796-.46V55.75c0-.181-.667-.181-.667 0v.632l-.51-.294c-.252-.147-.78.771-.529.91l.511.293-.537.312c-.156.096.173.667.33.572l.883-.502.796.458-.926.537c-.217.122.233.91.45.78l1.377-.797 1.108.64v1.135l-1.108.64-1.378-.796c-.217-.121-.667.658-.45.78l.926.536-.797.46-.873-.503c-.156-.096-.493.484-.329.571l.545.312-.51.295c-.252.146.276 1.056.527.909l.512-.294v.632c0 .182.666.182.666 0v-1.014l.798-.459v1.074c0 .251.9.251.9 0v-1.593l1.1-.632.986.554v1.282l-1.376.797c-.217.121.234.909.45.779l.926-.537v.918l-.883.511c-.156.095.173.667.33.571l.544-.312v.589c0 .294 1.056.294 1.056 0v-.589l.545.312c.157.096.494-.484.33-.571l-.875-.502v-.918l.926.537c.217.121.667-.658.45-.78l-1.376-.796v-1.282l.987-.554 1.1.64v1.577c0 .25.9.25.9 0v-1.074l.796.459v1.013c0 .182.666.182.666 0v-.631l.511.294c.251.147.78-.772.528-.91l-.51-.294.545-.312c.148-.096-.182-.667-.338-.572Zm-5.714-.337-1.169-.667v-1.36l1.169-.657 1.168.658v1.36l-1.168.666Z" fill="#fff"/></g><g clip-path="url(#f)" filter="url(#g)"><path d="m386.807 709.541-.875.503-.796-.459.926-.537c.216-.122-.234-.909-.45-.779l-1.377.796-1.108-.64v-1.135l1.108-.64 1.377.796c.216.122.666-.657.45-.779l-.926-.537.797-.458.875.502c.156.095.493-.485.329-.572l-.545-.312.51-.294c.251-.147-.277-1.056-.528-.909l-.511.294v-.632c0-.181-.667-.181-.667 0v1.013l-.796.459v-1.074c0-.251-.9-.251-.9 0v1.593l-1.1.632-.987-.554v-1.281l1.376-.796c.217-.122-.233-.909-.45-.78l-.925.536v-.917l.874-.504c.156-.096-.173-.667-.329-.572l-.545.312v-.595c0-.295-1.056-.295-1.056 0v.588l-.545-.312c-.156-.095-.493.485-.329.572l.873.502v.918l-.927-.537c-.216-.122-.666.658-.45.78l1.377.796v1.282l-.987.554-1.1-.641v-1.576c0-.251-.9-.251-.9 0v1.074l-.796-.459v-1.013c0-.181-.667-.181-.667 0v.632l-.511-.294c-.251-.147-.779.771-.528.909l.511.294-.537.312c-.156.096.174.667.33.572l.883-.502.797.458-.927.537c-.217.122.233.909.45.779l1.377-.796 1.108.64v1.135l-1.108.64-1.378-.796c-.217-.121-.667.658-.45.78l.926.536-.797.459-.873-.502c-.156-.096-.493.484-.329.571l.545.312-.511.295c-.251.146.277 1.056.528.909l.512-.294v.632c0 .182.667.182.667 0v-1.014l.797-.459v1.074c0 .251.9.251.9 0v-1.593l1.1-.632.987.554v1.282l-1.377.797c-.217.121.234.909.45.779l.927-.537v.918l-.884.511c-.156.095.173.667.329.571l.545-.312v.589c0 .294 1.056.294 1.056 0v-.589l.546.312c.156.096.493-.484.329-.571l-.875-.502v-.918l.926.537c.217.121.667-.658.45-.78l-1.376-.796v-1.282l.987-.554 1.099.641v1.576c0 .251.9.251.9 0v-1.074l.797.459v1.013c0 .182.667.182.667 0v-.631l.51.294c.251.147.78-.772.528-.909l-.51-.295.545-.312c.148-.096-.182-.667-.338-.572v-.001Zm-5.714-.337-1.169-.667v-1.359l1.169-.658 1.168.658v1.359l-1.168.667Z" fill="#fff"/></g><g clip-path="url(#h)" filter="url(#i)"><path d="m272.536 481.521.457-.263a.104.104 0 0 0 .044-.044c.053-.087 0-.237-.062-.352-.08-.14-.22-.282-.333-.21l-.818.466-.545-.317.457-.263a.11.11 0 0 0 .044-.044.215.215 0 0 0 .018-.087v-.001a.691.691 0 0 0-.271-.465l-.002-.001a.128.128 0 0 0-.15-.008v-.001l-.817.466-.642-.369.323-.184a.184.184 0 0 0 .044-.044.173.173 0 0 0 .018-.071.51.51 0 0 0-.201-.351l-.001-.001a.112.112 0 0 0-.069-.02.098.098 0 0 0-.053.012v-.001l-.598.343-1.468-.844 1.468-.843.598.342a.13.13 0 0 0 .062.012.127.127 0 0 0 .059-.021.502.502 0 0 0 .201-.349v-.006a.146.146 0 0 0-.017-.068v.001a.114.114 0 0 0-.043-.044l-.324-.185.642-.369.817.467c.023.014.05.02.077.019a.136.136 0 0 0 .074-.029.681.681 0 0 0 .272-.462v-.005c0-.03-.006-.06-.018-.088v.001a.147.147 0 0 0-.043-.043l-.001-.001-.457-.263.545-.317.818.466c.114.071.255-.07.334-.21a.382.382 0 0 0 .06-.355l.001.003a.12.12 0 0 0-.043-.044l-.458-.263.571-.334c.036-.026.036-.193-.114-.448-.141-.255-.29-.343-.334-.317l-.571.334v-.536a.118.118 0 0 0-.018-.063v.001a.399.399 0 0 0-.153-.1.404.404 0 0 0-.182-.021h.001c-.158 0-.351.044-.351.184v.941l-.545.316v-.542c0-.02-.006-.04-.018-.056a.177.177 0 0 0-.069-.061l-.001-.001a.648.648 0 0 0-.27-.06.643.643 0 0 0-.27.062l.004-.002a.195.195 0 0 0-.088.12v.942l-.641.369v-.385a.053.053 0 0 0-.004-.025.063.063 0 0 0-.013-.02.184.184 0 0 0-.052-.052l-.001-.001a.539.539 0 0 0-.408.002l.003-.002a.13.13 0 0 0-.05.043.127.127 0 0 0-.02.063v.687l-1.468.844v-1.698l.598-.343a.124.124 0 0 0 .045-.046.123.123 0 0 0 .017-.062v-.006a.505.505 0 0 0-.201-.351l-.001-.001a.113.113 0 0 0-.069-.021.12.12 0 0 0-.053.012v-.001l-.323.185v-.738l.817-.467a.147.147 0 0 0 .071-.125v-.007.001a.703.703 0 0 0-.088-.26.704.704 0 0 0-.183-.205l-.002-.001a.14.14 0 0 0-.074-.028.136.136 0 0 0-.076.02v-.001l-.457.264v-.624l.818-.467c.114-.07.062-.255-.018-.396-.079-.141-.22-.283-.333-.211l-.458.264v-.662c0-.044-.149-.121-.439-.121-.29 0-.439.081-.439.121v.66l-.458-.264c-.114-.07-.254.07-.333.211-.079.141-.132.323-.018.396l.818.466v.624l-.457-.263a.13.13 0 0 0-.077-.019.125.125 0 0 0-.074.028.687.687 0 0 0-.272.463v.003c0 .088.044.121.07.132l.818.467v.738l-.324-.185a.13.13 0 0 0-.062-.011.134.134 0 0 0-.059.02.504.504 0 0 0-.202.35v.011a.119.119 0 0 0 .061.105l.001.001.597.343v1.697l-1.468-.844v-.687a.112.112 0 0 0-.02-.063.118.118 0 0 0-.049-.042l-.001-.001a.539.539 0 0 0-.408.001l.003-.001a.122.122 0 0 0-.07.105v.379l-.642-.37v-.94a.128.128 0 0 0-.086-.121l-.002-.001a.626.626 0 0 0-.54.002l.004-.002c-.07.044-.087.097-.08.121v.537l-.545-.317v-.939c0-.132-.193-.184-.352-.184-.158 0-.351.044-.351.184v.537l-.572-.334c-.035-.026-.184.071-.333.317-.141.255-.15.422-.115.448l.572.334-.457.263c-.115.07-.062.255.017.396.08.141.22.283.334.211l.818-.466.545.316-.457.264a.144.144 0 0 0-.051.053.141.141 0 0 0-.019.072v.007-.001a.68.68 0 0 0 .27.465l.002.001a.14.14 0 0 0 .074.028.136.136 0 0 0 .076-.02v.001l.818-.466.641.369-.323.184a.127.127 0 0 0-.062.109v.006a.505.505 0 0 0 .201.351l.001.001a.125.125 0 0 0 .122.009l.597-.343 1.468.844-1.468.844-.597-.342a.135.135 0 0 0-.062-.012.127.127 0 0 0-.06.021.502.502 0 0 0-.201.349v.003l-.001.008a.119.119 0 0 0 .061.105l.001.001.323.185-.641.369-.818-.467a.13.13 0 0 0-.15.01.674.674 0 0 0-.272.462l-.001.004c0 .087.044.121.07.132l.457.263-.545.317-.817-.466c-.115-.071-.255.07-.334.21-.079.141-.132.324-.018.396l.457.264-.571.334c-.036.026-.036.193.114.448.141.254.29.342.334.316l.571-.334v.537c0 .132.193.185.352.185.158 0 .351-.044.351-.185v-.941l.545-.316v.536a.14.14 0 0 0 .08.122h.001a.62.62 0 0 0 .54-.002l-.004.002a.19.19 0 0 0 .088-.12v-.942l.642-.369v.378c0 .022.007.044.019.062.013.019.03.034.05.043l.001.001a.539.539 0 0 0 .408-.001l-.004.001a.125.125 0 0 0 .051-.043.123.123 0 0 0 .02-.062v-.688l1.459-.843v1.697l-.598.343a.126.126 0 0 0-.061.109v.006a.52.52 0 0 0 .2.351l.001.001c.019.012.04.018.063.018h.012a.07.07 0 0 0 .048-.017l.324-.185v.738l-.833.457a.15.15 0 0 0-.071.125v.007-.001a.68.68 0 0 0 .271.465l.002.001a.177.177 0 0 0 .087.026h.004a.113.113 0 0 0 .059-.018h-.001l.457-.263v.624l-.818.466c-.114.07-.061.255.018.396.07.114.166.229.272.229a.166.166 0 0 0 .062-.019l-.001.001.457-.264v.66c0 .044.15.121.44.121.29 0 .439-.081.439-.121v-.66l.457.264c.019.009.04.015.061.018h.001c.096 0 .202-.115.272-.229.081-.141.132-.323.017-.396l-.817-.466v-.624l.457.263a.125.125 0 0 0 .061.018.197.197 0 0 0 .088-.027l-.001.001a.678.678 0 0 0 .272-.463l.001-.004c0-.087-.044-.121-.07-.132l-.818-.466v-.738l.323.184a.074.074 0 0 0 .048.018h.005a.292.292 0 0 0 .072-.018h-.002a.505.505 0 0 0 .202-.349v-.011a.107.107 0 0 0-.016-.061.112.112 0 0 0-.045-.044v-.001l-.598-.343v-1.698l1.468.844v.688a.123.123 0 0 0 .07.105v.001a.539.539 0 0 0 .408-.002l-.003.002a.198.198 0 0 0 .052-.052v-.001a.155.155 0 0 0 .018-.051v-.379l.642.369v.94a.133.133 0 0 0 .087.122h.001a.617.617 0 0 0 .54-.002l-.004.002a.29.29 0 0 0 .07-.061v-.001a.09.09 0 0 0 .018-.055v-.543l.545.317v.94c0 .132.193.185.351.185a.4.4 0 0 0 .334-.121.164.164 0 0 0 .017-.061v-.538l.572.334c.035.026.184-.07.333-.316.141-.255.15-.423.115-.448l-.546-.327Z" fill="#fff"/></g><g clip-path="url(#j)" filter="url(#k)"><path d="m666.275 569.618-.527-.909-2.131 1.23v-2.461h-1.058v2.461l-2.141-1.23-.528.91 2.14 1.239-2.14 1.23.528.918 2.14-1.239v2.47h1.056v-2.47l2.131 1.239.528-.918-2.131-1.23 2.133-1.24Zm-5.414-3.732 1.541.892h1.369l1.541-.892c.251-.148-.277-1.057-.527-.91l-1.17.675v-1.429c0-.295-1.057-.295-1.057 0v1.429l-1.169-.675c-.259-.157-.788.761-.528.91Zm8.239 7.83-1.239-.719 1.17-.675c.251-.148-.277-1.057-.528-.91l-1.541.892-.684 1.187v1.784c0 .295 1.056.295 1.056 0v-1.351l1.239.719c.249.13.778-.78.527-.927Zm-2.14-4.306 1.541.892c.252.148.78-.77.528-.909l-1.17-.676 1.239-.719c.251-.147-.277-1.056-.528-.909l-1.239.718v-1.351c0-.294-1.056-.294-1.056 0v1.785l.685 1.169Zm-9.885-1.42 1.239.719-1.17.675c-.251.147.277 1.057.527.91l1.542-.892.684-1.187v-1.785c0-.294-1.056-.294-1.056 0v1.352l-1.239-.719c-.258-.13-.786.779-.527.927Zm8.239 7.84-1.541-.892h-1.371l-1.541.892c-.252.147.277 1.056.527.909l1.17-.675v1.429c0 .294 1.056.294 1.056 0v-1.43l1.17.675c.254.149.781-.761.53-.908Zm-6.108-3.526-1.541-.892c-.251-.147-.78.77-.527.91l1.169.675-1.238.719c-.252.147.277 1.057.527.91l1.239-.719v1.351c0 .295 1.056.295 1.056 0v-1.784l-.685-1.17Z" fill="#fff"/></g><g clip-path="url(#l)" filter="url(#m)" fill="#fff"><path d="M570.076 284.753v1.382c0 .285 1.022.285 1.022 0v-1.969l-1.022.587Zm.21-1.994-1.709-.988c-.243-.143-.755.745-.511.88l1.2.687 1.02-.579Zm7.65-4.416v-1.382c0-.285-1.022-.285-1.022 0v1.969l1.022-.587Zm-.218 1.994 1.709.989c.243.142.754-.745.511-.88l-1.2-.687-1.02.578Zm-6.225-3.594 1.709.989v-1.181l-1.201-.687c-.249-.152-.759.737-.508.879Zm3.317.98 1.709-.989c.243-.142-.267-1.022-.511-.88l-1.2.687.002 1.182Zm1.71 8.639-1.709-.988v1.181l1.2.687c.24.142.752-.746.509-.88Zm-3.327-.989-1.709.989c-.242.142.268 1.022.511.88l1.201-.687-.003-1.182Zm-4.608-4.047 1.709-.989-1.022-.586-1.2.687c-.241.143.261 1.022.512.888h.001Zm2.513-4.357c0-.284-1.022-.284-1.022 0v1.383l1.022.586v-1.969Zm8.329 4.81-1.709.988 1.022.587 1.2-.687c.241-.15-.27-1.029-.513-.888Zm-2.513 4.357c0 .285 1.022.285 1.022 0v-1.382l-1.022-.587v1.969Z"/><path d="m579.168 284.049.468-.268c.135-.075-.142-.553-.276-.477l-.745.427-3.067-1.777v-.821l3.067-1.768.745.427c.134.076.411-.402.276-.478l-.468-.268.603-.352c.033-.025.033-.184-.109-.427-.135-.243-.277-.327-.321-.301l-.603.352v-.545c0-.151-.553-.151-.553 0v.863l-3.058 1.768-.712-.402v-3.544l.745-.427c.135-.076-.142-.553-.276-.478l-.469.268v-.704c0-.04-.142-.117-.419-.117-.276 0-.419.076-.419.117v.704l-.469-.268c-.134-.076-.41.402-.276.478l.745.427v3.544l-.712.402-3.058-1.768v-.863c0-.151-.553-.151-.553 0v.545l-.603-.352c-.034-.026-.176.067-.32.301-.134.243-.143.402-.109.427l.603.352-.469.268c-.134.076.142.553.276.478l.746-.427 3.066 1.768v.821l-3.066 1.768-.746-.427c-.134-.076-.41.402-.276.478l.469.267-.603.353c-.034.025-.034.184.109.427.134.242.276.326.32.301l.603-.352v.544c0 .151.553.151.553 0v-.862l3.058-1.768.712.402v3.544l-.745.427c-.134.075.142.553.276.477l.469-.267v.703c0 .04.143.117.419.117.277 0 .419-.076.419-.117v-.703l.469.267c.134.076.411-.402.276-.477l-.745-.427v-3.544l.712-.402 3.058 1.768v.862c0 .151.553.151.553 0v-.544l.603.352c.034.025.177-.067.321-.302.134-.242.142-.402.109-.427l-.603-.343Zm-5.161-1.382-.972-.553v-1.14l.972-.553.972.553v1.14l-.972.553Z"/></g><defs><filter id="a" x="273" y="137" width="16" height="16" filterUnits="userSpaceOnUse" color-interpolation-filters="sRGB"><feFlood flood-opacity="0" result="BackgroundImageFix"/><feBlend in="SourceGraphic" in2="BackgroundImageFix" result="shape"/><feGaussianBlur stdDeviation="1" result="effect1_foregroundBlur_5193_9244"/></filter><filter id="b" x="551" y="14" width="16" height="16" filterUnits="userSpaceOnUse" color-interpolation-filters="sRGB"><feFlood flood-opacity="0" result="BackgroundImageFix"/><feBlend in="SourceGraphic" in2="BackgroundImageFix" result="shape"/><feGaussianBlur stdDeviation="1" result="effect1_foregroundBlur_5193_9244"/></filter><filter id="c" x="47" y="386" width="16" height="16" filterUnits="userSpaceOnUse" color-interpolation-filters="sRGB"><feFlood flood-opacity="0" result="BackgroundImageFix"/><feBlend in="SourceGraphic" in2="BackgroundImageFix" result="shape"/><feGaussianBlur stdDeviation="1" result="effect1_foregroundBlur_5193_9244"/></filter><filter id="e" x="35" y="51" width="16" height="17.714" filterUnits="userSpaceOnUse" color-interpolation-filters="sRGB"><feFlood flood-opacity="0" result="BackgroundImageFix"/><feBlend in="SourceGraphic" in2="BackgroundImageFix" result="shape"/><feGaussianBlur stdDeviation="1" result="effect1_foregroundBlur_5193_9244"/></filter><filter id="g" x="373" y="699" width="16" height="17.714" filterUnits="userSpaceOnUse" color-interpolation-filters="sRGB"><feFlood flood-opacity="0" result="BackgroundImageFix"/><feBlend in="SourceGraphic" in2="BackgroundImageFix" result="shape"/><feGaussianBlur stdDeviation="1" result="effect1_foregroundBlur_5193_9244"/></filter><filter id="i" x="259" y="470" width="16" height="17.714" filterUnits="userSpaceOnUse" color-interpolation-filters="sRGB"><feFlood flood-opacity="0" result="BackgroundImageFix"/><feBlend in="SourceGraphic" in2="BackgroundImageFix" result="shape"/><feGaussianBlur stdDeviation="1" result="effect1_foregroundBlur_5193_9244"/></filter><filter id="k" x="655" y="562" width="16" height="17.714" filterUnits="userSpaceOnUse" color-interpolation-filters="sRGB"><feFlood flood-opacity="0" result="BackgroundImageFix"/><feBlend in="SourceGraphic" in2="BackgroundImageFix" result="shape"/><feGaussianBlur stdDeviation="1" result="effect1_foregroundBlur_5193_9244"/></filter><filter id="m" x="566" y="273" width="16" height="17.088" filterUnits="userSpaceOnUse" color-interpolation-filters="sRGB"><feFlood flood-opacity="0" result="BackgroundImageFix"/><feBlend in="SourceGraphic" in2="BackgroundImageFix" result="shape"/><feGaussianBlur stdDeviation="1" result="effect1_foregroundBlur_5193_9244"/></filter><clipPath id="d"><path fill="#fff" transform="translate(37 53)" d="M0 0h12v13.714H0z"/></clipPath><clipPath id="f"><path fill="#fff" transform="translate(375 701)" d="M0 0h12v13.714H0z"/></clipPath><clipPath id="h"><path fill="#fff" transform="translate(261 472)" d="M0 0h12v13.714H0z"/></clipPath><clipPath id="j"><path fill="#fff" transform="translate(657 564)" d="M0 0h12v13.714H0z"/></clipPath><clipPath id="l"><path fill="#fff" transform="translate(568 275)" d="M0 0h12v13.088H0z"/></clipPath></defs></svg>