<svg width="800" height="800" fill="none" xmlns="http://www.w3.org/2000/svg"><g filter="url(#filter0_f_2091_670)"><path d="M53 61a3 3 0 100-6 3 3 0 000 6z" fill="#fff"/></g><g filter="url(#filter1_f_2091_670)"><path d="M69 664a2 2 0 100-4 2 2 0 000 4z" fill="#fff"/></g><g filter="url(#filter2_f_2091_670)"><path d="M571 261a3 3 0 100-6 3 3 0 000 6z" fill="#fff"/></g><g filter="url(#filter3_f_2091_670)"><path d="M391 702a3 3 0 100-6 3 3 0 000 6z" fill="#fff"/></g><g filter="url(#filter4_f_2091_670)"><path d="M333.5 445a1.5 1.5 0 10-.001-3.001A1.5 1.5 0 00333.5 445z" fill="#fff"/></g><defs><filter id="filter0_f_2091_670" x="46" y="51" width="14" height="14" filterUnits="userSpaceOnUse" color-interpolation-filters="sRGB"><feFlood flood-opacity="0" result="BackgroundImageFix"/><feBlend in="SourceGraphic" in2="BackgroundImageFix" result="shape"/><feGaussianBlur stdDeviation="2" result="effect1_foregroundBlur_2091_670"/></filter><filter id="filter1_f_2091_670" x="63" y="656" width="12" height="12" filterUnits="userSpaceOnUse" color-interpolation-filters="sRGB"><feFlood flood-opacity="0" result="BackgroundImageFix"/><feBlend in="SourceGraphic" in2="BackgroundImageFix" result="shape"/><feGaussianBlur stdDeviation="2" result="effect1_foregroundBlur_2091_670"/></filter><filter id="filter2_f_2091_670" x="564" y="251" width="14" height="14" filterUnits="userSpaceOnUse" color-interpolation-filters="sRGB"><feFlood flood-opacity="0" result="BackgroundImageFix"/><feBlend in="SourceGraphic" in2="BackgroundImageFix" result="shape"/><feGaussianBlur stdDeviation="2" result="effect1_foregroundBlur_2091_670"/></filter><filter id="filter3_f_2091_670" x="384" y="692" width="14" height="14" filterUnits="userSpaceOnUse" color-interpolation-filters="sRGB"><feFlood flood-opacity="0" result="BackgroundImageFix"/><feBlend in="SourceGraphic" in2="BackgroundImageFix" result="shape"/><feGaussianBlur stdDeviation="2" result="effect1_foregroundBlur_2091_670"/></filter><filter id="filter4_f_2091_670" x="328" y="438" width="11" height="11" filterUnits="userSpaceOnUse" color-interpolation-filters="sRGB"><feFlood flood-opacity="0" result="BackgroundImageFix"/><feBlend in="SourceGraphic" in2="BackgroundImageFix" result="shape"/><feGaussianBlur stdDeviation="2" result="effect1_foregroundBlur_2091_670"/></filter></defs></svg>