<svg width="800" height="800" fill="none" xmlns="http://www.w3.org/2000/svg"><path d="M305 25.6a.599.599 0 0 1 .6.6v1.752l1.176-1.176a.598.598 0 0 1 .995.184.593.593 0 0 1-.147.664l-2.024 2.024V31.4h1.752l2.024-2.024a.598.598 0 0 1 .995.184.593.593 0 0 1-.147.664l-1.176 1.176h1.752a.599.599 0 1 1 0 1.2h-1.752l1.176 1.176a.602.602 0 0 1-.184.995.603.603 0 0 1-.664-.147l-2.024-2.024H305.6v1.752l2.024 2.024a.602.602 0 0 1-.184.995.603.603 0 0 1-.664-.147l-1.176-1.176V37.8a.598.598 0 0 1-1.024.424.598.598 0 0 1-.176-.424v-1.752l-1.176 1.176a.6.6 0 0 1-.848-.848l2.024-2.024V32.6h-1.752l-2.024 2.024a.6.6 0 0 1-.848-.848l1.176-1.176H299.2a.599.599 0 1 1 0-1.2h1.752l-1.176-1.176a.599.599 0 0 1 .848-.848l2.024 2.024h1.752v-1.752l-2.024-2.024a.599.599 0 0 1 .848-.848l1.176 1.176V26.2a.599.599 0 0 1 .6-.6Z" fill="#fff"/><g clip-path="url(#a)" fill="#fff"><path d="M641.768 425.004v1.843c0 .379 1.363.379 1.363 0v-2.626l-1.363.783Zm.28-2.659-2.279-1.318c-.324-.19-1.006.994-.681 1.174l1.6.916 1.36-.772Zm10.2-5.888v-1.843c0-.38-1.363-.38-1.363 0v2.626l1.363-.783Zm-.291 2.659 2.279 1.319c.324.189 1.006-.994.681-1.174l-1.6-.916-1.36.771Zm-8.3-4.792 2.279 1.318v-1.575l-1.601-.916c-.333-.201-1.013.983-.678 1.173Zm4.423 1.307 2.279-1.319c.324-.19-.357-1.362-.681-1.173l-1.6.916.002 1.576Zm2.28 11.518-2.279-1.318v1.575l1.601.916c.32.19 1.002-.994.678-1.173Zm-4.435-1.319-2.279 1.319c-.324.189.357 1.362.681 1.173l1.601-.916-.003-1.576Zm-6.145-5.395 2.279-1.319-1.363-.781-1.6.916c-.322.19.349 1.362.683 1.184h.001Zm3.351-5.809c0-.38-1.363-.38-1.363 0v1.843l1.363.782v-2.625Zm11.105 6.412-2.279 1.318 1.363.782 1.6-.916c.322-.199-.36-1.372-.684-1.184Zm-3.351 5.81c0 .379 1.363.379 1.363 0v-1.844l-1.363-.781v2.625Z"/><path d="m653.89 424.066.625-.357c.179-.101-.189-.738-.368-.637l-.994.569-4.089-2.369v-1.095l4.089-2.357.994.569c.179.101.547-.536.368-.637l-.625-.357.804-.47c.045-.033.045-.245-.145-.569-.179-.323-.369-.435-.427-.402l-.804.47v-.727c0-.201-.737-.201-.737 0v1.151l-4.078 2.357-.95-.536v-4.725l.994-.57c.179-.101-.19-.737-.368-.637l-.626.357v-.938c0-.053-.189-.156-.558-.156-.369 0-.559.101-.559.156v.938l-.625-.357c-.179-.101-.547.536-.368.637l.993.57v4.725l-.949.536-4.078-2.357v-1.151c0-.201-.737-.201-.737 0v.727l-.804-.47c-.045-.033-.235.089-.427.402-.179.324-.19.536-.145.569l.804.47-.626.357c-.178.101.19.737.369.637l.994-.569 4.089 2.357v1.095l-4.089 2.357-.994-.569c-.179-.101-.547.536-.369.637l.626.357-.804.47c-.046.033-.046.245.145.569.179.324.369.436.427.402l.804-.47v.726c0 .201.737.201.737 0v-1.15l4.078-2.358.949.536v4.726l-.993.569c-.179.101.189.737.368.637l.625-.357v.938c0 .053.19.156.559.156.369 0 .558-.101.558-.156v-.938l.626.357c.178.101.547-.536.368-.637l-.994-.569v-4.726l.95-.536 4.078 2.358v1.15c0 .201.737.201.737 0v-.726l.804.469c.045.034.235-.089.427-.402.179-.323.19-.536.145-.569l-.804-.457Zm-6.881-1.844-1.296-.737v-1.52l1.296-.737 1.297.737v1.52l-1.297.737Z"/></g><g clip-path="url(#b)"><path d="M460.125 326.625h-1.724l1.039-1.039a.38.38 0 0 0 .114-.267.36.36 0 0 0-.028-.145.36.36 0 0 0-.205-.205.378.378 0 0 0-.29.002.379.379 0 0 0-.121.085l-1.57 1.569h-1.176l.624-.623a.381.381 0 0 0 .087-.412.379.379 0 0 0-.35-.233.38.38 0 0 0-.267.114l-1.154 1.154h-1.199l2.261-2.261h2.22a.375.375 0 0 0 0-.75h-1.47l1.387-1.387a.376.376 0 0 0 .005-.535.379.379 0 0 0-.269-.11.376.376 0 0 0-.266.115l-1.387 1.387v-1.47a.375.375 0 1 0-.75 0v2.22l-2.261 2.261v-1.199l1.154-1.154a.375.375 0 1 0-.531-.53l-.623.623v-1.175l1.57-1.57a.38.38 0 0 0 .004-.535.379.379 0 0 0-.268-.109.38.38 0 0 0-.267.114l-1.039 1.039v-1.724a.376.376 0 0 0-.375-.375.375.375 0 0 0-.375.375v1.724l-1.039-1.039a.381.381 0 0 0-.412-.087.379.379 0 0 0-.233.351.376.376 0 0 0 .115.266l1.569 1.569v1.176l-.624-.623a.379.379 0 0 0-.121-.085.38.38 0 0 0-.414.08.36.36 0 0 0-.081.123.36.36 0 0 0-.028.145.38.38 0 0 0 .114.267l1.154 1.154v1.199l-2.261-2.262v-2.219a.37.37 0 0 0-.11-.265.372.372 0 0 0-.53 0 .375.375 0 0 0-.11.265v1.469l-1.387-1.386a.38.38 0 0 0-.535-.005.379.379 0 0 0-.11.268.381.381 0 0 0 .115.267l1.387 1.387h-1.47a.375.375 0 1 0 0 .75h2.22l2.261 2.261h-1.199l-1.154-1.154a.37.37 0 0 0-.266-.114.379.379 0 0 0-.379.378.381.381 0 0 0 .115.266l.623.624h-1.175l-1.57-1.57a.376.376 0 0 0-.266-.114.378.378 0 0 0-.35.233.36.36 0 0 0-.028.145.362.362 0 0 0 .114.266l1.039 1.04h-1.724a.37.37 0 0 0-.265.11.372.372 0 0 0 0 .53c.07.07.165.11.265.11h1.724l-1.039 1.039a.37.37 0 0 0-.081.409.383.383 0 0 0 .081.122.368.368 0 0 0 .265.109.377.377 0 0 0 .265-.11l1.57-1.569h1.175l-.623.623a.376.376 0 0 0 .265.641c.1 0 .195-.04.265-.11l1.154-1.154h1.199l-2.261 2.261h-2.22a.378.378 0 0 0-.375.375.376.376 0 0 0 .375.375h1.47l-1.387 1.387a.37.37 0 0 0 0 .53.372.372 0 0 0 .53 0l1.388-1.387v1.47a.375.375 0 1 0 .75 0v-2.22l2.26-2.261v1.199l-1.153 1.154a.372.372 0 0 0 0 .53.372.372 0 0 0 .53 0l.624-.623v1.175l-1.57 1.57a.373.373 0 0 0 .001.53.368.368 0 0 0 .265.11.37.37 0 0 0 .265-.11l1.039-1.039v1.724a.375.375 0 1 0 .75 0v-1.724l1.039 1.039a.376.376 0 0 0 .612-.122.372.372 0 0 0-.081-.408l-1.571-1.57v-1.175l.623.623a.378.378 0 0 0 .474.047.371.371 0 0 0 .159-.385.371.371 0 0 0-.102-.192l-1.154-1.154v-1.199l2.261 2.261v2.22a.376.376 0 0 0 .375.375.375.375 0 0 0 .375-.375v-1.47l1.387 1.387a.37.37 0 0 0 .473.047.375.375 0 0 0 .057-.577l-1.386-1.387h1.469a.375.375 0 0 0 0-.75h-2.219l-2.262-2.261h1.199l1.154 1.154a.374.374 0 0 0 .633-.339.379.379 0 0 0-.102-.192l-.625-.623h1.176l1.569 1.569a.374.374 0 0 0 .633-.338.379.379 0 0 0-.102-.192l-1.039-1.039h1.724a.376.376 0 0 0 .375-.375.376.376 0 0 0-.375-.375Z" fill="#fff"/></g><path d="m682.782 120.45 2.556-.68a.518.518 0 0 1 .644.355.517.517 0 0 1-.367.635l-1.555.415 1.112.635a.5.5 0 0 1 .186.685.505.505 0 0 1-.689.185l-1.112-.635.418 1.545a.513.513 0 0 1-.368.635.515.515 0 0 1-.395-.05.514.514 0 0 1-.244-.315l-.684-2.54-1.157-.665a2.537 2.537 0 0 1-1.374.795v1.315l1.872 1.86a.517.517 0 1 1-.735.73l-1.137-1.13v1.275a.507.507 0 0 1-.147.356.507.507 0 0 1-.712 0 .507.507 0 0 1-.147-.356v-1.27l-1.137 1.13c-.201.2-.533.2-.735 0a.515.515 0 0 1 0-.73l1.872-1.86v-1.315a2.515 2.515 0 0 1-1.373-.795l-1.153.66-.684 2.54a.522.522 0 0 1-.954.123.514.514 0 0 1-.052-.393l.418-1.545-1.112.64a.507.507 0 0 1-.742-.561.487.487 0 0 1 .234-.299l1.111-.64-1.554-.415a.521.521 0 0 1-.368-.635.523.523 0 0 1 .639-.365l2.556.68 1.158-.665a2.362 2.362 0 0 1-.141-.785c0-.275.055-.54.141-.775l-1.158-.665-2.556.68a.515.515 0 0 1-.395-.05.514.514 0 0 1-.244-.315.517.517 0 0 1 .368-.635l1.555-.415-1.112-.64a.503.503 0 0 1-.182-.685.505.505 0 0 1 .685-.185l1.117.64-.418-1.545a.514.514 0 0 1 .367-.63.517.517 0 0 1 .634.365l.684 2.54 1.153.66a2.53 2.53 0 0 1 1.373-.795v-1.315l-1.872-1.86a.515.515 0 0 1 .367-.88c.138 0 .269.054.368.15l1.137 1.13V112.5a.503.503 0 0 1 1.006 0v1.275l1.137-1.13a.525.525 0 0 1 .735 0c.201.2.201.53 0 .73l-1.872 1.86v1.315c.528.11 1.008.387 1.368.79l1.157-.665.685-2.54a.522.522 0 0 1 .639-.365c.276.075.443.36.367.635l-.418 1.545 1.112-.635a.511.511 0 0 1 .69.185.501.501 0 0 1-.182.68l-1.111.635 1.554.415a.518.518 0 1 1-.271 1l-2.556-.68-1.157.665c.085.245.14.51.14.785s-.055.535-.14.785l1.157.665Zm-2.027-1.45c0-.828-.676-1.5-1.51-1.5a1.503 1.503 0 0 0-1.509 1.5c0 .829.676 1.5 1.509 1.5a1.506 1.506 0 0 0 1.51-1.5ZM139.782 370.45l2.556-.68a.518.518 0 0 1 .644.355.517.517 0 0 1-.367.635l-1.555.415 1.112.635a.5.5 0 0 1 .186.685.505.505 0 0 1-.689.185l-1.112-.635.418 1.545a.513.513 0 0 1-.368.635.515.515 0 0 1-.395-.05.514.514 0 0 1-.244-.315l-.684-2.54-1.157-.665a2.537 2.537 0 0 1-1.374.795v1.315l1.872 1.86a.517.517 0 1 1-.735.73l-1.137-1.13v1.275a.507.507 0 0 1-.147.356.507.507 0 0 1-.712 0 .507.507 0 0 1-.147-.356v-1.27l-1.137 1.13c-.201.2-.533.2-.735 0a.515.515 0 0 1 0-.73l1.872-1.86v-1.315a2.515 2.515 0 0 1-1.373-.795l-1.153.66-.684 2.54a.522.522 0 0 1-.954.123.514.514 0 0 1-.052-.393l.418-1.545-1.112.64a.507.507 0 0 1-.742-.561.487.487 0 0 1 .234-.299l1.111-.64-1.554-.415a.521.521 0 0 1-.368-.635.523.523 0 0 1 .639-.365l2.556.68 1.158-.665a2.362 2.362 0 0 1-.141-.785c0-.275.055-.54.141-.775l-1.158-.665-2.556.68a.515.515 0 0 1-.395-.05.514.514 0 0 1-.244-.315.517.517 0 0 1 .368-.635l1.555-.415-1.112-.64a.503.503 0 0 1-.182-.685.505.505 0 0 1 .685-.185l1.117.64-.418-1.545a.514.514 0 0 1 .367-.63.517.517 0 0 1 .634.365l.684 2.54 1.153.66a2.53 2.53 0 0 1 1.373-.795v-1.315l-1.872-1.86a.515.515 0 0 1 .367-.88c.138 0 .269.054.368.15l1.137 1.13V362.5a.503.503 0 0 1 1.006 0v1.275l1.137-1.13a.525.525 0 0 1 .735 0c.201.2.201.53 0 .73l-1.872 1.86v1.315c.528.11 1.008.387 1.368.79l1.157-.665.685-2.54a.522.522 0 0 1 .639-.365c.276.075.443.36.367.635l-.418 1.545 1.112-.635a.511.511 0 0 1 .69.185.501.501 0 0 1-.182.68l-1.111.635 1.554.415a.518.518 0 1 1-.271 1l-2.556-.68-1.157.665c.085.245.14.51.14.785s-.055.535-.14.785l1.157.665Zm-2.027-1.45c0-.828-.676-1.5-1.51-1.5a1.503 1.503 0 0 0-1.509 1.5c0 .829.676 1.5 1.509 1.5a1.506 1.506 0 0 0 1.51-1.5Z" fill="#fff"/><g clip-path="url(#c)"><path d="m238.381 598.694.61-.351a.15.15 0 0 0 .059-.058c.07-.116 0-.317-.083-.469-.107-.187-.293-.377-.445-.281l-1.09.622-.727-.423.61-.351a.14.14 0 0 0 .058-.058.29.29 0 0 0 .024-.116v-.002a.905.905 0 0 0-.361-.619l-.002-.002a.175.175 0 0 0-.201-.011l.001-.001-1.09.622-.856-.492.431-.247a.21.21 0 0 0 .058-.057l.001-.001a.232.232 0 0 0 .023-.094.687.687 0 0 0-.268-.468l-.001-.001a.152.152 0 0 0-.092-.028.16.16 0 0 0-.071.016h.001l-.797.457-1.958-1.126 1.957-1.124.797.457a.168.168 0 0 0 .162-.012h-.001a.668.668 0 0 0 .269-.467v-.007a.185.185 0 0 0-.023-.09v.001a.147.147 0 0 0-.057-.059l-.432-.246.855-.492 1.09.621a.178.178 0 0 0 .103.026.17.17 0 0 0 .098-.038.905.905 0 0 0 .362-.617l.001-.004v-.002c0-.04-.008-.08-.024-.117l.001.001a.266.266 0 0 0-.058-.058h-.001l-.61-.352.727-.422 1.091.622c.152.094.339-.094.445-.281a.511.511 0 0 0 .08-.473l.001.004a.147.147 0 0 0-.058-.058l-.61-.352.762-.445c.047-.035.047-.257-.153-.597-.187-.34-.387-.457-.445-.422l-.761.445v-.716a.155.155 0 0 0-.025-.083l.001.001a.539.539 0 0 0-.447-.161h.002c-.211 0-.469.058-.469.246v1.254l-.726.422v-.724a.141.141 0 0 0-.024-.074.232.232 0 0 0-.092-.081l-.002-.001a.83.83 0 0 0-.72.002l.006-.002a.257.257 0 0 0-.117.16v1.256l-.856.492v-.504l.001-.011a.07.07 0 0 0-.005-.032.083.083 0 0 0-.019-.027.217.217 0 0 0-.069-.069l-.001-.001a.717.717 0 0 0-.544.001l.005-.001a.16.16 0 0 0-.094.14v.917l-1.957 1.125v-2.264l.797-.457a.167.167 0 0 0 .082-.144v-.009a.687.687 0 0 0-.267-.468l-.002-.001a.15.15 0 0 0-.091-.028.161.161 0 0 0-.072.016h.001l-.431.246v-.985l1.09-.621a.204.204 0 0 0 .094-.167v-.009a.924.924 0 0 0-.361-.619l-.003-.002a.174.174 0 0 0-.2-.011l.001-.001-.61.351v-.832l1.09-.621c.153-.094.083-.34-.023-.528-.106-.188-.294-.377-.445-.281l-.61.351v-.882c0-.059-.199-.162-.586-.162-.386 0-.586.107-.586.162v.879l-.609-.351c-.152-.094-.34.093-.445.281-.105.187-.176.431-.024.528l1.091.621v.832l-.61-.351a.173.173 0 0 0-.102-.025.174.174 0 0 0-.098.037.92.92 0 0 0-.363.618l-.001.004c0 .117.059.162.094.176l1.09.622v.984l-.431-.246a.168.168 0 0 0-.162.012h.001a.674.674 0 0 0-.269.467v.003l-.001.011c0 .029.007.057.022.081a.16.16 0 0 0 .059.059l.001.001.797.457v2.264l-1.957-1.126v-.916a.152.152 0 0 0-.027-.083.152.152 0 0 0-.066-.057l-.001-.001a.717.717 0 0 0-.544.001l.005-.001a.155.155 0 0 0-.067.057.152.152 0 0 0-.027.083v.504l-.856-.492v-1.254a.177.177 0 0 0-.032-.099.18.18 0 0 0-.084-.062l-.001-.001a.833.833 0 0 0-.72.002l.005-.002c-.093.059-.116.129-.107.161v.716l-.727-.422v-1.252c0-.176-.258-.246-.469-.246-.211 0-.468.059-.468.246v.715l-.762-.445c-.047-.035-.246.094-.445.423-.187.339-.2.563-.152.597l.762.445-.61.351c-.152.094-.082.34.024.528.106.188.293.377.445.281l1.09-.622.727.423-.61.351a.2.2 0 0 0-.094.167v.009-.001a.904.904 0 0 0 .362.619l.002.002a.174.174 0 0 0 .2.011v.001l1.09-.622.855.493-.431.246a.167.167 0 0 0-.082.145v.008a.687.687 0 0 0 .267.468l.002.001a.15.15 0 0 0 .091.028c.025 0 .05-.005.072-.016h-.001l.797-.457 1.957 1.126-1.957 1.125-.797-.457a.168.168 0 0 0-.162.012.678.678 0 0 0-.268.466v.003l-.001.012c0 .028.007.056.022.081a.16.16 0 0 0 .059.059l.001.001.431.246-.855.492-1.09-.622a.177.177 0 0 0-.201.012.92.92 0 0 0-.363.618v.004c0 .117.058.162.093.176l.61.351-.727.423-1.09-.622c-.153-.094-.34.094-.445.281-.105.187-.176.431-.024.528l.61.351-.762.445c-.047.035-.047.258.152.597.188.34.387.458.445.423l.762-.445v.715c0 .176.258.246.469.246.211 0 .468-.059.468-.246v-1.254l.727-.422v.715a.181.181 0 0 0 .107.162l.001.001a.843.843 0 0 0 .72-.003l-.005.003a.271.271 0 0 0 .075-.068.265.265 0 0 0 .042-.092v-1.256l.855-.492v.503c.001.03.01.059.027.084a.166.166 0 0 0 .066.057h.001c.174.071.37.071.544-.001l-.005.001a.16.16 0 0 0 .094-.14v-.916l1.946-1.125v2.264l-.797.457a.167.167 0 0 0-.082.145v.008a.67.67 0 0 0 .086.261.665.665 0 0 0 .181.207l.002.001a.156.156 0 0 0 .083.025h.016a.102.102 0 0 0 .064-.024l.432-.246v.984l-1.111.609a.204.204 0 0 0-.069.071.202.202 0 0 0-.025.096v.009-.001a.907.907 0 0 0 .361.62l.003.001a.25.25 0 0 0 .116.035h.005a.152.152 0 0 0 .078-.024h-.001l.61-.351v.832l-1.09.621c-.153.094-.083.34.022.528.094.153.223.305.364.305a.24.24 0 0 0 .083-.024l-.002.001.61-.352v.88c0 .058.2.161.586.161.386 0 .586-.107.586-.161v-.88l.609.352c.026.012.053.02.081.023h.001c.129 0 .27-.152.363-.305.108-.187.176-.431.023-.528l-1.09-.621v-.832l.609.351a.167.167 0 0 0 .082.024.271.271 0 0 0 .118-.036h-.002a.9.9 0 0 0 .363-.617l.001-.004c0-.117-.059-.162-.094-.176l-1.09-.622v-.984l.431.246a.1.1 0 0 0 .064.023h.006a.397.397 0 0 0 .096-.024l-.002.001a.665.665 0 0 0 .269-.467v-.003l.001-.011a.161.161 0 0 0-.082-.14l-.001-.001-.797-.457v-2.264l1.958 1.126v.916a.16.16 0 0 0 .093.14v.001c.175.071.37.071.544-.001l-.004.001a.227.227 0 0 0 .069-.069l.001-.001a.269.269 0 0 0 .024-.069v-.505l.855.493v1.254c.002.074.05.137.116.161l.002.001a.841.841 0 0 0 .72-.002l-.006.002a.383.383 0 0 0 .093-.082h.001a.126.126 0 0 0 .024-.074v-.724l.726.422v1.254c0 .176.258.246.469.246a.533.533 0 0 0 .445-.161.234.234 0 0 0 .023-.082v-.716l.762.445c.047.035.246-.094.445-.422.187-.34.199-.563.152-.598l-.728-.435Z" fill="#fff"/></g><g clip-path="url(#d)"><path d="m114.742 168.388-1.166.67-1.062-.612 1.235-.715c.288-.162-.312-1.212-.601-1.039l-1.835 1.062-1.478-.854v-1.513l1.478-.854 1.835 1.062c.289.163.889-.877.601-1.039l-1.235-.715 1.062-.612 1.167.669c.208.128.657-.646.439-.761l-.727-.416.68-.393c.335-.196-.369-1.408-.704-1.212l-.681.392v-.842c0-.243-.889-.243-.889 0v1.35l-1.062.612v-1.432c0-.334-1.2-.334-1.2 0v2.124l-1.466.843-1.316-.739v-1.708l1.835-1.062c.289-.162-.312-1.212-.601-1.039l-1.233.714v-1.223l1.166-.672c.208-.127-.231-.889-.439-.762l-.727.416v-.794c0-.392-1.408-.392-1.408 0v.785l-.727-.416c-.208-.127-.657.646-.439.762l1.165.67v1.223l-1.236-.715c-.288-.162-.889.877-.6 1.039l1.835 1.062v1.709l-1.315.738-1.466-.854v-2.101c0-.334-1.2-.334-1.2 0v1.432l-1.062-.612v-1.35c0-.243-.89-.243-.89 0v.842l-.68-.392c-.335-.196-1.04 1.029-.705 1.212l.681.393-.715.416c-.208.127.23.889.439.761l1.178-.669 1.062.612-1.236.715c-.289.162.312 1.212.6 1.039l1.836-1.062 1.477.854v1.513l-1.477.854-1.837-1.062c-.289-.162-.889.877-.6 1.04l1.235.715-1.062.612-1.165-.67c-.208-.127-.657.646-.439.762l.727.416-.68.392c-.335.196.369 1.408.703 1.213l.682-.392v.843c0 .242.889.242.889 0v-1.352l1.064-.612v1.432c0 .334 1.2.334 1.2 0v-2.124l1.466-.843 1.316.739v1.709l-1.836 1.062c-.289.162.312 1.212.601 1.039l1.235-.715v1.224l-1.178.681c-.208.127.231.889.439.762l.726-.416v.784c0 .393 1.408.393 1.408 0v-.784l.727.416c.208.127.658-.647.439-.762l-1.166-.67v-1.224l1.235.716c.288.162.889-.877.6-1.039l-1.835-1.063v-1.708l1.315-.739 1.466.854v2.102c0 .334 1.2.334 1.2 0v-1.432l1.062.612v1.351c0 .242.89.242.89 0v-.842l.681.392c.334.196 1.039-1.028.704-1.212l-.681-.392.726-.416c.198-.128-.242-.89-.45-.763v-.002Zm-7.619-.45-1.558-.889v-1.812l1.558-.877 1.558.877v1.813l-1.558.888Z" fill="#fff"/></g><g clip-path="url(#e)"><path d="m615.367 694.491-.703-1.213-2.841 1.64v-3.281h-1.411v3.281l-2.855-1.639-.703 1.212 2.853 1.652-2.853 1.641.703 1.224 2.853-1.652v3.292h1.409v-3.292l2.841 1.652.703-1.224-2.841-1.641 2.845-1.652Zm-7.219-4.977 2.055 1.189h1.825l2.055-1.189c.335-.197-.37-1.409-.704-1.213l-1.559.901v-1.907c0-.392-1.409-.392-1.409 0v1.907l-1.56-.901c-.345-.21-1.05 1.014-.703 1.213Zm10.985 10.44-1.652-.958 1.56-.901c.335-.196-.369-1.409-.703-1.213l-2.055 1.19-.913 1.582v2.38c0 .392 1.409.392 1.409 0v-1.802l1.652.958c.332.173 1.037-1.04.702-1.236Zm-2.853-5.741 2.055 1.19c.335.196 1.04-1.027.703-1.213l-1.56-.901 1.652-.958c.335-.197-.369-1.409-.703-1.213l-1.652.958v-1.802c0-.392-1.409-.392-1.409 0v2.38l.914 1.559Zm-13.18-1.894 1.652.959-1.56.9c-.335.197.369 1.409.703 1.213l2.055-1.189.913-1.583v-2.379c0-.392-1.409-.392-1.409 0v1.802l-1.652-.959c-.343-.173-1.047 1.04-.701 1.236h-.001Zm10.985 10.454-2.055-1.19h-1.828l-2.055 1.19c-.335.196.37 1.408.704 1.213l1.559-.901v1.905c0 .392 1.409.392 1.409 0v-1.907l1.56.901c.338.198 1.041-1.015.707-1.211h-.001Zm-8.143-4.701-2.055-1.19c-.335-.196-1.04 1.027-.703 1.213l1.559.901-1.652.958c-.335.197.37 1.409.704 1.213l1.651-.958v1.802c0 .392 1.409.392 1.409 0v-2.38l-.913-1.559Z" fill="#fff"/></g><defs><clipPath id="a"><path fill="#fff" transform="translate(639 412)" d="M0 0h16v17.451H0z"/></clipPath><clipPath id="b"><path fill="#fff" transform="translate(445 319)" d="M0 0h16v16H0z"/></clipPath><clipPath id="c"><path fill="#fff" transform="translate(223 586)" d="M0 0h16v18.286H0z"/></clipPath><clipPath id="d"><path fill="#fff" transform="translate(99 157)" d="M0 0h16v18.286H0z"/></clipPath><clipPath id="e"><path fill="#fff" transform="translate(603 687)" d="M0 0h16v18.286H0z"/></clipPath></defs></svg>