<svg width="24" height="22" fill="none" xmlns="http://www.w3.org/2000/svg"><path d="M22.558 14.682c-.894.339-1.828.567-2.785.68a5.19 5.19 0 00-.622-3.648 5.183 5.183 0 00-2.874-2.328 5.158 5.158 0 00.4 3.55 5.235 5.235 0 002.597 2.479 12.32 12.32 0 01-3.65-.26 13.008 13.008 0 01-2.264-.735c.636-.984.887-2.196.703-3.403a5.314 5.314 0 00-1.7-3.143 4.774 4.774 0 00-1.077 2.901 5.26 5.26 0 00.886 3.076 13.536 13.536 0 01-4.144-3.538c.895-.801 1.443-1.941 1.53-3.188A5.257 5.257 0 008.5 3.603 4.588 4.588 0 006.967 5.82a5.052 5.052 0 00-.076 2.785 14.06 14.06 0 01-1.12-2.522 5.116 5.116 0 00-.185-3.472A5.272 5.272 0 003.236 0a4.985 4.985 0 00-.341 3.126 5.318 5.318 0 001.583 2.8c.217.732.489 1.45.813 2.144a4.979 4.979 0 00-2.6-1.118A4.533 4.533 0 000 7.471a5.21 5.21 0 002.732 2.38c1.15.428 2.391.402 3.478-.073a15.052 15.052 0 003.028 3.499 4.747 4.747 0 00-2.7-.368 4.455 4.455 0 00-2.384 1.19c.893.978 2.108 1.57 3.378 1.648a4.484 4.484 0 003.397-1.235c.845.53 1.738.969 2.663 1.31a4.459 4.459 0 00-2.319 1.034 4.61 4.61 0 00-1.4 2.152c1.156.431 2.404.405 3.494-.074a4.519 4.519 0 002.387-2.51 13.51 13.51 0 003.426.241 4.516 4.516 0 00-2.036 2.155 4.986 4.986 0 00-.33 3.05 4.458 4.458 0 002.95-1.855c.698-.997.984-2.252.8-3.508.844-.138 1.668-.36 2.463-.66a.572.572 0 00.344-.383.655.655 0 00-.374-.767.584.584 0 00-.438-.013l-.001-.002z" fill="#000"/><path d="M22.558 14.682c-.894.339-1.828.567-2.785.68a5.19 5.19 0 00-.622-3.648 5.183 5.183 0 00-2.874-2.328 5.158 5.158 0 00.4 3.55 5.235 5.235 0 002.597 2.479 12.32 12.32 0 01-3.65-.26 13.008 13.008 0 01-2.264-.735c.636-.984.887-2.196.703-3.403a5.314 5.314 0 00-1.7-3.143 4.774 4.774 0 00-1.077 2.901 5.26 5.26 0 00.886 3.076 13.536 13.536 0 01-4.144-3.538c.895-.801 1.443-1.941 1.53-3.188A5.257 5.257 0 008.5 3.603 4.588 4.588 0 006.967 5.82a5.052 5.052 0 00-.076 2.785 14.06 14.06 0 01-1.12-2.522 5.116 5.116 0 00-.185-3.472A5.272 5.272 0 003.236 0a4.985 4.985 0 00-.341 3.126 5.318 5.318 0 001.583 2.8c.217.732.489 1.45.813 2.144a4.979 4.979 0 00-2.6-1.118A4.533 4.533 0 000 7.471a5.21 5.21 0 002.732 2.38c1.15.428 2.391.402 3.478-.073a15.052 15.052 0 003.028 3.499 4.747 4.747 0 00-2.7-.368 4.455 4.455 0 00-2.384 1.19c.893.978 2.108 1.57 3.378 1.648a4.484 4.484 0 003.397-1.235c.845.53 1.738.969 2.663 1.31a4.459 4.459 0 00-2.319 1.034 4.61 4.61 0 00-1.4 2.152c1.156.431 2.404.405 3.494-.074a4.519 4.519 0 002.387-2.51 13.51 13.51 0 003.426.241 4.516 4.516 0 00-2.036 2.155 4.986 4.986 0 00-.33 3.05 4.458 4.458 0 002.95-1.855c.698-.997.984-2.252.8-3.508.844-.138 1.668-.36 2.463-.66a.572.572 0 00.344-.383.655.655 0 00-.374-.767.584.584 0 00-.438-.013l-.001-.002z" fill="#DDC916"/><path d="M3.237 0a5.272 5.272 0 012.35 2.611l.082.21a5.104 5.104 0 01.103 3.262c.289.874.664 1.719 1.12 2.522a5.052 5.052 0 01.075-2.785A4.588 4.588 0 018.5 3.603a5.257 5.257 0 011.06 3.522l-.023.232a4.681 4.681 0 01-1.508 2.956 13.536 13.536 0 004.144 3.538 5.27 5.27 0 01-.888-2.873l.002-.203c.034-1.08.413-2.1 1.078-2.901a5.314 5.314 0 011.7 3.143l.029.226a4.885 4.885 0 01-.733 3.177c.735.315 1.492.561 2.263.735a12.32 12.32 0 003.651.26 5.226 5.226 0 01-2.488-2.274l-.108-.206a5.158 5.158 0 01-.401-3.55 5.183 5.183 0 012.874 2.33 5.19 5.19 0 01.622 3.648c.957-.114 1.89-.342 2.785-.681l.001.002a.584.584 0 01.438.012c.143.06.26.173.33.315l.042.11a.63.63 0 01.002.342.572.572 0 01-.264.346l-.08.037c-.795.301-1.619.523-2.462.661.183 1.256-.103 2.511-.8 3.508l-.136.183a4.454 4.454 0 01-2.593 1.63l-.223.042a5.003 5.003 0 01.256-2.873l.075-.177a4.516 4.516 0 012.036-2.155 13.51 13.51 0 01-3.426-.241 4.528 4.528 0 01-2.185 2.415l-.202.095c-1.09.48-2.338.505-3.494.074a4.631 4.631 0 011.163-1.934l.238-.219a4.459 4.459 0 012.318-1.034c-.925-.34-1.818-.78-2.663-1.309a4.484 4.484 0 01-3.397 1.235c-1.27-.077-2.485-.67-3.378-1.648a4.455 4.455 0 012.385-1.19 4.747 4.747 0 012.699.368A15.052 15.052 0 016.21 9.778a4.617 4.617 0 01-3.261.148l-.217-.074A5.21 5.21 0 010 7.47a4.533 4.533 0 012.69-.519 4.979 4.979 0 012.6 1.118 15.57 15.57 0 01-.812-2.145 5.318 5.318 0 01-1.583-2.799A4.985 4.985 0 013.237 0zm16.257 17.273a3.83 3.83 0 00-1.726 1.83 4.23 4.23 0 00-.369 1.91 3.776 3.776 0 001.804-1.39c.593-.848.844-1.925.684-3.016l-.082-.559-.626.075.315 1.15zm-5.811-.773c-.731.098-1.409.4-1.963.875-.38.326-.694.727-.926 1.18.786.15 1.585.066 2.298-.248a3.836 3.836 0 002.025-2.133l.156-.401a13.95 13.95 0 01-1.462-.44l-.128 1.167zm3.134-6.14a4.54 4.54 0 00.474 2.27 4.58 4.58 0 001.89 1.979 4.55 4.55 0 00-.62-2.549 4.56 4.56 0 00-1.744-1.7zm-4.364-1.392a4.168 4.168 0 00-.483 1.829 4.58 4.58 0 00.772 2.674l-.783.852c.16.088.321.172.484.254l.342-.528c.542-.838.761-1.88.601-2.929a4.625 4.625 0 00-.933-2.152zm-7.25 5.172a4.262 4.262 0 002.37.924 3.8 3.8 0 002.882-1.046l.265-.255a14.49 14.49 0 01-1.135-.858l-.628.997a4.062 4.062 0 00-2.309-.317c-.52.084-1.01.275-1.446.555zm-4.18-6.36A4.478 4.478 0 002.97 9.21a3.965 3.965 0 002.792.012l.173-.071.541-.237.313.5c.145.232.298.458.455.68l.326-.29c.758-.678 1.229-1.65 1.305-2.727a4.536 4.536 0 00-.506-2.4c-.331.39-.588.847-.75 1.353a4.369 4.369 0 00-.064 2.407l-1.26.506c-.193-.34-.373-.69-.538-1.044l-.902.7a4.296 4.296 0 00-2.242-.966 3.893 3.893 0 00-1.59.147zm2.568-6.724a4.382 4.382 0 00-.027 1.93 4.63 4.63 0 001.379 2.437l.137.128.053.18.013.044a4.44 4.44 0 00-.192-2.9 4.625 4.625 0 00-1.363-1.82z" fill="#FFE500"/></svg>