<svg width="40" height="40" fill="none" xmlns="http://www.w3.org/2000/svg"><path d="M36.095 14.903a2.577 2.577 0 00-1.523-.505c-.543 0-1.074.176-1.523.505l-4.735 3.173a.34.34 0 01-.3 0 .431.431 0 01-.252-.205l-5.05-9.824a2.874 2.874 0 00-1.008-1.06 2.604 2.604 0 00-1.36-.387 2.6 2.6 0 00-1.36.387 2.874 2.874 0 00-1.007 1.06l-5.24 9.807a.43.43 0 01-.253.204.34.34 0 01-.3 0L7.53 14.835a2.565 2.565 0 00-1.51-.454 2.58 2.58 0 00-1.489.522 2.94 2.94 0 00-1 1.348 3.192 3.192 0 00-.136 1.722l2.65 13.457c.13.669.47 1.27.961 1.702a2.638 2.638 0 001.738.668h23.184a2.638 2.638 0 001.738-.668c.492-.432.83-1.033.961-1.702l2.651-13.457a3.19 3.19 0 00-.156-1.73 2.927 2.927 0 00-1.027-1.34z" fill="#323243"/><path d="M36.095 14.903a2.577 2.577 0 00-1.523-.505c-.543 0-1.074.176-1.523.505l-4.735 3.173a.34.34 0 01-.3 0 .431.431 0 01-.252-.205l-5.05-9.824a2.874 2.874 0 00-1.008-1.06 2.604 2.604 0 00-1.36-.387 2.6 2.6 0 00-1.36.387 2.874 2.874 0 00-1.007 1.06l-5.24 9.807a.43.43 0 01-.253.204.34.34 0 01-.3 0L7.53 14.835a2.565 2.565 0 00-1.51-.454 2.58 2.58 0 00-1.489.522 2.94 2.94 0 00-1 1.348 3.192 3.192 0 00-.136 1.722l2.65 13.457c.13.669.47 1.27.961 1.702a2.638 2.638 0 001.738.668h23.184a2.638 2.638 0 001.738-.668c.492-.432.83-1.033.961-1.702l2.651-13.457a3.19 3.19 0 00-.156-1.73 2.927 2.927 0 00-1.027-1.34z" fill="url(#paint0_linear_132_6962)"/><defs><linearGradient id="paint0_linear_132_6962" x1="21.643" y1="33.6" x2="20.787" y2="6.627" gradientUnits="userSpaceOnUse"><stop stop-color="#DDA516"/><stop offset="1" stop-color="#DDC916"/></linearGradient></defs></svg>