<svg width="40" height="40" fill="none" xmlns="http://www.w3.org/2000/svg"><path d="M7.607 21.05a1.759 1.759 0 010-2.487L18.802 7.368a1.759 1.759 0 012.488 0l11.195 11.195a1.759 1.759 0 11-2.488 2.487l-9.951-9.95-9.951 9.951a1.76 1.76 0 01-2.488 0z" fill="#fff"/><path d="M7.607 21.05a1.759 1.759 0 010-2.487L18.802 7.368a1.759 1.759 0 012.488 0l11.195 11.195a1.759 1.759 0 11-2.488 2.487l-9.951-9.95-9.951 9.951a1.76 1.76 0 01-2.488 0z" fill="url(#paint0_linear_132_6967)"/><path d="M7.607 32.778a1.759 1.759 0 010-2.487l11.195-11.196a1.759 1.759 0 012.488 0l11.195 11.196a1.759 1.759 0 11-2.488 2.487l-9.951-9.951-9.951 9.951a1.76 1.76 0 01-2.488 0z" fill="#fff"/><path d="M7.607 32.778a1.759 1.759 0 010-2.487l11.195-11.196a1.759 1.759 0 012.488 0l11.195 11.196a1.759 1.759 0 11-2.488 2.487l-9.951-9.951-9.951 9.951a1.76 1.76 0 01-2.488 0z" fill="url(#paint1_linear_132_6967)"/><defs><linearGradient id="paint0_linear_132_6967" x1="32.81" y1="25.37" x2="7.217" y2="27.159" gradientUnits="userSpaceOnUse"><stop stop-color="#DDA516"/><stop offset="1" stop-color="#DDC916"/></linearGradient><linearGradient id="paint1_linear_132_6967" x1="32.81" y1="25.37" x2="7.217" y2="27.159" gradientUnits="userSpaceOnUse"><stop stop-color="#DDA516"/><stop offset="1" stop-color="#DDC916"/></linearGradient></defs></svg>