<svg width="40" height="40" fill="none" xmlns="http://www.w3.org/2000/svg"><path d="M29.668 21.467h-8.334v11.666H26c.961 0 1.582-.001 2.054-.04.453-.037.621-.1.703-.142.314-.16.57-.414.729-.727.042-.083.104-.251.141-.703.039-.472.04-1.093.04-2.054v-8zm-20 8c0 .96.001 1.582.04 2.054.036.452.1.62.141.702l.065.115c.16.261.39.474.664.613.082.042.25.105.703.142.472.039 1.093.04 2.053.04H18V21.467H9.667v8zM33 14.133c0-.494-.001-.765-.017-.959 0-.008-.002-.015-.003-.021l-.022-.002a13.635 13.635 0 00-.959-.018H21.335v5h10.667c.494 0 .764 0 .959-.017l.021-.003.003-.021c.016-.194.017-.465.017-.959v-3zm-26.667 3c0 .494.001.765.017.959l.002.021.022.003c.195.016.466.017.96.017H18v-5H7.334c-.493 0-.764.002-.958.018-.008 0-.016 0-.023.002l-.002.021a13.77 13.77 0 00-.017.96v3zm20.834-9c0-.451-.177-.878-.482-1.188a1.578 1.578 0 00-1.126-.478c-1.35 0-2.388.96-3.198 2.458-.158.293-.294.59-.414.875h3.612c.417 0 .822-.168 1.126-.477.305-.31.482-.738.482-1.19zm-15 0c0 .452.176.88.48 1.19.305.309.71.477 1.127.477h3.612c-.12-.285-.256-.582-.414-.875-.81-1.499-1.849-2.458-3.198-2.458-.417 0-.822.168-1.126.478-.305.31-.481.737-.481 1.188zm18.332 0a5.04 5.04 0 01-.283 1.667H32c.439 0 .869-.001 1.23.028.334.028.72.087 1.114.256l.17.08.229.128c.447.275.824.651 1.098 1.099l.13.23.078.168c.17.395.229.78.256 1.114.03.361.029.791.029 1.23v3c0 .44 0 .87-.029 1.23-.031.381-.104.831-.335 1.284a3.335 3.335 0 01-1.457 1.457c-.452.23-.902.304-1.283.335a5.429 5.429 0 01-.23.012v8.016c0 .906.001 1.686-.051 2.325-.054.659-.173 1.314-.494 1.945a5 5 0 01-2.185 2.185c-.63.322-1.286.44-1.945.493-.64.053-1.42.052-2.326.052H13.335c-.906 0-1.686 0-2.326-.052-.659-.054-1.314-.172-1.945-.493a5 5 0 01-2.185-2.185c-.32-.63-.44-1.286-.494-1.945-.052-.64-.05-1.42-.05-2.325v-8.016a5.391 5.391 0 01-.231-.012 3.509 3.509 0 01-1.114-.256l-.17-.08a3.335 3.335 0 01-1.456-1.456c-.23-.453-.304-.902-.335-1.284-.03-.36-.028-.79-.028-1.23v-3c0-.439-.002-.869.028-1.23.031-.381.105-.83.335-1.283.32-.627.83-1.137 1.457-1.457l.17-.079a3.51 3.51 0 011.113-.256c.361-.03.791-.028 1.23-.028h1.784a5.03 5.03 0 011.152-5.19 4.912 4.912 0 013.504-1.476c2.992 0 4.847 2.033 5.893 3.79 1.045-1.757 2.9-3.79 5.892-3.79 1.32 0 2.58.535 3.504 1.476A5.032 5.032 0 0130.5 8.133z" fill="#000"/><path d="M29.668 21.467h-8.334v11.666H26c.961 0 1.582-.001 2.054-.04.453-.037.621-.1.703-.142.314-.16.57-.414.729-.727.042-.083.104-.251.141-.703.039-.472.04-1.093.04-2.054v-8zm-20 8c0 .96.001 1.582.04 2.054.036.452.1.62.141.702l.065.115c.16.261.39.474.664.613.082.042.25.105.703.142.472.039 1.093.04 2.053.04H18V21.467H9.667v8zM33 14.133c0-.494-.001-.765-.017-.959 0-.008-.002-.015-.003-.021l-.022-.002a13.635 13.635 0 00-.959-.018H21.335v5h10.667c.494 0 .764 0 .959-.017l.021-.003.003-.021c.016-.194.017-.465.017-.959v-3zm-26.667 3c0 .494.001.765.017.959l.002.021.022.003c.195.016.466.017.96.017H18v-5H7.334c-.493 0-.764.002-.958.018-.008 0-.016 0-.023.002l-.002.021a13.77 13.77 0 00-.017.96v3zm20.834-9c0-.451-.177-.878-.482-1.188a1.578 1.578 0 00-1.126-.478c-1.35 0-2.388.96-3.198 2.458-.158.293-.294.59-.414.875h3.612c.417 0 .822-.168 1.126-.477.305-.31.482-.738.482-1.19zm-15 0c0 .452.176.88.48 1.19.305.309.71.477 1.127.477h3.612c-.12-.285-.256-.582-.414-.875-.81-1.499-1.849-2.458-3.198-2.458-.417 0-.822.168-1.126.478-.305.31-.481.737-.481 1.188zm18.332 0a5.04 5.04 0 01-.283 1.667H32c.439 0 .869-.001 1.23.028.334.028.72.087 1.114.256l.17.08.229.128c.447.275.824.651 1.098 1.099l.13.23.078.168c.17.395.229.78.256 1.114.03.361.029.791.029 1.23v3c0 .44 0 .87-.029 1.23-.031.381-.104.831-.335 1.284a3.335 3.335 0 01-1.457 1.457c-.452.23-.902.304-1.283.335a5.429 5.429 0 01-.23.012v8.016c0 .906.001 1.686-.051 2.325-.054.659-.173 1.314-.494 1.945a5 5 0 01-2.185 2.185c-.63.322-1.286.44-1.945.493-.64.053-1.42.052-2.326.052H13.335c-.906 0-1.686 0-2.326-.052-.659-.054-1.314-.172-1.945-.493a5 5 0 01-2.185-2.185c-.32-.63-.44-1.286-.494-1.945-.052-.64-.05-1.42-.05-2.325v-8.016a5.391 5.391 0 01-.231-.012 3.509 3.509 0 01-1.114-.256l-.17-.08a3.335 3.335 0 01-1.456-1.456c-.23-.453-.304-.902-.335-1.284-.03-.36-.028-.79-.028-1.23v-3c0-.439-.002-.869.028-1.23.031-.381.105-.83.335-1.283.32-.627.83-1.137 1.457-1.457l.17-.079a3.51 3.51 0 011.113-.256c.361-.03.791-.028 1.23-.028h1.784a5.03 5.03 0 011.152-5.19 4.912 4.912 0 013.504-1.476c2.992 0 4.847 2.033 5.893 3.79 1.045-1.757 2.9-3.79 5.892-3.79 1.32 0 2.58.535 3.504 1.476A5.032 5.032 0 0130.5 8.133z" fill="url(#paint0_linear_132_6972)"/><defs><linearGradient id="paint0_linear_132_6972" x1="20.823" y1="34.58" x2="19.643" y2="4.847" gradientUnits="userSpaceOnUse"><stop stop-color="#DDA516"/><stop offset="1" stop-color="#DDC916"/></linearGradient></defs></svg>