<svg width="31" height="35" fill="none" xmlns="http://www.w3.org/2000/svg"><path d="M12.435.825a6.104 6.104 0 016.13 0l9.396 5.456A6.104 6.104 0 0131 11.56v10.972a6.104 6.104 0 01-3.039 5.278l-9.396 5.456a6.104 6.104 0 01-6.13 0L3.04 27.81A6.104 6.104 0 010 22.532V11.56a6.104 6.104 0 013.039-5.28L12.435.825z" fill="#7D7D7D"/><path d="M12.435.825a6.104 6.104 0 016.13 0l9.396 5.456A6.104 6.104 0 0131 11.56v10.972a6.104 6.104 0 01-3.039 5.278l-9.396 5.456a6.104 6.104 0 01-6.13 0L3.04 27.81A6.104 6.104 0 010 22.532V11.56a6.104 6.104 0 013.039-5.28L12.435.825z" fill="url(#paint0_linear_2077_717)"/><path d="M29 11.56a4.104 4.104 0 00-2.043-3.55l-9.396-5.456a4.104 4.104 0 00-4.121 0L4.043 8.011A4.104 4.104 0 002 11.559v10.973c0 1.462.778 2.814 2.043 3.549l9.396 5.456c1.274.74 2.848.74 4.122 0l9.396-5.456A4.104 4.104 0 0029 22.532V11.559zm2 10.972l-.014.405a6.104 6.104 0 01-3.025 4.873l-9.396 5.456-.36.194a6.104 6.104 0 01-5.41 0l-.36-.194L3.04 27.81a6.104 6.104 0 01-3.025-4.873L0 22.532V11.56a6.104 6.104 0 012.694-5.063l.345-.216L12.435.825a6.104 6.104 0 016.13 0l9.396 5.456A6.104 6.104 0 0131 11.56v10.972z" fill="url(#paint1_linear_2077_717)"/><defs><linearGradient id="paint0_linear_2077_717" x1="0" y1="-.954" x2="39.151" y2="19.253" gradientUnits="userSpaceOnUse"><stop stop-color="#DDA516"/><stop offset="1" stop-color="#DDC916"/></linearGradient><linearGradient id="paint1_linear_2077_717" x1="0" y1="-.954" x2="39.151" y2="19.253" gradientUnits="userSpaceOnUse"><stop stop-color="#EDB219"/><stop offset="1" stop-color="#EED91C"/></linearGradient></defs></svg>