<svg width="34" height="35" fill="none" xmlns="http://www.w3.org/2000/svg"><path d="M28 32v2H6v-2h22zm4-4V6a4 4 0 00-4-4H6a4 4 0 00-4 4v22a4 4 0 004 4v2l-.309-.008A6 6 0 010 28V6a6 6 0 016-6h22a6 6 0 016 6v22a6 6 0 01-6 6v-2a4 4 0 004-4z" fill="#000"/><path d="M28 32v2H6v-2h22zm4-4V6a4 4 0 00-4-4H6a4 4 0 00-4 4v22a4 4 0 004 4v2l-.309-.008A6 6 0 010 28V6a6 6 0 016-6h22a6 6 0 016 6v22a6 6 0 01-6 6v-2a4 4 0 004-4z" fill="url(#paint0_linear_132_6954)"/><path d="M14.968 20.896l-.64-5.184.16-.16c4.096-.128 5.888-1.408 5.888-3.552v-.064c0-1.792-1.344-3.04-3.648-3.04-2.048 0-3.68.896-5.216 2.528l-2.4-2.56C11 6.72 13.368 5.312 16.824 5.312c4.48 0 7.52 2.496 7.52 6.496v.064c0 4.064-2.912 5.888-6.464 6.464l-.32 2.56h-2.592zM14.04 28v-4.416h4.288V28H14.04z" fill="#fff"/><path d="M14.968 20.896l-.64-5.184.16-.16c4.096-.128 5.888-1.408 5.888-3.552v-.064c0-1.792-1.344-3.04-3.648-3.04-2.048 0-3.68.896-5.216 2.528l-2.4-2.56C11 6.72 13.368 5.312 16.824 5.312c4.48 0 7.52 2.496 7.52 6.496v.064c0 4.064-2.912 5.888-6.464 6.464l-.32 2.56h-2.592zM14.04 28v-4.416h4.288V28H14.04z" fill="url(#paint1_linear_132_6954)"/><defs><linearGradient id="paint0_linear_132_6954" x1="18.31" y1="33.75" x2="16.973" y2=".053" gradientUnits="userSpaceOnUse"><stop stop-color="#DDA516"/><stop offset="1" stop-color="#DDC916"/></linearGradient><linearGradient id="paint1_linear_132_6954" x1="17.694" y1="31.772" x2="15.6" y2="1.143" gradientUnits="userSpaceOnUse"><stop stop-color="#DDA516"/><stop offset="1" stop-color="#DDC916"/></linearGradient></defs></svg>