<svg width="176" height="15" fill="none" xmlns="http://www.w3.org/2000/svg"><g filter="url(#filter0_d_2060_622)"><path d="M13 7A6 6 0 111 7a6 6 0 0112 0z" fill="#161624"/><path d="M13 7A6 6 0 101 7a6 6 0 0012 0zm1 0A7 7 0 110 7a7 7 0 0114 0z" fill="#1E1E31"/><path d="M11 7a4 4 0 11-8 0 4 4 0 018 0z" fill="url(#paint0_linear_2060_622)"/><path d="M163 7a6 6 0 1012 0 6 6 0 00-12 0z" fill="#161624"/><path d="M163 7a6 6 0 1112 0 6 6 0 01-12 0zm-1 0a7 7 0 1014 0 7 7 0 00-14 0z" fill="#1E1E31"/><path d="M165 7a4 4 0 108 0 4 4 0 00-8 0z" fill="url(#paint1_linear_2060_622)"/><path d="M37 4.5A1.5 1.5 0 0138.5 3h17a1.5 1.5 0 010 3h-17A1.5 1.5 0 0137 4.5zm0 5A1.5 1.5 0 0138.5 8h17a1.5 1.5 0 010 3h-17A1.5 1.5 0 0137 9.5zm24-5A1.5 1.5 0 0162.5 3h17a1.5 1.5 0 010 3h-17A1.5 1.5 0 0161 4.5zm0 5A1.5 1.5 0 0162.5 8h17a1.5 1.5 0 010 3h-17A1.5 1.5 0 0161 9.5zm78-5a1.5 1.5 0 00-1.5-1.5h-17a1.5 1.5 0 000 3h17a1.5 1.5 0 001.5-1.5zm0 5a1.5 1.5 0 00-1.5-1.5h-17a1.5 1.5 0 000 3h17a1.5 1.5 0 001.5-1.5zm-24-5a1.5 1.5 0 00-1.5-1.5h-17a1.5 1.5 0 000 3h17a1.5 1.5 0 001.5-1.5zm0 5a1.5 1.5 0 00-1.5-1.5h-17a1.5 1.5 0 000 3h17a1.5 1.5 0 001.5-1.5z" fill="#131322"/></g><defs><linearGradient id="paint0_linear_2060_622" x1="88" y1="0" x2="88" y2="14" gradientUnits="userSpaceOnUse"><stop stop-color="#373754"/><stop offset=".603" stop-color="#27273A"/></linearGradient><linearGradient id="paint1_linear_2060_622" x1="88" y1="0" x2="88" y2="14" gradientUnits="userSpaceOnUse"><stop stop-color="#373754"/><stop offset=".603" stop-color="#27273A"/></linearGradient><filter id="filter0_d_2060_622" x="0" y="0" width="176" height="14.5" filterUnits="userSpaceOnUse" color-interpolation-filters="sRGB"><feFlood flood-opacity="0" result="BackgroundImageFix"/><feColorMatrix in="SourceAlpha" values="0 0 0 0 0 0 0 0 0 0 0 0 0 0 0 0 0 0 127 0" result="hardAlpha"/><feOffset dy=".5"/><feComposite in2="hardAlpha" operator="out"/><feColorMatrix values="0 0 0 0 0.13 0 0 0 0 0.13 0 0 0 0 0.216667 0 0 0 1 0"/><feBlend in2="BackgroundImageFix" result="effect1_dropShadow_2060_622"/><feBlend in="SourceGraphic" in2="effect1_dropShadow_2060_622" result="shape"/></filter></defs></svg>