<svg width="176" height="14" fill="none" xmlns="http://www.w3.org/2000/svg"><path d="M13 7A6 6 0 111 7a6 6 0 0112 0z" fill="#03070C"/><path d="M13 7A6 6 0 101 7a6 6 0 0012 0zm1 0A7 7 0 110 7a7 7 0 0114 0z" fill="#42546B"/><g filter="url(#filter0_ii_2411_2765)"><path d="M11 7a4 4 0 11-8 0 4 4 0 018 0z" fill="url(#paint0_linear_2411_2765)"/></g><path d="M163 7a6 6 0 1012 0 6 6 0 00-12 0z" fill="#03070C"/><path d="M163 7a6 6 0 1112 0 6 6 0 01-12 0zm-1 0a7 7 0 1014 0 7 7 0 00-14 0z" fill="#42546B"/><g filter="url(#filter1_ii_2411_2765)"><path d="M165 7a4 4 0 108 0 4 4 0 00-8 0z" fill="url(#paint1_linear_2411_2765)"/></g><g filter="url(#filter2_d_2411_2765)" fill="#03070C"><path d="M37 4.5A1.5 1.5 0 0138.5 3h17a1.5 1.5 0 010 3h-17A1.5 1.5 0 0137 4.5zm0 5A1.5 1.5 0 0138.5 8h17a1.5 1.5 0 010 3h-17A1.5 1.5 0 0137 9.5zm24-5A1.5 1.5 0 0162.5 3h17a1.5 1.5 0 010 3h-17A1.5 1.5 0 0161 4.5zm0 5A1.5 1.5 0 0162.5 8h17a1.5 1.5 0 010 3h-17A1.5 1.5 0 0161 9.5z"/></g><g filter="url(#filter3_d_2411_2765)" fill="#03070C"><path d="M139 4.5a1.5 1.5 0 00-1.5-1.5h-17a1.5 1.5 0 000 3h17a1.5 1.5 0 001.5-1.5zm0 5a1.5 1.5 0 00-1.5-1.5h-17a1.5 1.5 0 000 3h17a1.5 1.5 0 001.5-1.5zm-24-5a1.5 1.5 0 00-1.5-1.5h-17a1.5 1.5 0 000 3h17a1.5 1.5 0 001.5-1.5zm0 5a1.5 1.5 0 00-1.5-1.5h-17a1.5 1.5 0 000 3h17a1.5 1.5 0 001.5-1.5z"/></g><defs><filter id="filter0_ii_2411_2765" x="3" y="2" width="8" height="9" filterUnits="userSpaceOnUse" color-interpolation-filters="sRGB"><feFlood flood-opacity="0" result="BackgroundImageFix"/><feBlend in="SourceGraphic" in2="BackgroundImageFix" result="shape"/><feColorMatrix in="SourceAlpha" values="0 0 0 0 0 0 0 0 0 0 0 0 0 0 0 0 0 0 127 0" result="hardAlpha"/><feOffset dy="-1"/><feGaussianBlur stdDeviation="1"/><feComposite in2="hardAlpha" operator="arithmetic" k2="-1" k3="1"/><feColorMatrix values="0 0 0 0 0.223611 0 0 0 0 0.223611 0 0 0 0 0.333333 0 0 0 1 0"/><feBlend in2="shape" result="effect1_innerShadow_2411_2765"/><feColorMatrix in="SourceAlpha" values="0 0 0 0 0 0 0 0 0 0 0 0 0 0 0 0 0 0 127 0" result="hardAlpha"/><feOffset dy="-1"/><feComposite in2="hardAlpha" operator="arithmetic" k2="-1" k3="1"/><feColorMatrix values="0 0 0 0 0.216389 0 0 0 0 0.216389 0 0 0 0 0.316667 0 0 0 1 0"/><feBlend in2="effect1_innerShadow_2411_2765" result="effect2_innerShadow_2411_2765"/></filter><filter id="filter1_ii_2411_2765" x="165" y="2" width="8" height="9" filterUnits="userSpaceOnUse" color-interpolation-filters="sRGB"><feFlood flood-opacity="0" result="BackgroundImageFix"/><feBlend in="SourceGraphic" in2="BackgroundImageFix" result="shape"/><feColorMatrix in="SourceAlpha" values="0 0 0 0 0 0 0 0 0 0 0 0 0 0 0 0 0 0 127 0" result="hardAlpha"/><feOffset dy="-1"/><feGaussianBlur stdDeviation="1"/><feComposite in2="hardAlpha" operator="arithmetic" k2="-1" k3="1"/><feColorMatrix values="0 0 0 0 0.223611 0 0 0 0 0.223611 0 0 0 0 0.333333 0 0 0 1 0"/><feBlend in2="shape" result="effect1_innerShadow_2411_2765"/><feColorMatrix in="SourceAlpha" values="0 0 0 0 0 0 0 0 0 0 0 0 0 0 0 0 0 0 127 0" result="hardAlpha"/><feOffset dy="-1"/><feComposite in2="hardAlpha" operator="arithmetic" k2="-1" k3="1"/><feColorMatrix values="0 0 0 0 0.216389 0 0 0 0 0.216389 0 0 0 0 0.316667 0 0 0 1 0"/><feBlend in2="effect1_innerShadow_2411_2765" result="effect2_innerShadow_2411_2765"/></filter><filter id="filter2_d_2411_2765" x="37" y="3" width="44" height="8.5" filterUnits="userSpaceOnUse" color-interpolation-filters="sRGB"><feFlood flood-opacity="0" result="BackgroundImageFix"/><feColorMatrix in="SourceAlpha" values="0 0 0 0 0 0 0 0 0 0 0 0 0 0 0 0 0 0 127 0" result="hardAlpha"/><feOffset dy=".5"/><feComposite in2="hardAlpha" operator="out"/><feColorMatrix values="0 0 0 0 0.13 0 0 0 0 0.13 0 0 0 0 0.216667 0 0 0 1 0"/><feBlend in2="BackgroundImageFix" result="effect1_dropShadow_2411_2765"/><feBlend in="SourceGraphic" in2="effect1_dropShadow_2411_2765" result="shape"/></filter><filter id="filter3_d_2411_2765" x="95" y="3" width="44" height="8.5" filterUnits="userSpaceOnUse" color-interpolation-filters="sRGB"><feFlood flood-opacity="0" result="BackgroundImageFix"/><feColorMatrix in="SourceAlpha" values="0 0 0 0 0 0 0 0 0 0 0 0 0 0 0 0 0 0 127 0" result="hardAlpha"/><feOffset dy=".5"/><feComposite in2="hardAlpha" operator="out"/><feColorMatrix values="0 0 0 0 0.13 0 0 0 0 0.13 0 0 0 0 0.216667 0 0 0 1 0"/><feBlend in2="BackgroundImageFix" result="effect1_dropShadow_2411_2765"/><feBlend in="SourceGraphic" in2="effect1_dropShadow_2411_2765" result="shape"/></filter><linearGradient id="paint0_linear_2411_2765" x1="7" y1="3" x2="7" y2="11" gradientUnits="userSpaceOnUse"><stop stop-color="#151920"/><stop offset=".603" stop-color="#151920"/></linearGradient><linearGradient id="paint1_linear_2411_2765" x1="169" y1="3" x2="169" y2="11" gradientUnits="userSpaceOnUse"><stop stop-color="#151920"/><stop offset=".603" stop-color="#151920"/></linearGradient></defs></svg>