<svg width="320" height="103" fill="none" xmlns="http://www.w3.org/2000/svg"><g opacity=".6" clip-path="url(#clip0_2119_1155)"><g filter="url(#filter0_f_2119_1155)"><path d="M160 134.3c59.094 0 107-10.074 107-22.5 0-12.427-47.906-22.5-107-22.5S53 99.373 53 111.8c0 12.426 47.906 22.5 107 22.5z" fill="#FFC400"/></g><g filter="url(#filter1_f_2119_1155)"><path d="M160 131.3c35.346 0 64-9.402 64-21s-28.654-21-64-21c-35.346 0-64 9.402-64 21s28.654 21 64 21z" fill="#FFD13B"/></g></g><defs><filter id="filter0_f_2119_1155" x="-36.3" y="0" width="392.6" height="223.6" filterUnits="userSpaceOnUse" color-interpolation-filters="sRGB"><feFlood flood-opacity="0" result="BackgroundImageFix"/><feBlend in="SourceGraphic" in2="BackgroundImageFix" result="shape"/><feGaussianBlur stdDeviation="44.65" result="effect1_foregroundBlur_2119_1155"/></filter><filter id="filter1_f_2119_1155" x="50.5" y="43.8" width="219" height="133" filterUnits="userSpaceOnUse" color-interpolation-filters="sRGB"><feFlood flood-opacity="0" result="BackgroundImageFix"/><feBlend in="SourceGraphic" in2="BackgroundImageFix" result="shape"/><feGaussianBlur stdDeviation="22.75" result="effect1_foregroundBlur_2119_1155"/></filter><clipPath id="clip0_2119_1155"><path fill="#fff" d="M0 0h320v103H0z"/></clipPath></defs></svg>