<svg width="68" height="30" fill="none" xmlns="http://www.w3.org/2000/svg"><path d="M34.849 11.076c-.042 3.03 2.705 4.722 4.761 5.723 2.124 1.028 2.827 1.69 2.827 2.61-.013 1.408-1.69 2.03-3.26 2.057-2.733.04-4.328-.744-5.587-1.326l-.988 4.613c1.272.582 3.613 1.096 6.048 1.123 5.722 0 9.456-2.827 9.483-7.197.027-5.546-7.684-5.857-7.63-8.347.013-.757.73-1.555 2.314-1.758.784-.108 2.935-.176 5.37.947l.96-4.465c-1.325-.473-3.016-.933-5.113-.933-5.371 0-9.158 2.854-9.185 6.953zm23.484-6.574a2.48 2.48 0 00-2.313 1.542l-8.17 19.494h5.707l1.137-3.139h6.98l.663 3.139h5.032L62.973 4.502h-4.64zm.798 5.695l1.65 7.9h-4.518l2.868-7.9zm-31.21-5.695l-4.504 21.05h5.438l4.506-21.05h-5.44zm-8.062 0l-5.668 14.326-2.286-12.175c-.27-1.353-1.326-2.151-2.517-2.151H.135L0 5.124c1.907.42 4.058 1.082 5.37 1.786.799.433 1.029.812 1.3 1.853l4.342 16.789h5.75l8.82-21.05h-5.723z" fill="#38384E"/></svg>