<svg width="193" height="58" fill="none" xmlns="http://www.w3.org/2000/svg"><path fill-rule="evenodd" clip-rule="evenodd" d="M22.132 50.75L0 29 29.509 0l14.754 14.5L59.018 0l29.508 29-22.131 21.75-7.377-7.25L44.262 58 29.51 43.5l-7.377 7.25zm0-14.5L14.754 29 29.51 14.5l14.754 13.896L59.018 14.5 73.772 29l-7.377 7.25L59.018 29 44.262 43.5 29.51 29l-7.377 7.25z" fill="#8484A7"/><path d="M95.215 25.654V9.598l-.583-2.935.612-1.761h5.569l5.716 11.154h.583l4.724-11.154h5.802l.292 1.761-.292 2.818v16.173h-5.277l.087-2.495v-8.19h-.321l-1.166 2.819-2.624 4.93h-3.5l-4.024-7.748h-.291v2.377l.291 8.307h-5.598zm24.755 0l1.399-4.96v-3.728l2.158-.881 3.791-11.183h7.552l4.695 13.15 2.245 4.168v3.434h-5.161l-1.458-4.697h-8.486l-1.253 4.697h-5.482zm8.66-9.217h4.957l-2.216-6.721h-.612l-2.129 6.721zm25.107 9.51a19.84 19.84 0 01-4.257-.44 9.31 9.31 0 01-3.529-1.644c-1.011-.782-1.808-1.868-2.391-3.258s-.875-3.17-.875-5.342c0-2.094.311-3.825.934-5.195.622-1.39 1.448-2.485 2.478-3.288a9.75 9.75 0 013.47-1.702 15.394 15.394 0 013.878-.5c.953 0 1.779.05 2.479.148.7.098 1.37.225 2.012.381l3.966 2.32-2.042 4.549-6.444-2.29c-.933 0-1.798.186-2.595.558-.778.372-1.409.969-1.895 1.79-.467.803-.7 1.889-.7 3.258 0 2.212.486 3.767 1.458 4.667.991.881 2.342 1.321 4.053 1.321.875 0 1.555-.039 2.041-.117.505-.098.894-.176 1.166-.235v-2.23h-3.703v-4.345h9.273l.321 1.761-.642 2.437v6.164c-.214.078-.7.215-1.458.41-.739.196-1.711.382-2.916.558-1.186.176-2.546.264-4.082.264zm12.319-.293V9.569l-.291-2.935.291-1.762h5.278v20.782h-5.278zm18.649.293c-1.322 0-2.605-.146-3.849-.44a9.082 9.082 0 01-3.382-1.644c-.992-.782-1.779-1.868-2.362-3.258-.584-1.39-.875-3.17-.875-5.342 0-2.015.291-3.708.875-5.078.583-1.37 1.36-2.465 2.332-3.287a8.974 8.974 0 013.179-1.761 11.464 11.464 0 013.499-.558c.991 0 1.954.078 2.887.235.952.156 1.642.332 2.07.528l3.237 2.671-2.625 4.256-4.986-2.583c-1.38 0-2.546.46-3.499 1.38-.953.9-1.429 2.3-1.429 4.197 0 1.35.233 2.446.7 3.288.486.841 1.147 1.457 1.983 1.849.836.391 1.788.587 2.857.587 1.128 0 2.09-.088 2.887-.264a14.13 14.13 0 002.1-.675c.602-.274 1.176-.538 1.72-.793v4.931c-.68.43-1.584.832-2.712 1.204-1.127.372-2.663.557-4.607.557zM95.316 54.59V35.096l-.684-3.564.684-2.175h10.2c1.643 0 3.218.167 4.724.5 1.529.308 2.886.902 4.073 1.781 1.209.88 2.156 2.139 2.841 3.779.707 1.64 1.061 3.766 1.061 6.38 0 2.613-.354 4.764-1.061 6.45-.707 1.664-1.666 2.959-2.875 3.886a10.647 10.647 0 01-4.108 1.924 20.14 20.14 0 01-4.655.535h-10.2zm6.23-5.702h3.97c2.008 0 3.549-.546 4.621-1.64 1.073-1.116 1.609-2.934 1.609-5.453 0-2.518-.548-4.265-1.643-5.239-1.073-.998-2.602-1.497-4.587-1.497h-3.97v13.83zm20.779 5.702V35.096l-.685-3.6.685-2.139h10.953c1.665 0 3.16.274 4.484.82 1.346.523 2.407 1.426 3.183 2.709.799 1.26 1.198 3.006 1.198 5.24 0 2.02-.354 3.659-1.061 4.918a6.781 6.781 0 01-2.944 2.78l.342.392 3.389 4.42 1.951 1.817v2.139h-7.701L131.327 47h-2.841v1.854l.342 3.564-.342 2.174h-6.161zm6.161-13.187h3.354c1.187 0 2.134-.225 2.841-.677.707-.475 1.061-1.342 1.061-2.602 0-.879-.171-1.532-.513-1.96-.343-.451-.822-.748-1.438-.891-.593-.143-1.289-.214-2.088-.214h-3.56l.343 6.344zm28.307 13.544c-1.46 0-2.887-.178-4.279-.534a9.73 9.73 0 01-3.731-1.996c-1.095-.95-1.973-2.27-2.635-3.956-.639-1.688-.959-3.85-.959-6.487 0-2.638.32-4.8.959-6.487.662-1.687 1.54-3.006 2.635-3.956a9.34 9.34 0 013.731-1.96 16.17 16.17 0 014.279-.571c1.46 0 2.875.19 4.244.57a9.404 9.404 0 013.731 1.996c1.118.95 1.997 2.27 2.636 3.957.662 1.686.992 3.837.992 6.45 0 2.614-.33 4.765-.992 6.452-.639 1.687-1.518 3.006-2.636 3.956a9.403 9.403 0 01-3.731 1.996c-1.369.38-2.784.57-4.244.57zm0-6.059c1.689 0 2.966-.523 3.834-1.568.867-1.045 1.3-2.828 1.3-5.346 0-2.519-.433-4.301-1.3-5.347-.868-1.045-2.145-1.568-3.834-1.568-1.666 0-2.932.535-3.799 1.604-.868 1.07-1.301 2.84-1.301 5.31 0 2.472.433 4.242 1.301 5.311.867 1.07 2.133 1.604 3.799 1.604zm15.704 5.702V35.096l-.684-3.6.684-2.139h10.954c1.665 0 3.16.274 4.484.82 1.346.523 2.407 1.426 3.183 2.709.798 1.26 1.198 3.006 1.198 5.24 0 2.233-.422 4.003-1.267 5.31-.844 1.283-2.019 2.198-3.525 2.744-1.483.547-3.184.82-5.1.82h-3.765v1.854l.342 3.564-.342 2.174h-6.162zm6.162-13.187h3.354c1.187 0 2.134-.225 2.841-.677.707-.475 1.061-1.342 1.061-2.602 0-.879-.171-1.532-.513-1.96-.343-.451-.822-.748-1.438-.891-.593-.143-1.289-.214-2.088-.214h-3.56l.343 6.344zM187.737 58l-4.579-4.579 4.579-4.579 4.579 4.58L187.737 58z" fill="#8484A7"/></svg>