<svg width="142" height="30" fill="none" xmlns="http://www.w3.org/2000/svg"><path fill-rule="evenodd" clip-rule="evenodd" d="M20.033 5.27A12.35 12.35 0 0015.304 15a12.35 12.35 0 004.729 9.73A12.35 12.35 0 0024.762 15a12.35 12.35 0 00-4.73-9.73zm7.651-2.65c-2.535 0-4.891.761-6.853 2.068.1.082.201.163.299.248A13.337 13.337 0 0125.72 15c0 3.858-1.673 7.526-4.59 10.064-.097.084-.199.165-.3.248a12.323 12.323 0 006.855 2.069c6.837 0 12.38-5.544 12.38-12.38 0-6.839-5.543-12.382-12.38-12.382zm-8.748 22.444c.096.084.198.165.299.248a12.32 12.32 0 01-6.854 2.069C5.543 27.381 0 21.837 0 15.001 0 8.161 5.543 2.618 12.381 2.618c2.535 0 4.891.762 6.854 2.07-.1.081-.202.162-.3.247A13.339 13.339 0 0014.347 15c0 3.858 1.673 7.526 4.59 10.064zm45.857-10.01c0-1.447.947-2.636 2.497-2.636 1.482 0 2.48 1.137 2.48 2.635 0 1.499-.998 2.636-2.48 2.636-1.55 0-2.497-1.188-2.497-2.636zm6.666-4.117h-1.792v.998c-.568-.74-1.43-1.205-2.6-1.205-2.31 0-4.117 1.809-4.117 4.323 0 2.515 1.808 4.324 4.116 4.324 1.172 0 2.033-.465 2.601-1.206v1h1.792v-8.234zm60.496 4.116c0-1.447.948-2.635 2.498-2.635 1.481 0 2.48 1.137 2.48 2.635 0 1.499-.999 2.636-2.48 2.636-1.55 0-2.498-1.188-2.498-2.636zm8.671 3.727v.129h.119a.117.117 0 00.065-.016c.016-.01.024-.027.024-.05a.054.054 0 00-.024-.047.114.114 0 00-.065-.016h-.119zm.12-.091c.062 0 .11.013.144.041a.138.138 0 01.051.113c0 .04-.014.074-.041.1a.19.19 0 01-.114.048l.159.183h-.125l-.147-.182h-.047v.182h-.104v-.485h.224zm-.031.652a.396.396 0 00.372-.249.403.403 0 000-.318.406.406 0 00-.214-.215.413.413 0 00-.449.086.424.424 0 00-.118.288.403.403 0 00.248.376c.05.02.104.032.161.032zm0-.93a.525.525 0 01.376.153.535.535 0 01.156.37.529.529 0 01-.325.481.527.527 0 01-.587-.113.51.51 0 01-.155-.369.516.516 0 01.325-.482.54.54 0 01.21-.04zm-2.093-10.782h-1.792v4.306c-.568-.74-1.43-1.205-2.601-1.205-2.309 0-4.117 1.809-4.117 4.323 0 2.515 1.808 4.324 4.117 4.324 1.171 0 2.033-.465 2.601-1.206v1h1.792V7.629zM93.68 12.332c1.154 0 1.895.723 2.084 1.998h-4.272c.19-1.188.913-1.998 2.188-1.998zm.034-1.602c-2.411 0-4.1 1.757-4.1 4.323 0 2.619 1.757 4.324 4.22 4.324 1.241 0 2.378-.31 3.377-1.154l-.878-1.327c-.69.552-1.568.862-2.395.862-1.154 0-2.205-.534-2.463-2.015h6.115c.017-.225.034-.448.034-.69-.017-2.566-1.601-4.323-3.91-4.323zm21.618 4.323c0-1.447.948-2.635 2.498-2.635 1.481 0 2.481 1.137 2.481 2.635 0 1.499-1 2.636-2.481 2.636-1.55 0-2.498-1.188-2.498-2.636zm6.667-4.116h-1.792v.998c-.568-.74-1.429-1.205-2.601-1.205-2.308 0-4.117 1.809-4.117 4.323 0 2.515 1.809 4.324 4.117 4.324 1.172 0 2.033-.465 2.601-1.206v1h1.792v-8.234zm-16.778 4.116c0 2.498 1.74 4.324 4.393 4.324 1.24 0 2.067-.276 2.962-.982l-.861-1.447c-.672.483-1.378.74-2.153.74-1.43-.016-2.481-1.05-2.481-2.635 0-1.584 1.051-2.618 2.481-2.635.775 0 1.481.258 2.153.74l.861-1.446c-.895-.707-1.722-.982-2.962-.982-2.653 0-4.393 1.826-4.393 4.323zm23.082-4.323c-1.033 0-1.705.482-2.17 1.205v-.998h-1.774v8.234h1.791v-4.617c0-1.36.586-2.119 1.757-2.119.362 0 .741.052 1.12.207l.551-1.688c-.396-.155-.913-.224-1.275-.224zm-47.99.861c-.862-.568-2.05-.861-3.36-.861-2.084 0-3.427.999-3.427 2.636 0 1.343 1 2.17 2.842 2.428l.844.12c.982.138 1.447.397 1.447.862 0 .637-.655 1-1.878 1-1.24 0-2.136-.397-2.739-.862l-.844 1.395c.983.723 2.223 1.068 3.566 1.068 2.377 0 3.755-1.12 3.755-2.687 0-1.447-1.085-2.205-2.876-2.463l-.844-.121c-.776-.103-1.396-.258-1.396-.81 0-.602.586-.964 1.568-.964 1.05 0 2.067.396 2.567.706l.775-1.447zm23.099-.861c-1.033 0-1.705.482-2.17 1.205v-.998h-1.775v8.234h1.792v-4.617c0-1.36.586-2.119 1.757-2.119.362 0 .741.052 1.12.207l.551-1.688c-.396-.155-.913-.224-1.275-.224zm-15.279.207h-2.928V8.439h-1.809v2.498h-1.67v1.636h1.67v3.755c0 1.912.74 3.05 2.86 3.05.775 0 1.67-.242 2.239-.638l-.517-1.533c-.534.31-1.12.465-1.584.465-.896 0-1.19-.551-1.19-1.378v-3.72h2.93v-1.637zM61.365 19.17v-5.168c0-1.947-1.24-3.256-3.239-3.273-1.05-.017-2.136.31-2.893 1.464-.569-.913-1.465-1.464-2.722-1.464-.879 0-1.74.258-2.412 1.223v-1.016h-1.792v8.234h1.81v-4.565c0-1.43.792-2.188 2.015-2.188 1.188 0 1.791.775 1.791 2.17v4.583h1.809v-4.565c0-1.43.827-2.188 2.015-2.188 1.223 0 1.809.775 1.809 2.17v4.583h1.809zm-21.686 3.5v-.48h-.126l-.144.33-.145-.33h-.125v.48h.089v-.362l.135.313h.092l.135-.313v.363h.089zm-.795 0v-.398h.16v-.08h-.408v.08h.16v.399h.088z" fill="#38384E"/></svg>