<svg width="360" height="272" fill="none" xmlns="http://www.w3.org/2000/svg"><g filter="url(#filter0_d_4039_2372)" fill-rule="evenodd" clip-rule="evenodd"><path d="M116.5 198.25L53 136l84.667-83L180 94.5 222.333 53 307 136l-63.5 62.25-21.167-20.75L180 219l-42.333-41.5-21.167 20.75zm0-41.5L95.333 136l42.334-41.5L180 134.271 222.333 94.5l42.334 41.5-21.167 20.75L222.333 136 180 177.5 137.667 136 116.5 156.75z" fill="#DDC916"/><path d="M180 94.5L137.667 53 53 136l63.5 62.25 21.167-20.75L180 219l42.333-41.5 21.167 20.75L307 136l-84.667-83L180 94.5zm42.333-34.498L180 101.502l-42.333-41.5L60.142 136l56.358 55.248 21.167-20.75 42.333 41.5 42.333-41.5 21.167 20.75L299.858 136l-77.525-75.998zM88.191 136l49.402-48.43L180 127.41l42.407-39.84L271.809 136 243.5 163.752l-21.167-20.75-42.333 41.5-42.333-41.5-21.167 20.75L88.19 136zm49.476 0L180 177.5l42.333-41.5 21.167 20.75L264.667 136l-42.334-41.5L180 134.271 137.667 94.5 95.333 136l21.167 20.75L137.667 136z" fill="#FFE500"/></g><defs><filter id="filter0_d_4039_2372" x=".579" y=".579" width="358.842" height="270.842" filterUnits="userSpaceOnUse" color-interpolation-filters="sRGB"><feFlood flood-opacity="0" result="BackgroundImageFix"/><feColorMatrix in="SourceAlpha" values="0 0 0 0 0 0 0 0 0 0 0 0 0 0 0 0 0 0 127 0" result="hardAlpha"/><feOffset/><feGaussianBlur stdDeviation="26.21"/><feComposite in2="hardAlpha" operator="out"/><feColorMatrix values="0 0 0 0 1 0 0 0 0 0.6 0 0 0 0 0 0 0 0 0.25 0"/><feBlend in2="BackgroundImageFix" result="effect1_dropShadow_4039_2372"/><feBlend in="SourceGraphic" in2="effect1_dropShadow_4039_2372" result="shape"/></filter></defs></svg>