<svg width="136" height="30" fill="none" xmlns="http://www.w3.org/2000/svg"><path d="M38.972 13.708a.82.82 0 01-.812-.813v-1.181a.82.82 0 01.812-.812h7.883V8.539h-8.677c-1.57 0-2.825 1.329-2.825 2.806v1.92c0 1.55 1.33 2.806 2.825 2.806h5.612c.444 0 .794.37.794.812v1.403c0 .443-.35.813-.794.813h-8.252v2.363h9.046c1.551 0 2.806-1.33 2.806-2.806v-2.142c0-1.55-1.329-2.806-2.806-2.806h-5.612zm21.461-5.169l-6.056 6.147V8.54h-2.824v12.923h2.824v-6.314l5.963 6.314h3.36l-6.184-6.554 6.184-6.37h-3.267zm6.686 0v12.923h2.806V8.539H67.12zm7.056 0v12.923H77v-10.56h5.612c.443 0 .794.369.794.812v9.748h2.806V11.345c0-1.551-1.329-2.806-2.806-2.806h-9.23zm16.288 0v12.923h2.806v-3.859h6.424c1.551 0 2.807-1.329 2.807-2.806v-3.452c0-1.551-1.33-2.806-2.807-2.806h-9.23zm9.23 5.889a.8.8 0 01-.793.794h-5.631v-4.32h5.63c.425 0 .794.369.794.812v2.714zm9.556-5.889c-1.551.055-2.806 1.273-2.806 2.806v10.117h2.806v-3.803h6.406v3.803h2.824V8.539h-9.23zm0 3.175c0-.443.35-.812.794-.812h5.612v4.394h-6.406v-3.582zm12.54-3.175l5.409 8.233v4.69h2.807v-4.69l5.39-8.233h-3.138l-3.656 5.76-3.655-5.76h-3.157z" fill="#38384E"/><path fill-rule="evenodd" clip-rule="evenodd" d="M4.88 11.4c1.313-2.838 4.13-4.8 7.395-4.8 2.625 0 4.961 1.268 6.459 3.24L21.8 8.041C19.68 4.99 16.205 3 12.275 3 7.041 3 2.61 6.531 1.12 11.4h3.76zm.937 8.76c1.497 1.972 3.834 3.24 6.458 3.24 3.265 0 6.083-1.962 7.396-4.8h3.76C21.94 23.468 17.51 27 12.275 27c-3.93 0-7.406-1.99-9.525-5.041l3.067-1.8zm11.447-7.37l-1.402-.051-.164 4.797 1.403.05.036-1.08 6.193.223a.591.591 0 00.604-.579L24 14.231a.594.594 0 00-.564-.62l-6.193-.222.02-.6zm-17.216.583l2.337.084c2.336.083 3.525-.475 3.525-.475l8.763.315-.123 3.597-7.948-.284c-2.53-.091-4.906-1.265-6.554-3.237z" fill="#38384E"/></svg>