<svg width="58" height="38" fill="none" xmlns="http://www.w3.org/2000/svg"><path fill-rule="evenodd" clip-rule="evenodd" d="M14.5 33.25L0 19 19.333 0 29 9.5 38.667 0 58 19 43.5 33.25l-4.833-4.75L29 38l-9.667-9.5-4.833 4.75zm0-9.5L9.667 19l9.666-9.5L29 18.604 38.667 9.5l9.666 9.5-4.833 4.75L38.667 19 29 28.5 19.333 19 14.5 23.75z" fill="#DDC916"/><path d="M58 19L43.5 33.25l-4.833-4.75L29 38l-9.667-9.5-4.833 4.75L0 19 19.333 0 29 9.5 38.667 0 58 19zm-29-8.098l-9.667-9.5L1.426 18.998 14.5 31.848l4.133-4.06.7-.69 9.667 9.5 9.667-9.5 4.832 4.75 13.074-12.849L38.666 1.401 29 10.902zM49.76 19l-6.26 6.152-4.834-4.75-9.666 9.5-9.667-9.5-4.833 4.75L8.24 19 19.318 8.112 29 17.23l9.682-9.118L49.76 19zM29 18.604L19.333 9.5 9.667 19l4.833 4.75L19.333 19 29 28.5l9.667-9.5 4.833 4.75L48.333 19l-9.666-9.5L29 18.604z" fill="#FFE500"/></svg>