<svg width="103" height="30" fill="none" xmlns="http://www.w3.org/2000/svg"><path fill-rule="evenodd" clip-rule="evenodd" d="M102.15 2.707c-.709 0-1.418.01-2.126-.005-.203-.004-.294.059-.375.242-1.319 2.98-2.646 5.957-3.971 8.934-.034.076-.073.15-.123.252l-.122-.261c-1.381-2.99-2.763-5.98-4.14-8.972-.065-.142-.138-.198-.302-.194-.565.012-1.131.004-1.697.004h-.7v13.099h2.619V8.017l.044-.005.053.106c1.101 2.386 2.204 4.771 3.3 7.16.062.133.131.177.273.173.375-.009.75-.014 1.124.002.18.008.258-.056.331-.214 1.1-2.387 2.209-4.77 3.315-7.153.027-.056.062-.109.093-.163a3.2 3.2 0 0 1 .038.011v7.87h2.601V2.707h-.235ZM62.087 15.801h8.76v-2.367h-6.023v-3.06H70V8.002h-5.175V5.065h6.024v-2.34h-8.761V15.8Zm15.59-4.728 1.757-5.197 1.795 5.197h-3.552Zm7.088 1.936c-1.282-3.353-2.565-6.705-3.84-10.06-.072-.19-.159-.251-.363-.247-.749.015-1.499.014-2.248 0-.192-.004-.269.06-.332.231-1.57 4.238-3.145 8.473-4.718 12.709-.02.053-.033.108-.053.177.909 0 1.794-.004 2.68.004.142.001.2-.045.242-.175.242-.735.495-1.465.737-2.2.04-.12.089-.169.224-.168 1.574.005 3.148.005 4.722 0 .126 0 .19.03.233.161.2.606.415 1.207.626 1.808.065.185.083.438.215.533.132.095.379.036.575.036.783.002 1.565.001 2.363.001-.02-.067-.032-.119-.051-.168l-1.012-2.642ZM44.477 8.846c-.86-.383-1.754-.694-2.635-1.029-.534-.202-1.087-.363-1.542-.726a1.177 1.177 0 0 1 .007-1.841c.398-.316.87-.41 1.36-.418 1.139-.018 2.184.306 3.144.913.044.028.092.05.148.08l1.163-2.06c-.183-.117-.343-.234-.515-.327-1.755-.949-3.621-1.193-5.552-.754-1.727.393-2.886 1.532-3.03 3.29-.076.924.098 1.787.712 2.52.503.601 1.16.989 1.874 1.27.795.313 1.616.563 2.414.87.383.148.77.323 1.103.559.56.398.59 1.187.115 1.683-.26.27-.588.412-.944.493-.98.222-1.952.12-2.902-.152-.59-.168-1.16-.407-1.759-.62l-.828 2.234c.047.031.063.044.08.053 1.924 1.06 3.969 1.411 6.127.996 1.003-.193 1.914-.617 2.568-1.433.954-1.188 1.154-2.529.62-3.948-.303-.808-.969-1.315-1.728-1.653Zm3.98-3.767h3.944v10.727h2.748V5.062h3.91v-2.34H48.456V5.08ZM37.009 26.4l.731-.867c.344.299.689.522 1.035.672a2.86 2.86 0 0 0 1.141.224c.375 0 .673-.08.893-.239a.757.757 0 0 0 .33-.647.73.73 0 0 0-.12-.431c-.081-.114-.234-.223-.46-.327-.227-.104-.552-.206-.975-.306a7.462 7.462 0 0 1-.987-.291 2.959 2.959 0 0 1-.705-.387 1.412 1.412 0 0 1-.462-.576 2.047 2.047 0 0 1-.147-.815c0-.591.22-1.072.662-1.445.441-.372 1.007-.558 1.697-.558.953 0 1.787.289 2.503.866l-.65.92c-.639-.475-1.263-.712-1.873-.712-.346 0-.62.078-.823.235a.73.73 0 0 0-.303.602.72.72 0 0 0 .137.452c.092.12.253.228.484.328.231.1.57.202 1.016.308.766.186 1.328.432 1.684.739.356.306.535.739.535 1.297 0 .635-.227 1.137-.681 1.506-.455.37-1.049.554-1.784.554A4.18 4.18 0 0 1 37.01 26.4Zm15.631 1.007v-6.903h1.213v3.47l3.282-3.47h1.488l-2.87 2.97 3 3.933h-1.469l-2.358-3.105-1.073 1.102v2.003H52.64Zm16.086 0h1.213v-6.903h-1.213v6.903Zm11.926 0v-6.903h1.126l3.697 4.775v-4.775h1.194v6.903h-1.016l-3.807-4.91v4.91h-1.194Zm16.19-1.007.731-.867c.344.299.689.522 1.035.672a2.86 2.86 0 0 0 1.141.224c.375 0 .673-.08.893-.239a.757.757 0 0 0 .33-.647.726.726 0 0 0-.121-.431c-.08-.114-.233-.223-.459-.327-.227-.104-.552-.206-.975-.306a7.462 7.462 0 0 1-.987-.291 2.959 2.959 0 0 1-.705-.387 1.412 1.412 0 0 1-.462-.576 2.047 2.047 0 0 1-.147-.815c0-.591.22-1.072.662-1.445.441-.372 1.007-.558 1.697-.558.953 0 1.787.289 2.503.866l-.65.92c-.639-.475-1.263-.712-1.873-.712-.346 0-.62.078-.823.235a.73.73 0 0 0-.303.602.72.72 0 0 0 .137.452c.092.12.253.228.484.328.231.1.57.202 1.016.308.766.186 1.328.432 1.684.739.356.306.534.739.534 1.297 0 .635-.227 1.137-.681 1.506-.454.37-1.048.554-1.783.554a4.181 4.181 0 0 1-2.878-1.102Z" fill="#38384E"/><path d="M13.97 1c7.732 0 14 6.268 14 14s-6.268 14-14 14C7.638 29 2.287 24.796.558 19.027l.017.056 5.3 2.188a3.879 3.879 0 0 0 7.37.65 3.9 3.9 0 0 0 .3-1.599l4.901-3.503.12.003c2.934 0 5.318-2.392 5.318-5.328 0-2.937-2.384-5.327-5.318-5.327-2.932 0-5.317 2.39-5.317 5.327l.001.069-3.426 4.976a3.839 3.839 0 0 0-1.64.29c-.232.095-.45.212-.655.346L.006 14.078 0 14.07C.473 6.877 6.376 1.168 13.648 1.004L13.97 1Zm-3.155 16.656a2.973 2.973 0 0 1 1.617 1.627 2.998 2.998 0 0 1-3.922 3.912 2.978 2.978 0 0 1-1.542-1.471l1.731.717a2.208 2.208 0 0 0 1.696-4.077l-1.79-.742a2.978 2.978 0 0 1 2.21.034Zm7.751-9.71a3.55 3.55 0 0 1 3.544 3.548 3.55 3.55 0 0 1-3.544 3.55 3.55 3.55 0 0 1-3.542-3.55 3.55 3.55 0 0 1 3.542-3.549Zm.006.875a2.664 2.664 0 0 0-2.66 2.667 2.664 2.664 0 0 0 2.66 2.666 2.664 2.664 0 0 0 2.662-2.666 2.665 2.665 0 0 0-2.662-2.667Z" fill="#38384E"/></svg>