<svg width="194" height="58" fill="none" xmlns="http://www.w3.org/2000/svg"><path fill-rule="evenodd" clip-rule="evenodd" d="M23.058 50.75.927 29 30.435 0 45.19 14.5 59.944 0l29.509 29L67.32 50.75l-7.377-7.25L45.19 58 30.435 43.5l-7.377 7.25Zm0-14.5L15.681 29l14.754-14.5L45.19 28.396 59.944 14.5 74.698 29l-7.377 7.25L59.944 29 45.19 43.5 30.435 29l-7.377 7.25Z" fill="#1B1B28"/><path d="M96.141 25.654V9.598l-.583-2.935.612-1.761h5.57l5.715 11.154h.583l4.724-11.154h5.803l.291 1.761-.291 2.818v16.173h-5.278l.087-2.495v-8.19h-.32l-1.167 2.819-2.624 4.93h-3.499l-4.024-7.748h-.292v2.377l.292 8.307h-5.599Zm24.755 0 1.4-4.96v-3.728l2.157-.881 3.791-11.183h7.553l4.694 13.15 2.245 4.168v3.434h-5.161l-1.458-4.697h-8.485l-1.254 4.697h-5.482Zm8.66-9.217h4.958l-2.217-6.721h-.612l-2.129 6.721Zm25.107 9.51c-1.496 0-2.916-.146-4.257-.44a9.3 9.3 0 0 1-3.528-1.644c-1.011-.782-1.808-1.868-2.391-3.258s-.875-3.17-.875-5.342c0-2.094.311-3.825.933-5.195.622-1.39 1.448-2.485 2.479-3.288a9.741 9.741 0 0 1 3.47-1.702 15.389 15.389 0 0 1 3.878-.5c.952 0 1.779.05 2.478.148.7.098 1.371.225 2.012.381l3.966 2.32-2.041 4.549-6.444-2.29c-.933 0-1.799.186-2.596.558-.777.372-1.409.969-1.895 1.79-.466.803-.7 1.889-.7 3.258 0 2.212.486 3.767 1.458 4.667.992.881 2.343 1.321 4.053 1.321.875 0 1.556-.039 2.042-.117.505-.098.894-.176 1.166-.235v-2.23h-3.703v-4.345h9.272l.321 1.761-.641 2.437v6.164c-.214.078-.7.215-1.458.41-.739.196-1.711.382-2.916.558-1.186.176-2.547.264-4.083.264Zm12.32-.293V9.569l-.292-2.935.292-1.762h5.278v20.782h-5.278Zm18.649.293c-1.322 0-2.605-.146-3.849-.44a9.086 9.086 0 0 1-3.383-1.644c-.991-.782-1.779-1.868-2.362-3.258-.583-1.39-.875-3.17-.875-5.342 0-2.015.292-3.708.875-5.078s1.361-2.465 2.333-3.287c.972-.822 2.031-1.41 3.178-1.761a11.47 11.47 0 0 1 3.499-.558c.992 0 1.954.078 2.887.235.953.156 1.643.332 2.071.528l3.236 2.671-2.624 4.256-4.986-2.583c-1.381 0-2.547.46-3.499 1.38-.953.9-1.429 2.3-1.429 4.197 0 1.35.233 2.446.7 3.288.486.841 1.146 1.457 1.982 1.849.836.391 1.789.587 2.858.587 1.128 0 2.09-.088 2.887-.264a14.077 14.077 0 0 0 2.099-.675c.603-.274 1.176-.538 1.721-.793v4.931c-.681.43-1.585.832-2.712 1.204-1.128.372-2.663.557-4.607.557ZM96.243 54.59V35.096l-.685-3.564.685-2.175h10.2c1.643 0 3.217.167 4.723.5 1.529.308 2.887.902 4.073 1.781 1.21.88 2.157 2.139 2.841 3.779.708 1.64 1.062 3.766 1.062 6.38 0 2.613-.354 4.764-1.062 6.45-.707 1.664-1.665 2.959-2.875 3.886a10.636 10.636 0 0 1-4.107 1.924 20.147 20.147 0 0 1-4.655.535h-10.2Zm6.229-5.702h3.971c2.008 0 3.548-.546 4.621-1.64 1.072-1.116 1.608-2.934 1.608-5.453 0-2.518-.547-4.265-1.643-5.239-1.072-.998-2.601-1.497-4.586-1.497h-3.971v13.83Zm20.779 5.702V35.096l-.684-3.6.684-2.139h10.953c1.666 0 3.161.274 4.484.82 1.346.523 2.408 1.426 3.183 2.709.799 1.26 1.198 3.006 1.198 5.24 0 2.02-.353 3.659-1.061 4.918a6.774 6.774 0 0 1-2.943 2.78l.342.392 3.389 4.42 1.951 1.817v2.139h-7.702L132.253 47h-2.841v1.854l.343 3.564-.343 2.174h-6.161Zm6.161-13.187h3.355c1.186 0 2.133-.225 2.841-.677.707-.475 1.061-1.342 1.061-2.602 0-.879-.171-1.532-.514-1.96-.342-.451-.821-.748-1.437-.891-.594-.143-1.29-.214-2.088-.214h-3.56l.342 6.344Zm28.307 13.544c-1.46 0-2.886-.178-4.278-.534a9.722 9.722 0 0 1-3.731-1.996c-1.095-.95-1.974-2.27-2.636-3.956-.639-1.688-.958-3.85-.958-6.487 0-2.638.319-4.8.958-6.487.662-1.687 1.541-3.006 2.636-3.956a9.333 9.333 0 0 1 3.731-1.96 16.172 16.172 0 0 1 4.278-.571c1.461 0 2.876.19 4.245.57a9.41 9.41 0 0 1 3.731 1.996c1.118.95 1.996 2.27 2.635 3.957.662 1.686.993 3.837.993 6.45 0 2.614-.331 4.765-.993 6.452-.639 1.687-1.517 3.006-2.635 3.956a9.41 9.41 0 0 1-3.731 1.996 15.79 15.79 0 0 1-4.245.57Zm0-6.059c1.689 0 2.967-.523 3.834-1.568s1.301-2.828 1.301-5.346c0-2.519-.434-4.301-1.301-5.347-.867-1.045-2.145-1.568-3.834-1.568-1.665 0-2.932.535-3.799 1.604-.867 1.07-1.301 2.84-1.301 5.31 0 2.472.434 4.242 1.301 5.311.867 1.07 2.134 1.604 3.799 1.604Zm15.705 5.702V35.096l-.685-3.6.685-2.139h10.953c1.666 0 3.161.274 4.484.82 1.346.523 2.407 1.426 3.183 2.709.799 1.26 1.198 3.006 1.198 5.24 0 2.233-.422 4.003-1.266 5.31-.844 1.283-2.02 2.198-3.526 2.744-1.483.547-3.183.82-5.1.82h-3.765v1.854l.342 3.564-.342 2.174h-6.161Zm6.161-13.187h3.354c1.187 0 2.134-.225 2.841-.677.708-.475 1.062-1.342 1.062-2.602 0-.879-.172-1.532-.514-1.96-.342-.451-.821-.748-1.437-.891-.594-.143-1.29-.214-2.088-.214h-3.56l.342 6.344ZM188.663 58l-4.579-4.579 4.579-4.579 4.579 4.58L188.663 58Z" fill="#1B1B28"/></svg>