<svg width="630" height="272" fill="none" xmlns="http://www.w3.org/2000/svg"><path d="M325.301 126.423V80.471l-1.669-8.401 1.752-5.04h15.94l16.358 31.923h1.669l13.52-31.923h16.608l.834 5.04-.834 8.065v46.288h-15.106l.25-7.14V95.844h-.918l-3.338 8.065-7.511 14.113h-10.015l-11.517-22.178h-.834v6.805l.834 23.774h-16.023Zm70.85 0 4.006-14.197v-10.669l6.175-2.52 10.85-32.007h21.615l13.436 37.635 6.427 11.929v9.829h-14.772l-4.173-13.441h-24.286l-3.589 13.441h-15.689Zm24.786-26.378h14.188l-6.343-19.238h-1.752l-6.093 19.238Zm71.858 27.218c-4.284 0-8.346-.42-12.185-1.26-3.783-.896-7.149-2.464-10.098-4.704-2.893-2.24-5.174-5.349-6.843-9.325-1.669-3.976-2.504-9.073-2.504-15.29 0-5.992.89-10.949 2.671-14.869 1.78-3.976 4.145-7.113 7.094-9.409a27.898 27.898 0 0 1 9.931-4.872 44.057 44.057 0 0 1 11.1-1.428c2.726 0 5.09.14 7.093.42 2.003.28 3.923.644 5.759 1.092l11.35 6.636-5.842 13.021-18.444-6.552c-2.671 0-5.146.532-7.428 1.596-2.225 1.064-4.033 2.772-5.424 5.124-1.335 2.297-2.003 5.405-2.003 9.325 0 6.329 1.391 10.781 4.173 13.358 2.837 2.52 6.704 3.78 11.6 3.78 2.504 0 4.451-.112 5.842-.336 1.447-.28 2.559-.504 3.338-.672v-6.385h-10.599V94.08h26.539l.919 5.04-1.837 6.973v17.642c-.612.224-2.002.616-4.172 1.176-2.115.56-4.896 1.092-8.346 1.596-3.394.504-7.289.756-11.684.756Zm35.259-.84V80.387l-.834-8.401.834-5.04h15.106v59.477h-15.106Zm53.374.84a47.82 47.82 0 0 1-11.016-1.26 26.012 26.012 0 0 1-9.681-4.704c-2.837-2.24-5.091-5.349-6.76-9.325-1.669-3.976-2.503-9.073-2.503-15.29 0-5.768.834-10.613 2.503-14.533s3.895-7.057 6.677-9.409c2.782-2.352 5.814-4.032 9.097-5.04 3.338-1.064 6.676-1.596 10.014-1.596 2.838 0 5.592.224 8.262.672 2.727.448 4.702.952 5.926 1.512l9.264 7.644-7.512 12.182-14.271-7.393c-3.95 0-7.288 1.316-10.014 3.948-2.727 2.576-4.09 6.58-4.09 12.013 0 3.865.668 7.001 2.003 9.409 1.391 2.409 3.283 4.173 5.675 5.293 2.393 1.12 5.119 1.68 8.179 1.68 3.227 0 5.981-.252 8.262-.756 2.281-.56 4.284-1.204 6.009-1.932 1.725-.784 3.366-1.54 4.924-2.268v14.113c-1.947 1.232-4.535 2.38-7.761 3.444-3.227 1.064-7.623 1.596-13.187 1.596Zm-255.837 81.98v-55.799l-1.959-10.201 1.959-6.223h29.193c4.703 0 9.209.476 13.519 1.428 4.376.884 8.262 2.584 11.658 5.101 3.462 2.516 6.172 6.12 8.131 10.813 2.025 4.692 3.037 10.779 3.037 18.26 0 7.48-1.012 13.635-3.037 18.463-2.024 4.761-4.767 8.467-8.229 11.119-3.461 2.653-7.38 4.489-11.756 5.509-4.31 1.02-8.751 1.53-13.323 1.53h-29.193Zm17.829-16.322h11.364c5.748 0 10.156-1.564 13.225-4.692 3.07-3.196 4.605-8.399 4.605-15.607 0-7.209-1.568-12.208-4.702-14.996-3.07-2.856-7.446-4.284-13.128-4.284H343.42v39.579Zm59.471 16.322v-55.799l-1.959-10.303 1.959-6.121h31.349c4.767 0 9.045.782 12.833 2.346 3.853 1.496 6.89 4.081 9.111 7.753 2.285 3.604 3.428 8.603 3.428 14.996 0 5.78-1.012 10.473-3.037 14.077-2.024 3.536-4.832 6.188-8.425 7.957l.98 1.122 9.699 12.649 5.584 5.202v6.121h-22.042l-13.715-21.728h-8.131v5.304l.979 10.201-.979 6.223h-17.634Zm17.634-37.744h9.6c3.396 0 6.106-.646 8.131-1.938 2.025-1.36 3.037-3.842 3.037-7.446 0-2.517-.49-4.387-1.469-5.611-.98-1.292-2.352-2.142-4.115-2.55-1.698-.408-3.69-.612-5.976-.612h-10.188l.98 18.157Zm81.017 38.764c-4.18 0-8.262-.51-12.246-1.53-3.918-1.088-7.478-2.992-10.678-5.713-3.135-2.72-5.649-6.494-7.543-11.323-1.829-4.828-2.743-11.017-2.743-18.565 0-7.549.914-13.738 2.743-18.566 1.894-4.829 4.408-8.603 7.543-11.323 3.2-2.721 6.76-4.591 10.678-5.611A46.275 46.275 0 0 1 501.542 136c4.18 0 8.229.544 12.147 1.632a26.912 26.912 0 0 1 10.679 5.713c3.2 2.72 5.714 6.494 7.543 11.323 1.894 4.828 2.841 10.983 2.841 18.464 0 7.48-.947 13.635-2.841 18.463-1.829 4.829-4.343 8.603-7.543 11.323a26.912 26.912 0 0 1-10.679 5.713c-3.918 1.088-7.967 1.632-12.147 1.632Zm0-17.342c4.833 0 8.49-1.496 10.972-4.488 2.482-2.992 3.723-8.093 3.723-15.301 0-7.209-1.241-12.31-3.723-15.302-2.482-2.992-6.139-4.488-10.972-4.488-4.768 0-8.392 1.53-10.874 4.59-2.482 3.06-3.723 8.127-3.723 15.2 0 7.072 1.241 12.139 3.723 15.199 2.482 3.06 6.106 4.59 10.874 4.59Zm44.947 16.322v-55.799l-1.959-10.303 1.959-6.121h31.349c4.767 0 9.045.782 12.833 2.346 3.853 1.496 6.89 4.081 9.111 7.753 2.286 3.604 3.429 8.603 3.429 14.996 0 6.392-1.209 11.459-3.625 15.199-2.417 3.672-5.78 6.291-10.09 7.855-4.246 1.564-9.111 2.346-14.597 2.346h-10.776v5.304l.979 10.201-.979 6.223h-17.634Zm17.634-37.744h9.6c3.396 0 6.107-.646 8.131-1.938 2.025-1.36 3.037-3.842 3.037-7.446 0-2.517-.49-4.387-1.469-5.611-.98-1.292-2.351-2.142-4.115-2.55-1.698-.408-3.69-.612-5.976-.612h-10.188l.98 18.157Z" fill="#fff"/><g filter="url(#a)"><path d="M590.105 219 577 205.894l13.105-13.105 13.106 13.105L590.105 219Z" fill="#DDC916"/></g><g filter="url(#b)"><path fill-rule="evenodd" clip-rule="evenodd" d="M590.105 219 577 205.894l13.105-13.105 13.106 13.105L590.105 219Zm6.034-13.106-6.034 6.035-6.034-6.035 6.034-6.034 6.034 6.034Z" fill="#FFE500"/></g><g filter="url(#c)"><path fill-rule="evenodd" clip-rule="evenodd" d="M116.5 198.25 53 136l84.667-83L180 94.5 222.333 53 307 136l-63.5 62.25-21.167-20.75L180 219l-42.333-41.5-21.167 20.75Zm0-41.5L95.333 136l42.334-41.5L180 134.271 222.333 94.5l42.334 41.5-21.167 20.75L222.333 136 180 177.5 137.667 136 116.5 156.75Z" fill="#DDC916"/><path d="m178.25 96.285 1.75 1.716 1.75-1.716 40.583-39.784L303.429 136 243.5 194.749l-19.417-19.034-1.75-1.716-1.75 1.716L180 215.499l-40.583-39.784-1.75-1.716-1.75 1.716-19.417 19.034L56.571 136l81.096-79.5 40.583 39.785Zm-84.667 37.93L91.763 136l1.82 1.785 21.167 20.75 1.75 1.716 1.75-1.716 19.417-19.034 40.583 39.784 1.75 1.716 1.75-1.716 40.583-39.784 19.417 19.034 1.75 1.716 1.75-1.716 21.167-20.75 1.821-1.785-1.821-1.785-42.334-41.5-1.713-1.68-1.748 1.643L180 130.84l-40.622-38.163-1.748-1.643-1.713 1.68-42.334 41.5Z" stroke="#FFE500" stroke-width="5"/></g><defs><filter id="a" x="550.789" y="166.579" width="78.632" height="78.632" filterUnits="userSpaceOnUse" color-interpolation-filters="sRGB"><feFlood flood-opacity="0" result="BackgroundImageFix"/><feColorMatrix in="SourceAlpha" values="0 0 0 0 0 0 0 0 0 0 0 0 0 0 0 0 0 0 127 0" result="hardAlpha"/><feOffset/><feGaussianBlur stdDeviation="13.105"/><feComposite in2="hardAlpha" operator="out"/><feColorMatrix values="0 0 0 0 1 0 0 0 0 0.6 0 0 0 0 0 0 0 0 0.25 0"/><feBlend in2="BackgroundImageFix" result="effect1_dropShadow_2408_12606"/><feBlend in="SourceGraphic" in2="effect1_dropShadow_2408_12606" result="shape"/></filter><filter id="b" x="550.789" y="166.579" width="78.632" height="78.632" filterUnits="userSpaceOnUse" color-interpolation-filters="sRGB"><feFlood flood-opacity="0" result="BackgroundImageFix"/><feColorMatrix in="SourceAlpha" values="0 0 0 0 0 0 0 0 0 0 0 0 0 0 0 0 0 0 127 0" result="hardAlpha"/><feOffset/><feGaussianBlur stdDeviation="13.105"/><feComposite in2="hardAlpha" operator="out"/><feColorMatrix values="0 0 0 0 1 0 0 0 0 0.6 0 0 0 0 0 0 0 0 0.25 0"/><feBlend in2="BackgroundImageFix" result="effect1_dropShadow_2408_12606"/><feBlend in="SourceGraphic" in2="effect1_dropShadow_2408_12606" result="shape"/></filter><filter id="c" x=".579" y=".579" width="358.842" height="270.842" filterUnits="userSpaceOnUse" color-interpolation-filters="sRGB"><feFlood flood-opacity="0" result="BackgroundImageFix"/><feColorMatrix in="SourceAlpha" values="0 0 0 0 0 0 0 0 0 0 0 0 0 0 0 0 0 0 127 0" result="hardAlpha"/><feOffset/><feGaussianBlur stdDeviation="26.21"/><feComposite in2="hardAlpha" operator="out"/><feColorMatrix values="0 0 0 0 1 0 0 0 0 0.6 0 0 0 0 0 0 0 0 0.25 0"/><feBlend in2="BackgroundImageFix" result="effect1_dropShadow_2408_12606"/><feBlend in="SourceGraphic" in2="effect1_dropShadow_2408_12606" result="shape"/></filter></defs></svg>