<svg width="126" height="38" fill="none" xmlns="http://www.w3.org/2000/svg"><path d="M62.382 16.808V6.288L62 4.365l.401-1.153h3.65l3.744 7.307h.382l3.095-7.307h3.801l.192 1.153-.192 1.847v10.596h-3.457l.057-1.635V9.808h-.21l-.764 1.846-1.72 3.23h-2.292L66.05 9.809h-.19v1.557l.19 5.443h-3.668zm16.218 0l.918-3.25v-2.443l1.413-.576 2.484-7.327h4.948l3.076 8.615 1.471 2.73v2.25h-3.382l-.955-3.076h-5.56l-.82 3.077H78.6zm5.675-6.039h3.247l-1.451-4.404h-.402l-1.394 4.404zM100.724 17c-.98 0-1.91-.096-2.79-.288a6.095 6.095 0 01-2.31-1.077c-.663-.513-1.185-1.225-1.567-2.135-.382-.91-.573-2.077-.573-3.5 0-1.372.203-2.506.61-3.404.409-.91.95-1.628 1.625-2.154a6.39 6.39 0 012.273-1.115c.84-.218 1.688-.327 2.541-.327.624 0 1.166.032 1.624.096.459.064.898.148 1.318.25l2.598 1.52-1.337 2.98-4.222-1.5c-.611 0-1.178.122-1.7.366-.51.243-.924.634-1.242 1.173-.306.525-.459 1.237-.459 2.134 0 1.449.319 2.468.956 3.058.65.577 1.534.865 2.655.865.573 0 1.019-.025 1.337-.077.332-.064.586-.115.765-.154V12.25h-2.427V9.404h6.076l.21 1.154-.421 1.596v4.038c-.14.052-.458.141-.955.27-.484.128-1.121.25-1.91.365-.777.115-1.669.173-2.675.173zm8.072-.192V6.269l-.192-1.923.192-1.154h3.457v13.616h-3.457zm12.218.192c-.866 0-1.707-.096-2.522-.288a5.953 5.953 0 01-2.216-1.077c-.65-.513-1.166-1.225-1.548-2.135-.382-.91-.573-2.077-.573-3.5 0-1.32.191-2.43.573-3.327.382-.897.892-1.615 1.529-2.154a5.882 5.882 0 012.082-1.154A7.51 7.51 0 01120.632 3c.649 0 1.28.051 1.891.154.624.102 1.076.218 1.356.346L126 5.25l-1.719 2.788-3.267-1.692c-.905 0-1.669.301-2.293.904-.624.59-.936 1.506-.936 2.75 0 .885.153 1.603.459 2.154a2.89 2.89 0 001.299 1.211c.547.257 1.171.385 1.872.385.739 0 1.369-.058 1.891-.173a9.206 9.206 0 001.376-.442 120 120 0 001.127-.52v3.231c-.446.282-1.038.545-1.777.789-.738.243-1.745.365-3.018.365zM62.449 35.767V22.992L62 20.658l.449-1.425h6.682c1.077 0 2.108.11 3.095.327a6.624 6.624 0 012.669 1.168c.792.576 1.413 1.401 1.861 2.475.463 1.075.695 2.468.695 4.18 0 1.713-.231 3.122-.695 4.227-.463 1.09-1.091 1.938-1.884 2.545a6.971 6.971 0 01-2.69 1.261c-.987.234-2.004.35-3.05.35h-6.684zm4.081-3.737h2.601c1.316 0 2.325-.358 3.028-1.074.703-.732 1.054-1.923 1.054-3.573s-.359-2.794-1.077-3.432c-.702-.654-1.704-.981-3.005-.981H66.53v9.06zm13.614 3.737V22.992l-.449-2.358.449-1.402h7.176c1.091 0 2.07.18 2.938.538.882.342 1.577.934 2.085 1.774.523.825.785 1.97.785 3.433 0 1.323-.232 2.397-.695 3.223a4.44 4.44 0 01-1.929 1.821l.225.257 2.22 2.895 1.278 1.191v1.401h-5.046l-3.14-4.973h-1.86v1.214l.224 2.335-.225 1.425h-4.036zm4.036-8.64h2.198c.777 0 1.398-.148 1.861-.444.464-.312.695-.88.695-1.705 0-.576-.112-1.004-.336-1.284-.224-.296-.538-.49-.942-.584a5.905 5.905 0 00-1.368-.14h-2.332l.224 4.156zM102.726 36c-.956 0-1.891-.117-2.803-.35a6.37 6.37 0 01-2.444-1.308c-.718-.623-1.293-1.487-1.727-2.592-.418-1.105-.628-2.522-.628-4.25 0-1.728.21-3.145.628-4.25.434-1.105 1.01-1.97 1.727-2.592a6.114 6.114 0 012.444-1.284c.912-.25 1.847-.374 2.803-.374.957 0 1.884.125 2.781.374a6.173 6.173 0 012.445 1.307c.732.623 1.308 1.487 1.726 2.592.434 1.106.651 2.515.651 4.227 0 1.712-.217 3.121-.651 4.227-.418 1.105-.994 1.969-1.726 2.592a6.167 6.167 0 01-2.445 1.307 10.31 10.31 0 01-2.781.374zm0-3.97c1.107 0 1.944-.342 2.512-1.027.568-.685.852-1.853.852-3.503 0-1.65-.284-2.818-.852-3.503-.568-.685-1.405-1.027-2.512-1.027-1.091 0-1.921.35-2.489 1.05-.568.701-.852 1.861-.852 3.48s.284 2.779.852 3.48c.568.7 1.398 1.05 2.489 1.05zm10.29 3.737V22.992l-.449-2.358.449-1.402h7.176c1.091 0 2.07.18 2.938.538.882.342 1.577.934 2.085 1.774.523.825.785 1.97.785 3.433 0 1.463-.277 2.623-.83 3.48-.553.84-1.323 1.44-2.31 1.798-.971.358-2.085.537-3.341.537h-2.467v1.214l.224 2.335-.224 1.425h-4.036zm4.036-8.64h2.198c.777 0 1.398-.148 1.861-.444.464-.312.695-.88.695-1.705 0-.576-.112-1.004-.336-1.284-.224-.296-.538-.49-.942-.584a5.908 5.908 0 00-1.368-.14h-2.332l.224 4.156z" fill="#fff"/><path fill-rule="evenodd" clip-rule="evenodd" d="M14.5 33.25L0 19 19.333 0 29 9.5 38.667 0 58 19 43.5 33.25l-4.833-4.75L29 38l-9.667-9.5-4.833 4.75zm0-9.5L9.667 19l9.666-9.5L29 18.604 38.667 9.5l9.666 9.5-4.833 4.75L38.667 19 29 28.5 19.333 19 14.5 23.75z" fill="#DDC916"/><path d="M58 19L43.5 33.25l-4.833-4.75L29 38l-9.667-9.5-4.833 4.75L0 19 19.333 0 29 9.5 38.667 0 58 19zm-29-8.098l-9.667-9.5L1.426 18.998 14.5 31.848l4.133-4.06.7-.69 9.667 9.5 9.667-9.5 4.832 4.75 13.074-12.849L38.666 1.401 29 10.902zM49.76 19l-6.26 6.152-4.834-4.75-9.666 9.5-9.667-9.5-4.833 4.75L8.24 19 19.318 8.112 29 17.23l9.682-9.118L49.76 19zM29 18.604L19.333 9.5 9.667 19l4.833 4.75L19.333 19 29 28.5l9.667-9.5 4.833 4.75L48.333 19l-9.666-9.5L29 18.604z" fill="#FFE500"/><path d="M123 38l-3-3 3-3 3 3-3 3z" fill="#DDC916"/><path d="M126 35l-3 3-3-3 3-3 3 3zm-4.586 0L123 36.586 124.586 35 123 33.414 121.414 35z" fill="#FFE500"/></svg>