<svg width="125" height="30" fill="none" xmlns="http://www.w3.org/2000/svg"><path d="M109.887 1.237c2.255 0 4.4.518 6.324 1.444.302.137.606.3.907.464l-1.32 1.172-1.978-2.044-3.41 2.997-2.007-2.153-6.269 5.586 4.013 4.387-1.566 1.362 3.959 4.386-1.567 1.362 5.665 6.24 3.352-3.052 2.916 3.27c-.578.436-1.21.873-1.897 1.254a14.472 14.472 0 01-7.094 1.851c-7.947 0-14.407-6.402-14.407-14.275-.028-7.82 6.433-14.25 14.379-14.25zm-2.64 13.378l3.437-3.051 3.08 3.405-3.437 3.052-3.08-3.406zm2.448 5.886l3.409-3.079 3.107 3.405-3.437 3.052-3.079-3.378zm-4.893-11.689l3.436-3.052 3.079 3.406-3.437 3.052-3.078-3.406zm6.295-1.635l2.557-2.289 2.31 2.534-2.557 2.316-2.31-2.561zm4.564 10.49l2.557-2.289 2.31 2.56-2.558 2.29-2.309-2.561zm2.255 5.15l2.557-2.29 2.308 2.535-2.556 2.315-2.309-2.56zm1.045-11.771l1.704-1.526 1.539 1.69-1.704 1.525-1.539-1.69zm-2.2-5.04l1.705-1.553 1.54 1.716-1.706 1.526-1.539-1.69zm4.372 10.08l1.704-1.525 1.567 1.69-1.731 1.525-1.54-1.69zm-7.671-3.786l2.557-2.29 2.309 2.534-2.556 2.29-2.31-2.534zM7.549 11.32h-.13l-2.437 9.252H2.99L0 7.428h2.067l2.067 9.808h.13l2.398-9.808h1.643l2.566 9.808H11l1.883-9.808h2.16l-2.991 13.144h-1.994L7.549 11.32zm10.116 3.656h4.225c-.091-1.946-1.033-2.723-2.03-2.723-1.125 0-1.993.87-2.195 2.723zm5.702 3.487v1.409a6.486 6.486 0 01-3.267.853c-3.1 0-4.373-1.928-4.373-4.857 0-2.819 1.42-4.858 4.189-4.858 2.306 0 3.728 1.502 3.728 4.523v.686h-6.016c0 2.224.903 3.207 2.805 3.207.997 0 1.92-.353 2.934-.963zm4.573.777c.59.259 1.237.297 1.7.297 1.365 0 2.397-.854 2.397-3.856 0-2.355-.849-3.115-2.085-3.115-.739 0-1.274.205-2.012.612v6.061zm.02-7.434c.552-.295 1.493-.686 2.49-.686 2.289 0 3.525 1.594 3.525 4.56 0 3.468-1.66 5.154-4.336 5.154-.979 0-2.492-.315-3.6-.91V6.987l1.92-.463v5.283zm14.323 5.978h.093L46.325 7.42h2.29v13.145H46.62v-9.53h-.166l-3.766 9.53h-1.18l-3.766-9.307h-.166v9.307h-1.661V7.42h2.234l4.133 10.363zm14.477-1.917c0-2.502-1.015-3.558-2.27-3.558-1.218 0-2.27 1.056-2.27 3.558 0 2.54.96 3.56 2.27 3.56s2.27-1.02 2.27-3.56zm-6.478 0c0-3.245 1.773-4.857 4.208-4.857 2.437 0 4.208 1.612 4.208 4.857 0 3.17-1.68 4.858-4.208 4.858-2.528 0-4.208-1.688-4.208-4.858zm9.878-3.484c.83-.502 2.585-1.373 4.707-1.373 2.214 0 3.043.871 3.043 2.78v6.712h-1.918v-6.285c0-1.464-.718-1.724-1.66-1.724-.738 0-1.68.335-2.252.668v7.341h-1.92v-8.12zm11.809 2.593h4.226c-.091-1.946-1.033-2.723-2.03-2.723-1.126 0-1.993.87-2.196 2.723zm5.702 3.487v1.409c-.83.482-1.938.853-3.267.853-3.099 0-4.373-1.928-4.373-4.857 0-2.819 1.42-4.858 4.19-4.858 2.307 0 3.729 1.502 3.729 4.523v.686h-6.018c0 2.224.905 3.207 2.806 3.207.995 0 1.92-.353 2.933-.963zm7.939-7.453h1.976l-3.341 9.268c-.924 2.558-2.049 3.893-4.17 3.893v-1.519c1.255 0 2.029-1.002 2.473-2.374l-3.544-9.268h2.03l2.363 6.822h.11l2.103-6.822z" fill="#38384E"/></svg>