<svg width="222" height="296" fill="none" xmlns="http://www.w3.org/2000/svg"><mask id="a" style="mask-type:alpha" maskUnits="userSpaceOnUse" x="0" y="0" width="222" height="296"><path fill="url(#paint0_radial_2509_2485)" fill-opacity=".38" d="M0 0h222v296H0z"/></mask><g mask="url(#a)" fill="#1C1C2E"><path d="M-173 148h1v84h-1v-84zm21 0h1v84h-1v-84zm21 0h1v84h-1v-84zm21 0h1v84h-1v-84z"/><path d="M-183 222v-1h84v1h-84zm0-21v-1h84v1h-84zm0-21v-1h84v1h-84zm0-21v-1h84v1h-84zm94-11h1v84h-1v-84zm21 0h1v84h-1v-84zm21 0h1v84h-1v-84zm21 0h1v84h-1v-84z"/><path d="M-99 222v-1h84v1h-84zm0-21v-1h84v1h-84zm0-21v-1h84v1h-84zm0-21v-1h84v1h-84zm94-11h1v84h-1v-84zm21 0h1v84h-1v-84zm21 0h1v84h-1v-84zm21 0h1v84h-1v-84z"/><path d="M-15 222v-1h84v1h-84zm0-21v-1h84v1h-84zm0-21v-1h84v1h-84zm0-21v-1h84v1h-84zm94-11h1v84h-1v-84zm21 0h1v84h-1v-84zm21 0h1v84h-1v-84zm21 0h1v84h-1v-84z"/><path d="M69 222v-1h84v1H69zm0-21v-1h84v1H69zm0-21v-1h84v1H69zm0-21v-1h84v1H69zm94-11h1v84h-1v-84zm21 0h1v84h-1v-84zm21 0h1v84h-1v-84zm21 0h1v84h-1v-84z"/><path d="M153 222v-1h84v1h-84zm0-21v-1h84v1h-84zm0-21v-1h84v1h-84zm0-21v-1h84v1h-84zm94-11h1v84h-1v-84zm21 0h1v84h-1v-84zm21 0h1v84h-1v-84zm21 0h1v84h-1v-84z"/><path d="M237 222v-1h84v1h-84zm0-21v-1h84v1h-84zm0-21v-1h84v1h-84zm0-21v-1h84v1h-84zm94-11h1v84h-1v-84zm21 0h1v84h-1v-84zm21 0h1v84h-1v-84zm21 0h1v84h-1v-84z"/><path d="M321 222v-1h84v1h-84zm0-21v-1h84v1h-84zm0-21v-1h84v1h-84zm0-21v-1h84v1h-84zm94-11h1v84h-1v-84zm21 0h1v84h-1v-84zm21 0h1v84h-1v-84zm21 0h1v84h-1v-84z"/><path d="M405 222v-1h84v1h-84zm0-21v-1h84v1h-84zm0-21v-1h84v1h-84zm0-21v-1h84v1h-84zm-662-11h1v84h-1v-84zm21 0h1v84h-1v-84zm21 0h1v84h-1v-84zm21 0h1v84h-1v-84z"/><path d="M-267 222v-1h84v1h-84zm0-21v-1h84v1h-84zm0-21v-1h84v1h-84zm0-21v-1h84v1h-84zm94 73h1v84h-1v-84zm21 0h1v84h-1v-84zm21 0h1v84h-1v-84zm21 0h1v84h-1v-84z"/><path d="M-183 306v-1h84v1h-84zm0-21v-1h84v1h-84zm0-21v-1h84v1h-84zm0-21v-1h84v1h-84zm94-11h1v84h-1v-84zm21 0h1v84h-1v-84zm21 0h1v84h-1v-84zm21 0h1v84h-1v-84z"/><path d="M-99 306v-1h84v1h-84zm0-21v-1h84v1h-84zm0-21v-1h84v1h-84zm0-21v-1h84v1h-84zm94-11h1v84h-1v-84zm21 0h1v84h-1v-84zm21 0h1v84h-1v-84zm21 0h1v84h-1v-84z"/><path d="M-15 306v-1h84v1h-84zm0-21v-1h84v1h-84zm0-21v-1h84v1h-84zm0-21v-1h84v1h-84zm94-11h1v84h-1v-84zm21 0h1v84h-1v-84zm21 0h1v84h-1v-84zm21 0h1v84h-1v-84z"/><path d="M69 306v-1h84v1H69zm0-21v-1h84v1H69zm0-21v-1h84v1H69zm0-21v-1h84v1H69zm94-11h1v84h-1v-84zm21 0h1v84h-1v-84zm21 0h1v84h-1v-84zm21 0h1v84h-1v-84z"/><path d="M153 306v-1h84v1h-84zm0-21v-1h84v1h-84zm0-21v-1h84v1h-84zm0-21v-1h84v1h-84zm94-11h1v84h-1v-84zm21 0h1v84h-1v-84zm21 0h1v84h-1v-84zm21 0h1v84h-1v-84z"/><path d="M237 306v-1h84v1h-84zm0-21v-1h84v1h-84zm0-21v-1h84v1h-84zm0-21v-1h84v1h-84zm94-11h1v84h-1v-84zm21 0h1v84h-1v-84zm21 0h1v84h-1v-84zm21 0h1v84h-1v-84z"/><path d="M321 306v-1h84v1h-84zm0-21v-1h84v1h-84zm0-21v-1h84v1h-84zm0-21v-1h84v1h-84zm94-11h1v84h-1v-84zm21 0h1v84h-1v-84zm21 0h1v84h-1v-84zm21 0h1v84h-1v-84z"/><path d="M405 306v-1h84v1h-84zm0-21v-1h84v1h-84zm0-21v-1h84v1h-84zm0-21v-1h84v1h-84zm-662-11h1v84h-1v-84zm21 0h1v84h-1v-84zm21 0h1v84h-1v-84zm21 0h1v84h-1v-84z"/><path d="M-267 306v-1h84v1h-84zm0-21v-1h84v1h-84zm0-21v-1h84v1h-84zm0-21v-1h84v1h-84zm94 73h1v84h-1v-84zm21 0h1v84h-1v-84zm21 0h1v84h-1v-84zm21 0h1v84h-1v-84z"/><path d="M-183 390v-1h84v1h-84zm0-21v-1h84v1h-84zm0-21v-1h84v1h-84zm0-21v-1h84v1h-84zm94-11h1v84h-1v-84zm21 0h1v84h-1v-84zm21 0h1v84h-1v-84zm21 0h1v84h-1v-84z"/><path d="M-99 390v-1h84v1h-84zm0-21v-1h84v1h-84zm0-21v-1h84v1h-84zm0-21v-1h84v1h-84zm94-11h1v84h-1v-84zm21 0h1v84h-1v-84zm21 0h1v84h-1v-84zm21 0h1v84h-1v-84z"/><path d="M-15 390v-1h84v1h-84zm0-21v-1h84v1h-84zm0-21v-1h84v1h-84zm0-21v-1h84v1h-84zm94-11h1v84h-1v-84zm21 0h1v84h-1v-84zm21 0h1v84h-1v-84zm21 0h1v84h-1v-84z"/><path d="M69 390v-1h84v1H69zm0-21v-1h84v1H69zm0-21v-1h84v1H69zm0-21v-1h84v1H69zm94-11h1v84h-1v-84zm21 0h1v84h-1v-84zm21 0h1v84h-1v-84zm21 0h1v84h-1v-84z"/><path d="M153 390v-1h84v1h-84zm0-21v-1h84v1h-84zm0-21v-1h84v1h-84zm0-21v-1h84v1h-84zm94-11h1v84h-1v-84zm21 0h1v84h-1v-84zm21 0h1v84h-1v-84zm21 0h1v84h-1v-84z"/><path d="M237 390v-1h84v1h-84zm0-21v-1h84v1h-84zm0-21v-1h84v1h-84zm0-21v-1h84v1h-84zm94-11h1v84h-1v-84zm21 0h1v84h-1v-84zm21 0h1v84h-1v-84zm21 0h1v84h-1v-84z"/><path d="M321 390v-1h84v1h-84zm0-21v-1h84v1h-84zm0-21v-1h84v1h-84zm0-21v-1h84v1h-84zm94-11h1v84h-1v-84zm21 0h1v84h-1v-84zm21 0h1v84h-1v-84zm21 0h1v84h-1v-84z"/><path d="M405 390v-1h84v1h-84zm0-21v-1h84v1h-84zm0-21v-1h84v1h-84zm0-21v-1h84v1h-84zm-662-11h1v84h-1v-84zm21 0h1v84h-1v-84zm21 0h1v84h-1v-84zm21 0h1v84h-1v-84z"/><path d="M-267 390v-1h84v1h-84zm0-21v-1h84v1h-84zm0-21v-1h84v1h-84zm0-21v-1h84v1h-84zm94-431h1v84h-1v-84zm21 0h1v84h-1v-84zm21 0h1v84h-1v-84zm21 0h1v84h-1v-84z"/><path d="M-183-30v-1h84v1h-84zm0-21v-1h84v1h-84zm0-21v-1h84v1h-84zm0-21v-1h84v1h-84zm94-11h1v84h-1v-84zm21 0h1v84h-1v-84zm21 0h1v84h-1v-84zm21 0h1v84h-1v-84z"/><path d="M-99-30v-1h84v1h-84zm0-21v-1h84v1h-84zm0-21v-1h84v1h-84zm0-21v-1h84v1h-84zm94-11h1v84h-1v-84zm21 0h1v84h-1v-84zm21 0h1v84h-1v-84zm21 0h1v84h-1v-84z"/><path d="M-15-30v-1h84v1h-84zm0-21v-1h84v1h-84zm0-21v-1h84v1h-84zm0-21v-1h84v1h-84zm94-11h1v84h-1v-84zm21 0h1v84h-1v-84zm21 0h1v84h-1v-84zm21 0h1v84h-1v-84z"/><path d="M69-30v-1h84v1H69zm0-21v-1h84v1H69zm0-21v-1h84v1H69zm0-21v-1h84v1H69zm94-11h1v84h-1v-84zm21 0h1v84h-1v-84zm21 0h1v84h-1v-84zm21 0h1v84h-1v-84z"/><path d="M153-30v-1h84v1h-84zm0-21v-1h84v1h-84zm0-21v-1h84v1h-84zm0-21v-1h84v1h-84zm94-11h1v84h-1v-84zm21 0h1v84h-1v-84zm21 0h1v84h-1v-84zm21 0h1v84h-1v-84z"/><path d="M237-30v-1h84v1h-84zm0-21v-1h84v1h-84zm0-21v-1h84v1h-84zm0-21v-1h84v1h-84zm94-11h1v84h-1v-84zm21 0h1v84h-1v-84zm21 0h1v84h-1v-84zm21 0h1v84h-1v-84z"/><path d="M321-30v-1h84v1h-84zm0-21v-1h84v1h-84zm0-21v-1h84v1h-84zm0-21v-1h84v1h-84zm94-11h1v84h-1v-84zm21 0h1v84h-1v-84zm21 0h1v84h-1v-84zm21 0h1v84h-1v-84z"/><path d="M405-30v-1h84v1h-84zm0-21v-1h84v1h-84zm0-21v-1h84v1h-84zm0-21v-1h84v1h-84zm-662-11h1v84h-1v-84zm21 0h1v84h-1v-84zm21 0h1v84h-1v-84zm21 0h1v84h-1v-84z"/><path d="M-267-30v-1h84v1h-84zm0-21v-1h84v1h-84zm0-21v-1h84v1h-84zm0-21v-1h84v1h-84zm94 73h1v84h-1v-84zm21 0h1v84h-1v-84zm21 0h1v84h-1v-84zm21 0h1v84h-1v-84z"/><path d="M-183 54v-1h84v1h-84zm0-21v-1h84v1h-84zm0-21v-1h84v1h-84zm0-21v-1h84v1h-84zm94-11h1v84h-1v-84zm21 0h1v84h-1v-84zm21 0h1v84h-1v-84zm21 0h1v84h-1v-84z"/><path d="M-99 54v-1h84v1h-84zm0-21v-1h84v1h-84zm0-21v-1h84v1h-84zm0-21v-1h84v1h-84zm94-11h1v84h-1v-84zm21 0h1v84h-1v-84zm21 0h1v84h-1v-84zm21 0h1v84h-1v-84z"/><path d="M-15 54v-1h84v1h-84zm0-21v-1h84v1h-84zm0-21v-1h84v1h-84zm0-21v-1h84v1h-84zm94-11h1v84h-1v-84zm21 0h1v84h-1v-84zm21 0h1v84h-1v-84zm21 0h1v84h-1v-84z"/><path d="M69 54v-1h84v1H69zm0-21v-1h84v1H69zm0-21v-1h84v1H69zm0-21v-1h84v1H69zm94-11h1v84h-1v-84zm21 0h1v84h-1v-84zm21 0h1v84h-1v-84zm21 0h1v84h-1v-84z"/><path d="M153 54v-1h84v1h-84zm0-21v-1h84v1h-84zm0-21v-1h84v1h-84zm0-21v-1h84v1h-84zm94-11h1v84h-1v-84zm21 0h1v84h-1v-84zm21 0h1v84h-1v-84zm21 0h1v84h-1v-84z"/><path d="M237 54v-1h84v1h-84zm0-21v-1h84v1h-84zm0-21v-1h84v1h-84zm0-21v-1h84v1h-84zm94-11h1v84h-1v-84zm21 0h1v84h-1v-84zm21 0h1v84h-1v-84zm21 0h1v84h-1v-84z"/><path d="M321 54v-1h84v1h-84zm0-21v-1h84v1h-84zm0-21v-1h84v1h-84zm0-21v-1h84v1h-84zm94-11h1v84h-1v-84zm21 0h1v84h-1v-84zm21 0h1v84h-1v-84zm21 0h1v84h-1v-84z"/><path d="M405 54v-1h84v1h-84zm0-21v-1h84v1h-84zm0-21v-1h84v1h-84zm0-21v-1h84v1h-84zm-662-11h1v84h-1v-84zm21 0h1v84h-1v-84zm21 0h1v84h-1v-84zm21 0h1v84h-1v-84z"/><path d="M-267 54v-1h84v1h-84zm0-21v-1h84v1h-84zm0-21v-1h84v1h-84zm0-21v-1h84v1h-84zm94 73h1v84h-1V64zm21 0h1v84h-1V64zm21 0h1v84h-1V64zm21 0h1v84h-1V64z"/><path d="M-183 138v-1h84v1h-84zm0-21v-1h84v1h-84zm0-21v-1h84v1h-84zm0-21v-1h84v1h-84zm94-11h1v84h-1V64zm21 0h1v84h-1V64zm21 0h1v84h-1V64zm21 0h1v84h-1V64z"/><path d="M-99 138v-1h84v1h-84zm0-21v-1h84v1h-84zm0-21v-1h84v1h-84zm0-21v-1h84v1h-84zm94-11h1v84h-1V64zm21 0h1v84h-1V64zm21 0h1v84h-1V64zm21 0h1v84h-1V64z"/><path d="M-15 138v-1h84v1h-84zm0-21v-1h84v1h-84zm0-21v-1h84v1h-84zm0-21v-1h84v1h-84zm94-11h1v84h-1V64zm21 0h1v84h-1V64zm21 0h1v84h-1V64zm21 0h1v84h-1V64z"/><path d="M69 138v-1h84v1H69zm0-21v-1h84v1H69zm0-21v-1h84v1H69zm0-21v-1h84v1H69zm94-11h1v84h-1V64zm21 0h1v84h-1V64zm21 0h1v84h-1V64zm21 0h1v84h-1V64z"/><path d="M153 138v-1h84v1h-84zm0-21v-1h84v1h-84zm0-21v-1h84v1h-84zm0-21v-1h84v1h-84zm94-11h1v84h-1V64zm21 0h1v84h-1V64zm21 0h1v84h-1V64zm21 0h1v84h-1V64z"/><path d="M237 138v-1h84v1h-84zm0-21v-1h84v1h-84zm0-21v-1h84v1h-84zm0-21v-1h84v1h-84zm94-11h1v84h-1V64zm21 0h1v84h-1V64zm21 0h1v84h-1V64zm21 0h1v84h-1V64z"/><path d="M321 138v-1h84v1h-84zm0-21v-1h84v1h-84zm0-21v-1h84v1h-84zm0-21v-1h84v1h-84zm94-11h1v84h-1V64zm21 0h1v84h-1V64zm21 0h1v84h-1V64zm21 0h1v84h-1V64z"/><path d="M405 138v-1h84v1h-84zm0-21v-1h84v1h-84zm0-21v-1h84v1h-84zm0-21v-1h84v1h-84zm-662-11h1v84h-1V64zm21 0h1v84h-1V64zm21 0h1v84h-1V64zm21 0h1v84h-1V64z"/><path d="M-267 138v-1h84v1h-84zm0-21v-1h84v1h-84zm0-21v-1h84v1h-84zm0-21v-1h84v1h-84z"/></g><defs><radialGradient id="paint0_radial_2509_2485" cx="0" cy="0" r="1" gradientUnits="userSpaceOnUse" gradientTransform="matrix(0 202.472 -136.669 0 111 148)"><stop stop-color="#D9D9D9"/><stop offset="1" stop-color="#737373" stop-opacity="0"/></radialGradient></defs></svg>