<svg width="320" height="363" fill="none" xmlns="http://www.w3.org/2000/svg"><path d="M.626 59.664c-4.183-25.42 13.033-49.529 38.626-52.553a1028.877 1028.877 0 01241.496 0c25.593 3.024 42.809 27.133 38.626 52.553L276.09 322.707c-4.183 25.421-28.185 42.467-53.844 40.068a668.903 668.903 0 00-124.492 0c-25.659 2.399-49.661-14.647-53.844-40.068L.626 59.664z" fill="url(#paint0_linear_2352_1881)"/><path d="M.626 59.664c-4.183-25.42 13.033-49.529 38.626-52.553l7.523-.862a1028.853 1028.853 0 01233.973.862l1.193.156c24.932 3.62 41.551 27.373 37.433 52.397L276.09 322.707c-4.183 25.421-28.185 42.467-53.844 40.068a668.792 668.792 0 00-120.609-.351l-3.883.351c-25.659 2.399-49.661-14.647-53.844-40.068L.626 59.664zm47.12 262.412c3.824 23.239 25.848 39.053 49.646 36.829a672.624 672.624 0 01125.216 0c23.797 2.225 45.822-13.589 49.646-36.829l43.283-263.043c3.842-23.35-11.97-45.311-35.245-48.062a1024.969 1024.969 0 00-240.583 0C16.434 13.721.62 35.682 4.463 59.033l43.283 263.043z" fill="url(#paint1_linear_2352_1881)"/><defs><linearGradient id="paint0_linear_2352_1881" x1="152.928" y1="-14.545" x2="168.306" y2="656.783" gradientUnits="userSpaceOnUse"><stop stop-color="#12121F"/><stop offset="1" stop-color="#870808"/></linearGradient><linearGradient id="paint1_linear_2352_1881" x1="155.052" y1="3.079" x2="148.499" y2="374.258" gradientUnits="userSpaceOnUse"><stop stop-color="#22223A"/><stop offset="1" stop-color="#801B1B"/></linearGradient></defs></svg>