<svg width="24" height="24" fill="none" xmlns="http://www.w3.org/2000/svg"><path d="M24 12c0 6.627-5.373 12-12 12S0 18.627 0 12 5.373 0 12 0s12 5.373 12 12z" fill="url(#paint0_linear_2233_1104)"/><path d="M24 12c0 6.627-5.373 12-12 12S0 18.627 0 12 5.373 0 12 0s12 5.373 12 12z" fill="url(#paint1_linear_2233_1104)"/><path d="M15.793 6.793a1 1 0 111.414 1.414l-9 9a1 1 0 11-1.414-1.414l9-9z" fill="#0C0C1B"/><path d="M8.207 6.793a1 1 0 10-1.414 1.414l9 9a1 1 0 101.414-1.414l-9-9z" fill="#0C0C1B"/><defs><linearGradient id="paint0_linear_2233_1104" x1="12" y1="0" x2="12" y2="24" gradientUnits="userSpaceOnUse"><stop stop-color="#8FFF00"/><stop offset="1" stop-color="#569900"/></linearGradient><linearGradient id="paint1_linear_2233_1104" x1="12" y1="0" x2="12" y2="24" gradientUnits="userSpaceOnUse"><stop stop-color="#8484A7"/><stop offset="1" stop-color="#333341"/></linearGradient></defs></svg>