<svg width="140" height="70" fill="none" xmlns="http://www.w3.org/2000/svg"><path d="M121.059 37.095h-6.137V25.09h-5.909v12.005h-6.136V19.98h18.182v17.115z" fill="#fff"/><path fill-rule="evenodd" clip-rule="evenodd" d="M90.274 37.707c5.493 0 9.573-3.354 9.573-8.439 0-4.922-3.01-8.117-8.04-8.117-2.322 0-4.237.814-5.68 2.218.345-2.902 2.81-5.021 5.522-5.021.627 0 5.34-.01 5.34-.01l2.667-5.08s-5.919.134-8.67.134c-6.287.11-10.533 5.8-10.533 12.71 0 8.053 4.141 11.605 9.821 11.605zm.033-12.056c2.04 0 3.454 1.334 3.454 3.616 0 2.054-1.256 3.747-3.454 3.751-2.101 0-3.515-1.568-3.515-3.716 0-2.282 1.414-3.651 3.515-3.651z" fill="#fff"/><path d="M75.458 31.366s-1.45.831-3.614.989c-2.488.074-4.705-1.492-4.705-4.272 0-2.713 1.956-4.267 4.643-4.267 1.647 0 3.826 1.137 3.826 1.137s1.594-2.914 2.42-4.371c-1.512-1.142-3.527-1.768-5.87-1.768-5.913 0-10.493 3.84-10.493 9.234 0 5.464 4.305 9.214 10.493 9.1 1.73-.063 4.117-.668 5.571-1.599l-2.271-4.183z" fill="#fff"/><path d="M0 15.237l8.512 15.152v9.242L.01 54.753 0 15.237z" fill="#5B57A2"/><path d="M32.684 24.875l7.977-4.868 16.324-.016-24.3 14.825v-9.94z" fill="#D90751"/><path d="M32.64 15.147l.044 20.061-8.532-5.22V0l8.487 15.147z" fill="#FAB718"/><path d="M56.985 19.991l-16.324.016-8.022-4.86L24.152 0l32.833 19.991z" fill="#ED6F26"/><path d="M32.684 54.837v-9.733l-8.532-5.121L24.157 70l8.527-15.163z" fill="#63B22F"/><path d="M40.641 50.013L8.512 30.39 0 15.237l56.95 34.756-16.309.02z" fill="#1487C9"/><path d="M24.157 70l8.527-15.163 7.957-4.824 16.31-.02L24.157 70z" fill="#017F36"/><path d="M.01 54.753l24.212-14.77-8.14-4.973-7.57 4.621L.01 54.753z" fill="#984995"/><path d="M67.14 48.613a1.763 1.763 0 01-.73.54 2.518 2.518 0 01-.955.183c-.326.005-.65-.05-.957-.16a2.065 2.065 0 01-1.222-1.17 2.426 2.426 0 01-.173-.926c0-.316.055-.607.168-.884.108-.277.266-.514.463-.714a2.3 2.3 0 01.7-.48c.272-.116.567-.18.892-.18.35 0 .676.044.972.131.296.088.547.234.754.438l-.36.606a1.691 1.691 0 00-.602-.35 2.125 2.125 0 00-.655-.101 1.52 1.52 0 00-1.05.422 1.534 1.534 0 00-.453 1.116 1.496 1.496 0 00.468 1.121c.143.137.31.238.502.307.193.072.395.106.612.106.266 0 .508-.053.715-.155.204-.099.389-.236.542-.403l.37.553zm1.016.621v-4.32h.779v3.219l2.533-3.218h.78v4.32h-.78v-3.218l-2.533 3.218h-.78zm9.252-.62c-.192.24-.443.425-.73.538a2.522 2.522 0 01-.956.184c-.325.005-.65-.05-.956-.16a2.064 2.064 0 01-1.222-1.17 2.426 2.426 0 01-.173-.926 2.3 2.3 0 01.167-.884c.11-.277.267-.514.464-.714.197-.203.434-.358.7-.48a2.15 2.15 0 01.892-.18c.35 0 .675.044.971.131.296.088.547.234.755.438l-.36.606a1.686 1.686 0 00-.602-.35 2.125 2.125 0 00-.655-.101 1.528 1.528 0 00-1.05.422 1.534 1.534 0 00-.453 1.116 1.527 1.527 0 00.467 1.121 1.4 1.4 0 00.503.307c.192.067.395.106.611.106.267 0 .503-.053.715-.155.205-.099.389-.236.542-.403l.37.553zm.4-3.7h3.997v.768h-1.607v3.552h-.779v-3.552h-1.607v-.767h-.004z" fill="#fff"/><path fill-rule="evenodd" clip-rule="evenodd" d="M85.443 49.191c.296-.092.547-.233.764-.427l-.237-.602a1.828 1.828 0 01-.566.321 2.2 2.2 0 01-.78.13c-.428 0-.783-.11-1.064-.339-.28-.229-.434-.548-.468-.956h3.371c.035-.151.05-.32.05-.52a1.95 1.95 0 00-.163-.805 1.912 1.912 0 00-.434-.627 1.93 1.93 0 00-.65-.402 2.173 2.173 0 00-.794-.146c-.365 0-.685.063-.966.18a2.13 2.13 0 00-.705.48 2.028 2.028 0 00-.439.714 2.482 2.482 0 00-.152.883c0 .34.059.65.167.927.106.269.267.512.474.714.202.198.448.35.739.456.311.11.64.164.971.16.3-.002.597-.05.882-.14zm-1.972-3.325c.242-.218.562-.325.966-.325.38 0 .686.102.908.306.222.204.34.486.36.845h-2.662c.037-.318.19-.612.428-.826z" fill="#fff"/><path d="M87.572 44.915h.71l1.686 2.14 1.597-2.14h.69v4.32h-.778v-3.15l-1.519 2.004h-.03l-1.576-2.005v3.15h-.78v-4.32z" fill="#fff"/><path fill-rule="evenodd" clip-rule="evenodd" d="M94.374 44.93a2.46 2.46 0 00-.67.285l.207.613c.178-.088.355-.16.532-.224.178-.063.405-.093.676-.093.217 0 .39.035.522.103.133.063.232.16.3.277.07.116.115.262.14.431.024.17.034.354.034.554a1.338 1.338 0 00-.533-.219 3.072 3.072 0 00-.561-.058c-.232 0-.45.034-.656.092a1.445 1.445 0 00-.528.262 1.25 1.25 0 00-.345.432c-.087.184-.13.385-.128.588 0 .422.123.752.37.985.246.233.571.35.976.35.364 0 .656-.064.877-.19.222-.126.4-.272.528-.437v.559h.729v-2.65c0-.564-.123-1-.374-1.307-.247-.305-.686-.46-1.306-.46-.277 0-.538.038-.79.106zm1.303 3.5c-.178.125-.41.183-.696.183-.251 0-.448-.063-.586-.184a.638.638 0 01-.207-.495.6.6 0 01.079-.316.718.718 0 01.212-.223.938.938 0 01.3-.131c.114-.03.227-.044.345-.044.385 0 .715.092.986.287v.548a2.24 2.24 0 01-.433.374zm8.044-5.035a1.19 1.19 0 00.443-.373l-.424-.607a.851.851 0 01-.369.301c-.147.057-.299.1-.454.126l-.147.026-.414.072c-.238.043-.47.115-.69.213a2.18 2.18 0 00-.843.611 2.89 2.89 0 00-.494.87 4.555 4.555 0 00-.231 1.004 8.84 8.84 0 00-.059 1.005c0 .413.054.786.162 1.12.109.336.261.617.463.845.203.234.444.409.73.535.286.126.607.189.966.189.331 0 .636-.063.912-.18a2.167 2.167 0 001.174-1.184c.113-.267.167-.554.167-.855 0-.325-.049-.62-.143-.883a1.803 1.803 0 00-1.05-1.112 2.252 2.252 0 00-1.395-.082 2.126 2.126 0 00-.493.209 1.88 1.88 0 00-.409.315 1.431 1.431 0 00-.286.413h-.02c.016-.199.04-.403.084-.611.045-.21.108-.409.193-.598.084-.189.192-.36.325-.514a1.48 1.48 0 01.512-.364c.215-.102.442-.175.676-.218l.155-.028c.154-.028.301-.055.441-.084.188-.039.36-.088.518-.16zm-2.741 4.15a2.4 2.4 0 01-.108-.757 1.22 1.22 0 01.177-.412c.084-.131.192-.247.321-.35a1.627 1.627 0 011.015-.344c.459 0 .804.14 1.045.417.242.282.36.631.36 1.053 0 .21-.04.399-.108.573a1.376 1.376 0 01-.749.772 1.444 1.444 0 01-.587.117 1.357 1.357 0 01-1.065-.496 1.812 1.812 0 01-.301-.572zm9.607-2.63h-.779v4.32h.779v-4.32zm-4.071 0v1.296h.72c.339 0 .615.044.837.126.222.083.4.194.533.33s.226.296.281.475c.054.18.084.364.084.559 0 .194-.03.379-.094.563a1.276 1.276 0 01-.301.49 1.448 1.448 0 01-.562.35 2.5 2.5 0 01-.867.136h-1.415v-4.325h.784zm0 3.601h.567c.389 0 .665-.067.823-.204.158-.136.236-.33.236-.587 0-.262-.083-.46-.241-.597-.163-.136-.434-.204-.808-.204h-.577v1.592z" fill="#fff"/><path d="M115.739 48.613a1.767 1.767 0 01-.73.54 2.52 2.52 0 01-.956.183c-.326.005-.65-.05-.957-.16a2.121 2.121 0 01-.739-.456 2.077 2.077 0 01-.483-.714 2.43 2.43 0 01-.172-.926 2.3 2.3 0 01.167-.884c.109-.277.266-.514.463-.714a2.28 2.28 0 01.7-.48 2.14 2.14 0 01.893-.18c.349 0 .675.044.971.131.296.088.547.234.754.438l-.36.606a1.692 1.692 0 00-.602-.35 2.12 2.12 0 00-.655-.101 1.527 1.527 0 00-1.05.422 1.53 1.53 0 00-.453 1.116 1.523 1.523 0 00.468 1.121c.143.137.31.238.503.307.192.067.394.106.611.106.266 0 .503-.053.715-.155a1.78 1.78 0 00.542-.403l.37.553zm.399-3.698h3.998v.767h-1.608v3.552h-.778v-3.552h-1.607v-.767h-.005z" fill="#fff"/><path fill-rule="evenodd" clip-rule="evenodd" d="M121.762 44.915h-.779v6.242h.779v-2.121c.158.102.345.175.562.223.217.049.443.073.675.073.345 0 .656-.063.937-.18a2.126 2.126 0 001.183-1.228c.108-.286.163-.592.163-.917 0-.32-.05-.616-.143-.884a2.076 2.076 0 00-.404-.688 1.759 1.759 0 00-.637-.452 2.05 2.05 0 00-.843-.165c-.305 0-.591.058-.862.175-.271.117-.483.257-.631.432v-.51zm.543.801a1.54 1.54 0 01.724-.175c.227 0 .429.034.612.107a1.238 1.238 0 01.724.786c.064.185.094.384.094.602 0 .234-.04.442-.108.636a1.404 1.404 0 01-.301.495 1.381 1.381 0 01-.478.325 1.58 1.58 0 01-.636.122c-.212 0-.409-.024-.597-.073a1.949 1.949 0 01-.576-.262v-2.141c.138-.164.32-.305.542-.422zm8.951-.801h-.779v4.32h.779v-4.32zm-4.076 0v1.296h.719c.34 0 .616.044.838.126.222.083.4.194.533.33s.226.296.28.475c.055.18.084.364.084.559 0 .194-.029.379-.093.563a1.276 1.276 0 01-.301.49 1.448 1.448 0 01-.562.35 2.51 2.51 0 01-.868.136h-1.414v-4.325h.784zm.005 3.601h.567c.389 0 .665-.067.823-.204.157-.136.236-.33.236-.587 0-.262-.083-.46-.241-.597-.163-.136-.434-.204-.808-.204h-.577v1.592z" fill="#fff"/><path d="M134.993 46.997l1.666 2.238h-.956l-1.287-1.748-1.307 1.748h-.906l1.656-2.2-1.558-2.12h.957l1.187 1.63 1.208-1.63h.907l-1.567 2.082zm-68.429 7.577h-2.39v3.602h-.78v-4.32h3.949v4.32h-.779v-3.602zm5.2.049h-1.537l-.05.728c-.054.616-.128 1.111-.232 1.49-.103.379-.232.67-.38.873-.147.204-.32.345-.517.413-.204.074-.42.11-.636.107l-.059-.748a.635.635 0 00.29-.063c.11-.048.218-.155.321-.315.104-.165.198-.398.281-.7.084-.305.138-.703.168-1.203l.079-1.345h3.051v4.32h-.779v-3.557z" fill="#fff"/><path fill-rule="evenodd" clip-rule="evenodd" d="M74.643 53.866a2.446 2.446 0 00-.67.286l.207.612c.177-.088.355-.16.532-.224.177-.063.404-.092.675-.092.218 0 .39.034.523.102a.69.69 0 01.3.277c.07.116.114.262.138.431.025.17.035.355.035.554a1.338 1.338 0 00-.532-.218 3.071 3.071 0 00-.562-.059c-.232 0-.449.034-.656.093a1.443 1.443 0 00-.527.262 1.248 1.248 0 00-.346.432c-.086.183-.13.384-.127.587 0 .422.123.753.37.986.245.232.571.349.975.349.365 0 .656-.063.878-.19a1.76 1.76 0 00.527-.437v.559h.73v-2.65c0-.563-.124-1-.375-1.306-.247-.306-.685-.46-1.306-.46a3 3 0 00-.789.106zm1.306 3.499c-.176.126-.408.185-.694.185-.257 0-.449-.063-.587-.185a.638.638 0 01-.207-.495c0-.121.025-.223.08-.315a.71.71 0 01.211-.224.93.93 0 01.3-.131 1.37 1.37 0 01.346-.043c.384 0 .714.092.986.286v.548a2.24 2.24 0 01-.434.374z" fill="#fff"/><path d="M77.876 53.856h3.998v.767h-1.607v3.553h-.779v-3.553h-1.607v-.767h-.005z" fill="#fff"/><path fill-rule="evenodd" clip-rule="evenodd" d="M85.512 58.132a2.03 2.03 0 00.764-.427l-.237-.602a1.822 1.822 0 01-.567.32 2.178 2.178 0 01-.778.131c-.429 0-.784-.111-1.065-.34-.281-.227-.434-.547-.468-.956h3.372c.034-.15.049-.32.049-.519a1.949 1.949 0 00-.597-1.431 1.921 1.921 0 00-.65-.404 2.173 2.173 0 00-.794-.145c-.365 0-.685.063-.966.18a2.12 2.12 0 00-.705.48 2.035 2.035 0 00-.439.713 2.494 2.494 0 00-.153.884c0 .34.06.65.168.927.109.277.27.515.473.714.202.198.449.349.74.456.311.11.64.164.97.16.292 0 .587-.049.883-.141zm-1.976-3.33c.241-.218.562-.325.966-.325.385 0 .685.107.907.306.222.204.34.485.36.845h-2.662c.038-.318.19-.612.429-.826zm3.425-.946h.986l1.503 2.083-1.606 2.237h-.956l1.685-2.238-1.612-2.082zm2.681 0h.78v4.32h-.78v-4.32zm3.564 4.32l-1.715-2.238 1.602-2.083h-.966l-1.513 2.083 1.626 2.238h.966zm3.56-.044a2.03 2.03 0 00.763-.427l-.236-.602a1.826 1.826 0 01-.567.32 2.2 2.2 0 01-.779.131c-.429 0-.784-.111-1.065-.34-.28-.227-.433-.547-.468-.956h3.372c.034-.15.05-.32.05-.519a1.94 1.94 0 00-.164-.805 1.91 1.91 0 00-.433-.626 1.925 1.925 0 00-.65-.404 2.169 2.169 0 00-.795-.145c-.364 0-.684.063-.966.18a2.02 2.02 0 00-1.143 1.194 2.48 2.48 0 00-.153.883c0 .34.06.65.168.927.108.277.27.515.473.714.202.198.448.349.74.456.31.11.64.164.97.16.3-.002.597-.05.883-.141zm-1.977-3.33c.242-.218.563-.325.967-.325.38 0 .684.107.906.306.222.204.34.485.36.845H94.36c.038-.318.19-.612.43-.826zm6.206-2.397c-.458 0-.71-.253-.749-.757h-.734c0 .193.034.368.098.533.064.165.158.306.281.423.123.116.281.209.464.28.182.074.394.108.635.108.222 0 .42-.034.597-.107.178-.068.325-.165.453-.281.123-.117.222-.258.291-.423a1.36 1.36 0 00.104-.533h-.73c-.034.504-.276.757-.71.757zm-2.105 1.45v4.32h.78l2.533-3.218v3.219h.779v-4.32h-.779l-2.534 3.218v-3.218h-.779z" fill="#fff"/></svg>