<svg width="77" height="68" fill="none" xmlns="http://www.w3.org/2000/svg"><path d="M36.566 44.049l-2.852-23.855v-.83h9.49v.83l-2.8 23.855h-3.838zm-2.385 11.616V47.42h8.557v8.245H34.18z" fill="#FF5B5D"/><path d="M32.898 3.012c2.316-4.016 8.11-4.016 10.426 0l32.085 55.65c2.313 4.012-.583 9.024-5.214 9.024v-3.009c2.316 0 3.764-2.506 2.608-4.512L40.718 4.515c-1.158-2.008-4.056-2.008-5.213 0L3.42 60.165c-1.157 2.006.292 4.512 2.607 4.512v3.009l-.43-.015C1.22 67.373-1.426 62.55.814 58.662l32.085-55.65zm37.297 61.665v3.009H6.027v-3.009h64.168z" fill="#FF5B5D"/></svg>