<svg width="273" height="118" fill="none" xmlns="http://www.w3.org/2000/svg"><g filter="url(#a)"><path d="m13.89 58.612 14.49 5.05 34.403-21.583c.5-.313 1.01.382.58.788L37.317 67.47l-.968 13.773c-.074 1.047 1.156 1.63 1.886.894l8.02-8.092 14.66 11.388c1.58 1.228 3.868.363 4.294-1.623l10.208-47.563c.582-2.714-2.008-5.003-4.537-4.01L13.816 54.66c-1.79.703-1.742 3.32.073 3.952Z" fill="#000"/><path d="m13.89 58.612 14.49 5.05 34.403-21.583c.5-.313 1.01.382.58.788L37.317 67.47l-.968 13.773c-.074 1.047 1.156 1.63 1.886.894l8.02-8.092 14.66 11.388c1.58 1.228 3.868.363 4.294-1.623l10.208-47.563c.582-2.714-2.008-5.003-4.537-4.01L13.816 54.66c-1.79.703-1.742 3.32.073 3.952Z" fill="#074ACB"/><path d="M14.218 57.667c-.935-.325-.967-1.711-.037-2.076l57.065-22.424-.366-.93.366.93c1.734-.681 3.62.88 3.193 2.869L64.231 83.599c-.278 1.295-1.729 1.8-2.703 1.044l-14.66-11.389-.7-.543-.624.63-8.02 8.091c-.03.03-.047.033-.05.034a.1.1 0 0 1-.055-.011.13.13 0 0 1-.056-.05c-.008-.013-.02-.039-.017-.093l.941-13.384L64.05 43.594l-.687-.727.687.727c.644-.608.56-1.463.177-1.983-.387-.526-1.201-.864-1.975-.379L28.256 62.56l-14.038-4.893Z" stroke="#1161FA" stroke-width="2"/></g><circle cx="101" cy="59" r="3" fill="#8484A7" fill-opacity=".12"/><circle cx="110" cy="59" r="3" fill="#8484A7" fill-opacity=".5"/><circle cx="119" cy="59" r="3" fill="#8484A7"/><g filter="url(#b)"><path fill-rule="evenodd" clip-rule="evenodd" d="M167.542 86 140 59l36.723-36 18.361 18 18.362-18 36.723 36-27.542 27-9.181-9-18.362 18-18.361-18-9.181 9Zm0-18-9.181-9 18.362-18 18.361 17.25L213.446 41l18.361 18-9.18 9-9.181-9-18.362 18-18.361-18-9.181 9Z" fill="#DDC916"/><path d="m194.384 41.714.7.686.7-.686L213.446 24.4 248.74 59l-26.113 25.6-8.481-8.314-.7-.686-.7.686L195.084 93.6l-17.661-17.314-.7-.686-.7.686-8.481 8.314L141.428 59l35.295-34.6 17.661 17.314Zm-27.542 27 .7.686.7-.686 8.481-8.314 17.661 17.314.7.686.7-.686L213.446 60.4l8.48 8.314.701.686.7-.686 9.18-9 .729-.714-.729-.714-18.361-18-.685-.672-.7.657-17.677 16.607-17.676-16.607-.7-.657-.685.672-18.362 18-.728.714.728.714 9.181 9Z" stroke="#FFE500" stroke-width="2"/></g><defs><filter id="a" x=".5" y="26" width="87" height="78" filterUnits="userSpaceOnUse" color-interpolation-filters="sRGB"><feFlood flood-opacity="0" result="BackgroundImageFix"/><feColorMatrix in="SourceAlpha" values="0 0 0 0 0 0 0 0 0 0 0 0 0 0 0 0 0 0 127 0" result="hardAlpha"/><feOffset dy="6"/><feGaussianBlur stdDeviation="6"/><feComposite in2="hardAlpha" operator="out"/><feColorMatrix values="0 0 0 0 0.112116 0 0 0 0 0.112116 0 0 0 0 0.176676 0 0 0 1 0"/><feBlend in2="BackgroundImageFix" result="effect1_dropShadow_2485_12835"/><feBlend in="SourceGraphic" in2="effect1_dropShadow_2485_12835" result="shape"/></filter><filter id="b" x="117.263" y=".263" width="155.642" height="117.474" filterUnits="userSpaceOnUse" color-interpolation-filters="sRGB"><feFlood flood-opacity="0" result="BackgroundImageFix"/><feColorMatrix in="SourceAlpha" values="0 0 0 0 0 0 0 0 0 0 0 0 0 0 0 0 0 0 127 0" result="hardAlpha"/><feOffset/><feGaussianBlur stdDeviation="11.368"/><feComposite in2="hardAlpha" operator="out"/><feColorMatrix values="0 0 0 0 1 0 0 0 0 0.6 0 0 0 0 0 0 0 0 0.25 0"/><feBlend in2="BackgroundImageFix" result="effect1_dropShadow_2485_12835"/><feBlend in="SourceGraphic" in2="effect1_dropShadow_2485_12835" result="shape"/></filter></defs></svg>