<svg width="545" height="110" fill="none" xmlns="http://www.w3.org/2000/svg"><path d="M488.541 107.211V1.955h20.75c21.052 0 35.336 11.127 35.336 35.937v1.203c0 25.412-16.69 35.937-33.08 36.389h-.602v31.727h-22.404zm22.404-51.726h.301c6.466-.451 10.977-4.812 10.977-15.788v-1.805c0-11.428-4.361-15.939-10.826-15.939h-.452v33.532zm-60.329 53.68c-19.247 0-31.126-16.991-31.126-51.274v-6.616C419.49 16.99 431.519 0 450.616 0c18.796 0 30.975 16.991 30.975 51.275v6.616c0 34.283-11.879 51.274-30.975 51.274zm0-20.9c4.962 0 7.969-5.414 7.969-30.224v-7.067c0-24.66-3.007-30.224-7.969-30.224-4.812 0-8.12 5.564-8.12 30.224v7.067c0 24.81 3.308 30.224 8.12 30.224zm-93.204 18.946V1.955h22.555c10.676 0 19.698 2.706 25.863 8.871 5.563 5.865 8.871 13.834 8.871 25.262v1.503c0 14.435-5.563 22.706-12.33 27.968l13.984 41.652h-24.058l-10.676-34.284h-1.804v34.284h-22.405zm22.405-53.23h.751c6.466 0 11.127-4.06 11.127-14.886V36.84c0-11.278-4.811-14.736-11.277-14.736h-.601V53.98zm-89.659 53.23V1.955h21.051c25.713 0 39.246 17.141 39.246 50.072v5.112c0 32.93-13.533 50.072-39.246 50.072h-21.051zm37.291-49.922v-5.413c0-23.306-6.466-29.17-14.736-29.17V86.46c8.27 0 14.736-6.315 14.736-29.17zm-60.188 51.124c-18.645 0-33.231-15.638-33.231-51.124v-5.263c0-36.99 16.39-51.274 34.735-51.274 5.864 0 9.473.902 13.683 2.857v22.705c-4.06-2.406-7.368-3.76-11.428-3.76-7.668 0-13.984 6.316-13.984 30.074v3.91c0 24.81 6.165 29.922 14.135 29.922 3.608 0 7.367-1.353 11.728-3.759v21.653c-4.661 2.857-9.022 4.059-15.638 4.059zm-62.851-1.202V1.955h22.555V107.21H204.41zm-30.925 1.503c-19.848 0-35.636-15.638-35.636-51.124v-6.015c0-33.832 16.239-51.124 37.591-51.124 7.368 0 12.48 1.504 17.142 3.91v22.855c-4.962-3.158-10.075-5.263-15.338-5.263-9.773 0-16.389 8.571-16.389 29.02v7.218c0 24.36 7.067 29.923 13.081 29.923.752 0 1.203-.15 1.805-.3V65.408h-7.97V45.561h28.419V102.7c-7.067 3.458-14.284 6.014-22.705 6.014zm-101.499-1.503L92.136 1.654h25.862l19.999 105.557h-22.555l-2.857-18.947H96.797l-2.857 18.947H71.986zm27.668-38.193h10.074l-4.962-33.08-5.112 33.08zM0 107.211V1.955h21.803l12.48 35.185 12.33-35.185h21.954V107.21H46.764V50.824l-12.33 34.433h-.301l-12.48-34.434v56.388H0z" fill="#fff"/></svg>