<svg width="533" height="348" fill="none" xmlns="http://www.w3.org/2000/svg"><path d="M269.038 347.786c-4.362-1.013-5.375-2.387-8.687-11.725-7.462-21.075-10.252-29.969-9.754-31.096.378-.84.036-2.681-1.146-6.196l-1.685-5.008 6.688-6.435c18.591-17.902 30.079-37.244 40.787-68.659 1.433-4.204 2.741-7.647 2.909-7.647.168-.006.768 4.187 1.332 9.314l1.032 9.32-1.77 4.457c-2.298 5.781-8.95 19.036-12.46 24.835-7.156 11.809-15.603 22.053-23.533 28.536-4.817 3.94-4.691 3.299-2.076 10.496 1.116 3.082 2.268 5.067 3.653 6.297 1.764 1.571 2.7 3.76 7.469 17.392 8.512 24.35 8.464 24.182 7.001 25.334-1.002.791-7.493 1.313-9.76.785zm12.051-6.963c-.258-.641-1.895-5.211-3.629-10.159a5453.141 5453.141 0 00-6.305-17.873L268 303.909l5.849-5.77c10.516-10.375 19.364-22.118 26.695-35.415 1.481-2.692 2.903-4.899 3.149-4.911.246-.012.45.857.456 1.931.018 5.403 6.839 13.782 13.995 17.194 2.13 1.02 4.307 1.848 4.847 1.848 2.022 0 1.572 1.961-2.003 8.702-10.132 19.114-20.984 34.467-35.592 50.337-3.371 3.67-3.887 4.024-4.307 2.998zm240.135-38.845c2.508-1.907 4.523-4.816 5.489-7.923 1.032-3.322 1.386-28.872.714-51.254-.564-18.694-.696-19.696-3.419-25.999-.45-1.044-.378-1.056 1.253-.21 2.394 1.247 4.194 3.293 5.393 6.123 1.224 2.897 1.884 18.161 2.16 49.773l.186 20.991-1.8 3.593c-2.099 4.192-4.109 5.584-8.788 6.093l-3.209.354 2.021-1.541zm-9.82.372c-5.087-1.26-6.599-2.573-24.571-21.333-9.868-10.298-24.164-24.932-31.776-32.519-12.424-12.384-14.974-14.609-24.938-21.758-13.533-9.71-13.473-9.662-13.155-9.938.144-.12 2.747-.828 5.783-1.565 3.041-.744 5.873-1.764 6.299-2.273.569-.69.851-5.224 1.073-17.405l.3-16.469 8.399 6.357a3475.08 3475.08 0 0113.161 10.016c3.869 2.969 5.051 3.586 6.299 3.287.846-.204 2.64-.522 3.995-.714 2.514-.36 2.448-.378 45.532 12.78 6.209 1.896 11.35 3.815 12.099 4.511.72.659 2.04 3.136 2.934 5.493l1.632 4.288.617 26.989c.708 30.929.282 39.919-2.093 44.207-2.142 3.881-8.003 6.933-11.59 6.046zm-247.07-1.824c-.462-.905-1.325-3.196-1.919-5.091l-1.08-3.443 3.617-3.275c4.781-4.33 10.342-10.123 13.258-13.83 6.599-8.378 14.121-21.021 19.622-32.986 1.824-3.958 3.342-7.059 3.378-6.897.035.168.539 4.216 1.115 8.996l1.05 8.697-4.391 7.934c-5.309 9.59-9.874 16.445-16.323 24.512-4.571 5.716-15.843 17.033-16.965 17.033-.282 0-.894-.744-1.362-1.65zm126.193-5.043c-3.654-1.026-3.894-1.59-3.966-9.374-.048-4.846-.659-10.55-1.979-18.419a6325.857 6325.857 0 01-4.235-25.615c-1.278-7.826-2.514-14.538-2.754-14.921-.282-.462-1.536-.582-3.755-.354-2.766.288-4.451-.018-9.964-1.782-3.654-1.169-6.953-2.435-7.337-2.818-.39-.378-1.416-6.736-2.285-14.118-.87-7.383-1.836-14.784-2.154-16.439-.312-1.656-.45-3.131-.306-3.275.504-.504 6.641 1.775 7.541 2.795.785.893.809 2.273.18 10.885-.396 5.428-.894 10.814-1.098 11.965-.312 1.715-.12 2.339 1.02 3.413 2.087 1.955 12.213 5.655 16.496 6.021 3.372.288 3.828.186 5.214-1.199 1.913-1.914 3.185-6.454 3.695-13.243.45-5.919 1.41-7.587 4.379-7.587 1.914 0 22.742 6.915 24.019 7.977 1.152.954.6 8.109-1.157 15.048l-1.35 5.331 1.344 8.763c.738 4.822 2.537 16.019 3.995 24.883 3.077 18.706 3.275 22.659 1.296 25.597-1.92 2.849-5.549 5.182-9.718 6.25-3.996 1.019-13.81 1.145-17.121.216zm-64.152-18.551c-4.331-.851-10.906-4.312-13.93-7.328-4.637-4.642-5.171-6.358-7.108-22.731-6.803-57.545-6.773-57.168-4.787-61.054 1.703-3.341 4.529-6.387 7.594-8.181 3.599-2.111 9.304-3.808 12.796-3.808 2.867 0 2.891.018 2.453 1.649-.378 1.41-.839 1.704-3.239 2.046-7.265 1.043-12.886 4.588-15.363 9.697-1.584 3.275-1.566 4.762.24 20.296.816 7.035 2.441 21.021 3.605 31.085 1.164 10.063 2.28 19.102 2.484 20.091 1.229 6.052 7.468 11.899 14.763 13.836 9.76 2.603 20.216-.36 25.105-7.113 3.132-4.318 3.162-5.122.852-24.493a13522.47 13522.47 0 01-3.611-30.509 7096.912 7096.912 0 00-1.872-15.894c-.9-7.407-6.275-13.056-15.273-16.061-.69-.234-.876-.846-.678-2.195.324-2.201.726-2.159 6.629.666 5.021 2.405 9.808 7.203 11.368 11.395.654 1.757 1.499 6.027 1.883 9.494.726 6.567 2.334 20.247 5.423 46.222 1.704 14.298 1.764 15.54.93 18.353-3.179 10.693-16.713 17.194-30.264 14.537zm1.212-35.63c-1.746-2.148-3.39-3.899-3.66-3.899s-1.086.966-1.817 2.141c-.726 1.182-1.506 1.925-1.734 1.65-.228-.27-2.412-2.789-4.859-5.59-2.442-2.801-4.817-5.56-5.279-6.123-.75-.918-.21-1.992 4.973-9.83 3.191-4.834 6.011-8.559 6.263-8.265.246.288 1.745 2.081 3.329 3.977 1.584 1.895 3.089 3.448 3.335 3.448.252 0 1.602-1.751 3-3.898 1.398-2.147 2.633-3.899 2.753-3.899.114 0 3.486 3.917 7.487 8.697l7.277 8.696-3.738 5.848c-2.051 3.214-3.845 5.973-3.989 6.129-.138.156-.936-.588-1.77-1.649-.827-1.062-1.697-1.932-1.925-1.932-.234 0-1.584 1.89-3.012 4.199-1.427 2.309-2.789 4.198-3.029 4.198-.246 0-1.866-1.751-3.605-3.898zm5.926-9.392l2.652-4.301 1.926 2.231 1.931 2.231.954-1.367c1.476-2.099 1.188-2.903-2.544-7.029l-3.467-3.832-5.759 8.066-7.384-8.066-2.142 3.232c-3.743 5.644-3.731 5.608-1.986 7.689.852 1.014 1.74 1.841 1.962 1.841.228 0 .918-.947 1.542-2.099.624-1.151 1.325-2.099 1.565-2.099.234 0 1.968 1.751 3.852 3.898 1.883 2.147 3.611 3.899 3.833 3.899.228 0 1.608-1.931 3.065-4.294zm33.618-13.981c0-.155.846-1.481 1.878-2.944 2.387-3.389 3.035-9.404 1.499-13.908-.533-1.572-.905-2.927-.827-2.999.552-.528 2.417-.42 5.399.3l3.449.833v3.395c0 6.729-3.191 12.942-7.583 14.778-1.961.821-3.815 1.085-3.815.545zm36.293-14.735a16413.552 16413.552 0 00-28.494-9.932c-24.872-8.594-24.704-8.522-27.499-11.695-3.348-3.803-6.731-6.1-12.202-8.301-4.979-2.003-4.349-.503-4.883-11.623-.138-2.909-.528-5.565-.864-5.901-.342-.342-.486-1.602-.324-2.807.156-1.206-.114-3.359-.606-4.774-.612-1.757-.672-2.495-.204-2.321.378.138 22.892 7.629 50.031 16.649l49.341 16.391-.006 12.019c-.006 13.716-.462 20.127-1.428 20.085-.366-.018-10.654-3.52-22.862-7.79zm-15.633-16.115l1.482-2.346 3.779 1.182c2.076.648 5.621 1.691 7.877 2.321l4.097 1.14 1.452-1.446c.906-.911 1.445-2.141 1.445-3.31 0-2.873-1.211-7.017-2.351-8.049-.972-.876-49.647-17.135-51.302-17.135-1.176 0-3.864 2.309-5.801 4.984-1.44 1.991-1.734 2.987-1.734 5.902 0 2.71.276 3.784 1.2 4.708 1.487 1.487 2.141 1.487 12.711-.036l8.573-1.236 1.056 1.302c.773.953 1.055 2.381 1.055 5.343 0 4.99.516 5.542 6.965 7.479 6.893 2.069 7.727 1.997 9.496-.803zm-64.818 2.368c-1.871-.773-3.833-3.55-3.833-5.421 0-2.153 2.124-4.798 3.857-4.798 1.128 0 1.464-.45 1.908-2.549.462-2.177.762-2.549 2.034-2.549 1.433 0 1.499.162 1.499 3.598 0 1.98.336 4.187.75 4.906 1.104 1.932.918 3.533-.6 5.236-1.535 1.721-3.761 2.345-5.615 1.577zm3.99-3.67c.366-.684.51-1.661.312-2.171-.282-.744-.594-.618-1.59.648-.678.863-1.77 1.571-2.424 1.571-.654 0-1.025.27-.821.6.695 1.121 3.815.677 4.523-.648zm-33.366-11.467c-5.255-1.961-11.848-4.378-14.649-5.374-5.141-1.829-7.091-2.903-5.279-2.903 2.375 0 9.838-3.082 11.505-4.75 1.692-1.691 1.818-2.153 2.244-8.264.246-3.563.468-9.68.492-13.59.024-5.422.216-7.041.786-6.831.414.15 5.069 1.697 10.348 3.436 5.279 1.745 10.048 3.563 10.6 4.042.702.606.912 1.446.696 2.789-.348 2.117.75 6.975 1.565 6.975.288 0 .384 1.02.216 2.261-.162 1.242.03 3.467.438 4.948.408 1.476.804 4.21.882 6.076.084 1.865.546 3.958 1.038 4.66 1.632 2.327.714 3.946-2.879 5.08-1.782.563-4.41 1.913-5.843 3.01l-2.61 1.991-9.55-3.556zm106.828-7.095a19788.791 19788.791 0 00-49.941-16.541c-22.508-7.407-22.945-7.581-22.951-9.14 0-.876-.402-2.363-.9-3.305-.492-.947-.894-2.459-.894-3.364 0-2.04-1.104-5.404-2.184-6.664-.45-.521-.816-1.679-.816-2.578 0-1.854-1.265-4.583-2.657-5.74-.522-.426-.942-1.403-.942-2.165v-1.392l4.349 1.506c2.394.833 19.065 6.507 37.043 12.618 17.979 6.106 35.07 11.917 37.967 12.913 7.235 2.477 10.294 4.678 14.008 10.082 1.697 2.477 4.757 5.955 6.796 7.724 2.034 1.77 4.314 4.199 5.063 5.392 1.506 2.387 3.57 8.139 3.252 9.056-.108.324-12.346-3.46-27.193-8.402zm-74.86 4.444c-.234-.234-.426-1.715-.426-3.287 0-2.375.21-2.926 1.26-3.256 1.847-.588 2.435.384 2.225 3.682-.156 2.423-.402 2.963-1.409 3.107-.672.096-1.416-.012-1.65-.246zm-8.824-.762c0-.701 1.751-1.367 2.453-.929 1.056.653.528 1.463-.954 1.463-.828 0-1.499-.24-1.499-.534zm4.769-1.115c-.6-.696-.834-1.961-.69-3.749.114-1.487-.12-3.508-.522-4.498-.402-.989-.768-3.418-.822-5.397-.048-1.98-.444-4.247-.882-5.032-.936-1.71-1.224-8.469-.354-8.457 1.95.036 3.75 3.311 3.45 6.292-.132 1.319.078 3.208.474 4.198.395.989.797 3.418.899 5.398.096 1.979.252 4.138.336 4.798.3 2.321-.066 7.496-.528 7.496-.258 0-.869-.473-1.361-1.049zm-5.213-2.699c-.702-.888-1.308-4.63-.924-5.698.408-1.145 2.447-.893 3.131.384.774 1.446 1.008 4.384.42 5.332-.588.948-1.877.936-2.627-.018zm-62.461-1.104c-3.101-.947-6.064-3.166-9.76-7.31-5.273-5.914-8.29-7.587-27.217-15.102-37.991-15.084-42.28-16.829-42.286-17.219-.006-.222.798-.582 1.776-.791 3.167-.696 7.57-5.32 10.192-10.706 2.622-5.38 3.623-10.639 3.623-19.03 0-2.615.204-4.756.45-4.756.246 0 2.88.822 5.849 1.823 4.445 1.506 5.609 2.16 6.599 3.73 1.02 1.62 2.1 2.196 7.199 3.833 6.508 2.087 8.728 2.375 10.39 1.338.857-.534 2.531-.162 8.242 1.847 5.981 2.099 7.361 2.819 8.362 4.36 1.014 1.559 2.19 2.165 7.499 3.844 6.953 2.195 7.907 2.333 9.508 1.332.888-.552 3.846.234 15.843 4.234 8.117 2.705 15.064 5.29 15.435 5.74 1.074 1.289-.36 33.717-1.571 35.577-2.628 4.054-23.87 9.17-30.133 7.256zm71.339-3.802c-.39-.468-.624-2.021-.522-3.448.168-2.304.348-2.591 1.662-2.591 1.194 0 1.56.395 1.937 2.099.636 2.849.126 4.798-1.253 4.798-.612 0-1.434-.384-1.824-.858zm-10.672-4.39c-.222-.576-.42-2.261-.432-3.749-.03-2.482.09-2.698 1.464-2.698 1.308 0 1.56.353 2.015 2.848.288 1.566.366 3.251.174 3.749-.474 1.235-2.729 1.133-3.221-.15zm9.394-5.362c-.342-.893-.534-2.441-.438-3.448.15-1.512.444-1.836 1.68-1.836 1.272 0 1.572.378 2.028 2.513.642 3.059.21 4.384-1.422 4.384-.792 0-1.458-.581-1.848-1.613zm-10.732-4.342c-1.116-2.075-1.05-5.488.108-6.243 1.608-1.044 2.514.36 2.544 3.94.018 2.465-.192 3.173-.984 3.329-.558.114-1.308-.348-1.668-1.026zm9.652-3.245c-.365-.443-.737-2.129-.821-3.748-.138-2.651-.024-2.963 1.193-3.137.96-.138 1.494.21 1.86 1.2 1.206 3.256 1.29 4.606.348 5.547-1.152 1.152-1.71 1.182-2.58.138zm-11.115-5.385c-.522-.39-1.122-1.962-1.332-3.491-.336-2.519-.246-2.831.96-3.208 1.643-.522 2.129-.042 2.921 2.884.924 3.437-.396 5.416-2.549 3.815zm6.148.389c-.582-.155-1.157-1.175-1.403-2.476-.228-1.224-.84-3.167-1.356-4.319-.516-1.151-.876-2.351-.81-2.651.306-1.319-.708-5.103-1.866-6.993-.695-1.127-1.319-2.788-1.397-3.688l-.132-1.637 1.727 1.853c.948 1.014 1.728 2.393 1.728 3.053 0 .665.654 2.459 1.452 3.982.798 1.529 1.769 4.186 2.153 5.901.384 1.716 1.044 3.407 1.464 3.755.738.612.576 3.694-.192 3.55a25.666 25.666 0 01-1.368-.33zm-19.694-6.687l-9.892-3.406.186-2.795c.114-1.739-.192-3.515-.798-4.696-1.548-2.993-.63-3.527 5.411-3.155l5.081.318v-7.485l2.058 1.71c1.127.941 2.075 2.177 2.099 2.74.054 1.374 2.55 6.466 3.162 6.466.264 0 .48.767.48 1.709 0 1.895 1.043 5.368 1.967 6.549.606.774.984 5.572.432 5.494-.168-.024-4.751-1.577-10.186-3.449zm22.172 1.368c-1.314-3.467-1.332-4.354-.084-5.026.936-.498 1.422-.438 2.13.27 1.049 1.049 1.877 4.684 1.289 5.643-.744 1.206-2.735.678-3.335-.887zm-11.752-6.034c-1.254-3.01-.912-4.738.942-4.738 1.23 0 1.602.444 2.255 2.699.918 3.173.666 4.198-1.043 4.198-.87 0-1.524-.659-2.154-2.159zm8.435-2.92c-1.128-2.705-1.104-4.301.084-4.756 1.361-.522 2.021.054 3.269 2.842.798 1.776.924 2.675.468 3.227-1.206 1.451-2.91.864-3.821-1.313zm-148.581-2.238c-2.033-.539-4.901-3.064-6.286-5.541-.306-.552-5.651-2.543-13.096-4.882-39.407-12.367-38.897-12.223-39.856-11.395-1.632 1.403-4.116 1.583-8.111.582-4.013-1.008-4.085-1.08-4.625-4.684-.144-.948-2.364-1.836-12.172-4.865-6.599-2.039-19.04-5.907-27.655-8.594-8.608-2.687-16.418-4.882-17.354-4.882-2.808 0-8.393-1.811-10.096-3.274-.876-.756-2.61-1.536-3.852-1.734-3.605-.575-4.48-1.559-4.799-5.397-.276-3.305-.24-3.389 1.248-3.389.84 0 2.37-.708 3.401-1.577 4.212-3.539 5.91-10.478 3.756-15.342-1.068-2.417-1.56-2.849-4.29-3.754l-3.077-1.026.318-2.795c1.056-9.284 2.19-27.93 1.883-30.982-.383-3.905.259-5.896 2.352-7.275 1.062-.696 1.542-.636 3.515.42 1.26.677 2.328 1.145 2.376 1.043C33.462.833 34.086.192 35.82.018c2.35-.228 6.412 1.781 7.768 3.844.876 1.338.93 2.177.39 6.435-.678 5.392-1.146 3.03 4.943 24.992 1.236 4.45 2.681 10.795 3.21 14.094l.971 5.997 23.99 7.929c21.038 6.951 24.247 7.863 26.089 7.4 1.157-.293 3.929-.713 6.16-.929 5.088-.504 7.127-2.045 8.579-6.471 1.458-4.462 2.885-7.083 4.907-9.002 3.347-3.173 4.073-3.047 27.109 4.678l21.014 7.047 2.969-1.278c3.546-1.523 4.679-1.577 7.757-.342 1.782.708 2.735 1.662 4.001 3.995 2.226 4.09 2.604 8.54 2.058 24.457-.48 13.879-1.17 17.519-4.367 22.971-2.052 3.496-5.795 6.795-8.609 7.574-2.657.738-3.299.726-6.329-.078zm-9.076-14.471c-.882-2.099-.9-2.111-15.825-6.939-12.574-4.067-15.249-4.75-16.827-4.295-1.517.438-3.227.102-8.794-1.703-6.551-2.129-6.935-2.183-7.277-1.11-.198.63-.264 1.236-.144 1.356.174.174 18.915 6.129 45.184 14.346 2.309.726 4.283 1.121 4.379.888.102-.24-.216-1.38-.696-2.543zM96.582 89.59v-2.081l-7.349-2.357a6422.786 6422.786 0 01-24.05-7.809l-16.7-5.446-2.34 1.338c-2.783 1.589-2.903 2.02-.702 2.507.906.204 12.448 3.844 25.646 8.096 13.197 4.246 24.331 7.749 24.745 7.779.468.03.75-.738.75-2.027zm65.838-.318c4.637-2.825 1.019-5.206-16.947-11.125-9.371-3.09-13.414-4.175-13.948-3.743-1.091.894-.917 4.33.3 5.824.726.893 5.147 2.663 14.248 5.71 7.258 2.434 13.467 4.443 13.797 4.473.33.024 1.476-.485 2.55-1.14zM41.992 45.292c0-.977-1.536-6.459-2.747-9.793-.924-2.55-3.486-4.307-5.267-3.623-1.344.516-1.944 9.068-.762 10.874 1.487 2.273 8.776 4.384 8.776 2.542zm263.363 73.985c-1.458-2.861-1.524-3.976-.258-4.462 1.32-.504 1.877-.048 3.293 2.735 1.386 2.711 1.176 4.102-.618 4.102-.798 0-1.613-.797-2.417-2.375zm7.504-1.691c-1.745-2.633-1.529-4.504.486-4.21 1.44.204 4.121 3.862 3.858 5.247-.096.51-.762 1.014-1.482 1.116-.966.138-1.722-.432-2.862-2.153zm-40.81-2.243c-6.269-2.123-11.44-3.868-11.494-3.874-.048-.006-.186-3.857-.3-8.559-.198-8.282-.264-8.654-2.099-12-1.872-3.413-1.878-3.467-.66-4.121.678-.36 2.603-.528 4.277-.366 2.075.198 3.473.018 4.373-.576 1.458-.953 3.383-.347 3.995 1.26.186.48 1.56 1.415 3.06 2.075 2.165.96 2.927 1.703 3.701 3.634.762 1.914 1.692 2.837 4.355 4.343 1.866 1.05 4.469 2.638 5.795 3.532 1.32.894 3.611 2.033 5.099 2.537 2.424.816 2.736 1.14 3.108 3.221.228 1.271.432 4.168.45 6.447l.036 4.132-4.26-.354c-3.953-.336-4.355-.258-5.723 1.11-.809.809-1.661 1.457-1.895 1.445-.228-.012-5.549-1.763-11.818-3.886zm28.615-3.467c-2.358-2.429-2.58-4.618-.474-4.618 1.469 0 4.553 2.999 4.553 4.426 0 .762-1.17 2.172-1.8 2.172-.204 0-1.23-.888-2.279-1.98zm7.306.828c-2.375-1.445-3.317-2.717-2.873-3.868.498-1.302 1.547-1.23 4.109.282 1.464.857 2.136 1.691 2.136 2.632 0 1.866-1.284 2.225-3.372.954zm-52.868-2.843c-.414-.168-.75-.642-.75-1.049 0-1.476-2.807-3.203-8.806-5.416-5.897-2.177-6.161-2.219-7.799-1.266-1.631.954-1.949.906-8.704-1.289-6.209-2.015-7.175-2.519-8.41-4.36-1.248-1.86-2.154-2.321-8.561-4.336-6.707-2.111-7.252-2.195-8.596-1.314-1.596 1.05-3.827.696-9.862-1.56l-3.15-1.175.198-4.114c.27-5.74-.762-12.33-2.465-15.785-.888-1.787-1.176-2.92-.75-2.92 2.531 0 56.617 18.321 63.144 21.386 5.603 2.639 7.361 6.64 7.361 16.775 0 6.111-.108 6.813-1.05 6.771-.576-.024-1.386-.18-1.8-.348zm30.948-12.409c-8.848-5.361-9.034-5.961-2.351-7.652 4.163-1.056 4.529-1.068 5.561-.132.606.551 1.271 2.057 1.481 3.346.456 2.85 1.188 3.209 4.11 1.986 4.385-1.836 5.819-1.116 4.529 2.266-.432 1.14-1.23 1.626-3.45 2.1-1.589.341-3.293.755-3.785.923-.498.168-3.239-1.11-6.095-2.837zM10.882 60.455C1.182 57.365 0 56.778 0 55.086c0-2.692 7.997-10.225 11.89-11.203.828-.21 4.151.468 8.014 1.637 5.465 1.644 6.701 2.231 7.15 3.413.805 2.117.655 7.113-.275 9.344-.948 2.255-4.205 5.218-5.681 5.158-.552-.024-5.147-1.362-10.216-2.98zm-3.803-9.692c.923-.923.935-2.453.024-2.147-.384.126-1.092.828-1.578 1.547-.75 1.134-.75 1.32-.018 1.32.468 0 1.176-.324 1.572-.72zm371.75 134.829l-4.799-1.337-.156-5.662c-.234-8.132.252-7.905-13.078-6.081-10.396 1.421-10.696 1.433-11.512.342-1.781-2.375-.024-7.317 3.546-9.98l1.518-1.134 24.535 7.923c13.497 4.36 24.931 8.282 25.399 8.726 1.056.984 1.656 7.713.738 8.277-.354.216-4.019-.708-8.152-2.051-8.279-2.693-9.191-2.639-10.528.587-.888 2.141-1.194 2.153-7.511.39z" fill="#000"/><path d="M269.038 347.786c-4.362-1.013-5.375-2.387-8.687-11.725-7.462-21.075-10.252-29.969-9.754-31.096.378-.84.036-2.681-1.146-6.196l-1.685-5.008 6.688-6.435c18.591-17.902 30.079-37.244 40.787-68.659 1.433-4.204 2.741-7.647 2.909-7.647.168-.006.768 4.187 1.332 9.314l1.032 9.32-1.77 4.457c-2.298 5.781-8.95 19.036-12.46 24.835-7.156 11.809-15.603 22.053-23.533 28.536-4.817 3.94-4.691 3.299-2.076 10.496 1.116 3.082 2.268 5.067 3.653 6.297 1.764 1.571 2.7 3.76 7.469 17.392 8.512 24.35 8.464 24.182 7.001 25.334-1.002.791-7.493 1.313-9.76.785zm12.051-6.963c-.258-.641-1.895-5.211-3.629-10.159a5453.141 5453.141 0 00-6.305-17.873L268 303.909l5.849-5.77c10.516-10.375 19.364-22.118 26.695-35.415 1.481-2.692 2.903-4.899 3.149-4.911.246-.012.45.857.456 1.931.018 5.403 6.839 13.782 13.995 17.194 2.13 1.02 4.307 1.848 4.847 1.848 2.022 0 1.572 1.961-2.003 8.702-10.132 19.114-20.984 34.467-35.592 50.337-3.371 3.67-3.887 4.024-4.307 2.998zm240.135-38.845c2.508-1.907 4.523-4.816 5.489-7.923 1.032-3.322 1.386-28.872.714-51.254-.564-18.694-.696-19.696-3.419-25.999-.45-1.044-.378-1.056 1.253-.21 2.394 1.247 4.194 3.293 5.393 6.123 1.224 2.897 1.884 18.161 2.16 49.773l.186 20.991-1.8 3.593c-2.099 4.192-4.109 5.584-8.788 6.093l-3.209.354 2.021-1.541zm-9.82.372c-5.087-1.26-6.599-2.573-24.571-21.333-9.868-10.298-24.164-24.932-31.776-32.519-12.424-12.384-14.974-14.609-24.938-21.758-13.533-9.71-13.473-9.662-13.155-9.938.144-.12 2.747-.828 5.783-1.565 3.041-.744 5.873-1.764 6.299-2.273.569-.69.851-5.224 1.073-17.405l.3-16.469 8.399 6.357a3475.08 3475.08 0 0113.161 10.016c3.869 2.969 5.051 3.586 6.299 3.287.846-.204 2.64-.522 3.995-.714 2.514-.36 2.448-.378 45.532 12.78 6.209 1.896 11.35 3.815 12.099 4.511.72.659 2.04 3.136 2.934 5.493l1.632 4.288.617 26.989c.708 30.929.282 39.919-2.093 44.207-2.142 3.881-8.003 6.933-11.59 6.046zm-247.07-1.824c-.462-.905-1.325-3.196-1.919-5.091l-1.08-3.443 3.617-3.275c4.781-4.33 10.342-10.123 13.258-13.83 6.599-8.378 14.121-21.021 19.622-32.986 1.824-3.958 3.342-7.059 3.378-6.897.035.168.539 4.216 1.115 8.996l1.05 8.697-4.391 7.934c-5.309 9.59-9.874 16.445-16.323 24.512-4.571 5.716-15.843 17.033-16.965 17.033-.282 0-.894-.744-1.362-1.65zm126.193-5.043c-3.654-1.026-3.894-1.59-3.966-9.374-.048-4.846-.659-10.55-1.979-18.419a6325.857 6325.857 0 01-4.235-25.615c-1.278-7.826-2.514-14.538-2.754-14.921-.282-.462-1.536-.582-3.755-.354-2.766.288-4.451-.018-9.964-1.782-3.654-1.169-6.953-2.435-7.337-2.818-.39-.378-1.416-6.736-2.285-14.118-.87-7.383-1.836-14.784-2.154-16.439-.312-1.656-.45-3.131-.306-3.275.504-.504 6.641 1.775 7.541 2.795.785.893.809 2.273.18 10.885-.396 5.428-.894 10.814-1.098 11.965-.312 1.715-.12 2.339 1.02 3.413 2.087 1.955 12.213 5.655 16.496 6.021 3.372.288 3.828.186 5.214-1.199 1.913-1.914 3.185-6.454 3.695-13.243.45-5.919 1.41-7.587 4.379-7.587 1.914 0 22.742 6.915 24.019 7.977 1.152.954.6 8.109-1.157 15.048l-1.35 5.331 1.344 8.763c.738 4.822 2.537 16.019 3.995 24.883 3.077 18.706 3.275 22.659 1.296 25.597-1.92 2.849-5.549 5.182-9.718 6.25-3.996 1.019-13.81 1.145-17.121.216zm-64.152-18.551c-4.331-.851-10.906-4.312-13.93-7.328-4.637-4.642-5.171-6.358-7.108-22.731-6.803-57.545-6.773-57.168-4.787-61.054 1.703-3.341 4.529-6.387 7.594-8.181 3.599-2.111 9.304-3.808 12.796-3.808 2.867 0 2.891.018 2.453 1.649-.378 1.41-.839 1.704-3.239 2.046-7.265 1.043-12.886 4.588-15.363 9.697-1.584 3.275-1.566 4.762.24 20.296.816 7.035 2.441 21.021 3.605 31.085 1.164 10.063 2.28 19.102 2.484 20.091 1.229 6.052 7.468 11.899 14.763 13.836 9.76 2.603 20.216-.36 25.105-7.113 3.132-4.318 3.162-5.122.852-24.493a13522.47 13522.47 0 01-3.611-30.509 7096.912 7096.912 0 00-1.872-15.894c-.9-7.407-6.275-13.056-15.273-16.061-.69-.234-.876-.846-.678-2.195.324-2.201.726-2.159 6.629.666 5.021 2.405 9.808 7.203 11.368 11.395.654 1.757 1.499 6.027 1.883 9.494.726 6.567 2.334 20.247 5.423 46.222 1.704 14.298 1.764 15.54.93 18.353-3.179 10.693-16.713 17.194-30.264 14.537zm1.212-35.63c-1.746-2.148-3.39-3.899-3.66-3.899s-1.086.966-1.817 2.141c-.726 1.182-1.506 1.925-1.734 1.65-.228-.27-2.412-2.789-4.859-5.59-2.442-2.801-4.817-5.56-5.279-6.123-.75-.918-.21-1.992 4.973-9.83 3.191-4.834 6.011-8.559 6.263-8.265.246.288 1.745 2.081 3.329 3.977 1.584 1.895 3.089 3.448 3.335 3.448.252 0 1.602-1.751 3-3.898 1.398-2.147 2.633-3.899 2.753-3.899.114 0 3.486 3.917 7.487 8.697l7.277 8.696-3.738 5.848c-2.051 3.214-3.845 5.973-3.989 6.129-.138.156-.936-.588-1.77-1.649-.827-1.062-1.697-1.932-1.925-1.932-.234 0-1.584 1.89-3.012 4.199-1.427 2.309-2.789 4.198-3.029 4.198-.246 0-1.866-1.751-3.605-3.898zm5.926-9.392l2.652-4.301 1.926 2.231 1.931 2.231.954-1.367c1.476-2.099 1.188-2.903-2.544-7.029l-3.467-3.832-5.759 8.066-7.384-8.066-2.142 3.232c-3.743 5.644-3.731 5.608-1.986 7.689.852 1.014 1.74 1.841 1.962 1.841.228 0 .918-.947 1.542-2.099.624-1.151 1.325-2.099 1.565-2.099.234 0 1.968 1.751 3.852 3.898 1.883 2.147 3.611 3.899 3.833 3.899.228 0 1.608-1.931 3.065-4.294zm33.618-13.981c0-.155.846-1.481 1.878-2.944 2.387-3.389 3.035-9.404 1.499-13.908-.533-1.572-.905-2.927-.827-2.999.552-.528 2.417-.42 5.399.3l3.449.833v3.395c0 6.729-3.191 12.942-7.583 14.778-1.961.821-3.815 1.085-3.815.545zm36.293-14.735a16413.552 16413.552 0 00-28.494-9.932c-24.872-8.594-24.704-8.522-27.499-11.695-3.348-3.803-6.731-6.1-12.202-8.301-4.979-2.003-4.349-.503-4.883-11.623-.138-2.909-.528-5.565-.864-5.901-.342-.342-.486-1.602-.324-2.807.156-1.206-.114-3.359-.606-4.774-.612-1.757-.672-2.495-.204-2.321.378.138 22.892 7.629 50.031 16.649l49.341 16.391-.006 12.019c-.006 13.716-.462 20.127-1.428 20.085-.366-.018-10.654-3.52-22.862-7.79zm-15.633-16.115l1.482-2.346 3.779 1.182c2.076.648 5.621 1.691 7.877 2.321l4.097 1.14 1.452-1.446c.906-.911 1.445-2.141 1.445-3.31 0-2.873-1.211-7.017-2.351-8.049-.972-.876-49.647-17.135-51.302-17.135-1.176 0-3.864 2.309-5.801 4.984-1.44 1.991-1.734 2.987-1.734 5.902 0 2.71.276 3.784 1.2 4.708 1.487 1.487 2.141 1.487 12.711-.036l8.573-1.236 1.056 1.302c.773.953 1.055 2.381 1.055 5.343 0 4.99.516 5.542 6.965 7.479 6.893 2.069 7.727 1.997 9.496-.803zm-64.818 2.368c-1.871-.773-3.833-3.55-3.833-5.421 0-2.153 2.124-4.798 3.857-4.798 1.128 0 1.464-.45 1.908-2.549.462-2.177.762-2.549 2.034-2.549 1.433 0 1.499.162 1.499 3.598 0 1.98.336 4.187.75 4.906 1.104 1.932.918 3.533-.6 5.236-1.535 1.721-3.761 2.345-5.615 1.577zm3.99-3.67c.366-.684.51-1.661.312-2.171-.282-.744-.594-.618-1.59.648-.678.863-1.77 1.571-2.424 1.571-.654 0-1.025.27-.821.6.695 1.121 3.815.677 4.523-.648zm-33.366-11.467c-5.255-1.961-11.848-4.378-14.649-5.374-5.141-1.829-7.091-2.903-5.279-2.903 2.375 0 9.838-3.082 11.505-4.75 1.692-1.691 1.818-2.153 2.244-8.264.246-3.563.468-9.68.492-13.59.024-5.422.216-7.041.786-6.831.414.15 5.069 1.697 10.348 3.436 5.279 1.745 10.048 3.563 10.6 4.042.702.606.912 1.446.696 2.789-.348 2.117.75 6.975 1.565 6.975.288 0 .384 1.02.216 2.261-.162 1.242.03 3.467.438 4.948.408 1.476.804 4.21.882 6.076.084 1.865.546 3.958 1.038 4.66 1.632 2.327.714 3.946-2.879 5.08-1.782.563-4.41 1.913-5.843 3.01l-2.61 1.991-9.55-3.556zm106.828-7.095a19788.791 19788.791 0 00-49.941-16.541c-22.508-7.407-22.945-7.581-22.951-9.14 0-.876-.402-2.363-.9-3.305-.492-.947-.894-2.459-.894-3.364 0-2.04-1.104-5.404-2.184-6.664-.45-.521-.816-1.679-.816-2.578 0-1.854-1.265-4.583-2.657-5.74-.522-.426-.942-1.403-.942-2.165v-1.392l4.349 1.506c2.394.833 19.065 6.507 37.043 12.618 17.979 6.106 35.07 11.917 37.967 12.913 7.235 2.477 10.294 4.678 14.008 10.082 1.697 2.477 4.757 5.955 6.796 7.724 2.034 1.77 4.314 4.199 5.063 5.392 1.506 2.387 3.57 8.139 3.252 9.056-.108.324-12.346-3.46-27.193-8.402zm-74.86 4.444c-.234-.234-.426-1.715-.426-3.287 0-2.375.21-2.926 1.26-3.256 1.847-.588 2.435.384 2.225 3.682-.156 2.423-.402 2.963-1.409 3.107-.672.096-1.416-.012-1.65-.246zm-8.824-.762c0-.701 1.751-1.367 2.453-.929 1.056.653.528 1.463-.954 1.463-.828 0-1.499-.24-1.499-.534zm4.769-1.115c-.6-.696-.834-1.961-.69-3.749.114-1.487-.12-3.508-.522-4.498-.402-.989-.768-3.418-.822-5.397-.048-1.98-.444-4.247-.882-5.032-.936-1.71-1.224-8.469-.354-8.457 1.95.036 3.75 3.311 3.45 6.292-.132 1.319.078 3.208.474 4.198.395.989.797 3.418.899 5.398.096 1.979.252 4.138.336 4.798.3 2.321-.066 7.496-.528 7.496-.258 0-.869-.473-1.361-1.049zm-5.213-2.699c-.702-.888-1.308-4.63-.924-5.698.408-1.145 2.447-.893 3.131.384.774 1.446 1.008 4.384.42 5.332-.588.948-1.877.936-2.627-.018zm-62.461-1.104c-3.101-.947-6.064-3.166-9.76-7.31-5.273-5.914-8.29-7.587-27.217-15.102-37.991-15.084-42.28-16.829-42.286-17.219-.006-.222.798-.582 1.776-.791 3.167-.696 7.57-5.32 10.192-10.706 2.622-5.38 3.623-10.639 3.623-19.03 0-2.615.204-4.756.45-4.756.246 0 2.88.822 5.849 1.823 4.445 1.506 5.609 2.16 6.599 3.73 1.02 1.62 2.1 2.196 7.199 3.833 6.508 2.087 8.728 2.375 10.39 1.338.857-.534 2.531-.162 8.242 1.847 5.981 2.099 7.361 2.819 8.362 4.36 1.014 1.559 2.19 2.165 7.499 3.844 6.953 2.195 7.907 2.333 9.508 1.332.888-.552 3.846.234 15.843 4.234 8.117 2.705 15.064 5.29 15.435 5.74 1.074 1.289-.36 33.717-1.571 35.577-2.628 4.054-23.87 9.17-30.133 7.256zm71.339-3.802c-.39-.468-.624-2.021-.522-3.448.168-2.304.348-2.591 1.662-2.591 1.194 0 1.56.395 1.937 2.099.636 2.849.126 4.798-1.253 4.798-.612 0-1.434-.384-1.824-.858zm-10.672-4.39c-.222-.576-.42-2.261-.432-3.749-.03-2.482.09-2.698 1.464-2.698 1.308 0 1.56.353 2.015 2.848.288 1.566.366 3.251.174 3.749-.474 1.235-2.729 1.133-3.221-.15zm9.394-5.362c-.342-.893-.534-2.441-.438-3.448.15-1.512.444-1.836 1.68-1.836 1.272 0 1.572.378 2.028 2.513.642 3.059.21 4.384-1.422 4.384-.792 0-1.458-.581-1.848-1.613zm-10.732-4.342c-1.116-2.075-1.05-5.488.108-6.243 1.608-1.044 2.514.36 2.544 3.94.018 2.465-.192 3.173-.984 3.329-.558.114-1.308-.348-1.668-1.026zm9.652-3.245c-.365-.443-.737-2.129-.821-3.748-.138-2.651-.024-2.963 1.193-3.137.96-.138 1.494.21 1.86 1.2 1.206 3.256 1.29 4.606.348 5.547-1.152 1.152-1.71 1.182-2.58.138zm-11.115-5.385c-.522-.39-1.122-1.962-1.332-3.491-.336-2.519-.246-2.831.96-3.208 1.643-.522 2.129-.042 2.921 2.884.924 3.437-.396 5.416-2.549 3.815zm6.148.389c-.582-.155-1.157-1.175-1.403-2.476-.228-1.224-.84-3.167-1.356-4.319-.516-1.151-.876-2.351-.81-2.651.306-1.319-.708-5.103-1.866-6.993-.695-1.127-1.319-2.788-1.397-3.688l-.132-1.637 1.727 1.853c.948 1.014 1.728 2.393 1.728 3.053 0 .665.654 2.459 1.452 3.982.798 1.529 1.769 4.186 2.153 5.901.384 1.716 1.044 3.407 1.464 3.755.738.612.576 3.694-.192 3.55a25.666 25.666 0 01-1.368-.33zm-19.694-6.687l-9.892-3.406.186-2.795c.114-1.739-.192-3.515-.798-4.696-1.548-2.993-.63-3.527 5.411-3.155l5.081.318v-7.485l2.058 1.71c1.127.941 2.075 2.177 2.099 2.74.054 1.374 2.55 6.466 3.162 6.466.264 0 .48.767.48 1.709 0 1.895 1.043 5.368 1.967 6.549.606.774.984 5.572.432 5.494-.168-.024-4.751-1.577-10.186-3.449zm22.172 1.368c-1.314-3.467-1.332-4.354-.084-5.026.936-.498 1.422-.438 2.13.27 1.049 1.049 1.877 4.684 1.289 5.643-.744 1.206-2.735.678-3.335-.887zm-11.752-6.034c-1.254-3.01-.912-4.738.942-4.738 1.23 0 1.602.444 2.255 2.699.918 3.173.666 4.198-1.043 4.198-.87 0-1.524-.659-2.154-2.159zm8.435-2.92c-1.128-2.705-1.104-4.301.084-4.756 1.361-.522 2.021.054 3.269 2.842.798 1.776.924 2.675.468 3.227-1.206 1.451-2.91.864-3.821-1.313zm-148.581-2.238c-2.033-.539-4.901-3.064-6.286-5.541-.306-.552-5.651-2.543-13.096-4.882-39.407-12.367-38.897-12.223-39.856-11.395-1.632 1.403-4.116 1.583-8.111.582-4.013-1.008-4.085-1.08-4.625-4.684-.144-.948-2.364-1.836-12.172-4.865-6.599-2.039-19.04-5.907-27.655-8.594-8.608-2.687-16.418-4.882-17.354-4.882-2.808 0-8.393-1.811-10.096-3.274-.876-.756-2.61-1.536-3.852-1.734-3.605-.575-4.48-1.559-4.799-5.397-.276-3.305-.24-3.389 1.248-3.389.84 0 2.37-.708 3.401-1.577 4.212-3.539 5.91-10.478 3.756-15.342-1.068-2.417-1.56-2.849-4.29-3.754l-3.077-1.026.318-2.795c1.056-9.284 2.19-27.93 1.883-30.982-.383-3.905.259-5.896 2.352-7.275 1.062-.696 1.542-.636 3.515.42 1.26.677 2.328 1.145 2.376 1.043C33.462.833 34.086.192 35.82.018c2.35-.228 6.412 1.781 7.768 3.844.876 1.338.93 2.177.39 6.435-.678 5.392-1.146 3.03 4.943 24.992 1.236 4.45 2.681 10.795 3.21 14.094l.971 5.997 23.99 7.929c21.038 6.951 24.247 7.863 26.089 7.4 1.157-.293 3.929-.713 6.16-.929 5.088-.504 7.127-2.045 8.579-6.471 1.458-4.462 2.885-7.083 4.907-9.002 3.347-3.173 4.073-3.047 27.109 4.678l21.014 7.047 2.969-1.278c3.546-1.523 4.679-1.577 7.757-.342 1.782.708 2.735 1.662 4.001 3.995 2.226 4.09 2.604 8.54 2.058 24.457-.48 13.879-1.17 17.519-4.367 22.971-2.052 3.496-5.795 6.795-8.609 7.574-2.657.738-3.299.726-6.329-.078zm-9.076-14.471c-.882-2.099-.9-2.111-15.825-6.939-12.574-4.067-15.249-4.75-16.827-4.295-1.517.438-3.227.102-8.794-1.703-6.551-2.129-6.935-2.183-7.277-1.11-.198.63-.264 1.236-.144 1.356.174.174 18.915 6.129 45.184 14.346 2.309.726 4.283 1.121 4.379.888.102-.24-.216-1.38-.696-2.543zM96.582 89.59v-2.081l-7.349-2.357a6422.786 6422.786 0 01-24.05-7.809l-16.7-5.446-2.34 1.338c-2.783 1.589-2.903 2.02-.702 2.507.906.204 12.448 3.844 25.646 8.096 13.197 4.246 24.331 7.749 24.745 7.779.468.03.75-.738.75-2.027zm65.838-.318c4.637-2.825 1.019-5.206-16.947-11.125-9.371-3.09-13.414-4.175-13.948-3.743-1.091.894-.917 4.33.3 5.824.726.893 5.147 2.663 14.248 5.71 7.258 2.434 13.467 4.443 13.797 4.473.33.024 1.476-.485 2.55-1.14zM41.992 45.292c0-.977-1.536-6.459-2.747-9.793-.924-2.55-3.486-4.307-5.267-3.623-1.344.516-1.944 9.068-.762 10.874 1.487 2.273 8.776 4.384 8.776 2.542zm263.363 73.985c-1.458-2.861-1.524-3.976-.258-4.462 1.32-.504 1.877-.048 3.293 2.735 1.386 2.711 1.176 4.102-.618 4.102-.798 0-1.613-.797-2.417-2.375zm7.504-1.691c-1.745-2.633-1.529-4.504.486-4.21 1.44.204 4.121 3.862 3.858 5.247-.096.51-.762 1.014-1.482 1.116-.966.138-1.722-.432-2.862-2.153zm-40.81-2.243c-6.269-2.123-11.44-3.868-11.494-3.874-.048-.006-.186-3.857-.3-8.559-.198-8.282-.264-8.654-2.099-12-1.872-3.413-1.878-3.467-.66-4.121.678-.36 2.603-.528 4.277-.366 2.075.198 3.473.018 4.373-.576 1.458-.953 3.383-.347 3.995 1.26.186.48 1.56 1.415 3.06 2.075 2.165.96 2.927 1.703 3.701 3.634.762 1.914 1.692 2.837 4.355 4.343 1.866 1.05 4.469 2.638 5.795 3.532 1.32.894 3.611 2.033 5.099 2.537 2.424.816 2.736 1.14 3.108 3.221.228 1.271.432 4.168.45 6.447l.036 4.132-4.26-.354c-3.953-.336-4.355-.258-5.723 1.11-.809.809-1.661 1.457-1.895 1.445-.228-.012-5.549-1.763-11.818-3.886zm28.615-3.467c-2.358-2.429-2.58-4.618-.474-4.618 1.469 0 4.553 2.999 4.553 4.426 0 .762-1.17 2.172-1.8 2.172-.204 0-1.23-.888-2.279-1.98zm7.306.828c-2.375-1.445-3.317-2.717-2.873-3.868.498-1.302 1.547-1.23 4.109.282 1.464.857 2.136 1.691 2.136 2.632 0 1.866-1.284 2.225-3.372.954zm-52.868-2.843c-.414-.168-.75-.642-.75-1.049 0-1.476-2.807-3.203-8.806-5.416-5.897-2.177-6.161-2.219-7.799-1.266-1.631.954-1.949.906-8.704-1.289-6.209-2.015-7.175-2.519-8.41-4.36-1.248-1.86-2.154-2.321-8.561-4.336-6.707-2.111-7.252-2.195-8.596-1.314-1.596 1.05-3.827.696-9.862-1.56l-3.15-1.175.198-4.114c.27-5.74-.762-12.33-2.465-15.785-.888-1.787-1.176-2.92-.75-2.92 2.531 0 56.617 18.321 63.144 21.386 5.603 2.639 7.361 6.64 7.361 16.775 0 6.111-.108 6.813-1.05 6.771-.576-.024-1.386-.18-1.8-.348zm30.948-12.409c-8.848-5.361-9.034-5.961-2.351-7.652 4.163-1.056 4.529-1.068 5.561-.132.606.551 1.271 2.057 1.481 3.346.456 2.85 1.188 3.209 4.11 1.986 4.385-1.836 5.819-1.116 4.529 2.266-.432 1.14-1.23 1.626-3.45 2.1-1.589.341-3.293.755-3.785.923-.498.168-3.239-1.11-6.095-2.837zM10.882 60.455C1.182 57.365 0 56.778 0 55.086c0-2.692 7.997-10.225 11.89-11.203.828-.21 4.151.468 8.014 1.637 5.465 1.644 6.701 2.231 7.15 3.413.805 2.117.655 7.113-.275 9.344-.948 2.255-4.205 5.218-5.681 5.158-.552-.024-5.147-1.362-10.216-2.98zm-3.803-9.692c.923-.923.935-2.453.024-2.147-.384.126-1.092.828-1.578 1.547-.75 1.134-.75 1.32-.018 1.32.468 0 1.176-.324 1.572-.72zm371.75 134.829l-4.799-1.337-.156-5.662c-.234-8.132.252-7.905-13.078-6.081-10.396 1.421-10.696 1.433-11.512.342-1.781-2.375-.024-7.317 3.546-9.98l1.518-1.134 24.535 7.923c13.497 4.36 24.931 8.282 25.399 8.726 1.056.984 1.656 7.713.738 8.277-.354.216-4.019-.708-8.152-2.051-8.279-2.693-9.191-2.639-10.528.587-.888 2.141-1.194 2.153-7.511.39z" fill="url(#paint0_linear_6046_10014)"/><defs><linearGradient id="paint0_linear_6046_10014" x1="266.5" y1="0" x2="266.5" y2="348" gradientUnits="userSpaceOnUse"><stop stop-color="#878AA4"/><stop offset="1" stop-color="#5B5D76"/></linearGradient></defs></svg>