<svg width="30" height="27" fill="none" xmlns="http://www.w3.org/2000/svg"><path d="M12.531 1.75c.962-1.667 3.368-1.667 4.33 0L28.552 22c.963 1.667-.24 3.75-2.165 3.75H3.005C1.08 25.75-.123 23.667.84 22L12.53 1.75z" fill="#D9D9D9"/><path d="M12.531 1.75c.962-1.667 3.368-1.667 4.33 0L28.552 22c.963 1.667-.24 3.75-2.165 3.75H3.005C1.08 25.75-.123 23.667.84 22L12.53 1.75z" fill="#DDC916"/><path d="M12.531 1.75c.962-1.667 3.368-1.667 4.33 0L28.552 22c.963 1.667-.24 3.75-2.165 3.75H3.005C1.08 25.75-.123 23.667.84 22L12.53 1.75z" stroke="#FFE500"/></svg>