<svg width="227" height="227" fill="none" xmlns="http://www.w3.org/2000/svg"><g filter="url(#filter0_n_2526_1405)"><path d="M113.098 0c62.461 0 113.096 50.635 113.096 113.097 0 62.461-50.635 113.096-113.096 113.096C50.636 226.193 0 175.558 0 113.097 0 50.635 50.636 0 113.098 0z" fill="url(#paint0_linear_2526_1405)"/><path d="M113.098 0c62.461 0 113.096 50.635 113.096 113.097 0 62.461-50.635 113.096-113.096 113.096C50.636 226.193 0 175.558 0 113.097 0 50.635 50.636 0 113.098 0z" fill="url(#paint1_linear_2526_1405)"/><path d="M113.098.558c62.153 0 112.539 50.385 112.539 112.539s-50.386 112.539-112.539 112.539l-1.454-.009C50.16 224.848.558 174.765.558 113.097.558 51.428 50.16 1.345 111.644.567l1.454-.01z" stroke="#C3905D" stroke-opacity=".16" stroke-width="1.114"/></g><defs><linearGradient id="paint0_linear_2526_1405" x1="113.097" y1="-61.163" x2="113.097" y2="226.193" gradientUnits="userSpaceOnUse"><stop stop-color="#6D592F"/><stop offset="1" stop-color="#02220D"/></linearGradient><linearGradient id="paint1_linear_2526_1405" x1="113.097" y1="-61.163" x2="113.097" y2="226.193" gradientUnits="userSpaceOnUse"><stop stop-color="#6D592F"/><stop offset="1" stop-color="#C09F4E"/></linearGradient><filter id="filter0_n_2526_1405" x="0" y="0" width="226.194" height="226.193" filterUnits="userSpaceOnUse" color-interpolation-filters="sRGB"><feFlood flood-opacity="0" result="BackgroundImageFix"/><feBlend in="SourceGraphic" in2="BackgroundImageFix" result="shape"/><feTurbulence type="fractalNoise" baseFrequency="0.039012327790260315 0.039012327790260315" stitchTiles="stitch" numOctaves="3" result="noise" seed="8868"/><feColorMatrix in="noise" type="luminanceToAlpha" result="alphaNoise"/><feComponentTransfer in="alphaNoise" result="coloredNoise1"><feFuncA type="discrete" tableValues="0 0 0 0 0 0 0 0 0 0 0 1 1 1 1 1 1 1 1 1 1 1 1 1 1 1 1 1 1 1 1 1 1 1 1 1 1 1 1 0 0 0 0 0 0 0 0 0 0 0 0 0 0 0 0 0 0 0 0 0 0 0 0 0 0 0 0 0 0 0 0 0 0 0 0 0 0 0 0 0 0 0 0 0 0 0 0 0 0 0 0 0 0 0 0 0 0 0 0 0"/></feComponentTransfer><feComposite operator="in" in2="shape" in="coloredNoise1" result="noise1Clipped"/><feFlood flood-color="rgba(255, 224, 123, 0.04)" result="color1Flood"/><feComposite operator="in" in2="noise1Clipped" in="color1Flood" result="color1"/><feMerge result="effect1_noise_2526_1405"><feMergeNode in="shape"/><feMergeNode in="color1"/></feMerge></filter></defs></svg>