<svg width="279" height="279" fill="none" xmlns="http://www.w3.org/2000/svg"><path d="M142.108 278.768c-.875.016-1.752.027-2.63.028V259.28c.879 0 1.756-.012 2.63-.031v19.519zm-33.689-23.53c.846.226 1.696.444 2.55.652l-5.054 18.857c-.852-.21-1.702-.428-2.548-.654l5.052-18.855zm69.631 18.128c-.842.243-1.686.477-2.534.704l-5.053-18.855c.848-.227 1.693-.463 2.534-.708l5.053 18.859zm-98.673-30.172c.758.44 1.522.87 2.291 1.293l-9.762 16.909a147.03 147.03 0 01-2.289-1.298l9.76-16.904zm131.901 15.662c-.75.453-1.505.899-2.265 1.338l-9.759-16.903c.76-.439 1.514-.885 2.264-1.34l9.76 16.905zM54.414 223.95a120.85 120.85 0 001.876 1.845l-13.802 13.802c-.63-.61-1.255-1.226-1.874-1.847l13.8-13.8zm185.162 12.378c-.61.63-1.225 1.255-1.847 1.874l-13.799-13.8c.622-.618 1.237-1.243 1.845-1.875l13.801 13.801zM35.263 198.831c.435.762.88 1.518 1.332 2.269l-16.906 9.76c-.45-.752-.895-1.508-1.33-2.269l16.904-9.76zm225.87 8.535a134.76 134.76 0 01-1.309 2.282l-16.903-9.759c.443-.757.878-1.518 1.305-2.285l16.907 9.762zM23.334 169.527c.22.851.45 1.697.688 2.54L5.165 177.12c-.237-.844-.465-1.691-.686-2.541l18.855-5.052zm251.164 4.347c-.216.851-.441 1.698-.673 2.543l-18.855-5.052c.233-.844.457-1.692.672-2.544l18.856 5.053zm4.29-35.776c.004.433.009.866.009 1.3 0 .444-.005.888-.009 1.331h-19.516a117.954 117.954 0 00.001-2.631h19.515zm-259.272 1.3c0 .444.004.888.008 1.331H.01c-.004-.443-.009-.887-.009-1.331 0-.434.005-.867.009-1.3h19.514c-.004.433-.007.866-.007 1.3zm254.317-36.992c.232.845.456 1.693.673 2.544l-18.858 5.053c-.214-.852-.438-1.7-.67-2.544l18.855-5.053zm-249.82 4.351c-.237.842-.466 1.689-.686 2.539l-18.855-5.052c.22-.85.449-1.696.685-2.54l18.857 5.053zM259.84 69.172c.442.757.879 1.517 1.307 2.283l-16.907 9.762c-.426-.767-.862-1.529-1.304-2.285l16.904-9.76zM36.58 77.72c-.452.751-.896 1.507-1.332 2.27l-16.904-9.76c.436-.762.88-1.519 1.33-2.271l16.906 9.76zm201.17-37.108c.621.62 1.237 1.244 1.847 1.874L225.794 56.29a118.607 118.607 0 00-1.844-1.876l13.8-13.8zM56.27 53.022c-.632.608-1.258 1.222-1.876 1.844l-13.8-13.8a140.06 140.06 0 011.874-1.846l13.801 13.802zm152.767-34.407c.76.44 1.514.886 2.265 1.34l-9.76 16.904a119.1 119.1 0 00-2.264-1.34l9.759-16.904zM81.644 34.321a116.4 116.4 0 00-2.291 1.295l-9.76-16.904c.758-.44 1.521-.872 2.289-1.298l9.762 16.907zm93.898-29.589c.848.228 1.693.463 2.535.705l-5.054 18.86c-.84-.245-1.685-.482-2.533-.71l5.052-18.855zm-64.601 18.181c-.853.208-1.702.427-2.548.652L103.341 4.71c.846-.226 1.695-.445 2.548-.655l5.052 18.858zM139.478 0c.878 0 1.755.012 2.63.028v19.519c-.874-.02-1.751-.03-2.63-.031V0z" fill="#353551"/></svg>