<svg width="430" height="389" fill="none" xmlns="http://www.w3.org/2000/svg"><mask id="a" fill="#fff"><path fill-rule="evenodd" clip-rule="evenodd" d="M414 0c8.837 0 16 7.163 16 16v69.63c0 3.179-.959 6.278-2.679 8.952-24.097 37.475-38.083 82.093-38.083 129.918 0 47.824 13.987 92.441 38.083 129.916 1.72 2.674 2.679 5.773 2.679 8.952V373c0 8.837-7.163 16-16 16H16c-8.837 0-16-7.163-16-16V16C0 7.163 7.163 0 16 0h398z"/></mask><path fill-rule="evenodd" clip-rule="evenodd" d="M414 0c8.837 0 16 7.163 16 16v69.63c0 3.179-.959 6.278-2.679 8.952-24.097 37.475-38.083 82.093-38.083 129.918 0 47.824 13.987 92.441 38.083 129.916 1.72 2.674 2.679 5.773 2.679 8.952V373c0 8.837-7.163 16-16 16H16c-8.837 0-16-7.163-16-16V16C0 7.163 7.163 0 16 0h398z" fill="url(#paint0_linear_2030_1946)"/><path d="M430 16h2-2zm-2.679 78.582l-1.682-1.082 1.682 1.082zm0 259.834l-1.682 1.082 1.682-1.082zM414 0v2c7.732 0 14 6.268 14 14h4c0-9.941-8.059-18-18-18v2zm16 16h-2v69.63h4V16h-2zm0 69.63h-2c0 2.775-.838 5.501-2.361 7.87l1.682 1.082 1.683 1.082c1.915-2.98 2.996-6.451 2.996-10.034h-2zm-2.679 8.952l-1.682-1.082c-24.298 37.789-38.401 82.78-38.401 131h4c0-47.43 13.869-91.674 37.766-128.836l-1.683-1.082zM389.238 224.5h-2c0 48.219 14.103 93.21 38.401 130.998l1.682-1.082 1.683-1.082c-23.896-37.162-37.766-81.405-37.766-128.834h-2zm38.083 129.916l-1.682 1.082c1.523 2.369 2.361 5.095 2.361 7.87h4c0-3.583-1.081-7.055-2.996-10.034l-1.683 1.082zm2.679 8.952h-2V373h4v-9.632h-2zm0 9.632h-2c0 7.732-6.268 14-14 14v4c9.941 0 18-8.059 18-18h-2zm-16 16v-2H16v4h398v-2zm-398 0v-2c-7.732 0-14-6.268-14-14h-4c0 9.941 8.059 18 18 18v-2zM0 373h2V16h-4v357h2zM0 16h2C2 8.268 8.268 2 16 2v-4C6.059-2-2 6.059-2 16h2zM16 0v2h398v-4H16v2z" fill="url(#paint1_linear_2030_1946)" mask="url(#a)"/><defs><linearGradient id="paint0_linear_2030_1946" x1="227.284" y1="0" x2="227.284" y2="389" gradientUnits="userSpaceOnUse"><stop stop-color="#DD0F0F" stop-opacity=".24"/><stop offset="1" stop-color="#DD0F0F" stop-opacity="0"/></linearGradient><linearGradient id="paint1_linear_2030_1946" x1="227.284" y1="0" x2="227.284" y2="389" gradientUnits="userSpaceOnUse"><stop stop-color="#DD0F0F"/><stop offset="1" stop-color="#12121F" stop-opacity="0"/></linearGradient></defs></svg>