<svg width="336" height="219" fill="none" xmlns="http://www.w3.org/2000/svg"><mask id="a" style="mask-type:alpha" maskUnits="userSpaceOnUse" x="0" y="0" width="336" height="219"><path d="M2.861 109.5L84 188.827l26.602-26.007 1.398-1.367 1.398 1.367L168 216.202l54.602-53.382 1.398-1.367 1.398 1.367L252 188.827l81.14-79.327L224 2.797 169.398 56.18 168 57.547l-1.398-1.367L112 2.797 2.861 109.5zm110.506-56.21L168 104.478l54.633-51.188 1.396-1.309 1.369 1.34 56 54.749 1.463 1.43-1.463 1.43-28 27.375-1.398 1.367-1.398-1.367L224 112.297l-54.602 53.383-1.398 1.367-1.398-1.367L112 112.297l-26.602 26.008L84 139.672l-1.398-1.367-28-27.375-1.463-1.43 1.463-1.43 56-54.75 1.369-1.339 1.396 1.309z" stroke="#000" stroke-width="4"/></mask><g mask="url(#a)"><path fill="#AC8F4D" d="M0-59h336v337H0z"/></g></svg>