<svg width="64" height="90" fill="none" xmlns="http://www.w3.org/2000/svg"><path d="M22.86 60.67l-3.265-21.103 1.13-1.005c13.148-1.005 19.721-4.354 19.721-10.049v-.251c0-2.177-.837-3.852-2.512-5.024-1.675-1.256-4.02-1.884-7.034-1.884-6.03 0-12.142 2.763-18.34 8.29L0 13.189C8.793 4.396 19.637-.001 32.533-.001c9.379 0 16.957 2.388 22.735 7.16 5.778 4.69 8.667 11.096 8.667 19.219v.251c0 13.482-8.165 22.15-24.494 26.001l-1.507 8.04H22.861zm-5.275 28.638V67.954H42.33v21.354H17.585z" fill="#FBD16A" fill-opacity=".21"/></svg>