<svg width="430" height="389" fill="none" xmlns="http://www.w3.org/2000/svg"><mask id="a" fill="#fff"><path d="M16 0C7.163 0 0 7.163 0 16v69.63c0 3.179.96 6.278 2.679 8.952 24.097 37.475 38.083 82.093 38.083 129.918 0 47.824-13.987 92.441-38.083 129.916C.959 357.09 0 360.189 0 363.368V373c0 8.837 7.163 16 16 16h398c8.837 0 16-7.163 16-16V16c0-8.837-7.163-16-16-16H16z"/></mask><path d="M16 0C7.163 0 0 7.163 0 16v69.63c0 3.179.96 6.278 2.679 8.952 24.097 37.475 38.083 82.093 38.083 129.918 0 47.824-13.987 92.441-38.083 129.916C.959 357.09 0 360.189 0 363.368V373c0 8.837 7.163 16 16 16h398c8.837 0 16-7.163 16-16V16c0-8.837-7.163-16-16-16H16z" fill="url(#paint0_radial_2030_2692)"/><path d="M16 0C7.163 0 0 7.163 0 16v69.63c0 3.179.96 6.278 2.679 8.952 24.097 37.475 38.083 82.093 38.083 129.918 0 47.824-13.987 92.441-38.083 129.916C.959 357.09 0 360.189 0 363.368V373c0 8.837 7.163 16 16 16h398c8.837 0 16-7.163 16-16V16c0-8.837-7.163-16-16-16H16z" fill="url(#paint1_linear_2030_2692)"/><path d="M0 16h-2 2zm2.679 78.582L.996 95.664l1.683-1.082zm0 259.834l-1.683-1.082 1.683 1.082zM16 0v2C8.268 2 2 8.268 2 16h-4C-2 6.059 6.059-2 16-2v2zM0 16h2v69.63h-4V16h2zm0 69.63h2c0 2.775.838 5.501 2.361 7.87l-1.682 1.082-1.683 1.082C-.919 92.684-2 89.213-2 85.63h2zm2.679 8.952L4.36 93.5c24.298 37.789 38.4 82.78 38.4 131h-4c0-47.43-13.868-91.674-37.765-128.836l1.683-1.082zM40.762 224.5h2c0 48.219-14.103 93.21-38.401 130.998l-1.682-1.082-1.683-1.082c23.896-37.162 37.766-81.405 37.766-128.834h2zM2.679 354.416l1.682 1.082C2.838 357.867 2 360.593 2 363.368h-4c0-3.583 1.081-7.055 2.996-10.034l1.683 1.082zM0 363.368h2V373h-4v-9.632h2zM0 373h2c0 7.732 6.268 14 14 14v4c-9.941 0-18-8.059-18-18h2zm16 16v-2h398v4H16v-2zm398 0v-2c7.732 0 14-6.268 14-14h4c0 9.941-8.059 18-18 18v-2zm16-16h-2V16h4v357h-2zm0-357h-2c0-7.732-6.268-14-14-14v-4c9.941 0 18 8.059 18 18h-2zM414 0v2H16v-4h398v2z" fill="url(#paint2_linear_2030_2692)" mask="url(#a)"/><defs><linearGradient id="paint1_linear_2030_2692" x1="202.716" y1="0" x2="202.716" y2="389" gradientUnits="userSpaceOnUse"><stop stop-color="#510FDD" stop-opacity=".24"/><stop offset="1" stop-color="#510FDD" stop-opacity="0"/></linearGradient><linearGradient id="paint2_linear_2030_2692" x1="202.716" y1="0" x2="202.716" y2="389" gradientUnits="userSpaceOnUse"><stop stop-color="#510FDD"/><stop offset="1" stop-color="#12121F" stop-opacity="0"/></linearGradient><radialGradient id="paint0_radial_2030_2692" cx="0" cy="0" r="1" gradientUnits="userSpaceOnUse" gradientTransform="matrix(0 194.5 -215 0 215 194.5)"><stop stop-color="#191927"/><stop offset="1" stop-color="#10101D"/></radialGradient></defs></svg>