<svg width="430" height="389" fill="none" xmlns="http://www.w3.org/2000/svg"><path d="M414 0c8.837 0 16 7.163 16 16v69.63c0 3.179-.959 6.278-2.679 8.952-24.097 37.475-38.083 82.093-38.083 129.918 0 47.824 13.987 92.441 38.083 129.916 1.72 2.674 2.679 5.773 2.679 8.952V373c0 8.837-7.163 16-16 16H16c-8.837 0-16-7.163-16-16V16C0 7.163 7.163 0 16 0h398z" fill="url(#paint0_radial_2030_2692)"/><defs><radialGradient id="paint0_radial_2030_2692" cx="0" cy="0" r="1" gradientUnits="userSpaceOnUse" gradientTransform="matrix(0 194.5 -215 0 215 194.5)"><stop stop-color="#191927"/><stop offset="1" stop-color="#10101D"/></radialGradient></defs></svg>