<svg width="395" height="395" fill="none" xmlns="http://www.w3.org/2000/svg"><path d="M197.262 0a201.257 201.257 0 012.175.013c.573.006 1.146.013 1.718.024.043 0 .085.002.127.003a200.577 200.577 0 013.658.106l.136.005h-.001c104.611 4.075 188.309 89.614 189.437 194.956.001.13.001.259.003.388.005.588.009 1.177.009 1.767l-.003 1.276c-.683 107.676-87.635 194.881-195.212 195.975l-.206.002c-.613.005-1.227.009-1.841.009l-1.276-.003c-.191-.002-.383-.005-.575-.006a12.419 12.419 0 00-.193-.002c-55.029-.559-104.66-23.652-140.109-60.49l-.172-.179C22.593 300.148 2.097 254.994.153 205.075v.001c-.003-.056-.004-.112-.006-.169-.02-.513-.038-1.027-.053-1.542l-.016-.52a200.832 200.832 0 01-.066-3.525l-.002-.218a201.456 201.456 0 01.09-8.115c1.537-49.189 21.083-93.838 52.264-127.576l.075-.08a197.216 197.216 0 012.506-2.66l.282-.292a198.414 198.414 0 015.153-5.153l.292-.282a198.192 198.192 0 011.492-1.417C95.694 21.998 140.258 2.067 189.446.151l.14-.005A198.425 198.425 0 01193.24.04c.043 0 .085-.002.127-.003a200.543 200.543 0 012.128-.028c.588-.005 1.177-.009 1.767-.009zm0 15.781l-6.523-13.044C141.912 4.345 97.638 23.938 64.324 55.104l4.612 13.832-13.833-4.612C23.938 97.638 4.345 141.912 2.737 190.74l13.044 6.523-13.044 6.52c1.608 48.828 21.2 93.102 52.367 126.416l13.832-4.61-4.612 13.831c33.314 31.166 77.588 50.759 126.415 52.367l6.523-13.043 6.52 13.043c48.828-1.607 93.102-21.201 126.416-52.367l-4.609-13.83 13.83 4.609c31.166-33.314 50.76-77.588 52.367-126.416l-13.043-6.52 13.043-6.523c-1.608-48.827-21.201-93.101-52.367-126.415l-13.831 4.612 4.61-13.833C296.884 23.938 252.609 4.345 203.782 2.737l-6.52 13.044z" fill="#353551"/></svg>