<svg width="144" height="68" fill="none" xmlns="http://www.w3.org/2000/svg"><path d="M0 30.52V.598h8.763L15.9 12.182 23.039.598h8.763V30.52h-8.25V13.336l-7.651 11.712h-.171L8.12 13.38v17.14H0zm34.758 0L47.454.385h7.993L68.185 30.52h-8.891l-2.137-5.386H45.573l-2.137 5.386h-8.678zM48.01 18.68h6.711l-3.334-8.464-3.377 8.463zm36.419 12.438c-9.361 0-16.243-6.369-16.243-15.473v-.086C68.185 6.84 75.025 0 84.257 0c5.3 0 8.934 1.582 12.14 4.318l-4.873 5.899c-2.18-1.838-4.19-2.821-7.224-2.821-4.275 0-7.652 3.59-7.652 8.164v.086c0 4.872 3.377 8.335 8.122 8.335 2.052 0 3.59-.428 4.787-1.24v-3.633h-5.856v-6.07h13.721V26.46c-3.205 2.693-7.48 4.66-12.994 4.66zm17.806-.598V.598h8.292V30.52h-8.292zm28.218.598c-8.549 0-15.431-6.54-15.431-15.473v-.086c0-8.72 6.668-15.56 15.73-15.56 6.07 0 10.088 2.566 12.695 6.199l-6.241 4.83c-1.71-2.094-3.633-3.505-6.54-3.505-4.189 0-7.138 3.59-7.138 7.95v.086c0 4.488 2.949 7.993 7.138 7.993 3.121 0 4.916-1.453 6.754-3.633l6.241 4.445c-2.864 3.89-6.626 6.754-13.208 6.754zM6.679 66.52V36.598h8.762l7.139 11.584 7.138-11.584h8.763V66.52h-8.25V49.336L22.58 61.048h-.171L14.8 49.38v17.14H6.68zm52.198.598c-9.233 0-16.072-6.924-16.072-15.473v-.086c0-8.592 6.925-15.56 16.158-15.56s16.072 6.926 16.072 15.475v.085c0 8.592-6.925 15.56-16.158 15.56zm.086-7.48c4.53 0 7.566-3.676 7.566-7.993v-.086c0-4.36-3.078-8.079-7.652-8.079s-7.608 3.676-7.608 7.994v.085c0 4.275 3.12 8.079 7.694 8.079zm20.349 6.882V36.598h11.584c10.643 0 16.841 6.113 16.841 14.79v.086c0 8.677-6.284 15.046-17.012 15.046H79.312zM90.98 43.908h-3.377v15.26h3.377c5.001 0 8.293-2.736 8.293-7.566v-.086c0-4.83-3.292-7.608-8.293-7.608zm21.057 22.612V36.598h24.066v7.01h-15.859v4.574h14.362v6.54h-14.362v4.745h16.072v7.053h-24.279z" fill="#FBD16A" fill-opacity=".21"/></svg>