<svg width="128" height="72" fill="none" xmlns="http://www.w3.org/2000/svg"><path fill-rule="evenodd" clip-rule="evenodd" d="M126.248 3.546h.427l.641.108-.107 2.579.427 3.546-.64 2.257-.641 2.042-.641 2.364-1.282 4.083-.748 2.042-.534.645-.32.215H73.591l-1.495.322-3.311 2.364c-1.068 1.075-2.065 2.651-2.99 4.729-1.069 2.006-1.603 4.8-1.603 8.382v1.182h-.214l-2.136.537-4.7.645-5.874.322-5.554-.967-1.922 1.397c-.855.932-1.318 1.935-1.389 3.01l-.64 3.975-1.282 6.556-1.069 6.34-.747 3.224 1.709 4.836h-.32L29.8 71.463 20.08 72l-10.147-.537-.747-.108-1.282-1.074c-.427-.717-.641-2.006-.641-3.87l.32-4.405c.285-1.72.82-3.725 1.603-6.018l2.777-8.275 4.592-10.853v-.43l.107-.752.107-1.397c0-1.433-.32-2.902-.961-4.406-.57-1.433-2.03-2.364-4.38-2.794l-1.815-.108-3.739-.215-3.738-.107H.32L0 26.328v-.322c0-.358.107-.609.32-.752.214-.788.962-1.576 2.243-2.364 1.21-.788 3.418-1.577 6.623-2.365l.747-1.29.641-2.793-.107-1.075-.534-1.397-.747-.86-1.603-3.116V7.952l2.03-.537.534.322.64.43h3.632l.427-.86.428-.752 3.204-2.901.64-.215.748-.43V1.397L19.973 0h3.952l2.777 2.794 4.7-.107 1.602-.86 19.332-.108.534.753.748.537 25.1.43.32.215.428.215h1.388l.107-.323.107-.322.427-.43 28.198.215.106.537.107.538v.322h1.495l.214-.752.427-.43h5.554l.962-.537 1.495-.968a4.679 4.679 0 011.602-.752l1.175-.322.854.86.321 1.289 1.175.43.854.215.214.107zM58.531 25.04h-8.33c-.713 0-1.318.215-1.817.645-.427.501-.64 1.11-.64 1.826v7.845l.64 1.827 1.816.645h8.331c.712 0 1.318-.215 1.816-.645l.854-1.827v-7.844c0-.717-.285-1.326-.854-1.827-.498-.43-1.104-.645-1.816-.645z" fill="#FBD16A"/></svg>