<svg width="315" height="384" fill="none" xmlns="http://www.w3.org/2000/svg"><path d="M32.673 280.195c20.175-8.723 43.573-4.157 59.212 11.557 16.008 16.08 20.227 40.233 10.612 60.75-7.59 16.189-23.66 27.992-41.5 30.475-4.827.669-11.434.569-16.318-.252-13.573-2.274-27.503-11.144-35.106-22.344-2.459-3.626-5.885-10.523-7.143-14.391-4.233-12.999-2.886-28.172 3.65-41.148 5.268-10.47 15.302-19.763 26.593-24.647zm29.477 29.089c-.294-14.599.318-13.602-8.382-13.602-5.633 0-5.95.052-7.066 1.163-1.296 1.3-1.4 2.567-1.4 17.109v7.119l-23.104.475-1.145 1.334c-1.058 1.229-1.143 1.718-1.143 6.502 0 5.486.432 7.162 2.07 8.012.64.336 5.116.574 12.158.645l11.145.118.075 10.679c.09 13.336-.028 12.173 1.344 13.55 1.115 1.11 1.433 1.163 7.066 1.163 8.7 0 8.088.996 8.382-13.603l.237-11.789 11.495-.237c14.528-.299 13.66.228 13.66-8.306 0-8.533.868-8.006-13.66-8.305l-11.495-.238-.237-11.789zm238.254-2.311c0 21.441-.118 25.979-.73 28.329-1.87 7.181-7.234 12.767-14.391 14.978-2.947.912-4.875.931-88.367.931h-85.359l.636-1.542c.351-.85 1.006-3.091 1.462-4.98l.83-3.435 166.223-.247 1.988-1.064c2.601-1.39 5.027-3.924 6.403-6.686l1.101-2.217.275-49.597h9.929v25.53zM51.851 164.671c1.5-.916 3.1-.93 114.557-.812l113.037.119 1.286 1.186c2.596 2.392 2.587 2.316 2.587 27.75v23.508l-13.882.01c-16.198.009-18.301.313-24.969 3.621-10.399 5.164-16.902 15.372-17.504 27.479-.29 5.753.802 10.817 3.517 16.351 2.43 4.959 8.396 10.897 13.683 13.621 6.597 3.398 7.646 3.565 24.324 3.811l14.831.218v23.807c0 26.407.033 26.113-3.133 27.94-1.395.807-5.674.854-83.175.968l-81.704.114v-5.277c0-26.008-16.995-49.516-41.784-57.803-6.659-2.226-12.207-3.128-19.274-3.128h-5.88l.128-49.715c.118-46.824.175-49.806.982-51.277.47-.864 1.538-1.983 2.373-2.491zm43.284 83.075l27.76 27.755 10.532-10.432 9.093 9.374c5.002 5.154 9.41 9.372 9.801 9.373.389 0 4.879-4.167 9.972-9.254l9.269-9.26 4.969 4.988c2.728 2.737 5.181 4.981 5.448 4.983.427 0 26.873-26.734 27.182-27.479.066-.157-8.383-8.791-18.776-19.18l-18.899-18.893-19.227 18.727-18.922-18.903-38.201 38.201zm185.81-24.442c26.061 0 26.36.009 28.239 1.02 2.202 1.187 3.564 2.577 4.808 4.912.821 1.538.888 3 .888 19.697 0 17.774-.015 18.063-1.064 20.023-1.182 2.216-3.331 4.011-5.77 4.827-2.611.873-52.189.688-55.525-.209-3.963-1.068-8.017-3.469-11.177-6.635-13.441-13.436-8.045-36.279 10.047-42.525l3.213-1.11h26.341zM48.71 147.124c1.54-.327 40.59-.446 118.566-.36l116.279.128 2.701 1.091c4.1 1.657 7.764 4.618 10.071 8.149 4.077 6.227 3.821 4.053 3.977 33.845l.138 26.478-9.995-.27-.124-24.443c-.119-23.715-.151-24.509-1.124-26.601-1.457-3.156-3.688-5.459-6.744-6.958l-2.696-1.325H52.421l-2.483 1.121c-1.362.617-3.355 2.074-4.423 3.232-3.815 4.138-3.507-.489-3.773 56.824l-.237 51.216-4.035 1.101c-2.22.602-4.512 1.234-5.101 1.4l-1.069.304v-52.198c0-33.314.176-53.11.485-54.746 1.637-8.704 8.738-16.251 16.925-17.988zm103.54 99.825l19.264-18.685 9.63 9.62c5.29 5.285 9.622 9.783 9.625 9.99 0 .37-8.334 8.534-8.956 8.772-.174.062-2.55-2.125-5.282-4.866l-4.969-4.988-19.15 19.132-19.061-19.36-10.456 10.427-9.245-9.245 19.687-19.691 18.913 18.894zm120.3 1.965c.113-11.989-15.018-17.471-22.502-8.159-2.013 2.506-2.753 4.694-2.777 8.178-.023 4.864 3.285 9.952 7.741 11.888.817.361 2.995.661 4.836.67 7.395.043 12.63-5.145 12.702-12.577zM156.654 98.415c3.522-.92 10.56-1.025 13.707-.204 5.61 1.457 10.703 4.519 14.58 8.762 2.919 3.189 4.556 6.022 6.198 10.73 1.078 3.08 1.244 4.324 1.24 9.255 0 4.808-.186 6.213-1.163 9.018l-1.159 3.322-17.308.256-24.22-.185c-.002.09-2.536.166-5.629.166h-5.634l-.758-2.016c-1.889-5.036-2.289-11.966-1.002-17.443 2.42-10.308 10.892-18.984 21.148-21.66zm-54.395-59.824c2.207-2.117 4.433-2.444 7.618-1.125 1.39.574 6.972 3.402 12.401 6.283a38655.853 38655.853 0 0077.034 40.717c5.088 2.677 10.323 5.463 11.628 6.19 1.305.72 13.052 6.914 26.104 13.763 32.544 17.067 31.371 16.393 32.51 18.747.522 1.073.955 2.477.955 3.113.004.632-1.32 3.878-2.938 7.205l-2.943 6.051H242.55l-1.391-2.016c-.764-1.111-1.733-3.038-2.16-4.287-.949-2.809-.997-8.12-.09-10.688l.679-1.922-10.527-5.562a3639.385 3639.385 0 01-13.375-7.091c-1.566-.845-7.546-3.991-13.289-7a6091.235 6091.235 0 01-18.035-9.479c-4.177-2.212-19.208-10.152-33.403-17.655l-25.809-13.64-2.094 2.392c-4.039 4.618-10.882 6.706-16.767 5.116-1.431-.388-2.626-.668-2.649-.627a7206.1 7206.1 0 01-9.962 19.066 8058.31 8058.31 0 00-7.963 15.172l-4.965 9.479 2.469 2.387c4.935 4.774 6.093 9.64 4.304 18.097-.303 1.452-.247 1.5 3.905 3.65 2.321 1.196 5.17 2.719 6.337 3.388l2.117 1.21H70.93l-6.392-3.483c-3.517-1.922-6.797-4.03-7.29-4.689-.494-.66-1.007-2.169-1.14-3.346-.232-2.046.158-2.91 8.297-18.448 4.694-8.966 14.78-28.259 22.406-42.876 9.373-17.963 14.385-27.066 15.448-28.092zM228.297 8.832c.516-.484 38.281-2.966 39.568-2.6 1.808.517 4.423 3.065 4.751 4.636.233 1.125.811 8.34 2.876 35.881a90203.4 90203.4 0 002.601 34.646 20546.97 20546.97 0 012.629 35.359c.409 5.615.945 12.658 1.187 15.662.247 3.004.45 5.833.45 6.289.009.74-.542.83-5.012.83-2.759 0-4.941-.161-4.85-.355.099-.195 1.22-2.45 2.492-5.008 2.112-4.252 2.316-4.95 2.325-8.068.024-5.98-2.733-9.763-9.99-13.688-4.29-2.321-4.367-2.397-4.613-4.353-.133-1.094-1.296-16.36-2.573-33.924-1.28-17.558-2.429-32.024-2.548-32.16-.124-.118-1.486-.446-3.029-.726-3.355-.612-6.16-2.145-8.244-4.523-1.661-1.888-3.34-5.372-3.341-6.92 0-.915-.194-.944-4.152-.64l-4.153.322-3.289-10.232c-1.809-5.629-3.194-10.318-3.085-10.428zm-81.878 107.409l4.171 13.102 4.405-1.266 2.781 8.735 8.81-2.531 1.39 4.367 13.215-3.794-5.561-17.469-8.81 2.53-2.781-8.734-17.62 5.06zm17.511 9.072l8.685-2.295 2.781 8.733-4.405 1.266-1.391-4.368-8.809 2.531-2.782-8.735-4.405 1.265-1.39-4.367 8.81-2.53 2.906 8.5zM212.958 0c2.767 0 5.737 2.796 6.928 6.512 1.121 3.512 24.652 75.525 28.392 86.901 1.832 5.567 3.251 10.204 3.151 10.299-.1.099-4.5-2.103-9.777-4.898l-9.597-5.079-5.491-16.848c-3.023-9.265-7.205-22.084-9.298-28.482l-3.8-11.637-3.48.175c-6.103.309-11.167-2.392-13.621-7.261-.532-1.054-1.006-1.97-1.059-2.032-.178-.11-44.784 14.951-45.396 15.33-.237.148-.432 1.748-.432 3.56 0 1.813-.123 3.294-.275 3.294-.392-.006-31.191-16.16-31.694-16.621-.84-.779 2.394-2.042 22.259-8.719 20.541-6.9 56.569-19.126 66.64-22.614 2.99-1.035 5.937-1.88 6.55-1.88z" fill="#000"/><path d="M32.673 280.195c20.175-8.723 43.573-4.157 59.212 11.557 16.008 16.08 20.227 40.233 10.612 60.75-7.59 16.189-23.66 27.992-41.5 30.475-4.827.669-11.434.569-16.318-.252-13.573-2.274-27.503-11.144-35.106-22.344-2.459-3.626-5.885-10.523-7.143-14.391-4.233-12.999-2.886-28.172 3.65-41.148 5.268-10.47 15.302-19.763 26.593-24.647zm29.477 29.089c-.294-14.599.318-13.602-8.382-13.602-5.633 0-5.95.052-7.066 1.163-1.296 1.3-1.4 2.567-1.4 17.109v7.119l-23.104.475-1.145 1.334c-1.058 1.229-1.143 1.718-1.143 6.502 0 5.486.432 7.162 2.07 8.012.64.336 5.116.574 12.158.645l11.145.118.075 10.679c.09 13.336-.028 12.173 1.344 13.55 1.115 1.11 1.433 1.163 7.066 1.163 8.7 0 8.088.996 8.382-13.603l.237-11.789 11.495-.237c14.528-.299 13.66.228 13.66-8.306 0-8.533.868-8.006-13.66-8.305l-11.495-.238-.237-11.789zm238.254-2.311c0 21.441-.118 25.979-.73 28.329-1.87 7.181-7.234 12.767-14.391 14.978-2.947.912-4.875.931-88.367.931h-85.359l.636-1.542c.351-.85 1.006-3.091 1.462-4.98l.83-3.435 166.223-.247 1.988-1.064c2.601-1.39 5.027-3.924 6.403-6.686l1.101-2.217.275-49.597h9.929v25.53zM51.851 164.671c1.5-.916 3.1-.93 114.557-.812l113.037.119 1.286 1.186c2.596 2.392 2.587 2.316 2.587 27.75v23.508l-13.882.01c-16.198.009-18.301.313-24.969 3.621-10.399 5.164-16.902 15.372-17.504 27.479-.29 5.753.802 10.817 3.517 16.351 2.43 4.959 8.396 10.897 13.683 13.621 6.597 3.398 7.646 3.565 24.324 3.811l14.831.218v23.807c0 26.407.033 26.113-3.133 27.94-1.395.807-5.674.854-83.175.968l-81.704.114v-5.277c0-26.008-16.995-49.516-41.784-57.803-6.659-2.226-12.207-3.128-19.274-3.128h-5.88l.128-49.715c.118-46.824.175-49.806.982-51.277.47-.864 1.538-1.983 2.373-2.491zm43.284 83.075l27.76 27.755 10.532-10.432 9.093 9.374c5.002 5.154 9.41 9.372 9.801 9.373.389 0 4.879-4.167 9.972-9.254l9.269-9.26 4.969 4.988c2.728 2.737 5.181 4.981 5.448 4.983.427 0 26.873-26.734 27.182-27.479.066-.157-8.383-8.791-18.776-19.18l-18.899-18.893-19.227 18.727-18.922-18.903-38.201 38.201zm185.81-24.442c26.061 0 26.36.009 28.239 1.02 2.202 1.187 3.564 2.577 4.808 4.912.821 1.538.888 3 .888 19.697 0 17.774-.015 18.063-1.064 20.023-1.182 2.216-3.331 4.011-5.77 4.827-2.611.873-52.189.688-55.525-.209-3.963-1.068-8.017-3.469-11.177-6.635-13.441-13.436-8.045-36.279 10.047-42.525l3.213-1.11h26.341zM48.71 147.124c1.54-.327 40.59-.446 118.566-.36l116.279.128 2.701 1.091c4.1 1.657 7.764 4.618 10.071 8.149 4.077 6.227 3.821 4.053 3.977 33.845l.138 26.478-9.995-.27-.124-24.443c-.119-23.715-.151-24.509-1.124-26.601-1.457-3.156-3.688-5.459-6.744-6.958l-2.696-1.325H52.421l-2.483 1.121c-1.362.617-3.355 2.074-4.423 3.232-3.815 4.138-3.507-.489-3.773 56.824l-.237 51.216-4.035 1.101c-2.22.602-4.512 1.234-5.101 1.4l-1.069.304v-52.198c0-33.314.176-53.11.485-54.746 1.637-8.704 8.738-16.251 16.925-17.988zm103.54 99.825l19.264-18.685 9.63 9.62c5.29 5.285 9.622 9.783 9.625 9.99 0 .37-8.334 8.534-8.956 8.772-.174.062-2.55-2.125-5.282-4.866l-4.969-4.988-19.15 19.132-19.061-19.36-10.456 10.427-9.245-9.245 19.687-19.691 18.913 18.894zm120.3 1.965c.113-11.989-15.018-17.471-22.502-8.159-2.013 2.506-2.753 4.694-2.777 8.178-.023 4.864 3.285 9.952 7.741 11.888.817.361 2.995.661 4.836.67 7.395.043 12.63-5.145 12.702-12.577zM156.654 98.415c3.522-.92 10.56-1.025 13.707-.204 5.61 1.457 10.703 4.519 14.58 8.762 2.919 3.189 4.556 6.022 6.198 10.73 1.078 3.08 1.244 4.324 1.24 9.255 0 4.808-.186 6.213-1.163 9.018l-1.159 3.322-17.308.256-24.22-.185c-.002.09-2.536.166-5.629.166h-5.634l-.758-2.016c-1.889-5.036-2.289-11.966-1.002-17.443 2.42-10.308 10.892-18.984 21.148-21.66zm-54.395-59.824c2.207-2.117 4.433-2.444 7.618-1.125 1.39.574 6.972 3.402 12.401 6.283a38655.853 38655.853 0 0077.034 40.717c5.088 2.677 10.323 5.463 11.628 6.19 1.305.72 13.052 6.914 26.104 13.763 32.544 17.067 31.371 16.393 32.51 18.747.522 1.073.955 2.477.955 3.113.004.632-1.32 3.878-2.938 7.205l-2.943 6.051H242.55l-1.391-2.016c-.764-1.111-1.733-3.038-2.16-4.287-.949-2.809-.997-8.12-.09-10.688l.679-1.922-10.527-5.562a3639.385 3639.385 0 01-13.375-7.091c-1.566-.845-7.546-3.991-13.289-7a6091.235 6091.235 0 01-18.035-9.479c-4.177-2.212-19.208-10.152-33.403-17.655l-25.809-13.64-2.094 2.392c-4.039 4.618-10.882 6.706-16.767 5.116-1.431-.388-2.626-.668-2.649-.627a7206.1 7206.1 0 01-9.962 19.066 8058.31 8058.31 0 00-7.963 15.172l-4.965 9.479 2.469 2.387c4.935 4.774 6.093 9.64 4.304 18.097-.303 1.452-.247 1.5 3.905 3.65 2.321 1.196 5.17 2.719 6.337 3.388l2.117 1.21H70.93l-6.392-3.483c-3.517-1.922-6.797-4.03-7.29-4.689-.494-.66-1.007-2.169-1.14-3.346-.232-2.046.158-2.91 8.297-18.448 4.694-8.966 14.78-28.259 22.406-42.876 9.373-17.963 14.385-27.066 15.448-28.092zM228.297 8.832c.516-.484 38.281-2.966 39.568-2.6 1.808.517 4.423 3.065 4.751 4.636.233 1.125.811 8.34 2.876 35.881a90203.4 90203.4 0 002.601 34.646 20546.97 20546.97 0 012.629 35.359c.409 5.615.945 12.658 1.187 15.662.247 3.004.45 5.833.45 6.289.009.74-.542.83-5.012.83-2.759 0-4.941-.161-4.85-.355.099-.195 1.22-2.45 2.492-5.008 2.112-4.252 2.316-4.95 2.325-8.068.024-5.98-2.733-9.763-9.99-13.688-4.29-2.321-4.367-2.397-4.613-4.353-.133-1.094-1.296-16.36-2.573-33.924-1.28-17.558-2.429-32.024-2.548-32.16-.124-.118-1.486-.446-3.029-.726-3.355-.612-6.16-2.145-8.244-4.523-1.661-1.888-3.34-5.372-3.341-6.92 0-.915-.194-.944-4.152-.64l-4.153.322-3.289-10.232c-1.809-5.629-3.194-10.318-3.085-10.428zm-81.878 107.409l4.171 13.102 4.405-1.266 2.781 8.735 8.81-2.531 1.39 4.367 13.215-3.794-5.561-17.469-8.81 2.53-2.781-8.734-17.62 5.06zm17.511 9.072l8.685-2.295 2.781 8.733-4.405 1.266-1.391-4.368-8.809 2.531-2.782-8.735-4.405 1.265-1.39-4.367 8.81-2.53 2.906 8.5zM212.958 0c2.767 0 5.737 2.796 6.928 6.512 1.121 3.512 24.652 75.525 28.392 86.901 1.832 5.567 3.251 10.204 3.151 10.299-.1.099-4.5-2.103-9.777-4.898l-9.597-5.079-5.491-16.848c-3.023-9.265-7.205-22.084-9.298-28.482l-3.8-11.637-3.48.175c-6.103.309-11.167-2.392-13.621-7.261-.532-1.054-1.006-1.97-1.059-2.032-.178-.11-44.784 14.951-45.396 15.33-.237.148-.432 1.748-.432 3.56 0 1.813-.123 3.294-.275 3.294-.392-.006-31.191-16.16-31.694-16.621-.84-.779 2.394-2.042 22.259-8.719 20.541-6.9 56.569-19.126 66.64-22.614 2.99-1.035 5.937-1.88 6.55-1.88z" fill="url(#paint0_linear_6046_10012)"/><defs><linearGradient id="paint0_linear_6046_10012" x1="157.441" y1="0" x2="157.441" y2="383.417" gradientUnits="userSpaceOnUse"><stop stop-color="#878AA4"/><stop offset="1" stop-color="#5B5D76"/></linearGradient></defs></svg>