<svg width="378" height="330" fill="none" xmlns="http://www.w3.org/2000/svg"><g filter="url(#filter0_iin_2034_4983)" clip-path="url(#clip0_2034_4983)"><path d="M-309.168 51.293c4.196-2.425 8.749-3.802 13.555-3.118 4.81.684 9.248 3.343 13.385 7.766 8.106 8.666 15.981 25.104 24.293 51.703 8.12 25.983 19.672 40.219 32.484 46.857 12.799 6.632 27.729 6.132 43.6.739 31.942-10.852 65.653-40.857 87.435-65.442a4 4 0 015.988 5.305c-22.025 24.859-56.878 56.171-90.849 67.712-17.085 5.805-34.449 6.771-49.855-1.211-15.393-7.976-27.957-24.435-36.438-51.575-8.289-26.524-15.739-41.395-22.499-48.623-3.296-3.523-6.176-4.956-8.671-5.311-2.5-.356-5.238.282-8.424 2.124-6.62 3.827-13.721 11.954-21.98 22.173-8.018 9.922-16.916 21.52-26.818 31.203-21.37 23.909-58.032 52.093-98.666 58.201-20.461 3.075-41.933.546-62.8-10.951-20.827-11.476-40.76-31.722-58.489-63.587a4 4 0 016.99-3.89c17.202 30.917 36.17 49.897 55.36 60.47 19.15 10.551 38.813 12.893 57.75 10.047 38.108-5.728 73.252-32.497 93.972-55.712l.092-.104.099-.095c9.509-9.28 18.043-20.408 26.289-30.61 8.034-9.942 16.053-19.363 24.197-24.071z" fill="#141425"/><path d="M-309.168 51.293c4.196-2.425 8.749-3.802 13.555-3.118 4.81.684 9.248 3.343 13.385 7.766 8.106 8.666 15.981 25.104 24.293 51.703 8.12 25.983 19.672 40.219 32.484 46.857 12.799 6.632 27.729 6.132 43.6.739 31.942-10.852 65.653-40.857 87.435-65.442a4 4 0 015.988 5.305c-22.025 24.859-56.878 56.171-90.849 67.712-17.085 5.805-34.449 6.771-49.855-1.211-15.393-7.976-27.957-24.435-36.438-51.575-8.289-26.524-15.739-41.395-22.499-48.623-3.296-3.523-6.176-4.956-8.671-5.311-2.5-.356-5.238.282-8.424 2.124-6.62 3.827-13.721 11.954-21.98 22.173-8.018 9.922-16.916 21.52-26.818 31.203-21.37 23.909-58.032 52.093-98.666 58.201-20.461 3.075-41.933.546-62.8-10.951-20.827-11.476-40.76-31.722-58.489-63.587a4 4 0 016.99-3.89c17.202 30.917 36.17 49.897 55.36 60.47 19.15 10.551 38.813 12.893 57.75 10.047 38.108-5.728 73.252-32.497 93.972-55.712l.092-.104.099-.095c9.509-9.28 18.043-20.408 26.289-30.61 8.034-9.942 16.053-19.363 24.197-24.071z" fill="#050917" fill-opacity=".61"/><path d="M240.928 4.372c2.507-2.704 6.148-5.26 10.567-4.087 3.993 1.06 6.876 4.811 9.181 9.408 4.774 9.524 9.452 27.653 14.435 57.402 4.975 29.702 12.075 45.761 19.555 52.992 3.589 3.469 7.179 4.826 10.761 4.852 3.701.026 7.852-1.369 12.413-4.26 9.196-5.829 18.928-17.007 28.125-30.524 9.131-13.42 17.478-28.762 24-42.496a4 4 0 117.226 3.432C370.544 65.088 362 80.808 352.579 94.655c-9.356 13.751-19.838 26.05-30.457 32.781-5.346 3.388-11.004 5.544-16.753 5.503-5.869-.043-11.373-2.373-16.264-7.1-9.478-9.163-16.877-27.535-21.883-57.423-4.999-29.842-9.535-46.832-13.699-55.137-2.164-4.316-3.681-5.155-4.081-5.261-.067-.018-.207-.06-.589.118-.46.212-1.153.697-2.059 1.675-1.834 1.977-3.878 5.233-6.146 9.635-2.237 4.344-4.552 9.524-6.999 15.172-4.833 11.16-10.17 24.139-16.117 34.982-6.628 13.794-19.964 30.965-36.732 46.74-16.844 15.846-37.453 30.571-58.762 39.149-21.289 8.571-43.757 11.181-63.812 1.95-20.102-9.253-36.789-29.943-47.48-65.795a4 4 0 017.665-2.288c10.31 34.573 25.888 52.865 43.16 60.815 17.317 7.971 37.33 6.008 57.48-2.104 20.129-8.103 39.915-22.169 56.267-37.553 16.381-15.41 29.015-31.857 35.056-44.485l.049-.101.054-.098c5.732-10.435 10.881-22.964 15.832-34.391 2.451-5.66 4.857-11.055 7.227-15.656 2.34-4.542 4.787-8.602 7.392-11.41z" fill="#141425"/><path d="M240.928 4.372c2.507-2.704 6.148-5.26 10.567-4.087 3.993 1.06 6.876 4.811 9.181 9.408 4.774 9.524 9.452 27.653 14.435 57.402 4.975 29.702 12.075 45.761 19.555 52.992 3.589 3.469 7.179 4.826 10.761 4.852 3.701.026 7.852-1.369 12.413-4.26 9.196-5.829 18.928-17.007 28.125-30.524 9.131-13.42 17.478-28.762 24-42.496a4 4 0 117.226 3.432C370.544 65.088 362 80.808 352.579 94.655c-9.356 13.751-19.838 26.05-30.457 32.781-5.346 3.388-11.004 5.544-16.753 5.503-5.869-.043-11.373-2.373-16.264-7.1-9.478-9.163-16.877-27.535-21.883-57.423-4.999-29.842-9.535-46.832-13.699-55.137-2.164-4.316-3.681-5.155-4.081-5.261-.067-.018-.207-.06-.589.118-.46.212-1.153.697-2.059 1.675-1.834 1.977-3.878 5.233-6.146 9.635-2.237 4.344-4.552 9.524-6.999 15.172-4.833 11.16-10.17 24.139-16.117 34.982-6.628 13.794-19.964 30.965-36.732 46.74-16.844 15.846-37.453 30.571-58.762 39.149-21.289 8.571-43.757 11.181-63.812 1.95-20.102-9.253-36.789-29.943-47.48-65.795a4 4 0 017.665-2.288c10.31 34.573 25.888 52.865 43.16 60.815 17.317 7.971 37.33 6.008 57.48-2.104 20.129-8.103 39.915-22.169 56.267-37.553 16.381-15.41 29.015-31.857 35.056-44.485l.049-.101.054-.098c5.732-10.435 10.881-22.964 15.832-34.391 2.451-5.66 4.857-11.055 7.227-15.656 2.34-4.542 4.787-8.602 7.392-11.41z" fill="#050917" fill-opacity=".61"/><path d="M-361.289 113.46c3.999-4.368 8.88-7.479 14.733-7.166 5.722.305 11.16 3.835 16.469 9.766 10.593 11.837 22.864 35.726 38.102 75.878 15.148 39.916 31.549 60.8 47.508 69.245 15.535 8.22 31.63 5.105 47.852-5.807 16.329-10.984 32.206-29.552 46.401-50.873 14.154-21.258 26.442-44.957 35.678-65.89a4 4 0 017.319 3.229c-9.375 21.25-21.874 45.372-36.337 67.095-14.422 21.66-30.992 41.235-48.596 53.076-17.711 11.914-37.034 16.307-56.059 6.241-18.599-9.842-35.898-33.039-51.245-73.478-15.258-40.203-27.095-62.777-36.584-73.38-4.733-5.288-8.332-6.974-10.934-7.113-2.472-.132-5.206 1.083-8.406 4.579-3.206 3.501-6.396 8.786-9.677 15.53-3.259 6.701-6.483 14.578-9.839 23.106-6.651 16.898-13.811 36.344-22.52 52.975-9.075 20.357-22.088 42.893-38.227 62.369-16.144 19.481-35.627 36.156-57.666 44.301-22.218 8.211-46.776 7.645-72.487-6.947-25.537-14.494-51.988-42.686-78.666-89.25a4 4 0 016.942-3.978c26.313 45.928 51.876 72.764 75.673 86.27 23.621 13.406 45.716 13.811 65.765 6.402 20.228-7.476 38.628-23.016 54.279-41.903 15.623-18.853 28.297-40.789 37.136-60.643l.052-.117.059-.113c8.475-16.161 15.442-35.086 22.216-52.297 3.364-8.545 6.684-16.672 10.089-23.673 3.384-6.957 6.976-13.072 10.97-17.434z" fill="#141425"/><path d="M-361.289 113.46c3.999-4.368 8.88-7.479 14.733-7.166 5.722.305 11.16 3.835 16.469 9.766 10.593 11.837 22.864 35.726 38.102 75.878 15.148 39.916 31.549 60.8 47.508 69.245 15.535 8.22 31.63 5.105 47.852-5.807 16.329-10.984 32.206-29.552 46.401-50.873 14.154-21.258 26.442-44.957 35.678-65.89a4 4 0 017.319 3.229c-9.375 21.25-21.874 45.372-36.337 67.095-14.422 21.66-30.992 41.235-48.596 53.076-17.711 11.914-37.034 16.307-56.059 6.241-18.599-9.842-35.898-33.039-51.245-73.478-15.258-40.203-27.095-62.777-36.584-73.38-4.733-5.288-8.332-6.974-10.934-7.113-2.472-.132-5.206 1.083-8.406 4.579-3.206 3.501-6.396 8.786-9.677 15.53-3.259 6.701-6.483 14.578-9.839 23.106-6.651 16.898-13.811 36.344-22.52 52.975-9.075 20.357-22.088 42.893-38.227 62.369-16.144 19.481-35.627 36.156-57.666 44.301-22.218 8.211-46.776 7.645-72.487-6.947-25.537-14.494-51.988-42.686-78.666-89.25a4 4 0 016.942-3.978c26.313 45.928 51.876 72.764 75.673 86.27 23.621 13.406 45.716 13.811 65.765 6.402 20.228-7.476 38.628-23.016 54.279-41.903 15.623-18.853 28.297-40.789 37.136-60.643l.052-.117.059-.113c8.475-16.161 15.442-35.086 22.216-52.297 3.364-8.545 6.684-16.672 10.089-23.673 3.384-6.957 6.976-13.072 10.97-17.434z" fill="#050917" fill-opacity=".61"/><path d="M223.436 80.937c2.155-1.56 4.726-2.448 7.299-1.801 2.332.586 4.043 2.292 5.357 4.317 1.347 2.074 2.532 4.88 3.608 8.365 4.27 13.829 7.622 41.152 10.072 87.109 1.22 22.883 3.415 40.668 6.36 54.123 2.956 13.505 6.618 22.4 10.613 27.724 3.946 5.258 7.949 6.724 11.722 6.309 3.983-.439 8.797-3.077 14.432-8.347 11.288-10.559 23.742-29.669 35.757-52.243 11.936-22.424 23.167-47.738 32.127-70.252.863-2.168 3.201-3.543 5.224-3.069 2.022.474 2.961 2.616 2.099 4.784-9.049 22.737-20.428 48.399-32.582 71.235-12.075 22.686-25.192 43.121-37.837 54.948-6.331 5.922-13.076 10.188-19.851 10.933-6.983.769-12.939-2.302-17.761-8.728-4.774-6.361-8.694-16.301-11.739-30.211-3.055-13.96-5.283-32.17-6.516-55.292-2.455-46.053-5.791-72.5-9.769-85.385-.986-3.192-1.959-5.374-2.866-6.77-.866-1.335-1.476-1.65-1.649-1.712a1.99 1.99 0 00-.318.197c-.611.442-1.562 1.414-2.812 3.231-2.478 3.605-5.273 9.248-8.364 16.529-3.061 7.209-6.29 15.724-9.691 24.914-6.754 18.247-14.181 39.144-22.066 56.794-8.837 22.048-22.435 44.413-38.469 62.192-15.999 17.742-34.836 31.356-54.08 34.945-19.513 3.64-38.419-3.207-54.312-24.269C21.61 240.552 8.562 205.305.38 151.314c-.317-2.097 1.189-4.385 3.364-5.111 2.176-.726 4.197.385 4.515 2.483 8.104 53.49 20.92 87.486 35.825 107.237 14.825 19.646 31.49 24.973 47.67 21.955 16.45-3.068 33.432-14.941 48.646-31.812 15.161-16.812 28.159-38.154 36.6-59.24l.036-.088.039-.089c7.733-17.293 15.023-37.812 21.868-56.304 3.404-9.197 6.7-17.897 9.857-25.332 3.127-7.364 6.242-13.796 9.338-18.298 1.538-2.236 3.291-4.326 5.297-5.778z" fill="#141425"/><path d="M223.436 80.937c2.155-1.56 4.726-2.448 7.299-1.801 2.332.586 4.043 2.292 5.357 4.317 1.347 2.074 2.532 4.88 3.608 8.365 4.27 13.829 7.622 41.152 10.072 87.109 1.22 22.883 3.415 40.668 6.36 54.123 2.956 13.505 6.618 22.4 10.613 27.724 3.946 5.258 7.949 6.724 11.722 6.309 3.983-.439 8.797-3.077 14.432-8.347 11.288-10.559 23.742-29.669 35.757-52.243 11.936-22.424 23.167-47.738 32.127-70.252.863-2.168 3.201-3.543 5.224-3.069 2.022.474 2.961 2.616 2.099 4.784-9.049 22.737-20.428 48.399-32.582 71.235-12.075 22.686-25.192 43.121-37.837 54.948-6.331 5.922-13.076 10.188-19.851 10.933-6.983.769-12.939-2.302-17.761-8.728-4.774-6.361-8.694-16.301-11.739-30.211-3.055-13.96-5.283-32.17-6.516-55.292-2.455-46.053-5.791-72.5-9.769-85.385-.986-3.192-1.959-5.374-2.866-6.77-.866-1.335-1.476-1.65-1.649-1.712a1.99 1.99 0 00-.318.197c-.611.442-1.562 1.414-2.812 3.231-2.478 3.605-5.273 9.248-8.364 16.529-3.061 7.209-6.29 15.724-9.691 24.914-6.754 18.247-14.181 39.144-22.066 56.794-8.837 22.048-22.435 44.413-38.469 62.192-15.999 17.742-34.836 31.356-54.08 34.945-19.513 3.64-38.419-3.207-54.312-24.269C21.61 240.552 8.562 205.305.38 151.314c-.317-2.097 1.189-4.385 3.364-5.111 2.176-.726 4.197.385 4.515 2.483 8.104 53.49 20.92 87.486 35.825 107.237 14.825 19.646 31.49 24.973 47.67 21.955 16.45-3.068 33.432-14.941 48.646-31.812 15.161-16.812 28.159-38.154 36.6-59.24l.036-.088.039-.089c7.733-17.293 15.023-37.812 21.868-56.304 3.404-9.197 6.7-17.897 9.857-25.332 3.127-7.364 6.242-13.796 9.338-18.298 1.538-2.236 3.291-4.326 5.297-5.778z" fill="#050917" fill-opacity=".61"/><path d="M198.518 87.43c3.153-2.144 6.636-3.633 10.26-3.542 3.627.091 6.767 1.747 9.503 4.609 5.318 5.563 9.965 16.59 14.377 34.441 4.269 17.273 11.371 25.916 19.441 29.325 8.049 3.4 17.904 1.948 28.836-3.021 22.073-10.033 46.418-33.471 62.485-52.34 1.559-1.83 4.08-2.3 5.63-1.046 1.55 1.254 1.542 3.756-.018 5.587-16.319 19.165-41.889 44.061-66.037 55.037-12.179 5.535-24.512 7.755-35.075 3.293-10.541-4.453-18.477-15.208-23.015-33.571-4.396-17.785-8.736-27.304-12.832-31.59-1.972-2.062-3.648-2.656-4.974-2.689-1.329-.033-2.938.48-5.046 1.914-4.474 3.043-9.576 9.071-15.763 16.914-5.93 7.518-12.638 16.397-19.945 24.02-15.892 18.517-42.601 41.399-71.12 49.096-14.41 3.889-29.279 3.892-43.274-2.52-13.955-6.394-26.761-19.036-37.434-39.904-.923-1.804-.053-4.315 1.942-5.607 1.996-1.292 4.361-.877 5.285.928 10.223 19.99 22.168 31.472 34.557 37.149 12.349 5.658 25.417 5.677 38.276 2.207 25.96-7.007 51.061-28.269 66.271-46.022l.098-.114.104-.109c6.891-7.171 13.206-15.535 19.377-23.36 5.944-7.535 12.043-14.971 18.091-19.085z" fill="#141425"/><path d="M198.518 87.43c3.153-2.144 6.636-3.633 10.26-3.542 3.627.091 6.767 1.747 9.503 4.609 5.318 5.563 9.965 16.59 14.377 34.441 4.269 17.273 11.371 25.916 19.441 29.325 8.049 3.4 17.904 1.948 28.836-3.021 22.073-10.033 46.418-33.471 62.485-52.34 1.559-1.83 4.08-2.3 5.63-1.046 1.55 1.254 1.542 3.756-.018 5.587-16.319 19.165-41.889 44.061-66.037 55.037-12.179 5.535-24.512 7.755-35.075 3.293-10.541-4.453-18.477-15.208-23.015-33.571-4.396-17.785-8.736-27.304-12.832-31.59-1.972-2.062-3.648-2.656-4.974-2.689-1.329-.033-2.938.48-5.046 1.914-4.474 3.043-9.576 9.071-15.763 16.914-5.93 7.518-12.638 16.397-19.945 24.02-15.892 18.517-42.601 41.399-71.12 49.096-14.41 3.889-29.279 3.892-43.274-2.52-13.955-6.394-26.761-19.036-37.434-39.904-.923-1.804-.053-4.315 1.942-5.607 1.996-1.292 4.361-.877 5.285.928 10.223 19.99 22.168 31.472 34.557 37.149 12.349 5.658 25.417 5.677 38.276 2.207 25.96-7.007 51.061-28.269 66.271-46.022l.098-.114.104-.109c6.891-7.171 13.206-15.535 19.377-23.36 5.944-7.535 12.043-14.971 18.091-19.085z" fill="#050917" fill-opacity=".61"/></g><defs><clipPath id="clip0_2034_4983"><path fill="#fff" d="M0 0h378v330H0z"/></clipPath><filter id="filter0_iin_2034_4983" x="-645" y="-4.007" width="1024.58" height="327.463" filterUnits="userSpaceOnUse" color-interpolation-filters="sRGB"><feFlood flood-opacity="0" result="BackgroundImageFix"/><feBlend in="SourceGraphic" in2="BackgroundImageFix" result="shape"/><feColorMatrix in="SourceAlpha" values="0 0 0 0 0 0 0 0 0 0 0 0 0 0 0 0 0 0 127 0" result="hardAlpha"/><feOffset dy="-6"/><feGaussianBlur stdDeviation="2"/><feComposite in2="hardAlpha" operator="arithmetic" k2="-1" k3="1"/><feColorMatrix values="0 0 0 0 0 0 0 0 0 0 0 0 0 0 0 0 0 0 0.25 0"/><feBlend in2="shape" result="effect1_innerShadow_2034_4983"/><feColorMatrix in="SourceAlpha" values="0 0 0 0 0 0 0 0 0 0 0 0 0 0 0 0 0 0 127 0" result="hardAlpha"/><feOffset dx="2" dy="1"/><feGaussianBlur stdDeviation="2"/><feComposite in2="hardAlpha" operator="arithmetic" k2="-1" k3="1"/><feColorMatrix values="0 0 0 0 0.25098 0 0 0 0 0.317647 0 0 0 0 0.431373 0 0 0 0.36 0"/><feBlend in2="effect1_innerShadow_2034_4983" result="effect2_innerShadow_2034_4983"/><feTurbulence type="fractalNoise" baseFrequency="0.050505053251981735 0.050505053251981735" stitchTiles="stitch" numOctaves="3" result="noise" seed="3831"/><feColorMatrix in="noise" type="luminanceToAlpha" result="alphaNoise"/><feComponentTransfer in="alphaNoise" result="coloredNoise1"><feFuncA type="discrete" tableValues="1 1 1 1 1 1 1 1 1 1 1 1 1 1 1 1 1 1 1 1 1 1 1 1 1 1 1 1 1 1 1 1 1 1 1 1 1 1 1 1 1 1 1 1 1 1 1 1 1 1 1 0 0 0 0 0 0 0 0 0 0 0 0 0 0 0 0 0 0 0 0 0 0 0 0 0 0 0 0 0 0 0 0 0 0 0 0 0 0 0 0 0 0 0 0 0 0 0 0 0"/></feComponentTransfer><feComposite operator="in" in2="effect2_innerShadow_2034_4983" in="coloredNoise1" result="noise1Clipped"/><feFlood flood-color="rgba(29, 29, 45, 0.29)" result="color1Flood"/><feComposite operator="in" in2="noise1Clipped" in="color1Flood" result="color1"/><feMerge result="effect3_noise_2034_4983"><feMergeNode in="effect2_innerShadow_2034_4983"/><feMergeNode in="color1"/></feMerge></filter></defs></svg>