<svg width="104" height="32" fill="none" xmlns="http://www.w3.org/2000/svg"><path d="M71.17 31.314V17.281h11.288v3.288H75.02v2.145h6.736v3.067H75.02v2.226h7.538v3.307H71.171zm-15.349 0V17.281h5.433c4.992 0 7.9 2.867 7.9 6.936v.04c0 4.07-2.948 7.057-7.98 7.057h-5.353zm5.473-10.605h-1.583v7.157h1.583c2.346 0 3.89-1.283 3.89-3.548v-.04c0-2.266-1.544-3.57-3.89-3.57zM46.237 31.595c-4.33 0-7.538-3.248-7.538-7.257v-.04c0-4.03 3.248-7.298 7.578-7.298s7.538 3.248 7.538 7.257v.04c0 4.03-3.247 7.298-7.578 7.298zm.04-3.508c2.125 0 3.549-1.724 3.549-3.75v-.04c0-2.044-1.444-3.789-3.589-3.789s-3.569 1.725-3.569 3.75v.04c0 2.004 1.464 3.789 3.61 3.789zm-24.522 3.227V17.281h4.11l3.348 5.433 3.348-5.433h4.11v14.033H32.8v-8.059l-3.588 5.493h-.08l-3.569-5.473v8.04h-3.81zm58.052-16.719c-4.01 0-7.238-3.067-7.238-7.257v-.04C72.57 3.208 75.697 0 79.947 0c2.847 0 4.731 1.203 5.954 2.907l-2.927 2.265c-.802-.982-1.704-1.644-3.067-1.644-1.965 0-3.348 1.685-3.348 3.73v.04c0 2.105 1.383 3.749 3.348 3.749 1.464 0 2.306-.682 3.168-1.705l2.927 2.085c-1.343 1.825-3.108 3.168-6.195 3.168zm-13.235-.281V.281h3.89v14.033h-3.89zm-8.352.281c-4.39 0-7.617-2.987-7.617-7.257v-.04C50.603 3.208 53.81 0 58.14 0c2.486 0 4.19.742 5.693 2.025L61.55 4.792c-1.023-.863-1.965-1.324-3.388-1.324-2.005 0-3.589 1.684-3.589 3.83v.04c0 2.285 1.584 3.909 3.81 3.909.962 0 1.683-.2 2.245-.581V8.962H57.88V6.115h6.435v6.295c-1.503 1.263-3.508 2.185-6.094 2.185zm-23.295-.281L40.879.18h3.75l5.974 14.134h-4.17l-1.003-2.526h-5.433l-1.002 2.526h-4.07zm6.215-5.553h3.147l-1.563-3.97-1.584 3.97zm-22.518 5.553V.281h4.11l3.348 5.433L29.428.28h4.11v14.033H29.67V6.255l-3.589 5.493H26l-3.568-5.473v8.04h-3.81z" fill="#83DD16"/><path d="M74.393 19.942h7.439v-2.035H71.797v12.78h10.134v-2.054h-7.538v-3.479h6.736V23.34h-6.736v-3.398zm.627 2.772h6.736v3.067H75.02v2.226h7.538v3.307H71.171V17.281h11.287v3.288H75.02v2.145zm-6.493 1.504c0-1.88-.667-3.438-1.872-4.532-1.135-1.029-2.799-1.692-4.961-1.771l-.44-.008h-4.806v12.78h4.726v.627h-5.353V17.281h5.433l.462.008c4.71.172 7.437 2.986 7.437 6.928v.04l-.008.379c-.172 3.75-2.91 6.496-7.505 6.67l-.466.008v-.627c2.393 0 4.225-.708 5.452-1.837 1.224-1.125 1.9-2.715 1.9-4.592v-.04zm-7.233-4.136v.627h-1.583v7.157h1.583c2.273 0 3.792-1.204 3.885-3.339l.005-.21v-.04c0-2.194-1.449-3.486-3.672-3.564l-.218-.004v-.627c1.285 0 2.42.358 3.243 1.096.83.745 1.273 1.817 1.273 3.1v.04c0 1.282-.443 2.35-1.275 3.091-.823.732-1.958 1.083-3.24 1.083h-2.21v-8.41h2.21zm-8.105 4.176c0-3.65-2.914-6.631-6.912-6.631-3.999 0-6.951 3.002-6.951 6.67v.04l.008.34c.174 3.494 3.03 6.292 6.903 6.292v.626c-4.195 0-7.336-3.048-7.529-6.884l-.01-.373v-.04c0-4.03 3.249-7.298 7.58-7.298 4.33 0 7.537 3.248 7.537 7.257v.04l-.009.376c-.194 3.855-3.374 6.922-7.569 6.922v-.626c3.999 0 6.952-3.002 6.952-6.671v-.04zm-11.148 0c0-2.316 1.652-4.376 4.196-4.376 2.546 0 4.216 2.082 4.216 4.416v.04l-.005.216c-.1 2.223-1.724 4.159-4.171 4.159-2.545 0-4.235-2.121-4.236-4.415v-.04zm.628.04l.003.186c.085 1.866 1.435 3.494 3.406 3.597l.2.006c2.058 0 3.458-1.619 3.544-3.56l.004-.19v-.04c0-1.98-1.355-3.68-3.39-3.783l-.199-.006c-2.145 0-3.569 1.725-3.569 3.75v.04zm-13.456-1.584l3.348-5.433h4.11v14.033H32.8v-8.059l-3.588 5.493h-.08l-3.569-5.473v8.04h-3.81V17.28h4.11l3.349 5.433zm-6.832 7.974h2.557v-9.521l4.234 6.495 4.256-6.512v9.538h2.617v-12.78H32.91l-3.699 6-3.697-6H22.38v12.78zm53.551-23.43c0-2.31 1.588-4.356 3.975-4.356 1.378 0 2.353.586 3.147 1.415l1.963-1.52c-1.107-1.29-2.713-2.17-5.07-2.17-3.904 0-6.751 2.927-6.751 6.67v.04l.009.357c.176 3.652 3.045 6.275 6.602 6.275v.626l-.374-.01c-3.71-.177-6.667-2.997-6.854-6.858l-.01-.39v-.04C72.57 3.208 75.697 0 79.947 0c2.847 0 4.731 1.203 5.954 2.907l-2.927 2.265-.306-.353c-.728-.784-1.568-1.29-2.76-1.29-1.966 0-3.349 1.684-3.349 3.728v.04l.004.196c.08 1.946 1.354 3.454 3.161 3.549l.183.005c1.464 0 2.306-.682 3.168-1.705l2.927 2.085c-1.343 1.825-3.108 3.168-6.195 3.168v-.626c1.448 0 2.552-.314 3.442-.819.717-.406 1.316-.95 1.854-1.594l-1.934-1.378c-.34.36-.707.685-1.132.938-.603.359-1.291.557-2.13.557-2.385 0-3.975-2.004-3.975-4.375v-.04zM70.461.28v14.034h-3.889V.281h3.89zM67.2 13.688h2.636V.908H67.2v12.78zm-13.254-6.39c0-2.453 1.827-4.456 4.215-4.456 1.364 0 2.35.39 3.294 1.079l1.49-1.805c-1.276-.95-2.736-1.489-4.804-1.49-3.998 0-6.912 2.941-6.912 6.672v.04l.009.361c.175 3.698 3.032 6.27 6.983 6.27v.626l-.408-.008c-4.046-.173-7.014-2.926-7.201-6.853l-.01-.396v-.04C50.603 3.208 53.81 0 58.142 0l.457.009c2.241.086 3.827.813 5.236 2.016L61.55 4.792c-.959-.809-1.847-1.265-3.127-1.318l-.261-.006c-2.005 0-3.589 1.684-3.589 3.83v.04l.005.212c.092 2.103 1.55 3.598 3.597 3.692l.207.005c.963 0 1.684-.2 2.246-.581V8.962H57.88V6.115h6.435v6.295c-1.503 1.263-3.508 2.185-6.094 2.185v-.626c2.298 0 4.093-.775 5.468-1.859V6.741h-5.183v1.594h2.747v2.663l-.275.187c-.692.47-1.547.689-2.597.689-2.586 0-4.435-1.92-4.435-4.536v-.04zm-3.343 7.016h-4.17l-1.003-2.526h-5.433l-1.002 2.526h-4.07L40.879.18h3.75l5.974 14.134zm-14.734-.627h2.7l1.003-2.525h6.284l.156.396.846 2.13h2.8L44.212.806h-2.917l-5.426 12.88zm6.858-10.595l2.48 6.296h-4.992l2.512-6.296zm-1.587 5.67h3.147l-1.563-3.97-1.584 3.97zM26.08 5.714L29.428.28h4.11v14.033H29.67V6.255l-3.589 5.493H26l-3.568-5.473v8.04h-3.81V.28h4.11l3.348 5.433zm-6.831 7.973h2.556v-9.52l4.236 6.496 4.254-6.513v9.538h2.617V.908h-3.134l-3.697 6-3.699-6H19.25v12.78z" fill="#B3FF00"/><path d="M14.576 23.798a10.768 10.768 0 01-2.518-.734 4.749 4.749 0 001.177-3.175 4.742 4.742 0 00-1.213-3.16 4.72 4.72 0 00-1.306 2.995 4.79 4.79 0 00.923 3.153 11.273 11.273 0 01-2.774-1.876 11.903 11.903 0 01-1.457-1.617 4.486 4.486 0 002.114-2.375c.407-1.04.44-2.204.091-3.268a4.368 4.368 0 00-2.181 1.805 4.813 4.813 0 00-.705 2.843 12.386 12.386 0 01-1.665-4.699c1.076-.225 2.031-.878 2.671-1.826a4.81 4.81 0 00.773-3.275 4.198 4.198 0 00-2.23 1.056 4.622 4.622 0 00-1.333 2.171c.006-.844.096-1.686.266-2.51A4.68 4.68 0 006.651 6.47a4.824 4.824 0 00-.667-3.144 4.561 4.561 0 00-1.701 2.321 4.866 4.866 0 00-.027 2.942c-.163.68-.275 1.373-.337 2.072A4.555 4.555 0 002.37 8.586a4.148 4.148 0 00-2.369-.82 4.767 4.767 0 001.075 3.136 4.24 4.24 0 002.79 1.532 13.76 13.76 0 00.799 4.158 4.344 4.344 0 00-1.97-1.526 4.076 4.076 0 00-2.435-.149c.26 1.184.952 2.21 1.923 2.852.971.643 2.142.85 3.256.575.428.807.935 1.563 1.512 2.256a4.08 4.08 0 00-2.31-.241 4.214 4.214 0 00-2.095 1.065 4.24 4.24 0 002.803 1.54 4.135 4.135 0 003.04-.898c.796.7 1.67 1.29 2.604 1.759a4.132 4.132 0 00-2.6.776 4.562 4.562 0 00-1.657 2.265 4.079 4.079 0 003.187-.12c1.009-.47 1.81-1.334 2.239-2.413.732.276 1.486.478 2.253.603a.523.523 0 00.448-.146.6.6 0 00.055-.779.534.534 0 00-.342-.21v-.003z" fill="#000"/><path d="M14.576 23.798a10.768 10.768 0 01-2.518-.734 4.749 4.749 0 001.177-3.175 4.742 4.742 0 00-1.213-3.16 4.72 4.72 0 00-1.306 2.995 4.79 4.79 0 00.923 3.153 11.273 11.273 0 01-2.774-1.876 11.903 11.903 0 01-1.457-1.617 4.486 4.486 0 002.114-2.375c.407-1.04.44-2.204.091-3.268a4.368 4.368 0 00-2.181 1.805 4.813 4.813 0 00-.705 2.843 12.386 12.386 0 01-1.665-4.699c1.076-.225 2.031-.878 2.671-1.826a4.81 4.81 0 00.773-3.275 4.198 4.198 0 00-2.23 1.056 4.622 4.622 0 00-1.333 2.171c.006-.844.096-1.686.266-2.51A4.68 4.68 0 006.651 6.47a4.824 4.824 0 00-.667-3.144 4.561 4.561 0 00-1.701 2.321 4.866 4.866 0 00-.027 2.942c-.163.68-.275 1.373-.337 2.072A4.555 4.555 0 002.37 8.586a4.148 4.148 0 00-2.369-.82 4.767 4.767 0 001.075 3.136 4.24 4.24 0 002.79 1.532 13.76 13.76 0 00.799 4.158 4.344 4.344 0 00-1.97-1.526 4.076 4.076 0 00-2.435-.149c.26 1.184.952 2.21 1.923 2.852.971.643 2.142.85 3.256.575.428.807.935 1.563 1.512 2.256a4.08 4.08 0 00-2.31-.241 4.214 4.214 0 00-2.095 1.065 4.24 4.24 0 002.803 1.54 4.135 4.135 0 003.04-.898c.796.7 1.67 1.29 2.604 1.759a4.132 4.132 0 00-2.6.776 4.562 4.562 0 00-1.657 2.265 4.079 4.079 0 003.187-.12c1.009-.47 1.81-1.334 2.239-2.413.732.276 1.486.478 2.253.603a.523.523 0 00.448-.146.6.6 0 00.055-.779.534.534 0 00-.342-.21v-.003z" fill="#83DD16"/><path d="M5.984 3.326c.572.928.809 2.045.667 3.144a4.68 4.68 0 01-1.442 2.836c-.17.824-.26 1.666-.266 2.51.209-.74.59-1.41 1.105-1.949l.229-.222a4.198 4.198 0 012.229-1.056 4.81 4.81 0 01-.773 3.275l-.124.174a4.284 4.284 0 01-2.547 1.652 12.386 12.386 0 001.665 4.699 4.813 4.813 0 01.705-2.843 4.368 4.368 0 012.181-1.805 4.861 4.861 0 01-.091 3.268l-.08.192a4.468 4.468 0 01-2.034 2.183c.438.585.926 1.127 1.457 1.617l.318.28c.751.64 1.576 1.177 2.456 1.596a4.782 4.782 0 01-.932-2.94l.01-.213a4.72 4.72 0 011.305-2.995 4.742 4.742 0 011.213 3.16 4.749 4.749 0 01-1.177 3.175c.81.348 1.655.594 2.518.734v.003a.534.534 0 01.342.21.6.6 0 01.117.4l-.017.107a.582.582 0 01-.154.271.523.523 0 01-.368.154l-.08-.007a11.729 11.729 0 01-2.254-.603c-.43 1.08-1.23 1.943-2.24 2.414l-.19.082a4.076 4.076 0 01-2.996.037 4.562 4.562 0 011.658-2.265 4.132 4.132 0 012.599-.776 12.353 12.353 0 01-2.604-1.759 4.135 4.135 0 01-3.04.897 4.24 4.24 0 01-2.803-1.54 4.238 4.238 0 011.807-1l.288-.064a4.08 4.08 0 012.31.241 13.185 13.185 0 01-1.512-2.256 4.095 4.095 0 01-3.072-.46l-.184-.115c-.97-.642-1.662-1.668-1.923-2.852a4.076 4.076 0 012.434.149 4.344 4.344 0 011.97 1.526 13.772 13.772 0 01-.798-4.158 4.225 4.225 0 01-2.652-1.374l-.138-.159A4.767 4.767 0 01.001 7.766c.849.02 1.673.306 2.37.82a4.555 4.555 0 011.548 2.076c.062-.7.174-1.392.337-2.072a4.866 4.866 0 01.027-2.942 4.561 4.561 0 011.7-2.32zm4.98 21.125a3.507 3.507 0 00-2.206.66c-.481.343-.88.804-1.165 1.343.694.122 1.411.03 2.065-.275.858-.4 1.55-1.14 1.922-2.077l.19-.48-.53-.227-.276 1.056zm3.552-.133h.005l-.011-.001h.006zm-7.804-3.139a3.453 3.453 0 00-3.228.309 3.56 3.56 0 001.933.852 3.51 3.51 0 002.58-.763l.308-.247c-.337-.32-.656-.66-.956-1.017l-.637.866zm5.294-3.43a4.154 4.154 0 00-.664 2.015 4.188 4.188 0 00.593 2.433 4.164 4.164 0 00.673-2.304 4.173 4.173 0 00-.602-2.145zm-2.823-3.1a3.815 3.815 0 00-1.219 1.228 4.187 4.187 0 00-.611 2.472l-1.011.317c.086.143.175.284.267.422l.513-.262A3.86 3.86 0 008.94 16.78a4.23 4.23 0 00.244-2.131zm-8.112.781a3.9 3.9 0 001.458 1.816c.828.548 1.82.721 2.761.49l.327-.081a13.192 13.192 0 01-.508-1.2l-.952.503a3.718 3.718 0 00-1.685-1.307 3.455 3.455 0 00-1.4-.221zm-.4-6.951c.109.75.416 1.453.889 2.023a3.614 3.614 0 002.376 1.31l.537.06.02.54c.008.249.026.498.05.745l.39-.08a3.675 3.675 0 002.281-1.563 4.151 4.151 0 00.697-2.134 3.64 3.64 0 00-1.214.73 3.995 3.995 0 00-1.151 1.877l-1.23-.175c.003-.359.02-.717.051-1.073l-1.035.141a3.93 3.93 0 00-1.334-1.79 3.563 3.563 0 00-1.327-.611zm5.111-4.154a4.008 4.008 0 00-.904 1.517 4.241 4.241 0 00-.023 2.563l.05.164-.04.166-.01.04A4.062 4.062 0 006.03 6.39a4.23 4.23 0 00-.247-2.065z" fill="#B3FF00"/><path d="M89.424 23.798a10.73 10.73 0 002.518-.734 4.749 4.749 0 01-1.176-3.175 4.742 4.742 0 011.212-3.16 4.72 4.72 0 011.306 2.995 4.79 4.79 0 01-.923 3.153 11.273 11.273 0 002.774-1.876 11.86 11.86 0 001.457-1.617 4.486 4.486 0 01-2.114-2.375 4.861 4.861 0 01-.091-3.268c.893.331 1.66.966 2.181 1.805a4.8 4.8 0 01.704 2.843 12.385 12.385 0 001.666-4.699c-1.076-.225-2.031-.878-2.671-1.826a4.81 4.81 0 01-.773-3.275 4.198 4.198 0 012.23 1.056 4.622 4.622 0 011.333 2.171 12.865 12.865 0 00-.266-2.51 4.68 4.68 0 01-1.442-2.836 4.824 4.824 0 01.667-3.144 4.56 4.56 0 011.701 2.321 4.86 4.86 0 01.027 2.942c.163.68.275 1.373.337 2.072a4.553 4.553 0 011.549-2.075c.696-.515 1.52-.8 2.369-.82a4.773 4.773 0 01-1.075 3.136 4.241 4.241 0 01-2.79 1.532 13.766 13.766 0 01-.799 4.158c.506-.7 1.19-1.23 1.971-1.526a4.076 4.076 0 012.434-.149c-.261 1.184-.952 2.21-1.923 2.852a4.103 4.103 0 01-3.256.575 13.18 13.18 0 01-1.512 2.256 4.08 4.08 0 012.31-.241 4.22 4.22 0 012.095 1.065 4.243 4.243 0 01-2.803 1.54 4.135 4.135 0 01-3.04-.898c-.796.7-1.67 1.29-2.604 1.759a4.132 4.132 0 012.6.776 4.561 4.561 0 011.657 2.265 4.079 4.079 0 01-3.187-.12c-1.009-.47-1.81-1.334-2.239-2.413-.732.276-1.486.478-2.253.603a.523.523 0 01-.448-.146.6.6 0 01-.054-.779.534.534 0 01.34-.21v-.003z" fill="#000"/><path d="M89.424 23.798a10.73 10.73 0 002.518-.734 4.749 4.749 0 01-1.176-3.175 4.742 4.742 0 011.212-3.16 4.72 4.72 0 011.306 2.995 4.79 4.79 0 01-.923 3.153 11.273 11.273 0 002.774-1.876 11.86 11.86 0 001.457-1.617 4.486 4.486 0 01-2.114-2.375 4.861 4.861 0 01-.091-3.268c.893.331 1.66.966 2.181 1.805a4.8 4.8 0 01.704 2.843 12.385 12.385 0 001.666-4.699c-1.076-.225-2.031-.878-2.671-1.826a4.81 4.81 0 01-.773-3.275 4.198 4.198 0 012.23 1.056 4.622 4.622 0 011.333 2.171 12.865 12.865 0 00-.266-2.51 4.68 4.68 0 01-1.442-2.836 4.824 4.824 0 01.667-3.144 4.56 4.56 0 011.701 2.321 4.86 4.86 0 01.027 2.942c.163.68.275 1.373.337 2.072a4.553 4.553 0 011.549-2.075c.696-.515 1.52-.8 2.369-.82a4.773 4.773 0 01-1.075 3.136 4.241 4.241 0 01-2.79 1.532 13.766 13.766 0 01-.799 4.158c.506-.7 1.19-1.23 1.971-1.526a4.076 4.076 0 012.434-.149c-.261 1.184-.952 2.21-1.923 2.852a4.103 4.103 0 01-3.256.575 13.18 13.18 0 01-1.512 2.256 4.08 4.08 0 012.31-.241 4.22 4.22 0 012.095 1.065 4.243 4.243 0 01-2.803 1.54 4.135 4.135 0 01-3.04-.898c-.796.7-1.67 1.29-2.604 1.759a4.132 4.132 0 012.6.776 4.561 4.561 0 011.657 2.265 4.079 4.079 0 01-3.187-.12c-1.009-.47-1.81-1.334-2.239-2.413-.732.276-1.486.478-2.253.603a.523.523 0 01-.448-.146.6.6 0 01-.054-.779.534.534 0 01.34-.21v-.003z" fill="#83DD16"/><path d="M98.016 3.326a4.824 4.824 0 00-.667 3.144 4.68 4.68 0 001.442 2.836c.17.824.26 1.666.266 2.51a4.65 4.65 0 00-1.105-1.949l-.229-.222a4.198 4.198 0 00-2.229-1.056 4.81 4.81 0 00.773 3.275l.124.174a4.283 4.283 0 002.547 1.652 12.385 12.385 0 01-1.666 4.699 4.813 4.813 0 00-.704-2.843 4.369 4.369 0 00-2.181-1.805 4.861 4.861 0 00.091 3.268l.08.192a4.468 4.468 0 002.034 2.183A11.904 11.904 0 0195.135 21l-.318.28a11.24 11.24 0 01-2.456 1.596 4.782 4.782 0 00.932-2.94l-.01-.213a4.72 4.72 0 00-1.305-2.995 4.742 4.742 0 00-1.212 3.16 4.749 4.749 0 001.176 3.175 10.73 10.73 0 01-2.518.734v.003a.534.534 0 00-.342.21.6.6 0 00-.117.4l.017.107c.026.103.08.198.154.271.1.099.232.154.368.154l.08-.007a11.729 11.729 0 002.254-.603c.43 1.08 1.23 1.943 2.24 2.414l.19.082a4.07 4.07 0 002.996.037 4.561 4.561 0 00-1.658-2.265 4.132 4.132 0 00-2.599-.776 12.353 12.353 0 002.605-1.759 4.135 4.135 0 003.04.897 4.243 4.243 0 002.802-1.54 4.245 4.245 0 00-1.807-1l-.288-.064a4.08 4.08 0 00-2.31.241 13.18 13.18 0 001.512-2.256 4.095 4.095 0 003.072-.46l.184-.115c.971-.642 1.662-1.668 1.923-2.852a4.076 4.076 0 00-2.434.149 4.344 4.344 0 00-1.97 1.526 13.79 13.79 0 00.798-4.158 4.223 4.223 0 002.652-1.374l.138-.159a4.773 4.773 0 001.075-3.136 4.143 4.143 0 00-2.369.82 4.553 4.553 0 00-1.549 2.076 14.334 14.334 0 00-.337-2.072 4.86 4.86 0 00-.027-2.942 4.56 4.56 0 00-1.7-2.32zm-4.98 21.125a3.508 3.508 0 012.206.66c.481.343.88.804 1.165 1.343a3.456 3.456 0 01-2.065-.275c-.858-.4-1.55-1.14-1.922-2.077l-.19-.48.53-.227.276 1.056zm-3.552-.133h-.005l.011-.001h-.006zm7.804-3.139a3.453 3.453 0 013.228.309 3.557 3.557 0 01-1.933.852 3.509 3.509 0 01-2.58-.763l-.308-.247c.337-.32.656-.66.956-1.017l.637.866zm-5.294-3.43c.385.587.618 1.283.664 2.015a4.188 4.188 0 01-.593 2.433 4.164 4.164 0 01-.674-2.304c.005-.77.218-1.514.603-2.145zm2.823-3.1c.483.302.903.719 1.219 1.228.451.727.668 1.596.611 2.472l1.011.317c-.086.143-.175.284-.267.422l-.513-.262a3.86 3.86 0 01-1.817-2.045 4.23 4.23 0 01-.244-2.131zm8.112.781a3.909 3.909 0 01-1.458 1.816 3.479 3.479 0 01-2.761.49l-.327-.081c.189-.391.358-.791.508-1.2l.952.503a3.717 3.717 0 011.685-1.307 3.456 3.456 0 011.401-.221zm.4-6.951a4.095 4.095 0 01-.889 2.023 3.613 3.613 0 01-2.376 1.31l-.537.06-.02.54c-.008.249-.026.498-.05.745l-.39-.08a3.675 3.675 0 01-2.281-1.563 4.152 4.152 0 01-.697-2.134c.44.158.853.403 1.214.73.541.49.943 1.141 1.151 1.877l1.23-.175c-.003-.359-.02-.717-.051-1.073l1.035.141a3.927 3.927 0 011.334-1.79 3.56 3.56 0 011.327-.611zm-5.111-4.154c.401.421.714.938.904 1.517.272.828.28 1.73.023 2.563l-.05.164.04.166.01.04A4.062 4.062 0 0197.97 6.39a4.23 4.23 0 01.247-2.065z" fill="#B3FF00"/></svg>