<svg width="138" height="38" fill="none" xmlns="http://www.w3.org/2000/svg"><mask id="a" fill="#fff"><path d="M36.109 25.16 28.62 2.6h6.56l3.904 12.96 4.32-13.024h5.344l4.32 13.024L56.973 2.6h6.432l-7.488 22.56h-5.408l-4.48-12.896-4.512 12.896h-5.408ZM66.035 25V2.6h6.208V25h-6.208Zm10.308 0V2.6h5.792l9.216 11.84V2.6h6.144V25h-5.408l-9.6-12.288V25h-6.144Zm26.757-7.296L101.212 5.32V2.6h6.912v2.72l-1.856 12.384H103.1ZM101.532 25v-5.44h6.304V25h-6.304Z"/></mask><path d="M36.109 25.16 28.62 2.6h6.56l3.904 12.96 4.32-13.024h5.344l4.32 13.024L56.973 2.6h6.432l-7.488 22.56h-5.408l-4.48-12.896-4.512 12.896h-5.408ZM66.035 25V2.6h6.208V25h-6.208Zm10.308 0V2.6h5.792l9.216 11.84V2.6h6.144V25h-5.408l-9.6-12.288V25h-6.144Zm26.757-7.296L101.212 5.32V2.6h6.912v2.72l-1.856 12.384H103.1ZM101.532 25v-5.44h6.304V25h-6.304Z" fill="#DDC916"/><path d="m36.109 25.16-.95.315.228.685h.722v-1ZM28.62 2.6v-1h-1.386l.437 1.315.949-.315Zm6.56 0 .957-.288-.214-.712h-.743v1Zm3.904 12.96-.958.288.912 3.027.995-3-.95-.315Zm4.32-13.024v-1h-.722l-.227.685.949.315Zm5.344 0 .949-.315-.227-.685h-.722v1Zm4.32 13.024-.95.315.995 3 .912-3.027-.957-.288ZM56.973 2.6v-1h-.743l-.215.712.958.288Zm6.432 0 .949.315.436-1.315h-1.385v1Zm-7.488 22.56v1h.721l.228-.685-.95-.315Zm-5.408 0-.945.328.233.672h.712v-1Zm-4.48-12.896.944-.328-.941-2.71-.947 2.708.944.33ZM41.517 25.16v1h.71l.234-.67-.944-.33Zm-4.46-.315L29.57 2.285l-1.898.63 7.488 22.56 1.898-.63ZM28.622 3.6h6.56v-2h-6.56v2Zm5.602-.712 3.904 12.96 1.915-.576-3.904-12.96-1.915.576Zm5.81 12.987 4.32-13.024-1.898-.63-4.32 13.024 1.899.63Zm3.372-12.339h5.344v-2h-5.344v2Zm4.395-.685 4.32 13.024 1.898-.63-4.32-13.024-1.898.63Zm6.226 12.997 3.904-12.96-1.915-.576-3.904 12.96 1.915.576ZM56.973 3.6h6.432v-2h-6.432v2Zm5.483-1.315-7.489 22.56 1.899.63 7.488-22.56-1.898-.63Zm-6.54 21.875H50.51v2h5.408v-2Zm-4.463.672-4.48-12.896-1.889.656 4.48 12.896 1.89-.656Zm-6.368-12.898L40.573 24.83l1.888.66 4.511-12.896-1.887-.66ZM41.517 24.16h-5.408v2h5.408v-2Zm24.518.84h-1v1h1v-1Zm0-22.4v-1h-1v1h1Zm6.208 0h1v-1h-1v1Zm0 22.4v1h1v-1h-1Zm-5.208 0V2.6h-2V25h2Zm-1-21.4h6.208v-2h-6.208v2Zm5.208-1V25h2V2.6h-2Zm1 21.4h-6.208v2h6.208v-2Zm4.1 1h-1v1h1v-1Zm0-22.4v-1h-1v1h1Zm5.792 0 .79-.614-.3-.386h-.49v1Zm9.216 11.84-.789.614 1.79 2.299V14.44h-1Zm0-11.84v-1h-1v1h1Zm6.144 0h1v-1h-1v1Zm0 22.4v1h1v-1h-1Zm-5.408 0-.788.616.3.384h.488v-1Zm-9.6-12.288.788-.616-1.788-2.288v2.904h1Zm0 12.288v1h1v-1h-1Zm-5.144 0V2.6h-2V25h2Zm-1-21.4h5.792v-2h-5.792v2Zm5.003-.386 9.216 11.84 1.579-1.228-9.217-11.84-1.578 1.228ZM92.351 14.44V2.6h-2v11.84h2Zm-1-10.84h6.144v-2h-6.144v2Zm5.144-1V25h2V2.6h-2Zm1 21.4h-5.408v2h5.408v-2Zm-4.62.384-9.6-12.288-1.576 1.232 9.6 12.288 1.576-1.232ZM81.487 12.712V25h2V12.712h-2Zm1 11.288h-6.144v2h6.144v-2Zm20.613-6.296-.988.15.129.85h.859v-1ZM101.212 5.32h-1v.076l.012.075.988-.151Zm0-2.72v-1h-1v1h1Zm6.912 0h1v-1h-1v1Zm0 2.72.989.148.011-.073V5.32h-1Zm-1.856 12.384v1h.862l.127-.852-.989-.148ZM101.532 25h-1v1h1v-1Zm0-5.44v-1h-1v1h1Zm6.304 0h1v-1h-1v1Zm0 5.44v1h1v-1h-1Zm-3.747-7.447L102.201 5.17l-1.977.302 1.888 12.384 1.977-.302ZM102.212 5.32V2.6h-2v2.72h2Zm-1-1.72h6.912v-2h-6.912v2Zm5.912-1v2.72h2V2.6h-2Zm.011 2.572-1.856 12.384 1.978.296 1.856-12.384-1.978-.296Zm-.867 11.532H103.1v2h3.168v-2ZM102.532 25v-5.44h-2V25h2Zm-1-4.44h6.304v-2h-6.304v2Zm5.304-1V25h2v-5.44h-2Zm1 4.44h-6.304v2h6.304v-2Z" fill="#FFE500" mask="url(#a)"/><path d="M3.76 22.636c-1.3-.862-2.27-2.193-2.73-3.751a6.008 6.008 0 0 1 3.093.32 6.433 6.433 0 0 1 2.917 2.261l.876-.462A21.483 21.483 0 0 1 6.67 14.52l-.015-.431-.429-.048c-1.586-.178-3.06-.984-4.123-2.269A7.08 7.08 0 0 1 .51 7.62c1.065.118 2.09.52 2.977 1.176a6.771 6.771 0 0 1 2.301 3.085l.967-.13a22.24 22.24 0 0 1 .526-3.235l.031-.133-.04-.13a7.266 7.266 0 0 1 .04-4.393A6.834 6.834 0 0 1 9.398.747a7.226 7.226 0 0 1 .722 4.207c-.213 1.643-.978 3.142-2.145 4.223l-.117.109-.033.156a21.033 21.033 0 0 0-.436 4.105l.982.14a6.878 6.878 0 0 1 1.984-3.231 6.238 6.238 0 0 1 2.771-1.463 7.157 7.157 0 0 1-1.197 4.355c-.952 1.41-2.367 2.372-3.953 2.705l-.457.095.065.463a20.269 20.269 0 0 0 2.727 7.69l.926-.291a7.183 7.183 0 0 1 1.05-4.241 6.523 6.523 0 0 1 2.732-2.467 7.26 7.26 0 0 1-.286 4.355c-.607 1.552-1.726 2.805-3.137 3.527l-.528.27.355.475a19.49 19.49 0 0 0 2.388 2.65l.001.001a18.496 18.496 0 0 0 4.55 3.078l.617-.75a7.146 7.146 0 0 1-1.375-4.703 7.077 7.077 0 0 1 1.573-4.049 7.11 7.11 0 0 1 1.447 4.283c.01 1.764-.62 3.459-1.751 4.734l-.46.518.637.273c1.198.514 2.443.894 3.716 1.132v.012l.421.067c.082.013.164.06.225.14a.456.456 0 0 1-.039.587.335.335 0 0 1-.28.097h-.004a18.224 18.224 0 0 1-3.5-.937l-.46-.173-.181.456c-.64 1.61-1.832 2.889-3.321 3.584a6.009 6.009 0 0 1-4.225.334 6.737 6.737 0 0 1 2.286-2.899 6.095 6.095 0 0 1 3.835-1.146l.247-.946a19.223 19.223 0 0 1-4.05-2.736l-.316-.276-.327.261c-1.289 1.03-2.89 1.5-4.485 1.325-1.438-.158-2.784-.833-3.817-1.913a6.194 6.194 0 0 1 2.724-1.256 6.012 6.012 0 0 1 3.405.357l.575-.782a20.55 20.55 0 0 1-2.355-3.516l-.183-.344-.378.093a6.046 6.046 0 0 1-4.802-.85Z" fill="#000"/><path d="M3.76 22.636c-1.3-.862-2.27-2.193-2.73-3.751a6.008 6.008 0 0 1 3.093.32 6.433 6.433 0 0 1 2.917 2.261l.876-.462A21.483 21.483 0 0 1 6.67 14.52l-.015-.431-.429-.048c-1.586-.178-3.06-.984-4.123-2.269A7.08 7.08 0 0 1 .51 7.62c1.065.118 2.09.52 2.977 1.176a6.771 6.771 0 0 1 2.301 3.085l.967-.13a22.24 22.24 0 0 1 .526-3.235l.031-.133-.04-.13a7.266 7.266 0 0 1 .04-4.393A6.834 6.834 0 0 1 9.398.747a7.226 7.226 0 0 1 .722 4.207c-.213 1.643-.978 3.142-2.145 4.223l-.117.109-.033.156a21.033 21.033 0 0 0-.436 4.105l.982.14a6.878 6.878 0 0 1 1.984-3.231 6.238 6.238 0 0 1 2.771-1.463 7.157 7.157 0 0 1-1.197 4.355c-.952 1.41-2.367 2.372-3.953 2.705l-.457.095.065.463a20.269 20.269 0 0 0 2.727 7.69l.926-.291a7.183 7.183 0 0 1 1.05-4.241 6.523 6.523 0 0 1 2.732-2.467 7.26 7.26 0 0 1-.286 4.355c-.607 1.552-1.726 2.805-3.137 3.527l-.528.27.355.475a19.49 19.49 0 0 0 2.388 2.65l.001.001a18.496 18.496 0 0 0 4.55 3.078l.617-.75a7.146 7.146 0 0 1-1.375-4.703 7.077 7.077 0 0 1 1.573-4.049 7.11 7.11 0 0 1 1.447 4.283c.01 1.764-.62 3.459-1.751 4.734l-.46.518.637.273c1.198.514 2.443.894 3.716 1.132v.012l.421.067c.082.013.164.06.225.14a.456.456 0 0 1-.039.587.335.335 0 0 1-.28.097h-.004a18.224 18.224 0 0 1-3.5-.937l-.46-.173-.181.456c-.64 1.61-1.832 2.889-3.321 3.584a6.009 6.009 0 0 1-4.225.334 6.737 6.737 0 0 1 2.286-2.899 6.095 6.095 0 0 1 3.835-1.146l.247-.946a19.223 19.223 0 0 1-4.05-2.736l-.316-.276-.327.261c-1.289 1.03-2.89 1.5-4.485 1.325-1.438-.158-2.784-.833-3.817-1.913a6.194 6.194 0 0 1 2.724-1.256 6.012 6.012 0 0 1 3.405.357l.575-.782a20.55 20.55 0 0 1-2.355-3.516l-.183-.344-.378.093a6.046 6.046 0 0 1-4.802-.85Z" fill="#DDC916"/><path d="M3.76 22.636c-1.3-.862-2.27-2.193-2.73-3.751a6.008 6.008 0 0 1 3.093.32 6.433 6.433 0 0 1 2.917 2.261l.876-.462A21.483 21.483 0 0 1 6.67 14.52l-.015-.431-.429-.048c-1.586-.178-3.06-.984-4.123-2.269A7.08 7.08 0 0 1 .51 7.62c1.065.118 2.09.52 2.977 1.176a6.771 6.771 0 0 1 2.301 3.085l.967-.13a22.24 22.24 0 0 1 .526-3.235l.031-.133-.04-.13a7.266 7.266 0 0 1 .04-4.393A6.834 6.834 0 0 1 9.398.747a7.226 7.226 0 0 1 .722 4.207c-.213 1.643-.978 3.142-2.145 4.223l-.117.109-.033.156a21.033 21.033 0 0 0-.436 4.105l.982.14a6.878 6.878 0 0 1 1.984-3.231 6.238 6.238 0 0 1 2.771-1.463 7.157 7.157 0 0 1-1.197 4.355c-.952 1.41-2.367 2.372-3.953 2.705l-.457.095.065.463a20.269 20.269 0 0 0 2.727 7.69l.926-.291a7.183 7.183 0 0 1 1.05-4.241 6.523 6.523 0 0 1 2.732-2.467 7.26 7.26 0 0 1-.286 4.355c-.607 1.552-1.726 2.805-3.137 3.527l-.528.27.355.475a19.49 19.49 0 0 0 2.388 2.65l.001.001a18.496 18.496 0 0 0 4.55 3.078l.617-.75a7.146 7.146 0 0 1-1.375-4.703 7.077 7.077 0 0 1 1.573-4.049 7.11 7.11 0 0 1 1.447 4.283c.01 1.764-.62 3.459-1.751 4.734l-.46.518.637.273c1.198.514 2.443.894 3.716 1.132v.012l.421.067c.082.013.164.06.225.14a.456.456 0 0 1-.039.587.335.335 0 0 1-.28.097h-.004a18.224 18.224 0 0 1-3.5-.937l-.46-.173-.181.456c-.64 1.61-1.832 2.889-3.321 3.584a6.009 6.009 0 0 1-4.225.334 6.737 6.737 0 0 1 2.286-2.899 6.095 6.095 0 0 1 3.835-1.146l.247-.946a19.223 19.223 0 0 1-4.05-2.736l-.316-.276-.327.261c-1.289 1.03-2.89 1.5-4.485 1.325-1.438-.158-2.784-.833-3.817-1.913a6.194 6.194 0 0 1 2.724-1.256 6.012 6.012 0 0 1 3.405.357l.575-.782a20.55 20.55 0 0 1-2.355-3.516l-.183-.344-.378.093a6.046 6.046 0 0 1-4.802-.85Z" stroke="#FFE500"/><path d="M134.239 22.636c1.302-.862 2.271-2.193 2.731-3.751a6.011 6.011 0 0 0-3.093.32 6.43 6.43 0 0 0-2.917 2.261l-.876-.462a21.484 21.484 0 0 0 1.246-6.484l.015-.431.429-.048c1.586-.178 3.059-.984 4.123-2.269a7.086 7.086 0 0 0 1.594-4.152 6.144 6.144 0 0 0-2.977 1.176 6.767 6.767 0 0 0-2.301 3.085l-.967-.13a22.168 22.168 0 0 0-.526-3.235l-.031-.133.04-.13a7.268 7.268 0 0 0-.04-4.393 6.83 6.83 0 0 0-2.087-3.113 7.232 7.232 0 0 0-.722 4.207c.213 1.643.978 3.142 2.145 4.223l.117.109.033.156a21.1 21.1 0 0 1 .436 4.105l-.982.14a6.872 6.872 0 0 0-1.984-3.231 6.236 6.236 0 0 0-2.771-1.463 7.16 7.16 0 0 0 1.197 4.355c.952 1.41 2.367 2.372 3.953 2.705l.457.095-.065.463a20.247 20.247 0 0 1-2.727 7.69l-.926-.291a7.182 7.182 0 0 0-1.05-4.241 6.519 6.519 0 0 0-2.732-2.467 7.263 7.263 0 0 0 .286 4.355c.607 1.552 1.726 2.805 3.137 3.527l.528.27-.355.475a19.545 19.545 0 0 1-2.388 2.65l-.001.001a18.486 18.486 0 0 1-4.551 3.078l-.616-.75a7.144 7.144 0 0 0 1.375-4.703 7.069 7.069 0 0 0-1.573-4.049 7.112 7.112 0 0 0-1.447 4.283c-.01 1.764.62 3.459 1.751 4.734l.46.518-.637.273a17.69 17.69 0 0 1-3.716 1.132v.012l-.421.067a.352.352 0 0 0-.225.14.46.46 0 0 0 .039.587.333.333 0 0 0 .28.097h.004a18.239 18.239 0 0 0 3.5-.937l.46-.173.181.456c.64 1.61 1.832 2.889 3.321 3.584a6.01 6.01 0 0 0 4.225.334 6.741 6.741 0 0 0-2.286-2.899 6.096 6.096 0 0 0-3.835-1.146l-.248-.946a19.208 19.208 0 0 0 4.052-2.736l.315-.276.327.261c1.289 1.03 2.89 1.5 4.485 1.325 1.438-.158 2.784-.833 3.817-1.913a6.193 6.193 0 0 0-2.724-1.256 6.01 6.01 0 0 0-3.405.357l-.575-.782a20.54 20.54 0 0 0 2.355-3.516l.183-.344.378.093c1.641.404 3.367.1 4.802-.85Z" fill="#000"/><path d="M134.239 22.636c1.302-.862 2.271-2.193 2.731-3.751a6.011 6.011 0 0 0-3.093.32 6.43 6.43 0 0 0-2.917 2.261l-.876-.462a21.484 21.484 0 0 0 1.246-6.484l.015-.431.429-.048c1.586-.178 3.059-.984 4.123-2.269a7.086 7.086 0 0 0 1.594-4.152 6.144 6.144 0 0 0-2.977 1.176 6.767 6.767 0 0 0-2.301 3.085l-.967-.13a22.168 22.168 0 0 0-.526-3.235l-.031-.133.04-.13a7.268 7.268 0 0 0-.04-4.393 6.83 6.83 0 0 0-2.087-3.113 7.232 7.232 0 0 0-.722 4.207c.213 1.643.978 3.142 2.145 4.223l.117.109.033.156a21.1 21.1 0 0 1 .436 4.105l-.982.14a6.872 6.872 0 0 0-1.984-3.231 6.236 6.236 0 0 0-2.771-1.463 7.16 7.16 0 0 0 1.197 4.355c.952 1.41 2.367 2.372 3.953 2.705l.457.095-.065.463a20.247 20.247 0 0 1-2.727 7.69l-.926-.291a7.182 7.182 0 0 0-1.05-4.241 6.519 6.519 0 0 0-2.732-2.467 7.263 7.263 0 0 0 .286 4.355c.607 1.552 1.726 2.805 3.137 3.527l.528.27-.355.475a19.545 19.545 0 0 1-2.388 2.65l-.001.001a18.486 18.486 0 0 1-4.551 3.078l-.616-.75a7.144 7.144 0 0 0 1.375-4.703 7.069 7.069 0 0 0-1.573-4.049 7.112 7.112 0 0 0-1.447 4.283c-.01 1.764.62 3.459 1.751 4.734l.46.518-.637.273a17.69 17.69 0 0 1-3.716 1.132v.012l-.421.067a.352.352 0 0 0-.225.14.46.46 0 0 0 .039.587.333.333 0 0 0 .28.097h.004a18.239 18.239 0 0 0 3.5-.937l.46-.173.181.456c.64 1.61 1.832 2.889 3.321 3.584a6.01 6.01 0 0 0 4.225.334 6.741 6.741 0 0 0-2.286-2.899 6.096 6.096 0 0 0-3.835-1.146l-.248-.946a19.208 19.208 0 0 0 4.052-2.736l.315-.276.327.261c1.289 1.03 2.89 1.5 4.485 1.325 1.438-.158 2.784-.833 3.817-1.913a6.193 6.193 0 0 0-2.724-1.256 6.01 6.01 0 0 0-3.405.357l-.575-.782a20.54 20.54 0 0 0 2.355-3.516l.183-.344.378.093c1.641.404 3.367.1 4.802-.85Z" fill="#DDC916"/><path d="M134.239 22.636c1.302-.862 2.271-2.193 2.731-3.751a6.011 6.011 0 0 0-3.093.32 6.43 6.43 0 0 0-2.917 2.261l-.876-.462a21.484 21.484 0 0 0 1.246-6.484l.015-.431.429-.048c1.586-.178 3.059-.984 4.123-2.269a7.086 7.086 0 0 0 1.594-4.152 6.144 6.144 0 0 0-2.977 1.176 6.767 6.767 0 0 0-2.301 3.085l-.967-.13a22.168 22.168 0 0 0-.526-3.235l-.031-.133.04-.13a7.268 7.268 0 0 0-.04-4.393 6.83 6.83 0 0 0-2.087-3.113 7.232 7.232 0 0 0-.722 4.207c.213 1.643.978 3.142 2.145 4.223l.117.109.033.156a21.1 21.1 0 0 1 .436 4.105l-.982.14a6.872 6.872 0 0 0-1.984-3.231 6.236 6.236 0 0 0-2.771-1.463 7.16 7.16 0 0 0 1.197 4.355c.952 1.41 2.367 2.372 3.953 2.705l.457.095-.065.463a20.247 20.247 0 0 1-2.727 7.69l-.926-.291a7.182 7.182 0 0 0-1.05-4.241 6.519 6.519 0 0 0-2.732-2.467 7.263 7.263 0 0 0 .286 4.355c.607 1.552 1.726 2.805 3.137 3.527l.528.27-.355.475a19.545 19.545 0 0 1-2.388 2.65l-.001.001a18.486 18.486 0 0 1-4.551 3.078l-.616-.75a7.144 7.144 0 0 0 1.375-4.703 7.069 7.069 0 0 0-1.573-4.049 7.112 7.112 0 0 0-1.447 4.283c-.01 1.764.62 3.459 1.751 4.734l.46.518-.637.273a17.69 17.69 0 0 1-3.716 1.132v.012l-.421.067a.352.352 0 0 0-.225.14.46.46 0 0 0 .039.587.333.333 0 0 0 .28.097h.004a18.239 18.239 0 0 0 3.5-.937l.46-.173.181.456c.64 1.61 1.832 2.889 3.321 3.584a6.01 6.01 0 0 0 4.225.334 6.741 6.741 0 0 0-2.286-2.899 6.096 6.096 0 0 0-3.835-1.146l-.248-.946a19.208 19.208 0 0 0 4.052-2.736l.315-.276.327.261c1.289 1.03 2.89 1.5 4.485 1.325 1.438-.158 2.784-.833 3.817-1.913a6.193 6.193 0 0 0-2.724-1.256 6.01 6.01 0 0 0-3.405.357l-.575-.782a20.54 20.54 0 0 0 2.355-3.516l.183-.344.378.093c1.641.404 3.367.1 4.802-.85Z" stroke="#FFE500"/></svg>