<svg width="164" height="38" fill="none" xmlns="http://www.w3.org/2000/svg"><path d="M116.468 23V.6h18.016v5.248h-11.872v3.424h10.752v4.896h-10.752v3.552h12.032V23h-18.176zm-12.075.384c-4.16 0-7.658-1.237-10.496-3.712l3.456-4.128c2.283 1.792 4.704 2.688 7.264 2.688 1.728 0 2.592-.512 2.592-1.536v-.064c0-.49-.256-.875-.768-1.152-.512-.299-1.525-.64-3.04-1.024-1.365-.32-2.485-.63-3.36-.928a13.555 13.555 0 01-2.592-1.216c-.853-.533-1.482-1.195-1.888-1.984-.405-.81-.608-1.77-.608-2.88v-.064c0-2.133.779-3.861 2.336-5.184C98.868.877 100.98.216 103.625.216c3.67 0 6.742.992 9.216 2.976l-3.104 4.384c-2.005-1.472-4.096-2.208-6.272-2.208-1.493 0-2.24.48-2.24 1.44v.064c0 .512.267.928.8 1.248.534.299 1.568.608 3.104.928 2.795.619 4.875 1.45 6.24 2.496 1.387 1.024 2.08 2.517 2.08 4.48v.064c0 2.261-.821 4.043-2.464 5.344-1.642 1.301-3.84 1.952-6.592 1.952zm-20.563 0c-4.16 0-7.658-1.237-10.495-3.712l3.456-4.128c2.282 1.792 4.704 2.688 7.264 2.688 1.728 0 2.592-.512 2.592-1.536v-.064c0-.49-.256-.875-.768-1.152-.512-.299-1.526-.64-3.04-1.024-1.365-.32-2.486-.63-3.36-.928a13.547 13.547 0 01-2.592-1.216c-.853-.533-1.483-1.195-1.888-1.984-.405-.81-.608-1.77-.608-2.88v-.064c0-2.133.778-3.861 2.336-5.184C78.305.877 80.417.216 83.063.216c3.67 0 6.741.992 9.216 2.976l-3.104 4.384c-2.005-1.472-4.096-2.208-6.272-2.208-1.494 0-2.24.48-2.24 1.44v.064c0 .512.267.928.8 1.248.533.299 1.568.608 3.104.928 2.795.619 4.875 1.45 6.24 2.496 1.386 1.024 2.08 2.517 2.08 4.48v.064c0 2.261-.822 4.043-2.464 5.344-1.643 1.301-3.84 1.952-6.592 1.952zm-15.333-3.328c-2.304 2.261-5.173 3.392-8.608 3.392-3.434 0-6.304-1.12-8.608-3.36-2.282-2.261-3.424-5.003-3.424-8.224V11.8c0-3.243 1.152-5.995 3.456-8.256C53.64 1.283 56.52.152 59.953.152c3.435 0 6.294 1.13 8.576 3.392 2.304 2.24 3.456 4.97 3.456 8.192v.064c0 3.243-1.162 5.995-3.488 8.256zm-12.672-4c1.088 1.195 2.464 1.792 4.128 1.792 1.664 0 3.019-.576 4.064-1.728 1.067-1.173 1.6-2.592 1.6-4.256V11.8c0-1.664-.544-3.083-1.632-4.256-1.066-1.195-2.432-1.792-4.096-1.792-1.664 0-3.029.587-4.096 1.76-1.066 1.152-1.6 2.56-1.6 4.224v.064c0 1.643.544 3.061 1.632 4.256zM30.125 23V.6h6.208v16.96H47.18V23H30.125z" fill="#C1150A"/><path d="M121.612 4.848h11.872V1.6h-16.015V22h16.176v-3.28h-12.033v-5.552h10.752v-2.895h-10.752V4.848zm1 4.424h10.752v4.896h-10.752v3.552h12.032V23h-18.176V.6h18.016v5.248h-11.872v3.424zm-10.163 6.752c0-1.59-.51-2.72-1.474-3.52l-.2-.155-.006-.005-.007-.006c-1.196-.915-3.108-1.706-5.836-2.31-1.336-.279-2.405-.57-3.11-.894l-.279-.142-.014-.007-.012-.007c-.759-.456-1.285-1.163-1.285-2.106v-.064c0-.787.332-1.48 1.018-1.921.611-.393 1.4-.519 2.222-.519 2.106 0 4.117.624 6.022 1.828l1.97-2.782c-2.135-1.452-4.73-2.198-7.833-2.198-2.478 0-4.342.617-5.694 1.75-1.32 1.122-1.978 2.566-1.978 4.418v.064l.009.362c.039.82.21 1.5.49 2.061.31.606.803 1.137 1.52 1.587.695.417 1.392.755 2.091 1.016l.301.108c.624.213 1.391.435 2.304.666l.962.234.017.004c1.483.376 2.616.741 3.27 1.115.762.412 1.292 1.098 1.292 2.03v.065l-.004.159a2.239 2.239 0 01-1.134 1.853c-.661.392-1.524.524-2.454.524-2.515 0-4.886-.794-7.1-2.328l-2.203 2.632c2.495 1.89 5.505 2.848 9.08 2.848l-.001 1-.772-.015c-3.822-.145-7.064-1.377-9.724-3.697l3.456-4.128c2.14 1.68 4.402 2.573 6.786 2.678l.478.01c1.62 0 2.481-.45 2.582-1.35l.01-.186v-.064c0-.43-.196-.777-.588-1.043l-.18-.109c-.512-.299-1.525-.64-3.04-1.024a42.563 42.563 0 01-2.658-.702l-.702-.226a13.555 13.555 0 01-2.592-1.216c-.746-.467-1.322-1.031-1.725-1.694l-.163-.29c-.354-.71-.554-1.533-.598-2.47l-.01-.41v-.064c0-2.133.779-3.861 2.336-5.184C98.868.877 100.98.216 103.625.216c3.67 0 6.742.992 9.216 2.976l-3.104 4.384c-1.88-1.38-3.835-2.113-5.865-2.199l-.407-.009c-1.493 0-2.24.48-2.24 1.44v.064l.013.188c.059.427.321.78.787 1.06.534.299 1.568.608 3.104.928 2.795.619 4.875 1.45 6.24 2.496 1.387 1.024 2.08 2.517 2.08 4.48v.064c0 2.261-.821 4.043-2.464 5.344-1.642 1.301-3.84 1.952-6.592 1.952l.001-1c2.597 0 4.553-.613 5.97-1.736 1.383-1.095 2.085-2.576 2.085-4.56v-.064zm-20.562 0c0-1.59-.51-2.72-1.475-3.52l-.2-.155-.006-.005-.007-.006c-1.195-.915-3.107-1.706-5.836-2.31-1.336-.279-2.405-.57-3.11-.894l-.278-.142-.014-.007-.013-.007c-.759-.456-1.285-1.163-1.285-2.106v-.064c0-.787.333-1.48 1.019-1.921.61-.393 1.4-.519 2.221-.519 2.106 0 4.118.624 6.023 1.828l1.97-2.782c-2.136-1.452-4.73-2.198-7.834-2.198-2.478 0-4.341.617-5.694 1.75-1.319 1.122-1.977 2.566-1.977 4.418v.064l.008.362c.04.82.21 1.5.49 2.061.31.606.803 1.137 1.52 1.587.695.417 1.392.755 2.092 1.016l.3.108c.625.213 1.392.435 2.305.666l.961.234.018.004c1.483.376 2.615.741 3.27 1.115.762.412 1.291 1.098 1.291 2.03v.065l-.003.159a2.24 2.24 0 01-1.134 1.853c-.661.392-1.524.524-2.454.524-2.516 0-4.886-.794-7.1-2.328l-2.203 2.632c2.494 1.89 5.504 2.848 9.08 2.848l-.001 1-.772-.015c-3.823-.145-7.064-1.377-9.724-3.697l3.456-4.128c2.14 1.68 4.402 2.573 6.785 2.678l.479.01c1.62 0 2.48-.45 2.582-1.35l.01-.186v-.064c0-.49-.256-.875-.768-1.152-.512-.299-1.526-.64-3.04-1.024a42.554 42.554 0 01-2.658-.702l-.702-.226a13.547 13.547 0 01-2.592-1.216c-.747-.467-1.322-1.031-1.726-1.694l-.162-.29c-.355-.71-.554-1.533-.599-2.47l-.01-.41v-.064c0-2.133.78-3.861 2.337-5.184C78.305.877 80.417.216 83.063.216c3.67 0 6.741.992 9.216 2.976l-3.104 4.384c-1.88-1.38-3.835-2.113-5.865-2.199l-.407-.009c-1.494 0-2.24.48-2.24 1.44v.064l.013.188c.058.427.32.78.787 1.06.533.299 1.568.608 3.104.928 2.795.619 4.875 1.45 6.24 2.496 1.386 1.024 2.08 2.517 2.08 4.48v.064c0 2.261-.822 4.043-2.464 5.344-1.643 1.301-3.84 1.952-6.592 1.952v-1c2.597 0 4.553-.613 5.97-1.736 1.383-1.095 2.086-2.576 2.086-4.56v-.064zm-20.902-4.288c0-2.952-1.043-5.424-3.153-7.475l-.007-.006c-2.081-2.062-4.68-3.103-7.872-3.103-3.19 0-5.816 1.04-7.942 3.109-2.11 2.071-3.154 4.565-3.154 7.539v.064l.012.55c.121 2.712 1.152 5.015 3.11 6.957 2.103 2.045 4.717 3.077 7.91 3.077v1l-.637-.013c-3.154-.132-5.81-1.247-7.97-3.347-2.14-2.12-3.277-4.662-3.41-7.626l-.015-.598V11.8c0-3.243 1.152-5.995 3.456-8.256C53.64 1.283 56.52.152 59.953.152l.638.013c3.152.133 5.798 1.26 7.938 3.379 2.304 2.24 3.456 4.97 3.456 8.192v.064c0 3.243-1.162 5.995-3.488 8.256-2.304 2.261-5.173 3.392-8.608 3.392v-1c3.192 0 5.804-1.04 7.908-3.105l.003-.004c2.132-2.073 3.185-4.567 3.185-7.54v-.063zm-17.792 0c0-1.896.616-3.55 1.86-4.897l.242-.253c1.23-1.224 2.785-1.834 4.595-1.834 1.936 0 3.577.71 4.841 2.126C65.99 8.242 66.617 9.9 66.617 11.8v.064l-.007.354c-.072 1.752-.689 3.292-1.853 4.573v.001c-1.248 1.377-2.88 2.056-4.804 2.056-1.815 0-3.376-.623-4.622-1.863l-.245-.255c-1.259-1.383-1.893-3.043-1.893-4.93v-.064zm1 .064c0 1.643.544 3.061 1.632 4.256 1.088 1.195 2.464 1.792 4.128 1.792 1.664 0 3.019-.576 4.064-1.728 1-1.1 1.532-2.416 1.594-3.947l.006-.309V11.8c0-1.664-.544-3.083-1.632-4.256-1-1.12-2.262-1.715-3.787-1.785l-.309-.007c-1.664 0-3.029.587-4.096 1.76-1.066 1.152-1.6 2.56-1.6 4.224v.064zM36.333.6v16.96H47.18V23H30.125V.6h6.208zM31.125 22h15.056v-3.44H35.333V1.6h-4.208V22z" fill="red"/><path d="M23.266 32.676a17.18 17.18 0 01-4.019-1.171c1.216-1.37 1.888-3.185 1.877-5.069-.01-1.883-.703-3.69-1.935-5.044-1.228 1.264-1.971 2.968-2.084 4.782a7.646 7.646 0 001.473 5.032 17.99 17.99 0 01-4.428-2.994 18.987 18.987 0 01-2.326-2.582c1.524-.78 2.725-2.13 3.374-3.79a7.751 7.751 0 00.146-5.217c-1.426.529-2.65 1.541-3.482 2.882a7.682 7.682 0 00-1.124 4.537 19.768 19.768 0 01-2.659-7.5c1.718-.36 3.243-1.402 4.264-2.914A7.676 7.676 0 0013.576 8.4a6.701 6.701 0 00-3.557 1.684 7.377 7.377 0 00-2.13 3.466c.01-1.348.153-2.69.426-4.007 1.256-1.164 2.073-2.771 2.3-4.526A7.7 7.7 0 009.552 0C8.288.885 7.334 2.186 6.836 3.704A7.766 7.766 0 006.793 8.4a22.74 22.74 0 00-.537 3.306 7.27 7.27 0 00-2.472-3.312A6.62 6.62 0 00.002 7.085c-.04 1.839.573 3.625 1.716 5.006 1.143 1.38 2.732 2.254 4.452 2.447.082 2.27.513 4.512 1.276 6.635A6.933 6.933 0 004.3 18.737 6.506 6.506 0 00.415 18.5c.416 1.89 1.52 3.527 3.07 4.553a6.549 6.549 0 005.197.918 21.047 21.047 0 002.413 3.6 6.513 6.513 0 00-3.688-.385 6.731 6.731 0 00-3.343 1.7c1.147 1.39 2.744 2.267 4.474 2.457a6.596 6.596 0 004.851-1.431 19.725 19.725 0 004.157 2.806 6.596 6.596 0 00-4.148 1.24c-1.223.873-2.15 2.14-2.646 3.615a6.51 6.51 0 005.086-.191c1.61-.752 2.89-2.13 3.574-3.852 1.168.44 2.372.762 3.597.962a.835.835 0 00.716-.234.956.956 0 00.087-1.243.852.852 0 00-.546-.334v-.005z" fill="url(#paint0_linear_6055_10017)"/><path d="M140.734 32.676a17.172 17.172 0 004.019-1.171c-1.216-1.37-1.888-3.185-1.877-5.069.01-1.883.703-3.69 1.935-5.044 1.228 1.264 1.971 2.968 2.085 4.782a7.647 7.647 0 01-1.473 5.032 18.003 18.003 0 004.427-2.994 18.997 18.997 0 002.326-2.582c-1.524-.78-2.725-2.13-3.375-3.79a7.762 7.762 0 01-.146-5.217c1.427.529 2.651 1.541 3.483 2.882a7.686 7.686 0 011.124 4.537 19.772 19.772 0 002.659-7.5c-1.718-.36-3.243-1.402-4.264-2.914a7.677 7.677 0 01-1.233-5.227 6.702 6.702 0 013.557 1.684 7.38 7.38 0 012.13 3.466 20.567 20.567 0 00-.426-4.007c-1.256-1.164-2.073-2.771-2.3-4.526A7.698 7.698 0 01154.449 0c1.263.885 2.217 2.186 2.715 3.704a7.774 7.774 0 01.043 4.696c.26 1.085.439 2.191.537 3.306a7.272 7.272 0 012.472-3.312 6.623 6.623 0 013.782-1.309c.039 1.839-.573 3.625-1.716 5.006-1.143 1.38-2.732 2.254-4.452 2.447a21.976 21.976 0 01-1.276 6.635 6.935 6.935 0 013.146-2.436 6.505 6.505 0 013.885-.237c-.416 1.89-1.52 3.527-3.07 4.553a6.548 6.548 0 01-5.197.918 21.061 21.061 0 01-2.413 3.6 6.514 6.514 0 013.688-.385 6.736 6.736 0 013.343 1.7c-1.147 1.39-2.744 2.267-4.474 2.457a6.596 6.596 0 01-4.851-1.431 19.732 19.732 0 01-4.157 2.806 6.593 6.593 0 014.148 1.24c1.223.873 2.15 2.14 2.646 3.615a6.509 6.509 0 01-5.086-.191c-1.611-.752-2.889-2.13-3.574-3.852-1.168.44-2.372.762-3.597.962a.836.836 0 01-.716-.234.96.96 0 01-.087-1.243c.136-.18.331-.3.546-.334v-.005z" fill="url(#paint1_linear_6055_10017)"/><defs><linearGradient id="paint0_linear_6055_10017" x1="140" y1="0" x2="150.357" y2="41.412" gradientUnits="userSpaceOnUse"><stop stop-color="#22222E"/><stop offset="1" stop-color="#1F1F2F"/></linearGradient><linearGradient id="paint1_linear_6055_10017" x1="140" y1="0" x2="150.357" y2="41.412" gradientUnits="userSpaceOnUse"><stop stop-color="#22222E"/><stop offset="1" stop-color="#1F1F2F"/></linearGradient></defs></svg>