<svg width="138" height="38" fill="none" xmlns="http://www.w3.org/2000/svg"><mask id="a" fill="#fff"><path d="M30.093 22V5.2h4.656v12.72h8.136V22h-12.79zm22.324.336c-5.184 0-9.024-3.888-9.024-8.688V13.6c0-4.824 3.888-8.736 9.072-8.736 5.184 0 9.024 3.888 9.024 8.688v.048c0 4.824-3.888 8.736-9.072 8.736zm.048-4.2c2.544 0 4.248-2.064 4.248-4.488V13.6c0-2.448-1.728-4.536-4.296-4.536-2.568 0-4.272 2.064-4.272 4.488v.048c0 2.4 1.752 4.536 4.32 4.536zm17.908 4.152c-3 0-5.76-.936-7.872-2.784l2.592-3.096c1.704 1.344 3.528 2.016 5.448 2.016 1.272 0 1.944-.408 1.944-1.152v-.048c0-.72-.552-1.056-2.856-1.632-3.552-.816-6.336-1.8-6.336-5.256v-.048c0-3.144 2.472-5.376 6.504-5.376 2.88 0 5.088.768 6.912 2.232l-2.328 3.288c-1.536-1.128-3.192-1.656-4.704-1.656-1.128 0-1.68.432-1.68 1.08v.048c0 .744.576 1.128 2.928 1.632 3.84.84 6.24 2.088 6.24 5.232v.048c0 3.432-2.712 5.472-6.792 5.472zm15.422 0c-3 0-5.76-.936-7.872-2.784l2.592-3.096c1.704 1.344 3.528 2.016 5.448 2.016 1.272 0 1.944-.408 1.944-1.152v-.048c0-.72-.552-1.056-2.856-1.632-3.552-.816-6.336-1.8-6.336-5.256v-.048c0-3.144 2.472-5.376 6.504-5.376 2.88 0 5.088.768 6.912 2.232l-2.328 3.288c-1.536-1.128-3.192-1.656-4.704-1.656-1.128 0-1.68.432-1.68 1.08v.048c0 .744.576 1.128 2.928 1.632 3.84.84 6.24 2.088 6.24 5.232v.048c0 3.432-2.712 5.472-6.792 5.472zM94.851 22V5.2h13.512v3.936h-8.904v2.568h8.064v3.672h-8.064v2.664h9.024V22H94.851z"/></mask><path d="M30.093 22V5.2h4.656v12.72h8.136V22h-12.79zm22.324.336c-5.184 0-9.024-3.888-9.024-8.688V13.6c0-4.824 3.888-8.736 9.072-8.736 5.184 0 9.024 3.888 9.024 8.688v.048c0 4.824-3.888 8.736-9.072 8.736zm.048-4.2c2.544 0 4.248-2.064 4.248-4.488V13.6c0-2.448-1.728-4.536-4.296-4.536-2.568 0-4.272 2.064-4.272 4.488v.048c0 2.4 1.752 4.536 4.32 4.536zm17.908 4.152c-3 0-5.76-.936-7.872-2.784l2.592-3.096c1.704 1.344 3.528 2.016 5.448 2.016 1.272 0 1.944-.408 1.944-1.152v-.048c0-.72-.552-1.056-2.856-1.632-3.552-.816-6.336-1.8-6.336-5.256v-.048c0-3.144 2.472-5.376 6.504-5.376 2.88 0 5.088.768 6.912 2.232l-2.328 3.288c-1.536-1.128-3.192-1.656-4.704-1.656-1.128 0-1.68.432-1.68 1.08v.048c0 .744.576 1.128 2.928 1.632 3.84.84 6.24 2.088 6.24 5.232v.048c0 3.432-2.712 5.472-6.792 5.472zm15.422 0c-3 0-5.76-.936-7.872-2.784l2.592-3.096c1.704 1.344 3.528 2.016 5.448 2.016 1.272 0 1.944-.408 1.944-1.152v-.048c0-.72-.552-1.056-2.856-1.632-3.552-.816-6.336-1.8-6.336-5.256v-.048c0-3.144 2.472-5.376 6.504-5.376 2.88 0 5.088.768 6.912 2.232l-2.328 3.288c-1.536-1.128-3.192-1.656-4.704-1.656-1.128 0-1.68.432-1.68 1.08v.048c0 .744.576 1.128 2.928 1.632 3.84.84 6.24 2.088 6.24 5.232v.048c0 3.432-2.712 5.472-6.792 5.472zM94.851 22V5.2h13.512v3.936h-8.904v2.568h8.064v3.672h-8.064v2.664h9.024V22H94.851z" fill="#C1150A"/><path d="M30.093 22h-1v1h1v-1zm0-16.8v-1h-1v1h1zm4.656 0h1v-1h-1v1zm0 12.72h-1v1h1v-1zm8.136 0h1v-1h-1v1zm0 4.08v1h1v-1h-1zm-11.791 0V5.2h-2V22h2zm-1-15.8h4.655v-2h-4.656v2zm3.655-1v12.72h2V5.2h-2zm1 13.72h8.136v-2H34.75v2zm7.136-1V22h2v-4.08h-2zm1 3.08h-12.79v2h12.791v-2zm9.532.336c-4.653 0-8.024-3.461-8.024-7.688h-2c0 5.373 4.31 9.688 10.024 9.688v-2zm-8.024-7.688V13.6h-2v.048h2zm0-.048c0-4.249 3.417-7.736 8.072-7.736v-2c-5.713 0-10.072 4.337-10.072 9.736h2zm8.072-7.736c4.653 0 8.024 3.462 8.024 7.688h2c0-5.374-4.31-9.688-10.024-9.688v2zm8.024 7.688v.048h2v-.048h-2zm0 .048c0 4.249-3.417 7.736-8.072 7.736v2c5.713 0 10.072-4.337 10.072-9.736h-2zm-8.024 5.536c3.184 0 5.248-2.604 5.248-5.488h-2c0 1.964-1.345 3.488-3.248 3.488v2zm5.248-5.488V13.6h-2v.048h2zm0-.048c0-2.909-2.089-5.536-5.296-5.536v2c1.928 0 3.296 1.549 3.296 3.536h2zm-5.296-5.536c-3.205 0-5.272 2.6-5.272 5.488h2c0-1.96 1.34-3.488 3.272-3.488v-2zm-5.272 5.488v.048h2v-.048h-2zm0 .048c0 2.862 2.113 5.536 5.32 5.536v-2c-1.93 0-3.32-1.597-3.32-3.536h-2zm15.356 5.904l-.767-.642-.628.75.737.645.658-.753zm2.592-3.096l.62-.785-.763-.602-.624.745.767.642zm4.536-.816l.243-.97-.01-.002-.009-.003-.224.975zm7.08-8.448l.816.578.544-.769-.734-.589-.626.78zm-2.328 3.288l-.592.806.82.602.588-.83-.816-.578zm-3.456 1.104l.214-.977h-.004l-.21.977zm-.552 9.752c-2.791 0-5.307-.869-7.213-2.537l-1.317 1.506c2.318 2.028 5.322 3.031 8.53 3.031v-2zm-7.105-1.142l2.592-3.096-1.534-1.284-2.592 3.096 1.534 1.284zm1.206-2.953c1.857 1.465 3.895 2.231 6.067 2.231v-2c-1.667 0-3.278-.578-4.829-1.801l-1.238 1.57zm6.067 2.231c.715 0 1.41-.11 1.961-.438.618-.368.983-.976.983-1.714h-2c0 .03-.005.019.01-.008.015-.025.023-.02-.017.004-.104.062-.38.156-.937.156v2zm2.944-2.152v-.048h-2v.048h2zm0-.048c0-.315-.062-.666-.272-1.004-.202-.327-.49-.557-.792-.732-.565-.326-1.414-.582-2.55-.866l-.484 1.94c1.168.292 1.748.492 2.034.658.124.072.118.096.092.053-.034-.055-.028-.094-.028-.049h2zm-3.632-2.607c-1.786-.41-3.194-.828-4.16-1.488-.875-.6-1.4-1.404-1.4-2.793h-2c0 2.067.867 3.482 2.271 4.443 1.316.9 3.076 1.382 4.841 1.788l.448-1.95zm-5.56-4.281v-.048h-2v.048h2zm0-.048c0-1.291.499-2.352 1.387-3.104.901-.764 2.28-1.272 4.117-1.272v-2c-2.195 0-4.068.608-5.41 1.746-1.356 1.15-2.094 2.777-2.094 4.63h2zm5.504-4.376c2.682 0 4.662.708 6.286 2.012l1.252-1.56c-2.023-1.624-4.46-2.452-7.538-2.452v2zm6.096.654l-2.328 3.288 1.632 1.156 2.328-3.288-1.632-1.156zm-.92 3.06c-1.691-1.242-3.552-1.85-5.296-1.85v2c1.28 0 2.732.448 4.112 1.462l1.184-1.612zm-5.296-1.85c-.67 0-1.315.125-1.824.47a1.9 1.9 0 00-.856 1.61h2c0-.017.003-.003-.011.024-.015.027-.028.032-.011.02.05-.033.244-.124.702-.124v-2zm-2.68 2.08v.048h2v-.048h-2zm0 .048c0 .322.064.677.274 1.02.203.333.495.572.81.753.59.34 1.466.586 2.635.837l.419-1.956c-1.184-.253-1.771-.45-2.057-.615-.123-.07-.123-.099-.1-.062.027.045.02.073.02.023h-2zm3.715 2.609c1.894.414 3.275.901 4.173 1.575.826.62 1.28 1.42 1.28 2.68h2c0-1.884-.746-3.28-2.08-4.28-1.261-.946-3-1.503-4.946-1.929l-.427 1.954zm5.453 4.255v.048h2v-.048h-2zm0 .048c0 1.425-.55 2.498-1.486 3.239-.963.76-2.42 1.233-4.306 1.233v2c2.195 0 4.133-.548 5.546-1.665 1.44-1.137 2.246-2.8 2.246-4.807h-2zm1.758 2.688l-.767-.642-.628.75.736.645.659-.753zm2.592-3.096l.62-.785-.763-.602-.624.745.767.642zm4.536-.816l.243-.97-.01-.002-.01-.003-.223.975zm7.08-8.448l.816.578.544-.769-.734-.589-.626.78zm-2.328 3.288l-.592.806.82.602.588-.83-.816-.578zm-3.456 1.104l.214-.977h-.004l-.21.977zm-.552 9.752c-2.791 0-5.308-.869-7.213-2.537l-1.317 1.506c2.318 2.028 5.321 3.031 8.53 3.031v-2zm-7.105-1.142l2.592-3.096-1.534-1.284-2.592 3.096 1.534 1.284zm1.206-2.953c1.857 1.465 3.895 2.231 6.067 2.231v-2c-1.668 0-3.278-.578-4.829-1.801l-1.238 1.57zm6.067 2.231c.715 0 1.41-.11 1.961-.438.618-.368.983-.976.983-1.714h-2c0 .03-.005.019.01-.008.015-.025.023-.02-.017.004-.104.062-.38.156-.937.156v2zm2.944-2.152v-.048h-2v.048h2zm0-.048c0-.315-.063-.666-.272-1.004-.202-.327-.49-.557-.792-.732-.565-.326-1.414-.582-2.55-.866l-.485 1.94c1.169.292 1.748.492 2.035.658.124.072.118.096.091.053-.033-.055-.027-.094-.027-.049h2zm-3.632-2.607c-1.787-.41-3.195-.828-4.16-1.488-.875-.6-1.4-1.404-1.4-2.793h-2c0 2.067.867 3.482 2.271 4.443 1.316.9 3.076 1.382 4.841 1.788l.448-1.95zm-5.56-4.281v-.048h-2v.048h2zm0-.048c0-1.291.499-2.352 1.387-3.104.901-.764 2.28-1.272 4.117-1.272v-2c-2.195 0-4.068.608-5.41 1.746-1.357 1.15-2.094 2.777-2.094 4.63h2zm5.504-4.376c2.682 0 4.661.708 6.286 2.012l1.252-1.56c-2.023-1.624-4.46-2.452-7.538-2.452v2zm6.096.654l-2.328 3.288 1.632 1.156 2.328-3.288-1.632-1.156zm-.92 3.06c-1.691-1.242-3.552-1.85-5.296-1.85v2c1.28 0 2.731.448 4.112 1.462l1.184-1.612zm-5.296-1.85c-.67 0-1.315.125-1.824.47a1.9 1.9 0 00-.856 1.61h2c0-.017.003-.003-.011.024-.015.027-.028.032-.011.02.05-.033.244-.124.702-.124v-2zm-2.68 2.08v.048h2v-.048h-2zm0 .048c0 .322.064.677.273 1.02.204.333.496.572.81.753.59.34 1.467.586 2.636.837l.419-1.956c-1.184-.253-1.771-.45-2.057-.615-.124-.07-.123-.099-.1-.062.027.045.019.073.019.023h-2zm3.714 2.609c1.895.414 3.275.901 4.174 1.575.826.62 1.28 1.42 1.28 2.68h2c0-1.884-.746-3.28-2.08-4.28-1.261-.946-3.001-1.503-4.946-1.929l-.428 1.954zm5.454 4.255v.048h2v-.048h-2zm0 .048c0 1.425-.55 2.498-1.486 3.239-.963.76-2.42 1.233-4.306 1.233v2c2.195 0 4.133-.548 5.546-1.665 1.44-1.137 2.246-2.8 2.246-4.807h-2zM94.851 22h-1v1h1v-1zm0-16.8v-1h-1v1h1zm13.512 0h1v-1h-1v1zm0 3.936v1h1v-1h-1zm-8.904 0v-1h-1v1h1zm0 2.568h-1v1h1v-1zm8.064 0h1v-1h-1v1zm0 3.672v1h1v-1h-1zm-8.064 0v-1h-1v1h1zm0 2.664h-1v1h1v-1zm9.024 0h1v-1h-1v1zm0 3.96v1h1v-1h-1zm-12.632 0V5.2h-2V22h2zm-1-15.8h13.512v-2H94.851v2zm12.512-1v3.936h2V5.2h-2zm1 2.936h-8.904v2h8.904v-2zm-9.904 1v2.568h2V9.136h-2zm1 3.568h8.064v-2h-8.064v2zm7.064-1v3.672h2v-3.672h-2zm1 2.672h-8.064v2h8.064v-2zm-9.064 1v2.664h2v-2.664h-2zm1 3.664h9.024v-2h-9.024v2zm8.024-1V22h2v-3.96h-2zm1 2.96H94.851v2h13.632v-2z" fill="red" mask="url(#a)"/><path d="M23.266 32.676a17.18 17.18 0 01-4.019-1.171c1.216-1.37 1.888-3.185 1.877-5.069-.01-1.883-.703-3.69-1.935-5.044-1.228 1.264-1.971 2.968-2.084 4.782a7.646 7.646 0 001.473 5.032 17.99 17.99 0 01-4.428-2.994 18.987 18.987 0 01-2.326-2.582c1.524-.78 2.725-2.13 3.374-3.79a7.751 7.751 0 00.146-5.217c-1.426.529-2.65 1.541-3.482 2.882a7.682 7.682 0 00-1.124 4.537 19.768 19.768 0 01-2.659-7.5c1.718-.36 3.243-1.402 4.264-2.914A7.676 7.676 0 0013.576 8.4a6.701 6.701 0 00-3.557 1.684 7.377 7.377 0 00-2.13 3.466c.01-1.348.153-2.69.426-4.007 1.256-1.164 2.073-2.771 2.3-4.526A7.7 7.7 0 009.552 0C8.288.885 7.334 2.186 6.836 3.704A7.766 7.766 0 006.793 8.4a22.74 22.74 0 00-.537 3.306 7.27 7.27 0 00-2.472-3.312A6.62 6.62 0 00.002 7.085c-.04 1.839.573 3.625 1.716 5.006 1.143 1.38 2.732 2.254 4.452 2.447.082 2.27.513 4.512 1.276 6.635A6.933 6.933 0 004.3 18.737 6.506 6.506 0 00.415 18.5c.416 1.89 1.52 3.527 3.07 4.553a6.549 6.549 0 005.197.918 21.047 21.047 0 002.413 3.6 6.513 6.513 0 00-3.688-.385 6.731 6.731 0 00-3.343 1.7c1.147 1.39 2.744 2.267 4.474 2.457a6.596 6.596 0 004.851-1.431 19.725 19.725 0 004.157 2.806 6.596 6.596 0 00-4.148 1.24c-1.223.873-2.15 2.14-2.646 3.615a6.51 6.51 0 005.086-.191c1.61-.752 2.89-2.13 3.574-3.852 1.168.44 2.372.762 3.597.962a.835.835 0 00.716-.234.956.956 0 00.087-1.243.852.852 0 00-.546-.334v-.005z" fill="url(#paint0_linear_2485_12030)"/><path d="M114.734 32.676a17.172 17.172 0 004.019-1.171c-1.216-1.37-1.888-3.185-1.877-5.069.01-1.883.703-3.69 1.935-5.044 1.228 1.264 1.971 2.968 2.085 4.782a7.647 7.647 0 01-1.473 5.032 18.003 18.003 0 004.427-2.994 18.997 18.997 0 002.326-2.582c-1.524-.78-2.725-2.13-3.375-3.79a7.762 7.762 0 01-.146-5.217c1.427.529 2.651 1.541 3.483 2.882a7.686 7.686 0 011.124 4.537 19.772 19.772 0 002.659-7.5c-1.718-.36-3.243-1.402-4.264-2.914a7.677 7.677 0 01-1.233-5.227 6.702 6.702 0 013.557 1.684 7.38 7.38 0 012.13 3.466 20.567 20.567 0 00-.426-4.007c-1.256-1.164-2.073-2.771-2.3-4.526A7.698 7.698 0 01128.449 0c1.263.885 2.217 2.186 2.715 3.704a7.774 7.774 0 01.043 4.696c.26 1.085.439 2.191.537 3.306a7.272 7.272 0 012.472-3.312 6.623 6.623 0 013.782-1.309c.039 1.839-.573 3.625-1.716 5.006-1.143 1.38-2.732 2.254-4.452 2.447a21.976 21.976 0 01-1.276 6.635 6.935 6.935 0 013.146-2.436 6.505 6.505 0 013.885-.237c-.416 1.89-1.52 3.527-3.07 4.553a6.548 6.548 0 01-5.197.918 21.061 21.061 0 01-2.413 3.6 6.514 6.514 0 013.688-.385 6.736 6.736 0 013.343 1.7c-1.147 1.39-2.744 2.267-4.474 2.457a6.596 6.596 0 01-4.851-1.431 19.732 19.732 0 01-4.157 2.806 6.593 6.593 0 014.148 1.24c1.223.873 2.15 2.14 2.646 3.615a6.509 6.509 0 01-5.086-.191c-1.611-.752-2.889-2.13-3.574-3.852-1.168.44-2.372.762-3.597.962a.836.836 0 01-.716-.234.96.96 0 01-.087-1.243c.136-.18.331-.3.546-.334v-.005z" fill="url(#paint1_linear_2485_12030)"/><defs><linearGradient id="paint0_linear_2485_12030" x1="24" y1="0" x2="13.643" y2="41.412" gradientUnits="userSpaceOnUse"><stop stop-color="#22222E"/><stop offset="1" stop-color="#1F1F2F"/></linearGradient><linearGradient id="paint1_linear_2485_12030" x1="114" y1="0" x2="124.357" y2="41.412" gradientUnits="userSpaceOnUse"><stop stop-color="#22222E"/><stop offset="1" stop-color="#1F1F2F"/></linearGradient></defs></svg>