<svg width="138" height="38" fill="none" xmlns="http://www.w3.org/2000/svg"><path d="M97.946 23.336c-3.64 0-6.702-1.083-9.184-3.248l3.024-3.612c1.997 1.568 4.116 2.352 6.356 2.352 1.512 0 2.268-.448 2.268-1.344v-.056c0-.43-.224-.765-.672-1.008-.448-.261-1.335-.56-2.66-.896-1.195-.28-2.175-.55-2.94-.812a11.848 11.848 0 01-2.268-1.064c-.747-.467-1.298-1.045-1.652-1.736-.355-.71-.532-1.55-.532-2.52v-.056c0-1.867.681-3.379 2.044-4.536 1.381-1.157 3.23-1.736 5.544-1.736 3.21 0 5.898.868 8.064 2.604l-2.716 3.836c-1.755-1.288-3.584-1.932-5.488-1.932-1.307 0-1.96.42-1.96 1.26v.056c0 .448.233.812.7 1.092.466.261 1.372.532 2.716.812 2.445.541 4.265 1.27 5.46 2.184 1.213.896 1.82 2.203 1.82 3.92v.056c0 1.979-.719 3.537-2.156 4.676-1.438 1.139-3.36 1.708-5.768 1.708zm-17.992 0c-3.64 0-6.702-1.083-9.184-3.248l3.024-3.612c1.997 1.568 4.116 2.352 6.356 2.352 1.512 0 2.268-.448 2.268-1.344v-.056c0-.43-.224-.765-.672-1.008-.448-.261-1.335-.56-2.66-.896-1.195-.28-2.175-.55-2.94-.812a11.848 11.848 0 01-2.268-1.064c-.747-.467-1.298-1.045-1.652-1.736-.355-.71-.532-1.55-.532-2.52v-.056c0-1.867.68-3.379 2.044-4.536 1.38-1.157 3.229-1.736 5.544-1.736 3.21 0 5.898.868 8.064 2.604L84.63 9.504c-1.755-1.288-3.584-1.932-5.488-1.932-1.307 0-1.96.42-1.96 1.26v.056c0 .448.233.812.7 1.092.466.261 1.372.532 2.716.812 2.445.541 4.265 1.27 5.46 2.184 1.213.896 1.82 2.203 1.82 3.92v.056c0 1.979-.72 3.537-2.156 4.676-1.438 1.139-3.36 1.708-5.768 1.708zm-13.417-2.912c-2.016 1.979-4.527 2.968-7.532 2.968-3.006 0-5.516-.98-7.532-2.94-1.998-1.979-2.996-4.377-2.996-7.196V13.2c0-2.837 1.008-5.245 3.024-7.224 2.034-1.979 4.554-2.968 7.56-2.968 3.005 0 5.506.99 7.504 2.968 2.016 1.96 3.024 4.35 3.024 7.168v.056c0 2.837-1.018 5.245-3.052 7.224zm-11.088-3.5c.952 1.045 2.156 1.568 3.612 1.568s2.641-.504 3.556-1.512c.933-1.027 1.4-2.268 1.4-3.724V13.2c0-1.456-.476-2.697-1.428-3.724-.934-1.045-2.128-1.568-3.584-1.568s-2.65.513-3.584 1.54c-.934 1.008-1.4 2.24-1.4 3.696v.056c0 1.437.476 2.679 1.428 3.724zM32.96 23V3.4h5.433v14.84h9.492V23H32.96z" fill="#C1150A"/><path d="M104.87 16.952v-.056c0-1.45-.494-2.436-1.414-3.116l-.007-.005-.008-.005c-1.026-.786-2.682-1.473-5.067-2.001-1.33-.278-2.374-.572-2.99-.917l-.012-.007-.013-.007c-.692-.415-1.185-1.071-1.185-1.95v-.056c0-.727.31-1.375.949-1.786.564-.363 1.282-.474 2.01-.474 1.833 0 3.581.533 5.236 1.557l1.583-2.235c-1.825-1.208-4.036-1.83-6.679-1.83-2.144 0-3.741.533-4.896 1.498l-.205.183c-.991.93-1.486 2.102-1.486 3.59v.057c0 .844.153 1.522.421 2.063l.106.189c.262.43.644.814 1.177 1.149.689.413 1.379.736 2.07.973.543.185 1.21.378 2.007.58l.839.205.017.004c1.294.328 2.3.65 2.89.986.698.378 1.197 1.015 1.197 1.887v.056c0 .793-.368 1.46-1.057 1.868-.607.36-1.39.476-2.211.476-2.194 0-4.262-.68-6.19-1.993l-1.768 2.111c2.138 1.584 4.708 2.39 7.761 2.39v1c-3.64 0-6.7-1.083-9.183-3.248l3.024-3.612c1.872 1.47 3.852 2.25 5.938 2.342l.418.01c1.418 0 2.171-.394 2.259-1.181l.009-.163v-.056c0-.43-.224-.765-.672-1.008-.448-.261-1.335-.56-2.66-.896-1.195-.28-2.175-.55-2.94-.812a11.685 11.685 0 01-1.988-.9l-.28-.164c-.653-.408-1.157-.902-1.51-1.482l-.142-.254c-.355-.71-.532-1.55-.532-2.52v-.056c0-1.867.681-3.379 2.044-4.536 1.381-1.157 3.23-1.736 5.544-1.736l.596.01c2.949.102 5.438.967 7.468 2.594l-2.716 3.836c-1.645-1.207-3.356-1.85-5.132-1.925l-.356-.007c-1.307 0-1.96.42-1.96 1.26v.056l.01.164c.052.374.281.683.69.928.466.261 1.372.532 2.716.812 2.445.541 4.265 1.27 5.46 2.184 1.213.896 1.82 2.203 1.82 3.92v.056l-.009.366c-.084 1.806-.8 3.243-2.147 4.31l-.276.207c-1.404 1-3.235 1.501-5.492 1.501v-1c2.253 0 3.935-.532 5.147-1.492 1.177-.933 1.777-2.191 1.777-3.892zm-17.992 0v-.056c0-1.45-.494-2.436-1.414-3.116l-.007-.005-.008-.005c-1.026-.786-2.682-1.473-5.067-2.001-1.33-.278-2.374-.572-2.99-.917l-.012-.007-.013-.007c-.692-.415-1.185-1.071-1.185-1.95v-.056c0-.727.31-1.375.949-1.786.564-.363 1.282-.474 2.01-.474 1.833 0 3.581.533 5.236 1.557l1.583-2.235c-1.825-1.208-4.036-1.83-6.679-1.83-2.145 0-3.742.533-4.896 1.498l-.205.183c-.991.93-1.487 2.102-1.487 3.59v.057c0 .844.154 1.522.422 2.063l.106.189c.261.43.644.814 1.176 1.149.69.413 1.38.736 2.072.973.542.185 1.21.378 2.006.58l.839.205.017.004c1.294.328 2.3.65 2.89.986.698.378 1.197 1.015 1.197 1.887v.056c0 .793-.369 1.46-1.058 1.868-.607.36-1.389.476-2.21.476-2.194 0-4.262-.68-6.191-1.993l-1.768 2.111c2.138 1.584 4.71 2.39 7.762 2.39v1c-3.64 0-6.7-1.083-9.183-3.248l3.024-3.612c1.872 1.47 3.852 2.25 5.937 2.342l.419.01c1.417 0 2.17-.394 2.26-1.181l.008-.163v-.056c0-.43-.224-.765-.672-1.008-.448-.261-1.335-.56-2.66-.896-1.195-.28-2.175-.55-2.94-.812a11.685 11.685 0 01-1.988-.9l-.28-.164c-.654-.408-1.157-.902-1.51-1.482l-.142-.254c-.355-.71-.532-1.55-.532-2.52v-.056c0-1.867.68-3.379 2.044-4.536 1.38-1.157 3.229-1.736 5.544-1.736l.596.01c2.948.102 5.438.967 7.468 2.594L84.63 9.504c-1.645-1.207-3.356-1.85-5.132-1.925l-.356-.007c-1.307 0-1.96.42-1.96 1.26v.056l.01.164c.051.374.281.683.69.928.466.261 1.372.532 2.716.812 2.445.541 4.265 1.27 5.46 2.184 1.213.896 1.82 2.203 1.82 3.92v.056l-.009.366c-.084 1.806-.8 3.243-2.147 4.31l-.276.207c-1.404 1-3.235 1.501-5.492 1.501v-1c2.253 0 3.934-.532 5.147-1.492 1.176-.933 1.777-2.191 1.777-3.892zM68.589 13.2v-.056c0-2.55-.9-4.68-2.72-6.45l-.008-.007c-1.796-1.78-4.039-2.68-6.8-2.68-2.762 0-5.027.9-6.863 2.686-1.822 1.788-2.721 3.939-2.721 6.507v.056c0 2.552.893 4.695 2.7 6.485 1.814 1.761 4.066 2.65 6.828 2.65v1.001l-.558-.011c-2.576-.107-4.772-.965-6.59-2.573l-.384-.356c-1.998-1.979-2.996-4.377-2.996-7.196V13.2c0-2.66.886-4.943 2.658-6.848l.366-.376c2.034-1.979 4.554-2.968 7.56-2.968 3.005 0 5.506.99 7.504 2.968 2.016 1.96 3.024 4.35 3.024 7.168v.056l-.012.527c-.119 2.61-1.133 4.842-3.04 6.697-2.016 1.979-4.527 2.968-7.532 2.968v-1c2.762 0 5.015-.9 6.83-2.682l.005-.003c1.84-1.79 2.749-3.94 2.749-6.507zm-15.569 0v-.056c0-1.691.551-3.17 1.666-4.375 1.133-1.243 2.6-1.86 4.319-1.86 1.728 0 3.199.634 4.33 1.9 1.123 1.218 1.682 2.7 1.682 4.391v.056c0 1.69-.551 3.175-1.66 4.395-1.12 1.233-2.58 1.841-4.297 1.841-1.727 0-3.203-.634-4.351-1.894-1.123-1.233-1.688-2.716-1.689-4.398zm1 0l.006.267a5.317 5.317 0 001.423 3.457c.892.98 2.007 1.501 3.342 1.562l.27.006c1.456 0 2.641-.504 3.556-1.512.933-1.027 1.4-2.268 1.4-3.724V13.2c0-1.365-.418-2.541-1.255-3.53l-.173-.194c-.875-.98-1.98-1.5-3.315-1.562l-.27-.006c-1.455 0-2.65.513-3.583 1.54l-.17.192c-.82.97-1.23 2.14-1.23 3.504v.056zM37.393 4.4H33.96V22h12.924v-2.76h-9.492V4.4zm10.492 13.84V23H32.96V3.4h5.432v14.84h9.492z" fill="red"/><path d="M23.266 32.676a17.18 17.18 0 01-4.019-1.171c1.216-1.37 1.888-3.185 1.877-5.069-.01-1.883-.703-3.69-1.935-5.044-1.228 1.264-1.971 2.968-2.084 4.782a7.646 7.646 0 001.473 5.032 17.99 17.99 0 01-4.428-2.994 18.987 18.987 0 01-2.326-2.582c1.524-.78 2.725-2.13 3.374-3.79a7.751 7.751 0 00.146-5.217c-1.426.529-2.65 1.541-3.482 2.882a7.682 7.682 0 00-1.124 4.537 19.768 19.768 0 01-2.659-7.5c1.718-.36 3.243-1.402 4.264-2.914A7.676 7.676 0 0013.576 8.4a6.701 6.701 0 00-3.557 1.684 7.377 7.377 0 00-2.13 3.466c.01-1.348.153-2.69.426-4.007 1.256-1.164 2.073-2.771 2.3-4.526A7.7 7.7 0 009.552 0C8.288.885 7.334 2.186 6.836 3.704A7.766 7.766 0 006.793 8.4a22.74 22.74 0 00-.537 3.306 7.27 7.27 0 00-2.472-3.312A6.62 6.62 0 00.002 7.085c-.04 1.839.573 3.625 1.716 5.006 1.143 1.38 2.732 2.254 4.452 2.447.082 2.27.513 4.512 1.276 6.635A6.933 6.933 0 004.3 18.737 6.506 6.506 0 00.415 18.5c.416 1.89 1.52 3.527 3.07 4.553a6.549 6.549 0 005.197.918 21.047 21.047 0 002.413 3.6 6.513 6.513 0 00-3.688-.385 6.731 6.731 0 00-3.343 1.7c1.147 1.39 2.744 2.267 4.474 2.457a6.596 6.596 0 004.851-1.431 19.725 19.725 0 004.157 2.806 6.596 6.596 0 00-4.148 1.24c-1.223.873-2.15 2.14-2.646 3.615a6.51 6.51 0 005.086-.191c1.61-.752 2.89-2.13 3.574-3.852 1.168.44 2.372.762 3.597.962a.835.835 0 00.716-.234.956.956 0 00.087-1.243.852.852 0 00-.546-.334v-.005z" fill="url(#paint0_linear_5864_9903)"/><path d="M114.734 32.676a17.172 17.172 0 004.019-1.171c-1.216-1.37-1.888-3.185-1.877-5.069.01-1.883.703-3.69 1.935-5.044 1.228 1.264 1.971 2.968 2.085 4.782a7.647 7.647 0 01-1.473 5.032 18.003 18.003 0 004.427-2.994 18.997 18.997 0 002.326-2.582c-1.524-.78-2.725-2.13-3.375-3.79a7.762 7.762 0 01-.146-5.217c1.427.529 2.651 1.541 3.483 2.882a7.686 7.686 0 011.124 4.537 19.772 19.772 0 002.659-7.5c-1.718-.36-3.243-1.402-4.264-2.914a7.677 7.677 0 01-1.233-5.227 6.702 6.702 0 013.557 1.684 7.38 7.38 0 012.13 3.466 20.567 20.567 0 00-.426-4.007c-1.256-1.164-2.073-2.771-2.3-4.526A7.698 7.698 0 01128.449 0c1.263.885 2.217 2.186 2.715 3.704a7.774 7.774 0 01.043 4.696c.26 1.085.439 2.191.537 3.306a7.272 7.272 0 012.472-3.312 6.623 6.623 0 013.782-1.309c.039 1.839-.573 3.625-1.716 5.006-1.143 1.38-2.732 2.254-4.452 2.447a21.976 21.976 0 01-1.276 6.635 6.935 6.935 0 013.146-2.436 6.505 6.505 0 013.885-.237c-.416 1.89-1.52 3.527-3.07 4.553a6.548 6.548 0 01-5.197.918 21.061 21.061 0 01-2.413 3.6 6.514 6.514 0 013.688-.385 6.736 6.736 0 013.343 1.7c-1.147 1.39-2.744 2.267-4.474 2.457a6.596 6.596 0 01-4.851-1.431 19.732 19.732 0 01-4.157 2.806 6.593 6.593 0 014.148 1.24c1.223.873 2.15 2.14 2.646 3.615a6.509 6.509 0 01-5.086-.191c-1.611-.752-2.889-2.13-3.574-3.852-1.168.44-2.372.762-3.597.962a.836.836 0 01-.716-.234.96.96 0 01-.087-1.243c.136-.18.331-.3.546-.334v-.005z" fill="url(#paint1_linear_5864_9903)"/><defs><linearGradient id="paint0_linear_5864_9903" x1="114" y1="0" x2="124.357" y2="41.412" gradientUnits="userSpaceOnUse"><stop stop-color="#22222E"/><stop offset="1" stop-color="#1F1F2F"/></linearGradient><linearGradient id="paint1_linear_5864_9903" x1="114" y1="0" x2="124.357" y2="41.412" gradientUnits="userSpaceOnUse"><stop stop-color="#22222E"/><stop offset="1" stop-color="#1F1F2F"/></linearGradient></defs></svg>