<svg width="186" height="50" fill="none" xmlns="http://www.w3.org/2000/svg"><g filter="url(#filter0_d_4201_1790)"><path d="M29.266 38.676a17.18 17.18 0 01-4.019-1.171c1.216-1.37 1.888-3.186 1.877-5.069-.01-1.883-.703-3.69-1.935-5.044-1.228 1.264-1.971 2.968-2.084 4.782a7.646 7.646 0 001.473 5.032 17.99 17.99 0 01-4.428-2.994 18.987 18.987 0 01-2.326-2.583c1.524-.78 2.725-2.129 3.374-3.79.65-1.66.702-3.517.146-5.216-1.426.529-2.65 1.541-3.482 2.882a7.682 7.682 0 00-1.124 4.537 19.768 19.768 0 01-2.659-7.5c1.718-.36 3.243-1.402 4.264-2.914a7.676 7.676 0 001.233-5.227 6.701 6.701 0 00-3.557 1.684 7.377 7.377 0 00-2.13 3.466c.01-1.348.153-2.69.426-4.007 1.256-1.164 2.073-2.771 2.3-4.526A7.7 7.7 0 0015.552 6c-1.263.885-2.217 2.186-2.715 3.704a7.766 7.766 0 00-.043 4.696 22.734 22.734 0 00-.537 3.306 7.27 7.27 0 00-2.472-3.312 6.62 6.62 0 00-3.782-1.309c-.04 1.839.573 3.625 1.716 5.006 1.143 1.38 2.732 2.254 4.452 2.447.082 2.27.513 4.512 1.276 6.635a6.933 6.933 0 00-3.146-2.436 6.506 6.506 0 00-3.885-.237c.416 1.89 1.52 3.527 3.07 4.553a6.549 6.549 0 005.197.918 21.048 21.048 0 002.413 3.6 6.513 6.513 0 00-3.688-.385 6.73 6.73 0 00-3.342 1.7c1.146 1.39 2.743 2.267 4.473 2.457a6.596 6.596 0 004.851-1.431 19.725 19.725 0 004.157 2.806 6.596 6.596 0 00-4.148 1.24c-1.223.873-2.15 2.14-2.646 3.615a6.51 6.51 0 005.086-.191c1.61-.752 2.89-2.13 3.574-3.852 1.168.44 2.372.762 3.597.962a.835.835 0 00.716-.234.956.956 0 00.087-1.243.852.852 0 00-.546-.334v-.005z" fill="#000"/><path d="M29.266 38.676a17.18 17.18 0 01-4.019-1.171c1.216-1.37 1.888-3.186 1.877-5.069-.01-1.883-.703-3.69-1.935-5.044-1.228 1.264-1.971 2.968-2.084 4.782a7.646 7.646 0 001.473 5.032 17.99 17.99 0 01-4.428-2.994 18.987 18.987 0 01-2.326-2.583c1.524-.78 2.725-2.129 3.374-3.79.65-1.66.702-3.517.146-5.216-1.426.529-2.65 1.541-3.482 2.882a7.682 7.682 0 00-1.124 4.537 19.768 19.768 0 01-2.659-7.5c1.718-.36 3.243-1.402 4.264-2.914a7.676 7.676 0 001.233-5.227 6.701 6.701 0 00-3.557 1.684 7.377 7.377 0 00-2.13 3.466c.01-1.348.153-2.69.426-4.007 1.256-1.164 2.073-2.771 2.3-4.526A7.7 7.7 0 0015.552 6c-1.263.885-2.217 2.186-2.715 3.704a7.766 7.766 0 00-.043 4.696 22.734 22.734 0 00-.537 3.306 7.27 7.27 0 00-2.472-3.312 6.62 6.62 0 00-3.782-1.309c-.04 1.839.573 3.625 1.716 5.006 1.143 1.38 2.732 2.254 4.452 2.447.082 2.27.513 4.512 1.276 6.635a6.933 6.933 0 00-3.146-2.436 6.506 6.506 0 00-3.885-.237c.416 1.89 1.52 3.527 3.07 4.553a6.549 6.549 0 005.197.918 21.048 21.048 0 002.413 3.6 6.513 6.513 0 00-3.688-.385 6.73 6.73 0 00-3.342 1.7c1.146 1.39 2.743 2.267 4.473 2.457a6.596 6.596 0 004.851-1.431 19.725 19.725 0 004.157 2.806 6.596 6.596 0 00-4.148 1.24c-1.223.873-2.15 2.14-2.646 3.615a6.51 6.51 0 005.086-.191c1.61-.752 2.89-2.13 3.574-3.852 1.168.44 2.372.762 3.597.962a.835.835 0 00.716-.234.956.956 0 00.087-1.243.852.852 0 00-.546-.334v-.005z" fill="#DDC916"/><path fill-rule="evenodd" clip-rule="evenodd" d="M21.768 38.881a6.685 6.685 0 00-2.37 1.077 7.198 7.198 0 00-2.437 3.065c-.077.18-.146.363-.21.55a6.595 6.595 0 00.96.283 6.512 6.512 0 004.127-.474c1.61-.752 2.89-2.13 3.574-3.852 1.168.44 2.372.762 3.597.962a.835.835 0 00.716-.234.956.956 0 00.087-1.243.852.852 0 00-.546-.334v-.005a17.14 17.14 0 01-4.019-1.171c.23-.259.44-.533.63-.82a7.645 7.645 0 001.247-4.249 7.635 7.635 0 00-1.31-4.25 7.233 7.233 0 00-.625-.794 7.21 7.21 0 00-.651.772 7.606 7.606 0 00-1.433 4.01 7.738 7.738 0 00.558 3.412 7.456 7.456 0 00.915 1.62 17.739 17.739 0 01-1.705-.93 18.151 18.151 0 01-4.419-3.849c-.216-.26-.427-.525-.63-.797a6.79 6.79 0 00.858-.523 7.251 7.251 0 002.517-3.268 7.758 7.758 0 00.145-5.216 6.677 6.677 0 00-.915.42 7.06 7.06 0 00-2.567 2.462 7.594 7.594 0 00-1.017 2.658 7.778 7.778 0 00-.107 1.88 19.364 19.364 0 01-.93-1.726 19.89 19.89 0 01-1.729-5.775c1.718-.36 3.243-1.402 4.264-2.914a7.64 7.64 0 001.292-4.225 7.789 7.789 0 00-.059-1.002c-.333.047-.66.12-.981.217a6.77 6.77 0 00-2.576 1.467 7.13 7.13 0 00-.963 1.068 7.498 7.498 0 00-1.167 2.398 20.554 20.554 0 01.426-4.007c1.256-1.164 2.073-2.771 2.3-4.526a7.742 7.742 0 00-.594-4.125 7.48 7.48 0 00-.47-.893 6.958 6.958 0 00-.783.638 7.37 7.37 0 00-1.932 3.066 7.766 7.766 0 00-.043 4.696 22.643 22.643 0 00-.537 3.306 7.48 7.48 0 00-.817-1.583 7.114 7.114 0 00-1.655-1.729A6.671 6.671 0 007 13.186a6.495 6.495 0 00-.998-.1c-.007.336.007.67.043 1a7.556 7.556 0 001.673 4.005c1.143 1.38 2.732 2.254 4.452 2.447a22.058 22.058 0 001.276 6.635 7.097 7.097 0 00-1.528-1.55 6.755 6.755 0 00-1.618-.886 6.517 6.517 0 00-3.885-.237 7.72 7.72 0 00.279.962c.535 1.48 1.51 2.744 2.79 3.59a6.549 6.549 0 005.198.919 21.207 21.207 0 002.413 3.6 6.489 6.489 0 00-3.688-.385 6.66 6.66 0 00-2.707 1.175c-.22.161-.433.337-.635.525a7.134 7.134 0 00.688.725 6.696 6.696 0 003.785 1.732 6.596 6.596 0 004.851-1.431 19.872 19.872 0 004.157 2.806 6.496 6.496 0 00-1.778.163zm2.173-.849l-.442 1.685a5.595 5.595 0 00-3.52 1.054 6.178 6.178 0 00-1.861 2.146 5.515 5.515 0 003.297-.441c1.369-.64 2.473-1.82 3.068-3.316l.304-.764-.846-.364zm1.11-1.912a6.648 6.648 0 001.073-3.678 6.658 6.658 0 00-.961-3.424 6.63 6.63 0 00-1.06 3.218 6.686 6.686 0 00.947 3.884zm-5.798-1.379a19.9 19.9 0 01-1.526-1.624l-1.014 1.379a5.512 5.512 0 00-3.122-.327 5.65 5.65 0 00-2.035.817 5.685 5.685 0 003.091 1.363c1.46.161 2.93-.269 4.118-1.218l.488-.39zm-2.705-3.582l.82-.42c1.297-.664 2.335-1.82 2.9-3.264a6.755 6.755 0 00.39-3.407 6.09 6.09 0 00-1.946 1.964 6.683 6.683 0 00-.976 3.946l-1.613.507c.137.228.28.453.425.674zm-1.583-2.288l-.522.129a5.548 5.548 0 01-4.406-.781 6.227 6.227 0 01-2.33-2.903 5.52 5.52 0 012.238.356 5.933 5.933 0 012.69 2.087l1.52-.802c.238.652.508 1.291.81 1.914zm-1.718-7.176l.627-.132c1.453-.304 2.758-1.189 3.64-2.495.675-1 1.06-2.186 1.115-3.409a5.792 5.792 0 00-1.939 1.167 6.378 6.378 0 00-1.838 2.997l-1.963-.28c.005-.571.032-1.142.082-1.71l-1.652.223a6.271 6.271 0 00-2.13-2.858 5.692 5.692 0 00-2.12-.977 6.54 6.54 0 001.42 3.232c.984 1.19 2.34 1.928 3.793 2.091l.857.096.03.862c.015.399.04.796.078 1.193zm.502-6.993c1.015-.99 1.684-2.336 1.875-3.812a6.754 6.754 0 00-.396-3.3 6.401 6.401 0 00-1.442 2.426 6.766 6.766 0 00-.037 4.09l.08.26-.063.267-.017.069z" fill="#FFE500"/><path d="M147.585 28.704l-1.888-12.384V13.6h6.912v2.72l-1.856 12.384h-3.168zM146.017 36v-5.44h6.304V36h-6.304zm-16.693 0v-8.384L120.78 13.6h7.072l4.608 8.16 4.64-8.16h6.944l-8.512 13.92V36h-6.208z" fill="#DDC916"/><path d="M100.422 36V13.6h6.208v9.088l7.711-9.088h7.36l-8.48 9.6L121.99 36h-7.425l-5.663-8.32-2.272 2.496V36h-6.208zm-12.591.448c-6.4 0-11.552-4.896-11.552-11.584V24.8c0-6.528 4.992-11.648 11.776-11.648 4.544 0 7.552 1.92 9.504 4.64l-4.672 3.616c-1.28-1.568-2.72-2.624-4.896-2.624-3.136 0-5.344 2.688-5.344 5.952v.064c0 3.36 2.208 5.984 5.344 5.984 2.336 0 3.68-1.088 5.056-2.72l4.672 3.328c-2.144 2.912-4.96 5.056-9.888 5.056zm-24.986-.032c-6.336 0-10.336-3.2-10.336-10.24V13.6h6.272v12.448c0 3.232 1.6 4.768 4.128 4.768 2.56 0 4.16-1.44 4.16-4.608V13.6h6.272v12.416c0 7.2-4.128 10.4-10.496 10.4zM33.64 36V13.6h6.208v16.96h10.848V36H33.64z" fill="#DDC916"/><path fill-rule="evenodd" clip-rule="evenodd" d="M148.444 27.704h1.447l1.718-11.459V14.6h-4.912v1.644l1.747 11.46zm-2.747-11.384l1.888 12.384h3.168l1.856-12.384V13.6h-6.912v2.72zm1.32 15.24V35h4.304v-3.44h-4.304zm-1 4.44h6.304v-5.44h-6.304V36zm-16.693-8.384V36h6.208v-8.48l8.512-13.92H137.1l-4.64 8.16-4.608-8.16h-8.243l.854 1.402.693-.785 8.168 13.399zM122.56 14.6l7.764 12.735V35h4.208v-7.762L142.26 14.6h-4.579l-5.224 9.188-5.189-9.188h-4.708z" fill="#FFE500"/><path fill-rule="evenodd" clip-rule="evenodd" d="M106.63 13.6h-6.208V36h6.208v-5.824l2.272-2.496 5.663 8.32h7.425l-8.769-12.8 7.935-8.983.545.894 1.335-1.511h-8.695l-7.711 9.088V13.6zm8.174 1l-9.174 10.812V14.6h-4.208V35h4.208v-5.211l3.385-3.72L115.094 35h4.998l-8.136-11.878 7.528-8.522h-4.68zM77.28 24.864c0 6.123 4.69 10.584 10.551 10.584 2.311 0 4.074-.5 5.495-1.306 1.143-.648 2.102-1.514 2.961-2.542l-3.089-2.2c-.542.574-1.129 1.091-1.807 1.495-.963.573-2.061.889-3.4.889-3.807 0-6.344-3.199-6.344-6.984v-.064c0-3.686 2.534-6.952 6.344-6.952 2.2 0 3.757.936 5.026 2.26l3.135-2.428c-1.767-2.061-4.333-3.464-8.097-3.464-6.232 0-10.776 4.672-10.776 10.648v.064zm19.664-7.86c-1.951-2.296-4.797-3.852-8.889-3.852-6.784 0-11.776 5.12-11.776 11.648v.064c0 6.688 5.152 11.584 11.552 11.584 4.471 0 7.204-1.765 9.273-4.267.212-.255.416-.519.615-.789l-4.672-3.328c-1.376 1.632-2.72 2.72-5.056 2.72-3.136 0-5.344-2.624-5.344-5.984v-.064c0-3.264 2.208-5.952 5.344-5.952 2.176 0 3.616 1.056 4.896 2.624l4.672-3.616a12.254 12.254 0 00-.615-.788zM55.985 33.206c1.546 1.45 3.848 2.21 6.86 2.21 3.03 0 5.373-.761 6.955-2.232 1.57-1.46 2.541-3.76 2.541-7.168V14.6H68.07v11.608c0 1.741-.44 3.178-1.396 4.182-.962 1.01-2.3 1.426-3.764 1.426-1.47 0-2.8-.453-3.752-1.5-.938-1.032-1.376-2.5-1.376-4.268V14.6H53.51v11.576c0 3.331.942 5.592 2.476 7.03zm-3.476-7.03c0 7.04 4 10.24 10.336 10.24 6.368 0 10.496-3.2 10.496-10.4V13.6H67.07v12.608c0 3.168-1.6 4.608-4.16 4.608-2.528 0-4.128-1.536-4.128-4.768V13.6H52.51v12.576zM39.848 30.56V13.6H33.64V36h17.056v-5.44H39.848zm9.848 1H38.848V14.6H34.64V35h15.056v-3.44z" fill="#FFE500"/><path d="M156.734 38.676a17.172 17.172 0 004.019-1.171c-1.216-1.37-1.888-3.186-1.877-5.069.01-1.883.703-3.69 1.935-5.044 1.228 1.264 1.971 2.968 2.085 4.782a7.647 7.647 0 01-1.473 5.032 18.003 18.003 0 004.427-2.994 18.997 18.997 0 002.326-2.583c-1.524-.78-2.725-2.129-3.375-3.79a7.762 7.762 0 01-.146-5.216c1.427.529 2.651 1.541 3.483 2.882a7.686 7.686 0 011.124 4.537 19.772 19.772 0 002.659-7.5c-1.718-.36-3.243-1.402-4.264-2.914a7.677 7.677 0 01-1.233-5.227 6.702 6.702 0 013.557 1.684 7.38 7.38 0 012.13 3.466 20.566 20.566 0 00-.426-4.007c-1.256-1.164-2.073-2.771-2.3-4.526A7.698 7.698 0 01170.449 6c1.263.885 2.217 2.186 2.715 3.704a7.774 7.774 0 01.043 4.696c.26 1.085.439 2.191.537 3.306a7.272 7.272 0 012.472-3.312 6.623 6.623 0 013.782-1.309c.039 1.839-.573 3.625-1.716 5.006-1.143 1.38-2.732 2.254-4.452 2.447a21.976 21.976 0 01-1.276 6.635 6.935 6.935 0 013.146-2.436 6.505 6.505 0 013.885-.237c-.416 1.89-1.52 3.527-3.07 4.553a6.548 6.548 0 01-5.197.918 21.061 21.061 0 01-2.413 3.6 6.514 6.514 0 013.688-.385 6.736 6.736 0 013.343 1.7c-1.147 1.39-2.744 2.267-4.474 2.457a6.596 6.596 0 01-4.851-1.431 19.732 19.732 0 01-4.157 2.806 6.593 6.593 0 014.148 1.24c1.223.873 2.15 2.14 2.646 3.615a6.509 6.509 0 01-5.086-.191c-1.611-.752-2.889-2.13-3.574-3.852-1.168.44-2.372.762-3.597.962a.836.836 0 01-.716-.234.96.96 0 01-.087-1.243c.136-.18.331-.3.546-.334v-.005z" fill="#000"/><path d="M156.734 38.676a17.172 17.172 0 004.019-1.171c-1.216-1.37-1.888-3.186-1.877-5.069.01-1.883.703-3.69 1.935-5.044 1.228 1.264 1.971 2.968 2.085 4.782a7.647 7.647 0 01-1.473 5.032 18.003 18.003 0 004.427-2.994 18.997 18.997 0 002.326-2.583c-1.524-.78-2.725-2.129-3.375-3.79a7.762 7.762 0 01-.146-5.216c1.427.529 2.651 1.541 3.483 2.882a7.686 7.686 0 011.124 4.537 19.772 19.772 0 002.659-7.5c-1.718-.36-3.243-1.402-4.264-2.914a7.677 7.677 0 01-1.233-5.227 6.702 6.702 0 013.557 1.684 7.38 7.38 0 012.13 3.466 20.566 20.566 0 00-.426-4.007c-1.256-1.164-2.073-2.771-2.3-4.526A7.698 7.698 0 01170.449 6c1.263.885 2.217 2.186 2.715 3.704a7.774 7.774 0 01.043 4.696c.26 1.085.439 2.191.537 3.306a7.272 7.272 0 012.472-3.312 6.623 6.623 0 013.782-1.309c.039 1.839-.573 3.625-1.716 5.006-1.143 1.38-2.732 2.254-4.452 2.447a21.976 21.976 0 01-1.276 6.635 6.935 6.935 0 013.146-2.436 6.505 6.505 0 013.885-.237c-.416 1.89-1.52 3.527-3.07 4.553a6.548 6.548 0 01-5.197.918 21.061 21.061 0 01-2.413 3.6 6.514 6.514 0 013.688-.385 6.736 6.736 0 013.343 1.7c-1.147 1.39-2.744 2.267-4.474 2.457a6.596 6.596 0 01-4.851-1.431 19.732 19.732 0 01-4.157 2.806 6.593 6.593 0 014.148 1.24c1.223.873 2.15 2.14 2.646 3.615a6.509 6.509 0 01-5.086-.191c-1.611-.752-2.889-2.13-3.574-3.852-1.168.44-2.372.762-3.597.962a.836.836 0 01-.716-.234.96.96 0 01-.087-1.243c.136-.18.331-.3.546-.334v-.005z" fill="#DDC916"/><path fill-rule="evenodd" clip-rule="evenodd" d="M164.232 38.881c.842.196 1.647.56 2.37 1.077a7.196 7.196 0 012.437 3.065c.077.18.146.363.209.55a6.548 6.548 0 01-.96.283 6.51 6.51 0 01-4.126-.474c-1.611-.752-2.889-2.13-3.574-3.852-1.168.44-2.372.762-3.597.962a.836.836 0 01-.716-.234.96.96 0 01-.087-1.243c.136-.18.331-.3.546-.334v-.005a17.145 17.145 0 004.019-1.171 7.312 7.312 0 01-.629-.82 7.644 7.644 0 01-1.248-4.249 7.63 7.63 0 011.309-4.25c.19-.279.399-.544.626-.794.235.242.453.5.651.772a7.61 7.61 0 011.434 4.01 7.755 7.755 0 01-.559 3.412 7.482 7.482 0 01-.914 1.62 17.882 17.882 0 001.704-.93 18.14 18.14 0 004.419-3.849c.217-.26.427-.525.63-.797a6.834 6.834 0 01-.858-.523 7.255 7.255 0 01-2.517-3.268 7.767 7.767 0 01-.146-5.216c.316.117.622.258.916.42a7.057 7.057 0 012.567 2.462 7.59 7.59 0 011.017 2.658c.111.615.148 1.247.107 1.88.339-.56.649-1.136.93-1.726a19.893 19.893 0 001.729-5.775c-1.718-.36-3.243-1.402-4.264-2.914a7.635 7.635 0 01-1.292-4.225 7.665 7.665 0 01.059-1.002c.333.047.661.12.981.217a6.767 6.767 0 012.576 1.467c.356.322.678.68.963 1.068a7.5 7.5 0 011.167 2.398 20.784 20.784 0 00-.426-4.007c-1.256-1.164-2.073-2.771-2.3-4.526a7.733 7.733 0 01.594-4.125c.136-.307.293-.606.47-.893.277.194.538.407.783.638a7.362 7.362 0 011.932 3.066 7.774 7.774 0 01.043 4.696 22.575 22.575 0 01.537 3.306 7.48 7.48 0 01.817-1.583 7.123 7.123 0 011.655-1.729A6.679 6.679 0 01179 13.186a6.48 6.48 0 01.998-.1c.007.336-.007.67-.043 1a7.563 7.563 0 01-1.673 4.005c-1.143 1.38-2.732 2.254-4.452 2.447a22.08 22.08 0 01-1.276 6.635 7.11 7.11 0 011.528-1.55 6.762 6.762 0 011.618-.886 6.514 6.514 0 013.885-.237 7.801 7.801 0 01-.279.961c-.535 1.48-1.511 2.745-2.791 3.592a6.548 6.548 0 01-5.197.918 21.111 21.111 0 01-2.413 3.6 6.49 6.49 0 013.688-.385 6.66 6.66 0 012.707 1.175c.22.161.433.337.636.525a7.18 7.18 0 01-.689.725 6.697 6.697 0 01-3.785 1.732 6.596 6.596 0 01-4.851-1.431 19.899 19.899 0 01-4.157 2.806c.6-.028 1.198.028 1.778.163zm-2.173-.849l.442 1.685a5.596 5.596 0 013.52 1.054 6.172 6.172 0 011.861 2.146 5.513 5.513 0 01-3.297-.441c-1.369-.64-2.473-1.82-3.068-3.316l-.304-.764.846-.364zm-1.109-1.912a6.64 6.64 0 01-1.074-3.678 6.66 6.66 0 01.961-3.424 6.62 6.62 0 011.06 3.218 6.68 6.68 0 01-.947 3.884zm5.797-1.379a19.907 19.907 0 001.526-1.624l1.014 1.379a5.51 5.51 0 013.122-.327c.72.135 1.41.412 2.035.817a5.682 5.682 0 01-3.091 1.363c-1.46.161-2.93-.269-4.118-1.218l-.488-.39zm2.705-3.582l-.82-.42c-1.297-.664-2.335-1.82-2.899-3.264a6.75 6.75 0 01-.391-3.407 6.088 6.088 0 011.946 1.964 6.678 6.678 0 01.976 3.946l1.613.507a19.28 19.28 0 01-.425.674zm1.583-2.288l.522.129a5.546 5.546 0 004.406-.781 6.222 6.222 0 002.329-2.903 5.52 5.52 0 00-2.237.356 5.932 5.932 0 00-2.69 2.087l-1.52-.802a20.511 20.511 0 01-.81 1.914zm1.718-7.176l-.627-.132c-1.453-.304-2.758-1.189-3.64-2.495a6.624 6.624 0 01-1.115-3.409 5.793 5.793 0 011.939 1.167 6.378 6.378 0 011.838 2.997l1.963-.28a21.71 21.71 0 00-.082-1.71l1.652.223a6.27 6.27 0 012.13-2.858 5.686 5.686 0 012.119-.977 6.536 6.536 0 01-1.419 3.232c-.984 1.19-2.34 1.928-3.793 2.091l-.857.096-.031.862c-.014.399-.04.796-.077 1.193zm-.502-6.993c-1.015-.99-1.684-2.336-1.875-3.812a6.745 6.745 0 01.396-3.3 6.41 6.41 0 011.442 2.426 6.763 6.763 0 01.037 4.09l-.081.26.064.267.017.069z" fill="#FFE500"/></g><defs><filter id="filter0_d_4201_1790" x="0" y="0" width="186" height="50" filterUnits="userSpaceOnUse" color-interpolation-filters="sRGB"><feFlood flood-opacity="0" result="BackgroundImageFix"/><feColorMatrix in="SourceAlpha" values="0 0 0 0 0 0 0 0 0 0 0 0 0 0 0 0 0 0 127 0" result="hardAlpha"/><feOffset/><feGaussianBlur stdDeviation="3"/><feComposite in2="hardAlpha" operator="out"/><feColorMatrix values="0 0 0 0 1 0 0 0 0 0.6 0 0 0 0 0 0 0 0 0.35 0"/><feBlend in2="BackgroundImageFix" result="effect1_dropShadow_4201_1790"/><feBlend in="SourceGraphic" in2="effect1_dropShadow_4201_1790" result="shape"/></filter></defs></svg>