<svg width="243" height="420" fill="none" xmlns="http://www.w3.org/2000/svg"><g opacity=".65"><mask id="a" style="mask-type:alpha" maskUnits="userSpaceOnUse" x="0" y="0" width="243" height="420"><rect width="243" height="420" rx="12" transform="matrix(1 0 0 -1 0 420)" fill="url(#paint0_linear_2485_11061)"/></mask><g mask="url(#a)"><path d="M153 420h90v-90l-90 90z" fill="url(#paint1_linear_2485_11061)" fill-opacity=".35"/><path d="M75 420h168V252L75 420z" fill="url(#paint2_linear_2485_11061)" fill-opacity=".25"/><path d="M0 420h243V177L0 420z" fill="url(#paint3_linear_2485_11061)" fill-opacity=".15"/></g><mask id="b" style="mask-type:alpha" maskUnits="userSpaceOnUse" x="0" y="0" width="243" height="420"><rect width="243" height="420" rx="12" fill="url(#paint4_linear_2485_11061)"/></mask><g mask="url(#b)"><path d="M90 420H0v-90l90 90z" fill="url(#paint5_linear_2485_11061)" fill-opacity=".35"/><path d="M168 420H0V252l168 168z" fill="url(#paint6_linear_2485_11061)" fill-opacity=".25"/><path d="M243 420H0V177l243 243z" fill="url(#paint7_linear_2485_11061)" fill-opacity=".15"/></g><mask id="c" style="mask-type:alpha" maskUnits="userSpaceOnUse" x="0" y="0" width="243" height="420"><rect width="243" height="420" rx="12" fill="url(#paint8_linear_2485_11061)"/></mask><g mask="url(#c)"><path d="M153 0h90v90L153 0z" fill="url(#paint9_linear_2485_11061)" fill-opacity=".35"/><path d="M75 0h168v168L75 0z" fill="url(#paint10_linear_2485_11061)" fill-opacity=".25"/><path d="M0 0h243v243L0 0z" fill="url(#paint11_linear_2485_11061)" fill-opacity=".15"/></g><mask id="d" style="mask-type:alpha" maskUnits="userSpaceOnUse" x="0" y="0" width="243" height="420"><rect width="243" height="420" rx="12" transform="matrix(1 0 0 -1 0 420)" fill="url(#paint12_linear_2485_11061)"/></mask><g mask="url(#d)"><path d="M90 0H0v90L90 0z" fill="url(#paint13_linear_2485_11061)" fill-opacity=".35"/><path d="M168 0H0v168L168 0z" fill="url(#paint14_linear_2485_11061)" fill-opacity=".25"/><path d="M243 0H0v243L243 0z" fill="url(#paint15_linear_2485_11061)" fill-opacity=".15"/></g></g><defs><linearGradient id="paint0_linear_2485_11061" x1="121.5" y1="0" x2="121.5" y2="420" gradientUnits="userSpaceOnUse"><stop stop-color="#161622"/><stop offset="1" stop-color="#12121F"/></linearGradient><linearGradient id="paint1_linear_2485_11061" x1="153" y1="420" x2="243" y2="330" gradientUnits="userSpaceOnUse"><stop stop-color="#fff" stop-opacity=".08"/><stop offset="1" stop-color="#fff" stop-opacity="0"/></linearGradient><linearGradient id="paint2_linear_2485_11061" x1="75" y1="420" x2="243" y2="252" gradientUnits="userSpaceOnUse"><stop stop-color="#fff" stop-opacity=".08"/><stop offset="1" stop-color="#fff" stop-opacity="0"/></linearGradient><linearGradient id="paint3_linear_2485_11061" x1="0" y1="420" x2="243" y2="177" gradientUnits="userSpaceOnUse"><stop stop-color="#fff" stop-opacity=".08"/><stop offset="1" stop-color="#fff" stop-opacity="0"/></linearGradient><linearGradient id="paint4_linear_2485_11061" x1="121.5" y1="0" x2="121.5" y2="420" gradientUnits="userSpaceOnUse"><stop stop-color="#161622"/><stop offset="1" stop-color="#12121F"/></linearGradient><linearGradient id="paint5_linear_2485_11061" x1="90" y1="420" x2="0" y2="330" gradientUnits="userSpaceOnUse"><stop stop-color="#fff" stop-opacity=".08"/><stop offset="1" stop-color="#fff" stop-opacity="0"/></linearGradient><linearGradient id="paint6_linear_2485_11061" x1="168" y1="420" x2="0" y2="252" gradientUnits="userSpaceOnUse"><stop stop-color="#fff" stop-opacity=".08"/><stop offset="1" stop-color="#fff" stop-opacity="0"/></linearGradient><linearGradient id="paint7_linear_2485_11061" x1="243" y1="420" x2="0" y2="177" gradientUnits="userSpaceOnUse"><stop stop-color="#fff" stop-opacity=".08"/><stop offset="1" stop-color="#fff" stop-opacity="0"/></linearGradient><linearGradient id="paint8_linear_2485_11061" x1="121.5" y1="0" x2="121.5" y2="420" gradientUnits="userSpaceOnUse"><stop stop-color="#161622"/><stop offset="1" stop-color="#12121F"/></linearGradient><linearGradient id="paint9_linear_2485_11061" x1="153" y1="0" x2="243" y2="90" gradientUnits="userSpaceOnUse"><stop stop-color="#fff" stop-opacity=".08"/><stop offset="1" stop-color="#fff" stop-opacity="0"/></linearGradient><linearGradient id="paint10_linear_2485_11061" x1="75" y1="0" x2="243" y2="168" gradientUnits="userSpaceOnUse"><stop stop-color="#fff" stop-opacity=".08"/><stop offset="1" stop-color="#fff" stop-opacity="0"/></linearGradient><linearGradient id="paint11_linear_2485_11061" x1="0" y1="0" x2="243" y2="243" gradientUnits="userSpaceOnUse"><stop stop-color="#fff" stop-opacity=".08"/><stop offset="1" stop-color="#fff" stop-opacity="0"/></linearGradient><linearGradient id="paint12_linear_2485_11061" x1="121.5" y1="0" x2="121.5" y2="420" gradientUnits="userSpaceOnUse"><stop stop-color="#161622"/><stop offset="1" stop-color="#12121F"/></linearGradient><linearGradient id="paint13_linear_2485_11061" x1="90" y1="0" x2="0" y2="90" gradientUnits="userSpaceOnUse"><stop stop-color="#fff" stop-opacity=".08"/><stop offset="1" stop-color="#fff" stop-opacity="0"/></linearGradient><linearGradient id="paint14_linear_2485_11061" x1="168" y1="0" x2="0" y2="168" gradientUnits="userSpaceOnUse"><stop stop-color="#fff" stop-opacity=".08"/><stop offset="1" stop-color="#fff" stop-opacity="0"/></linearGradient><linearGradient id="paint15_linear_2485_11061" x1="243" y1="0" x2="0" y2="243" gradientUnits="userSpaceOnUse"><stop stop-color="#fff" stop-opacity=".08"/><stop offset="1" stop-color="#fff" stop-opacity="0"/></linearGradient></defs></svg>