<svg width="243" height="420" fill="none" xmlns="http://www.w3.org/2000/svg"><g opacity=".65"><mask id="b" style="mask-type:alpha" maskUnits="userSpaceOnUse" x="0" y="0" width="243" height="420"><rect width="243" height="420" rx="12" transform="matrix(1 0 0 -1 0 420)" fill="url(#a)"/></mask><g mask="url(#b)"><path d="M153 420h90v-90l-90 90Z" fill="url(#c)" fill-opacity=".35"/><path d="M75 420h168V252L75 420Z" fill="url(#d)" fill-opacity=".25"/><path d="M0 420h243V177L0 420Z" fill="url(#e)" fill-opacity=".15"/></g><mask id="g" style="mask-type:alpha" maskUnits="userSpaceOnUse" x="0" y="0" width="243" height="420"><rect width="243" height="420" rx="12" fill="url(#f)"/></mask><g mask="url(#g)"><path d="M90 420H0v-90l90 90Z" fill="url(#h)" fill-opacity=".35"/><path d="M168 420H0V252l168 168Z" fill="url(#i)" fill-opacity=".25"/><path d="M243 420H0V177l243 243Z" fill="url(#j)" fill-opacity=".15"/></g><mask id="l" style="mask-type:alpha" maskUnits="userSpaceOnUse" x="0" y="0" width="243" height="420"><rect width="243" height="420" rx="12" fill="url(#k)"/></mask><g mask="url(#l)"><path d="M153 0h90v90L153 0Z" fill="url(#m)" fill-opacity=".35"/><path d="M75 0h168v168L75 0Z" fill="url(#n)" fill-opacity=".25"/><path d="M0 0h243v243L0 0Z" fill="url(#o)" fill-opacity=".15"/></g><mask id="q" style="mask-type:alpha" maskUnits="userSpaceOnUse" x="0" y="0" width="243" height="420"><rect width="243" height="420" rx="12" transform="matrix(1 0 0 -1 0 420)" fill="url(#p)"/></mask><g mask="url(#q)"><path d="M90 0H0v90L90 0Z" fill="url(#r)" fill-opacity=".35"/><path d="M168 0H0v168L168 0Z" fill="url(#s)" fill-opacity=".25"/><path d="M243 0H0v243L243 0Z" fill="url(#t)" fill-opacity=".15"/></g></g><defs><linearGradient id="a" x1="121.5" y1="0" x2="121.5" y2="420" gradientUnits="userSpaceOnUse"><stop stop-color="#161622"/><stop offset="1" stop-color="#12121F"/></linearGradient><linearGradient id="c" x1="153" y1="420" x2="243" y2="330" gradientUnits="userSpaceOnUse"><stop stop-color="#fff" stop-opacity=".08"/><stop offset="1" stop-color="#fff" stop-opacity="0"/></linearGradient><linearGradient id="d" x1="75" y1="420" x2="243" y2="252" gradientUnits="userSpaceOnUse"><stop stop-color="#fff" stop-opacity=".08"/><stop offset="1" stop-color="#fff" stop-opacity="0"/></linearGradient><linearGradient id="e" x1="0" y1="420" x2="243" y2="177" gradientUnits="userSpaceOnUse"><stop stop-color="#fff" stop-opacity=".08"/><stop offset="1" stop-color="#fff" stop-opacity="0"/></linearGradient><linearGradient id="f" x1="121.5" y1="0" x2="121.5" y2="420" gradientUnits="userSpaceOnUse"><stop stop-color="#161622"/><stop offset="1" stop-color="#12121F"/></linearGradient><linearGradient id="h" x1="90" y1="420" x2="0" y2="330" gradientUnits="userSpaceOnUse"><stop stop-color="#fff" stop-opacity=".08"/><stop offset="1" stop-color="#fff" stop-opacity="0"/></linearGradient><linearGradient id="i" x1="168" y1="420" x2="0" y2="252" gradientUnits="userSpaceOnUse"><stop stop-color="#fff" stop-opacity=".08"/><stop offset="1" stop-color="#fff" stop-opacity="0"/></linearGradient><linearGradient id="j" x1="243" y1="420" x2="0" y2="177" gradientUnits="userSpaceOnUse"><stop stop-color="#fff" stop-opacity=".08"/><stop offset="1" stop-color="#fff" stop-opacity="0"/></linearGradient><linearGradient id="k" x1="121.5" y1="0" x2="121.5" y2="420" gradientUnits="userSpaceOnUse"><stop stop-color="#161622"/><stop offset="1" stop-color="#12121F"/></linearGradient><linearGradient id="m" x1="153" y1="0" x2="243" y2="90" gradientUnits="userSpaceOnUse"><stop stop-color="#fff" stop-opacity=".08"/><stop offset="1" stop-color="#fff" stop-opacity="0"/></linearGradient><linearGradient id="n" x1="75" y1="0" x2="243" y2="168" gradientUnits="userSpaceOnUse"><stop stop-color="#fff" stop-opacity=".08"/><stop offset="1" stop-color="#fff" stop-opacity="0"/></linearGradient><linearGradient id="o" x1="0" y1="0" x2="243" y2="243" gradientUnits="userSpaceOnUse"><stop stop-color="#fff" stop-opacity=".08"/><stop offset="1" stop-color="#fff" stop-opacity="0"/></linearGradient><linearGradient id="p" x1="121.5" y1="0" x2="121.5" y2="420" gradientUnits="userSpaceOnUse"><stop stop-color="#161622"/><stop offset="1" stop-color="#12121F"/></linearGradient><linearGradient id="r" x1="90" y1="0" x2="0" y2="90" gradientUnits="userSpaceOnUse"><stop stop-color="#fff" stop-opacity=".08"/><stop offset="1" stop-color="#fff" stop-opacity="0"/></linearGradient><linearGradient id="s" x1="168" y1="0" x2="0" y2="168" gradientUnits="userSpaceOnUse"><stop stop-color="#fff" stop-opacity=".08"/><stop offset="1" stop-color="#fff" stop-opacity="0"/></linearGradient><linearGradient id="t" x1="243" y1="0" x2="0" y2="243" gradientUnits="userSpaceOnUse"><stop stop-color="#fff" stop-opacity=".08"/><stop offset="1" stop-color="#fff" stop-opacity="0"/></linearGradient></defs></svg>