<svg width="470" height="349" fill="none" xmlns="http://www.w3.org/2000/svg"><g clip-path="url(#a)"><mask id="d" style="mask-type:alpha" maskUnits="userSpaceOnUse" x="-29" y="0" width="528" height="57"><path d="M127.515 0H-23a6 6 0 0 0-6 6v45a6 6 0 0 0 6 6h516a6 6 0 0 0 6-6V6a6 6 0 0 0-6-6H342.485a5.999 5.999 0 0 0-4.242 1.757l-6.486 6.486A5.999 5.999 0 0 1 327.515 10h-185.03a5.999 5.999 0 0 1-4.242-1.757l-6.486-6.486A5.999 5.999 0 0 0 127.515 0Z" fill="url(#b)"/></mask><g filter="url(#c)" mask="url(#d)"><path d="M127.515 0H-23a6 6 0 0 0-6 6v45a6 6 0 0 0 6 6h516a6 6 0 0 0 6-6V6a6 6 0 0 0-6-6H342.485a5.999 5.999 0 0 0-4.242 1.757l-6.486 6.486A5.999 5.999 0 0 1 327.515 10h-185.03a5.999 5.999 0 0 1-4.242-1.757l-6.486-6.486A5.999 5.999 0 0 0 127.515 0Z" fill="url(#e)"/></g><mask id="h" style="mask-type:alpha" maskUnits="userSpaceOnUse" x="-29" y="292" width="528" height="57"><path d="M127.515 349H-23a6 6 0 0 1-6-6v-45a6 6 0 0 1 6-6h516a6 6 0 0 1 6 6v45a6 6 0 0 1-6 6H342.485a6 6 0 0 1-4.242-1.757l-6.486-6.486a6 6 0 0 0-4.242-1.757h-185.03a6 6 0 0 0-4.242 1.757l-6.486 6.486a6 6 0 0 1-4.242 1.757Z" fill="url(#f)"/></mask><g filter="url(#g)" mask="url(#h)"><path d="M127.515 349H-23a6 6 0 0 1-6-6v-45a6 6 0 0 1 6-6h516a6 6 0 0 1 6 6v45a6 6 0 0 1-6 6H342.485a6 6 0 0 1-4.242-1.757l-6.486-6.486a6 6 0 0 0-4.242-1.757h-185.03a6 6 0 0 0-4.242 1.757l-6.486 6.486a6 6 0 0 1-4.242 1.757Z" fill="url(#i)"/></g><mask id="k" style="mask-type:alpha" maskUnits="userSpaceOnUse" x="-143" y="49" width="756" height="252"><path fill="url(#j)" d="M-143 49h756v252h-756z"/></mask><g mask="url(#k)" fill="#161624"><path d="M-49 49h1v84h-1V49Zm21 0h1v84h-1V49Zm21 0h1v84h-1V49Zm21 0h1v84h-1V49Z"/><path d="M-59 123v-1h84v1h-84Zm0-21v-1h84v1h-84Zm0-21v-1h84v1h-84Zm0-21v-1h84v1h-84Zm94-11h1v84h-1V49Zm21 0h1v84h-1V49Zm21 0h1v84h-1V49Zm21 0h1v84h-1V49Z"/><path d="M25 123v-1h84v1H25Zm0-21v-1h84v1H25Zm0-21v-1h84v1H25Zm0-21v-1h84v1H25Zm94-11h1v84h-1V49Zm21 0h1v84h-1V49Zm21 0h1v84h-1V49Zm21 0h1v84h-1V49Z"/><path d="M109 123v-1h84v1h-84Zm0-21v-1h84v1h-84Zm0-21v-1h84v1h-84Zm0-21v-1h84v1h-84Zm94-11h1v84h-1V49Zm21 0h1v84h-1V49Zm21 0h1v84h-1V49Zm21 0h1v84h-1V49Z"/><path d="M193 123v-1h84v1h-84Zm0-21v-1h84v1h-84Zm0-21v-1h84v1h-84Zm0-21v-1h84v1h-84Zm94-11h1v84h-1V49Zm21 0h1v84h-1V49Zm21 0h1v84h-1V49Zm21 0h1v84h-1V49Z"/><path d="M277 123v-1h84v1h-84Zm0-21v-1h84v1h-84Zm0-21v-1h84v1h-84Zm0-21v-1h84v1h-84Zm94-11h1v84h-1V49Zm21 0h1v84h-1V49Zm21 0h1v84h-1V49Zm21 0h1v84h-1V49Z"/><path d="M361 123v-1h84v1h-84Zm0-21v-1h84v1h-84Zm0-21v-1h84v1h-84Zm0-21v-1h84v1h-84Zm94-11h1v84h-1V49Zm21 0h1v84h-1V49Zm21 0h1v84h-1V49Zm21 0h1v84h-1V49Z"/><path d="M445 123v-1h84v1h-84Zm0-21v-1h84v1h-84Zm0-21v-1h84v1h-84Zm0-21v-1h84v1h-84Zm94-11h1v84h-1V49Zm21 0h1v84h-1V49Zm21 0h1v84h-1V49Zm21 0h1v84h-1V49Z"/><path d="M529 123v-1h84v1h-84Zm0-21v-1h84v1h-84Zm0-21v-1h84v1h-84Zm0-21v-1h84v1h-84Zm-662-11h1v84h-1V49Zm21 0h1v84h-1V49Zm21 0h1v84h-1V49Zm21 0h1v84h-1V49Z"/><path d="M-143 123v-1h84v1h-84Zm0-21v-1h84v1h-84Zm0-21v-1h84v1h-84Zm0-21v-1h84v1h-84Zm94 73h1v84h-1v-84Zm21 0h1v84h-1v-84Zm21 0h1v84h-1v-84Zm21 0h1v84h-1v-84Z"/><path d="M-59 207v-1h84v1h-84Zm0-21v-1h84v1h-84Zm0-21v-1h84v1h-84Zm0-21v-1h84v1h-84Zm94-11h1v84h-1v-84Zm21 0h1v84h-1v-84Zm21 0h1v84h-1v-84Zm21 0h1v84h-1v-84Z"/><path d="M25 207v-1h84v1H25Zm0-21v-1h84v1H25Zm0-21v-1h84v1H25Zm0-21v-1h84v1H25Zm94-11h1v84h-1v-84Zm21 0h1v84h-1v-84Zm21 0h1v84h-1v-84Zm21 0h1v84h-1v-84Z"/><path d="M109 207v-1h84v1h-84Zm0-21v-1h84v1h-84Zm0-21v-1h84v1h-84Zm0-21v-1h84v1h-84Zm94-11h1v84h-1v-84Zm21 0h1v84h-1v-84Zm21 0h1v84h-1v-84Zm21 0h1v84h-1v-84Z"/><path d="M193 207v-1h84v1h-84Zm0-21v-1h84v1h-84Zm0-21v-1h84v1h-84Zm0-21v-1h84v1h-84Zm94-11h1v84h-1v-84Zm21 0h1v84h-1v-84Zm21 0h1v84h-1v-84Zm21 0h1v84h-1v-84Z"/><path d="M277 207v-1h84v1h-84Zm0-21v-1h84v1h-84Zm0-21v-1h84v1h-84Zm0-21v-1h84v1h-84Zm94-11h1v84h-1v-84Zm21 0h1v84h-1v-84Zm21 0h1v84h-1v-84Zm21 0h1v84h-1v-84Z"/><path d="M361 207v-1h84v1h-84Zm0-21v-1h84v1h-84Zm0-21v-1h84v1h-84Zm0-21v-1h84v1h-84Zm94-11h1v84h-1v-84Zm21 0h1v84h-1v-84Zm21 0h1v84h-1v-84Zm21 0h1v84h-1v-84Z"/><path d="M445 207v-1h84v1h-84Zm0-21v-1h84v1h-84Zm0-21v-1h84v1h-84Zm0-21v-1h84v1h-84Zm94-11h1v84h-1v-84Zm21 0h1v84h-1v-84Zm21 0h1v84h-1v-84Zm21 0h1v84h-1v-84Z"/><path d="M529 207v-1h84v1h-84Zm0-21v-1h84v1h-84Zm0-21v-1h84v1h-84Zm0-21v-1h84v1h-84Zm-662-11h1v84h-1v-84Zm21 0h1v84h-1v-84Zm21 0h1v84h-1v-84Zm21 0h1v84h-1v-84Z"/><path d="M-143 207v-1h84v1h-84Zm0-21v-1h84v1h-84Zm0-21v-1h84v1h-84Zm0-21v-1h84v1h-84Zm94 73h1v84h-1v-84Zm21 0h1v84h-1v-84Zm21 0h1v84h-1v-84Zm21 0h1v84h-1v-84Z"/><path d="M-59 291v-1h84v1h-84Zm0-21v-1h84v1h-84Zm0-21v-1h84v1h-84Zm0-21v-1h84v1h-84Zm94-11h1v84h-1v-84Zm21 0h1v84h-1v-84Zm21 0h1v84h-1v-84Zm21 0h1v84h-1v-84Z"/><path d="M25 291v-1h84v1H25Zm0-21v-1h84v1H25Zm0-21v-1h84v1H25Zm0-21v-1h84v1H25Zm94-11h1v84h-1v-84Zm21 0h1v84h-1v-84Zm21 0h1v84h-1v-84Zm21 0h1v84h-1v-84Z"/><path d="M109 291v-1h84v1h-84Zm0-21v-1h84v1h-84Zm0-21v-1h84v1h-84Zm0-21v-1h84v1h-84Zm94-11h1v84h-1v-84Zm21 0h1v84h-1v-84Zm21 0h1v84h-1v-84Zm21 0h1v84h-1v-84Z"/><path d="M193 291v-1h84v1h-84Zm0-21v-1h84v1h-84Zm0-21v-1h84v1h-84Zm0-21v-1h84v1h-84Zm94-11h1v84h-1v-84Zm21 0h1v84h-1v-84Zm21 0h1v84h-1v-84Zm21 0h1v84h-1v-84Z"/><path d="M277 291v-1h84v1h-84Zm0-21v-1h84v1h-84Zm0-21v-1h84v1h-84Zm0-21v-1h84v1h-84Zm94-11h1v84h-1v-84Zm21 0h1v84h-1v-84Zm21 0h1v84h-1v-84Zm21 0h1v84h-1v-84Z"/><path d="M361 291v-1h84v1h-84Zm0-21v-1h84v1h-84Zm0-21v-1h84v1h-84Zm0-21v-1h84v1h-84Zm94-11h1v84h-1v-84Zm21 0h1v84h-1v-84Zm21 0h1v84h-1v-84Zm21 0h1v84h-1v-84Z"/><path d="M445 291v-1h84v1h-84Zm0-21v-1h84v1h-84Zm0-21v-1h84v1h-84Zm0-21v-1h84v1h-84Zm94-11h1v84h-1v-84Zm21 0h1v84h-1v-84Zm21 0h1v84h-1v-84Zm21 0h1v84h-1v-84Z"/><path d="M529 291v-1h84v1h-84Zm0-21v-1h84v1h-84Zm0-21v-1h84v1h-84Zm0-21v-1h84v1h-84Zm-662-11h1v84h-1v-84Zm21 0h1v84h-1v-84Zm21 0h1v84h-1v-84Zm21 0h1v84h-1v-84Z"/><path d="M-143 291v-1h84v1h-84Zm0-21v-1h84v1h-84Zm0-21v-1h84v1h-84Zm0-21v-1h84v1h-84Z"/></g></g><defs><radialGradient id="b" cx="0" cy="0" r="1" gradientUnits="userSpaceOnUse" gradientTransform="matrix(0 57 -264 0 235 0)"><stop stop-color="#181826"/><stop offset="1" stop-color="#0C0C1B" stop-opacity="0"/></radialGradient><radialGradient id="e" cx="0" cy="0" r="1" gradientUnits="userSpaceOnUse" gradientTransform="matrix(0 57 -264 0 235 0)"><stop stop-color="#181826"/><stop offset="1" stop-color="#0C0C1B"/></radialGradient><radialGradient id="f" cx="0" cy="0" r="1" gradientUnits="userSpaceOnUse" gradientTransform="matrix(0 -57 264 0 235 349)"><stop stop-color="#181826"/><stop offset="1" stop-color="#0C0C1B" stop-opacity="0"/></radialGradient><radialGradient id="i" cx="0" cy="0" r="1" gradientUnits="userSpaceOnUse" gradientTransform="matrix(0 -57 264 0 235 349)"><stop stop-color="#181826"/><stop offset="1" stop-color="#0C0C1B"/></radialGradient><radialGradient id="j" cx="0" cy="0" r="1" gradientUnits="userSpaceOnUse" gradientTransform="matrix(0 126 -378 0 235 175)"><stop stop-color="#D9D9D9"/><stop offset="1" stop-color="#737373" stop-opacity="0"/></radialGradient><filter id="c" x="-29" y="0" width="528" height="57" filterUnits="userSpaceOnUse" color-interpolation-filters="sRGB"><feFlood flood-opacity="0" result="BackgroundImageFix"/><feBlend in="SourceGraphic" in2="BackgroundImageFix" result="shape"/><feColorMatrix in="SourceAlpha" values="0 0 0 0 0 0 0 0 0 0 0 0 0 0 0 0 0 0 127 0" result="hardAlpha"/><feOffset dy="1"/><feComposite in2="hardAlpha" operator="arithmetic" k2="-1" k3="1"/><feColorMatrix values="0 0 0 0 0.109687 0 0 0 0 0.109687 0 0 0 0 0.1625 0 0 0 1 0"/><feBlend in2="shape" result="effect1_innerShadow_4405_3277"/></filter><filter id="g" x="-29" y="292" width="528" height="57" filterUnits="userSpaceOnUse" color-interpolation-filters="sRGB"><feFlood flood-opacity="0" result="BackgroundImageFix"/><feBlend in="SourceGraphic" in2="BackgroundImageFix" result="shape"/><feColorMatrix in="SourceAlpha" values="0 0 0 0 0 0 0 0 0 0 0 0 0 0 0 0 0 0 127 0" result="hardAlpha"/><feOffset dy="-1"/><feComposite in2="hardAlpha" operator="arithmetic" k2="-1" k3="1"/><feColorMatrix values="0 0 0 0 0.109687 0 0 0 0 0.109687 0 0 0 0 0.1625 0 0 0 1 0"/><feBlend in2="shape" result="effect1_innerShadow_4405_3277"/></filter><clipPath id="a"><path fill="#fff" d="M0 0h470v349H0z"/></clipPath></defs></svg>