<svg width="320" height="288" fill="none" xmlns="http://www.w3.org/2000/svg"><g opacity=".42"><mask id="a" style="mask-type:alpha" maskUnits="userSpaceOnUse" x="0" y="0" width="320" height="288"><rect width="320" height="288" rx="18" fill="url(#paint0_radial_4405_3341)"/></mask><g mask="url(#a)" fill="#1C1C2E"><path d="M-124 144h1v84h-1v-84zm21 0h1v84h-1v-84zm21 0h1v84h-1v-84zm21 0h1v84h-1v-84z"/><path d="M-134 218v-1h84v1h-84zm0-21v-1h84v1h-84zm0-21v-1h84v1h-84zm0-21v-1h84v1h-84zm94-11h1v84h-1v-84zm21 0h1v84h-1v-84zm21 0h1v84H2v-84zm21 0h1v84h-1v-84z"/><path d="M-50 218v-1h84v1h-84zm0-21v-1h84v1h-84zm0-21v-1h84v1h-84zm0-21v-1h84v1h-84zm94-11h1v84h-1v-84zm21 0h1v84h-1v-84zm21 0h1v84h-1v-84zm21 0h1v84h-1v-84z"/><path d="M34 218v-1h84v1H34zm0-21v-1h84v1H34zm0-21v-1h84v1H34zm0-21v-1h84v1H34zm94-11h1v84h-1v-84zm21 0h1v84h-1v-84zm21 0h1v84h-1v-84zm21 0h1v84h-1v-84z"/><path d="M118 218v-1h84v1h-84zm0-21v-1h84v1h-84zm0-21v-1h84v1h-84zm0-21v-1h84v1h-84zm94-11h1v84h-1v-84zm21 0h1v84h-1v-84zm21 0h1v84h-1v-84zm21 0h1v84h-1v-84z"/><path d="M202 218v-1h84v1h-84zm0-21v-1h84v1h-84zm0-21v-1h84v1h-84zm0-21v-1h84v1h-84zm94-11h1v84h-1v-84zm21 0h1v84h-1v-84zm21 0h1v84h-1v-84zm21 0h1v84h-1v-84z"/><path d="M286 218v-1h84v1h-84zm0-21v-1h84v1h-84zm0-21v-1h84v1h-84zm0-21v-1h84v1h-84zm94-11h1v84h-1v-84zm21 0h1v84h-1v-84zm21 0h1v84h-1v-84zm21 0h1v84h-1v-84z"/><path d="M370 218v-1h84v1h-84zm0-21v-1h84v1h-84zm0-21v-1h84v1h-84zm0-21v-1h84v1h-84zm94-11h1v84h-1v-84zm21 0h1v84h-1v-84zm21 0h1v84h-1v-84zm21 0h1v84h-1v-84z"/><path d="M454 218v-1h84v1h-84zm0-21v-1h84v1h-84zm0-21v-1h84v1h-84zm0-21v-1h84v1h-84zm-662-11h1v84h-1v-84zm21 0h1v84h-1v-84zm21 0h1v84h-1v-84zm21 0h1v84h-1v-84z"/><path d="M-218 218v-1h84v1h-84zm0-21v-1h84v1h-84zm0-21v-1h84v1h-84zm0-21v-1h84v1h-84zm94 73h1v84h-1v-84zm21 0h1v84h-1v-84zm21 0h1v84h-1v-84zm21 0h1v84h-1v-84z"/><path d="M-134 302v-1h84v1h-84zm0-21v-1h84v1h-84zm0-21v-1h84v1h-84zm0-21v-1h84v1h-84zm94-11h1v84h-1v-84zm21 0h1v84h-1v-84zm21 0h1v84H2v-84zm21 0h1v84h-1v-84z"/><path d="M-50 302v-1h84v1h-84zm0-21v-1h84v1h-84zm0-21v-1h84v1h-84zm0-21v-1h84v1h-84zm94-11h1v84h-1v-84zm21 0h1v84h-1v-84zm21 0h1v84h-1v-84zm21 0h1v84h-1v-84z"/><path d="M34 302v-1h84v1H34zm0-21v-1h84v1H34zm0-21v-1h84v1H34zm0-21v-1h84v1H34zm94-11h1v84h-1v-84zm21 0h1v84h-1v-84zm21 0h1v84h-1v-84zm21 0h1v84h-1v-84z"/><path d="M118 302v-1h84v1h-84zm0-21v-1h84v1h-84zm0-21v-1h84v1h-84zm0-21v-1h84v1h-84zm94-11h1v84h-1v-84zm21 0h1v84h-1v-84zm21 0h1v84h-1v-84zm21 0h1v84h-1v-84z"/><path d="M202 302v-1h84v1h-84zm0-21v-1h84v1h-84zm0-21v-1h84v1h-84zm0-21v-1h84v1h-84zm94-11h1v84h-1v-84zm21 0h1v84h-1v-84zm21 0h1v84h-1v-84zm21 0h1v84h-1v-84z"/><path d="M286 302v-1h84v1h-84zm0-21v-1h84v1h-84zm0-21v-1h84v1h-84zm0-21v-1h84v1h-84zm94-11h1v84h-1v-84zm21 0h1v84h-1v-84zm21 0h1v84h-1v-84zm21 0h1v84h-1v-84z"/><path d="M370 302v-1h84v1h-84zm0-21v-1h84v1h-84zm0-21v-1h84v1h-84zm0-21v-1h84v1h-84zm94-11h1v84h-1v-84zm21 0h1v84h-1v-84zm21 0h1v84h-1v-84zm21 0h1v84h-1v-84z"/><path d="M454 302v-1h84v1h-84zm0-21v-1h84v1h-84zm0-21v-1h84v1h-84zm0-21v-1h84v1h-84zm-662-11h1v84h-1v-84zm21 0h1v84h-1v-84zm21 0h1v84h-1v-84zm21 0h1v84h-1v-84z"/><path d="M-218 302v-1h84v1h-84zm0-21v-1h84v1h-84zm0-21v-1h84v1h-84zm0-21v-1h84v1h-84zm94 73h1v84h-1v-84zm21 0h1v84h-1v-84zm21 0h1v84h-1v-84zm21 0h1v84h-1v-84z"/><path d="M-134 386v-1h84v1h-84zm0-21v-1h84v1h-84zm0-21v-1h84v1h-84zm0-21v-1h84v1h-84zm94-11h1v84h-1v-84zm21 0h1v84h-1v-84zm21 0h1v84H2v-84zm21 0h1v84h-1v-84z"/><path d="M-50 386v-1h84v1h-84zm0-21v-1h84v1h-84zm0-21v-1h84v1h-84zm0-21v-1h84v1h-84zm94-11h1v84h-1v-84zm21 0h1v84h-1v-84zm21 0h1v84h-1v-84zm21 0h1v84h-1v-84z"/><path d="M34 386v-1h84v1H34zm0-21v-1h84v1H34zm0-21v-1h84v1H34zm0-21v-1h84v1H34zm94-11h1v84h-1v-84zm21 0h1v84h-1v-84zm21 0h1v84h-1v-84zm21 0h1v84h-1v-84z"/><path d="M118 386v-1h84v1h-84zm0-21v-1h84v1h-84zm0-21v-1h84v1h-84zm0-21v-1h84v1h-84zm94-11h1v84h-1v-84zm21 0h1v84h-1v-84zm21 0h1v84h-1v-84zm21 0h1v84h-1v-84z"/><path d="M202 386v-1h84v1h-84zm0-21v-1h84v1h-84zm0-21v-1h84v1h-84zm0-21v-1h84v1h-84zm94-11h1v84h-1v-84zm21 0h1v84h-1v-84zm21 0h1v84h-1v-84zm21 0h1v84h-1v-84z"/><path d="M286 386v-1h84v1h-84zm0-21v-1h84v1h-84zm0-21v-1h84v1h-84zm0-21v-1h84v1h-84zm94-11h1v84h-1v-84zm21 0h1v84h-1v-84zm21 0h1v84h-1v-84zm21 0h1v84h-1v-84z"/><path d="M370 386v-1h84v1h-84zm0-21v-1h84v1h-84zm0-21v-1h84v1h-84zm0-21v-1h84v1h-84zm94-11h1v84h-1v-84zm21 0h1v84h-1v-84zm21 0h1v84h-1v-84zm21 0h1v84h-1v-84z"/><path d="M454 386v-1h84v1h-84zm0-21v-1h84v1h-84zm0-21v-1h84v1h-84zm0-21v-1h84v1h-84zm-662-11h1v84h-1v-84zm21 0h1v84h-1v-84zm21 0h1v84h-1v-84zm21 0h1v84h-1v-84z"/><path d="M-218 386v-1h84v1h-84zm0-21v-1h84v1h-84zm0-21v-1h84v1h-84zm0-21v-1h84v1h-84zm94-431h1v84h-1v-84zm21 0h1v84h-1v-84zm21 0h1v84h-1v-84zm21 0h1v84h-1v-84z"/><path d="M-134-34v-1h84v1h-84zm0-21v-1h84v1h-84zm0-21v-1h84v1h-84zm0-21v-1h84v1h-84zm94-11h1v84h-1v-84zm21 0h1v84h-1v-84zm21 0h1v84H2v-84zm21 0h1v84h-1v-84z"/><path d="M-50-34v-1h84v1h-84zm0-21v-1h84v1h-84zm0-21v-1h84v1h-84zm0-21v-1h84v1h-84zm94-11h1v84h-1v-84zm21 0h1v84h-1v-84zm21 0h1v84h-1v-84zm21 0h1v84h-1v-84z"/><path d="M34-34v-1h84v1H34zm0-21v-1h84v1H34zm0-21v-1h84v1H34zm0-21v-1h84v1H34zm94-11h1v84h-1v-84zm21 0h1v84h-1v-84zm21 0h1v84h-1v-84zm21 0h1v84h-1v-84z"/><path d="M118-34v-1h84v1h-84zm0-21v-1h84v1h-84zm0-21v-1h84v1h-84zm0-21v-1h84v1h-84zm94-11h1v84h-1v-84zm21 0h1v84h-1v-84zm21 0h1v84h-1v-84zm21 0h1v84h-1v-84z"/><path d="M202-34v-1h84v1h-84zm0-21v-1h84v1h-84zm0-21v-1h84v1h-84zm0-21v-1h84v1h-84zm94-11h1v84h-1v-84zm21 0h1v84h-1v-84zm21 0h1v84h-1v-84zm21 0h1v84h-1v-84z"/><path d="M286-34v-1h84v1h-84zm0-21v-1h84v1h-84zm0-21v-1h84v1h-84zm0-21v-1h84v1h-84zm94-11h1v84h-1v-84zm21 0h1v84h-1v-84zm21 0h1v84h-1v-84zm21 0h1v84h-1v-84z"/><path d="M370-34v-1h84v1h-84zm0-21v-1h84v1h-84zm0-21v-1h84v1h-84zm0-21v-1h84v1h-84zm94-11h1v84h-1v-84zm21 0h1v84h-1v-84zm21 0h1v84h-1v-84zm21 0h1v84h-1v-84z"/><path d="M454-34v-1h84v1h-84zm0-21v-1h84v1h-84zm0-21v-1h84v1h-84zm0-21v-1h84v1h-84zm-662-11h1v84h-1v-84zm21 0h1v84h-1v-84zm21 0h1v84h-1v-84zm21 0h1v84h-1v-84z"/><path d="M-218-34v-1h84v1h-84zm0-21v-1h84v1h-84zm0-21v-1h84v1h-84zm0-21v-1h84v1h-84zm94 73h1v84h-1v-84zm21 0h1v84h-1v-84zm21 0h1v84h-1v-84zm21 0h1v84h-1v-84z"/><path d="M-134 50v-1h84v1h-84zm0-21v-1h84v1h-84zm0-21V7h84v1h-84zm0-21v-1h84v1h-84zm94-11h1v84h-1v-84zm21 0h1v84h-1v-84zm21 0h1v84H2v-84zm21 0h1v84h-1v-84z"/><path d="M-50 50v-1h84v1h-84zm0-21v-1h84v1h-84zm0-21V7h84v1h-84zm0-21v-1h84v1h-84zm94-11h1v84h-1v-84zm21 0h1v84h-1v-84zm21 0h1v84h-1v-84zm21 0h1v84h-1v-84z"/><path d="M34 50v-1h84v1H34zm0-21v-1h84v1H34zm0-21V7h84v1H34zm0-21v-1h84v1H34zm94-11h1v84h-1v-84zm21 0h1v84h-1v-84zm21 0h1v84h-1v-84zm21 0h1v84h-1v-84z"/><path d="M118 50v-1h84v1h-84zm0-21v-1h84v1h-84zm0-21V7h84v1h-84zm0-21v-1h84v1h-84zm94-11h1v84h-1v-84zm21 0h1v84h-1v-84zm21 0h1v84h-1v-84zm21 0h1v84h-1v-84z"/><path d="M202 50v-1h84v1h-84zm0-21v-1h84v1h-84zm0-21V7h84v1h-84zm0-21v-1h84v1h-84zm94-11h1v84h-1v-84zm21 0h1v84h-1v-84zm21 0h1v84h-1v-84zm21 0h1v84h-1v-84z"/><path d="M286 50v-1h84v1h-84zm0-21v-1h84v1h-84zm0-21V7h84v1h-84zm0-21v-1h84v1h-84zm94-11h1v84h-1v-84zm21 0h1v84h-1v-84zm21 0h1v84h-1v-84zm21 0h1v84h-1v-84z"/><path d="M370 50v-1h84v1h-84zm0-21v-1h84v1h-84zm0-21V7h84v1h-84zm0-21v-1h84v1h-84zm94-11h1v84h-1v-84zm21 0h1v84h-1v-84zm21 0h1v84h-1v-84zm21 0h1v84h-1v-84z"/><path d="M454 50v-1h84v1h-84zm0-21v-1h84v1h-84zm0-21V7h84v1h-84zm0-21v-1h84v1h-84zm-662-11h1v84h-1v-84zm21 0h1v84h-1v-84zm21 0h1v84h-1v-84zm21 0h1v84h-1v-84z"/><path d="M-218 50v-1h84v1h-84zm0-21v-1h84v1h-84zm0-21V7h84v1h-84zm0-21v-1h84v1h-84zm94 73h1v84h-1V60zm21 0h1v84h-1V60zm21 0h1v84h-1V60zm21 0h1v84h-1V60z"/><path d="M-134 134v-1h84v1h-84zm0-21v-1h84v1h-84zm0-21v-1h84v1h-84zm0-21v-1h84v1h-84zm94-11h1v84h-1V60zm21 0h1v84h-1V60zm21 0h1v84H2V60zm21 0h1v84h-1V60z"/><path d="M-50 134v-1h84v1h-84zm0-21v-1h84v1h-84zm0-21v-1h84v1h-84zm0-21v-1h84v1h-84zm94-11h1v84h-1V60zm21 0h1v84h-1V60zm21 0h1v84h-1V60zm21 0h1v84h-1V60z"/><path d="M34 134v-1h84v1H34zm0-21v-1h84v1H34zm0-21v-1h84v1H34zm0-21v-1h84v1H34zm94-11h1v84h-1V60zm21 0h1v84h-1V60zm21 0h1v84h-1V60zm21 0h1v84h-1V60z"/><path d="M118 134v-1h84v1h-84zm0-21v-1h84v1h-84zm0-21v-1h84v1h-84zm0-21v-1h84v1h-84zm94-11h1v84h-1V60zm21 0h1v84h-1V60zm21 0h1v84h-1V60zm21 0h1v84h-1V60z"/><path d="M202 134v-1h84v1h-84zm0-21v-1h84v1h-84zm0-21v-1h84v1h-84zm0-21v-1h84v1h-84zm94-11h1v84h-1V60zm21 0h1v84h-1V60zm21 0h1v84h-1V60zm21 0h1v84h-1V60z"/><path d="M286 134v-1h84v1h-84zm0-21v-1h84v1h-84zm0-21v-1h84v1h-84zm0-21v-1h84v1h-84zm94-11h1v84h-1V60zm21 0h1v84h-1V60zm21 0h1v84h-1V60zm21 0h1v84h-1V60z"/><path d="M370 134v-1h84v1h-84zm0-21v-1h84v1h-84zm0-21v-1h84v1h-84zm0-21v-1h84v1h-84zm94-11h1v84h-1V60zm21 0h1v84h-1V60zm21 0h1v84h-1V60zm21 0h1v84h-1V60z"/><path d="M454 134v-1h84v1h-84zm0-21v-1h84v1h-84zm0-21v-1h84v1h-84zm0-21v-1h84v1h-84zm-662-11h1v84h-1V60zm21 0h1v84h-1V60zm21 0h1v84h-1V60zm21 0h1v84h-1V60z"/><path d="M-218 134v-1h84v1h-84zm0-21v-1h84v1h-84zm0-21v-1h84v1h-84zm0-21v-1h84v1h-84z"/></g></g><defs><radialGradient id="paint0_radial_4405_3341" cx="0" cy="0" r="1" gradientUnits="userSpaceOnUse" gradientTransform="matrix(0 144 -160 0 160 144)"><stop stop-color="#D9D9D9"/><stop offset="1" stop-color="#737373" stop-opacity="0"/></radialGradient></defs></svg>