<svg width="510" height="190" fill="none" xmlns="http://www.w3.org/2000/svg"><g opacity=".65"><mask id="a" style="mask-type:alpha" maskUnits="userSpaceOnUse" x="0" y="0" width="510" height="190"><rect width="510" height="190" rx="12" fill="url(#paint0_linear_2485_11972)"/></mask><g mask="url(#a)"><path d="M0 70V0h70L0 70z" fill="url(#paint1_linear_2485_11972)" fill-opacity=".35"/><path d="M0 131V0h131L0 131z" fill="url(#paint2_linear_2485_11972)" fill-opacity=".25"/><path d="M0 190V0h190L0 190z" fill="url(#paint3_linear_2485_11972)" fill-opacity=".15"/></g><mask id="b" style="mask-type:alpha" maskUnits="userSpaceOnUse" x="0" y="0" width="510" height="190"><rect width="510" height="190" rx="12" transform="matrix(1 0 0 -1 0 190)" fill="url(#paint4_linear_2485_11972)"/></mask><g mask="url(#b)"><path d="M0 120v70h70L0 120z" fill="url(#paint5_linear_2485_11972)" fill-opacity=".35"/><path d="M0 59v131h131L0 59z" fill="url(#paint6_linear_2485_11972)" fill-opacity=".25"/><path d="M0 0v190h190L0 0z" fill="url(#paint7_linear_2485_11972)" fill-opacity=".15"/></g><mask id="c" style="mask-type:alpha" maskUnits="userSpaceOnUse" x="0" y="0" width="510" height="190"><rect width="510" height="190" rx="12" transform="matrix(-1 0 0 1 510 0)" fill="url(#paint8_linear_2485_11972)"/></mask><g mask="url(#c)"><path d="M510 70V0h-70l70 70z" fill="url(#paint9_linear_2485_11972)" fill-opacity=".35"/><path d="M510 131V0H379l131 131z" fill="url(#paint10_linear_2485_11972)" fill-opacity=".25"/><path d="M510 190V0H320l190 190z" fill="url(#paint11_linear_2485_11972)" fill-opacity=".15"/></g><mask id="d" style="mask-type:alpha" maskUnits="userSpaceOnUse" x="0" y="0" width="510" height="190"><rect x="510" y="190" width="510" height="190" rx="12" transform="rotate(180 510 190)" fill="url(#paint12_linear_2485_11972)"/></mask><g mask="url(#d)"><path d="M510 120v70h-70l70-70z" fill="url(#paint13_linear_2485_11972)" fill-opacity=".35"/><path d="M510 59v131H379L510 59z" fill="url(#paint14_linear_2485_11972)" fill-opacity=".25"/><path d="M510 0v190H320L510 0z" fill="url(#paint15_linear_2485_11972)" fill-opacity=".15"/></g></g><defs><linearGradient id="paint0_linear_2485_11972" x1="255" y1="0" x2="255" y2="190" gradientUnits="userSpaceOnUse"><stop stop-color="#161622"/><stop offset="1" stop-color="#12121F"/></linearGradient><linearGradient id="paint1_linear_2485_11972" x1="0" y1="70" x2="70" y2="0" gradientUnits="userSpaceOnUse"><stop stop-color="#fff" stop-opacity=".08"/><stop offset="1" stop-color="#fff" stop-opacity="0"/></linearGradient><linearGradient id="paint2_linear_2485_11972" x1="0" y1="131" x2="131" y2="0" gradientUnits="userSpaceOnUse"><stop stop-color="#fff" stop-opacity=".08"/><stop offset="1" stop-color="#fff" stop-opacity="0"/></linearGradient><linearGradient id="paint3_linear_2485_11972" x1="0" y1="190" x2="190" y2="0" gradientUnits="userSpaceOnUse"><stop stop-color="#fff" stop-opacity=".08"/><stop offset="1" stop-color="#fff" stop-opacity="0"/></linearGradient><linearGradient id="paint4_linear_2485_11972" x1="255" y1="0" x2="255" y2="190" gradientUnits="userSpaceOnUse"><stop stop-color="#161622"/><stop offset="1" stop-color="#12121F"/></linearGradient><linearGradient id="paint5_linear_2485_11972" x1="0" y1="120" x2="70" y2="190" gradientUnits="userSpaceOnUse"><stop stop-color="#fff" stop-opacity=".08"/><stop offset="1" stop-color="#fff" stop-opacity="0"/></linearGradient><linearGradient id="paint6_linear_2485_11972" x1="0" y1="59" x2="131" y2="190" gradientUnits="userSpaceOnUse"><stop stop-color="#fff" stop-opacity=".08"/><stop offset="1" stop-color="#fff" stop-opacity="0"/></linearGradient><linearGradient id="paint7_linear_2485_11972" x1="0" y1="0" x2="190" y2="190" gradientUnits="userSpaceOnUse"><stop stop-color="#fff" stop-opacity=".08"/><stop offset="1" stop-color="#fff" stop-opacity="0"/></linearGradient><linearGradient id="paint8_linear_2485_11972" x1="255" y1="0" x2="255" y2="190" gradientUnits="userSpaceOnUse"><stop stop-color="#161622"/><stop offset="1" stop-color="#12121F"/></linearGradient><linearGradient id="paint9_linear_2485_11972" x1="510" y1="70" x2="440" y2="0" gradientUnits="userSpaceOnUse"><stop stop-color="#fff" stop-opacity=".08"/><stop offset="1" stop-color="#fff" stop-opacity="0"/></linearGradient><linearGradient id="paint10_linear_2485_11972" x1="510" y1="131" x2="379" y2="0" gradientUnits="userSpaceOnUse"><stop stop-color="#fff" stop-opacity=".08"/><stop offset="1" stop-color="#fff" stop-opacity="0"/></linearGradient><linearGradient id="paint11_linear_2485_11972" x1="510" y1="190" x2="320" y2="0" gradientUnits="userSpaceOnUse"><stop stop-color="#fff" stop-opacity=".08"/><stop offset="1" stop-color="#fff" stop-opacity="0"/></linearGradient><linearGradient id="paint12_linear_2485_11972" x1="765" y1="190" x2="765" y2="380" gradientUnits="userSpaceOnUse"><stop stop-color="#161622"/><stop offset="1" stop-color="#12121F"/></linearGradient><linearGradient id="paint13_linear_2485_11972" x1="510" y1="120" x2="440" y2="190" gradientUnits="userSpaceOnUse"><stop stop-color="#fff" stop-opacity=".08"/><stop offset="1" stop-color="#fff" stop-opacity="0"/></linearGradient><linearGradient id="paint14_linear_2485_11972" x1="510" y1="59" x2="379" y2="190" gradientUnits="userSpaceOnUse"><stop stop-color="#fff" stop-opacity=".08"/><stop offset="1" stop-color="#fff" stop-opacity="0"/></linearGradient><linearGradient id="paint15_linear_2485_11972" x1="510" y1="0" x2="320" y2="190" gradientUnits="userSpaceOnUse"><stop stop-color="#fff" stop-opacity=".08"/><stop offset="1" stop-color="#fff" stop-opacity="0"/></linearGradient></defs></svg>