<svg width="510" height="190" fill="none" xmlns="http://www.w3.org/2000/svg"><g opacity=".65"><mask id="b" style="mask-type:alpha" maskUnits="userSpaceOnUse" x="0" y="0" width="510" height="190"><rect width="510" height="190" rx="12" fill="url(#a)"/></mask><g mask="url(#b)"><path d="M0 70V0h70L0 70Z" fill="url(#c)" fill-opacity=".35"/><path d="M0 131V0h131L0 131Z" fill="url(#d)" fill-opacity=".25"/><path d="M0 190V0h190L0 190Z" fill="url(#e)" fill-opacity=".15"/></g><mask id="g" style="mask-type:alpha" maskUnits="userSpaceOnUse" x="0" y="0" width="510" height="190"><rect width="510" height="190" rx="12" transform="matrix(1 0 0 -1 0 190)" fill="url(#f)"/></mask><g mask="url(#g)"><path d="M0 120v70h70L0 120Z" fill="url(#h)" fill-opacity=".35"/><path d="M0 59v131h131L0 59Z" fill="url(#i)" fill-opacity=".25"/><path d="M0 0v190h190L0 0Z" fill="url(#j)" fill-opacity=".15"/></g><mask id="l" style="mask-type:alpha" maskUnits="userSpaceOnUse" x="0" y="0" width="510" height="190"><rect width="510" height="190" rx="12" transform="matrix(-1 0 0 1 510 0)" fill="url(#k)"/></mask><g mask="url(#l)"><path d="M510 70V0h-70l70 70Z" fill="url(#m)" fill-opacity=".35"/><path d="M510 131V0H379l131 131Z" fill="url(#n)" fill-opacity=".25"/><path d="M510 190V0H320l190 190Z" fill="url(#o)" fill-opacity=".15"/></g><mask id="q" style="mask-type:alpha" maskUnits="userSpaceOnUse" x="0" y="0" width="510" height="190"><rect x="510" y="190" width="510" height="190" rx="12" transform="rotate(180 510 190)" fill="url(#p)"/></mask><g mask="url(#q)"><path d="M510 120v70h-70l70-70Z" fill="url(#r)" fill-opacity=".35"/><path d="M510 59v131H379L510 59Z" fill="url(#s)" fill-opacity=".25"/><path d="M510 0v190H320L510 0Z" fill="url(#t)" fill-opacity=".15"/></g></g><defs><linearGradient id="a" x1="255" y1="0" x2="255" y2="190" gradientUnits="userSpaceOnUse"><stop stop-color="#161622"/><stop offset="1" stop-color="#12121F"/></linearGradient><linearGradient id="c" x1="0" y1="70" x2="70" y2="0" gradientUnits="userSpaceOnUse"><stop stop-color="#fff" stop-opacity=".08"/><stop offset="1" stop-color="#fff" stop-opacity="0"/></linearGradient><linearGradient id="d" x1="0" y1="131" x2="131" y2="0" gradientUnits="userSpaceOnUse"><stop stop-color="#fff" stop-opacity=".08"/><stop offset="1" stop-color="#fff" stop-opacity="0"/></linearGradient><linearGradient id="e" x1="0" y1="190" x2="190" y2="0" gradientUnits="userSpaceOnUse"><stop stop-color="#fff" stop-opacity=".08"/><stop offset="1" stop-color="#fff" stop-opacity="0"/></linearGradient><linearGradient id="f" x1="255" y1="0" x2="255" y2="190" gradientUnits="userSpaceOnUse"><stop stop-color="#161622"/><stop offset="1" stop-color="#12121F"/></linearGradient><linearGradient id="h" x1="0" y1="120" x2="70" y2="190" gradientUnits="userSpaceOnUse"><stop stop-color="#fff" stop-opacity=".08"/><stop offset="1" stop-color="#fff" stop-opacity="0"/></linearGradient><linearGradient id="i" x1="0" y1="59" x2="131" y2="190" gradientUnits="userSpaceOnUse"><stop stop-color="#fff" stop-opacity=".08"/><stop offset="1" stop-color="#fff" stop-opacity="0"/></linearGradient><linearGradient id="j" x1="0" y1="0" x2="190" y2="190" gradientUnits="userSpaceOnUse"><stop stop-color="#fff" stop-opacity=".08"/><stop offset="1" stop-color="#fff" stop-opacity="0"/></linearGradient><linearGradient id="k" x1="255" y1="0" x2="255" y2="190" gradientUnits="userSpaceOnUse"><stop stop-color="#161622"/><stop offset="1" stop-color="#12121F"/></linearGradient><linearGradient id="m" x1="510" y1="70" x2="440" y2="0" gradientUnits="userSpaceOnUse"><stop stop-color="#fff" stop-opacity=".08"/><stop offset="1" stop-color="#fff" stop-opacity="0"/></linearGradient><linearGradient id="n" x1="510" y1="131" x2="379" y2="0" gradientUnits="userSpaceOnUse"><stop stop-color="#fff" stop-opacity=".08"/><stop offset="1" stop-color="#fff" stop-opacity="0"/></linearGradient><linearGradient id="o" x1="510" y1="190" x2="320" y2="0" gradientUnits="userSpaceOnUse"><stop stop-color="#fff" stop-opacity=".08"/><stop offset="1" stop-color="#fff" stop-opacity="0"/></linearGradient><linearGradient id="p" x1="765" y1="190" x2="765" y2="380" gradientUnits="userSpaceOnUse"><stop stop-color="#161622"/><stop offset="1" stop-color="#12121F"/></linearGradient><linearGradient id="r" x1="510" y1="120" x2="440" y2="190" gradientUnits="userSpaceOnUse"><stop stop-color="#fff" stop-opacity=".08"/><stop offset="1" stop-color="#fff" stop-opacity="0"/></linearGradient><linearGradient id="s" x1="510" y1="59" x2="379" y2="190" gradientUnits="userSpaceOnUse"><stop stop-color="#fff" stop-opacity=".08"/><stop offset="1" stop-color="#fff" stop-opacity="0"/></linearGradient><linearGradient id="t" x1="510" y1="0" x2="320" y2="190" gradientUnits="userSpaceOnUse"><stop stop-color="#fff" stop-opacity=".08"/><stop offset="1" stop-color="#fff" stop-opacity="0"/></linearGradient></defs></svg>