<svg width="24" height="24" viewBox="0 0 24 24" xmlns="http://www.w3.org/2000/svg">
<path fill-rule="evenodd" clip-rule="evenodd" d="M12 22C11.4477 22 11 21.5523 11 21V3.5C11 2.9477 11.4477 2.5 12 2.5C12.5523 2.5 13 2.9477 13 3.5L13 21C13 21.5523 12.5523 22 12 22Z"/>
<path fill-rule="evenodd" clip-rule="evenodd" d="M4.29289 10.7071C3.90237 10.3166 3.90237 9.6834 4.29289 9.2929L11.2929 2.2929C11.6834 1.9024 12.3166 1.9024 12.7071 2.2929L19.7071 9.2929C20.0976 9.6834 20.0976 10.3166 19.7071 10.7071C19.3166 11.0976 18.6834 11.0976 18.2929 10.7071L12 4.4142L5.70711 10.7071C5.31658 11.0976 4.68342 11.0976 4.29289 10.7071Z"/>
</svg>
