<svg width="24" height="24" viewBox="0 0 24 24" fill="none" xmlns="http://www.w3.org/2000/svg">
<path d="M5.83333 13.6487V13.1487H5.33333H3.64833C3.01612 13.1487 2.5 12.6326 2.5 12.0004C2.5 11.7025 2.62147 11.4047 2.83468 11.1879L11.4767 2.7145L11.4771 2.7141C11.7676 2.42863 12.2357 2.42863 12.5262 2.7141L12.5266 2.71448L21.1532 11.1741C21.3805 11.4065 21.5 11.7054 21.5 12.0004C21.5 12.6325 20.9839 13.1487 20.3517 13.1487H18.6667H18.1667V13.6487V20.7501C18.1667 21.1639 17.8305 21.5 17.4167 21.5H6.58333C6.16946 21.5 5.83333 21.1639 5.83333 20.7501V13.6487Z" fill="#DDC916" stroke="#FFE500"/>
</svg>
