<svg width="42" height="42" viewBox="0 0 42 42" fill="none" xmlns="http://www.w3.org/2000/svg">
<path d="M15.4969 2.53035C14.9875 1.91141 14.5295 1.96435 14.3123 2.05393C14.0951 2.14351 13.7003 2.40412 13.7003 3.21444V6.5738C13.7414 7.49961 14.0586 8.38977 14.6085 9.12285L19.7813 15.4018C19.9295 15.5877 20.1157 15.7374 20.3267 15.8402C20.5377 15.943 20.7681 15.9963 21.0015 15.9963C21.2348 15.9963 21.4652 15.943 21.6762 15.8402C21.8872 15.7374 22.0734 15.5877 22.2216 15.4018L27.3826 9.12285C27.9325 8.38977 28.2496 7.49961 28.2908 6.5738V3.21444C28.2908 2.40005 27.8959 2.13944 27.6788 2.05393C27.4616 1.96842 26.9917 1.91141 26.4941 2.53035L21.3055 8.81338C21.2674 8.86277 21.2195 8.90321 21.165 8.932C21.1106 8.96079 21.0508 8.97727 20.9896 8.98033C20.9281 8.97731 20.8679 8.96044 20.8133 8.93089C20.7587 8.90135 20.7111 8.85985 20.6737 8.80931L15.4969 2.53035Z" fill="black"/>
<path d="M15.4969 2.53035C14.9875 1.91141 14.5295 1.96435 14.3123 2.05393C14.0951 2.14351 13.7003 2.40412 13.7003 3.21444V6.5738C13.7414 7.49961 14.0586 8.38977 14.6085 9.12285L19.7813 15.4018C19.9295 15.5877 20.1157 15.7374 20.3267 15.8402C20.5377 15.943 20.7681 15.9963 21.0015 15.9963C21.2348 15.9963 21.4652 15.943 21.6762 15.8402C21.8872 15.7374 22.0734 15.5877 22.2216 15.4018L27.3826 9.12285C27.9325 8.38977 28.2496 7.49961 28.2908 6.5738V3.21444C28.2908 2.40005 27.8959 2.13944 27.6788 2.05393C27.4616 1.96842 26.9917 1.91141 26.4941 2.53035L21.3055 8.81338C21.2674 8.86277 21.2195 8.90321 21.165 8.932C21.1106 8.96079 21.0508 8.97727 20.9896 8.98033C20.9281 8.97731 20.8679 8.96044 20.8133 8.93089C20.7587 8.90135 20.7111 8.85985 20.6737 8.80931L15.4969 2.53035Z" fill="#DDC916"/>
<path d="M19.7576 39.4223C19.9111 39.6037 20.1004 39.7491 20.3129 39.8488C20.5254 39.9484 20.7562 40 20.9896 40C21.2231 40 21.4538 39.9484 21.6663 39.8488C21.8788 39.7491 22.0682 39.6037 22.2216 39.4223L35.5999 23.9407C35.7839 23.79 35.9141 23.5804 35.9698 23.345C36.0255 23.1096 36.0037 22.8618 35.9078 22.6406C35.8118 22.4194 35.6472 22.2374 35.4399 22.1234C35.2326 22.0093 34.9944 21.9696 34.7628 22.0106H28.8871C28.73 22.0106 28.5793 21.9462 28.4683 21.8317C28.3572 21.7172 28.2948 21.5618 28.2948 21.3998L28.2948 13.4188C28.2948 12.6044 27.8999 12.3438 27.6827 12.2583C27.4655 12.1727 26.9956 12.1157 26.4981 12.7306L21.3055 19.0136C21.2687 19.0642 21.221 19.1053 21.1662 19.1335C21.1114 19.1618 21.0509 19.1765 20.9896 19.1765C20.9283 19.1765 20.8679 19.1618 20.813 19.1335C20.7582 19.1053 20.7105 19.0642 20.6737 19.0136L15.4969 12.7306C14.9875 12.1157 14.5295 12.1687 14.3123 12.2583C14.0951 12.3478 13.7003 12.6084 13.7003 13.4188V21.3998C13.7003 21.5618 13.6379 21.7172 13.5268 21.8317C13.4157 21.9462 13.265 22.0106 13.1079 22.0106H7.22434C6.99394 21.9839 6.76111 22.0299 6.55664 22.1426C6.35216 22.2553 6.18568 22.4294 6.0792 22.6418C6.02417 22.7698 5.9972 22.9089 6.00023 23.0489C6.01588 23.3922 6.15696 23.7166 6.3951 23.957L19.7655 39.4304L19.7576 39.4223Z" fill="black"/>
<path d="M19.7576 39.4223C19.9111 39.6037 20.1004 39.7491 20.3129 39.8488C20.5254 39.9484 20.7562 40 20.9896 40C21.2231 40 21.4538 39.9484 21.6663 39.8488C21.8788 39.7491 22.0682 39.6037 22.2216 39.4223L35.5999 23.9407C35.7839 23.79 35.9141 23.5804 35.9698 23.345C36.0255 23.1096 36.0037 22.8618 35.9078 22.6406C35.8118 22.4194 35.6472 22.2374 35.4399 22.1234C35.2326 22.0093 34.9944 21.9696 34.7628 22.0106H28.8871C28.73 22.0106 28.5793 21.9462 28.4683 21.8317C28.3572 21.7172 28.2948 21.5618 28.2948 21.3998L28.2948 13.4188C28.2948 12.6044 27.8999 12.3438 27.6827 12.2583C27.4655 12.1727 26.9956 12.1157 26.4981 12.7306L21.3055 19.0136C21.2687 19.0642 21.221 19.1053 21.1662 19.1335C21.1114 19.1618 21.0509 19.1765 20.9896 19.1765C20.9283 19.1765 20.8679 19.1618 20.813 19.1335C20.7582 19.1053 20.7105 19.0642 20.6737 19.0136L15.4969 12.7306C14.9875 12.1157 14.5295 12.1687 14.3123 12.2583C14.0951 12.3478 13.7003 12.6084 13.7003 13.4188V21.3998C13.7003 21.5618 13.6379 21.7172 13.5268 21.8317C13.4157 21.9462 13.265 22.0106 13.1079 22.0106H7.22434C6.99394 21.9839 6.76111 22.0299 6.55664 22.1426C6.35216 22.2553 6.18568 22.4294 6.0792 22.6418C6.02417 22.7698 5.9972 22.9089 6.00023 23.0489C6.01588 23.3922 6.15696 23.7166 6.3951 23.957L19.7655 39.4304L19.7576 39.4223Z" fill="#DDC916"/>
<path fill-rule="evenodd" clip-rule="evenodd" d="M14.7248 3.16581C14.7171 3.15645 14.7096 3.14758 14.7023 3.13916C14.701 3.16189 14.7003 3.18693 14.7003 3.21444V6.55021C14.736 7.26263 14.9798 7.94419 15.3957 8.50569L20.5582 14.7722L20.5633 14.7785C20.6199 14.8496 20.6892 14.9044 20.7647 14.9412C20.8401 14.9779 20.9208 14.9963 21.0015 14.9963C21.0821 14.9963 21.1629 14.9779 21.2382 14.9412C21.3137 14.9044 21.383 14.8496 21.4397 14.7785L21.4443 14.7726L26.5951 8.50611C27.0111 7.94453 27.255 7.26282 27.2908 6.55023V3.21444C27.2908 3.18664 27.2901 3.16131 27.2888 3.13831C27.2838 3.14426 27.2787 3.15045 27.2735 3.15688L27.2653 3.16716L22.0841 9.44108C21.9618 9.59477 21.8085 9.72302 21.6323 9.81613C21.4496 9.91265 21.2476 9.96866 21.0397 9.97908L20.9901 9.98156L20.9406 9.97913C20.7285 9.96872 20.5225 9.91059 20.3372 9.81029C20.1622 9.71553 20.0105 9.5858 19.8902 9.431L14.7248 3.16581ZM20.6737 8.80931C20.7111 8.85985 20.7587 8.90135 20.8133 8.93089C20.8679 8.96044 20.9281 8.97731 20.9896 8.98033C21.0508 8.97727 21.1106 8.96079 21.165 8.932C21.2195 8.90321 21.2674 8.86277 21.3055 8.81338L26.4941 2.53035C26.9917 1.91141 27.4616 1.96842 27.6788 2.05393C27.8959 2.13944 28.2908 2.40005 28.2908 3.21444V6.5738C28.2496 7.49961 27.9325 8.38977 27.3826 9.12285L22.2216 15.4018C22.0734 15.5877 21.8872 15.7374 21.6762 15.8402C21.4652 15.943 21.2348 15.9963 21.0015 15.9963C20.7681 15.9963 20.5377 15.943 20.3267 15.8402C20.1157 15.7374 19.9295 15.5877 19.7813 15.4018L14.6085 9.12285C14.0586 8.38977 13.7414 7.49961 13.7003 6.5738V3.21444C13.7003 2.40412 14.0951 2.14351 14.3123 2.05393C14.5295 1.96435 14.9875 1.91141 15.4969 2.53035L20.6737 8.80931ZM19.7576 39.4223C19.76 39.4252 19.7631 39.4276 19.7655 39.4304C19.7655 39.4304 19.7655 39.4304 19.7655 39.4304C19.7717 39.4377 19.7775 39.4454 19.7838 39.4525C19.9324 39.6199 20.1123 39.7547 20.3129 39.8488C20.5254 39.9484 20.7562 40 20.9896 40C21.2231 40 21.4538 39.9484 21.6663 39.8488C21.8788 39.7491 22.0682 39.6037 22.2216 39.4223L35.5999 23.9407C35.7839 23.79 35.9141 23.5804 35.9698 23.345C36.0255 23.1096 36.0037 22.8618 35.9078 22.6406C35.8118 22.4194 35.6472 22.2374 35.4399 22.1234C35.2326 22.0093 34.9944 21.9696 34.7628 22.0106H28.8871C28.73 22.0106 28.5793 21.9462 28.4683 21.8317C28.3572 21.7172 28.2948 21.5618 28.2948 21.3998L28.2948 13.4188C28.2948 12.6044 27.8999 12.3438 27.6827 12.2583C27.4655 12.1727 26.9956 12.1157 26.4981 12.7306L21.3055 19.0136C21.2687 19.0642 21.221 19.1053 21.1662 19.1335C21.1114 19.1618 21.0509 19.1765 20.9896 19.1765C20.9283 19.1765 20.8679 19.1618 20.813 19.1335C20.7582 19.1053 20.7105 19.0642 20.6737 19.0136L15.4969 12.7306C14.9875 12.1157 14.5295 12.1687 14.3123 12.2583C14.0951 12.3478 13.7003 12.6084 13.7003 13.4188V21.3998C13.7003 21.5618 13.6379 21.7172 13.5268 21.8317C13.4157 21.9462 13.265 22.0106 13.1079 22.0106H7.22434C6.99394 21.9839 6.76111 22.0299 6.55664 22.1426C6.35216 22.2553 6.18568 22.4294 6.0792 22.6418C6.02417 22.7698 5.9972 22.9089 6.00023 23.0489C6.01588 23.3922 6.15696 23.7166 6.3951 23.957L19.7576 39.4223ZM7.00347 23.0464C7.01616 23.1286 7.05363 23.2008 7.10549 23.2532L7.12948 23.2774L20.5222 38.7766C20.5837 38.8492 20.6572 38.9057 20.7375 38.9434C20.8179 38.9811 20.9037 39 20.9896 39C21.0755 39 21.1614 38.9811 21.2418 38.9434C21.3223 38.9056 21.3964 38.8494 21.4581 38.7765L21.4649 38.7684L34.8996 23.2217L34.9663 23.1671C34.9775 23.1579 34.9906 23.1406 34.9967 23.1146C35.0029 23.0884 35.0001 23.0611 34.9904 23.0385C34.9808 23.0164 34.9671 23.0046 34.9578 22.9995C34.9532 22.9969 34.9493 22.9958 34.9462 22.9953C34.9431 22.9947 34.9401 22.9948 34.937 22.9953L34.8506 23.0106H28.8871C28.4547 23.0106 28.0464 22.8332 27.7504 22.5279C27.4553 22.2236 27.2948 21.8173 27.2948 21.3998L27.2948 13.4188C27.2948 13.3895 27.2939 13.363 27.2925 13.339C27.2869 13.3456 27.2813 13.3525 27.2755 13.3596L27.269 13.3677L22.0901 19.6341C21.9661 19.7946 21.8078 19.9278 21.6245 20.0223C21.4289 20.1232 21.2114 20.1765 20.9896 20.1765C20.7678 20.1765 20.5504 20.1232 20.3547 20.0223C20.1711 19.9277 20.0126 19.7941 19.8885 19.6333L14.7269 13.3686C14.7266 13.3682 14.7263 13.3679 14.7261 13.3676C14.718 13.3579 14.7101 13.3487 14.7025 13.34C14.7011 13.3636 14.7003 13.3898 14.7003 13.4188V21.3998C14.7003 21.8173 14.5397 22.2236 14.2447 22.5279C13.9486 22.8332 13.5403 23.0106 13.1079 23.0106H7.16657L7.1092 23.0039C7.08692 23.0014 7.06291 23.0054 7.03934 23.0184C7.02722 23.0251 7.01493 23.0344 7.00347 23.0464ZM14.7419 13.1447C14.7422 13.1441 14.7419 13.1447 14.7419 13.1447ZM27.2529 13.1413C27.2526 13.1408 27.2529 13.1413 27.2529 13.1413ZM27.249 2.93696C27.2486 2.93638 27.249 2.93695 27.249 2.93696ZM14.7419 2.94034C14.7422 2.93982 14.7419 2.94033 14.7419 2.94034Z" fill="#FFE500"/>
</svg>
