<svg width="28" height="51" viewBox="0 0 28 51" fill="none" xmlns="http://www.w3.org/2000/svg">
<mask id="path-1-inside-1_4405_2685" fill="white">
<path fill-rule="evenodd" clip-rule="evenodd" d="M27.5001 37.2226L14.6261 50.7291C14.545 50.8147 14.4477 50.8829 14.3402 50.9295C14.2326 50.976 14.1169 51 14 51C13.8831 51 13.7674 50.976 13.6599 50.9295C13.5523 50.8829 13.455 50.8147 13.3739 50.7291L0.499895 37.2226C0.301258 37.0136 0.155042 36.759 0.0736495 36.4802C-0.00774346 36.2015 -0.0219154 35.9069 0.0323378 35.6214L13.3703 0.439748C13.4194 0.310291 13.5058 0.198994 13.6182 0.120502C13.7306 0.0420093 13.8638 0 14.0001 0C14.1364 0 14.2695 0.0420093 14.3819 0.120502C14.4943 0.198994 14.5807 0.310291 14.6298 0.439748L27.9677 35.6214C28.0219 35.9069 28.0077 36.2015 27.9264 36.4803C27.845 36.759 27.6987 37.0136 27.5001 37.2226ZM14 39C16.2091 39 18 37.2091 18 35C18 32.7909 16.2091 31 14 31C11.7909 31 10 32.7909 10 35C10 37.2091 11.7909 39 14 39Z"/>
</mask>
<path fill-rule="evenodd" clip-rule="evenodd" d="M27.5001 37.2226L14.6261 50.7291C14.545 50.8147 14.4477 50.8829 14.3402 50.9295C14.2326 50.976 14.1169 51 14 51C13.8831 51 13.7674 50.976 13.6599 50.9295C13.5523 50.8829 13.455 50.8147 13.3739 50.7291L0.499895 37.2226C0.301258 37.0136 0.155042 36.759 0.0736495 36.4802C-0.00774346 36.2015 -0.0219154 35.9069 0.0323378 35.6214L13.3703 0.439748C13.4194 0.310291 13.5058 0.198994 13.6182 0.120502C13.7306 0.0420093 13.8638 0 14.0001 0C14.1364 0 14.2695 0.0420093 14.3819 0.120502C14.4943 0.198994 14.5807 0.310291 14.6298 0.439748L27.9677 35.6214C28.0219 35.9069 28.0077 36.2015 27.9264 36.4803C27.845 36.759 27.6987 37.0136 27.5001 37.2226ZM14 39C16.2091 39 18 37.2091 18 35C18 32.7909 16.2091 31 14 31C11.7909 31 10 32.7909 10 35C10 37.2091 11.7909 39 14 39Z" fill="#C1150A"/>
<path d="M14.6261 50.7291L13.1784 49.3491L13.1737 49.3541L14.6261 50.7291ZM27.5001 37.2226L28.9478 38.6025L28.9496 38.6006L27.5001 37.2226ZM14.3402 50.9295L13.5459 49.0939L13.5458 49.094L14.3402 50.9295ZM13.6599 50.9295L14.4542 49.094L14.4541 49.0939L13.6599 50.9295ZM13.3739 50.7291L14.8264 49.3541L14.8216 49.3491L13.3739 50.7291ZM0.499895 37.2226L-0.94965 38.6006L-0.947807 38.6025L0.499895 37.2226ZM0.0736495 36.4802L-1.84617 37.0409L0.0736495 36.4802ZM0.0323378 35.6214L-1.83778 34.9124L-1.89982 35.0761L-1.9325 35.248L0.0323378 35.6214ZM13.3703 0.439748L11.5002 -0.269273L11.5002 -0.269246L13.3703 0.439748ZM13.6182 0.120502L14.7633 1.76025L14.7633 1.76025L13.6182 0.120502ZM14.3819 0.120502L13.2368 1.76025L14.3819 0.120502ZM14.6298 0.439748L16.4999 -0.269241L16.4999 -0.269272L14.6298 0.439748ZM27.9677 35.6214L29.9325 35.248L29.8998 35.0761L29.8378 34.9124L27.9677 35.6214ZM27.9264 36.4803L26.0065 35.9196L26.0065 35.9197L27.9264 36.4803ZM16.0738 52.109L28.9478 38.6025L26.0524 35.8427L13.1784 49.3491L16.0738 52.109ZM15.1344 52.765C15.492 52.6102 15.8127 52.3848 16.0785 52.104L13.1737 49.3541C13.2772 49.2447 13.4035 49.1556 13.5459 49.0939L15.1344 52.765ZM14 53C14.3909 53 14.7769 52.9197 15.1345 52.7649L13.5458 49.094C13.6883 49.0323 13.8429 49 14 49V53ZM12.8655 52.7649C13.2231 52.9197 13.6091 53 14 53V49C14.1571 49 14.3117 49.0323 14.4542 49.094L12.8655 52.7649ZM11.9215 52.104C12.1873 52.3848 12.508 52.6102 12.8656 52.765L14.4541 49.0939C14.5966 49.1556 14.7228 49.2447 14.8264 49.3541L11.9215 52.104ZM-0.947807 38.6025L11.9262 52.109L14.8216 49.3491L1.9476 35.8427L-0.947807 38.6025ZM-1.84617 37.0409C-1.67608 37.6233 -1.3696 38.1588 -0.949649 38.6006L1.94944 35.8446C1.97211 35.8685 1.98617 35.8946 1.99347 35.9196L-1.84617 37.0409ZM-1.9325 35.248C-2.04571 35.8438 -2.01623 36.4585 -1.84617 37.0409L1.99347 35.9196C2.00075 35.9446 2.00188 35.97 1.99718 35.9948L-1.9325 35.248ZM11.5002 -0.269246L-1.83778 34.9124L1.90245 36.3304L15.2405 1.14874L11.5002 -0.269246ZM12.4732 -1.51925C12.0275 -1.20805 11.6904 -0.770838 11.5002 -0.269273L15.2404 1.14877C15.1484 1.39142 14.9842 1.60604 14.7633 1.76025L12.4732 -1.51925ZM14.0001 -2C13.4516 -2 12.9193 -1.83078 12.4732 -1.51924L14.7633 1.76025C14.542 1.9148 14.2759 2 14.0001 2V-2ZM15.5269 -1.51924C15.0808 -1.83078 14.5485 -2 14.0001 -2V2C13.7242 2 13.4581 1.9148 13.2368 1.76025L15.5269 -1.51924ZM16.4999 -0.269272C16.3097 -0.770837 15.9726 -1.20805 15.5269 -1.51924L13.2368 1.76025C13.0159 1.60603 12.8517 1.39142 12.7597 1.14877L16.4999 -0.269272ZM29.8378 34.9124L16.4999 -0.269241L12.7596 1.14874L26.0975 36.3304L29.8378 34.9124ZM29.8462 37.0409C30.0162 36.4585 30.0457 35.8438 29.9325 35.248L26.0028 35.9948C25.9981 35.97 25.9993 35.9446 26.0065 35.9196L29.8462 37.0409ZM28.9496 38.6006C29.3696 38.1588 29.6761 37.6233 29.8462 37.0409L26.0065 35.9197C26.0138 35.8946 26.0279 35.8685 26.0506 35.8446L28.9496 38.6006ZM16 35C16 36.1046 15.1046 37 14 37V41C17.3137 41 20 38.3137 20 35H16ZM14 33C15.1046 33 16 33.8954 16 35H20C20 31.6863 17.3137 29 14 29V33ZM12 35C12 33.8954 12.8954 33 14 33V29C10.6863 29 8 31.6863 8 35H12ZM14 37C12.8954 37 12 36.1046 12 35H8C8 38.3137 10.6863 41 14 41V37Z" fill="#FF0000" mask="url(#path-1-inside-1_4405_2685)"/>
</svg>
