<svg width="16" height="16" viewBox="0 0 16 16" xmlns="http://www.w3.org/2000/svg">
<path fill-rule="evenodd" clip-rule="evenodd" d="M11.6717 2.76247C11.3367 2.62472 10.9776 2.55478 10.6154 2.55668C10.2532 2.55858 9.89489 2.63229 9.56133 2.77355C9.22776 2.9148 8.92551 3.1208 8.67207 3.37962L8.66656 3.38524L2.43853 9.61321C2.14564 9.90611 1.67077 9.90611 1.37787 9.61321C1.08498 9.32032 1.08498 8.84545 1.37787 8.55255L7.60322 2.32721C7.99481 1.92808 8.4615 1.61034 8.97641 1.39229C9.49258 1.1737 10.047 1.05964 10.6075 1.0567C11.1681 1.05376 11.7236 1.16199 12.2421 1.37515C12.7605 1.5883 13.2315 1.90214 13.6279 2.29851C14.0243 2.69488 14.3381 3.16591 14.5513 3.68435C14.7644 4.20279 14.8727 4.75836 14.8697 5.3189C14.8668 5.87944 14.7527 6.43384 14.5341 6.95001C14.3161 7.46493 13.9983 7.93162 13.5992 8.32321L7.77579 14.1453C7.274 14.6308 6.60142 14.8996 5.90321 14.8939C5.205 14.8881 4.53702 14.6082 4.04329 14.1145C3.54956 13.6207 3.26964 12.9528 3.26389 12.2545C3.25814 11.5563 3.52702 10.8838 4.01254 10.382L4.0211 10.3732L9.60251 4.79125C9.89538 4.49834 10.3703 4.49831 10.6632 4.79119C10.9561 5.08406 10.9561 5.55894 10.6632 5.85185L5.08681 11.4289C4.87729 11.6475 4.76135 11.9393 4.76384 12.2422C4.76635 12.5469 4.8885 12.8384 5.10395 13.0538C5.3194 13.2693 5.61089 13.3914 5.91557 13.3939C6.21846 13.3964 6.51026 13.2805 6.72881 13.071L12.5468 7.25432C12.8056 7.00088 13.0116 6.69866 13.1529 6.36509C13.2941 6.03153 13.3678 5.67326 13.3697 5.31102C13.3716 4.94879 13.3017 4.58977 13.164 4.25474C13.0262 3.9197 12.8234 3.61531 12.5673 3.35917C12.3111 3.10302 12.0067 2.90021 11.6717 2.76247Z"/>
</svg>
