<svg width="24" height="24" viewBox="0 0 24 24" xmlns="http://www.w3.org/2000/svg">
<path fill-rule="evenodd" clip-rule="evenodd" d="M6 11.9998C5.44772 11.9998 5 12.4475 5 12.9998V15.9998C3.89543 15.9998 3 16.8952 3 17.9998V18.9998C3 20.1043 3.89543 20.9998 5 20.9998H19C20.1046 20.9998 21 20.1043 21 18.9998V17.9998C21 16.8952 20.1046 15.9998 19 15.9998V12.9998C19 12.4475 18.5523 11.9998 18 11.9998C17.4477 11.9998 17 12.4475 17 12.9998V15.9998H15V12.9998C15 12.4475 14.5523 11.9998 14 11.9998C13.4477 11.9998 13 12.4475 13 12.9998V15.9998H11V12.9998C11 12.4475 10.5523 11.9998 10 11.9998C9.44772 11.9998 9 12.4475 9 12.9998V15.9998H7V12.9998C7 12.4475 6.55228 11.9998 6 11.9998Z"/>
<path d="M3 7.42312C3 6.57109 3.5398 5.8126 4.34483 5.53348L11.3448 3.10645C11.7692 2.95931 12.2308 2.95931 12.6552 3.10645L19.6552 5.53348C20.4602 5.8126 21 6.57109 21 7.42313V7.99976C21 9.10433 20.1046 9.99976 19 9.99976H5C3.89543 9.99976 3 9.10433 3 7.99976V7.42312Z"/>
</svg>
