<svg width="24" height="24" viewBox="0 0 24 24" fill="none" xmlns="http://www.w3.org/2000/svg">
<path fill-rule="evenodd" clip-rule="evenodd" d="M6 11.9998C5.44772 11.9998 5 12.4475 5 12.9998V15.9998C3.89543 15.9998 3 16.8952 3 17.9998V18.9998C3 20.1043 3.89543 20.9998 5 20.9998H19C20.1046 20.9998 21 20.1043 21 18.9998V17.9998C21 16.8952 20.1046 15.9998 19 15.9998V12.9998C19 12.4475 18.5523 11.9998 18 11.9998C17.4477 11.9998 17 12.4475 17 12.9998V15.9998H15V12.9998C15 12.4475 14.5523 11.9998 14 11.9998C13.4477 11.9998 13 12.4475 13 12.9998V15.9998H11V12.9998C11 12.4475 10.5523 11.9998 10 11.9998C9.44772 11.9998 9 12.4475 9 12.9998V15.9998H7V12.9998C7 12.4475 6.55228 11.9998 6 11.9998Z" fill="#DDC916"/>
<path d="M3 7.42312C3 6.57109 3.5398 5.8126 4.34483 5.53348L11.3448 3.10645C11.7692 2.95931 12.2308 2.95931 12.6552 3.10645L19.6552 5.53348C20.4602 5.8126 21 6.57109 21 7.42313V7.99976C21 9.10433 20.1046 9.99976 19 9.99976H5C3.89543 9.99976 3 9.10433 3 7.99976V7.42312Z" fill="#DDC916"/>
<path fill-rule="evenodd" clip-rule="evenodd" d="M5 16.9998C4.44772 16.9998 4 17.4475 4 17.9998V18.9998C4 19.552 4.44772 19.9998 5 19.9998H19C19.5523 19.9998 20 19.552 20 18.9998V17.9998C20 17.4475 19.5523 16.9998 19 16.9998H5ZM5 12.9998C5 12.4475 5.44772 11.9998 6 11.9998C6.55228 11.9998 7 12.4475 7 12.9998V15.9998H9V12.9998C9 12.4475 9.44772 11.9998 10 11.9998C10.5523 11.9998 11 12.4475 11 12.9998V15.9998H13V12.9998C13 12.4475 13.4477 11.9998 14 11.9998C14.5523 11.9998 15 12.4475 15 12.9998V15.9998H17V12.9998C17 12.4475 17.4477 11.9998 18 11.9998C18.5523 11.9998 19 12.4475 19 12.9998V15.9998C20.1046 15.9998 21 16.8952 21 17.9998V18.9998C21 20.1043 20.1046 20.9998 19 20.9998H5C3.89543 20.9998 3 20.1043 3 18.9998V17.9998C3 16.8952 3.89543 15.9998 5 15.9998V12.9998ZM20 7.99976V7.42313C20 6.99711 19.7301 6.61786 19.3276 6.4783L12.3276 4.05127C12.1154 3.9777 11.8846 3.9777 11.6724 4.05127L4.67241 6.4783C4.2699 6.61786 4 6.99711 4 7.42312V7.99976C4 8.55204 4.44772 8.99976 5 8.99976H19C19.5523 8.99976 20 8.55204 20 7.99976ZM4.34483 5.53348C3.5398 5.8126 3 6.57109 3 7.42312V7.99976C3 9.10433 3.89543 9.99976 5 9.99976H19C20.1046 9.99976 21 9.10433 21 7.99976V7.42313C21 6.57109 20.4602 5.8126 19.6552 5.53348L12.6552 3.10645C12.2308 2.95931 11.7692 2.95931 11.3448 3.10645L4.34483 5.53348Z" fill="#FFE500"/>
</svg>
