<svg width="24" height="24" viewBox="0 0 24 24" xmlns="http://www.w3.org/2000/svg">
<path fill-rule="evenodd" clip-rule="evenodd" d="M10.4225 16.9431L7.35899 13.8796L20.7202 0.518555C20.7202 0.518555 22.6617 3.7913 22.4942 6.12655C22.327 8.46155 21.239 10.7676 19.4695 12.5371L14.3442 17.6623C13.3102 16.7218 11.8215 16.4951 10.4225 16.9431Z"/>
<path fill-rule="evenodd" clip-rule="evenodd" d="M6.82874 14.4098L9.89224 17.4733L6.76949 20.5961C6.83874 21.3511 6.58449 22.1301 6.00699 22.7076C4.97549 23.7391 3.30049 23.7391 2.26899 22.7076C1.23749 21.6761 1.23749 20.0011 2.26899 18.9696L6.82874 14.4098ZM5.02849 18.4303L4.52824 18.9306C4.38174 19.0768 4.38174 19.3146 4.52824 19.4608C4.67449 19.6073 4.91224 19.6073 5.05849 19.4608L5.55874 18.9606C5.70524 18.8141 5.70524 18.5766 5.55874 18.4303C5.41249 18.2838 5.17474 18.2838 5.02849 18.4303ZM6.75999 16.6988L6.25974 17.1991C6.11324 17.3453 6.11324 17.5831 6.25974 17.7293C6.40599 17.8758 6.64374 17.8758 6.78999 17.7293L7.29024 17.2291C7.43674 17.0828 7.43674 16.8451 7.29024 16.6988C7.14399 16.5523 6.90624 16.5523 6.75999 16.6988Z"/>
</svg>
