<svg width="24" height="24" viewBox="0 0 24 24" fill="none" xmlns="http://www.w3.org/2000/svg">
<path d="M4.17499 18.5767L4.67463 18.0771L4.17499 18.5767ZM4.17499 18.5767C4.17493 18.5768 4.17488 18.5768 4.17482 18.5769M4.17499 18.5767L4.17482 18.5769M4.17482 18.5769C4.17477 18.5769 4.17473 18.577 4.17468 18.577M4.17482 18.5769L4.17468 18.577M4.17468 18.577C3.83282 18.9186 3.83292 19.4732 4.17499 19.8147M4.17468 18.577L4.17499 19.8147M4.17499 19.8147C4.51651 20.1561 5.07063 20.156 5.41204 19.8144L4.17499 19.8147ZM6.40613 16.3456C6.74761 16.0035 7.30218 16.0034 7.64379 16.3452C7.98565 16.6869 7.98555 17.2414 7.64349 17.5829L7.14384 18.0826L6.40613 16.3456ZM6.40613 16.3456L6.40643 16.3453L6.75943 16.6982L6.40613 16.3456ZM5.8472 18.0178C5.50364 17.7363 4.99551 17.7559 4.67493 18.0768L5.8472 18.0178ZM5.8472 18.0178C5.56571 17.6742 5.58537 17.1661 5.90618 16.8455L5.8472 18.0178ZM6.82874 15.1169L9.18513 17.4733L6.41593 20.2425L6.25016 20.4083L6.27158 20.6417C6.32785 21.2553 6.1214 21.886 5.65343 22.354C4.81719 23.1902 3.45878 23.1902 2.62254 22.354C1.7863 21.5178 1.7863 20.1593 2.62254 19.3231L6.82874 15.1169ZM8.0661 13.8796L20.6018 1.34406C20.7733 1.67456 20.9935 2.12531 21.2088 2.63982C21.6684 3.73847 22.0703 5.04771 21.9955 6.09078L21.9955 6.09083C21.8375 8.29722 20.8067 10.4927 19.1159 12.1835L14.3077 16.9917C13.237 16.2294 11.8659 16.0483 10.5677 16.3811L8.0661 13.8796ZM20.9722 0.973713C21.4918 1.95363 22.6238 4.32047 22.4942 6.12655L20.9722 0.973713ZM5.41234 19.8141L5.91229 19.3141C6.23286 18.9935 6.25297 18.4856 5.97129 18.1419C6.31486 18.4233 6.82297 18.4037 7.14354 18.0829L5.41234 19.8141ZM5.55874 18.4303L5.55877 18.4303L5.55874 18.4303Z" fill="#DDC916" stroke="#FFE500"/>
</svg>
