<svg width="24" height="24" viewBox="0 0 24 24" fill="none" xmlns="http://www.w3.org/2000/svg">
<path d="M20.0141 16.0395L20.0145 16.04C20.0424 16.0737 20.0801 16.1195 20.119 16.1668C20.1631 16.2204 20.2088 16.2759 20.2437 16.318C20.3836 16.4871 20.4722 16.6928 20.4989 16.9107C20.5255 17.1287 20.4892 17.3497 20.3941 17.5477L20.3937 17.5485C20.1903 17.9736 19.7585 18.2486 19.2421 18.2486H4.76286C4.2417 18.2486 3.8073 17.9721 3.60535 17.5465L3.60466 17.5451C3.50997 17.3472 3.47395 17.1264 3.50086 16.9087C3.52777 16.691 3.61648 16.4855 3.75651 16.3167L3.75652 16.3167L3.75944 16.3131C3.82602 16.2313 3.89153 16.1523 3.95765 16.0725C3.96701 16.0613 3.97637 16.05 3.98576 16.0386L3.98587 16.0385L4.00189 16.0192C4.50914 15.4069 4.97097 14.8495 5.28555 13.9818C5.5996 13.1155 5.75599 11.9761 5.75599 10.1883C5.75599 8.65054 6.0639 7.42471 6.65436 6.46519C7.24203 5.51021 8.13383 4.77941 9.37351 4.26907L9.40107 4.25773L9.42708 4.2432C9.48996 4.20806 9.54652 4.16266 9.59444 4.10889L9.66837 4.02593L9.7002 3.91946C10.0556 2.73053 11.001 2 11.9999 2C12.9988 2 13.9446 2.73049 14.3 3.92073L14.3304 4.02237L14.3994 4.10293C14.4488 4.16061 14.5081 4.20906 14.5745 4.24601L14.6002 4.26028L14.6273 4.27146C15.692 4.70951 16.4744 5.29061 17.0477 6.04031L17.048 6.04067C17.8259 7.05587 18.2443 8.43929 18.2443 10.1897C18.2443 11.9769 18.4009 13.1159 18.7151 13.9822C19.0293 14.8485 19.4902 15.4059 19.9959 16.0176L20.0141 16.0395ZM13.6665 21.5388C13.1628 21.8401 12.5869 21.9994 12 22C11.413 21.9994 10.8372 21.84 10.3336 21.5387C9.98844 21.3322 9.68598 21.0644 9.44029 20.75H14.56C14.3142 21.0645 14.0117 21.3323 13.6665 21.5388ZM15.1358 20.75C15.1358 20.75 15.1358 20.75 15.1357 20.75H15.1358Z" fill="#DDC916" stroke="#FFE500"/>
</svg>
