<svg width="32" height="32" viewBox="0 0 32 32" fill="none" xmlns="http://www.w3.org/2000/svg">
<path d="M21.8364 17.1352V20.2582C21.8364 20.3309 21.8 20.3854 21.7273 20.4217L16.1818 22.9818V17.2078L18.0364 18.733C18.1273 18.8057 18.2545 18.8601 18.3818 18.8601C18.5091 18.8601 18.5636 18.842 18.6364 18.8057L21.8182 17.1534L21.8364 17.1352ZM13.9636 18.733C13.8727 18.8057 13.7455 18.8601 13.6182 18.8601C13.4909 18.8601 13.4364 18.842 13.3636 18.8057L10.1818 17.1534V20.2764C10.1818 20.349 10.2182 20.4035 10.2909 20.4398L15.8364 23V17.226L13.9818 18.7512L13.9636 18.733ZM24 15.501C24 15.5555 23.9636 15.61 23.9091 15.6463L18.4727 18.4607C18.4545 18.4607 18.4182 18.4788 18.3818 18.4788C18.3455 18.4788 18.2909 18.4788 18.2727 18.4425L16 16.5905L13.7273 18.4425C13.6909 18.4607 13.6545 18.4788 13.6182 18.4788C13.5818 18.4788 13.5636 18.4788 13.5273 18.4607L8.09091 15.6463C8.03636 15.61 8 15.5555 8 15.501C8 15.4466 8.01818 15.3739 8.07273 15.3376L10.0909 13.7216L8.27273 11.9059C8.23636 11.8696 8.21818 11.797 8.21818 11.7425C8.21818 11.688 8.27273 11.6335 8.32727 11.6154L13.9818 9.01889C14.0545 8.98258 14.1273 9.01889 14.1818 9.05521L16 10.8709L17.8182 9.05521C17.8727 9.00074 17.9455 8.98258 18.0182 9.01889L23.6727 11.6154C23.7273 11.6335 23.7636 11.688 23.7818 11.7425C23.7818 11.797 23.7818 11.8696 23.7273 11.9059L21.9091 13.7216L23.9273 15.3376C23.9818 15.3739 24 15.4284 24 15.501ZM21.2182 13.7398L16 11.343L10.7818 13.7398L16 16.1365L21.2182 13.7398Z" fill="#28283C"/>
<path d="M21.8364 17.1352V20.2582C21.8364 20.3309 21.8 20.3854 21.7273 20.4217L16.1818 22.9818V17.2078L18.0364 18.733C18.1273 18.8057 18.2545 18.8601 18.3818 18.8601C18.5091 18.8601 18.5636 18.842 18.6364 18.8057L21.8182 17.1534L21.8364 17.1352ZM13.9636 18.733C13.8727 18.8057 13.7455 18.8601 13.6182 18.8601C13.4909 18.8601 13.4364 18.842 13.3636 18.8057L10.1818 17.1534V20.2764C10.1818 20.349 10.2182 20.4035 10.2909 20.4398L15.8364 23V17.226L13.9818 18.7512L13.9636 18.733ZM24 15.501C24 15.5555 23.9636 15.61 23.9091 15.6463L18.4727 18.4607C18.4545 18.4607 18.4182 18.4788 18.3818 18.4788C18.3455 18.4788 18.2909 18.4788 18.2727 18.4425L16 16.5905L13.7273 18.4425C13.6909 18.4607 13.6545 18.4788 13.6182 18.4788C13.5818 18.4788 13.5636 18.4788 13.5273 18.4607L8.09091 15.6463C8.03636 15.61 8 15.5555 8 15.501C8 15.4466 8.01818 15.3739 8.07273 15.3376L10.0909 13.7216L8.27273 11.9059C8.23636 11.8696 8.21818 11.797 8.21818 11.7425C8.21818 11.688 8.27273 11.6335 8.32727 11.6154L13.9818 9.01889C14.0545 8.98258 14.1273 9.01889 14.1818 9.05521L16 10.8709L17.8182 9.05521C17.8727 9.00074 17.9455 8.98258 18.0182 9.01889L23.6727 11.6154C23.7273 11.6335 23.7636 11.688 23.7818 11.7425C23.7818 11.797 23.7818 11.8696 23.7273 11.9059L21.9091 13.7216L23.9273 15.3376C23.9818 15.3739 24 15.4284 24 15.501ZM21.2182 13.7398L16 11.343L10.7818 13.7398L16 16.1365L21.2182 13.7398Z" fill="url(#paint0_linear_2485_12626)"/>
<path fill-rule="evenodd" clip-rule="evenodd" d="M20.384 27C20.4385 27 20.493 27 20.6021 26.9492C23.6015 25.2712 25.783 23.1864 27.1463 20.7966C28.2371 18.9153 28.7824 16.7797 28.7279 14.5424C28.6733 10.7288 26.9827 7.83051 26.9282 7.72881C26.8191 7.52542 26.601 7.47458 26.4374 7.57627C26.2192 7.67797 26.1647 7.88136 26.2738 8.0339C26.2738 8.08475 27.9098 10.9322 27.9644 14.5932C28.0189 19.4237 25.4012 23.3898 20.1658 26.339C20.0022 26.4407 19.9477 26.6441 20.0567 26.8475C20.1113 26.9492 20.2749 27 20.384 27Z" fill="url(#paint1_linear_2485_12626)"/>
<path fill-rule="evenodd" clip-rule="evenodd" d="M26.601 8.23729C26.8191 8.23729 26.9827 8.08475 26.9827 7.88136C27.1463 6.50847 26.8191 5.33898 26.0011 4.52542C24.6923 3.15254 22.5108 3 22.1291 3C22.02 3 21.9109 3 21.8564 3.05085C21.8019 3.10169 21.7473 3.15254 21.7473 3.20339C21.6928 3.25424 21.6928 3.30508 21.6928 3.35593C21.6928 3.45763 21.7473 3.55932 21.8019 3.61017C22.02 3.86441 22.7835 4.83051 23.0562 5.79661C23.4925 7.16949 25.0195 8.23729 26.4919 8.23729H26.601Z" fill="url(#paint2_linear_2485_12626)"/>
<path fill-rule="evenodd" clip-rule="evenodd" d="M28.0189 12.1525H28.0735C28.128 12.1525 28.1825 12.1525 28.1825 12.1017C29.3823 11.4915 30.1458 10.5763 30.473 9.45763C30.9093 8.0339 30.5275 6.30508 29.4368 4.57627C29.4368 4.52542 29.3823 4.47458 29.3823 4.47458C29.3278 4.37288 29.2187 4.22034 29.0006 4.16949C28.7824 4.16949 28.6733 4.27119 28.5643 4.37288L28.5097 4.42373V4.47458C28.2916 4.67797 27.31 5.84746 27.3645 7.22034L27.419 9.91525C26.5465 8.84746 25.6739 8.28814 24.8013 8.23729C23.547 8.23729 22.8381 9.20339 22.7835 9.25424C22.729 9.40678 22.729 9.55932 22.7835 9.66102C24.256 11.4915 25.5648 12.1017 28.0189 12.1525Z" fill="url(#paint3_linear_2485_12626)"/>
<path fill-rule="evenodd" clip-rule="evenodd" d="M28.1825 17.1864C29.8731 17.0847 31.0184 16.322 31.5637 14.8475C32 13.678 32 12.2542 32 11.0847C32 11.0339 32 10.9831 32 10.9322C32 10.7797 32 10.5254 31.7819 10.4237C31.5637 10.2712 31.3456 10.3729 31.0729 10.5254C30.6366 10.678 30.0913 11.0847 29.4914 11.9492C29.0551 12.5593 28.6733 13.322 28.4007 14.2373C27.9644 13.322 27.3645 12.661 26.601 12.3559C25.4558 11.9492 24.4741 12.3559 24.4196 12.4068C24.256 12.4576 24.1469 12.6102 24.2014 12.8136C24.6923 14.3898 25.5103 16.322 27.8553 17.0339C27.9098 17.1356 28.0189 17.1864 28.1825 17.1864Z" fill="url(#paint4_linear_2485_12626)"/>
<path fill-rule="evenodd" clip-rule="evenodd" d="M26.9827 21.9661C29.6004 21.9661 31.1274 20.7966 31.6728 18.4068C31.6728 18.3051 31.6728 18.2542 31.7273 18.2542C31.7819 17.8983 31.8364 17.6441 31.6183 17.3898C31.4001 17.1864 31.0729 17.1864 30.473 17.2373C29.9277 17.2881 28.6188 17.5424 27.3645 19.1186C27.3645 18.6102 27.2554 18.1017 27.0918 17.6441C26.7101 16.5763 25.9466 16.0169 24.7468 15.9661C24.6377 15.9661 24.5286 16.0169 24.4741 16.0678C24.4196 16.1186 24.365 16.2203 24.365 16.322V17.1356C24.3105 18.8136 24.256 20.7458 26.0011 21.9153C26.0556 21.9661 26.1647 21.9661 26.2192 21.9661C26.2738 21.9661 26.3283 21.9661 26.3829 21.9153C26.601 21.9661 26.8191 21.9661 26.9827 21.9661Z" fill="url(#paint5_linear_2485_12626)"/>
<path fill-rule="evenodd" clip-rule="evenodd" d="M24.3105 26.7458C24.365 26.7458 24.365 26.7458 24.4196 26.7458C26.0556 26.6949 27.7462 25.4237 28.6733 24.1525C28.7279 24.1017 28.7824 24.0508 28.7824 24C28.946 23.7966 29.1096 23.5932 29.0006 23.339C28.8915 23.0339 28.6188 22.9322 28.128 22.8305C26.8737 22.4237 25.3467 23.2373 24.0378 24C24.256 23.5424 24.4196 23.0847 24.5286 22.6271C24.7468 21.5085 24.5832 20.5424 24.0378 19.7797C23.7106 19.3729 23.547 19.1695 23.2743 19.2203C22.9471 19.2203 22.8381 19.4237 22.6744 19.7288C22.1836 20.4915 19.8931 24.3559 22.02 25.678C22.6199 26.3898 23.4379 26.7458 24.3105 26.7458Z" fill="url(#paint6_linear_2485_12626)"/>
<path fill-rule="evenodd" clip-rule="evenodd" d="M11.616 27C11.5615 27 11.507 27 11.3979 26.9492C8.39845 25.2712 6.21704 23.1864 4.85365 20.7966C3.76294 18.9153 3.21759 16.7797 3.27212 14.5424C3.32666 10.7288 5.01726 7.83051 5.07179 7.72881C5.18086 7.52542 5.39901 7.47458 5.56261 7.57627C5.78075 7.67797 5.83529 7.88136 5.72622 8.0339C5.72622 8.08475 4.09016 10.9322 4.03562 14.5932C3.98109 19.4237 6.59879 23.3898 11.8342 26.339C11.9978 26.4407 12.0523 26.6441 11.9433 26.8475C11.8887 26.9492 11.7251 27 11.616 27Z" fill="url(#paint7_linear_2485_12626)"/>
<path fill-rule="evenodd" clip-rule="evenodd" d="M5.39901 8.23729C5.18086 8.23729 5.01726 8.08475 5.01726 7.88136C4.85365 6.50847 5.18086 5.33898 5.9989 4.52542C7.30775 3.15254 9.48916 3 9.87091 3C9.97998 3 10.0891 3 10.1436 3.05085C10.1981 3.10169 10.2527 3.15254 10.2527 3.20339C10.3072 3.25424 10.3072 3.30508 10.3072 3.35593C10.3072 3.45763 10.2527 3.55932 10.1981 3.61017C9.97998 3.86441 9.21648 4.83051 8.94381 5.79661C8.50752 7.16949 6.98053 8.23729 5.50808 8.23729H5.39901Z" fill="url(#paint8_linear_2485_12626)"/>
<path fill-rule="evenodd" clip-rule="evenodd" d="M3.98108 12.1525H3.92655C3.87201 12.1525 3.81748 12.1525 3.81748 12.1017C2.6177 11.4915 1.8542 10.5763 1.52699 9.45763C1.09071 8.0339 1.47246 6.30508 2.56316 4.57627C2.56316 4.52542 2.6177 4.47458 2.6177 4.47458C2.67224 4.37288 2.78131 4.22034 2.99945 4.16949C3.21759 4.16949 3.32666 4.27119 3.43573 4.37288L3.49027 4.42373V4.47458C3.70841 4.67797 4.69005 5.84746 4.63551 7.22034L4.58097 9.91525C5.45354 8.84746 6.32611 8.28814 7.19867 8.23729C8.45299 8.23729 9.16195 9.20339 9.21648 9.25424C9.27102 9.40678 9.27102 9.55932 9.21648 9.66102C7.74403 11.4915 6.43518 12.1017 3.98108 12.1525Z" fill="url(#paint9_linear_2485_12626)"/>
<path fill-rule="evenodd" clip-rule="evenodd" d="M3.81748 17.1864C2.12688 17.0847 0.981637 16.322 0.436283 14.8475C0 13.678 0 12.2542 0 11.0847C0 11.0339 0 10.9831 0 10.9322C0 10.7797 0 10.5254 0.218142 10.4237C0.436283 10.2712 0.654425 10.3729 0.927102 10.5254C1.36339 10.678 1.90874 11.0847 2.50863 11.9492C2.94491 12.5593 3.32666 13.322 3.59934 14.2373C4.03562 13.322 4.63551 12.661 5.39901 12.3559C6.54425 11.9492 7.52589 12.3559 7.58042 12.4068C7.74403 12.4576 7.8531 12.6102 7.79856 12.8136C7.30775 14.3898 6.48971 16.322 4.14469 17.0339C4.09016 17.1356 3.98109 17.1864 3.81748 17.1864Z" fill="url(#paint10_linear_2485_12626)"/>
<path fill-rule="evenodd" clip-rule="evenodd" d="M5.01726 21.9661C2.39956 21.9661 0.872567 20.7966 0.327212 18.4068C0.327212 18.3051 0.327212 18.2542 0.272677 18.2542C0.218142 17.8983 0.163606 17.6441 0.381748 17.3898C0.59989 17.1864 0.927102 17.1864 1.52699 17.2373C2.07235 17.2881 3.3812 17.5424 4.63551 19.1186C4.63551 18.6102 4.74458 18.1017 4.90819 17.6441C5.28993 16.5763 6.05343 16.0169 7.25321 15.9661C7.36228 15.9661 7.47135 16.0169 7.52589 16.0678C7.58042 16.1186 7.63496 16.2203 7.63496 16.322V17.1356C7.68949 18.8136 7.74403 20.7458 5.9989 21.9153C5.94436 21.9661 5.83529 21.9661 5.78075 21.9661C5.72622 21.9661 5.67168 21.9661 5.61715 21.9153C5.39901 21.9661 5.18086 21.9661 5.01726 21.9661Z" fill="url(#paint11_linear_2485_12626)"/>
<path fill-rule="evenodd" clip-rule="evenodd" d="M7.68949 26.7458C7.63496 26.7458 7.63496 26.7458 7.58042 26.7458C5.94436 26.6949 4.25376 25.4237 3.32666 24.1525C3.27213 24.1017 3.21759 24.0508 3.21759 24C3.05398 23.7966 2.89038 23.5932 2.99945 23.339C3.10852 23.0339 3.3812 22.9322 3.87201 22.8305C5.12633 22.4237 6.65332 23.2373 7.96217 24C7.74403 23.5424 7.58042 23.0847 7.47135 22.6271C7.25321 21.5085 7.41682 20.5424 7.96217 19.7797C8.28938 19.3729 8.45299 19.1695 8.72567 19.2203C9.05288 19.2203 9.16195 19.4237 9.32556 19.7288C9.81637 20.4915 12.1069 24.3559 9.97998 25.678C9.38009 26.3898 8.56206 26.7458 7.68949 26.7458Z" fill="url(#paint12_linear_2485_12626)"/>
<defs>
<linearGradient id="paint0_linear_2485_12626" x1="16" y1="9" x2="16" y2="23" gradientUnits="userSpaceOnUse">
<stop stop-color="#FFE500"/>
<stop offset="1" stop-color="#992500"/>
</linearGradient>
<linearGradient id="paint1_linear_2485_12626" x1="26" y1="3" x2="26" y2="27" gradientUnits="userSpaceOnUse">
<stop stop-color="#FFE500"/>
<stop offset="1" stop-color="#992500"/>
</linearGradient>
<linearGradient id="paint2_linear_2485_12626" x1="26" y1="3" x2="26" y2="27" gradientUnits="userSpaceOnUse">
<stop stop-color="#FFE500"/>
<stop offset="1" stop-color="#992500"/>
</linearGradient>
<linearGradient id="paint3_linear_2485_12626" x1="26" y1="3" x2="26" y2="27" gradientUnits="userSpaceOnUse">
<stop stop-color="#FFE500"/>
<stop offset="1" stop-color="#992500"/>
</linearGradient>
<linearGradient id="paint4_linear_2485_12626" x1="26" y1="3" x2="26" y2="27" gradientUnits="userSpaceOnUse">
<stop stop-color="#FFE500"/>
<stop offset="1" stop-color="#992500"/>
</linearGradient>
<linearGradient id="paint5_linear_2485_12626" x1="26" y1="3" x2="26" y2="27" gradientUnits="userSpaceOnUse">
<stop stop-color="#FFE500"/>
<stop offset="1" stop-color="#992500"/>
</linearGradient>
<linearGradient id="paint6_linear_2485_12626" x1="26" y1="3" x2="26" y2="27" gradientUnits="userSpaceOnUse">
<stop stop-color="#FFE500"/>
<stop offset="1" stop-color="#992500"/>
</linearGradient>
<linearGradient id="paint7_linear_2485_12626" x1="6" y1="3" x2="6" y2="27" gradientUnits="userSpaceOnUse">
<stop stop-color="#FFE500"/>
<stop offset="1" stop-color="#992500"/>
</linearGradient>
<linearGradient id="paint8_linear_2485_12626" x1="6" y1="3" x2="6" y2="27" gradientUnits="userSpaceOnUse">
<stop stop-color="#FFE500"/>
<stop offset="1" stop-color="#992500"/>
</linearGradient>
<linearGradient id="paint9_linear_2485_12626" x1="6" y1="3" x2="6" y2="27" gradientUnits="userSpaceOnUse">
<stop stop-color="#FFE500"/>
<stop offset="1" stop-color="#992500"/>
</linearGradient>
<linearGradient id="paint10_linear_2485_12626" x1="6" y1="3" x2="6" y2="27" gradientUnits="userSpaceOnUse">
<stop stop-color="#FFE500"/>
<stop offset="1" stop-color="#992500"/>
</linearGradient>
<linearGradient id="paint11_linear_2485_12626" x1="6" y1="3" x2="6" y2="27" gradientUnits="userSpaceOnUse">
<stop stop-color="#FFE500"/>
<stop offset="1" stop-color="#992500"/>
</linearGradient>
<linearGradient id="paint12_linear_2485_12626" x1="6" y1="3" x2="6" y2="27" gradientUnits="userSpaceOnUse">
<stop stop-color="#FFE500"/>
<stop offset="1" stop-color="#992500"/>
</linearGradient>
</defs>
</svg>
