<svg width="36" height="51" viewBox="0 0 36 51" fill="none" xmlns="http://www.w3.org/2000/svg">
<g filter="url(#filter0_d_4762_5774)">
<path d="M29.2658 39.2446C27.8881 39.0207 26.5394 38.6276 25.247 38.0731C26.4627 36.7031 27.1351 34.8878 27.1243 33.0045C27.1136 31.1212 26.4205 29.3147 25.1893 27.9605C23.9606 29.2244 23.2175 30.9286 23.1045 32.7422C22.9914 34.5558 23.5164 36.3493 24.5775 37.7745C22.9727 37.0103 21.4813 36.0016 20.1503 34.7801C19.3018 33.9971 18.5231 33.1327 17.8238 32.1979C19.3481 31.4175 20.5493 30.0685 21.1985 28.4076C21.8478 26.7466 21.8997 24.8899 21.3445 23.1909C19.9179 23.72 18.6943 24.7328 17.8621 26.0733C17.0298 27.4139 16.6349 29.008 16.7381 30.6105C15.3607 28.3396 14.4542 25.7828 14.079 23.1103C15.7972 22.7504 17.3219 21.7083 18.3431 20.196C19.3643 18.6837 19.8053 16.8146 19.5764 14.9689C18.2628 15.155 17.0277 15.7399 16.0189 16.6534C15.0102 17.567 14.2708 18.7705 13.8894 20.1196C13.8997 18.7717 14.0424 17.4285 14.3151 16.1121C15.5711 14.9486 16.3883 13.3409 16.6155 11.5864C16.8426 9.83191 16.4644 8.0493 15.5507 6.56836C14.288 7.45306 13.334 8.75462 12.8358 10.2725C12.3375 11.7904 12.3226 13.4403 12.7934 14.968C12.5334 16.0537 12.3536 17.1593 12.2557 18.2748C11.7557 16.9365 10.8959 15.7845 9.78361 14.9626C8.67136 14.1407 7.35598 13.6854 6.00175 13.6536C5.9628 15.492 6.57549 17.2788 7.71819 18.6594C8.8609 20.0399 10.4501 20.9133 12.1704 21.1061C12.2523 23.3771 12.683 25.6185 13.4457 27.7416C12.6391 26.6253 11.5471 25.7797 10.3004 25.3057C9.05366 24.8317 7.7049 24.7494 6.41535 25.0687C6.83108 26.9583 7.93493 28.5955 9.48471 29.621C11.0345 30.6465 12.9037 30.9767 14.6821 30.539C15.365 31.8261 16.1737 33.0331 17.0948 34.1398C15.9217 33.6559 14.6464 33.5226 13.4071 33.7543C12.1678 33.986 11.0119 34.5739 10.0645 35.4543C11.2107 36.8437 12.8084 37.7215 14.5376 37.9118C16.2668 38.102 17.9998 37.5907 19.3894 36.4802C20.66 37.5956 22.0563 38.5384 23.5461 39.2868C22.0742 39.2179 20.6204 39.6522 19.3976 40.5259C18.1749 41.3996 17.2477 42.6667 16.7519 44.1416C18.4081 44.7706 20.228 44.7022 21.8383 43.9504C23.4487 43.1986 24.7274 41.8204 25.4124 40.0984C26.5801 40.5387 27.7843 40.8607 29.009 41.0602C29.0518 41.0674 29.095 41.0711 29.1383 41.0711C29.3557 41.0712 29.5652 40.9838 29.7246 40.8265C29.8839 40.6692 29.9815 40.4537 29.9976 40.2231C30.0138 39.9926 29.9473 39.7641 29.8116 39.5834C29.6758 39.4028 29.4809 39.2834 29.2658 39.2492V39.2446Z" fill="#697688"/>
<path d="M9.76063 29.204C8.45907 28.3428 7.49025 27.0112 7.03024 25.4533C8.06711 25.2871 9.12943 25.3954 10.1227 25.773C11.2751 26.2112 12.289 26.9946 13.0404 28.0344L13.9162 27.5726C13.1712 25.4984 12.7501 23.3079 12.6701 21.0881L12.6545 20.6573L12.2261 20.6092C10.6395 20.4314 9.16671 19.6252 8.10337 18.3405C7.14773 17.186 6.58721 15.722 6.50937 14.1883C7.57408 14.3064 8.59875 14.7088 9.48647 15.3647C10.5182 16.1271 11.32 17.199 11.7873 18.4498L12.7538 18.3185C12.8496 17.2275 13.0254 16.1462 13.2796 15.0845L13.3115 14.9515L13.2712 14.8208C12.8309 13.3919 12.8449 11.8479 13.3108 10.4284C13.7165 9.19272 14.4437 8.11487 15.3978 7.31528C16.0512 8.59315 16.308 10.0671 16.1196 11.5222C15.907 13.1649 15.1425 14.6642 13.9753 15.7453L13.8579 15.854L13.8255 16.0107C13.5461 17.3593 13.4 18.7351 13.3894 20.1158L14.3706 20.2556C14.7273 18.994 15.4176 17.8726 16.3546 17.024C17.156 16.2982 18.1088 15.798 19.1263 15.5612C19.2042 17.1128 18.7834 18.6504 17.9287 19.9162C16.9771 21.3255 15.5619 22.2888 13.9765 22.6209L13.5188 22.7168L13.5838 23.1798C13.9683 25.9184 14.8974 28.5399 16.3106 30.8698L17.237 30.5783C17.1404 29.0779 17.5105 27.5875 18.2868 26.3371C18.963 25.2479 19.9133 24.3954 21.0188 23.8705C21.3713 25.3118 21.2736 26.842 20.7328 28.2255C20.1261 29.7778 19.0067 31.0306 17.5959 31.7528L17.0684 32.0229L17.4234 32.4974C18.1408 33.4564 18.94 34.3436 19.8112 35.1475L19.8122 35.1485C21.1793 36.4031 22.7121 37.44 24.3625 38.2259L24.9785 37.4759C23.9898 36.1479 23.4976 34.4718 23.6035 32.7733C23.6974 31.2674 24.2549 29.8464 25.1766 28.7243C26.0991 29.926 26.6154 31.4361 26.6244 33.0074C26.6344 34.7712 26.0044 36.4663 24.873 37.7412L24.4131 38.2594L25.0499 38.5326C26.248 39.0466 27.4934 39.426 28.7658 39.6647V39.676L29.1873 39.743C29.269 39.756 29.3508 39.8026 29.4118 39.8838C29.4735 39.9659 29.5068 40.0747 29.4988 40.1882C29.4909 40.3016 29.4431 40.4017 29.3734 40.4706C29.3046 40.5384 29.2204 40.571 29.1389 40.5711C29.1235 40.5711 29.1081 40.5698 29.0928 40.5672L29.0894 40.5667C27.8977 40.3726 26.7256 40.0592 25.5889 39.6305L25.1294 39.4572L24.9478 39.9136C24.3077 41.5228 23.1163 42.802 21.6268 43.4973C20.2904 44.1213 18.7998 44.2356 17.4021 43.8319C17.8925 42.6549 18.6852 41.6495 19.6883 40.9327C20.8217 40.1229 22.1654 39.7228 23.5227 39.7862L23.7705 38.84C22.3193 38.1109 20.9583 37.1922 19.7193 36.1044L19.4045 35.8281L19.0773 36.0896C17.7884 37.1195 16.1867 37.5902 14.5923 37.4148C13.1536 37.2565 11.8077 36.5816 10.7749 35.5017C11.5779 34.8609 12.5111 34.4305 13.499 34.2458C14.6426 34.032 15.8198 34.1548 16.9041 34.602L17.4791 33.82C16.5803 32.74 15.7908 31.5618 15.1238 30.3047L14.9411 29.9604L14.5627 30.0535C12.922 30.4573 11.1959 30.1538 9.76063 29.204Z" stroke="#7888A0"/>
</g>
<defs>
<filter id="filter0_d_4762_5774" x="0" y="0.568359" width="36" height="50" filterUnits="userSpaceOnUse" color-interpolation-filters="sRGB">
<feFlood flood-opacity="0" result="BackgroundImageFix"/>
<feColorMatrix in="SourceAlpha" type="matrix" values="0 0 0 0 0 0 0 0 0 0 0 0 0 0 0 0 0 0 127 0" result="hardAlpha"/>
<feOffset/>
<feGaussianBlur stdDeviation="3"/>
<feComposite in2="hardAlpha" operator="out"/>
<feColorMatrix type="matrix" values="0 0 0 0 0.411765 0 0 0 0 0.462745 0 0 0 0 0.533333 0 0 0 0.35 0"/>
<feBlend mode="normal" in2="BackgroundImageFix" result="effect1_dropShadow_4762_5774"/>
<feBlend mode="normal" in="SourceGraphic" in2="effect1_dropShadow_4762_5774" result="shape"/>
</filter>
</defs>
</svg>
