<svg width="30" height="40" viewBox="0 0 30 40" fill="none" xmlns="http://www.w3.org/2000/svg">
<g filter="url(#filter0_d_4762_5857)">
<path d="M23.4493 30.0773C22.4161 29.9123 21.4046 29.6226 20.4352 29.214C21.347 28.2046 21.8513 26.867 21.8433 25.4793C21.8352 24.0915 21.3154 22.7604 20.3919 21.7626C19.4704 22.6939 18.9131 23.9496 18.8284 25.286C18.7436 26.6223 19.1373 27.9438 19.9331 28.994C18.7295 28.4309 17.611 27.6876 16.6127 26.7876C15.9764 26.2107 15.3923 25.5737 14.8678 24.8849C16.0111 24.3099 16.912 23.3159 17.3989 22.092C17.8858 20.8682 17.9248 19.5001 17.5084 18.2482C16.4384 18.6381 15.5208 19.3843 14.8965 20.3721C14.2723 21.3599 13.9761 22.5345 14.0536 23.7152C13.0205 22.0419 12.3406 20.158 12.0592 18.1888C13.3479 17.9236 14.4914 17.1558 15.2573 16.0414C16.0232 14.9271 16.354 13.5499 16.1823 12.1899C15.1971 12.327 14.2707 12.7579 13.5142 13.4311C12.7577 14.1043 12.2031 14.991 11.9171 15.9851C11.9248 14.9919 12.0318 14.0022 12.2363 13.0322C13.1784 12.1749 13.7913 10.9903 13.9616 9.69752C14.132 8.40472 13.8483 7.09122 13.163 6C12.216 6.65189 11.5005 7.61093 11.1268 8.72936C10.7531 9.84778 10.742 11.0635 11.095 12.1892C10.9 12.9892 10.7652 13.8039 10.6918 14.6258C10.3168 13.6397 9.6719 12.7908 8.83771 12.1852C8.00352 11.5797 7.01698 11.2442 6.00131 11.2207C5.9721 12.5753 6.43161 13.8919 7.28865 14.9092C8.14568 15.9264 9.33758 16.5699 10.6278 16.712C10.6892 18.3854 11.0123 20.0369 11.5842 21.6013C10.9793 20.7788 10.1603 20.1557 9.22529 19.8064C8.29025 19.4572 7.27867 19.3966 6.31151 19.6318C6.62331 21.0242 7.4512 22.2305 8.61353 22.9862C9.77587 23.7418 11.1777 23.9851 12.5116 23.6626C13.0238 24.611 13.6303 25.5003 14.3211 26.3158C13.4413 25.9593 12.4848 25.861 11.5553 26.0318C10.6259 26.2025 9.7589 26.6357 9.04837 27.2844C9.90802 28.3082 11.1063 28.955 12.4032 29.0951C13.7001 29.2353 14.9999 28.8585 16.0421 28.0403C16.995 28.8622 18.0422 29.5569 19.1596 30.1083C18.0557 30.0576 16.9653 30.3776 16.0482 31.0213C15.1312 31.6651 14.4357 32.5988 14.0639 33.6855C15.3061 34.149 16.671 34.0986 17.8787 33.5447C19.0865 32.9907 20.0456 31.9752 20.5593 30.7063C21.4351 31.0308 22.3382 31.268 23.2568 31.415C23.2888 31.4204 23.3212 31.4231 23.3537 31.4231C23.5168 31.4231 23.6739 31.3587 23.7934 31.2428C23.913 31.1269 23.9861 30.9681 23.9982 30.7982C24.0103 30.6284 23.9605 30.46 23.8587 30.3269C23.7569 30.1938 23.6107 30.1058 23.4493 30.0806V30.0773Z" fill="#4A4A68"/>
<path d="M14.7286 33.3687C15.0899 32.5854 15.6443 31.9158 16.3355 31.4306C17.1633 30.8494 18.1449 30.5622 19.1366 30.6078L19.3808 29.6599C18.3018 29.1274 17.2898 28.4562 16.3686 27.6617L16.057 27.3929L15.7333 27.647C14.7919 28.3861 13.6218 28.7239 12.457 28.598C11.4555 28.4898 10.5158 28.045 9.77687 27.333C10.3353 26.9238 10.9731 26.6471 11.6457 26.5235C12.4812 26.3701 13.3412 26.4582 14.1333 26.7792L14.7026 25.9926C14.0344 25.2038 13.4474 24.3432 12.9516 23.425L12.7685 23.0861L12.3941 23.1766C11.1955 23.4664 9.93445 23.2485 8.88606 22.567C7.97792 21.9766 7.2916 21.0783 6.93915 20.0246C7.64938 19.937 8.37192 20.0214 9.05034 20.2748C9.89214 20.5893 10.6327 21.1515 11.1815 21.8976L12.0538 21.4296C11.5 19.9147 11.1869 18.3149 11.1275 16.6937L11.1116 16.2623L10.6825 16.215C9.5234 16.0874 8.44762 15.5088 7.67103 14.587C7.00628 13.798 6.60329 12.8075 6.51734 11.7642C7.24192 11.8678 7.93684 12.1491 8.54397 12.5899C9.29752 13.1369 9.88313 13.9061 10.2244 14.8035L11.1898 14.6703C11.261 13.8732 11.3918 13.0833 11.5808 12.3076L11.6138 12.1724L11.5721 12.0396C11.2505 11.0143 11.2607 9.90635 11.6011 8.88781C11.8806 8.05128 12.3691 7.31558 13.0087 6.75322C13.434 7.63701 13.5966 8.64071 13.4659 9.63219C13.3106 10.8109 12.7522 11.8867 11.8998 12.6624L11.7804 12.7711L11.7471 12.9291C11.5356 13.9318 11.425 14.9547 11.4171 15.9812L12.3976 16.1234C12.6581 15.2181 13.1623 14.4135 13.8466 13.8046C14.3935 13.318 15.037 12.9726 15.7256 12.7908C15.7471 13.8503 15.44 14.8928 14.8452 15.7582C14.1503 16.7694 13.1167 17.4607 11.9585 17.6991L11.4977 17.7939L11.5643 18.2595C11.8553 20.296 12.5585 22.2454 13.6281 23.9779L14.5525 23.6825C14.4819 22.6058 14.7522 21.5364 15.3192 20.6392C15.7851 19.9019 16.4293 19.3156 17.1788 18.9354C17.3928 19.9243 17.3099 20.9633 16.9343 21.9072C16.4912 23.021 15.6737 23.92 14.6432 24.4382L14.1053 24.7088L14.47 25.1878C15.0129 25.9008 15.6177 26.5603 16.2768 27.158L16.2779 27.1589C17.2795 28.062 18.3986 28.8133 19.6021 29.3904L19.5923 29.4013L20.241 29.6748C21.1152 30.0432 22.0226 30.3186 22.9493 30.4969V30.5086L23.3722 30.5747C23.4026 30.5794 23.4356 30.5968 23.4615 30.6307C23.4879 30.6651 23.5031 30.7123 23.4995 30.7627C23.4959 30.813 23.4744 30.8557 23.4454 30.8838C23.4171 30.9112 23.3843 30.923 23.3543 30.9231C23.3493 30.9231 23.3442 30.9227 23.3391 30.9218L23.3358 30.9213C22.4497 30.7795 21.5782 30.5506 20.733 30.2375L20.278 30.0689L20.0959 30.5187C19.6284 31.6733 18.7583 32.5912 17.6703 33.0902C16.74 33.5169 15.7073 33.6115 14.7286 33.3687ZM19.3274 25.3176C19.3926 24.2901 19.764 23.3176 20.3792 22.5323C20.9944 23.3734 21.337 24.4078 21.3433 25.4822C21.35 26.633 20.9701 27.743 20.28 28.6226C19.5924 27.6811 19.2519 26.507 19.3274 25.3176Z" stroke="#58587B"/>
</g>
<defs>
<filter id="filter0_d_4762_5857" x="0" y="0" width="30" height="40" filterUnits="userSpaceOnUse" color-interpolation-filters="sRGB">
<feFlood flood-opacity="0" result="BackgroundImageFix"/>
<feColorMatrix in="SourceAlpha" type="matrix" values="0 0 0 0 0 0 0 0 0 0 0 0 0 0 0 0 0 0 127 0" result="hardAlpha"/>
<feOffset/>
<feGaussianBlur stdDeviation="3"/>
<feComposite in2="hardAlpha" operator="out"/>
<feColorMatrix type="matrix" values="0 0 0 0 0.290196 0 0 0 0 0.290196 0 0 0 0 0.407843 0 0 0 0.35 0"/>
<feBlend mode="normal" in2="BackgroundImageFix" result="effect1_dropShadow_4762_5857"/>
<feBlend mode="normal" in="SourceGraphic" in2="effect1_dropShadow_4762_5857" result="shape"/>
</filter>
</defs>
</svg>
