<svg width="24" height="24" viewBox="0 0 24 24" xmlns="http://www.w3.org/2000/svg">
<path d="M14.3303 7.46139L16.3274 4.20602C17.1797 2.81683 19.1063 2.58929 20.2588 3.74173C21.4112 4.89417 21.1837 6.82081 19.7945 7.67307L16.5391 9.67023C16.2636 9.83927 16.2184 10.2214 16.447 10.45L17.5846 11.5875C18.3656 12.3686 18.3656 13.6349 17.5846 14.4159L16.8523 15.1482C16.6571 15.3434 16.3405 15.3434 16.1452 15.1482L8.85232 7.85528C8.65705 7.66002 8.65705 7.34344 8.85231 7.14817L9.58455 6.41594C10.3656 5.63489 11.6319 5.63489 12.413 6.41594L13.5505 7.55348C13.7791 7.78205 14.1612 7.73692 14.3303 7.46139Z"/>
<path d="M7.35233 9.35542L14.6452 16.6483C14.8405 16.8436 14.8405 17.1602 14.6452 17.3554L11.8801 20.1204C10.7085 21.2919 8.80907 21.2919 7.63752 20.1204L3.88017 16.3632C2.70856 15.1916 2.70855 13.2921 3.88015 12.1205L6.64522 9.35542C6.84048 9.16015 7.15707 9.16015 7.35233 9.35542Z"/>
</svg>
