<svg width="22" height="16" viewBox="0 0 22 16" xmlns="http://www.w3.org/2000/svg">
<path d="M22 4.36364V1.45455C21.9996 1.06891 21.8449 0.699198 21.5699 0.426513C21.295 0.153829 20.9222 0.000440794 20.5333 0H1.46667C1.07782 0.000440794 0.705025 0.153829 0.430068 0.426513C0.155111 0.699198 0.000444468 1.06891 0 1.45455V4.36364H22Z"/>
<path d="M0 5.81818V14.5455C0.000444468 14.9311 0.155111 15.3008 0.430068 15.5735C0.705025 15.8462 1.07782 15.9996 1.46667 16H20.5333C20.9222 15.9996 21.295 15.8462 21.5699 15.5735C21.8449 15.3008 21.9996 14.9311 22 14.5455V5.81818H0ZM4.4 8.72727H7.33333C7.52783 8.72727 7.71435 8.8039 7.85188 8.94029C7.9894 9.07668 8.06667 9.26166 8.06667 9.45455C8.06667 9.64743 7.9894 9.83242 7.85188 9.96881C7.71435 10.1052 7.52783 10.1818 7.33333 10.1818H4.4C4.20551 10.1818 4.01898 10.1052 3.88146 9.96881C3.74393 9.83242 3.66667 9.64743 3.66667 9.45455C3.66667 9.26166 3.74393 9.07668 3.88146 8.94029C4.01898 8.8039 4.20551 8.72727 4.4 8.72727ZM8.8 13.0909H4.4C4.20551 13.0909 4.01898 13.0143 3.88146 12.8779C3.74393 12.7415 3.66667 12.5565 3.66667 12.3636C3.66667 12.1708 3.74393 11.9858 3.88146 11.8494C4.01898 11.713 4.20551 11.6364 4.4 11.6364H8.8C8.99449 11.6364 9.18102 11.713 9.31854 11.8494C9.45607 11.9858 9.53333 12.1708 9.53333 12.3636C9.53333 12.5565 9.45607 12.7415 9.31854 12.8779C9.18102 13.0143 8.99449 13.0909 8.8 13.0909Z"/>
</svg>
