<svg width="24" height="24" viewBox="0 0 24 24" fill="none" xmlns="http://www.w3.org/2000/svg">
<path d="M23 8.36364V5.45455C22.9996 5.06891 22.8449 4.6992 22.5699 4.42651C22.295 4.15383 21.9222 4.00044 21.5333 4H2.46667C2.07782 4.00044 1.70502 4.15383 1.43007 4.42651C1.15511 4.6992 1.00044 5.06891 1 5.45455V8.36364H23Z" fill="black"/>
<path d="M23 8.36364V5.45455C22.9996 5.06891 22.8449 4.6992 22.5699 4.42651C22.295 4.15383 21.9222 4.00044 21.5333 4H2.46667C2.07782 4.00044 1.70502 4.15383 1.43007 4.42651C1.15511 4.6992 1.00044 5.06891 1 5.45455V8.36364H23Z" fill="#DDC916"/>
<path d="M1 9.81818V18.5455C1.00044 18.9311 1.15511 19.3008 1.43007 19.5735C1.70502 19.8462 2.07782 19.9996 2.46667 20H21.5333C21.9222 19.9996 22.295 19.8462 22.5699 19.5735C22.8449 19.3008 22.9996 18.9311 23 18.5455V9.81818H1ZM5.4 12.7273H8.33333C8.52783 12.7273 8.71435 12.8039 8.85188 12.9403C8.9894 13.0767 9.06667 13.2617 9.06667 13.4545C9.06667 13.6474 8.9894 13.8324 8.85188 13.9688C8.71435 14.1052 8.52783 14.1818 8.33333 14.1818H5.4C5.20551 14.1818 5.01898 14.1052 4.88146 13.9688C4.74393 13.8324 4.66667 13.6474 4.66667 13.4545C4.66667 13.2617 4.74393 13.0767 4.88146 12.9403C5.01898 12.8039 5.20551 12.7273 5.4 12.7273ZM9.8 17.0909H5.4C5.20551 17.0909 5.01898 17.0143 4.88146 16.8779C4.74393 16.7415 4.66667 16.5565 4.66667 16.3636C4.66667 16.1708 4.74393 15.9858 4.88146 15.8494C5.01898 15.713 5.20551 15.6364 5.4 15.6364H9.8C9.99449 15.6364 10.181 15.713 10.3185 15.8494C10.4561 15.9858 10.5333 16.1708 10.5333 16.3636C10.5333 16.5565 10.4561 16.7415 10.3185 16.8779C10.181 17.0143 9.99449 17.0909 9.8 17.0909Z" fill="black"/>
<path d="M1 9.81818V18.5455C1.00044 18.9311 1.15511 19.3008 1.43007 19.5735C1.70502 19.8462 2.07782 19.9996 2.46667 20H21.5333C21.9222 19.9996 22.295 19.8462 22.5699 19.5735C22.8449 19.3008 22.9996 18.9311 23 18.5455V9.81818H1ZM5.4 12.7273H8.33333C8.52783 12.7273 8.71435 12.8039 8.85188 12.9403C8.9894 13.0767 9.06667 13.2617 9.06667 13.4545C9.06667 13.6474 8.9894 13.8324 8.85188 13.9688C8.71435 14.1052 8.52783 14.1818 8.33333 14.1818H5.4C5.20551 14.1818 5.01898 14.1052 4.88146 13.9688C4.74393 13.8324 4.66667 13.6474 4.66667 13.4545C4.66667 13.2617 4.74393 13.0767 4.88146 12.9403C5.01898 12.8039 5.20551 12.7273 5.4 12.7273ZM9.8 17.0909H5.4C5.20551 17.0909 5.01898 17.0143 4.88146 16.8779C4.74393 16.7415 4.66667 16.5565 4.66667 16.3636C4.66667 16.1708 4.74393 15.9858 4.88146 15.8494C5.01898 15.713 5.20551 15.6364 5.4 15.6364H9.8C9.99449 15.6364 10.181 15.713 10.3185 15.8494C10.4561 15.9858 10.5333 16.1708 10.5333 16.3636C10.5333 16.5565 10.4561 16.7415 10.3185 16.8779C10.181 17.0143 9.99449 17.0909 9.8 17.0909Z" fill="#DDC916"/>
<path fill-rule="evenodd" clip-rule="evenodd" d="M22 5.4557C21.9999 5.33757 21.9526 5.22263 21.8658 5.13655C21.7788 5.05029 21.6592 5.00025 21.5326 5H2.46738C2.34085 5.00025 2.22121 5.05029 2.13423 5.13655C2.04754 5.22253 2.00024 5.3373 2 5.45529V7.36364H22V5.4557ZM23 5.45455C22.9996 5.06891 22.8449 4.6992 22.5699 4.42651C22.295 4.15383 21.9222 4.00044 21.5333 4H2.46667C2.07782 4.00044 1.70502 4.15383 1.43007 4.42651C1.15511 4.6992 1.00044 5.06891 1 5.45455V8.36364H23V5.45455ZM2 18.5447C2.00024 18.6627 2.04754 18.7775 2.13423 18.8635C2.22118 18.9497 2.34076 18.9997 2.46724 19C2.46743 19 2.46706 19 2.46724 19L21.5322 19C21.5324 19 21.532 19 21.5322 19C21.6587 18.9997 21.7788 18.9497 21.8658 18.8635C21.9526 18.7774 21.9999 18.6624 22 18.5443V10.8182H2V18.5447ZM23 9.81818V18.5455C22.9996 18.9311 22.8449 19.3008 22.5699 19.5735C22.295 19.8462 21.9222 19.9996 21.5333 20H2.46667C2.07782 19.9996 1.70502 19.8462 1.43007 19.5735C1.15511 19.3008 1.00044 18.9311 1 18.5455V9.81818H23ZM5.4 11.7273H8.33333C8.79037 11.7273 9.23035 11.9073 9.55604 12.2303C9.88201 12.5535 10.0667 12.9938 10.0667 13.4545C10.0667 13.8955 9.8976 14.3175 9.59743 14.6364H9.8C10.257 14.6364 10.697 14.8163 11.0227 15.1393C11.3487 15.4626 11.5333 15.9028 11.5333 16.3636C11.5333 16.8244 11.3487 17.2647 11.0227 17.5879C10.697 17.9109 10.257 18.0909 9.8 18.0909H5.4C4.94296 18.0909 4.50298 17.9109 4.17729 17.5879C3.85132 17.2647 3.66667 16.8244 3.66667 16.3636C3.66667 15.9028 3.85132 15.4626 4.17729 15.1393C4.26551 15.0519 4.36211 14.9749 4.46516 14.9091C4.36211 14.8433 4.26551 14.7663 4.17729 14.6788C3.85132 14.3556 3.66667 13.9153 3.66667 13.4545C3.66667 12.9938 3.85132 12.5535 4.17729 12.2303C4.50298 11.9073 4.94296 11.7273 5.4 11.7273ZM8.33333 12.7273H5.4C5.20551 12.7273 5.01898 12.8039 4.88146 12.9403C4.74393 13.0767 4.66667 13.2617 4.66667 13.4545C4.66667 13.6474 4.74393 13.8324 4.88146 13.9688C5.01898 14.1052 5.20551 14.1818 5.4 14.1818H8.33333C8.52783 14.1818 8.71435 14.1052 8.85188 13.9688C8.9894 13.8324 9.06667 13.6474 9.06667 13.4545C9.06667 13.2617 8.9894 13.0767 8.85188 12.9403C8.71435 12.8039 8.52783 12.7273 8.33333 12.7273ZM5.4 17.0909H9.8C9.99449 17.0909 10.181 17.0143 10.3185 16.8779C10.4561 16.7415 10.5333 16.5565 10.5333 16.3636C10.5333 16.1708 10.4561 15.9858 10.3185 15.8494C10.181 15.713 9.99449 15.6364 9.8 15.6364H5.4C5.20551 15.6364 5.01898 15.713 4.88146 15.8494C4.74393 15.9858 4.66667 16.1708 4.66667 16.3636C4.66667 16.5565 4.74393 16.7415 4.88146 16.8779C5.01898 17.0143 5.20551 17.0909 5.4 17.0909Z" fill="#FFE500"/>
</svg>
