<svg width="25" height="24" viewBox="0 0 25 24" fill="none" xmlns="http://www.w3.org/2000/svg">
<path fill-rule="evenodd" clip-rule="evenodd" d="M13.2482 2.07783C12.7553 1.97406 12.2447 1.97406 11.7518 2.07783C11.1926 2.19555 10.6819 2.48956 9.9429 2.91504L4.9131 5.80819C4.21287 6.21061 3.72884 6.48879 3.36875 6.88137C3.26078 6.99909 3.16184 7.12365 3.07252 7.25406L7.18451 9.58345L16.8474 3.94482L15.0571 2.91504C14.3181 2.48956 13.8074 2.19555 13.2482 2.07783ZM8.54622 10.3548L12.4999 12.5946L21.9274 7.25401C21.8381 7.12362 21.7392 6.99908 21.6312 6.88137C21.2711 6.48879 20.7872 6.2106 20.0869 5.80818L18.1988 4.72219L8.54622 10.3548ZM22.4404 8.51717L13.1976 13.7531V22C13.2145 21.9967 13.2314 21.9933 13.2482 21.9897C13.8074 21.872 14.3181 21.578 15.057 21.1525L20.0869 18.2594C20.7872 17.857 21.2711 17.5788 21.6312 17.1862C21.9488 16.84 22.1883 16.4345 22.3346 15.9953C22.5005 15.4973 22.5003 14.9563 22.5 14.1737V9.89398C22.5002 9.33633 22.5003 8.90132 22.4404 8.51717ZM11.8023 22V13.7531L2.55955 8.51723C2.49963 8.90137 2.4998 9.33634 2.50003 9.89398V14.1736C2.49971 14.9563 2.4995 15.4973 2.66538 15.9953C2.8117 16.4345 3.05117 16.84 3.36875 17.1862C3.72884 17.5788 4.21288 17.857 4.91311 18.2594L9.94289 21.1525C10.6819 21.578 11.1926 21.872 11.7518 21.9897C11.7686 21.9933 11.7854 21.9967 11.8023 22Z" fill="#074ACB"/>
<path fill-rule="evenodd" clip-rule="evenodd" d="M10.4417 3.78176L5.41148 6.67515C5.1456 6.82795 4.93255 6.95184 4.75799 7.05955L7.17712 8.42995L14.8526 3.95106L14.5582 3.78168C13.7775 3.33221 13.4141 3.13467 13.0422 3.05638C12.6851 2.98121 12.3148 2.98121 11.9578 3.05638C11.5859 3.13467 11.2224 3.3323 10.4417 3.78176ZM16.8474 3.94482L7.18451 9.58345L3.07252 7.25406C3.16184 7.12365 3.26078 6.99909 3.36875 6.88137C3.49202 6.74698 3.62982 6.62599 3.78584 6.50884C4.08558 6.28377 4.45259 6.07285 4.9131 5.80819L9.9429 2.91504C10.6819 2.48956 11.1926 2.19555 11.7518 2.07783C12.2447 1.97406 12.7553 1.97406 13.2482 2.07783C13.8074 2.19555 14.3181 2.48956 15.0571 2.91504L16.8474 3.94482ZM2.50018 9.6329C2.50132 9.19706 2.50931 8.83928 2.55955 8.51723L11.8023 13.7531V22C11.7854 21.9967 11.7686 21.9933 11.7518 21.9897C11.4364 21.9234 11.1365 21.8009 10.8023 21.6304C10.5439 21.4986 10.2651 21.338 9.94289 21.1525L4.91311 18.2594C4.21288 17.857 3.72884 17.5788 3.36875 17.1862C3.05117 16.84 2.8117 16.4345 2.66538 15.9953C2.4995 15.4973 2.49971 14.9563 2.50003 14.1736V9.89398C2.49999 9.80388 2.49996 9.7169 2.50018 9.6329ZM3.50005 10.1993L3.50003 14.1738C3.49969 15.0057 3.51011 15.367 3.61412 15.6792M3.50005 10.1993L10.8023 14.3359V20.4919C10.6926 20.43 10.5732 20.3615 10.4419 20.286C10.442 20.286 10.4419 20.2859 10.4419 20.286L5.41142 17.3924C5.41153 17.3925 5.41131 17.3924 5.41142 17.3924C4.66929 16.9659 4.3394 16.7651 4.10575 16.5103C3.88191 16.2663 3.71529 15.9829 3.61412 15.6792M14.1976 21.6304C14.456 21.4986 14.7348 21.3381 15.057 21.1525L20.0869 18.2594C20.7872 17.857 21.2711 17.5788 21.6312 17.1862C21.9488 16.84 22.1883 16.4345 22.3346 15.9953C22.5004 15.4976 22.5003 14.9569 22.5 14.1749V9.8928C22.5 9.80307 22.5 9.71652 22.4998 9.63285C22.4987 9.19701 22.4907 8.83922 22.4404 8.51717L13.1976 13.7531V22C13.2062 21.9983 13.2148 21.9966 13.2233 21.9949C13.2316 21.9932 13.2399 21.9915 13.2482 21.9897C13.5636 21.9234 13.8635 21.8009 14.1976 21.6304ZM14.1976 20.4919V14.3359L21.5 10.1992V14.1737C21.5003 15.0056 21.4899 15.367 21.3859 15.6791C21.2847 15.9828 21.1182 16.2662 20.8943 16.5102C20.6607 16.765 20.331 16.9657 19.5889 17.3922C19.589 17.3922 19.5888 17.3923 19.5889 17.3922L14.5582 20.2858C14.4269 20.3614 14.3073 20.43 14.1976 20.4919ZM12.4999 12.5946L21.9274 7.25401C21.8381 7.12362 21.7392 6.99908 21.6312 6.88137C21.508 6.74696 21.3701 6.62596 21.2141 6.50879C20.9144 6.28374 20.5474 6.07282 20.0869 5.80818L18.1988 4.72219L8.54622 10.3548L12.4999 12.5946ZM10.5523 10.342L12.4999 11.4453L20.242 7.0595C20.0674 6.9518 19.8545 6.82799 19.5886 6.67521L18.2024 5.87789L10.5523 10.342Z" fill="#1161FA"/>
</svg>
