<svg width="24" height="24" viewBox="0 0 24 24" fill="none" xmlns="http://www.w3.org/2000/svg">
<path fill-rule="evenodd" clip-rule="evenodd" d="M12.7482 2.07783C12.2553 1.97406 11.7447 1.97406 11.2518 2.07783C10.6926 2.19555 10.1819 2.48956 9.4429 2.91504L9.34377 2.97209L4.5066 5.75444L4.4131 5.80819C3.71287 6.21061 3.22884 6.48879 2.86875 6.88137C2.76078 6.99909 2.66184 7.12365 2.57252 7.25406L6.68451 9.58345L16.3474 3.94482L14.6562 2.97209L14.5571 2.91504C13.8181 2.48956 13.3074 2.19555 12.7482 2.07783ZM8.04622 10.3548L11.9999 12.5946L21.4274 7.25401C21.3381 7.12362 21.2392 6.99908 21.1312 6.88137C20.7711 6.48878 20.2872 6.2106 19.5869 5.80818L19.4934 5.75444L17.6988 4.72219L8.04622 10.3548ZM21.9404 8.51717L12.6976 13.7531V22C12.7145 21.9967 12.7314 21.9933 12.7482 21.9897C13.3074 21.872 13.8181 21.578 14.557 21.1525L14.6562 21.0955L19.4934 18.3131L19.5869 18.2594C20.2872 17.857 20.7711 17.5788 21.1312 17.1862C21.4488 16.84 21.6883 16.4345 21.8346 15.9953C22.0005 15.4973 22.0003 14.9563 22 14.1737V14.0691V9.9985V9.89398C22.0002 9.33633 22.0003 8.90132 21.9404 8.51717ZM11.3023 22V13.7531L2.05955 8.51723C1.99963 8.90137 1.9998 9.33634 2.00003 9.89398L2.00005 9.9985V14.0691L2.00003 14.1736C1.99971 14.9563 1.9995 15.4973 2.16538 15.9953C2.3117 16.4345 2.55117 16.84 2.86875 17.1862C3.22884 17.5788 3.71288 17.857 4.41311 18.2594L4.5066 18.3131L9.34378 21.0955L9.44289 21.1525C10.1819 21.578 10.6926 21.872 11.2518 21.9897C11.2686 21.9933 11.2854 21.9967 11.3023 22Z" fill="#DDC916"/>
<path fill-rule="evenodd" clip-rule="evenodd" d="M9.9417 3.78176L5.0052 6.62127L4.91148 6.67515C4.6456 6.82795 4.43255 6.95184 4.25799 7.05955L6.67712 8.42995L14.3526 3.95106L14.0582 3.78168C13.2775 3.33221 12.9141 3.13467 12.5422 3.05638C12.1851 2.98121 11.8148 2.98121 11.4578 3.05638C11.0859 3.13467 10.7224 3.3323 9.9417 3.78176ZM16.3474 3.94482L6.68451 9.58345L2.57252 7.25406C2.66184 7.12365 2.76078 6.99909 2.86875 6.88137C2.99202 6.74698 3.12982 6.62599 3.28584 6.50884C3.58558 6.28377 3.95259 6.07285 4.4131 5.80819L9.4429 2.91504C10.1819 2.48956 10.6926 2.19555 11.2518 2.07783C11.7447 1.97406 12.2553 1.97406 12.7482 2.07783C13.3074 2.19555 13.8181 2.48956 14.5571 2.91504L16.3474 3.94482ZM2.00018 9.6329C2.00132 9.19706 2.00931 8.83928 2.05955 8.51723L11.3023 13.7531V22C11.2854 21.9967 11.2686 21.9933 11.2518 21.9897C10.9364 21.9234 10.6365 21.8009 10.3023 21.6304C10.0439 21.4986 9.76513 21.3381 9.44292 21.1526L4.41311 18.2594C3.71325 17.8572 3.22872 17.5787 2.86875 17.1862C2.55117 16.84 2.3117 16.4345 2.16538 15.9953C1.9995 15.4973 1.99971 14.9563 2.00003 14.1736V9.89398C1.99999 9.80388 1.99996 9.7169 2.00018 9.6329ZM3.00005 10.1993L3.00003 14.1738C2.99969 15.0057 3.01011 15.367 3.11412 15.6792M3.00005 10.1993L10.3023 14.3359V20.4919C10.1926 20.43 10.0732 20.3615 9.94193 20.286C9.94197 20.286 9.9419 20.2859 9.94193 20.286L9.84282 20.2289L5.0052 17.4463L4.91142 17.3924C4.91153 17.3925 4.91131 17.3924 4.91142 17.3924C4.16929 16.9659 3.8394 16.7651 3.60575 16.5103C3.38191 16.2663 3.21529 15.9829 3.11412 15.6792M13.6976 21.6304C13.956 21.4986 14.2348 21.3381 14.557 21.1525L19.5869 18.2594C20.2871 17.857 20.7712 17.5788 21.1312 17.1862C21.4488 16.84 21.6883 16.4345 21.8346 15.9953C22.0004 15.4976 22.0003 14.9569 22 14.1749V9.8928C22 9.80307 22 9.71652 21.9998 9.63285C21.9987 9.19701 21.9907 8.83922 21.9404 8.51717L12.6976 13.7531V22C12.7062 21.9983 12.7148 21.9966 12.7233 21.9949C12.7316 21.9932 12.7399 21.9915 12.7482 21.9897C13.0636 21.9234 13.3635 21.8009 13.6976 21.6304ZM13.6976 20.4919V14.3359L21 10.1992V14.1737C21.0003 15.0056 20.9899 15.367 20.8859 15.6791C20.7847 15.9828 20.6182 16.2662 20.3943 16.5102C20.1607 16.765 19.831 16.9657 19.0889 17.3922C19.089 17.3922 19.0888 17.3923 19.0889 17.3922L14.1576 20.2286L14.0582 20.2858C13.9269 20.3614 13.8073 20.43 13.6976 20.4919ZM11.9999 12.5946L21.4274 7.25401C21.3381 7.12362 21.2392 6.99908 21.1312 6.88137C21.008 6.74696 20.8701 6.62596 20.7141 6.50879C20.4144 6.28374 20.0474 6.07282 19.5869 5.80818L17.6988 4.72219L8.04622 10.3548L11.9999 12.5946ZM10.0523 10.342L11.9999 11.4453L19.742 7.0595C19.5674 6.9518 19.3545 6.82799 19.0886 6.67521L18.995 6.62142L17.7024 5.87789L10.0523 10.342Z" fill="#FFE500"/>
</svg>
