<svg width="24" height="24" viewBox="0 0 24 24" xmlns="http://www.w3.org/2000/svg">
<path fill-rule="evenodd" clip-rule="evenodd" d="M12.7482 2.07783C12.2553 1.97406 11.7447 1.97406 11.2518 2.07783C10.6926 2.19555 10.1819 2.48956 9.4429 2.91504L9.34377 2.97209L4.5066 5.75444L4.4131 5.80819C3.71287 6.21061 3.22884 6.48879 2.86875 6.88137C2.76078 6.99909 2.66184 7.12365 2.57252 7.25406L6.68451 9.58345L16.3474 3.94482L14.6562 2.97209L14.5571 2.91504C13.8181 2.48956 13.3074 2.19555 12.7482 2.07783ZM8.04622 10.3548L11.9999 12.5946L21.4274 7.25401C21.3381 7.12362 21.2392 6.99908 21.1312 6.88137C20.7711 6.48878 20.2872 6.2106 19.5869 5.80818L19.4934 5.75444L17.6988 4.72219L8.04622 10.3548ZM21.9404 8.51717L12.6976 13.7531V22C12.7145 21.9967 12.7314 21.9933 12.7482 21.9897C13.3074 21.872 13.8181 21.578 14.557 21.1525L14.6562 21.0955L19.4934 18.3131L19.5869 18.2594C20.2872 17.857 20.7711 17.5788 21.1312 17.1862C21.4488 16.84 21.6883 16.4345 21.8346 15.9953C22.0005 15.4973 22.0003 14.9563 22 14.1737V14.0691V9.9985V9.89398C22.0002 9.33633 22.0003 8.90132 21.9404 8.51717ZM11.3023 22V13.7531L2.05955 8.51723C1.99963 8.90137 1.9998 9.33634 2.00003 9.89398L2.00005 9.9985V14.0691L2.00003 14.1736C1.99971 14.9563 1.9995 15.4973 2.16538 15.9953C2.3117 16.4345 2.55117 16.84 2.86875 17.1862C3.22884 17.5788 3.71288 17.857 4.41311 18.2594L4.5066 18.3131L9.34378 21.0955L9.44289 21.1525C10.1819 21.578 10.6926 21.872 11.2518 21.9897C11.2686 21.9933 11.2854 21.9967 11.3023 22Z"/>
</svg>
