<svg width="24" height="24" viewBox="0 0 24 24" fill="none" xmlns="http://www.w3.org/2000/svg">
<path d="M7.46943 6.00535H6.41825V4.82387C6.41825 4.12158 7.03343 3.50001 7.86277 3.50001L16.1413 3.50002L16.1431 3.50001C16.9708 3.49705 17.59 4.12136 17.59 4.82387V6.00535H16.5388V5.35486C16.5388 4.81047 16.0791 4.42391 15.5793 4.42391H8.42889C7.92906 4.42391 7.46943 4.81047 7.46943 5.35486V6.00535ZM3.91219 20.5L3.91075 20.5C2.82546 20.5031 2 19.6834 2 18.7375V9.07568C2 8.13098 2.82441 7.31318 3.91219 7.31318H20.0878C21.1756 7.31318 22 8.13098 22 9.07568V18.7375C22 19.6822 21.1756 20.5 20.0878 20.5L3.91219 20.5Z" fill="#DDC916" stroke="#FFE500"/>
</svg>
