<svg width="24" height="24" viewBox="0 0 24 24" xmlns="http://www.w3.org/2000/svg">
<path d="M17.8 5.72254V7.31061H15.8465V6.22404C15.8465 5.99873 15.6511 5.81703 15.4089 5.81703H8.59895C8.35671 5.81703 8.16136 5.99873 8.16136 6.22404V7.31061H6.20785V5.72254C6.20785 4.77043 7.03614 4.00001 8.05978 4.00001H15.9441C16.9678 3.99638 17.8 4.77043 17.8 5.72254Z"/>
<path d="M4.29732 7.60133H19.7027C20.9725 7.60133 22 8.55708 22 9.73814V18.8632C22 20.0442 20.9725 21 19.7027 21H4.29732C3.02754 21.0036 2 20.0442 2 18.8632V9.73814C2 8.55708 3.02754 7.60133 4.29732 7.60133Z"/>
</svg>
