<svg width="18" height="18" viewBox="0 0 18 18" xmlns="http://www.w3.org/2000/svg">
<g clip-path="url(#clip0_5016_5645)">
<path d="M9 0C4.0374 0 0 4.0374 0 9C0 11.0511 0.706934 13.045 1.99541 14.6429L1.80146 17.3572C1.7874 17.5547 1.87178 17.7463 2.02646 17.8696C2.13398 17.9552 2.26611 18 2.4 18C2.45918 18 2.51865 17.9912 2.57637 17.9733L5.22012 17.1601C6.41748 17.7176 7.68809 18 9 18C13.9629 18 18 13.9626 18 9C18 4.0374 13.9629 0 9 0ZM5.4 10.2C4.73818 10.2 4.2 9.66182 4.2 9C4.2 8.33818 4.73818 7.8 5.4 7.8C6.06182 7.8 6.6 8.33818 6.6 9C6.6 9.66182 6.06182 10.2 5.4 10.2ZM9 10.2C8.33818 10.2 7.8 9.66182 7.8 9C7.8 8.33818 8.33818 7.8 9 7.8C9.66152 7.8 10.2 8.33818 10.2 9C10.2 9.66182 9.66152 10.2 9 10.2ZM12.6 10.2C11.9385 10.2 11.4 9.66182 11.4 9C11.4 8.33818 11.9385 7.8 12.6 7.8C13.2615 7.8 13.8 8.33818 13.8 9C13.8 9.66182 13.2615 10.2 12.6 10.2Z"/>
</g>
<defs>
<clipPath id="clip0_5016_5645">
<rect width="18" height="18" fill="white"/>
</clipPath>
</defs>
</svg>
