<svg width="24" height="24" viewBox="0 0 24 24" fill="none" xmlns="http://www.w3.org/2000/svg">
<path fill-rule="evenodd" clip-rule="evenodd" d="M12 22C17.5228 22 22 17.5228 22 12C22 6.47715 17.5228 2 12 2C6.47715 2 2 6.47715 2 12C2 17.5228 6.47715 22 12 22ZM8.06884 14.8317C8.72109 15.5166 9.37334 16.2015 10.0285 16.8845C10.1739 17.0385 10.413 17.0385 10.5583 16.8845L17.891 9.23987C18.0363 9.08835 18.0363 8.84151 17.891 8.68754L16.379 7.11364C16.2336 6.96212 15.9945 6.96212 15.8492 7.11364L10.3028 12.8985L8.14847 10.6525C8.00313 10.5009 7.76402 10.5009 7.61868 10.6525L6.10901 12.2264C5.96366 12.3779 5.96366 12.6272 6.10901 12.7787C6.76424 13.4618 7.41654 14.1467 8.06884 14.8317Z" fill="black"/>
<path fill-rule="evenodd" clip-rule="evenodd" d="M12 22C17.5228 22 22 17.5228 22 12C22 6.47715 17.5228 2 12 2C6.47715 2 2 6.47715 2 12C2 17.5228 6.47715 22 12 22ZM8.06884 14.8317C8.72109 15.5166 9.37334 16.2015 10.0285 16.8845C10.1739 17.0385 10.413 17.0385 10.5583 16.8845L17.891 9.23987C18.0363 9.08835 18.0363 8.84151 17.891 8.68754L16.379 7.11364C16.2336 6.96212 15.9945 6.96212 15.8492 7.11364L10.3028 12.8985L8.14847 10.6525C8.00313 10.5009 7.76402 10.5009 7.61868 10.6525L6.10901 12.2264C5.96366 12.3779 5.96366 12.6272 6.10901 12.7787C6.76424 13.4618 7.41654 14.1467 8.06884 14.8317Z" fill="#074ACB"/>
<path fill-rule="evenodd" clip-rule="evenodd" d="M17.891 8.68754C18.0363 8.84151 18.0363 9.08835 17.891 9.23987L10.5583 16.8845C10.413 17.0385 10.1739 17.0385 10.0285 16.8845C9.37334 16.2015 8.72109 15.5166 8.06884 14.8317C7.41654 14.1467 6.76424 13.4618 6.10901 12.7787C5.96366 12.6272 5.96366 12.3779 6.10901 12.2264L7.61868 10.6525C7.76402 10.5009 8.00313 10.5009 8.14847 10.6525L10.3028 12.8985L15.8492 7.11364C15.9945 6.96212 16.2336 6.96212 16.379 7.11364L17.891 8.68754ZM17.1007 6.42141L18.6182 8.00108C19.1244 8.53727 19.132 9.39063 18.6127 9.9321L11.2818 17.5748C10.7426 18.1417 9.8442 18.1417 9.30501 17.5748C8.64908 16.891 7.99628 16.2055 7.34491 15.5216C6.6924 14.8364 6.04111 14.1525 5.38733 13.4709C4.87089 12.9325 4.87089 12.0725 5.38733 11.5341L6.897 9.96024C7.43595 9.39836 8.33119 9.39836 8.87014 9.96024L10.3026 11.4537L15.1274 6.42157C15.6661 5.85987 16.5616 5.86009 17.1007 6.42141ZM12 21C16.9706 21 21 16.9706 21 12C21 7.02944 16.9706 3 12 3C7.02944 3 3 7.02944 3 12C3 16.9706 7.02944 21 12 21ZM22 12C22 17.5228 17.5228 22 12 22C6.47715 22 2 17.5228 2 12C2 6.47715 6.47715 2 12 2C17.5228 2 22 6.47715 22 12Z" fill="#1161FA"/>
</svg>
