<svg width="24" height="24" viewBox="0 0 24 24" xmlns="http://www.w3.org/2000/svg">
<path fill-rule="evenodd" clip-rule="evenodd" d="M12 2C6.47715 2 2 6.47715 2 12C2 17.5228 6.47715 22 12 22C17.5228 22 22 17.5228 22 12C22 6.47715 17.5228 2 12 2ZM17.5808 10.0569C18.1666 9.49902 18.4492 8.86936 17.8634 8.31146C17.2775 7.75357 16.7386 8.01035 16.1528 8.56824L10.5123 13.9797L8.03741 11.4C7.45158 10.8421 6.91406 10.5051 6.32823 11.063C5.74241 11.6209 6.00858 12.2266 6.59441 12.7844L9.45947 15.7712C10.0453 16.3291 10.995 16.3291 11.5808 15.7712L17.5808 10.0569Z"/>
</svg>
