<svg width="18" height="18" viewBox="0 0 18 18" xmlns="http://www.w3.org/2000/svg">
<path fill-rule="evenodd" clip-rule="evenodd" d="M1.5 9C1.5 4.85786 4.85786 1.5 9 1.5C13.1421 1.5 16.5 4.85786 16.5 9C16.5 13.1421 13.1421 16.5 9 16.5C4.85786 16.5 1.5 13.1421 1.5 9ZM7.28033 7.71967C6.98744 7.42678 6.51256 7.42678 6.21967 7.71967C5.92678 8.01256 5.92678 8.48744 6.21967 8.78033L8.46967 11.0303C8.76256 11.3232 9.23744 11.3232 9.53033 11.0303L11.7803 8.78033C12.0732 8.48744 12.0732 8.01256 11.7803 7.71967C11.4874 7.42678 11.0126 7.42678 10.7197 7.71967L9 9.43934L7.28033 7.71967Z"/>
</svg>
