<svg width="24" height="24" viewBox="0 0 24 24" xmlns="http://www.w3.org/2000/svg">
<path fill-rule="evenodd" clip-rule="evenodd" d="M12 22C17.5228 22 22 17.5228 22 12C22 6.47715 17.5228 2 12 2C6.47715 2 2 6.47715 2 12C2 17.5228 6.47715 22 12 22ZM7.19887 9.11932C6.93371 8.85417 6.93371 8.42426 7.19887 8.1591L8.1591 7.19887C8.42426 6.93371 8.85417 6.93371 9.11932 7.19887L12 10.0796L14.8807 7.19888C15.1458 6.93372 15.5757 6.93372 15.8409 7.19888L16.8011 8.1591C17.0663 8.42426 17.0663 8.85417 16.8011 9.11932L13.9205 12L16.8011 14.8807C17.0663 15.1458 17.0663 15.5757 16.8011 15.8409L15.8409 16.8011C15.5757 17.0663 15.1458 17.0663 14.8807 16.8011L12 13.9205L9.11932 16.8011C8.85417 17.0663 8.42426 17.0663 8.1591 16.8011L7.19887 15.8409C6.93372 15.5757 6.93372 15.1458 7.19887 14.8807L10.0796 12L7.19887 9.11932Z"/>
</svg>
