<svg width="24" height="24" viewBox="0 0 24 24" xmlns="http://www.w3.org/2000/svg">
<path d="M9 8.50022C10.7239 8.50022 12.3777 9.18553 13.5967 10.4045C14.8154 11.6234 15.4999 13.2766 15.5 15.0002C15.5 16.724 14.8155 18.3779 13.5967 19.5969C12.3777 20.8159 10.7239 21.5002 9 21.5002C7.27609 21.5002 5.62231 20.8159 4.40332 19.5969C3.18448 18.3779 2.5 16.724 2.5 15.0002C2.50012 13.2766 3.1846 11.6234 4.40332 10.4045C5.62231 9.18553 7.27609 8.50022 9 8.50022ZM21 15.5002V17.0002C21 18.0611 20.5783 19.0792 19.8281 19.8293C19.078 20.5793 18.0607 21.0002 17 21.0002H15.5V19.0002H17C17.5303 19.0002 18.039 18.7902 18.4141 18.4153C18.7891 18.0402 19 17.5307 19 17.0002V15.5002H21ZM9 9.40061C8.61369 9.40071 8.30017 9.71359 8.2998 10.0998V10.8C7.14021 10.8002 6.20032 11.741 6.2002 12.9006V13.2912C6.2002 14.195 6.77842 14.9975 7.63574 15.2834L9.92188 16.0451C10.2074 16.1404 10.4002 16.4082 10.4004 16.7092V17.1008C10.4002 17.4873 10.0867 17.8 9.7002 17.8H8.2998C7.96168 17.7999 7.68041 17.5602 7.61523 17.2414L7.58594 16.9602C7.52065 16.6412 7.23861 16.4007 6.90039 16.4006C6.51386 16.4006 6.20032 16.7143 6.2002 17.1008C6.2004 18.2603 7.14026 19.2002 8.2998 19.2004V19.9006C8.29988 20.2871 8.61352 20.6007 9 20.6008C9.38656 20.6008 9.70012 20.2872 9.7002 19.9006V19.2004C10.8599 19.2004 11.7996 18.2604 11.7998 17.1008V16.7092C11.7996 15.8055 11.2216 15.0028 10.3643 14.717L8.0791 13.9553C7.79329 13.86 7.60059 13.5925 7.60059 13.2912V12.9006C7.60071 12.5142 7.91343 12.2006 8.2998 12.2004H9.7002C10.0385 12.2004 10.3205 12.4409 10.3857 12.76L10.415 13.0412C10.4803 13.3604 10.7623 13.6008 11.1006 13.6008C11.4869 13.6006 11.7997 13.287 11.7998 12.9006C11.7997 11.7409 10.8599 10.8 9.7002 10.8V10.0998C9.69983 9.71353 9.38639 9.40061 9 9.40061ZM11.9443 3.26584C13.2705 2.56032 14.8004 2.33555 16.2734 2.6301C17.7463 2.92474 19.0716 3.72082 20.0244 4.88205C20.9771 6.04326 21.4987 7.49822 21.5 9.00022C21.5004 10.2838 21.121 11.5395 20.4092 12.6076C19.6973 13.6758 18.6849 14.5095 17.5 15.0032V15.0002C17.4999 12.7462 16.6045 10.5844 15.0107 8.99045C13.4167 7.39639 11.2543 6.50022 9 6.50022H8.99805C9.57689 5.11414 10.6182 3.97138 11.9443 3.26584ZM8.5 3.00022V5.00022H7C6.46968 5.00022 5.96099 5.21123 5.58594 5.58616C5.21097 5.96112 5.00012 6.46995 5 7.00022V8.50022H3V7.00022C3.00012 5.93952 3.42184 4.92213 4.17188 4.17209C4.922 3.42209 5.93924 3.00022 7 3.00022H8.5Z"/>
</svg>
