<svg width="24" height="24" viewBox="0 0 24 24" fill="none" xmlns="http://www.w3.org/2000/svg">
<path fill-rule="evenodd" clip-rule="evenodd" d="M22 12C22 17.5228 17.5228 22 12 22C6.47715 22 2 17.5228 2 12C2 6.47715 6.47715 2 12 2C17.5228 2 22 6.47715 22 12ZM8.39616 16.2017V18H11.0314V16.2017H13.719V14.5714H11.0314V13.2605H12.1134H12.1658C13.3758 13.2605 14.3298 13.0868 15.0279 12.7395C15.7376 12.3922 16.2437 11.9328 16.5462 11.3613C16.8488 10.7899 17 10.1793 17 9.52941C17 8.43137 16.6277 7.56863 15.8831 6.94118C15.1501 6.31373 13.9808 6 12.3752 6H8.39616V11.1765H7V13.2605H8.39616V14.5714H7V16.2017H8.39616ZM11.0314 11.1765H11.904C12.4043 11.1765 12.8348 11.126 13.1955 11.0252C13.5561 10.9132 13.8354 10.7395 14.0332 10.5042C14.2309 10.2689 14.3298 9.97199 14.3298 9.61345C14.3298 9.09804 14.1611 8.71709 13.8237 8.47059C13.4863 8.21288 12.957 8.08403 12.2356 8.08403H11.0314V11.1765Z" fill="#DDC916"/>
<path fill-rule="evenodd" clip-rule="evenodd" d="M7.39616 19V17.2017H6V10.1765H7.39616V5H12.3752C14.071 5 15.5295 5.32406 16.5304 6.17892C17.5289 7.0218 18 8.18006 18 9.52941C18 10.3415 17.8093 11.1129 17.43 11.8292C17.0089 12.6248 16.3257 13.2171 15.4704 13.6363C15.2358 13.7528 14.9849 13.8512 14.719 13.933V17.2017H12.0314V19H7.39616ZM11.0314 14.5714V13.2605H12.1658C13.3758 13.2605 14.3298 13.0868 15.0279 12.7395C15.7376 12.3922 16.2437 11.9328 16.5462 11.3613C16.8488 10.7899 17 10.1793 17 9.52941C17 8.43137 16.6277 7.56863 15.8831 6.94118C15.1501 6.31373 13.9808 6 12.3752 6H8.39616V11.1765H7V13.2605H8.39616V14.5714H7V16.2017H8.39616V18H11.0314V16.2017H13.719V14.5714H11.0314ZM13.2252 9.27177L13.2167 9.2653C13.1387 9.20567 12.8763 9.08403 12.2356 9.08403H12.0314V10.1752C12.3996 10.1675 12.6894 10.1267 12.9121 10.066C13.1226 9.99859 13.2196 9.91791 13.2677 9.86074C13.2894 9.83488 13.3298 9.77783 13.3298 9.61345C13.3298 9.34553 13.2592 9.29587 13.2365 9.27996C13.2355 9.27927 13.2346 9.27864 13.2338 9.27806L13.2252 9.27177ZM13.1955 11.0252C12.8658 11.1174 12.4778 11.1674 12.0314 11.1754C11.9895 11.1761 11.947 11.1765 11.904 11.1765H11.0314V8.08403H12.2356C12.957 8.08403 13.4863 8.21288 13.8237 8.47059C14.1611 8.71709 14.3298 9.09804 14.3298 9.61345C14.3298 9.97199 14.2309 10.2689 14.0332 10.5042C13.8354 10.7395 13.5561 10.9132 13.1955 11.0252ZM12 21C16.9706 21 21 16.9706 21 12C21 7.02944 16.9706 3 12 3C7.02944 3 3 7.02944 3 12C3 16.9706 7.02944 21 12 21ZM12 22C17.5228 22 22 17.5228 22 12C22 6.47715 17.5228 2 12 2C6.47715 2 2 6.47715 2 12C2 17.5228 6.47715 22 12 22Z" fill="#FFE500"/>
</svg>
