<svg width="24" height="24" viewBox="0 0 24 24" xmlns="http://www.w3.org/2000/svg">
<path d="M12 2C17.5228 2 22 6.47715 22 12C22 17.5228 17.5228 22 12 22C6.47715 22 2 17.5228 2 12C2 6.47715 6.47715 2 12 2ZM13.3145 4.5C11.7105 4.5 10.2766 4.95443 9.0127 5.86328C7.7487 6.77237 6.8763 7.97337 6.39648 9.46484H5.34375C5.24349 9.46484 5.16113 9.49663 5.09668 9.56055C5.03229 9.62445 5 9.70628 5 9.80566V11.0195C5 11.1189 5.03232 11.2007 5.09668 11.2646C5.16113 11.3286 5.24349 11.3604 5.34375 11.3604H6.06348C6.04199 11.7013 6.03841 12.0747 6.05273 12.4795H5.34375C5.25066 12.4795 5.17057 12.5136 5.10254 12.5811C5.03451 12.6485 5 12.728 5 12.8203V14.0244C5.00007 14.1166 5.03457 14.1963 5.10254 14.2637C5.17054 14.331 5.25072 14.3652 5.34375 14.3652H6.36426C6.81542 15.9347 7.66778 17.1826 8.9209 18.1094C10.1742 19.0362 11.6387 19.5 13.3145 19.5C13.4505 19.5 13.5889 19.4964 13.7285 19.4893C13.868 19.4822 13.9985 19.4712 14.1201 19.457C14.2418 19.4428 14.3623 19.4269 14.4805 19.4092C14.5984 19.3914 14.7062 19.3742 14.8027 19.3564C14.8993 19.3387 14.9904 19.3205 15.0762 19.3027C15.1621 19.285 15.2396 19.2654 15.3076 19.2441C15.3754 19.2229 15.4331 19.2069 15.4795 19.1963C15.5258 19.1857 15.5633 19.1733 15.5918 19.1592L15.6455 19.1484C15.7242 19.12 15.7852 19.0686 15.8281 18.9941C15.8711 18.9196 15.8818 18.8391 15.8604 18.7539L15.4844 17.0605C15.4629 16.9612 15.4091 16.8866 15.3232 16.8369C15.2301 16.7872 15.137 16.7799 15.0439 16.8154L14.9902 16.8369L14.8613 16.8682C14.8041 16.8823 14.7381 16.8993 14.6631 16.917C14.5879 16.9347 14.4997 16.952 14.3994 16.9697C14.2993 16.9875 14.1938 17.0034 14.083 17.0176C13.972 17.0318 13.8516 17.044 13.7227 17.0547C13.5938 17.0653 13.4648 17.0713 13.3359 17.0713C12.4265 17.0713 11.6087 16.8273 10.8818 16.3408C10.155 15.8543 9.61914 15.1961 9.27539 14.3652H13.4326C13.5114 14.3652 13.583 14.3384 13.6475 14.2852C13.7119 14.2319 13.7513 14.166 13.7656 14.0879L14.0234 12.8945C14.0448 12.7882 14.0233 12.6925 13.959 12.6074C13.8874 12.5222 13.7979 12.4795 13.6904 12.4795H8.75977C8.73828 11.9965 8.73828 11.6231 8.75977 11.3604H14.002C14.1953 11.3604 14.3099 11.2685 14.3457 11.084L14.6035 9.86914C14.6249 9.76987 14.5997 9.67788 14.5283 9.59277C14.4639 9.50755 14.3743 9.46484 14.2598 9.46484H9.23242C9.59047 8.66945 10.1277 8.04438 10.8438 7.58984C11.5599 7.1353 12.3691 6.90723 13.2715 6.90723L13.5889 6.91797L13.9004 6.94531L14.1797 6.97656L14.4209 7.01465L14.6094 7.05176C14.6628 7.06237 14.7039 7.07105 14.7324 7.07812L14.7754 7.08887C14.8684 7.11725 14.9545 7.10858 15.0332 7.0625C15.112 7.01635 15.1621 6.94678 15.1836 6.85449L15.6455 5.16016C15.6669 5.06809 15.656 4.98321 15.6133 4.90527C15.5488 4.82005 15.4772 4.76643 15.3984 4.74512C14.7396 4.58176 14.0449 4.5 13.3145 4.5Z"/>
</svg>
