<svg width="24" height="24" viewBox="0 0 24 24" xmlns="http://www.w3.org/2000/svg">
<path fill-rule="evenodd" clip-rule="evenodd" d="M22 12C22 17.5228 17.5228 22 12 22C6.47715 22 2 17.5228 2 12C2 6.47715 6.47715 2 12 2C17.5228 2 22 6.47715 22 12ZM8.39616 16.2017V18H11.0314V16.2017H13.719V14.5714H11.0314V13.2605H12.1134H12.1658C13.3758 13.2605 14.3298 13.0868 15.0279 12.7395C15.7376 12.3922 16.2437 11.9328 16.5462 11.3613C16.8488 10.7899 17 10.1793 17 9.52941C17 8.43137 16.6277 7.56863 15.8831 6.94118C15.1501 6.31373 13.9808 6 12.3752 6H8.39616V11.1765H7V13.2605H8.39616V14.5714H7V16.2017H8.39616ZM11.0314 11.1765H11.904C12.4043 11.1765 12.8348 11.1261 13.1955 11.0252C13.5561 10.9132 13.8354 10.7395 14.0332 10.5042C14.2309 10.2689 14.3298 9.97199 14.3298 9.61345C14.3298 9.09804 14.1611 8.71709 13.8237 8.47059C13.4863 8.21288 12.957 8.08403 12.2356 8.08403H11.0314V11.1765Z"/>
</svg>
