<svg width="24" height="24" viewBox="0 0 24 24" fill="none" xmlns="http://www.w3.org/2000/svg">
<path fill-rule="evenodd" clip-rule="evenodd" d="M12 22C17.5228 22 22 17.5228 22 12C22 6.47715 17.5228 2 12 2C6.47715 2 2 6.47715 2 12C2 17.5228 6.47715 22 12 22ZM8 15.75L4 12L9.33333 7L12 9.5L14.6667 7L20 12L16 15.75L14.6667 14.5L12 17L9.33333 14.5L8 15.75ZM8 13.25L6.66667 12L9.33333 9.5L12 11.8958L14.6667 9.5L17.3333 12L16 13.25L14.6667 12L12 14.5L9.33333 12L8 13.25Z" fill="#DDC916"/>
<path d="M12 2C17.5228 2 22 6.47715 22 12C22 17.5228 17.5228 22 12 22C6.47715 22 2 17.5228 2 12C2 6.47715 6.47715 2 12 2ZM16 17.1211L14.666 15.8701L12 18.3711L9.33301 15.8701L8 17.1211L3.01074 12.4434C3.24187 17.208 7.17809 21 12 21C16.8219 21 20.7571 17.208 20.9883 12.4434L16 17.1211ZM12 9.5L9.33333 7L4 12L8 15.75L9.33333 14.5L12 17L14.6667 14.5L16 15.75L20 12L14.6667 7L12 9.5ZM17.3333 12L16 13.25L14.6667 12L12 14.5L9.33333 12L8 13.25L6.66667 12L9.33333 9.5L12 11.8958L14.6667 9.5L17.3333 12ZM12 3C7.17842 3 3.24236 6.7915 3.01074 11.5557L3.31641 11.2705L9.33301 5.62891L12 8.12891L14.667 5.62891L20.9883 11.5557C20.7566 6.79153 16.8216 3 12 3Z" fill="#FFE500"/>
</svg>
