<svg width="36" height="36" viewBox="0 0 36 36" fill="none" xmlns="http://www.w3.org/2000/svg">
<path d="M4.5 21.75C4.5 27.1348 8.86522 31.5 14.25 31.5C19.6348 31.5 24 27.1348 24 21.75C24 16.3652 19.6348 12 14.25 12C8.86522 12 4.5 16.3652 4.5 21.75Z" fill="#DDC916"/>
<path d="M13.9348 8.41933C13.7521 8.66385 13.9447 9 14.25 9C21.2916 9 27 14.7084 27 21.75C27 22.0553 27.3362 22.2479 27.5807 22.0652C29.9598 20.2873 31.5 17.4485 31.5 14.25C31.5 8.86522 27.1348 4.5 21.75 4.5C18.5515 4.5 15.7127 6.04017 13.9348 8.41933Z" fill="#DDC916"/>
<path fill-rule="evenodd" clip-rule="evenodd" d="M5.5 21.75C5.5 26.5825 9.41751 30.5 14.25 30.5C19.0825 30.5 23 26.5825 23 21.75C23 16.9175 19.0825 13 14.25 13C9.41751 13 5.5 16.9175 5.5 21.75ZM27.9998 21.7338C27.9933 21.7392 27.9868 21.7446 27.9804 21.75C27.85 21.8584 27.7167 21.9636 27.5807 22.0652C27.3362 22.2479 27 22.0553 27 21.75C27 21.5915 26.9971 21.4337 26.9914 21.2766C26.9911 21.2703 26.9909 21.2641 26.9907 21.2578C26.9907 21.2578 26.9907 21.2579 26.9907 21.2578C26.7382 14.6077 21.3924 9.2618 14.7423 9.00933C14.7422 9.00933 14.7423 9.00933 14.7423 9.00933C14.736 9.00909 14.7297 9.00885 14.7234 9.00863C14.5663 9.00289 14.4085 9 14.25 9C13.9447 9 13.7521 8.66385 13.9348 8.41933C14.0364 8.28331 14.1416 8.15004 14.25 8.01964C14.2554 8.01316 14.2608 8.00668 14.2662 8.00022C14.2663 8.00015 14.2661 8.00028 14.2662 8.00022C16.0547 5.86098 18.7435 4.5 21.75 4.5C27.1348 4.5 31.5 8.86522 31.5 14.25C31.5 17.2565 30.139 19.9453 27.9998 21.7338C27.9997 21.7339 27.9999 21.7337 27.9998 21.7338ZM27.9381 20.4364C29.5221 18.8521 30.5 16.6654 30.5 14.25C30.5 9.41751 26.5825 5.5 21.75 5.5C19.3346 5.5 17.1479 6.47791 15.5636 8.06193C22.109 8.68229 27.3177 13.891 27.9381 20.4364ZM14.25 31.5C8.86522 31.5 4.5 27.1348 4.5 21.75C4.5 16.3652 8.86522 12 14.25 12C19.6348 12 24 16.3652 24 21.75C24 27.1348 19.6348 31.5 14.25 31.5Z" fill="#FFE500"/>
</svg>
