<svg width="24" height="24" viewBox="0 0 24 24" xmlns="http://www.w3.org/2000/svg">
<path fill-rule="evenodd" clip-rule="evenodd" d="M12.0008 12.0004C15.9776 12.0004 19.2008 9.85239 19.2008 7.20039C19.2008 4.54839 15.9776 2.40039 12.0008 2.40039C8.02398 2.40039 4.80078 4.54839 4.80078 7.20039C4.80078 9.85239 8.02398 12.0004 12.0008 12.0004ZM12.0008 13.2004C14.8568 13.2004 17.3828 12.1804 18.9008 10.624C19.0638 10.9833 19.1619 11.368 19.1914 11.7602C19.0462 11.7624 18.9017 11.8155 18.7908 11.9195L13.7427 16.659C13.1849 16.7514 12.6014 16.8004 12.0008 16.8004C8.02398 16.8004 4.80078 14.6524 4.80078 12.0004C4.80078 11.5204 4.90638 11.0596 5.10078 10.624C6.61878 12.1804 9.14478 13.2004 12.0008 13.2004ZM13.7336 17.8724C13.1743 17.9563 12.5947 18.0004 12.0008 18.0004C9.14478 18.0004 6.61878 16.9804 5.10078 15.424C4.90638 15.8596 4.80078 16.3204 4.80078 16.8004C4.80078 19.4524 8.02398 21.6004 12.0008 21.6004C13.7517 21.6004 15.3565 21.184 16.6045 20.4916V18.1883C16.6045 18.0138 16.4538 17.8724 16.268 17.8724H13.7336Z"/>
<path d="M22.5398 16.1726L19.435 13.2576C19.3057 13.1362 19.0959 13.1362 18.9665 13.2576L15.8618 16.1726C15.6705 16.3522 15.8059 16.6593 16.0765 16.6593H17.5249C17.6311 16.6593 17.7172 16.7401 17.7172 16.8398V21.0741C17.7172 21.2514 17.8703 21.3951 18.0591 21.3951H20.3425C20.5313 21.3951 20.6844 21.2514 20.6844 21.0741V16.8398C20.6844 16.7401 20.7705 16.6593 20.8767 16.6593H22.3251C22.5956 16.6593 22.7311 16.3522 22.5398 16.1726Z"/>
</svg>
