<svg width="16" height="16" viewBox="0 0 16 16" xmlns="http://www.w3.org/2000/svg">
<path fill-rule="evenodd" clip-rule="evenodd" d="M8.00004 14.6663C11.6819 14.6663 14.6667 11.6816 14.6667 7.99967C14.6667 4.31778 11.6819 1.33301 8.00004 1.33301C4.31814 1.33301 1.33337 4.31778 1.33337 7.99967C1.33337 11.6816 4.31814 14.6663 8.00004 14.6663ZM6.66671 5.99967C6.66671 5.63149 6.96518 5.33301 7.33337 5.33301H8.66671C9.0349 5.33301 9.33337 5.63149 9.33337 5.99967C9.33337 6.36786 9.63185 6.66634 10 6.66634C10.3682 6.66634 10.6667 6.36786 10.6667 5.99967C10.6667 4.89511 9.77128 3.99967 8.66671 3.99967V3.33301C8.66671 2.96482 8.36823 2.66634 8.00004 2.66634C7.63185 2.66634 7.33337 2.96482 7.33337 3.33301V3.99967C6.2288 3.99967 5.33337 4.89511 5.33337 5.99967V6.372C5.33337 7.23286 5.88423 7.99713 6.70092 8.26936L8.87753 8.9949C9.14975 9.08564 9.33337 9.3404 9.33337 9.62735V9.99967C9.33337 10.3679 9.0349 10.6663 8.66671 10.6663H7.33337C6.96518 10.6663 6.66671 10.3679 6.66671 9.99967C6.66671 9.63149 6.36823 9.33301 6.00004 9.33301C5.63185 9.33301 5.33337 9.63149 5.33337 9.99967C5.33337 11.1042 6.2288 11.9997 7.33337 11.9997V12.6663C7.33337 13.0345 7.63185 13.333 8.00004 13.333C8.36823 13.333 8.66671 13.0345 8.66671 12.6663V11.9997C9.77128 11.9997 10.6667 11.1042 10.6667 9.99967V9.62735C10.6667 8.76649 10.1158 8.00222 9.29916 7.72999L7.12256 7.00445C6.85033 6.91371 6.66671 6.65895 6.66671 6.372V5.99967Z"/>
</svg>
