<svg width="40" height="40" viewBox="0 0 40 40" xmlns="http://www.w3.org/2000/svg">
<path d="M19.9951 3.33008C29.1989 3.3301 36.6602 10.7913 36.6602 19.9951C36.6601 29.1989 29.1989 36.6601 19.9951 36.6602C10.7913 36.6602 3.3301 29.1989 3.33008 19.9951C3.33008 10.7913 10.7913 3.33008 19.9951 3.33008ZM22.9443 10.5C20.9293 10.5001 19.1278 11.0761 17.54 12.2275C15.9523 13.379 14.8566 14.899 14.2539 16.7881H12.9316C12.8058 16.7881 12.702 16.8292 12.6211 16.9102C12.5405 16.991 12.5001 17.0942 12.5 17.2197V18.7588C12.5001 18.8846 12.5402 18.9884 12.6211 19.0693C12.702 19.1502 12.8058 19.1904 12.9316 19.1904H13.8359C13.809 19.6222 13.8043 20.0947 13.8223 20.6074H12.9316C12.8148 20.6075 12.7134 20.6499 12.6279 20.7354C12.5425 20.8208 12.5 20.9222 12.5 21.0391V22.5635C12.5 22.6803 12.5427 22.7818 12.6279 22.8672C12.7134 22.9526 12.8148 22.9961 12.9316 22.9961H14.2139C14.7807 24.9841 15.8515 26.5653 17.4258 27.7393C19 28.913 20.8395 29.5 22.9443 29.5C23.1152 29.5 23.2885 29.4953 23.4639 29.4863C23.6393 29.4773 23.8041 29.4643 23.957 29.4463C24.1099 29.4283 24.2608 29.4082 24.4092 29.3857C24.5575 29.3633 24.6921 29.3399 24.8135 29.3174C24.9348 29.2949 25.0494 29.2725 25.1572 29.25C25.2652 29.2275 25.3628 29.2028 25.4482 29.1758C25.5335 29.1489 25.6057 29.1287 25.6641 29.1152C25.7224 29.1018 25.7698 29.0863 25.8057 29.0684L25.873 29.0547C25.9719 29.0187 26.0486 28.9537 26.1025 28.8594C26.1565 28.765 26.1695 28.6635 26.1426 28.5557L25.6709 26.4102C25.6439 26.2842 25.5757 26.189 25.4678 26.126C25.351 26.0632 25.234 26.0547 25.1172 26.0996L25.0498 26.126L24.8877 26.167C24.8157 26.185 24.7321 26.2051 24.6377 26.2275C24.5434 26.25 24.4333 26.2725 24.3076 26.2949C24.1817 26.3174 24.0486 26.3375 23.9092 26.3555C23.7698 26.3734 23.6189 26.3898 23.457 26.4033C23.2953 26.4168 23.1335 26.4228 22.9717 26.4229C21.8292 26.4229 20.8008 26.1153 19.8877 25.499C18.9748 24.8829 18.3029 24.0483 17.8711 22.9961H23.0928C23.1917 22.9961 23.2823 22.962 23.3633 22.8945C23.4441 22.8271 23.4937 22.7434 23.5117 22.6445L23.835 21.1338C23.8619 20.9989 23.8348 20.8775 23.7539 20.7695C23.664 20.6616 23.5519 20.6074 23.417 20.6074H17.2227C17.1957 19.9958 17.1957 19.5233 17.2227 19.1904H23.8086C24.0512 19.1903 24.1952 19.0734 24.2402 18.8398L24.5635 17.3008C24.5904 17.175 24.5596 17.0581 24.4697 16.9502C24.3888 16.8422 24.2758 16.7881 24.1318 16.7881H17.8164C18.2662 15.7806 18.9412 14.9888 19.8408 14.4131C20.7404 13.8374 21.7571 13.5498 22.8906 13.5498L23.2891 13.5635L23.6797 13.5967L24.0312 13.6377L24.335 13.6846L24.5703 13.7314C24.6376 13.7449 24.6896 13.7566 24.7256 13.7656L24.7803 13.7793C24.897 13.8151 25.0047 13.8035 25.1035 13.7451C25.2024 13.6867 25.266 13.5993 25.293 13.4824L25.873 11.3369C25.9 11.22 25.886 11.1117 25.832 11.0127C25.7511 10.9049 25.6614 10.8375 25.5625 10.8105C24.7348 10.6036 23.8619 10.5 22.9443 10.5Z"/>
</svg>
