<svg width="24" height="24" viewBox="0 0 24 24" xmlns="http://www.w3.org/2000/svg">
<path d="M12 2C17.5228 2 22 6.47715 22 12C22 17.5228 17.5228 22 12 22C6.47715 22 2 17.5228 2 12C2 6.47715 6.47715 2 12 2ZM12 9L9 6L3 12L7.5 16.5L9 15L12 18L15 15L16.5 16.5L21 12L15 6L12 9Z"/>
<path d="M12 2C17.5228 2 22 6.47715 22 12C22 17.5228 17.5228 22 12 22V21C16.4423 21 20.1299 17.7811 20.8643 13.5488L16.5 17.9141L15 16.4141L12 19.4141L9 16.4141L7.5 17.9141L3.13477 13.5488C3.86904 17.7812 7.55769 21 12 21V22C6.47715 22 2 17.5228 2 12C2 6.47715 6.47715 2 12 2ZM12 9L9 6L3 12L7.5 16.5L9 15L12 18L15 15L16.5 16.5L21 12L15 6L12 9ZM12 3C7.55802 3 3.86942 6.21831 3.13477 10.4502L9 4.58594L12 7.58594L15 4.58594L20.8643 10.4502C20.1295 6.21839 16.4419 3 12 3Z"/>
<path d="M17.3535 12.2465L16.6465 12.9535L15 11.307L12 14.307L9 11.307L7.35352 12.9535L6.64648 12.2465L9 9.89297L12 12.893L15 9.89297L17.3535 12.2465Z"/>
</svg>
