<svg width="24" height="24" viewBox="0 0 24 24" fill="none" xmlns="http://www.w3.org/2000/svg">
<path d="M11.9971 1.99805C17.5194 1.99806 21.9961 6.47478 21.9961 11.9971C21.9961 17.5193 17.5193 21.9961 11.9971 21.9961C6.47478 21.9961 1.99806 17.5194 1.99805 11.9971C1.99805 6.47477 6.47477 1.99805 11.9971 1.99805ZM13.7666 6.3C12.5576 6.30003 11.4767 6.64564 10.524 7.33652C9.57141 8.02741 8.91398 8.93941 8.55234 10.0729H7.75898C7.68346 10.0729 7.62121 10.0975 7.57266 10.1461C7.52428 10.1946 7.50006 10.2565 7.5 10.3318V11.2553C7.50003 11.3308 7.52411 11.3931 7.57266 11.4416C7.62121 11.4901 7.68348 11.5142 7.75898 11.5143H8.30156C8.28537 11.7733 8.28257 12.0568 8.29336 12.3645H7.75898C7.68886 12.3645 7.62801 12.39 7.57676 12.4412C7.52551 12.4925 7.5 12.5533 7.5 12.6234V13.5381C7.5 13.6082 7.5256 13.6691 7.57676 13.7203C7.62801 13.7716 7.68886 13.7976 7.75898 13.7977H8.52832C8.86839 14.9905 9.51092 15.9392 10.4555 16.6436C11.4 17.3478 12.5037 17.7 13.7666 17.7C13.8691 17.7 13.9731 17.6972 14.0783 17.6918C14.1836 17.6864 14.2825 17.6786 14.3742 17.6678C14.4659 17.657 14.5565 17.6449 14.6455 17.6314C14.7345 17.618 14.8153 17.6039 14.8881 17.5904C14.9609 17.577 15.0296 17.5635 15.0943 17.55C15.1591 17.5365 15.2177 17.5217 15.2689 17.5055C15.3201 17.4893 15.3634 17.4772 15.3984 17.4691C15.4334 17.4611 15.4619 17.4518 15.4834 17.441L15.5238 17.4328C15.5831 17.4112 15.6292 17.3722 15.6615 17.3156C15.6939 17.259 15.7017 17.1981 15.6855 17.1334L15.4025 15.8461C15.3863 15.7705 15.3454 15.7134 15.2807 15.6756C15.2106 15.6379 15.1404 15.6328 15.0703 15.6598L15.0299 15.6756L14.9326 15.7002C14.8895 15.711 14.8393 15.723 14.7826 15.7365C14.726 15.75 14.66 15.7635 14.5846 15.777C14.509 15.7904 14.4292 15.8025 14.3455 15.8133C14.2619 15.8241 14.1713 15.8339 14.0742 15.842C13.9772 15.8501 13.8801 15.8537 13.783 15.8537C13.0975 15.8537 12.4805 15.6692 11.9326 15.2994C11.3849 14.9297 10.9817 14.429 10.7227 13.7977H13.8557C13.915 13.7977 13.9694 13.7772 14.018 13.7367C14.0665 13.6963 14.0962 13.646 14.107 13.5867L14.301 12.6803C14.3172 12.5993 14.3009 12.5265 14.2523 12.4617C14.1984 12.397 14.1311 12.3645 14.0502 12.3645H10.3336C10.3174 11.9975 10.3174 11.714 10.3336 11.5143H14.2852C14.4307 11.5142 14.5171 11.4441 14.5441 11.3039L14.7381 10.3805C14.7542 10.305 14.7357 10.2348 14.6818 10.1701C14.6333 10.1053 14.5655 10.0729 14.4791 10.0729H10.6898C10.9597 9.46833 11.3647 8.9933 11.9045 8.64785C12.4443 8.30241 13.0543 8.12988 13.7344 8.12988L13.9734 8.13809L14.2078 8.15801L14.4188 8.18262L14.601 8.21074L14.7422 8.23887C14.7826 8.24695 14.8138 8.25398 14.8354 8.25938L14.8682 8.26758C14.9382 8.28907 15.0028 8.28211 15.0621 8.24707C15.1215 8.21199 15.1596 8.1596 15.1758 8.08945L15.5238 6.80215C15.54 6.73198 15.5316 6.66699 15.4992 6.60762C15.4507 6.54293 15.3968 6.50251 15.3375 6.48633C14.8409 6.36218 14.3172 6.3 13.7666 6.3Z" fill="#DDC916"/>
<path d="M20.9961 11.9971C20.9961 7.18232 17.2148 3.2507 12.46 3.00977L11.9971 2.99805C7.02706 2.99805 2.99805 7.02706 2.99805 11.9971C2.99806 16.9671 7.02707 20.9961 11.9971 20.9961V21.9961C6.47478 21.9961 1.99806 17.5194 1.99805 11.9971C1.99805 6.47477 6.47477 1.99805 11.9971 1.99805C17.5194 1.99806 21.9961 6.47478 21.9961 11.9971C21.9961 17.5193 17.5193 21.9961 11.9971 21.9961V20.9961C16.8118 20.9961 20.7434 17.2148 20.9844 12.46L20.9961 11.9971ZM7.5 13.5381C7.5 13.6082 7.5256 13.6691 7.57676 13.7203C7.61508 13.7585 7.65911 13.7832 7.70801 13.793L7.75898 13.7977H8.52832C8.86839 14.9905 9.51092 15.9392 10.4555 16.6436C11.3408 17.3037 12.3661 17.6549 13.5312 17.6963L13.7666 17.7C13.8691 17.7 13.9731 17.6972 14.0783 17.6918L14.3742 17.6678L14.6455 17.6314L14.8881 17.5904L15.0943 17.55L15.2689 17.5055C15.3201 17.4893 15.3634 17.4772 15.3984 17.4691L15.4834 17.441L15.5238 17.4328C15.5831 17.4112 15.6292 17.3722 15.6615 17.3156C15.6857 17.2733 15.6964 17.2286 15.6934 17.1816L15.6855 17.1334L15.4025 15.8461C15.3863 15.7705 15.3454 15.7134 15.2807 15.6756C15.2106 15.6379 15.1404 15.6328 15.0703 15.6598L15.0299 15.6756L14.9326 15.7002C14.8895 15.711 14.8393 15.723 14.7826 15.7365C14.726 15.75 14.66 15.7635 14.5846 15.777L14.3455 15.8133L14.0742 15.842C13.9772 15.8501 13.8801 15.8537 13.783 15.8537L13.7832 14.8535C13.8553 14.8535 13.9244 14.8513 13.9912 14.8457L14.2178 14.8213C14.2881 14.8122 14.3521 14.8032 14.4092 14.793C14.4709 14.782 14.5173 14.7716 14.5508 14.7637C14.606 14.7505 14.6508 14.7396 14.6875 14.7305L14.7383 14.7168C15.0429 14.6073 15.3577 14.6239 15.6348 14.7383L15.7539 14.7949L15.7695 14.8027L15.7842 14.8115C16.0981 14.9947 16.3048 15.2921 16.3789 15.6318L16.6621 16.9189C16.7293 17.2158 16.6896 17.531 16.5293 17.8115C16.3827 18.0677 16.1531 18.2675 15.8662 18.3721L15.7959 18.3984L15.7598 18.4053C15.7071 18.4227 15.6605 18.4349 15.624 18.4434C15.623 18.4436 15.6175 18.445 15.6094 18.4473C15.5998 18.4499 15.5869 18.4538 15.5703 18.459C15.4796 18.4876 15.3867 18.5108 15.2979 18.5293C15.2252 18.5444 15.1492 18.5586 15.0703 18.5732C14.9894 18.5882 14.8971 18.6046 14.7949 18.6201C14.694 18.6354 14.5926 18.6492 14.4912 18.6611C14.3732 18.675 14.2518 18.6842 14.1299 18.6904L13.7666 18.7002C12.3047 18.7002 10.9874 18.2878 9.85742 17.4453C8.93063 16.7542 8.25018 15.8636 7.81641 14.7979H7.75879C7.41044 14.7977 7.09914 14.6566 6.87012 14.4277L6.86914 14.4268C6.63719 14.1944 6.5 13.882 6.5 13.5381V12.623C6.50008 12.3741 6.57197 12.1413 6.7002 11.9434C6.56126 11.7283 6.50013 11.4869 6.5 11.2559V10.3311C6.50024 10.0202 6.60954 9.69479 6.86426 9.43945C7.1179 9.18581 7.44417 9.07334 7.75879 9.07324H7.86426C8.31875 8.05168 9.01221 7.19781 9.93652 6.52734C11.0648 5.70913 12.3528 5.29984 13.7666 5.2998L14.2324 5.31348C14.5403 5.3313 14.8429 5.36672 15.1396 5.4209L15.5801 5.5166L15.5908 5.51855L15.6006 5.52148C15.8505 5.58968 16.0398 5.7247 16.1777 5.86621L16.2988 6.00781L16.3428 6.06543L16.377 6.12891C16.5331 6.41512 16.5661 6.73236 16.498 7.02734L16.4941 7.04492L16.4893 7.06348L16.1416 8.35059L16.1396 8.34961C16.0579 8.66271 15.863 8.93598 15.5713 9.1084C15.4353 9.18877 15.2907 9.23671 15.1455 9.26074C15.2576 9.33051 15.3588 9.42144 15.4482 9.53125L15.4502 9.53027C15.4572 9.53867 15.4629 9.54806 15.4697 9.55664C15.4734 9.56138 15.4778 9.5655 15.4814 9.57031C15.6924 9.84426 15.796 10.2034 15.7158 10.585L15.7168 10.5859L15.5254 11.4922L15.5264 11.4932C15.4882 11.691 15.3961 11.9269 15.2051 12.1289C15.3055 12.3643 15.332 12.6221 15.2812 12.876L15.2793 12.8896L15.085 13.7959L15.083 13.7949C15.0313 14.0455 14.9096 14.2636 14.7383 14.4326L14.6582 14.5049C14.4432 14.6841 14.1655 14.7979 13.8555 14.7979H13.249C13.4174 14.8351 13.5951 14.8535 13.7832 14.8535L13.783 15.8537L13.5293 15.8447C13.0281 15.8101 12.5654 15.6722 12.1416 15.4297L11.9326 15.2994C11.3849 14.9297 10.9817 14.429 10.7227 13.7977H13.8557L13.8994 13.7939C13.942 13.7863 13.9816 13.767 14.018 13.7367C14.0543 13.7064 14.0805 13.6708 14.0957 13.6299L14.107 13.5867L14.301 12.6803C14.3172 12.5993 14.3009 12.5265 14.2523 12.4617C14.1984 12.397 14.1311 12.3645 14.0502 12.3645H10.3336L10.3213 11.877C10.3213 11.7353 10.3255 11.6141 10.3336 11.5143H14.2852C14.4307 11.5142 14.5171 11.4441 14.5441 11.3039L14.7381 10.3805C14.7542 10.305 14.7357 10.2348 14.6818 10.1701C14.6454 10.1216 14.5979 10.0912 14.54 10.0791L14.4791 10.0729H10.6898C10.9597 9.46833 11.3647 8.9933 11.9045 8.64785C12.4443 8.30241 13.0543 8.12988 13.7344 8.12988L13.9734 8.13809L14.2078 8.15801L14.4188 8.18262L14.601 8.21074L14.7422 8.23887C14.7826 8.24695 14.8138 8.25398 14.8354 8.25938L14.8682 8.26758C14.9206 8.28367 14.9702 8.28422 15.0166 8.26855L15.0621 8.24707C15.1065 8.22079 15.1389 8.18451 15.1592 8.13867L15.1758 8.08945L15.5238 6.80215C15.54 6.73198 15.5316 6.66699 15.4992 6.60762C15.4507 6.54293 15.3968 6.50251 15.3375 6.48633C14.8409 6.36218 14.3172 6.3 13.7666 6.3C12.5576 6.30003 11.4767 6.64564 10.524 7.33652L10.3486 7.46875C9.54743 8.09748 8.97277 8.89573 8.62402 9.86328L8.55234 10.0729H7.75898C7.68346 10.0729 7.62121 10.0975 7.57266 10.1461C7.52428 10.1946 7.50006 10.2565 7.5 10.3318V11.2553C7.50003 11.3308 7.52411 11.3931 7.57266 11.4416C7.62121 11.4901 7.68348 11.5142 7.75898 11.5143H8.30156C8.28537 11.7733 8.28257 12.0568 8.29336 12.3645H7.75898C7.68886 12.3645 7.62801 12.39 7.57676 12.4412C7.52551 12.4925 7.5 12.5533 7.5 12.6234V13.5381Z" fill="#FFE500"/>
</svg>
