<svg width="15" height="17" viewBox="0 0 15 17" xmlns="http://www.w3.org/2000/svg">
<path d="M2.00084 0.800781L14.2138 15.3556L12.6817 16.6412L0.46875 2.08636L2.00084 0.800781Z"/>
<path d="M2.25084 10.8525C3.51584 12.1495 5.62084 13 8.00084 13C8.63651 13 9.25208 12.9368 9.83775 12.8232L11.7616 15.1152C10.7326 15.6678 9.42517 16 8.00084 16C4.68684 16 2.00084 14.21 2.00084 12C2.00084 11.6 2.08884 11.2155 2.25084 10.8525ZM13.7508 10.8525C13.9143 11.2129 13.9995 11.6043 14.0008 12C14.0008 12.3178 13.9437 12.6265 13.8387 12.9229L12.7733 11.6533C13.1367 11.4113 13.4661 11.1445 13.7508 10.8525ZM2.25084 6.85254C3.24861 7.87555 4.76932 8.61862 6.53502 8.8877L9.09068 11.9326C8.73721 11.9758 8.37308 12 8.00084 12C4.68684 12 2.00084 10.21 2.00084 8C2.00084 7.6 2.08884 7.21554 2.25084 6.85254ZM13.7508 6.85254C13.9143 7.21291 13.9995 7.6043 14.0008 8C14.0008 9.14021 13.2849 10.167 12.1376 10.8955L10.3104 8.71875C11.7146 8.36801 12.916 7.70854 13.7508 6.85254ZM8.00084 0C11.3148 0 14.0008 1.79 14.0008 4C14.0008 5.8436 12.1314 7.3937 9.58775 7.85742L3.90025 1.08008C4.973 0.410335 6.41488 0 8.00084 0ZM5.48033 7.62988C3.42592 6.99513 2.00084 5.60955 2.00084 4C2.00084 3.842 2.01612 3.68641 2.04283 3.5332L5.48033 7.62988Z"/>
</svg>
