<svg width="24" height="24" viewBox="0 0 24 24" fill="none" xmlns="http://www.w3.org/2000/svg">
<path d="M21.5 12C21.5 17.2467 17.2467 21.5 12 21.5C6.75329 21.5 2.5 17.2467 2.5 12C2.5 6.75329 6.75329 2.5 12 2.5C17.2467 2.5 21.5 6.75329 21.5 12ZM10.5 9C10.5 8.72386 10.7239 8.5 11 8.5H13C13.2761 8.5 13.5 8.72386 13.5 9C13.5 9.82843 14.1716 10.5 15 10.5C15.8284 10.5 16.5 9.82843 16.5 9C16.5 7.23676 15.1961 5.77806 13.5 5.53544V5C13.5 4.17157 12.8284 3.5 12 3.5C11.1716 3.5 10.5 4.17157 10.5 5V5.53544C8.80385 5.77806 7.5 7.23676 7.5 9V9.55848C7.5 11.065 8.46401 12.4025 9.8932 12.8789L13.1581 13.9672C13.3623 14.0352 13.5 14.2263 13.5 14.4415V15C13.5 15.2761 13.2761 15.5 13 15.5H11C10.7239 15.5 10.5 15.2761 10.5 15C10.5 14.1716 9.82843 13.5 9 13.5C8.17157 13.5 7.5 14.1716 7.5 15C7.5 16.7632 8.80385 18.2219 10.5 18.4646V19C10.5 19.8284 11.1716 20.5 12 20.5C12.8284 20.5 13.5 19.8284 13.5 19V18.4646C15.1961 18.2219 16.5 16.7632 16.5 15V14.4415C16.5 12.935 15.536 11.5975 14.1068 11.1211L10.8419 10.0328C10.6377 9.96477 10.5 9.7737 10.5 9.55848V9Z" fill="#DDC916" stroke="#FFE500"/>
</svg>
