<svg width="24" height="24" viewBox="0 0 24 24" fill="none" xmlns="http://www.w3.org/2000/svg">
<path d="M12 2C17.5228 2 22 6.47715 22 12C22 17.5228 17.5228 22 12 22C6.47715 22 2 17.5228 2 12C2 6.47715 6.47715 2 12 2ZM13.3145 4.5C11.7105 4.5 10.2766 4.95443 9.0127 5.86328C7.7487 6.77237 6.8763 7.97337 6.39648 9.46484H5.34375C5.24349 9.46484 5.16113 9.49663 5.09668 9.56055C5.03229 9.62445 5 9.70628 5 9.80566V11.0195C5 11.1189 5.03232 11.2007 5.09668 11.2646C5.16113 11.3286 5.24349 11.3604 5.34375 11.3604H6.06348C6.04199 11.7013 6.03841 12.0747 6.05273 12.4795H5.34375C5.25066 12.4795 5.17057 12.5136 5.10254 12.5811C5.03451 12.6485 5 12.728 5 12.8203V14.0244C5.00007 14.1166 5.03457 14.1963 5.10254 14.2637C5.17054 14.331 5.25072 14.3652 5.34375 14.3652H6.36426C6.81542 15.9347 7.66778 17.1826 8.9209 18.1094C10.1742 19.0362 11.6387 19.5 13.3145 19.5C13.4505 19.5 13.5889 19.4964 13.7285 19.4893C13.868 19.4822 13.9985 19.4712 14.1201 19.457C14.2418 19.4428 14.3623 19.4269 14.4805 19.4092C14.5984 19.3914 14.7062 19.3742 14.8027 19.3564C14.8993 19.3387 14.9904 19.3205 15.0762 19.3027C15.1621 19.285 15.2396 19.2654 15.3076 19.2441C15.3754 19.2229 15.4331 19.2069 15.4795 19.1963C15.5258 19.1857 15.5633 19.1733 15.5918 19.1592L15.6455 19.1484C15.7242 19.12 15.7852 19.0686 15.8281 18.9941C15.8711 18.9196 15.8818 18.8391 15.8604 18.7539L15.4844 17.0605C15.4629 16.9612 15.4091 16.8866 15.3232 16.8369C15.2301 16.7872 15.137 16.7799 15.0439 16.8154L14.9902 16.8369L14.8613 16.8682C14.8041 16.8823 14.7381 16.8993 14.6631 16.917C14.5879 16.9347 14.4997 16.952 14.3994 16.9697C14.2993 16.9875 14.1938 17.0034 14.083 17.0176C13.972 17.0318 13.8516 17.044 13.7227 17.0547C13.5938 17.0653 13.4648 17.0713 13.3359 17.0713C12.4265 17.0713 11.6087 16.8273 10.8818 16.3408C10.155 15.8543 9.61914 15.1961 9.27539 14.3652H13.4326C13.5114 14.3652 13.583 14.3384 13.6475 14.2852C13.7119 14.2319 13.7513 14.166 13.7656 14.0879L14.0234 12.8945C14.0448 12.7882 14.0233 12.6925 13.959 12.6074C13.8874 12.5222 13.7979 12.4795 13.6904 12.4795H8.75977C8.73828 11.9965 8.73828 11.6231 8.75977 11.3604H14.002C14.1953 11.3604 14.3099 11.2685 14.3457 11.084L14.6035 9.86914C14.6249 9.76987 14.5997 9.67788 14.5283 9.59277C14.4639 9.50755 14.3743 9.46484 14.2598 9.46484H9.23242C9.59047 8.66945 10.1277 8.04438 10.8438 7.58984C11.5599 7.1353 12.3691 6.90723 13.2715 6.90723L13.5889 6.91797L13.9004 6.94531L14.1797 6.97656L14.4209 7.01465L14.6094 7.05176C14.6628 7.06237 14.7039 7.07105 14.7324 7.07812L14.7754 7.08887C14.8684 7.11725 14.9545 7.10858 15.0332 7.0625C15.112 7.01635 15.1621 6.94678 15.1836 6.85449L15.6455 5.16016C15.6669 5.06809 15.656 4.98321 15.6133 4.90527C15.5488 4.82005 15.4772 4.76643 15.3984 4.74512C14.7396 4.58176 14.0449 4.5 13.3145 4.5Z" fill="#DC101B"/>
<path d="M21 12C21 8.49583 18.9964 5.46121 16.0732 3.97461C16.1498 4.02818 16.2178 4.08677 16.2773 4.14746L16.4111 4.30176L16.4551 4.36035L16.4902 4.42383C16.6587 4.7308 16.6933 5.06965 16.6201 5.38574L16.6104 5.42285L16.1484 7.11719L16.1465 7.11621C16.06 7.44791 15.8545 7.73983 15.5391 7.9248L15.5381 7.92578C15.216 8.11418 14.8588 8.14405 14.5332 8.05762L14.4922 8.04785C14.4922 8.04785 14.486 8.04701 14.4717 8.04395C14.4578 8.04097 14.4394 8.03687 14.416 8.03223L14.2275 7.99609L14.0625 7.96973L13.7891 7.93945L13.5215 7.91504L13.2686 7.90723C12.5452 7.90771 11.9252 8.08844 11.3799 8.43457C11.3648 8.44412 11.3508 8.4551 11.3359 8.46484H14.2598V9.46484H9.23242C9.59047 8.66945 10.1277 8.04438 10.8438 7.58984C11.5599 7.1353 12.3691 6.90723 13.2715 6.90723L13.5889 6.91797L13.9004 6.94531L14.1797 6.97656L14.4209 7.01465L14.6094 7.05176C14.6628 7.06237 14.7039 7.07105 14.7324 7.07812L14.7754 7.08887C14.8684 7.11725 14.9545 7.10858 15.0332 7.0625C15.112 7.01635 15.1621 6.94678 15.1836 6.85449L15.6455 5.16016C15.6669 5.06809 15.656 4.98321 15.6133 4.90527C15.5488 4.82005 15.4772 4.76643 15.3984 4.74512C14.7396 4.58176 14.0449 4.5 13.3145 4.5C11.7105 4.5 10.2766 4.95443 9.0127 5.86328C7.7487 6.77237 6.8763 7.97337 6.39648 9.46484H5.34375V8.46484H5.70117C6.2792 7.08527 7.19185 5.94139 8.42871 5.05176C9.86812 4.01668 11.5078 3.5 13.3145 3.5C14.1198 3.5 14.8956 3.59021 15.6387 3.77441L15.6494 3.77734L15.6592 3.78027C15.6654 3.78195 15.6716 3.78438 15.6777 3.78613C14.5546 3.2825 13.3106 3 12 3C7.02944 3 3 7.02944 3 12C3 16.9706 7.02944 21 12 21V22C6.47715 22 2 17.5228 2 12C2 6.47715 6.47715 2 12 2C17.5228 2 22 6.47715 22 12C22 17.5228 17.5228 22 12 22V21C13.391 21 14.7079 20.6836 15.8838 20.1201L15.8682 20.123C15.8066 20.144 15.7505 20.16 15.7031 20.1709L15.6064 20.1982C15.4996 20.2317 15.3886 20.2594 15.2783 20.2822C15.1885 20.3008 15.0897 20.3203 14.9834 20.3398C14.8716 20.3604 14.7516 20.38 14.6289 20.3984C14.499 20.418 14.3677 20.4349 14.2363 20.4502C14.0918 20.4671 13.9391 20.4801 13.7793 20.4883C13.6236 20.4962 13.4683 20.5 13.3145 20.5C11.4415 20.5 9.76464 19.9769 8.32617 18.9131C7.08906 17.9981 6.19542 16.8066 5.64551 15.3652H5.34375C5.02016 15.3652 4.72776 15.2518 4.49512 15.0605L4.39844 14.9736C4.15255 14.7298 4.00034 14.3992 4 14.0254V12.8203C4 12.472 4.13215 12.1623 4.34766 11.9248C4.10792 11.6622 4 11.338 4 11.0195V9.80566C4 9.46762 4.1201 9.12101 4.39258 8.85059L4.49805 8.75586C4.75169 8.55251 5.05293 8.46484 5.34375 8.46484V9.46484C5.24349 9.46484 5.16113 9.49663 5.09668 9.56055C5.03229 9.62445 5 9.70628 5 9.80566V11.0195C5 11.1189 5.03232 11.2007 5.09668 11.2646C5.16113 11.3286 5.24349 11.3604 5.34375 11.3604H6.06348C6.04199 11.7013 6.03841 12.0747 6.05273 12.4795H5.34375C5.25066 12.4795 5.17057 12.5136 5.10254 12.5811C5.03451 12.6485 5 12.728 5 12.8203V14.0244C5.00007 14.1166 5.03457 14.1963 5.10254 14.2637C5.17054 14.331 5.25072 14.3652 5.34375 14.3652H6.36426C6.81542 15.9347 7.66778 17.1826 8.9209 18.1094C10.1742 19.0362 11.6387 19.5 13.3145 19.5C13.4505 19.5 13.5889 19.4964 13.7285 19.4893C13.868 19.4822 13.9985 19.4712 14.1201 19.457C14.2418 19.4428 14.3623 19.4269 14.4805 19.4092C14.5984 19.3914 14.7062 19.3742 14.8027 19.3564C14.8993 19.3387 14.9904 19.3205 15.0762 19.3027C15.1621 19.285 15.2396 19.2654 15.3076 19.2441C15.3754 19.2229 15.4331 19.2069 15.4795 19.1963C15.5258 19.1857 15.5633 19.1733 15.5918 19.1592L15.6455 19.1484C15.7242 19.12 15.7852 19.0686 15.8281 18.9941C15.8711 18.9196 15.8818 18.8391 15.8604 18.7539L15.4844 17.0605C15.4629 16.9612 15.4091 16.8866 15.3232 16.8369C15.2301 16.7872 15.137 16.7799 15.0439 16.8154L14.9902 16.8369L14.8613 16.8682C14.8041 16.8823 14.7381 16.8993 14.6631 16.917C14.5879 16.9347 14.4997 16.952 14.3994 16.9697C14.2993 16.9875 14.1938 17.0034 14.083 17.0176C13.972 17.0318 13.8516 17.044 13.7227 17.0547C13.5938 17.0653 13.4648 17.0713 13.3359 17.0713V16.0713C13.4341 16.0713 13.5357 16.0663 13.6406 16.0576C13.7581 16.0479 13.8632 16.0373 13.9561 16.0254L14.2246 15.9854C14.3172 15.969 14.3851 15.9548 14.4336 15.9434C14.5013 15.9274 14.5545 15.914 14.6211 15.8975L14.626 15.8965L14.6875 15.8809C15.0222 15.7532 15.3661 15.771 15.668 15.8955L15.7939 15.9551L15.8096 15.9629L15.8242 15.9717C16.1583 16.1651 16.3794 16.4783 16.46 16.8438L16.8369 18.5371H16.835C16.9093 18.8594 16.8655 19.1961 16.6943 19.4932C16.6145 19.6315 16.5117 19.754 16.3906 19.8555C19.1403 18.3153 21 15.3757 21 12ZM14.2598 8.46484C14.6464 8.46484 15.0256 8.62273 15.293 8.9502C15.2964 8.95424 15.3004 8.9588 15.3037 8.96289C15.3109 8.97188 15.3192 8.98002 15.3262 8.98926L15.3242 8.99023C15.5505 9.28006 15.6691 9.66237 15.5811 10.0762L15.3242 11.292L15.3223 11.291C15.2698 11.5459 15.1412 11.8449 14.8594 12.0713C14.8469 12.0813 14.8329 12.0892 14.8203 12.0986C15.0101 12.3972 15.0732 12.7468 15.0039 13.0918L15.002 13.0986L15.001 13.1055L14.7432 14.2988L14.7412 14.2979C14.6774 14.6064 14.5129 14.8666 14.2842 15.0557C14.0536 15.2462 13.7604 15.3652 13.4326 15.3652H11.2383C11.3027 15.4153 11.3696 15.4636 11.4385 15.5098L11.6494 15.6406C12.151 15.9263 12.7067 16.0713 13.3359 16.0713V17.0713C12.4265 17.0713 11.6087 16.8273 10.8818 16.3408C10.155 15.8543 9.61914 15.1961 9.27539 14.3652H13.4326C13.5114 14.3652 13.583 14.3384 13.6475 14.2852C13.7119 14.2319 13.7513 14.166 13.7656 14.0879L14.0234 12.8945C14.0448 12.7882 14.0233 12.6925 13.959 12.6074C13.8874 12.5222 13.7979 12.4795 13.6904 12.4795H8.75977C8.73828 11.9965 8.73828 11.6231 8.75977 11.3604H14.002C14.1953 11.3604 14.3099 11.2685 14.3457 11.084L14.6035 9.86914C14.6249 9.76987 14.5997 9.67788 14.5283 9.59277C14.4639 9.50755 14.3743 9.46484 14.2598 9.46484V8.46484Z" fill="#F81F2B"/>
</svg>
