<svg width="24" height="24" viewBox="0 0 24 24" fill="none" xmlns="http://www.w3.org/2000/svg">
<path fill-rule="evenodd" clip-rule="evenodd" d="M12.0008 12.0004C15.9776 12.0004 19.2008 9.85239 19.2008 7.20039C19.2008 4.54839 15.9776 2.40039 12.0008 2.40039C8.02398 2.40039 4.80078 4.54839 4.80078 7.20039C4.80078 9.85239 8.02398 12.0004 12.0008 12.0004ZM12.0008 13.2004C14.8568 13.2004 17.3828 12.1804 18.9008 10.624C19.0638 10.9833 19.1619 11.368 19.1914 11.7602C19.0462 11.7624 18.9016 11.8155 18.7908 11.9195L13.7427 16.659C13.1849 16.7514 12.6014 16.8004 12.0008 16.8004C8.02398 16.8004 4.80078 14.6524 4.80078 12.0004C4.80078 11.5204 4.90638 11.0596 5.10078 10.624C6.61878 12.1804 9.14478 13.2004 12.0008 13.2004ZM13.7336 17.8724C13.1743 17.9563 12.5947 18.0004 12.0008 18.0004C9.14478 18.0004 6.61878 16.9804 5.10078 15.424C4.90638 15.8596 4.80078 16.3204 4.80078 16.8004C4.80078 19.4524 8.02398 21.6004 12.0008 21.6004C13.7517 21.6004 15.3565 21.184 16.6045 20.4916V18.1883C16.6045 18.0138 16.4538 17.8724 16.268 17.8724H13.7336Z" fill="#DDC916"/>
<path d="M22.5398 16.1726L19.435 13.2576C19.3057 13.1362 19.0959 13.1362 18.9665 13.2576L15.8618 16.1726C15.6704 16.3522 15.8059 16.6593 16.0765 16.6593H17.5249C17.6311 16.6593 17.7172 16.7401 17.7172 16.8398V21.0741C17.7172 21.2514 17.8703 21.3951 18.0591 21.3951H20.3425C20.5313 21.3951 20.6844 21.2514 20.6844 21.0741V16.8398C20.6844 16.7401 20.7705 16.6593 20.8767 16.6593H22.3251C22.5956 16.6593 22.7311 16.3522 22.5398 16.1726Z" fill="#DDC916"/>
<path fill-rule="evenodd" clip-rule="evenodd" d="M4.81219 11.7279C4.8443 11.3455 4.94346 10.9765 5.10078 10.624C5.34333 10.8727 5.61161 11.1077 5.90287 11.327C7.43443 12.4803 9.60112 13.2004 12.0008 13.2004C14.1394 13.2004 16.093 12.6284 17.5769 11.6876C17.7582 11.5727 17.9324 11.4522 18.0991 11.3266C18.1256 11.3068 18.1518 11.2867 18.1778 11.2666C18.1778 11.2666 18.1778 11.2666 18.1778 11.2666C18.3502 11.1332 18.5142 10.9941 18.6693 10.85C18.7488 10.776 18.826 10.7006 18.9008 10.624C18.9237 10.6746 18.9454 10.7257 18.9658 10.7773C19.0861 11.0819 19.1612 11.4024 19.1888 11.7283C19.1897 11.739 19.1906 11.7496 19.1914 11.7602C19.1776 11.7604 19.1638 11.7611 19.1501 11.7622C19.1392 11.7631 19.1282 11.7643 19.1174 11.7658C18.9979 11.782 18.8828 11.8332 18.7908 11.9195L13.7427 16.659C13.1849 16.7514 12.6014 16.8004 12.0008 16.8004C8.02398 16.8004 4.80078 14.6524 4.80078 12.0004C4.80078 11.9088 4.80462 11.818 4.81219 11.7279ZM5.86074 12.5143C6.02942 13.2369 6.55595 13.9574 7.46414 14.5628C8.5812 15.3074 10.1822 15.8004 12.0008 15.8004C12.442 15.8004 12.8718 15.7713 13.2859 15.7162L15.3982 13.7331C14.3367 14.0368 13.189 14.2004 12.0008 14.2004C9.68824 14.2004 7.52912 13.5808 5.86074 12.5143ZM4.81219 16.5279C4.8443 16.1455 4.94346 15.7765 5.10078 15.424C5.34333 15.6727 5.61161 15.9077 5.90287 16.127C7.43443 17.2803 9.60112 18.0004 12.0008 18.0004C12.5947 18.0004 13.1743 17.9563 13.7336 17.8724H16.268C16.4538 17.8724 16.6045 18.0138 16.6045 18.1883V20.4916C15.3565 21.184 13.7517 21.6004 12.0008 21.6004C8.02398 21.6004 4.80078 19.4524 4.80078 16.8004C4.80078 16.7088 4.80462 16.618 4.81219 16.5279ZM5.86074 17.3143C6.02943 18.037 6.55595 18.7574 7.46414 19.3628C8.5812 20.1074 10.1822 20.6004 12.0008 20.6004C13.358 20.6004 14.5972 20.3256 15.6045 19.8742V18.8724H13.8066C13.2215 18.9565 12.6176 19.0004 12.0008 19.0004C9.68824 19.0004 7.52912 18.3808 5.86074 17.3143ZM15.8618 16.1726C15.6704 16.3522 15.8059 16.6593 16.0765 16.6593H17.5249C17.6311 16.6593 17.7172 16.7401 17.7172 16.8398V21.0741C17.7172 21.2514 17.8703 21.3951 18.0591 21.3951H20.3425C20.5313 21.3951 20.6844 21.2514 20.6844 21.0741V16.8398C20.6844 16.7401 20.7705 16.6593 20.8767 16.6593H22.3251C22.5956 16.6593 22.7311 16.3522 22.5398 16.1726L19.435 13.2576C19.3057 13.1362 19.0959 13.1362 18.9665 13.2576L15.8618 16.1726ZM17.8271 15.699C18.3081 15.8263 18.7172 16.2503 18.7172 16.8398V20.3951H19.6844V16.8398C19.6844 16.2503 20.0935 15.8263 20.5744 15.699L19.2008 14.4094L17.8271 15.699ZM16.5374 9.76281C17.6614 9.01359 18.2008 8.08812 18.2008 7.20039C18.2008 6.31267 17.6614 5.38719 16.5374 4.63797C15.4204 3.89335 13.8194 3.40039 12.0008 3.40039C10.1822 3.40039 8.5812 3.89335 7.46414 4.63797C6.34018 5.38719 5.80078 6.31267 5.80078 7.20039C5.80078 8.08812 6.34018 9.01359 7.46414 9.76281C8.5812 10.5074 10.1822 11.0004 12.0008 11.0004C13.8194 11.0004 15.4204 10.5074 16.5374 9.76281ZM19.2008 7.20039C19.2008 9.85239 15.9776 12.0004 12.0008 12.0004C8.02398 12.0004 4.80078 9.85239 4.80078 7.20039C4.80078 4.54839 8.02398 2.40039 12.0008 2.40039C15.9776 2.40039 19.2008 4.54839 19.2008 7.20039Z" fill="#FFE500"/>
</svg>
