<svg width="25" height="24" viewBox="0 0 25 24" fill="none" xmlns="http://www.w3.org/2000/svg">
<path d="M22 12C22 17.2467 17.7467 21.5 12.5 21.5C7.25329 21.5 3 17.2467 3 12C3 6.75329 7.25329 2.5 12.5 2.5C17.7467 2.5 22 6.75329 22 12ZM11 9C11 8.72386 11.2239 8.5 11.5 8.5H13.5C13.7761 8.5 14 8.72386 14 9C14 9.82843 14.6716 10.5 15.5 10.5C16.3284 10.5 17 9.82843 17 9C17 7.23676 15.6961 5.77806 14 5.53544V5C14 4.17157 13.3284 3.5 12.5 3.5C11.6716 3.5 11 4.17157 11 5V5.53544C9.30385 5.77806 8 7.23676 8 9V9.55848C8 11.065 8.96401 12.4025 10.3932 12.8789L13.6581 13.9672C13.8623 14.0352 14 14.2263 14 14.4415V15C14 15.2761 13.7761 15.5 13.5 15.5H11.5C11.2239 15.5 11 15.2761 11 15C11 14.1716 10.3284 13.5 9.5 13.5C8.67157 13.5 8 14.1716 8 15C8 16.7632 9.30385 18.2219 11 18.4646V19C11 19.8284 11.6716 20.5 12.5 20.5C13.3284 20.5 14 19.8284 14 19V18.4646C15.6961 18.2219 17 16.7632 17 15V14.4415C17 12.935 16.036 11.5975 14.6068 11.1211L11.3419 10.0328C11.1377 9.96477 11 9.7737 11 9.55848V9Z" fill="#DC101B" stroke="#F81F2B"/>
</svg>
