<svg width="25" height="24" viewBox="0 0 25 24" fill="none" xmlns="http://www.w3.org/2000/svg">
<path d="M3.22907 15.8403L4.87886 15.4162C5.11041 15.3566 5.23727 15.1092 5.15268 14.8856C4.7402 13.7955 4.51785 12.6173 4.52085 11.3952L3.22907 15.8403ZM3.22907 15.8403C3.02698 15.8924 2.81889 15.7803 2.75136 15.5827L3.22907 15.8403ZM12.2154 4.22366L12.2153 4.22364C12.0749 4.18817 11.9255 4.18814 11.7844 4.22375L12.2154 4.22366ZM12.2154 4.22366L12.9603 4.41172L11.5456 7.04117L11.5456 7.04123C11.2975 7.50249 11.494 8.07745 11.9727 8.29025L12.903 8.70377L12.2701 10.6474L12.2701 10.6475C12.0449 11.3396 12.8943 11.8733 13.4201 11.3697L13.4201 11.3697L15.9086 8.98582L15.9086 8.98581C16.2492 8.65949 16.2802 8.1255 15.9795 7.76201L15.3061 6.94797L16.6229 5.33685L17.9556 5.6735C17.9556 5.6735 17.9556 5.6735 17.9556 5.6735C18.0916 5.70785 18.1784 5.8252 18.1789 5.94938C18.1789 5.94956 18.1789 5.94974 18.1789 5.94992L18.1789 11.3961L18.1789 11.3974C18.1887 15.2207 15.6595 18.5492 12.0001 19.5719C9.79293 18.9551 7.99759 17.4997 6.9218 15.603L6.96588 15.3522L6.96589 15.3521C7.03296 14.9702 6.77182 14.634 6.42479 14.5681C6.03148 13.5834 5.81842 12.5118 5.82126 11.3974V11.3962V5.95048C5.8218 5.82508 5.9089 5.70786 6.04488 5.6735C6.04488 5.6735 6.04489 5.6735 6.04489 5.6735L11.7844 4.22376L12.2154 4.22366ZM20.1871 10.8008L20.4594 10.3055L21.442 8.51879L21.442 3.9764C21.442 3.97618 21.442 3.97597 21.442 3.97575C21.4398 3.29153 20.9729 2.69384 20.3028 2.52441L20.3028 2.52441C19.969 2.44001 19.5806 2.34197 19.1577 2.2355L17.8808 3.79781L18.3964 3.92805L18.2746 4.41046L18.3965 3.92805C19.3236 4.16223 19.9769 4.99074 19.9792 5.94652L19.9792 5.94776L19.9792 11.3939C19.9792 11.3942 19.9792 11.3944 19.9792 11.3947C19.9909 16.1197 16.7998 20.2254 12.2194 21.3763L12.2194 21.3763C12.0806 21.4112 11.93 21.4138 11.7809 21.3764L11.7807 21.3763C9.65585 20.8424 7.82942 19.672 6.48342 18.0986L6.12805 20.1216C7.73713 21.7651 9.76598 22.9312 12.0003 23.4973C13.5978 23.0924 15.0634 22.3629 16.4135 21.3968C16.4156 21.3854 16.4193 21.3654 16.4244 21.3378L16.0139 20.6999C16.0994 20.6437 16.1941 20.6035 16.2945 20.5804L16.4474 21.2139C16.505 20.9042 16.6226 20.2722 16.7329 19.6818L16.7903 19.3746L17.0916 19.2916C17.5469 19.1662 18.0215 19.036 18.3871 18.9359L18.8377 18.8125L18.9714 18.7759L19.0099 18.7653L19.0211 18.7622L19.025 18.7612L20.1871 10.8008ZM20.1871 10.8008L20.7118 11.0107L21.4543 11.3077C21.4413 14.0831 20.6248 16.5853 19.0286 18.7601M20.1871 10.8008L19.0286 18.7601M16.5291 21.552C16.5254 21.5532 16.5219 21.5542 16.5185 21.555L16.4953 21.454L16.4953 21.4538L16.4932 21.4446L16.5075 21.4669L16.5091 21.4694M16.5291 21.552L16.5292 21.5524C16.5341 21.5512 16.5434 21.5481 16.555 21.5407L16.5549 21.5405M16.5291 21.552L16.5105 21.4751L16.5105 21.4749L16.5091 21.4694M16.5291 21.552C16.5373 21.5494 16.5461 21.5456 16.5549 21.5405M16.5549 21.5405C16.5555 21.5402 16.5562 21.5398 16.5568 21.5395C16.5568 21.5395 16.5568 21.5395 16.5568 21.5394C16.5589 21.5382 16.561 21.5369 16.5631 21.5356L16.5031 21.4442L16.5085 21.4669L16.5091 21.4694M16.5549 21.5405L16.5324 21.5055L16.5318 21.5046L16.5091 21.4694M19.0286 18.7601C19.0275 18.7604 19.0263 18.7608 19.025 18.7611L19.0286 18.7601ZM2.04578 11.4154L2.04554 11.4154L2.04578 11.4154ZM4.02085 11.3946C4.01787 12.6399 4.23766 13.8425 4.64672 14.9596L3.19453 15.333C2.77353 14.0803 2.55514 12.7716 2.5457 11.4406L3.53196 9.77925L3.81294 9.30594L3.31489 9.0716L2.55805 8.71549V3.97675C2.56021 3.29146 3.02717 2.69386 3.69769 2.52444C3.6977 2.52443 3.6977 2.52443 3.69771 2.52443L11.4358 0.569636C11.4359 0.569619 11.436 0.569603 11.436 0.569586C11.4361 0.569577 11.4361 0.569568 11.4362 0.569559C11.8045 0.476813 12.195 0.476813 12.5633 0.569559C12.5634 0.569568 12.5634 0.569577 12.5635 0.569586C12.5635 0.569603 12.5636 0.569619 12.5636 0.569636L14.7325 1.11754L13.8397 2.77708L12.6563 2.47817C12.6563 2.47816 12.6563 2.47816 12.6562 2.47815C12.2267 2.36961 11.7733 2.36962 11.3435 2.47825C11.3434 2.47826 11.3434 2.47827 11.3434 2.47828L5.60394 3.928L5.60394 3.928C4.67654 4.16226 4.02329 4.99084 4.02085 5.94749V5.94877V11.3946ZM4.75435 14.9319L4.754 14.932C4.75412 14.932 4.75425 14.9319 4.75437 14.9319L4.75435 14.9319ZM3.10442 15.3561C3.10455 15.3561 3.10467 15.3561 3.10479 15.356L3.10456 15.3561L3.10442 15.3561ZM2.54553 11.4119C2.54553 11.4122 2.54554 11.4126 2.54554 11.4129L2.54553 11.4119ZM13.8028 2.84572C13.8028 2.84564 13.8029 2.84556 13.8029 2.84548L13.8028 2.84564L13.8028 2.84572ZM15.2541 7.01149C15.2541 7.01152 15.2541 7.01154 15.2541 7.01157L15.2541 7.01149ZM6.9021 15.7152L6.90211 15.7151C6.9021 15.7152 6.90209 15.7153 6.90207 15.7153L6.9021 15.7152ZM16.4404 21.3775L16.4404 21.3775L16.4404 21.3775ZM17.7286 3.75937C17.7286 3.75938 17.7287 3.7594 17.7288 3.75942L17.7286 3.75937L17.7286 3.75937Z" fill="#074ACB" stroke="#1161FA"/>
</svg>
