<svg width="24" height="24" viewBox="0 0 24 24" xmlns="http://www.w3.org/2000/svg">
<path d="M4.52085 11.3952V5.94876C4.5227 5.22279 5.01842 4.59161 5.72639 4.41278L11.4659 2.96303C11.8154 2.87469 12.1846 2.87469 12.5338 2.96293L13.7928 3.28092C13.9706 3.32584 14.1563 3.2441 14.2432 3.08253L15.2334 1.24181C15.3556 1.01335 15.2324 0.728776 14.9788 0.664047L12.6858 0.084788C12.2371 -0.0282627 11.7624 -0.0282627 11.3137 0.084788L3.57523 2.03966C2.68433 2.26476 2.06055 3.06062 2.05805 3.97603V8.77868C2.05805 8.93375 2.14759 9.07482 2.28765 9.14085L3.10201 9.52402L2.10157 11.2093C2.06455 11.2713 2.04504 11.3428 2.04554 11.4154C2.05254 12.841 2.29015 14.2431 2.75136 15.5827C2.81889 15.7803 3.02698 15.8924 3.22907 15.8403L4.87886 15.4162C5.11041 15.3566 5.23727 15.1092 5.15268 14.8856C4.7402 13.7955 4.51785 12.6173 4.52085 11.3952Z"/>
<path d="M12.3378 3.73887C12.1169 3.68305 11.8832 3.6831 11.6619 3.73898L5.92243 5.18872C5.56937 5.27791 5.32216 5.59085 5.32126 5.94972V11.3962C5.31806 12.6545 5.57502 13.8621 6.04668 14.9618C6.08105 15.0419 6.16949 15.0843 6.25393 15.0626C6.37913 15.0304 6.49579 15.1383 6.47343 15.2656L6.40965 15.6286C6.40259 15.6687 6.4093 15.7101 6.42885 15.7458C7.58237 17.844 9.56076 19.4485 12.0001 20.09C15.9483 19.0516 18.6893 15.491 18.6789 11.3961V5.94866C18.678 5.5908 18.4309 5.27786 18.0781 5.18872L16.6837 4.83652C16.5332 4.7985 16.3742 4.85102 16.2759 4.97128L14.8669 6.69515C14.7459 6.84322 14.7464 7.05631 14.8684 7.20338L15.5942 8.08072C15.7279 8.24229 15.7141 8.4797 15.5627 8.62476L13.0742 11.0086C12.924 11.1525 12.6812 11 12.7455 10.8022L13.4062 8.77308C13.4698 8.57799 13.3752 8.3664 13.1881 8.28336L12.1758 7.83336C11.963 7.73877 11.8756 7.48315 11.9859 7.27806L13.4613 4.53588C13.5847 4.30643 13.4595 4.0221 13.2068 3.95827L12.3378 3.73887Z"/>
<path d="M21.7029 10.8686L20.8975 10.5465L21.892 8.73816C21.9245 8.67864 21.942 8.61261 21.942 8.54508V3.97503C21.9395 3.06062 21.3157 2.26476 20.4253 2.03966C20.0752 1.95112 19.665 1.84758 19.2178 1.73503C19.0677 1.69701 18.9086 1.74953 18.8106 1.87009L17.3943 3.60291C17.2089 3.82977 17.3221 4.17242 17.6062 4.24415L18.274 4.41283C18.9818 4.59161 19.4774 5.22279 19.4792 5.94776V11.3952C19.4907 15.8911 16.4552 19.7965 12.0976 20.8914C12.0359 20.9069 11.969 20.9081 11.9026 20.8914C9.80962 20.3655 8.02192 19.1911 6.73014 17.6144C6.51394 17.3506 6.08715 17.4645 6.02813 17.8005L5.6267 20.0857C5.60469 20.2118 5.6442 20.3414 5.73374 20.4334C7.416 22.1657 9.54445 23.3932 11.8895 23.985C11.9552 24.0035 12.0283 24.0057 12.1031 23.987C13.7889 23.5628 15.3263 22.7939 16.7322 21.7835C16.8052 21.731 16.8747 21.6454 16.9032 21.4979C16.9097 21.4629 17.0738 20.5795 17.2244 19.7736C18.1343 19.523 19.1217 19.2534 19.1608 19.2424C19.3008 19.2029 19.3819 19.1328 19.4289 19.0598C21.1046 16.7783 21.9545 14.1476 21.9545 11.2403C21.9545 11.0767 21.855 10.9296 21.7029 10.8686Z"/>
<path d="M16.2885 21.1177C16.3235 21.0947 16.363 21.0777 16.4065 21.0677C16.365 21.0782 16.325 21.0947 16.2885 21.1177Z"/>
</svg>
