<svg width="24" height="24" viewBox="0 0 24 24" xmlns="http://www.w3.org/2000/svg">
<path fill-rule="evenodd" clip-rule="evenodd" d="M2 12C2 6.47715 6.47715 2 12 2C17.5228 2 22 6.47715 22 12C22 17.5228 17.5228 22 12 22C6.47715 22 2 17.5228 2 12ZM7.44379 11.6472V8.47011C7.44487 8.04663 7.73404 7.67844 8.14702 7.57412L11.4951 6.72843C11.6989 6.6769 11.9143 6.6769 12.118 6.72837L12.8524 6.91387C12.9562 6.94007 13.0644 6.89239 13.1151 6.79814L13.6928 5.72439C13.764 5.59112 13.6922 5.42512 13.5443 5.38736L12.2067 5.04946C11.9449 4.98351 11.668 4.98351 11.4063 5.04946L6.89217 6.1898C6.37248 6.32111 6.00861 6.78536 6.00715 7.31935V10.1209C6.00715 10.2114 6.05939 10.2936 6.14109 10.3322L6.61613 10.5557L6.03254 11.5387C6.01095 11.5749 5.99957 11.6167 5.99986 11.659C6.00394 12.4906 6.14255 13.3085 6.41158 14.0899C6.45098 14.2052 6.57236 14.2705 6.69025 14.2402L7.65263 13.9928C7.7877 13.958 7.8617 13.8137 7.81236 13.6832C7.57174 13.0474 7.44204 12.3601 7.44379 11.6472ZM11.6094 7.18107C11.7385 7.14848 11.8748 7.14845 12.0037 7.18101L12.5106 7.30899C12.658 7.34623 12.731 7.51208 12.659 7.64593L11.7984 9.24553C11.7341 9.36517 11.7851 9.51428 11.9092 9.56946L12.4997 9.83196C12.6088 9.8804 12.664 10.0038 12.6269 10.1176L12.2415 11.3013C12.204 11.4167 12.3456 11.5057 12.4333 11.4217L13.8849 10.0311C13.9732 9.94649 13.9812 9.808 13.9032 9.71375L13.4799 9.20197C13.4087 9.11618 13.4084 8.99188 13.479 8.9055L14.3009 7.89991C14.3582 7.82976 14.451 7.79912 14.5388 7.8213L15.3522 8.02676C15.558 8.07875 15.7022 8.2613 15.7027 8.47005V11.6477C15.7087 14.0364 14.1098 16.1134 11.8067 16.7192C10.3837 16.3449 9.22968 15.409 8.55679 14.1851C8.54538 14.1642 8.54147 14.1401 8.54559 14.1167L8.58279 13.905C8.59583 13.8307 8.52779 13.7677 8.45475 13.7865C8.40549 13.7992 8.3539 13.7745 8.33386 13.7277C8.05872 13.0862 7.90883 12.3818 7.91069 11.6478V8.47067C7.91122 8.26133 8.05543 8.07878 8.26138 8.02676L11.6094 7.18107ZM17.4666 11.34L16.9969 11.1521L17.5769 10.0973C17.5959 10.0625 17.6061 10.024 17.6061 9.98463V7.31877C17.6047 6.78536 17.2408 6.32111 16.7214 6.1898C16.5171 6.13816 16.2779 6.07775 16.017 6.0121C15.9295 5.98992 15.8367 6.02056 15.7795 6.09088L14.9533 7.1017C14.8451 7.23403 14.9112 7.43391 15.0769 7.47575L15.4665 7.57415C15.8794 7.67844 16.1685 8.04663 16.1695 8.46953V11.6472C16.1762 14.2698 14.4055 16.5479 11.8636 17.1867C11.8275 17.1957 11.7885 17.1964 11.7498 17.1867C10.5289 16.8799 9.48608 16.1948 8.73254 15.2751C8.60643 15.1212 8.35746 15.1876 8.32303 15.3836L8.08886 16.7167C8.07603 16.7902 8.09908 16.8658 8.15131 16.9195C9.13262 17.93 10.3742 18.646 11.7422 18.9912C11.7805 19.002 11.8231 19.0033 11.8668 18.9924C12.8501 18.745 13.747 18.2964 14.5671 17.707C14.6097 17.6764 14.6502 17.6265 14.6669 17.5404L14.6672 17.5384C14.6748 17.4975 14.7683 16.9944 14.8542 16.5346C15.217 16.4347 15.6009 16.3296 15.8149 16.271L15.9837 16.2247C16.0654 16.2017 16.1127 16.1608 16.1401 16.1182C17.1177 14.7873 17.6134 13.2528 17.6134 11.5568C17.6134 11.4614 17.5554 11.3756 17.4666 11.34Z"/>
</svg>
