<svg width="25" height="24" viewBox="0 0 25 24" fill="none" xmlns="http://www.w3.org/2000/svg">
<path d="M3.23106 9.37911L3.54879 9.52271L3.58292 9.46748L4.00825 9.73035L3.80233 10.186L3.74317 10.1592L3.05348 11.2752L4.45985 2.86969C3.60963 3.07603 3.01433 3.80557 3.01194 4.6447M3.23106 9.37911L3.38139 9.04713L3.43731 8.92363L3.43698 8.92348L3.3811 9.04713L3.23106 9.37911ZM3.23106 9.37911C3.0974 9.31858 3.01194 9.18927 3.01194 9.04713V4.6447M3.01194 4.6447L3.51194 4.64612C3.51194 4.6459 3.51194 4.64568 3.51194 4.64547M3.01194 4.6447H3.51194V4.64547M3.51194 4.64547V8.95736M3.51194 4.64547C3.51394 4.05064 3.93772 3.51093 4.57776 3.35559C4.57776 3.35559 4.57777 3.35559 4.57778 3.35559L11.9626 1.56369C11.9626 1.56369 11.9627 1.56368 11.9627 1.56368C12.3136 1.47877 12.686 1.47877 13.0369 1.56369L15.0597 2.05451L14.2488 3.5022L13.1273 3.23013C13.1273 3.23012 13.1273 3.23012 13.1273 3.23011C12.7166 3.13043 12.2833 3.13044 11.8724 3.23021C11.8724 3.23021 11.8723 3.23022 11.8723 3.23023L6.39491 4.55914L6.39491 4.55914C5.51007 4.77383 4.86472 5.54136 4.8623 6.45171V6.45304V11.445C4.8595 12.5745 5.0635 13.6657 5.44341 14.6808L4.10734 15.0108C3.71513 13.881 3.51092 12.702 3.50029 11.5033L4.43357 9.99322L4.73278 9.5091L4.21416 9.27472L3.51194 8.95736M3.51194 8.95736L3.4374 8.92367C3.47472 8.94061 3.51194 8.98453 3.51194 9.04713V8.95736ZM21.4996 11.3986L20.812 11.1343L20.2676 10.9252L20.5574 10.4192L21.4881 8.7936L21.4881 4.6452C21.4881 4.645 21.4881 4.64479 21.4881 4.64459C21.4861 4.05074 21.0624 3.51091 20.4226 3.35557L20.4226 3.35557C20.1054 3.27852 19.7365 3.18907 19.3348 3.09193L18.1751 4.45479L18.6054 4.55919L18.4875 5.04509L18.6054 4.55919C19.49 4.77379 20.1354 5.54125 20.1378 6.45082L20.1378 6.45212L21.4996 11.3986ZM21.4996 11.3986C21.4807 13.9127 20.7081 16.1812 19.2008 18.1568L19.1994 18.1572L19.1887 18.16L19.152 18.1697L19.0243 18.2033L18.5943 18.3164C18.2454 18.4082 17.7925 18.5275 17.358 18.6424L17.0549 18.7226L16.995 19.0303C16.8944 19.5479 16.7874 20.1003 16.7302 20.3959L21.4996 11.3986ZM12.7045 4.91322L12.7044 4.9132C12.5712 4.88087 12.4291 4.88084 12.2953 4.9133L12.7045 4.91322ZM12.7045 4.91322L13.3683 5.07418L12.7045 4.91322ZM14.2044 3.58139C14.2045 3.5813 14.2045 3.58121 14.2046 3.58112L14.2045 3.58132L14.2044 3.58139ZM5.58391 14.6461C5.58397 14.6461 5.58404 14.6461 5.5841 14.6461L5.58409 14.6461L5.58391 14.6461ZM18.0288 4.62672L18.0288 4.6267L18.0288 4.62672ZM6.81779 6.24223L12.2952 4.91331L18.374 6.45379L18.374 11.4464L18.374 11.4478C18.3832 14.9193 15.9912 17.9615 12.5001 18.8992C10.4025 18.3358 8.70079 17.0113 7.67942 15.2921L7.71757 15.0835L7.71758 15.0834C7.78943 14.6905 7.52006 14.3846 7.19153 14.3169C6.82284 13.4247 6.6235 12.4553 6.62617 11.4478V11.4465V6.45479C6.62659 6.37337 6.68764 6.27382 6.81778 6.24223C6.81778 6.24223 6.81779 6.24223 6.81779 6.24223ZM13.4583 4.91355L13.4582 4.91376C13.4582 4.91369 13.4583 4.91361 13.4583 4.91354L13.4583 4.91355Z" fill="#074ACB" stroke="#1161FA"/>
</svg>
