<svg width="24" height="24" viewBox="0 0 24 24" fill="none" xmlns="http://www.w3.org/2000/svg">
<path d="M5.10113 6.14286L5.10112 16.2091L5.10113 16.2103C5.10333 17.1528 5.47492 18.057 6.13619 18.725C6.79763 19.3932 7.69517 19.7704 8.63278 19.7727H8.634H16.8994C16.8877 20.2279 16.7035 20.661 16.3854 20.9823C16.0569 21.3141 15.6124 21.4998 15.15 21.5C15.1499 21.5 15.1499 21.5 15.1498 21.5H5.2502L5.10113 6.14286ZM5.10113 6.14286C4.69305 6.17834 4.3077 6.35801 4.0146 6.65407C3.6859 6.98609 3.50024 7.4374 3.5 7.90909C3.5 7.90913 3.5 7.90918 3.5 7.90922C3.5 7.90924 3.5 7.90927 3.5 7.90929V19.7271C3.5 19.7271 3.5 19.7272 3.5 19.7273C3.50024 20.199 3.6859 20.6503 4.0146 20.9823C4.34313 21.3141 4.78758 21.4998 5.25 21.5L5.10113 6.14286ZM8.6367 2.5H18.8688C19.765 2.5 20.5 3.2352 20.5 4.15273V16.2109C20.5 17.1284 19.765 17.8636 18.8688 17.8636H8.6367C7.74054 17.8636 7.0055 17.1284 7.0055 16.2109V4.15273C7.0055 3.2352 7.74054 2.5 8.6367 2.5Z" fill="#353551" stroke="#3E3E5D"/>
</svg>
