<svg width="16" height="16" viewBox="0 0 16 16" xmlns="http://www.w3.org/2000/svg">
<path d="M12.5792 1.33398H5.7578C4.97311 1.33398 4.337 1.97652 4.337 2.76914V10.8079C4.337 11.6005 4.97311 12.2431 5.7578 12.2431H12.5792C13.3639 12.2431 14 11.6005 14 10.8079V2.76914C14 1.97652 13.3639 1.33398 12.5792 1.33398Z"/>
<path d="M11.6 12.8491V13.1522C11.5998 13.554 11.4418 13.9393 11.1605 14.2234C10.8792 14.5075 10.4978 14.6672 10.1 14.6673H3.5C3.10222 14.6672 2.72079 14.5075 2.43952 14.2234C2.15825 13.9393 2.00016 13.554 2 13.1522V5.27338C2.00016 4.87158 2.15825 4.48629 2.43952 4.20218C2.72079 3.91807 3.10222 3.75839 3.5 3.75823H3.73408V10.8067C3.73535 11.348 3.94878 11.8667 4.32768 12.2495C4.70659 12.6322 5.22014 12.8478 5.756 12.8491H11.6Z"/>
</svg>
