<svg width="24" height="24" viewBox="0 0 24 24" fill="none" xmlns="http://www.w3.org/2000/svg">
<path d="M18.8688 2H8.6367C7.45967 2 6.5055 2.96381 6.5055 4.15273V16.2109C6.5055 17.3998 7.45967 18.3636 8.6367 18.3636H18.8688C20.0458 18.3636 21 17.3998 21 16.2109V4.15273C21 2.96381 20.0458 2 18.8688 2Z" fill="#85DD16"/>
<path d="M17.4 19.2727V19.7273C17.3998 20.33 17.1626 20.9079 16.7407 21.3341C16.3188 21.7602 15.7467 21.9998 15.15 22H5.25C4.65334 21.9998 4.08118 21.7602 3.65927 21.3341C3.23737 20.9079 3.00024 20.33 3 19.7273V7.90909C3.00024 7.3064 3.23737 6.72846 3.65927 6.3023C4.08118 5.87613 4.65334 5.6366 5.25 5.63636H5.60113V16.2091C5.60303 17.021 5.92317 17.7991 6.49153 18.3732C7.05989 18.9474 7.8302 19.2708 8.634 19.2727H17.4Z" fill="#85DD16"/>
<path fill-rule="evenodd" clip-rule="evenodd" d="M5.25 5.63636C5.02817 5.63645 4.80972 5.66962 4.60113 5.73315C4.24866 5.84051 3.92432 6.03457 3.65927 6.3023C3.23737 6.72846 3.00024 7.3064 3 7.90909V19.7273C3.00024 20.33 3.23737 20.9079 3.65927 21.3341C4.08118 21.7602 4.65334 21.9998 5.25 22H15.15C15.7467 21.9998 16.3188 21.7602 16.7407 21.3341C17.0329 21.039 17.2364 20.6712 17.3341 20.2727C17.3774 20.0957 17.3999 19.9127 17.4 19.7273V19.2727H8.634C7.8302 19.2708 7.05989 18.9474 6.49153 18.3732C5.92359 17.7995 5.60351 17.0222 5.60113 16.2109C5.60113 16.2103 5.60113 16.2097 5.60113 16.2091V5.63636H5.25ZM4.60113 6.82168L4.60112 16.2091L4.60113 16.2114C4.60364 17.2845 5.02668 18.3149 5.78086 19.0768C6.53538 19.8389 7.56014 20.2701 8.63157 20.2727H16.279C16.2175 20.4047 16.1335 20.526 16.0301 20.6305C15.7949 20.8681 15.4782 20.9998 15.15 21C15.1501 21 15.1499 21 15.15 21H5.2504M4.60113 6.82168C4.518 6.87313 4.44031 6.93474 4.36992 7.00584C4.13442 7.24372 4.00024 7.5684 4 7.90909L4 19.7269C4 19.727 4 19.7267 4 19.7269C4.00024 20.0676 4.13442 20.3926 4.36992 20.6305C4.60509 20.8681 4.92222 20.9998 5.2504 21M6.5055 16.2109C6.5055 16.8075 6.74577 17.3474 7.13389 17.7373C7.51864 18.1238 8.04868 18.3629 8.634 18.3636C8.63474 18.3636 8.63596 18.3636 8.6367 18.3636C8.63654 18.3636 8.63686 18.3636 8.6367 18.3636H18.8688C20.0458 18.3636 21 17.3998 21 16.2109V4.15273C21 2.96381 20.0458 2 18.8688 2H8.6367C7.45967 2 6.5055 2.96381 6.5055 4.15273V16.2109ZM18.8688 3H8.6367C8.02141 3 7.5055 3.50659 7.5055 4.15273V16.2109C7.5055 16.857 8.02141 17.3636 8.6367 17.3636H18.8688C19.4841 17.3636 20 16.857 20 16.2109V4.15273C20 3.50659 19.4841 3 18.8688 3Z" fill="#8FFF00"/>
</svg>
