<svg width="24" height="24" viewBox="0 0 24 24" xmlns="http://www.w3.org/2000/svg">
<path d="M21.2715 8.8843C21.0071 8.69065 20.695 8.58713 20.3756 8.58713C20.0562 8.58713 19.7442 8.69065 19.4798 8.8843L16.6946 10.7503C16.6669 10.7639 16.6369 10.7709 16.6064 10.7709C16.576 10.7709 16.5459 10.7639 16.5182 10.7503C16.4563 10.7322 16.4031 10.6891 16.3697 10.6299L13.3989 4.85135C13.2545 4.59166 13.0504 4.37677 12.8063 4.22759C12.5623 4.0784 12.2867 4 12.0063 4C11.726 4 11.4504 4.0784 11.2064 4.22759C10.9623 4.37677 10.7582 4.59166 10.6138 4.85135L7.53158 10.6199C7.49816 10.6791 7.44499 10.7222 7.38304 10.7403C7.35534 10.7538 7.32527 10.7609 7.29485 10.7609C7.26443 10.7609 7.23436 10.7538 7.20665 10.7403L4.46795 8.84417C4.20281 8.66284 3.89411 8.56994 3.5804 8.57708C3.26669 8.58421 2.96188 8.69107 2.70404 8.8843C2.43942 9.07969 2.23457 9.35572 2.11554 9.67728C1.99651 9.99885 1.96869 10.3514 2.03561 10.6901L3.59528 18.6055C3.6719 18.9994 3.87141 19.3528 4.16041 19.6067C4.44942 19.8606 4.81036 19.9994 5.1828 20H18.8206C19.193 19.9994 19.554 19.8606 19.843 19.6067C20.132 19.3528 20.3315 18.9994 20.4081 18.6055L21.9678 10.6901C22.0319 10.3484 21.9998 9.99374 21.8757 9.67189C21.7516 9.35005 21.5412 9.07573 21.2715 8.8843Z"/>
</svg>
