<svg width="32" height="32" viewBox="0 0 32 32" xmlns="http://www.w3.org/2000/svg">
<path d="M10.9001 15.0358L11.591 11.971C10.5759 12.3063 9.62377 12.759 8.76156 13.3198C8.81999 14.017 9.03597 14.6968 9.39461 15.2959C9.77971 15.9384 10.729 15.7936 10.9001 15.0358Z"/>
<path d="M22.606 15.2947C22.9641 14.6962 23.18 14.017 23.2385 13.3198C22.3763 12.759 21.4242 12.3064 20.409 11.971L21.0999 15.0364C21.2709 15.7927 22.2199 15.9394 22.606 15.2947Z"/>
<path d="M28.8327 24.67H3.16726C2.69267 24.67 2.30791 25.0715 2.30791 25.5668V28.4368C2.30791 28.9321 2.69267 29.3337 3.16726 29.3337H28.8327C29.3073 29.3337 29.6921 28.9321 29.6921 28.4368V25.5668C29.6921 25.0715 29.3073 24.67 28.8327 24.67Z"/>
<path d="M29.6227 8.90601L25.4406 9.86267C25.0064 9.96192 24.7165 10.39 24.7721 10.8499L24.9279 12.1527C25.0986 13.5763 24.791 15.0304 24.0628 16.2466C23.5942 17.0281 22.7875 17.495 21.9042 17.495C20.7177 17.495 19.6992 16.6532 19.427 15.4472L18.2887 10.3984L19.9541 7.35683C20.1466 7.00586 20.0899 6.56401 19.816 6.27761L16.6079 2.92932C16.2721 2.57955 15.7279 2.57955 15.3922 2.92932L12.184 6.27761C11.9101 6.56401 11.8534 7.00586 12.0459 7.35683L13.7113 10.3984L12.573 15.4472C12.3009 16.6532 11.2823 17.495 10.0958 17.495C9.21243 17.495 8.40579 17.0281 7.93721 16.2466C7.20906 15.0304 6.90141 13.5763 7.07213 12.1527L7.22796 10.8499C7.28353 10.3901 6.99365 9.96192 6.55939 9.86267L2.37729 8.90601C1.77477 8.7673 1.22989 9.32108 1.35008 9.956L3.7963 22.8763H28.2037L30.6499 9.956C30.7698 9.32252 30.2271 8.76808 29.6227 8.90601ZM16.8593 18.8702C16.8593 19.3653 16.4743 19.7671 16 19.7671C15.5256 19.7671 15.1406 19.3653 15.1406 18.8702V16.9569C15.1406 16.4618 15.5256 16.06 16 16.06C16.4743 16.06 16.8593 16.4618 16.8593 16.9569V18.8702Z"/>
</svg>
