<svg width="24" height="24" viewBox="0 0 24 24" fill="none" xmlns="http://www.w3.org/2000/svg">
<path d="M20.9761 9.28768L20.976 9.28772L20.9821 9.29202C21.1681 9.42403 21.3189 9.61746 21.4092 9.85178C21.4994 10.0856 21.5234 10.3452 21.4768 10.5959C21.4766 10.5965 21.4765 10.5972 21.4764 10.5979L19.9176 18.5089L19.9173 18.51C19.8609 18.8003 19.7151 19.0535 19.513 19.231C19.3119 19.4077 19.0671 19.4995 18.8203 19.5C18.8202 19.5 18.82 19.5 18.8198 19.5H5.18359C5.18342 19.5 5.18325 19.5 5.18308 19.5C4.93627 19.4995 4.69149 19.4077 4.49039 19.231C4.28829 19.0535 4.14255 18.8003 4.08608 18.51L4.08585 18.5089L2.52618 10.5934L2.52613 10.5932C2.47694 10.3443 2.49765 10.0853 2.58444 9.85085C2.67118 9.61654 2.8182 9.42154 3.00104 9.28653L3.00105 9.28654L3.00389 9.28441C3.18072 9.1519 3.38522 9.08165 3.59177 9.07695C3.79788 9.07226 4.00392 9.13287 4.18465 9.25617L6.92204 11.1514L6.9529 11.1727L6.98661 11.1892C7.08181 11.2359 7.18704 11.2609 7.29485 11.2609C7.38771 11.2609 7.47865 11.2423 7.56292 11.2074C7.73875 11.1451 7.87969 11.0203 7.96697 10.8657L7.96709 10.8658L7.97258 10.8555L11.0526 5.09098C11.1567 4.90517 11.3006 4.75598 11.4672 4.65418C11.6343 4.55199 11.8199 4.5 12.0063 4.5C12.1927 4.5 12.3784 4.55198 12.5455 4.65418C12.7111 4.7554 12.8544 4.90347 12.9583 5.08781L15.925 10.8585L15.9295 10.8672L15.9343 10.8758C16.0216 11.0303 16.1625 11.1551 16.3384 11.2174C16.4226 11.2524 16.5136 11.2709 16.6064 11.2709C16.7143 11.2709 16.8195 11.2459 16.9147 11.1993L16.9449 11.1844L16.9729 11.1657L19.7581 9.29969L19.7668 9.29386L19.7752 9.28768C19.9563 9.15505 20.1654 9.08713 20.3756 9.08713C20.5859 9.08713 20.795 9.15505 20.9761 9.28768Z" fill="#DDC916" stroke="#FFE500"/>
</svg>
