<svg width="24" height="24" viewBox="0 0 24 24" fill="none" xmlns="http://www.w3.org/2000/svg">
<path d="M22.0001 8.5C22.0001 11.76 19.6001 14.45 16.4801 14.92V14.86C16.1701 10.98 13.0201 7.83 9.11008 7.52H9.08008C9.55008 4.4 12.2401 2 15.5001 2C19.0901 2 22.0001 4.91 22.0001 8.5Z" fill="#DDC916"/>
<path d="M14.98 14.98C14.73 11.81 12.19 9.27 9.02 9.02C8.85 9.01 8.67 9 8.5 9C4.91 9 2 11.91 2 15.5C2 19.09 4.91 22 8.5 22C12.09 22 15 19.09 15 15.5C15 15.33 14.99 15.15 14.98 14.98ZM9.38 16.38L8.5 18L7.62 16.38L6 15.5L7.62 14.62L8.5 13L9.38 14.62L11 15.5L9.38 16.38Z" fill="#DDC916"/>
<path fill-rule="evenodd" clip-rule="evenodd" d="M17.4693 14.6903C17.318 14.7383 17.1643 14.7808 17.0085 14.8178C16.9452 14.8328 16.8815 14.8469 16.8175 14.86C16.7061 14.8829 16.5936 14.9029 16.4801 14.92V14.86C16.4549 14.5443 16.4108 14.2334 16.3491 13.9284C15.7156 10.7985 13.2189 8.29774 10.071 7.65553C9.75675 7.59143 9.43606 7.54584 9.11008 7.52H9.08008C9.08924 7.45919 9.09925 7.39865 9.11008 7.3384C9.11788 7.29505 9.1261 7.25185 9.13475 7.2088C9.18092 6.9791 9.2392 6.75374 9.30891 6.53343C10.1396 3.90814 12.5933 2 15.5001 2C19.0901 2 22.0001 4.91 22.0001 8.5C22.0001 11.4059 20.0932 13.8588 17.4693 14.6903ZM17.3203 13.686C19.461 12.9373 21.0001 10.9005 21.0001 8.5C21.0001 5.46228 18.5378 3 15.5001 3C13.098 3 11.0599 4.54122 10.3125 6.68426C13.8177 7.41651 16.5959 10.1963 17.3203 13.686ZM8.5 13L7.62 14.62L6 15.5L7.62 16.38L8.5 18L9.38 16.38L11 15.5L9.38 14.62L8.5 13ZM10.1174 13.8826L8.5 10.905L6.88257 13.8826L3.90502 15.5L6.88257 17.1174L8.5 20.095L10.1174 17.1174L13.095 15.5L10.1174 13.8826ZM9.02 9.02C8.85 9.01 8.67 9 8.5 9C4.91 9 2 11.91 2 15.5C2 19.09 4.91 22 8.5 22C12.09 22 15 19.09 15 15.5C15 15.33 14.99 15.15 14.98 14.98C14.73 11.81 12.19 9.27 9.02 9.02ZM13.9823 15.049C13.9922 15.2173 14 15.3661 14 15.5C14 18.5377 11.5377 21 8.5 21C5.46228 21 3 18.5377 3 15.5C3 12.4623 5.46229 10 8.5 10C8.63384 10 8.78272 10.0078 8.95094 10.0177C11.623 10.2331 13.7669 12.3769 13.9823 15.049Z" fill="#FFE500"/>
</svg>
