<svg width="24" height="24" viewBox="0 0 24 24" xmlns="http://www.w3.org/2000/svg">
<path d="M10.4998 20.0218C11.4281 20.5577 12.5717 20.5577 13.5 20.0218L18.1974 17.3096C19.1255 16.7737 19.6973 15.7833 19.6973 14.7115L19.6973 9.28761C19.6973 8.2158 19.1254 7.22542 18.1972 6.68953L13.4999 3.97759C12.5717 3.44171 11.4281 3.44172 10.4999 3.97759L5.80264 6.68952C4.87442 7.22542 4.30261 8.2158 4.30261 9.28761V14.7116C4.30261 15.7833 4.87437 16.7737 5.80253 17.3096L10.4998 20.0218ZM6.04107 16.2423C5.60682 16.0692 5.25408 15.5711 5.25408 15.1293C5.25535 14.6875 5.60682 14.4697 6.04107 14.6415C6.47536 14.8147 6.8281 15.3128 6.8281 15.7559C6.8281 16.1963 6.47536 16.4154 6.04107 16.2423ZM5.23317 12.8469C5.23317 12.4051 5.58464 12.1874 6.02021 12.3592C6.45314 12.5323 6.80592 13.0304 6.80592 13.4722C6.80592 13.9143 6.45319 14.1321 6.01889 13.9599C5.58464 13.7868 5.23317 13.2877 5.23317 12.8469ZM6.04107 11.618C5.60682 11.4449 5.25535 10.947 5.25535 10.505C5.25535 10.0632 5.60682 9.84543 6.04233 10.0185C6.47663 10.1907 6.8281 10.6898 6.8281 11.1303C6.8281 11.5737 6.47536 11.7914 6.04107 11.618ZM10.1924 18.626C9.75807 18.4529 9.40533 17.9547 9.40533 17.5129C9.4066 17.0711 9.75807 16.8534 10.1924 17.0252C10.6266 17.1983 10.9793 17.6964 10.9793 18.1395C10.9794 18.58 10.6266 18.7991 10.1924 18.626ZM9.38447 15.2306C9.38447 14.7888 9.73589 14.571 10.1715 14.7428C10.6044 14.9159 10.9572 15.4141 10.9572 15.8559C10.9572 16.298 10.6044 16.5157 10.1702 16.3436C9.73589 16.1705 9.38447 15.6713 9.38447 15.2306ZM10.1924 14.0017C9.75807 13.8285 9.4066 13.3307 9.4066 12.8887C9.4066 12.4469 9.75807 12.2291 10.1936 12.4022C10.6279 12.5744 10.9793 13.0735 10.9793 13.514C10.9794 13.9574 10.6266 14.1751 10.1924 14.0017ZM8.75236 7.2172C8.95538 6.89076 9.60521 6.66215 10.2059 6.70776C10.8048 6.75173 11.126 7.05351 10.9233 7.37962C10.7193 7.70737 10.0695 7.93598 9.47016 7.89037C8.8695 7.84509 8.54836 7.54331 8.75236 7.2172ZM13.0433 7.53965C13.2459 7.2119 13.8971 6.9846 14.4964 7.02853C15.0957 7.07414 15.4181 7.37559 15.2138 7.70203C15.0112 8.02945 14.36 8.25707 13.7607 8.21282C13.1604 8.16721 12.8393 7.86576 13.0433 7.53965ZM16.7948 14.7001C16.4342 15.1484 15.9223 15.24 15.6524 14.9075C15.3798 14.5739 15.4522 13.9411 15.8128 13.4942C16.1731 13.0459 16.6852 12.9539 16.9565 13.2878C17.2277 13.62 17.155 14.2531 16.7948 14.7001Z"/>
</svg>
