<svg width="24" height="24" viewBox="0 0 24 24" fill="none" xmlns="http://www.w3.org/2000/svg">
<path d="M12 22C6.5 22 2 17.5 2 12C2 6.5 6.5 2 12 2C17.5 2 22 6.5 22 12C22 17.5 17.5 22 12 22ZM9.5 9L7 11.5L12 16.5L17 11.5L14.5 9H9.5Z" fill="url(#paint0_linear_2408_12956)"/>
<path fill-rule="evenodd" clip-rule="evenodd" d="M9.08579 8H14.9142L18.4142 11.5L12 17.9142L5.58579 11.5L9.08579 8ZM3 12C3 16.9477 7.05228 21 12 21C16.9477 21 21 16.9477 21 12C21 7.05228 16.9477 3 12 3C7.05228 3 3 7.05228 3 12ZM7 11.5L9.5 9H14.5L17 11.5L12 16.5L7 11.5ZM2 12C2 17.5 6.5 22 12 22C17.5 22 22 17.5 22 12C22 6.5 17.5 2 12 2C6.5 2 2 6.5 2 12Z" fill="url(#paint1_linear_2408_12956)"/>
<defs>
<linearGradient id="paint0_linear_2408_12956" x1="2" y1="2" x2="25.5332" y2="16.1052" gradientUnits="userSpaceOnUse">
<stop stop-color="#9C19ED"/>
<stop offset="1" stop-color="#D11CEE"/>
</linearGradient>
<linearGradient id="paint1_linear_2408_12956" x1="2" y1="2" x2="25.5332" y2="16.1052" gradientUnits="userSpaceOnUse">
<stop stop-color="#AF2CFF"/>
<stop offset="1" stop-color="#DF27FD"/>
</linearGradient>
</defs>
</svg>
