<svg width="40" height="40" viewBox="0 0 40 40" xmlns="http://www.w3.org/2000/svg">
<path d="M17.2383 6.53088C18.7621 5.65118 20.6393 5.65115 22.1631 6.53088L29.875 10.983C31.3985 11.8628 32.3368 13.4884 32.3369 15.2477V24.152C32.3369 25.9114 31.3987 27.5378 29.875 28.4176L22.1631 32.8697C20.6393 33.7496 18.7621 33.7495 17.2383 32.8697L9.52637 28.4176C8.00263 27.5378 7.06348 25.9115 7.06348 24.152V15.2477C7.06358 13.4883 8.00276 11.8628 9.52637 10.983L17.2383 6.53088ZM17.8389 24.6246V27.6998H20.8252V24.6246H17.8389ZM19.7773 11.9C17.6529 11.9001 15.8632 12.7246 14.4072 14.3736L16.0781 16.1559C17.1775 14.9822 18.3887 14.3951 19.7109 14.3951C20.4983 14.3952 21.1149 14.589 21.5605 14.9752C22.0209 15.3614 22.2509 15.8737 22.251 16.5123V16.5572C22.251 18.1172 20.8841 18.9417 18.1504 19.0309L18.0391 19.1422L18.4854 22.7526H20.29L20.5127 20.9703C21.8647 20.7475 22.9495 20.2715 23.7666 19.5436C24.5986 18.8156 25.0146 17.7906 25.0146 16.4684V16.4235C25.0146 15.0419 24.5319 13.9427 23.5664 13.1256C22.6155 12.3085 21.3522 11.9 19.7773 11.9Z"/>
</svg>
