<svg width="24" height="24" viewBox="0 0 24 24" xmlns="http://www.w3.org/2000/svg">
<path fill-rule="evenodd" clip-rule="evenodd" d="M13.2188 2.60753C12.6066 1.80009 11.3928 1.8001 10.7805 2.60753L9.40649 4.41964C9.18815 4.70759 8.83144 4.85534 8.47344 4.80612L6.2205 4.49635C5.21664 4.35833 4.35833 5.21664 4.49635 6.2205L4.80612 8.47344C4.85534 8.83144 4.70759 9.18815 4.41964 9.40649L2.60753 10.7805C1.80009 11.3928 1.8001 12.6066 2.60753 13.2188L4.41964 14.5929C4.70759 14.8112 4.85534 15.1679 4.80612 15.5259L4.49635 17.7789C4.35833 18.7827 5.21664 19.641 6.2205 19.503L8.47344 19.1932C8.83144 19.144 9.18815 19.2918 9.40649 19.5797L10.7805 21.3918C11.3928 22.1993 12.6066 22.1993 13.2188 21.3918L14.5929 19.5797C14.8112 19.2918 15.1679 19.144 15.5259 19.1932L17.7789 19.503C18.7827 19.641 19.641 18.7827 19.503 17.7789L19.1932 15.5259C19.144 15.1679 19.2918 14.8112 19.5797 14.5929L21.3918 13.2188C22.1993 12.6066 22.1993 11.3928 21.3918 10.7805L19.5797 9.40649C19.2918 9.18815 19.144 8.83144 19.1932 8.47344L19.503 6.2205C19.641 5.21664 18.7827 4.35833 17.7789 4.49635L15.5259 4.80612C15.1679 4.85534 14.8112 4.70759 14.5929 4.41964L13.2188 2.60753ZM14.7067 9.29247C14.3162 8.90194 13.683 8.90194 13.2925 9.29247L9.29247 13.2925C8.90194 13.683 8.90194 14.3162 9.29247 14.7067C9.68299 15.0972 10.3162 15.0972 10.7067 14.7067L14.7067 10.7067C15.0972 10.3162 15.0972 9.68299 14.7067 9.29247ZM9.99957 10.9996C9.44729 10.9996 8.99957 10.5519 8.99957 9.99957C8.99957 9.44729 9.44729 8.99957 9.99957 8.99957C10.5519 8.99957 10.9996 9.44729 10.9996 9.99957C10.9996 10.5519 10.5519 10.9996 9.99957 10.9996ZM13.9996 14.9996C14.5519 14.9996 14.9996 14.5519 14.9996 13.9996C14.9996 13.4473 14.5519 12.9996 13.9996 12.9996C13.4473 12.9996 12.9996 13.4473 12.9996 13.9996C12.9996 14.5519 13.4473 14.9996 13.9996 14.9996Z"/>
</svg>
