<svg width="24" height="24" viewBox="0 0 24 24" fill="none" xmlns="http://www.w3.org/2000/svg">
<path fill-rule="evenodd" clip-rule="evenodd" d="M13.2192 2.60753C12.607 1.80009 11.3931 1.8001 10.7809 2.60753L9.40685 4.41964C9.18852 4.70759 8.83181 4.85534 8.47381 4.80612L6.22086 4.49635C5.21701 4.35833 4.3587 5.21664 4.49672 6.2205L4.80648 8.47344C4.85571 8.83144 4.70796 9.18815 4.42001 9.40649L2.60789 10.7805C1.80046 11.3928 1.80046 12.6066 2.60789 13.2188L4.42001 14.5929C4.70796 14.8112 4.85571 15.1679 4.80648 15.5259L4.49672 17.7789C4.3587 18.7827 5.217 19.641 6.22086 19.503L8.47381 19.1932C8.83181 19.144 9.18852 19.2918 9.40685 19.5797L10.7809 21.3918C11.3931 22.1993 12.607 22.1993 13.2192 21.3918L14.5932 19.5797C14.8116 19.2918 15.1683 19.144 15.5263 19.1932L17.7792 19.503C18.7831 19.641 19.6414 18.7827 19.5034 17.7789L19.1936 15.5259C19.1444 15.1679 19.2921 14.8112 19.5801 14.5929L21.3922 13.2188C22.1996 12.6066 22.1996 11.3928 21.3922 10.7805L19.5801 9.40649C19.2921 9.18815 19.1444 8.83144 19.1936 8.47344L19.5034 6.2205C19.6414 5.21664 18.7831 4.35833 17.7792 4.49635L15.5263 4.80612C15.1683 4.85534 14.8116 4.70759 14.5932 4.41964L13.2192 2.60753ZM14.707 9.29247C14.3165 8.90194 13.6834 8.90194 13.2928 9.29247L9.29283 13.2925C8.90231 13.683 8.90231 14.3162 9.29283 14.7067C9.68336 15.0972 10.3165 15.0972 10.707 14.7067L14.707 10.7067C15.0976 10.3162 15.0976 9.68299 14.707 9.29247ZM9.99994 10.9996C9.44766 10.9996 8.99994 10.5519 8.99994 9.99957C8.99994 9.44729 9.44766 8.99957 9.99994 8.99957C10.5522 8.99957 10.9999 9.44729 10.9999 9.99957C10.9999 10.5519 10.5522 10.9996 9.99994 10.9996ZM13.9999 14.9996C14.5522 14.9996 14.9999 14.5519 14.9999 13.9996C14.9999 13.4473 14.5522 12.9996 13.9999 12.9996C13.4477 12.9996 12.9999 13.4473 12.9999 13.9996C12.9999 14.5519 13.4477 14.9996 13.9999 14.9996Z" fill="#323243"/>
<path fill-rule="evenodd" clip-rule="evenodd" d="M13.2192 2.60753C12.607 1.80009 11.3931 1.8001 10.7809 2.60753L9.40685 4.41964C9.18852 4.70759 8.83181 4.85534 8.47381 4.80612L6.22086 4.49635C5.21701 4.35833 4.3587 5.21664 4.49672 6.2205L4.80648 8.47344C4.85571 8.83144 4.70796 9.18815 4.42001 9.40649L2.60789 10.7805C1.80046 11.3928 1.80046 12.6066 2.60789 13.2188L4.42001 14.5929C4.70796 14.8112 4.85571 15.1679 4.80648 15.5259L4.49672 17.7789C4.3587 18.7827 5.217 19.641 6.22086 19.503L8.47381 19.1932C8.83181 19.144 9.18852 19.2918 9.40685 19.5797L10.7809 21.3918C11.3931 22.1993 12.607 22.1993 13.2192 21.3918L14.5932 19.5797C14.8116 19.2918 15.1683 19.144 15.5263 19.1932L17.7792 19.503C18.7831 19.641 19.6414 18.7827 19.5034 17.7789L19.1936 15.5259C19.1444 15.1679 19.2921 14.8112 19.5801 14.5929L21.3922 13.2188C22.1996 12.6066 22.1996 11.3928 21.3922 10.7805L19.5801 9.40649C19.2921 9.18815 19.1444 8.83144 19.1936 8.47344L19.5034 6.2205C19.6414 5.21664 18.7831 4.35833 17.7792 4.49635L15.5263 4.80612C15.1683 4.85534 14.8116 4.70759 14.5932 4.41964L13.2192 2.60753ZM14.707 9.29247C14.3165 8.90194 13.6834 8.90194 13.2928 9.29247L9.29283 13.2925C8.90231 13.683 8.90231 14.3162 9.29283 14.7067C9.68336 15.0972 10.3165 15.0972 10.707 14.7067L14.707 10.7067C15.0976 10.3162 15.0976 9.68299 14.707 9.29247ZM9.99994 10.9996C9.44766 10.9996 8.99994 10.5519 8.99994 9.99957C8.99994 9.44729 9.44766 8.99957 9.99994 8.99957C10.5522 8.99957 10.9999 9.44729 10.9999 9.99957C10.9999 10.5519 10.5522 10.9996 9.99994 10.9996ZM13.9999 14.9996C14.5522 14.9996 14.9999 14.5519 14.9999 13.9996C14.9999 13.4473 14.5522 12.9996 13.9999 12.9996C13.4477 12.9996 12.9999 13.4473 12.9999 13.9996C12.9999 14.5519 13.4477 14.9996 13.9999 14.9996Z" fill="#DDC916"/>
<path fill-rule="evenodd" clip-rule="evenodd" d="M19.5034 6.2205C19.6414 5.21664 18.7831 4.35833 17.7792 4.49635L15.5263 4.80612C15.1683 4.85534 14.8116 4.70759 14.5932 4.41964L13.2192 2.60753C12.607 1.80009 11.3931 1.8001 10.7809 2.60753L9.40685 4.41964C9.18852 4.70759 8.83181 4.85534 8.47381 4.80612L6.22086 4.49635C5.21701 4.35833 4.3587 5.21664 4.49672 6.2205L4.80648 8.47344C4.85571 8.83144 4.70796 9.18815 4.42001 9.40649L2.60789 10.7805C1.80046 11.3928 1.80046 12.6066 2.60789 13.2188L4.42001 14.5929C4.70796 14.8112 4.85571 15.1679 4.80648 15.5259L4.49672 17.7789C4.3587 18.7827 5.217 19.641 6.22086 19.503L8.47381 19.1932C8.83181 19.144 9.18852 19.2918 9.40685 19.5797L10.7809 21.3918C11.3931 22.1993 12.607 22.1993 13.2192 21.3918L14.5932 19.5797C14.8116 19.2918 15.1683 19.144 15.5263 19.1932L17.7792 19.503C18.7831 19.641 19.6414 18.7827 19.5034 17.7789L19.1936 15.5259C19.1444 15.1679 19.2921 14.8112 19.5801 14.5929L21.3922 13.2188C22.1996 12.6066 22.1996 11.3928 21.3922 10.7805L19.5801 9.40649C19.2921 9.18815 19.1444 8.83144 19.1936 8.47344L19.5034 6.2205ZM18.2029 8.33724C18.1045 9.05323 18.4 9.76664 18.9759 10.2033L20.788 11.5774C21.0677 11.7894 21.0677 12.2099 20.788 12.422L18.9759 13.796C18.4 14.2327 18.1045 14.9461 18.2029 15.6621L18.5127 17.9151C18.5605 18.2628 18.2632 18.5601 17.9154 18.5123L15.6625 18.2026C14.9465 18.1041 14.2331 18.3996 13.7964 18.9755L12.4224 20.7876C12.2103 21.0673 11.7898 21.0673 11.5777 20.7876L10.2037 18.9755C9.76701 18.3996 9.0536 18.1041 8.3376 18.2026L6.08465 18.5123C5.73691 18.5601 5.43959 18.2628 5.4874 17.9151L5.79716 15.6621C5.89561 14.9461 5.6001 14.2327 5.02421 13.796L3.21209 12.422C2.93239 12.2099 2.93239 11.7894 3.21209 11.5774L5.0242 10.2033C5.60011 9.76664 5.89561 9.05323 5.79716 8.33723L5.4874 6.08429C5.43959 5.73654 5.73691 5.43922 6.08465 5.48703L8.3376 5.7968C9.0536 5.89524 9.76701 5.59974 10.2037 5.02384L11.5777 3.21173C11.7898 2.93203 12.2103 2.93203 12.4224 3.21173L13.7964 5.02384C14.2331 5.59974 14.9465 5.89524 15.6625 5.7968L17.9154 5.48703C18.2632 5.43922 18.5605 5.73654 18.5127 6.08428L18.2029 8.33724ZM11.8733 9.29775L12.5857 8.58536C13.3668 7.80431 14.6331 7.80431 15.4142 8.58536C16.1952 9.36641 16.1952 10.6327 15.4142 11.4138L14.7018 12.1262C15.4601 12.4104 15.9999 13.142 15.9999 13.9996C15.9999 15.1041 15.1045 15.9996 13.9999 15.9996C13.1423 15.9996 12.4108 15.4598 12.1265 14.7014L11.4142 15.4138C10.6331 16.1948 9.36677 16.1948 8.58573 15.4138C7.80468 14.6327 7.80468 13.3664 8.58573 12.5854L9.29812 11.873C8.53974 11.5887 7.99994 10.8572 7.99994 9.99957C7.99994 8.89501 8.89537 7.99957 9.99994 7.99957C10.8576 7.99957 11.5891 8.53938 11.8733 9.29775ZM9.29283 13.2925C8.90231 13.683 8.90231 14.3162 9.29283 14.7067C9.68336 15.0972 10.3165 15.0972 10.707 14.7067L14.707 10.7067C15.0976 10.3162 15.0976 9.68299 14.707 9.29247C14.3165 8.90194 13.6834 8.90194 13.2928 9.29247L9.29283 13.2925ZM10.982 10.1891C10.9938 10.1277 10.9999 10.0644 10.9999 9.99957C10.9999 9.44729 10.5522 8.99957 9.99994 8.99957C9.44766 8.99957 8.99994 9.44729 8.99994 9.99957C8.99994 10.5519 9.44766 10.9996 9.99994 10.9996C10.0647 10.9996 10.1281 10.9934 10.1894 10.9816C10.5898 10.9049 10.9052 10.5894 10.982 10.1891ZM13.0179 13.8101C13.0061 13.8714 12.9999 13.9348 12.9999 13.9996C12.9999 14.5519 13.4477 14.9996 13.9999 14.9996C14.5522 14.9996 14.9999 14.5519 14.9999 13.9996C14.9999 13.4473 14.5522 12.9996 13.9999 12.9996C13.9351 12.9996 13.8718 13.0057 13.8104 13.0175C13.4101 13.0943 13.0947 13.4098 13.0179 13.8101Z" fill="#FFE500"/>
</svg>
