<svg width="24" height="24" viewBox="0 0 24 24" xmlns="http://www.w3.org/2000/svg">
<path fill-rule="evenodd" clip-rule="evenodd" d="M12.0002 6.42446L7.10755 15.6665H16.8962L12.0002 6.42446ZM12.6675 9.66646H11.3342V12.9998H12.6675V9.66646ZM12.6669 14.9998V13.6665H11.3335V14.9998H12.6669Z"/>
<path fill-rule="evenodd" clip-rule="evenodd" d="M12 2C6.47715 2 2 6.47715 2 12C2 17.5228 6.47715 22 12 22C17.5228 22 22 17.5228 22 12C22 6.47715 17.5228 2 12 2ZM12.0002 5.0918C12.4949 5.0918 12.9469 5.36313 13.1789 5.7998L18.0715 15.0425C18.1798 15.2455 18.2335 15.4732 18.2272 15.7032C18.2208 15.9332 18.1548 16.1577 18.0355 16.3545C17.7922 16.7585 17.3649 16.9998 16.8929 16.9998H7.10755C6.87746 17.0011 6.65103 16.9422 6.45072 16.829C6.2504 16.7158 6.08315 16.5522 5.96555 16.3545C5.84628 16.1577 5.78025 15.9332 5.77394 15.7032C5.76763 15.4732 5.82125 15.2455 5.92955 15.0425L10.8215 5.80046C11.0535 5.36313 11.5055 5.0918 12.0002 5.0918Z"/>
</svg>
