<svg width="24" height="24" viewBox="0 0 24 24" fill="none" xmlns="http://www.w3.org/2000/svg">
<path fill-rule="evenodd" clip-rule="evenodd" d="M22.7071 16.2929C23.0976 16.6834 23.0976 17.3166 22.7071 17.7071L18.7071 21.7071C18.3166 22.0976 17.6834 22.0976 17.2929 21.7071L15.2929 19.7071C14.9024 19.3166 14.9024 18.6834 15.2929 18.2929C15.6834 17.9024 16.3166 17.9024 16.7071 18.2929L18 19.5858L21.2929 16.2929C21.6834 15.9024 22.3166 15.9024 22.7071 16.2929Z" fill="#12131A"/>
<path fill-rule="evenodd" clip-rule="evenodd" d="M22.7071 16.2929C23.0976 16.6834 23.0976 17.3166 22.7071 17.7071L18.7071 21.7071C18.3166 22.0976 17.6834 22.0976 17.2929 21.7071L15.2929 19.7071C14.9024 19.3166 14.9024 18.6834 15.2929 18.2929C15.6834 17.9024 16.3166 17.9024 16.7071 18.2929L18 19.5858L21.2929 16.2929C21.6834 15.9024 22.3166 15.9024 22.7071 16.2929Z" fill="#074ACB"/>
<path d="M4 6.8C4 5.11984 4 4.27976 4.32698 3.63803C4.6146 3.07354 5.07354 2.6146 5.63803 2.32698C6.27976 2 7.11984 2 8.8 2H12.2C12.48 2 12.62 2 12.727 2.0545C12.8211 2.10243 12.8976 2.17892 12.9455 2.273C13 2.37996 13 2.51997 13 2.8V5C13 7.20914 14.7909 9 17 9H19.2C19.48 9 19.62 9 19.727 9.0545C19.8211 9.10243 19.8976 9.17892 19.9455 9.273C20 9.37996 20 9.51997 20 9.8V12.2C20 12.48 20 12.62 19.9455 12.727C19.8976 12.8211 19.8211 12.8976 19.727 12.9455C19.62 13 19.48 13 19.2 13H19C15.6863 13 13 15.6863 13 19V21.2C13 21.48 13 21.62 12.9455 21.727C12.8976 21.8211 12.8211 21.8976 12.727 21.9455C12.62 22 12.48 22 12.2 22H8.8C7.11984 22 6.27976 22 5.63803 21.673C5.07354 21.3854 4.6146 20.9265 4.32698 20.362C4 19.7202 4 18.8802 4 17.2V6.8Z" fill="#12131A"/>
<path d="M4 6.8C4 5.11984 4 4.27976 4.32698 3.63803C4.6146 3.07354 5.07354 2.6146 5.63803 2.32698C6.27976 2 7.11984 2 8.8 2H12.2C12.48 2 12.62 2 12.727 2.0545C12.8211 2.10243 12.8976 2.17892 12.9455 2.273C13 2.37996 13 2.51997 13 2.8V5C13 7.20914 14.7909 9 17 9H19.2C19.48 9 19.62 9 19.727 9.0545C19.8211 9.10243 19.8976 9.17892 19.9455 9.273C20 9.37996 20 9.51997 20 9.8V12.2C20 12.48 20 12.62 19.9455 12.727C19.8976 12.8211 19.8211 12.8976 19.727 12.9455C19.62 13 19.48 13 19.2 13H19C15.6863 13 13 15.6863 13 19V21.2C13 21.48 13 21.62 12.9455 21.727C12.8976 21.8211 12.8211 21.8976 12.727 21.9455C12.62 22 12.48 22 12.2 22H8.8C7.11984 22 6.27976 22 5.63803 21.673C5.07354 21.3854 4.6146 20.9265 4.32698 20.362C4 19.7202 4 18.8802 4 17.2V6.8Z" fill="#074ACB"/>
<path d="M15 2.70711C15 2.31658 15.3166 2 15.7071 2C15.8946 2 16.0745 2.0745 16.2071 2.20711L19.7929 5.79289C19.9255 5.9255 20 6.10536 20 6.29289C20 6.68342 19.6834 7 19.2929 7H17C15.8954 7 15 6.10457 15 5V2.70711Z" fill="#12131A"/>
<path d="M15 2.70711C15 2.31658 15.3166 2 15.7071 2C15.8946 2 16.0745 2.0745 16.2071 2.20711L19.7929 5.79289C19.9255 5.9255 20 6.10536 20 6.29289C20 6.68342 19.6834 7 19.2929 7H17C15.8954 7 15 6.10457 15 5V2.70711Z" fill="#074ACB"/>
<path fill-rule="evenodd" clip-rule="evenodd" d="M18 20.5858C17.7348 20.5858 17.4804 20.4804 17.2929 20.2929L18 21L18.7063 20.2937C18.5188 20.4807 18.2648 20.5858 18 20.5858ZM18 19.5858L21.2929 16.2929C21.6834 15.9024 22.3166 15.9024 22.7071 16.2929C23.0976 16.6834 23.0976 17.3166 22.7071 17.7071L18.7071 21.7071C18.3166 22.0976 17.6834 22.0976 17.2929 21.7071L15.2929 19.7071C14.9024 19.3166 14.9024 18.6834 15.2929 18.2929C15.6834 17.9024 16.3166 17.9024 16.7071 18.2929L18 19.5858ZM5.03755 4.91104C5.00078 5.36113 5 5.94342 5 6.8V17.2C5 18.0566 5.00078 18.6389 5.03755 19.089C5.07337 19.5274 5.1383 19.7516 5.21799 19.908C5.40973 20.2843 5.7157 20.5903 6.09202 20.782C6.24842 20.8617 6.47262 20.9266 6.91104 20.9624C7.36113 20.9992 7.94342 21 8.8 21H12V19C12 15.134 15.134 12 19 12V10H17C14.2386 10 12 7.76142 12 5V3H8.8C7.94342 3 7.36113 3.00078 6.91104 3.03755C6.47262 3.07337 6.24842 3.1383 6.09202 3.21799C5.71569 3.40973 5.40973 3.71569 5.21799 4.09202C5.1383 4.24842 5.07337 4.47262 5.03755 4.91104ZM18.5858 6H17C16.4477 6 16 5.55228 16 5V3.41421L18.5858 6ZM4 6.8C4 5.11984 4 4.27976 4.32698 3.63803C4.6146 3.07354 5.07354 2.6146 5.63803 2.32698C6.27976 2 7.11984 2 8.8 2H12.2C12.48 2 12.62 2 12.727 2.0545C12.8211 2.10243 12.8976 2.17892 12.9455 2.273C13 2.37996 13 2.51997 13 2.8V5C13 7.20914 14.7909 9 17 9H19.2C19.48 9 19.62 9 19.727 9.0545C19.8211 9.10243 19.8976 9.17892 19.9455 9.273C20 9.37996 20 9.51997 20 9.8V12.2C20 12.48 20 12.62 19.9455 12.727C19.8976 12.8211 19.8211 12.8976 19.727 12.9455C19.62 13 19.48 13 19.2 13H19C15.6863 13 13 15.6863 13 19V21.2C13 21.48 13 21.62 12.9455 21.727C12.8976 21.8211 12.8211 21.8976 12.727 21.9455C12.62 22 12.48 22 12.2 22H8.8C7.11984 22 6.27976 22 5.63803 21.673C5.07354 21.3854 4.6146 20.9265 4.32698 20.362C4 19.7202 4 18.8802 4 17.2V6.8ZM15.7071 2C15.3166 2 15 2.31658 15 2.70711V5C15 6.10457 15.8954 7 17 7H19.2929C19.6834 7 20 6.68342 20 6.29289C20 6.10536 19.9255 5.9255 19.7929 5.79289L16.2071 2.20711C16.0745 2.0745 15.8946 2 15.7071 2Z" fill="#1161FA"/>
</svg>
