<svg width="42" height="42" viewBox="0 0 42 42" fill="none" xmlns="http://www.w3.org/2000/svg">
<path d="M24.0593 9.1C24.0593 8.16112 24.8231 7.4 25.7653 7.4H34.2913C35.6376 7.4 36.4534 8.88128 35.7303 10.013L31.4664 16.687C31.1105 17.244 31.1105 17.956 31.4664 18.513L35.7303 25.187C36.4534 26.3187 35.6376 27.8 34.2913 27.8H27.4712C25.5869 27.8 24.0593 26.2778 24.0593 24.4V9.1Z" fill="#12131A"/>
<path d="M24.0593 9.1C24.0593 8.16112 24.8231 7.4 25.7653 7.4H34.2913C35.6376 7.4 36.4534 8.88128 35.7303 10.013L31.4664 16.687C31.1105 17.244 31.1105 17.956 31.4664 18.513L35.7303 25.187C36.4534 26.3187 35.6376 27.8 34.2913 27.8H27.4712C25.5869 27.8 24.0593 26.2778 24.0593 24.4V9.1Z" fill="#DDC916"/>
<path d="M13.8237 5.7C13.8237 4.76112 14.5875 4 15.5297 4H17.2356C19.1199 4 20.6475 5.52223 20.6475 7.4V22.7C20.6475 23.6389 19.8837 24.4 18.9415 24.4H15.5297C14.5875 24.4 13.8237 23.6389 13.8237 22.7V5.7Z" fill="#12131A"/>
<path d="M13.8237 5.7C13.8237 4.76112 14.5875 4 15.5297 4H17.2356C19.1199 4 20.6475 5.52223 20.6475 7.4V22.7C20.6475 23.6389 19.8837 24.4 18.9415 24.4H15.5297C14.5875 24.4 13.8237 23.6389 13.8237 22.7V5.7Z" fill="#DDC916"/>
<path d="M7 5.7C7 4.76112 7.76377 4 8.70593 4C9.6481 4 10.4119 4.76112 10.4119 5.7V36.3C10.4119 37.2389 9.6481 38 8.70593 38C7.76377 38 7 37.2389 7 36.3V5.7Z" fill="#12131A"/>
<path d="M7 5.7C7 4.76112 7.76377 4 8.70593 4C9.6481 4 10.4119 4.76112 10.4119 5.7V36.3C10.4119 37.2389 9.6481 38 8.70593 38C7.76377 38 7 37.2389 7 36.3V5.7Z" fill="#DDC916"/>
<path fill-rule="evenodd" clip-rule="evenodd" d="M34.2913 8.4H25.7653C25.3721 8.4 25.0593 8.71668 25.0593 9.1V24.4C25.0593 25.7222 26.1359 26.8 27.4712 26.8H34.2913C34.854 26.8 35.182 26.1862 34.8876 25.7254L30.6237 19.0514C30.0581 18.1661 30.0581 17.0339 30.6237 16.1486L34.8876 9.47461C35.182 9.01382 34.854 8.4 34.2913 8.4ZM17.2356 5H15.5297C15.1365 5 14.8237 5.31668 14.8237 5.7V22.7C14.8237 23.0833 15.1365 23.4 15.5297 23.4H18.9415C19.3347 23.4 19.6475 23.0833 19.6475 22.7V7.4C19.6475 6.0778 18.5709 5 17.2356 5ZM9.41187 36.3V5.7C9.41187 5.31668 9.0991 5 8.70593 5C8.31277 5 8 5.31668 8 5.7V36.3C8 36.6833 8.31277 37 8.70593 37C9.0991 37 9.41187 36.6833 9.41187 36.3ZM8.70593 4C7.76377 4 7 4.76112 7 5.7V36.3C7 37.2389 7.76377 38 8.70593 38C9.6481 38 10.4119 37.2389 10.4119 36.3V5.7C10.4119 4.76112 9.6481 4 8.70593 4ZM13.8237 5.7C13.8237 4.76112 14.5875 4 15.5297 4H17.2356C19.1199 4 20.6475 5.52223 20.6475 7.4V22.7C20.6475 23.6389 19.8837 24.4 18.9415 24.4H15.5297C14.5875 24.4 13.8237 23.6389 13.8237 22.7V5.7ZM24.0593 9.1C24.0593 8.16112 24.8231 7.4 25.7653 7.4H34.2913C35.6376 7.4 36.4534 8.88128 35.7303 10.013L31.4664 16.687C31.1105 17.244 31.1105 17.956 31.4664 18.513L35.7303 25.187C36.4534 26.3187 35.6376 27.8 34.2913 27.8H27.4712C25.5869 27.8 24.0593 26.2778 24.0593 24.4V9.1Z" fill="#FFE500"/>
</svg>
