<svg width="64" height="64" viewBox="0 0 64 64" xmlns="http://www.w3.org/2000/svg">
<path d="M37.6025 23.6086H60V15.2793C60 13.746 58.7466 12.5029 57.2003 12.5029V10.7999C57.2134 9.26662 55.9706 8.01311 54.4245 8.0001C54.2948 7.99901 54.1652 8.00682 54.0367 8.02353C49.9678 8.56959 47.5041 10.1428 47.0374 12.4843H6.80589C5.25971 12.4843 4.0062 13.7273 4.0062 15.2608V23.59H24.164C24.6794 23.59 25.0972 24.0043 25.0972 24.5154C25.0972 25.0266 24.6794 25.4409 24.164 25.4409H4.0062V26.3663C4.0062 27.8748 5.87269 28.4949 6.6752 28.754L7.24443 28.9298C7.57668 29.024 7.90367 29.1353 8.22432 29.263C8.51009 29.3729 8.76808 29.5435 8.98024 29.7628C9.40151 30.2433 9.66234 30.8414 9.72686 31.4749C9.90567 33.0138 9.7203 34.5728 9.18562 36.0283C8.58981 37.635 7.84636 39.1839 6.96457 40.6557L6.17136 42.1179C5.21017 43.9689 4.00631 46.1807 4.00631 48.5962C3.91674 51.0126 4.78431 53.3677 6.42333 55.1578C6.95232 55.698 7.67981 56.0019 8.43911 55.9999H19.2366C20.3043 56.0085 21.2801 55.4019 21.7376 54.4451C22.3629 53.0755 21.9896 51.2615 20.6551 49.0496C19.0592 46.4121 21.6629 41.979 24.6399 38.7214C24.8163 38.5275 25.0672 38.4166 25.3305 38.416H33.3377C34.582 38.416 35.6769 37.6016 36.0254 36.417C36.6693 34.2328 38.5918 29.1613 42.2687 29.1613H57.2003C58.7465 29.1613 60 27.9183 60 26.3849V25.4594H37.6025C37.0871 25.4594 36.6693 25.0451 36.6693 24.534C36.6693 24.0228 37.0871 23.6086 37.6025 23.6086ZM34.4761 30.0868C33.8872 31.1277 33.4236 32.2335 33.095 33.3815C32.8627 34.1713 32.1327 34.7142 31.3032 34.7142H24.5372C23.5064 34.7142 22.6707 33.8855 22.6707 32.8632V29.1614C22.6707 28.1391 23.5064 27.3104 24.5372 27.3104H32.8616C33.5344 27.3044 34.1583 27.658 34.4947 28.2358C34.8225 28.8118 34.8154 29.5174 34.4761 30.0868ZM31.0698 18.0556C30.5544 18.0556 30.1366 17.6412 30.1366 17.1302V14.3538H42.2686V17.1302C42.2686 17.6413 41.8508 18.0556 41.3354 18.0556H31.0698Z"/>
<path fill-rule="evenodd" clip-rule="evenodd" d="M55.4142 55.4142C54.6332 56.1953 53.3668 56.1953 52.5858 55.4142L48.5858 51.4142C47.8047 50.6332 47.8047 49.3668 48.5858 48.5858C49.3668 47.8047 50.6332 47.8047 51.4142 48.5858L52 49.1716V42C52 40.8954 52.8954 40 54 40C55.1046 40 56 40.8954 56 42V49.1716L56.5858 48.5858C57.3668 47.8047 58.6332 47.8047 59.4142 48.5858C60.1953 49.3668 60.1953 50.6332 59.4142 51.4142L55.4142 55.4142Z"/>
</svg>
