<svg width="24" height="24" viewBox="0 0 24 24" fill="none" xmlns="http://www.w3.org/2000/svg">
<path d="M14.1009 8.85321H22.5V5.72974C22.5 5.15474 22.03 4.68858 21.4501 4.68858V4.04998C21.455 3.47498 20.989 3.00492 20.4092 3.00004C20.3605 2.99963 20.3119 3.00256 20.2637 3.00882C18.7379 3.2136 17.814 3.80356 17.639 4.68163H2.55221C1.97239 4.68163 1.50232 5.14775 1.50232 5.72278V8.84625H9.06149C9.25477 8.84625 9.41143 9.00161 9.41143 9.19329C9.41143 9.38497 9.25477 9.54033 9.06149 9.54033H1.50232V9.88737C1.50232 10.453 2.20226 10.6856 2.5032 10.7828L2.71666 10.8487C2.84125 10.884 2.96388 10.9257 3.08412 10.9736C3.19128 11.0148 3.28803 11.0788 3.36759 11.161C3.52556 11.3412 3.62338 11.5655 3.64757 11.8031C3.71463 12.3802 3.64511 12.9648 3.44461 13.5106C3.22118 14.1131 2.94239 14.694 2.61171 15.2459L2.31426 15.7942C1.95381 16.4883 1.50236 17.3178 1.50236 18.2236C1.46878 19.1297 1.79412 20.0129 2.40875 20.6842C2.60712 20.8867 2.87993 21.0007 3.16467 21H7.21373C7.61412 21.0032 7.98002 20.7757 8.15162 20.4169C8.38608 19.9033 8.2461 19.223 7.74565 18.3936C7.14721 17.4045 8.1236 15.7421 9.23997 14.5205C9.30612 14.4478 9.4002 14.4062 9.49895 14.406H12.5016C12.9682 14.406 13.3788 14.1006 13.5095 13.6564C13.751 12.8373 14.4719 10.9355 15.8507 10.9355H21.4501C22.0299 10.9355 22.5 10.4694 22.5 9.89432V9.54728H14.1009C13.9076 9.54728 13.751 9.39192 13.751 9.20025C13.751 9.00857 13.9076 8.85321 14.1009 8.85321ZM12.9285 11.2826C12.7077 11.6729 12.5339 12.0875 12.4106 12.5181C12.3235 12.8142 12.0498 13.0178 11.7387 13.0178H9.20146C8.81489 13.0178 8.50152 12.7071 8.50152 12.3237V10.9355C8.50152 10.5522 8.81489 10.2414 9.20146 10.2414H12.3231C12.5754 10.2392 12.8094 10.3718 12.9355 10.5884C13.0584 10.8044 13.0558 11.069 12.9285 11.2826ZM11.6512 6.77085C11.4579 6.77085 11.3012 6.61545 11.3012 6.42382V5.38266H15.8507V6.42382C15.8507 6.61549 15.694 6.77085 15.5008 6.77085H11.6512Z" fill="#DDC916"/>
<path fill-rule="evenodd" clip-rule="evenodd" d="M22.5 9.54728H14.1009C13.9076 9.54728 13.751 9.39192 13.751 9.20025C13.751 9.00857 13.9076 8.85321 14.1009 8.85321H22.5V5.72974C22.5 5.15474 22.03 4.68858 21.4501 4.68858V4.04998C21.4502 4.04395 21.4502 4.03794 21.4501 4.03194C21.4453 3.46519 20.9829 3.00487 20.4092 3.00004C20.3605 2.99963 20.3119 3.00256 20.2637 3.00882C18.7379 3.2136 17.814 3.80356 17.639 4.68163H2.55221C1.97239 4.68163 1.50232 5.14775 1.50232 5.72278V8.84625H9.06149C9.25477 8.84625 9.41143 9.00161 9.41143 9.19329C9.41143 9.20962 9.4103 9.22568 9.4081 9.2414C9.39113 9.36277 9.31088 9.46406 9.20146 9.51146C9.1586 9.53003 9.11126 9.54033 9.06149 9.54033H1.50232V9.88737C1.50232 10.1906 1.70343 10.3981 1.93639 10.5403C2.13804 10.6635 2.36357 10.7377 2.5032 10.7828L2.71666 10.8487C2.84125 10.884 2.96388 10.9257 3.08412 10.9736C3.19128 11.0148 3.28803 11.0788 3.36759 11.161C3.52556 11.3412 3.62338 11.5655 3.64757 11.8031C3.71463 12.3802 3.64511 12.9648 3.44461 13.5106C3.22118 14.1131 2.94239 14.694 2.61171 15.2459L2.31426 15.7942C2.29977 15.8221 2.28513 15.8503 2.27038 15.8786C1.91824 16.5552 1.50236 17.3542 1.50236 18.2236C1.46878 19.1297 1.79412 20.0129 2.40875 20.6842C2.60712 20.8867 2.87993 21.0007 3.16467 21H7.21373C7.61412 21.0032 7.98002 20.7757 8.15162 20.4169C8.38608 19.9033 8.2461 19.223 7.74565 18.3936C7.14721 17.4045 8.1236 15.7421 9.23997 14.5205C9.30612 14.4478 9.4002 14.4062 9.49895 14.406H12.5016C12.9682 14.406 13.3788 14.1006 13.5095 13.6564C13.751 12.8373 14.4719 10.9355 15.8507 10.9355H21.4501C21.7806 10.9355 22.0755 10.784 22.2679 10.5473C22.4131 10.3687 22.5 10.1416 22.5 9.89432V9.54728ZM14.2059 10.5473C14.1385 10.6025 14.0742 10.6598 14.0127 10.7186C14.0052 10.6594 13.9946 10.6004 13.9808 10.542C14.0204 10.5455 14.0605 10.5473 14.1009 10.5473H14.2059ZM12.7543 9.29514C12.7521 9.26381 12.751 9.23217 12.751 9.20025C12.751 8.44843 13.3632 7.85321 14.1009 7.85321H21.5V5.72974C21.5 5.72342 21.4989 5.71973 21.4977 5.71679C21.4961 5.71316 21.4932 5.70841 21.4883 5.70358C21.4835 5.69875 21.4778 5.695 21.472 5.69256C21.4668 5.69039 21.46 5.68858 21.4501 5.68858H20.4501V4.04142C20.4502 4.0351 20.4492 4.03142 20.4479 4.02849C20.4464 4.02487 20.4436 4.02012 20.4388 4.01528C20.434 4.01042 20.4283 4.00664 20.4226 4.00416C20.4174 4.00196 20.4107 4.00009 20.4008 4M12.7543 9.29514C12.6139 9.25903 12.468 9.24056 12.3197 9.2414H12.3231V10.2414L12.3142 9.24144C12.316 9.24143 12.3179 9.24141 12.3197 9.2414H10.4106C10.4112 9.22544 10.4114 9.2094 10.4114 9.19329C10.4114 8.44148 9.79917 7.84625 9.06149 7.84625H2.50232V5.72278C2.50232 5.71646 2.50341 5.71277 2.50466 5.70983C2.50621 5.7062 2.50911 5.70146 2.51397 5.69663C2.51885 5.6918 2.52453 5.68805 2.53035 5.68561C2.53552 5.68344 2.54228 5.68163 2.55221 5.68163H10.3012V6.42382C10.3012 7.17552 10.9134 7.77085 11.6512 7.77085H15.5008C16.2384 7.77085 16.8507 7.17563 16.8507 6.42382V5.68163H18.4594L18.6198 4.87708C18.6597 4.67678 18.9543 4.1942 20.3935 4.00038C20.3957 4.00012 20.3982 3.99998 20.4008 4M15.8507 5.68163V5.38266H11.3012V5.68163M15.8507 5.68163V6.38266ZM9.90935 10.2414H9.20146C9.15352 10.2414 9.10671 10.2462 9.06149 10.2553C8.8817 10.2915 8.72693 10.396 8.62596 10.5403C8.5475 10.6525 8.50152 10.7887 8.50152 10.9355V12.3237C8.50152 12.7071 8.81489 13.0178 9.20146 13.0178H11.7387C12.0498 13.0178 12.3235 12.8142 12.4106 12.5181C12.5339 12.0875 12.7077 11.6729 12.9285 11.2826C13.0558 11.069 13.0584 10.8044 12.9355 10.5884M8.48766 13.8614C7.90799 13.5937 7.50152 13.0097 7.50152 12.3237V10.9355C7.50152 10.7992 7.51757 10.6669 7.54785 10.5403H4.15251C4.42595 10.8674 4.59675 11.2687 4.64162 11.694C4.72553 12.4248 4.63699 13.1648 4.38327 13.8554L4.38223 13.8583C4.13988 14.5118 3.83815 15.142 3.48076 15.741L3.19758 16.2631C2.80883 17.0118 2.50236 17.6111 2.50236 18.2236V18.2421L2.50168 18.2606C2.4782 18.8941 2.70205 19.5132 3.12824 19.9889C3.13683 19.9955 3.1486 20 3.16209 20L3.16467 20L7.22176 20C7.23383 20.0001 7.24206 19.9949 7.24648 19.9899C7.27087 19.9171 7.31522 19.6159 6.88943 18.9102C6.3267 17.979 6.59218 16.9083 6.93659 16.1367C7.3006 15.3211 7.89048 14.5173 8.48766 13.8614Z" fill="#FFE500"/>
</svg>
