<svg width="24" height="24" viewBox="0 0 24 24" xmlns="http://www.w3.org/2000/svg">
<path d="M14.1009 8.85321H22.5V5.72974C22.5 5.15474 22.03 4.68858 21.4501 4.68858V4.04998C21.455 3.47498 20.989 3.00492 20.4092 3.00004C20.3605 2.99963 20.3119 3.00256 20.2637 3.00882C18.7379 3.2136 17.814 3.80356 17.639 4.68163H2.55221C1.97239 4.68163 1.50232 5.14775 1.50232 5.72278V8.84625H9.06149C9.25477 8.84625 9.41143 9.00161 9.41143 9.19329C9.41143 9.38497 9.25477 9.54033 9.06149 9.54033H1.50232V9.88737C1.50232 10.4531 2.20226 10.6856 2.5032 10.7828L2.71666 10.8487C2.84125 10.884 2.96388 10.9257 3.08412 10.9736C3.19128 11.0148 3.28803 11.0788 3.36759 11.161C3.52556 11.3412 3.62338 11.5655 3.64757 11.8031C3.71463 12.3802 3.64511 12.9648 3.44461 13.5106C3.22118 14.1131 2.94239 14.694 2.61171 15.2459L2.31426 15.7942C1.95381 16.4883 1.50236 17.3178 1.50236 18.2236C1.46878 19.1297 1.79412 20.0129 2.40875 20.6842C2.60712 20.8867 2.87993 21.0007 3.16467 21H7.21373C7.61412 21.0032 7.98002 20.7757 8.15162 20.4169C8.38608 19.9033 8.2461 19.223 7.74565 18.3936C7.14721 17.4045 8.1236 15.7421 9.23997 14.5205C9.30612 14.4478 9.4002 14.4062 9.49895 14.406H12.5016C12.9682 14.406 13.3788 14.1006 13.5095 13.6564C13.751 12.8373 14.4719 10.9355 15.8507 10.9355H21.4501C22.0299 10.9355 22.5 10.4694 22.5 9.89432V9.54729H14.1009C13.9076 9.54729 13.751 9.39193 13.751 9.20025C13.751 9.00857 13.9076 8.85321 14.1009 8.85321ZM12.9285 11.2826C12.7077 11.6729 12.5339 12.0875 12.4106 12.5181C12.3235 12.8142 12.0498 13.0178 11.7387 13.0178H9.20146C8.81489 13.0178 8.50152 12.7071 8.50152 12.3237V10.9355C8.50152 10.5522 8.81489 10.2414 9.20146 10.2414H12.3231C12.5754 10.2392 12.8094 10.3718 12.9355 10.5884C13.0584 10.8044 13.0558 11.069 12.9285 11.2826ZM11.6512 6.77085C11.4579 6.77085 11.3012 6.61545 11.3012 6.42382V5.38266H15.8507V6.42382C15.8507 6.61549 15.694 6.77085 15.5008 6.77085H11.6512Z"/>
</svg>
