<svg width="24" height="24" viewBox="0 0 24 24" fill="none" xmlns="http://www.w3.org/2000/svg">
<path d="M12 2C17.523 2 22 6.477 22 12C22 17.523 17.523 22 12 22C10.3578 22.0025 8.74048 21.5988 7.29201 20.825L2.00001 22L3.17601 16.71C2.40154 15.261 1.99754 13.643 2.00001 12C2.00001 6.477 6.47701 2 12 2ZM13 7H11V14H17V12H13V7Z" fill="#DDC916"/>
<path fill-rule="evenodd" clip-rule="evenodd" d="M11.9985 21L12 21C16.9707 21 21 16.9707 21 12C21 7.02928 16.9707 3 12 3C7.0293 3 3.00001 7.02928 3.00001 12V12.0015C2.99779 13.4795 3.36122 14.9351 4.05794 16.2386L4.23258 16.5654L3.31716 20.6832L7.43667 19.7685L7.76321 19.943C9.06625 20.6391 10.5212 21.0022 11.9985 21ZM2.00001 22L3.17601 16.71C2.40154 15.261 1.99754 13.643 2.00001 12C2.00001 6.477 6.47701 2 12 2C17.523 2 22 6.477 22 12C22 17.523 17.523 22 12 22C10.3578 22.0025 8.74048 21.5988 7.29201 20.825L2.00001 22ZM14 6V11H18V15H10V6H14ZM11 7H13V12H17V14H11V7Z" fill="#FFE500"/>
</svg>
