<svg width="16" height="16" viewBox="0 0 16 16" xmlns="http://www.w3.org/2000/svg">
<path d="M8.99935 5.33333H7.99935V8.66667L10.8527 10.36L11.3327 9.55333L8.99935 8.16667V5.33333ZM8.66602 2C7.07472 2 5.54859 2.63214 4.42337 3.75736C3.29816 4.88258 2.66602 6.4087 2.66602 8H0.666016L3.30602 10.6867L5.99935 8H3.99935C3.99935 6.76232 4.49101 5.57534 5.36618 4.70017C6.24135 3.825 7.42834 3.33333 8.66602 3.33333C9.90369 3.33333 11.0907 3.825 11.9658 4.70017C12.841 5.57534 13.3327 6.76232 13.3327 8C13.3327 9.23768 12.841 10.4247 11.9658 11.2998C11.0907 12.175 9.90369 12.6667 8.66602 12.6667C7.37935 12.6667 6.21268 12.14 5.37268 11.2933L4.42602 12.24C4.98042 12.8003 5.64091 13.2445 6.3689 13.5467C7.09689 13.8489 7.8778 14.003 8.66602 14C10.2573 14 11.7834 13.3679 12.9087 12.2426C14.0339 11.1174 14.666 9.5913 14.666 8C14.666 6.4087 14.0339 4.88258 12.9087 3.75736C11.7834 2.63214 10.2573 2 8.66602 2Z"/>
</svg>
