<svg width="24" height="24" viewBox="0 0 24 24" xmlns="http://www.w3.org/2000/svg">
<path d="M12 2C17.5228 2 22 6.47715 22 12C22 17.5228 17.5228 22 12 22C6.47715 22 2 17.5228 2 12C2 6.47715 6.47715 2 12 2ZM8.2998 5.7998V9.68262L10.6172 12L8.2998 14.3174V18.2002H15.9004V14.3174L13.583 12L15.9004 9.68262V5.7998H8.2998ZM14.2998 14.7822V16.5996H9.90039V14.7822L12.0996 12.582L14.2998 14.7822ZM14.2998 7.40039V9.2168L12.0996 11.417L9.90039 9.2168V7.40039H14.2998ZM10.7002 8.2002V8.93262L11.959 10.1914L12.0996 10.333L13.5 8.93262V8.2002H10.7002Z"/>
</svg>
