<svg width="24" height="24" viewBox="0 0 24 24" xmlns="http://www.w3.org/2000/svg">
<path d="M8.36364 16.2043H15.6364V19.7478H8.36364V16.2043Z"/>
<path d="M12 2.73903C7.5888 2.73903 4 6.23622 4 10.5347V21.1652C4 22.7283 5.30502 24 6.90909 24H17.0909C18.695 24 20 22.7283 20 21.1652V10.5347C20 6.23617 16.4112 2.73903 12 2.73903ZM7.63636 9.11732H16.3636V10.5347H14.9091V11.9521H13.4545V10.5347H7.63636V9.11732ZM17.0909 21.1652H6.90909V14.7869H17.0909V21.1652Z"/>
<path d="M19.4693 1.37908L15.3415 0L14.7378 1.716C16.1965 2.14684 17.5069 2.91252 18.5749 3.921L19.4693 1.37908Z"/>
<path d="M9.26225 1.716L8.65847 0L4.53072 1.37908L5.42507 3.921C6.49309 2.91256 7.80359 2.14684 9.26225 1.716Z"/>
</svg>
