<svg width="24" height="24" viewBox="0 0 24 24" xmlns="http://www.w3.org/2000/svg">
<path d="M20.025 13.6217V18.0832C20.025 18.187 19.975 18.2648 19.875 18.3167L12.25 21.9741V13.7255L14.8 15.9043C14.925 16.0081 15.1 16.0859 15.275 16.0859C15.45 16.0859 15.525 16.06 15.625 16.0081L20 13.6476L20.025 13.6217ZM9.2 15.9043C9.075 16.0081 8.9 16.0859 8.725 16.0859C8.55 16.0859 8.475 16.06 8.375 16.0081L4 13.6476V18.1092C4 18.2129 4.05 18.2907 4.15 18.3426L11.775 22V13.7514L9.225 15.9303L9.2 15.9043ZM23 11.2872C23 11.365 22.95 11.4428 22.875 11.4947L15.4 15.5153C15.375 15.5153 15.325 15.5412 15.275 15.5412C15.225 15.5412 15.15 15.5412 15.125 15.4893L12 12.8435L8.875 15.4893C8.825 15.5153 8.775 15.5412 8.725 15.5412C8.675 15.5412 8.65 15.5412 8.6 15.5153L1.125 11.4947C1.05 11.4428 1 11.365 1 11.2872C1 11.2094 1.025 11.1056 1.1 11.0538L3.875 8.74518L1.375 6.15129C1.325 6.09941 1.3 5.99565 1.3 5.91784C1.3 5.84002 1.375 5.7622 1.45 5.73626L9.225 2.02699C9.325 1.97511 9.425 2.02699 9.5 2.07887L12 4.67277L14.5 2.07887C14.575 2.00105 14.675 1.97511 14.775 2.02699L22.55 5.73626C22.625 5.7622 22.675 5.84002 22.7 5.91784C22.7 5.99565 22.7 6.09941 22.625 6.15129L20.125 8.74518L22.9 11.0538C22.975 11.1056 23 11.1834 23 11.2872ZM19.175 8.77112L12 5.34718L4.825 8.77112L12 12.1951L19.175 8.77112Z"/>
</svg>
