<svg width="24" height="24" viewBox="0 0 24 24" fill="none" xmlns="http://www.w3.org/2000/svg">
<path d="M20.025 13.6217V18.0832C20.025 18.187 19.975 18.2648 19.875 18.3167L12.25 21.9741V13.7255L14.8 15.9043C14.925 16.0081 15.1 16.0859 15.275 16.0859C15.45 16.0859 15.525 16.06 15.625 16.0081L20 13.6476L20.025 13.6217ZM9.2 15.9043C9.075 16.0081 8.9 16.0859 8.725 16.0859C8.55 16.0859 8.475 16.06 8.375 16.0081L4 13.6476V18.1092C4 18.2129 4.05 18.2907 4.15 18.3426L11.775 22V13.7514L9.225 15.9303L9.2 15.9043ZM23 11.2872C23 11.365 22.95 11.4428 22.875 11.4947L15.4 15.5153C15.375 15.5153 15.325 15.5412 15.275 15.5412C15.225 15.5412 15.15 15.5412 15.125 15.4893L12 12.8435L8.875 15.4893C8.825 15.5153 8.775 15.5412 8.725 15.5412C8.675 15.5412 8.65 15.5412 8.6 15.5153L1.125 11.4947C1.05 11.4428 1 11.365 1 11.2872C1 11.2094 1.025 11.1056 1.1 11.0538L3.875 8.74518L1.375 6.15129C1.325 6.09941 1.3 5.99565 1.3 5.91784C1.3 5.84002 1.375 5.7622 1.45 5.73626L9.225 2.02699C9.325 1.97511 9.425 2.02699 9.5 2.07887L12 4.67277L14.5 2.07887C14.575 2.00105 14.675 1.97511 14.775 2.02699L22.55 5.73626C22.625 5.7622 22.675 5.84002 22.7 5.91784C22.7 5.99565 22.7 6.09941 22.625 6.15129L20.125 8.74518L22.9 11.0538C22.975 11.1056 23 11.1834 23 11.2872ZM19.175 8.77112L12 5.34718L4.825 8.77112L12 12.1951L19.175 8.77112Z" fill="#DDC916"/>
<path fill-rule="evenodd" clip-rule="evenodd" d="M22.875 11.4947C22.95 11.4428 23 11.365 23 11.2872C23 11.1834 22.975 11.1056 22.9 11.0538L20.125 8.74518L22.625 6.15129C22.7 6.09941 22.7 5.99565 22.7 5.91784C22.675 5.84002 22.625 5.7622 22.55 5.73626L14.775 2.02699C14.675 1.97511 14.575 2.00105 14.5 2.07887L12 4.67277L9.5 2.07887C9.425 2.02699 9.325 1.97511 9.225 2.02699L1.45 5.73626C1.375 5.7622 1.3 5.84002 1.3 5.91784C1.3 5.99565 1.325 6.09941 1.375 6.15129L3.875 8.74518L1.1 11.0538C1.025 11.1056 1 11.2094 1 11.2872C1 11.365 1.05 11.4428 1.125 11.4947L8.6 15.5153C8.60893 15.5199 8.61706 15.5237 8.62468 15.5268C8.6275 15.528 8.63025 15.529 8.63294 15.53C8.66373 15.5412 8.68723 15.5412 8.725 15.5412C8.7688 15.5412 8.81261 15.5213 8.85641 15.4989C8.85806 15.4981 8.85971 15.4972 8.86137 15.4964C8.86591 15.494 8.87046 15.4917 8.875 15.4893L12 12.8435L15.125 15.4893C15.1274 15.4942 15.1302 15.4987 15.1334 15.5027C15.135 15.5047 15.1366 15.5066 15.1384 15.5083C15.1707 15.5412 15.2321 15.5412 15.275 15.5412C15.3043 15.5412 15.3336 15.5323 15.3578 15.5249C15.3597 15.5243 15.3616 15.5238 15.3634 15.5232C15.3664 15.5223 15.3693 15.5215 15.3721 15.5207C15.3832 15.5175 15.3927 15.5153 15.4 15.5153L22.875 11.4947ZM15.625 16.0081C15.5527 16.0456 15.4934 16.0696 15.4 16.0799C15.3642 16.0839 15.3234 16.0859 15.275 16.0859C15.1 16.0859 14.925 16.0081 14.8 15.9043L12.25 13.7255V21.9741L19.875 18.3167C19.975 18.2648 20.025 18.187 20.025 18.0832V13.6217L20 13.6476L15.625 16.0081ZM19.025 15.31L16.0927 16.892L16.0855 16.8958C16.0028 16.9387 15.8788 16.998 15.7153 17.0379C15.5581 17.0763 15.4096 17.0859 15.275 17.0859C14.8217 17.0859 14.4278 16.895 14.1613 16.6738L14.1558 16.6692L13.25 15.8953V20.3853L19.025 17.6153V15.31ZM11.775 22L4.15 18.3426C4.05 18.2907 4 18.2129 4 18.1092V13.6476L8.375 16.0081C8.475 16.06 8.55 16.0859 8.725 16.0859C8.86542 16.0859 9.00584 16.0358 9.12043 15.9624C9.14865 15.9443 9.1753 15.9248 9.2 15.9043L9.225 15.9303L11.775 13.7514V22ZM10.775 15.9212V20.4113L5 17.6412V15.3234L7.9073 16.892L7.9145 16.8958C7.99723 16.9387 8.12122 16.998 8.28471 17.0379C8.44194 17.0763 8.59044 17.0859 8.725 17.0859C8.79713 17.0859 8.86776 17.0811 8.93661 17.0721L9.15859 17.3024L10.775 15.9212ZM20.6024 11.5816L15.3768 14.3922L13.3369 12.6651L19.6513 9.65188L21.4335 11.1346L21.025 11.3543V11.1431L20.6024 11.5816ZM19.5888 7.86055L13.2376 4.82973L14.8408 3.16633L21.1925 6.19659L19.5888 7.86055ZM12 5.34718L4.825 8.77112L12 12.1951L19.175 8.77112L12 5.34718ZM8.62318 14.3922L10.6631 12.6651L4.34874 9.65188L2.56648 11.1346L8.62318 14.3922ZM4.41124 7.86055L10.7624 4.82973L9.15925 3.16633L2.80752 6.19659L4.41124 7.86055Z" fill="#FFE500"/>
</svg>
