<svg width="24" height="24" viewBox="0 0 24 24" fill="none" xmlns="http://www.w3.org/2000/svg">
<path fill-rule="evenodd" clip-rule="evenodd" d="M13.2193 2.60753C12.6071 1.80009 11.3932 1.8001 10.781 2.60753L9.40698 4.41964C9.18864 4.70759 8.83193 4.85534 8.47393 4.80612L6.22099 4.49635C5.21713 4.35833 4.35882 5.21664 4.49684 6.2205L4.80661 8.47344C4.85583 8.83144 4.70808 9.18815 4.42013 9.40649L2.60802 10.7805C1.80058 11.3928 1.80058 12.6066 2.60802 13.2188L4.42013 14.5929C4.70808 14.8112 4.85583 15.1679 4.80661 15.5259L4.49684 17.7789C4.35882 18.7827 5.21713 19.641 6.22098 19.503L8.47393 19.1932C8.83193 19.144 9.18864 19.2918 9.40698 19.5797L10.781 21.3918C11.3933 22.1993 12.6071 22.1993 13.2193 21.3918L14.5934 19.5797C14.8117 19.2918 15.1684 19.144 15.5264 19.1932L17.7794 19.503C18.7832 19.641 19.6415 18.7827 19.5035 17.7789L19.1937 15.5259C19.1445 15.1679 19.2923 14.8112 19.5802 14.5929L21.3923 13.2188C22.1998 12.6066 22.1998 11.3928 21.3923 10.7805L19.5802 9.40649C19.2923 9.18815 19.1445 8.83144 19.1937 8.47344L19.5035 6.2205C19.6415 5.21664 18.7832 4.35833 17.7794 4.49635L15.5264 4.80612C15.1684 4.85534 14.8117 4.70759 14.5934 4.41964L13.2193 2.60753ZM12.6039 8.10392C13.5191 9.01913 13.6696 10.4221 13.0851 11.5851L16.7144 15.2144L15.2143 16.7144L14.513 16.0131L13.013 17.5131L11.6104 16.1105L13.1104 14.6105L11.5851 13.0852C10.422 13.6696 9.01907 13.5192 8.10387 12.604C6.94145 11.4416 7.00683 9.49317 8.24997 8.25003C9.49311 7.00689 11.4415 6.94151 12.6039 8.10392ZM9.6526 9.65262C9.23821 10.067 9.21643 10.7165 9.6039 11.1039C9.99136 11.4914 10.6408 11.4697 11.0552 11.0553C11.4696 10.6409 11.4914 9.9914 11.1039 9.60394C10.7164 9.21647 10.067 9.23823 9.6526 9.65262Z" fill="#12131A" fill-opacity="0.25"/>
<path fill-rule="evenodd" clip-rule="evenodd" d="M13.2193 2.60753C12.6071 1.80009 11.3932 1.8001 10.781 2.60753L9.40698 4.41964C9.18864 4.70759 8.83193 4.85534 8.47393 4.80612L6.22099 4.49635C5.21713 4.35833 4.35882 5.21664 4.49684 6.2205L4.80661 8.47344C4.85583 8.83144 4.70808 9.18815 4.42013 9.40649L2.60802 10.7805C1.80058 11.3928 1.80058 12.6066 2.60802 13.2188L4.42013 14.5929C4.70808 14.8112 4.85583 15.1679 4.80661 15.5259L4.49684 17.7789C4.35882 18.7827 5.21713 19.641 6.22098 19.503L8.47393 19.1932C8.83193 19.144 9.18864 19.2918 9.40698 19.5797L10.781 21.3918C11.3933 22.1993 12.6071 22.1993 13.2193 21.3918L14.5934 19.5797C14.8117 19.2918 15.1684 19.144 15.5264 19.1932L17.7794 19.503C18.7832 19.641 19.6415 18.7827 19.5035 17.7789L19.1937 15.5259C19.1445 15.1679 19.2923 14.8112 19.5802 14.5929L21.3923 13.2188C22.1998 12.6066 22.1998 11.3928 21.3923 10.7805L19.5802 9.40649C19.2923 9.18815 19.1445 8.83144 19.1937 8.47344L19.5035 6.2205C19.6415 5.21664 18.7832 4.35833 17.7794 4.49635L15.5264 4.80612C15.1684 4.85534 14.8117 4.70759 14.5934 4.41964L13.2193 2.60753ZM12.6039 8.10392C13.5191 9.01913 13.6696 10.4221 13.0851 11.5851L16.7144 15.2144L15.2143 16.7144L14.513 16.0131L13.013 17.5131L11.6104 16.1105L13.1104 14.6105L11.5851 13.0852C10.422 13.6696 9.01907 13.5192 8.10387 12.604C6.94145 11.4416 7.00683 9.49317 8.24997 8.25003C9.49311 7.00689 11.4415 6.94151 12.6039 8.10392ZM9.6526 9.65262C9.23821 10.067 9.21643 10.7165 9.6039 11.1039C9.99136 11.4914 10.6408 11.4697 11.0552 11.0553C11.4696 10.6409 11.4914 9.9914 11.1039 9.60394C10.7164 9.21647 10.067 9.23823 9.6526 9.65262Z" fill="#85DD16"/>
<path fill-rule="evenodd" clip-rule="evenodd" d="M13.1104 14.6105L11.5851 13.0852C10.422 13.6696 9.01907 13.5192 8.10387 12.604C6.94145 11.4416 7.00683 9.49317 8.24997 8.25003C9.49311 7.00689 11.4415 6.94151 12.6039 8.10392C13.5191 9.01913 13.6696 10.4221 13.0851 11.5851L16.7144 15.2144L15.2143 16.7144L14.513 16.0131L13.013 17.5131L11.6104 16.1105L13.1104 14.6105ZM14.513 17.4273L13.013 18.9273L10.1962 16.1105L11.6962 14.6105L11.34 14.2543C9.9855 14.6592 8.46506 14.3794 7.39676 13.3111C5.79985 11.7142 5.95467 9.13112 7.54287 7.54292C9.13106 5.95472 11.7141 5.79991 13.311 7.39682C14.3793 8.46511 14.6592 9.98554 14.2543 11.3401L18.1286 15.2144L15.2143 18.1286L14.513 17.4273ZM5.02433 13.796C5.60023 14.2327 5.89573 14.9461 5.79729 15.6621L5.48752 17.9151C5.43971 18.2628 5.73703 18.5601 6.08477 18.5123L8.33772 18.2026C9.05372 18.1041 9.76713 18.3996 10.2038 18.9755L11.5778 20.7876C11.7899 21.0673 12.2104 21.0673 12.4225 20.7876L13.7965 18.9755C14.2332 18.3996 14.9466 18.1041 15.6626 18.2026L17.9156 18.5123C18.2633 18.5601 18.5606 18.2628 18.5128 17.9151L18.203 15.6621C18.1046 14.9461 18.4001 14.2327 18.976 13.796L20.7881 12.422C21.0678 12.2099 21.0678 11.7894 20.7881 11.5774L18.976 10.2033C18.4001 9.76664 18.1046 9.05323 18.2031 8.33723L18.5128 6.08429C18.5606 5.73654 18.2633 5.43922 17.9156 5.48703L15.6626 5.7968C14.9466 5.89524 14.2332 5.59974 13.7965 5.02384L14.5934 4.41964C14.8117 4.70759 15.1684 4.85534 15.5264 4.80612L17.7794 4.49635C18.7832 4.35833 19.6415 5.21664 19.5035 6.2205L19.1937 8.47344C19.1445 8.83144 19.2923 9.18815 19.5802 9.40649L21.3923 10.7805C22.1998 11.3928 22.1998 12.6066 21.3923 13.2188L19.5802 14.5929C19.2923 14.8112 19.1445 15.1679 19.1937 15.5259L19.5035 17.7789C19.6415 18.7827 18.7832 19.641 17.7794 19.503L15.5264 19.1932C15.1684 19.144 14.8117 19.2918 14.5934 19.5797L13.2193 21.3918C12.6071 22.1993 11.3933 22.1993 10.781 21.3918L9.40698 19.5797C9.18864 19.2918 8.83193 19.144 8.47393 19.1932L6.22098 19.503C5.21713 19.641 4.35882 18.7827 4.49684 17.7789L4.80661 15.5259C4.85583 15.1679 4.70808 14.8112 4.42013 14.5929L2.60802 13.2188C1.80058 12.6066 1.80058 11.3928 2.60802 10.7805L4.42013 9.40649C4.70808 9.18815 4.85583 8.83144 4.80661 8.47344L4.49684 6.2205C4.35882 5.21664 5.21713 4.35833 6.22099 4.49635L8.47393 4.80612C8.83193 4.85534 9.18864 4.70759 9.40698 4.41964L10.781 2.60753C11.3932 1.8001 12.6071 1.80009 13.2193 2.60753L14.5934 4.41964L13.7965 5.02384L12.4225 3.21173C12.2104 2.93203 11.7899 2.93203 11.5778 3.21173L10.2038 5.02384C9.76713 5.59974 9.05372 5.89524 8.33772 5.7968L6.08477 5.48703C5.73703 5.43922 5.43971 5.73654 5.48752 6.08429L5.79729 8.33723C5.89573 9.05323 5.60023 9.76664 5.02433 10.2033L3.21222 11.5774C2.93252 11.7894 2.93252 12.2099 3.21222 12.422L5.02433 13.796ZM9.6039 11.1039C9.21643 10.7165 9.23821 10.067 9.6526 9.65262C10.067 9.23823 10.7164 9.21647 11.1039 9.60394C11.4914 9.9914 11.4696 10.6409 11.0552 11.0553C10.6408 11.4697 9.99136 11.4914 9.6039 11.1039Z" fill="#8FFF00"/>
</svg>
