<svg width="24" height="24" viewBox="0 0 24 24" xmlns="http://www.w3.org/2000/svg">
<g clip-path="url(#clip0_2485_9825)">
<path d="M8.00002 14C6.89545 14 6 13.1046 6 12C6 10.8954 6.89545 9.99998 8.00002 9.99998C9.10458 9.99998 10 10.8954 10 12C9.99998 13.1046 9.10458 14 8.00002 14Z"/>
<path fill-rule="evenodd" clip-rule="evenodd" d="M0 12C0 21.882 2.118 24 12 24C21.882 24 24 21.882 24 12C24 2.118 21.882 0 12 0C2.118 0 0 2.118 0 12ZM8.00002 16C5.79089 16 4.00003 14.2091 4.00003 12C4.00003 9.79087 5.79089 8.00002 8.00002 8.00002C9.86658 8.00002 11.4346 9.27853 11.8759 11.0076C11.9166 11.0026 11.958 11 12 11H19C19.5523 11 20 11.4477 20 12V15C20 15.5523 19.5523 16 19 16C18.4477 16 18 15.5523 18 15V13H16V14C16 14.5522 15.5523 15 15 15C14.4477 15 14 14.5522 14 14V13H12C11.958 13 11.9166 12.9974 11.8759 12.9924C11.4346 14.7215 9.86658 16 8.00002 16Z"/>
</g>
<defs>
<clipPath id="clip0_2485_9825">
<rect width="24" height="24" fill="white"/>
</clipPath>
</defs>
</svg>
