<svg width="24" height="24" viewBox="0 0 24 24" xmlns="http://www.w3.org/2000/svg">
<g clip-path="url(#clip0_2485_9834)">
<path fill-rule="evenodd" clip-rule="evenodd" d="M12 24C2.118 24 0 21.882 0 12C0 2.118 2.118 0 12 0C21.882 0 24 2.118 24 12C24 21.882 21.882 24 12 24ZM19.8098 4.02976C19.7465 4.001 19.6756 3.99281 19.6073 4.00639C19.539 4.01996 19.4769 4.05459 19.43 4.10525C18.5696 5.00762 17.4948 5.68537 16.3021 6.07749C15.7625 6.26563 15.2029 6.39263 14.634 6.45604C14.5558 6.46181 14.4823 6.49501 14.4268 6.54961L9.72998 11.1714L12.9263 14.3164C14.1984 13.1211 17.5879 9.91204 18.5804 8.72812C19.0048 8.22192 19.3725 7.32887 19.6734 6.07383C19.8929 5.15877 19.9932 4.39553 19.9974 4.36341C20.0062 4.2954 19.9928 4.22638 19.959 4.16639C19.9253 4.10639 19.873 4.05853 19.8098 4.02976ZM4.46653 17.179C4.16774 17.4744 4 17.8742 4 18.291C4 18.7077 4.16774 19.1075 4.46653 19.4029L4.60604 19.5402C4.90599 19.8346 5.31238 20 5.73607 20C6.15976 20 6.56616 19.8346 6.86611 19.5402L11.045 15.4282L8.6454 13.0671L4.46653 17.179ZM6.52646 18.6943C6.38758 18.831 6.20486 18.916 6.00942 18.9349C5.81398 18.9538 5.61791 18.9055 5.45463 18.7981C5.29134 18.6908 5.17095 18.531 5.11395 18.3461C5.05695 18.1612 5.06687 17.9625 5.14203 17.784C5.21719 17.6055 5.35294 17.4581 5.52614 17.367C5.69934 17.2759 5.89928 17.2468 6.09189 17.2845C6.2845 17.3222 6.45787 17.4244 6.58245 17.5738C6.70704 17.7232 6.77513 17.9104 6.77513 18.1037C6.77546 18.2134 6.75366 18.3222 6.71099 18.4236C6.66832 18.525 6.60554 18.6169 6.52646 18.6943ZM8.71939 10.8531C8.8624 10.8531 8.99958 10.9089 9.10083 11.0083L13.1372 14.9801C13.2383 15.0797 13.295 15.2147 13.295 15.3554C13.295 15.4961 13.2383 15.6311 13.1372 15.7307L12.858 16.0055C12.7568 16.1049 12.6196 16.1607 12.4766 16.1607C12.3335 16.1607 12.1963 16.1049 12.0951 16.0055L8.05874 12.0337C7.95772 11.9341 7.90099 11.7991 7.90099 11.6584C7.90099 11.5177 7.95772 11.3827 8.05874 11.2831L8.33795 11.0083C8.4392 10.9089 8.57638 10.8531 8.71939 10.8531Z"/>
</g>
<defs>
<clipPath id="clip0_2485_9834">
<rect width="24" height="24" fill="white"/>
</clipPath>
</defs>
</svg>
