<svg width="24" height="24" viewBox="0 0 24 24" xmlns="http://www.w3.org/2000/svg">
<path d="M12 2C17.5228 2 22 6.47715 22 12C22 17.5228 17.5228 22 12 22C6.47715 22 2 17.5228 2 12C2 6.47715 6.47715 2 12 2ZM13.7324 5.31445C13.4198 5.17594 13.0532 5.26621 12.8408 5.53418L7.41211 12.3916C7.23358 12.6171 7.19994 12.9247 7.3252 13.1836C7.45045 13.4425 7.71239 13.6074 8 13.6074H10.543L9.83203 17.877C9.77587 18.2144 9.95488 18.5469 10.2676 18.6855C10.5802 18.8241 10.9468 18.7338 11.1592 18.4658L16.5879 11.6084C16.7664 11.3829 16.8001 11.0753 16.6748 10.8164C16.5496 10.5575 16.2876 10.3926 16 10.3926H13.457L14.168 6.12305C14.2241 5.78564 14.0451 5.45312 13.7324 5.31445ZM11.832 11.0195C11.7958 11.237 11.8565 11.4597 11.999 11.6279C12.1415 11.7961 12.3509 11.8925 12.5713 11.8926H14.4502L11.7891 15.2529L12.168 12.9805C12.2042 12.763 12.1435 12.5403 12.001 12.3721C11.8585 12.2039 11.6491 12.1075 11.4287 12.1074H9.5498L12.21 8.74609L11.832 11.0195Z"/>
</svg>
