<svg width="24" height="24" viewBox="0 0 24 24" fill="none" xmlns="http://www.w3.org/2000/svg">
<path d="M13.5029 8.94675L13.4437 9.49993H14.0001H19.0034C19.4205 9.49993 19.6542 9.9806 19.3966 10.3087L10.7577 21.312C10.4475 21.707 9.81387 21.4495 9.86722 20.9502L10.4972 15.053L10.5563 14.4999H10.0001H5.00638C4.58926 14.4999 4.35552 14.0193 4.61308 13.6912L13.2419 2.69917C13.552 2.30412 14.1858 2.56169 14.1324 3.06109L13.5029 8.94675Z" fill="#12131A"/>
<path d="M13.5029 8.94675L13.4437 9.49993H14.0001H19.0034C19.4205 9.49993 19.6542 9.9806 19.3966 10.3087L10.7577 21.312C10.4475 21.707 9.81387 21.4495 9.86722 20.9502L10.4972 15.053L10.5563 14.4999H10.0001H5.00638C4.58926 14.4999 4.35552 14.0193 4.61308 13.6912L13.2419 2.69917C13.552 2.30412 14.1858 2.56169 14.1324 3.06109L13.5029 8.94675Z" fill="#DDC916"/>
<path d="M13.5029 8.94675L13.4437 9.49993H14.0001H19.0034C19.4205 9.49993 19.6542 9.9806 19.3966 10.3087L10.7577 21.312C10.4475 21.707 9.81387 21.4495 9.86722 20.9502L10.4972 15.053L10.5563 14.4999H10.0001H5.00638C4.58926 14.4999 4.35552 14.0193 4.61308 13.6912L13.2419 2.69917C13.552 2.30412 14.1858 2.56169 14.1324 3.06109L13.5029 8.94675Z" stroke="#FFE500"/>
</svg>
