<svg width="24" height="24" viewBox="0 0 24 24" fill="none" xmlns="http://www.w3.org/2000/svg">
<path d="M19.5 3H4.5C4.10218 3 3.72064 3.15804 3.43934 3.43934C3.15804 3.72064 3 4.10218 3 4.5V19.5C3 19.8978 3.15804 20.2794 3.43934 20.5607C3.72064 20.842 4.10218 21 4.5 21H19.5C19.8978 21 20.2794 20.842 20.5607 20.5607C20.842 20.2794 21 19.8978 21 19.5V4.5C21 4.10218 20.842 3.72064 20.5607 3.43934C20.2794 3.15804 19.8978 3 19.5 3ZM6.375 17.625C6.1525 17.625 5.93499 17.559 5.74998 17.4354C5.56498 17.3118 5.42078 17.1361 5.33564 16.9305C5.25049 16.725 5.22821 16.4988 5.27162 16.2805C5.31502 16.0623 5.42217 15.8618 5.5795 15.7045C5.73684 15.5472 5.93729 15.44 6.15552 15.3966C6.37375 15.3532 6.59995 15.3755 6.80552 15.4606C7.01109 15.5458 7.18679 15.69 7.3104 15.875C7.43402 16.06 7.5 16.2775 7.5 16.5C7.5 16.7984 7.38147 17.0845 7.1705 17.2955C6.95952 17.5065 6.67337 17.625 6.375 17.625ZM6.375 13.125C6.1525 13.125 5.93499 13.059 5.74998 12.9354C5.56498 12.8118 5.42078 12.6361 5.33564 12.4305C5.25049 12.225 5.22821 11.9988 5.27162 11.7805C5.31502 11.5623 5.42217 11.3618 5.5795 11.2045C5.73684 11.0472 5.93729 10.94 6.15552 10.8966C6.37375 10.8532 6.59995 10.8755 6.80552 10.9606C7.01109 11.0458 7.18679 11.19 7.3104 11.375C7.43402 11.56 7.5 11.7775 7.5 12C7.5 12.2984 7.38147 12.5845 7.1705 12.7955C6.95952 13.0065 6.67337 13.125 6.375 13.125ZM6.375 8.625C6.1525 8.625 5.93499 8.55902 5.74998 8.4354C5.56498 8.31179 5.42078 8.13609 5.33564 7.93052C5.25049 7.72495 5.22821 7.49875 5.27162 7.28052C5.31502 7.06229 5.42217 6.86184 5.5795 6.7045C5.73684 6.54717 5.93729 6.44002 6.15552 6.39662C6.37375 6.35321 6.59995 6.37549 6.80552 6.46064C7.01109 6.54578 7.18679 6.68998 7.3104 6.87498C7.43402 7.05999 7.5 7.2775 7.5 7.5C7.5 7.79837 7.38147 8.08452 7.1705 8.2955C6.95952 8.50647 6.67337 8.625 6.375 8.625ZM18 17.25H9.75C9.55109 17.25 9.36032 17.171 9.21967 17.0303C9.07902 16.8897 9 16.6989 9 16.5C9 16.3011 9.07902 16.1103 9.21967 15.9697C9.36032 15.829 9.55109 15.75 9.75 15.75H18C18.1989 15.75 18.3897 15.829 18.5303 15.9697C18.671 16.1103 18.75 16.3011 18.75 16.5C18.75 16.6989 18.671 16.8897 18.5303 17.0303C18.3897 17.171 18.1989 17.25 18 17.25ZM18 12.75H9.75C9.55109 12.75 9.36032 12.671 9.21967 12.5303C9.07902 12.3897 9 12.1989 9 12C9 11.8011 9.07902 11.6103 9.21967 11.4697C9.36032 11.329 9.55109 11.25 9.75 11.25H18C18.1989 11.25 18.3897 11.329 18.5303 11.4697C18.671 11.6103 18.75 11.8011 18.75 12C18.75 12.1989 18.671 12.3897 18.5303 12.5303C18.3897 12.671 18.1989 12.75 18 12.75ZM18 8.25H9.75C9.55109 8.25 9.36032 8.17098 9.21967 8.03033C9.07902 7.88968 9 7.69891 9 7.5C9 7.30109 9.07902 7.11032 9.21967 6.96967C9.36032 6.82902 9.55109 6.75 9.75 6.75H18C18.1989 6.75 18.3897 6.82902 18.5303 6.96967C18.671 7.11032 18.75 7.30109 18.75 7.5C18.75 7.69891 18.671 7.88968 18.5303 8.03033C18.3897 8.17098 18.1989 8.25 18 8.25Z" fill="#DDC916"/>
<path fill-rule="evenodd" clip-rule="evenodd" d="M19.5 4H4.5C4.36739 4 4.24021 4.05268 4.14645 4.14645C4.05268 4.24021 4 4.36739 4 4.5V19.5C4 19.6326 4.05268 19.7598 4.14645 19.8536C4.24022 19.9473 4.36739 20 4.5 20H19.5C19.6326 20 19.7598 19.9473 19.8536 19.8536C19.9473 19.7598 20 19.6326 20 19.5V4.5C20 4.36739 19.9473 4.24022 19.8536 4.14645C19.7598 4.05268 19.6326 4 19.5 4ZM6.375 18.625C5.95471 18.625 5.54387 18.5004 5.19441 18.2669C4.84496 18.0334 4.57259 17.7015 4.41176 17.3132C4.25092 16.9249 4.20884 16.4976 4.29083 16.0854C4.37282 15.6732 4.57521 15.2946 4.8724 14.9974C5.16958 14.7002 5.54822 14.4978 5.96043 14.4158C6.37264 14.3338 6.79991 14.3759 7.1882 14.5368C7.57649 14.6976 7.90837 14.97 8.14187 15.3194C8.19231 15.3949 8.23766 15.4732 8.27778 15.5539C8.34489 15.4495 8.42342 15.3517 8.51256 15.2626C8.84075 14.9344 9.28587 14.75 9.75 14.75H18C18.4641 14.75 18.9092 14.9344 19.2374 15.2626C19.5656 15.5908 19.75 16.0359 19.75 16.5C19.75 16.9641 19.5656 17.4092 19.2374 17.7374C18.9092 18.0656 18.4641 18.25 18 18.25H9.75C9.28587 18.25 8.84075 18.0656 8.51256 17.7374C8.42342 17.6483 8.34489 17.5505 8.27778 17.4461C8.17632 17.6501 8.04178 17.8384 7.8776 18.0026C7.47909 18.4011 6.93859 18.625 6.375 18.625ZM6.375 14.125C5.95471 14.125 5.54387 14.0004 5.19441 13.7669C4.84496 13.5334 4.57259 13.2015 4.41176 12.8132C4.25092 12.4249 4.20884 11.9976 4.29083 11.5854C4.37282 11.1732 4.57521 10.7946 4.8724 10.4974C5.16958 10.2002 5.54822 9.99782 5.96043 9.91583C6.37264 9.83384 6.79991 9.87592 7.1882 10.0368C7.5765 10.1976 7.90838 10.47 8.14187 10.8194C8.19231 10.8949 8.23766 10.9732 8.27778 11.0539C8.34489 10.9495 8.42342 10.8517 8.51256 10.7626C8.84075 10.4344 9.28587 10.25 9.75 10.25H18C18.4641 10.25 18.9092 10.4344 19.2374 10.7626C19.5656 11.0908 19.75 11.5359 19.75 12C19.75 12.4641 19.5656 12.9092 19.2374 13.2374C18.9092 13.5656 18.4641 13.75 18 13.75H9.75C9.28587 13.75 8.84075 13.5656 8.51256 13.2374C8.42342 13.1483 8.34489 13.0505 8.27778 12.9461C8.17632 13.1501 8.04178 13.3384 7.8776 13.5026C7.47909 13.9011 6.93859 14.125 6.375 14.125ZM6.375 9.625C5.95472 9.625 5.54387 9.50037 5.19441 9.26687C4.84496 9.03337 4.57259 8.70149 4.41176 8.3132C4.25092 7.92491 4.20884 7.49764 4.29083 7.08543C4.37282 6.67322 4.57521 6.29458 4.8724 5.9974C5.16958 5.70021 5.54822 5.49782 5.96043 5.41583C6.37264 5.33384 6.79991 5.37592 7.1882 5.53676C7.5765 5.69759 7.90838 5.96996 8.14187 6.31941C8.19231 6.39489 8.23766 6.47323 8.27778 6.55391C8.34489 6.44948 8.42342 6.35171 8.51256 6.26256C8.84075 5.93438 9.28587 5.75 9.75 5.75H18C18.4641 5.75 18.9092 5.93437 19.2374 6.26256C19.5656 6.59075 19.75 7.03587 19.75 7.5C19.75 7.96413 19.5656 8.40925 19.2374 8.73744C18.9092 9.06563 18.4641 9.25 18 9.25H9.75C9.28587 9.25 8.84075 9.06562 8.51256 8.73744C8.42342 8.64829 8.34489 8.55052 8.27778 8.44609C8.17632 8.65015 8.04178 8.83842 7.8776 9.0026C7.47909 9.40112 6.93858 9.625 6.375 9.625ZM4.5 3H19.5C19.8978 3 20.2794 3.15804 20.5607 3.43934C20.842 3.72064 21 4.10218 21 4.5V19.5C21 19.8978 20.842 20.2794 20.5607 20.5607C20.2794 20.842 19.8978 21 19.5 21H4.5C4.10218 21 3.72064 20.842 3.43934 20.5607C3.15804 20.2794 3 19.8978 3 19.5V4.5C3 4.10218 3.15804 3.72064 3.43934 3.43934C3.72064 3.15804 4.10218 3 4.5 3ZM5.74998 17.4354C5.93499 17.559 6.1525 17.625 6.375 17.625C6.67337 17.625 6.95952 17.5065 7.1705 17.2955C7.38147 17.0845 7.5 16.7984 7.5 16.5C7.5 16.2775 7.43402 16.06 7.3104 15.875C7.18679 15.69 7.01109 15.5458 6.80552 15.4606C6.59995 15.3755 6.37375 15.3532 6.15552 15.3966C5.93729 15.44 5.73684 15.5472 5.5795 15.7045C5.42217 15.8618 5.31502 16.0623 5.27162 16.2805C5.22821 16.4988 5.25049 16.725 5.33564 16.9305C5.42078 17.1361 5.56498 17.3118 5.74998 17.4354ZM5.74998 12.9354C5.93499 13.059 6.1525 13.125 6.375 13.125C6.67337 13.125 6.95952 13.0065 7.1705 12.7955C7.38147 12.5845 7.5 12.2984 7.5 12C7.5 11.7775 7.43402 11.56 7.3104 11.375C7.18679 11.19 7.01109 11.0458 6.80552 10.9606C6.59995 10.8755 6.37375 10.8532 6.15552 10.8966C5.93729 10.94 5.73684 11.0472 5.5795 11.2045C5.42217 11.3618 5.31502 11.5623 5.27162 11.7805C5.22821 11.9988 5.25049 12.225 5.33564 12.4305C5.42078 12.6361 5.56498 12.8118 5.74998 12.9354ZM5.74998 8.4354C5.93499 8.55902 6.1525 8.625 6.375 8.625C6.67337 8.625 6.95952 8.50647 7.1705 8.2955C7.38147 8.08452 7.5 7.79837 7.5 7.5C7.5 7.2775 7.43402 7.05999 7.3104 6.87498C7.18679 6.68998 7.01109 6.54578 6.80552 6.46064C6.59995 6.37549 6.37375 6.35321 6.15552 6.39662C5.93729 6.44002 5.73684 6.54717 5.5795 6.7045C5.42217 6.86184 5.31502 7.06229 5.27162 7.28052C5.22821 7.49875 5.25049 7.72495 5.33564 7.93052C5.42078 8.13609 5.56498 8.31179 5.74998 8.4354ZM9.75 17.25H18C18.1989 17.25 18.3897 17.171 18.5303 17.0303C18.671 16.8897 18.75 16.6989 18.75 16.5C18.75 16.3011 18.671 16.1103 18.5303 15.9697C18.3897 15.829 18.1989 15.75 18 15.75H9.75C9.55109 15.75 9.36032 15.829 9.21967 15.9697C9.07902 16.1103 9 16.3011 9 16.5C9 16.6989 9.07902 16.8897 9.21967 17.0303C9.36032 17.171 9.55109 17.25 9.75 17.25ZM9.75 12.75H18C18.1989 12.75 18.3897 12.671 18.5303 12.5303C18.671 12.3897 18.75 12.1989 18.75 12C18.75 11.8011 18.671 11.6103 18.5303 11.4697C18.3897 11.329 18.1989 11.25 18 11.25H9.75C9.55109 11.25 9.36032 11.329 9.21967 11.4697C9.07902 11.6103 9 11.8011 9 12C9 12.1989 9.07902 12.3897 9.21967 12.5303C9.36032 12.671 9.55109 12.75 9.75 12.75ZM9.75 8.25H18C18.1989 8.25 18.3897 8.17098 18.5303 8.03033C18.671 7.88968 18.75 7.69891 18.75 7.5C18.75 7.30109 18.671 7.11032 18.5303 6.96967C18.3897 6.82902 18.1989 6.75 18 6.75H9.75C9.55109 6.75 9.36032 6.82902 9.21967 6.96967C9.07902 7.11032 9 7.30109 9 7.5C9 7.69891 9.07902 7.88968 9.21967 8.03033C9.36032 8.17098 9.55109 8.25 9.75 8.25Z" fill="#FFE500"/>
</svg>
