<svg width="24" height="24" viewBox="0 0 24 24" fill="none" xmlns="http://www.w3.org/2000/svg">
<g clip-path="url(#clip0_4065_1546)">
<path d="M13.044 9.53998V9.12177L12.6323 9.04785C12.0224 8.93831 11.405 8.88287 10.7905 8.88287C7.47614 8.88287 4.32827 10.4825 2.36705 13.1622C2.32811 13.2154 2.26692 13.2454 2.2029 13.2454C2.17841 13.2454 2.15318 13.2408 2.12831 13.231C2.04237 13.197 1.99031 13.1091 2.00154 13.0177L2.00156 13.0175C2.66817 7.57368 7.15439 3.41414 12.5734 3.0941L13.044 3.06631V2.59497V1.49908C13.044 1.07567 13.1624 0.828688 13.2824 0.694222C13.4021 0.560129 13.5557 0.5 13.7103 0.5C13.9165 0.5 14.1748 0.598066 14.4804 0.90388L14.4805 0.903969L18.466 4.88944C19.1458 5.56924 19.1458 6.67649 18.466 7.35629L14.4805 11.3418C14.1747 11.6476 13.9164 11.7457 13.7103 11.7457C13.5055 11.7457 13.322 11.6466 13.1998 11.4438L13.1997 11.4437C13.1082 11.2918 13.044 11.0666 13.044 10.7466V9.53998ZM21.8589 10.7689L21.8592 10.769C21.9453 10.8031 21.9974 10.8908 21.9861 10.9825L21.9861 10.9827C21.3195 16.4263 16.8335 20.5859 11.4142 20.9059L10.9437 20.9337V21.405V22.5009C10.9437 22.9243 10.8253 23.1713 10.7052 23.3058C10.5854 23.4399 10.4319 23.5 10.2773 23.5C10.0712 23.5 9.81286 23.4019 9.50696 23.096L5.5217 19.1108C5.52169 19.1108 5.52168 19.1108 5.52167 19.1107C4.84184 18.4307 4.84189 17.3235 5.52147 16.6437C5.52149 16.6437 5.5215 16.6437 5.52152 16.6437L9.50695 12.6584L9.50696 12.6584C9.81297 12.3524 10.0713 12.2543 10.2773 12.2543C10.4319 12.2543 10.5854 12.3144 10.7052 12.4485C10.8253 12.583 10.9437 12.83 10.9437 13.2534V14.46V14.8782L11.3553 14.9521C11.9653 15.0617 12.5826 15.1171 13.1971 15.1171C16.5115 15.1171 19.6594 13.5175 21.6204 10.838C21.6753 10.763 21.7734 10.735 21.8589 10.7689Z" fill="#DDC916" stroke="#FFE500"/>
</g>
<defs>
<clipPath id="clip0_4065_1546">
<rect width="24" height="24" fill="white"/>
</clipPath>
</defs>
</svg>
