<svg width="22" height="24" viewBox="0 0 22 24" xmlns="http://www.w3.org/2000/svg">
<path d="M11.544 9.53998V10.7466C11.544 11.1299 11.6205 11.4514 11.7716 11.7019C11.9799 12.0476 12.322 12.2457 12.7103 12.2457C13.0908 12.2457 13.469 12.0604 13.8341 11.6953L17.8195 7.70984C18.6946 6.83478 18.6946 5.41095 17.8195 4.53589L13.8341 0.550415C13.469 0.18512 13.0908 0 12.7103 0C12.1297 0 11.544 0.463623 11.544 1.49908V2.59497C5.88564 2.92914 1.20144 7.27148 0.505271 12.9567C0.466269 13.2742 0.646811 13.5782 0.944358 13.6959C1.02859 13.7292 1.11629 13.7454 1.2029 13.7454C1.42226 13.7454 1.63503 13.6426 1.77053 13.4575C3.63784 10.9061 6.63601 9.38287 9.79055 9.38287C10.375 9.38287 10.9628 9.43561 11.544 9.53998Z"/>
<path d="M21.0431 10.3041C20.7456 10.1862 20.4061 10.2843 20.2169 10.5427C18.3498 13.0939 15.3516 14.6171 12.1971 14.6171C11.6126 14.6171 11.0249 14.5644 10.4437 14.46V13.2534C10.4437 12.2179 9.85775 11.7543 9.2773 11.7543C8.89681 11.7543 8.5187 11.9396 8.1534 12.3049L4.16793 16.2902C3.29305 17.1652 3.29305 18.5891 4.16811 19.4643L8.1534 23.4496C8.5187 23.8149 8.89681 24 9.2773 24C9.85775 24 10.4437 23.5364 10.4437 22.5009V21.405C16.1022 21.0709 20.7862 16.7285 21.4824 11.0435C21.5214 10.7258 21.3408 10.4218 21.0431 10.3041Z"/>
</svg>
