<svg width="25" height="24" viewBox="0 0 25 24" fill="none" xmlns="http://www.w3.org/2000/svg">
<path d="M8.28521 8.90171L3.46646 10.158C2.87115 10.3126 2.28052 9.89077 2.23834 9.27671L1.87271 4.30796C1.8399 3.89077 2.31334 3.62827 2.65084 3.87202L4.08052 4.8939C7.77427 0.543898 14.2524 -0.318601 18.9727 3.06577C20.8383 4.40171 22.1649 6.2064 22.9055 8.20796C23.1118 8.7564 22.7977 9.36109 22.2305 9.51109L20.5524 9.94234C20.0696 10.0689 19.5727 9.8064 19.3899 9.34234C18.8836 8.07202 18.0211 6.92359 16.8258 6.07046C13.7602 3.87671 9.59302 4.35952 7.09927 7.05484L8.45396 8.02515C8.78677 8.2689 8.68834 8.79859 8.28521 8.90171ZM21.5321 13.8423L16.7133 15.0939C16.3102 15.197 16.2118 15.7267 16.5493 15.9705L17.904 16.9408C15.4102 19.6408 11.243 20.1236 8.1774 17.9251C6.98209 17.072 6.11959 15.9236 5.61334 14.6533C5.43052 14.1892 4.93365 13.9267 4.45084 14.0533L2.77271 14.4845C2.20552 14.6298 1.89146 15.2345 2.09771 15.7876C2.83834 17.7845 4.1649 19.5939 6.03052 20.9298C10.7555 24.3142 17.229 23.4564 20.9227 19.1017L22.3524 20.1236C22.6899 20.3673 23.1586 20.1048 23.1305 19.6876L22.7649 14.7189C22.718 14.1095 22.1274 13.6876 21.5321 13.8423Z" fill="white"/>
</svg>
