<svg width="24" height="24" viewBox="0 0 24 24" fill="none" xmlns="http://www.w3.org/2000/svg">
<path fill-rule="evenodd" clip-rule="evenodd" d="M12 2C6.47715 2 2 6.47715 2 12C2 17.5228 6.47715 22 12 22C17.5228 22 22 17.5228 22 12C22 6.47715 17.5228 2 12 2ZM6.73072 10.9264L9.54166 10.1936C9.77681 10.1334 9.83424 9.82441 9.6401 9.68223L8.84986 9.11621C10.3045 7.54395 12.7354 7.2623 14.5237 8.54199C15.221 9.03965 15.7241 9.70957 16.0194 10.4506C16.126 10.7213 16.4159 10.8744 16.6975 10.8006L17.6764 10.549C18.0073 10.4615 18.1905 10.1088 18.0702 9.78887C17.6381 8.62129 16.8643 7.56855 15.776 6.78926C13.0225 4.81504 9.24361 5.31816 7.08892 7.85566L6.25494 7.25957C6.05806 7.11738 5.78189 7.27051 5.80103 7.51387L6.01431 10.4123C6.03892 10.7705 6.38345 11.0166 6.73072 10.9264ZM14.4581 13.8057L17.269 13.0756C17.6163 12.9854 17.9608 13.2314 17.9881 13.5869L18.2014 16.4854C18.2178 16.7287 17.9444 16.8818 17.7475 16.7396L16.9135 16.1436C14.7588 18.6838 10.9827 19.1842 8.22642 17.21C7.13814 16.4307 6.36431 15.3752 5.93228 14.2104C5.81197 13.8877 5.99517 13.535 6.32603 13.4502L7.30494 13.1986C7.58658 13.1248 7.87642 13.2779 7.98306 13.5486C8.27838 14.2896 8.7815 14.9596 9.47877 15.4572C11.267 16.7396 13.6979 16.458 15.1526 14.883L14.3624 14.317C14.1655 14.1748 14.2229 13.8658 14.4581 13.8057Z" fill="white"/>
</svg>
