<svg width="25" height="24" viewBox="0 0 25 24" fill="none" xmlns="http://www.w3.org/2000/svg">
<path d="M17.1168 5.66385C13.8436 3.32159 9.39491 3.83741 6.73226 6.71527L6.34736 7.13129L6.80812 7.46132L8.14774 8.42084L3.34072 9.67403C3.34064 9.67405 3.34056 9.67407 3.34049 9.67409C3.04601 9.75046 2.75772 9.54166 2.73717 9.24244L2.73699 9.24002L2.37257 4.28772M17.1168 5.66385L16.8258 6.07046L17.1163 5.66349C17.1165 5.66361 17.1166 5.66373 17.1168 5.66385ZM17.1168 5.66385C18.3931 6.57493 19.3141 7.80166 19.8544 9.15723L19.8551 9.15907C19.9483 9.3957 20.1961 9.51884 20.4256 9.45868L20.4279 9.45807L22.1027 9.0277L22.2305 9.51096L22.1061 9.02682L22.1041 9.02733C22.386 8.95191 22.5387 8.65293 22.4375 8.38396L22.4366 8.38148C21.7297 6.47106 20.4638 4.74851 18.6816 3.47229L18.6814 3.47212C14.1747 0.240912 7.98862 1.06395 4.46166 5.21753L4.16396 5.56812L3.78978 5.30068L2.37257 4.28772M2.37257 4.28772L2.37136 4.27127L2.37137 4.27127L2.37117 4.26876C2.37107 4.26745 2.3711 4.26683 2.3711 4.26681C2.3711 4.26678 2.37107 4.26748 2.37078 4.26879C2.37077 4.26884 2.37076 4.26889 2.37075 4.26894C2.37057 4.26975 2.37034 4.27056 2.37007 4.27136C2.36952 4.27304 2.36879 4.27467 2.36797 4.27612C2.36742 4.2771 2.36693 4.27782 2.36654 4.27834C2.36613 4.27836 2.36563 4.27836 2.36503 4.27834C2.36371 4.2783 2.36226 4.27811 2.36081 4.27779C2.36002 4.27761 2.35922 4.27739 2.35845 4.27713C2.3584 4.27711 2.35835 4.2771 2.3583 4.27708C2.35718 4.27669 2.35662 4.27638 2.35662 4.27639C2.35662 4.27639 2.35711 4.27665 2.35809 4.27736L2.35809 4.27737L2.36009 4.2788L2.37257 4.28772ZM21.6578 14.3263L21.6578 14.3263L16.8543 15.5739L18.1951 16.5343L18.6555 16.864L18.2713 17.28C15.6087 20.1628 11.1598 20.6788 7.88645 18.3318M21.6578 14.3263L8.1774 17.9251M21.6578 14.3263C21.9526 14.2497 22.2431 14.4593 22.2663 14.7567L21.6578 14.3263ZM7.88645 18.3318C7.88631 18.3317 7.88616 18.3316 7.88602 18.3315L8.1774 17.9251M7.88645 18.3318C7.88662 18.3319 7.88677 18.332 7.88693 18.3321L8.1774 17.9251M7.88645 18.3318C6.61014 17.4207 5.68909 16.194 5.14886 14.8384L5.14813 14.8365C5.05492 14.5999 4.80714 14.4768 4.57762 14.5369L4.57529 14.5375L2.89716 14.9688L2.8968 14.9689C2.62056 15.0397 2.46261 15.3352 2.5662 15.613L2.56651 15.6138C3.27355 17.5201 4.53969 19.2473 6.32163 20.5233L6.32168 20.5233C10.8335 23.755 17.0148 22.936 20.5414 18.7783L20.8391 18.4273L21.2135 18.6949L22.6307 19.7079M8.1774 17.9251C6.98209 17.072 6.11959 15.9236 5.61334 14.6533C5.43052 14.1892 4.93365 13.9267 4.45084 14.0533L2.77271 14.4845C2.20552 14.6298 1.89146 15.2345 2.09771 15.7876C2.83834 17.7845 4.1649 19.5939 6.03052 20.9298C10.7555 24.3142 17.229 23.4564 20.9227 19.1017L22.3524 20.1236C22.6899 20.3673 23.1586 20.1048 23.1305 19.6876M22.6307 19.7079L22.6317 19.7213C22.6317 19.7215 22.6317 19.7217 22.6317 19.7219C22.6318 19.7247 22.6315 19.7251 22.6318 19.7237L22.6319 19.7243L22.6381 19.7239L22.6412 19.7237L23.1305 19.6876M22.6307 19.7079L22.6431 19.7168L22.6451 19.7182C22.6463 19.7191 22.6468 19.7194 22.6468 19.7194C22.6468 19.7194 22.6462 19.719 22.645 19.7186C22.6449 19.7186 22.6449 19.7186 22.6449 19.7186C22.6441 19.7183 22.6432 19.7181 22.6424 19.7179C22.6408 19.7175 22.6392 19.7173 22.6376 19.7173C22.6363 19.7172 22.6352 19.7173 22.6345 19.7174C22.6343 19.7177 22.6341 19.7181 22.6338 19.7186C22.6333 19.7194 22.6329 19.7203 22.6326 19.7212L22.6404 19.7207L22.6435 19.7205L23.1305 19.6876M22.6307 19.7079L22.2664 14.7572L22.7649 14.7189L23.1305 19.6876M17.904 16.9408L17.6128 17.3473L17.5479 17.3008C17.67 17.1855 17.7887 17.0655 17.904 16.9408ZM17.904 16.9408L17.5367 16.6015C17.5225 16.6168 17.5083 16.6321 17.4941 16.6472L17.904 16.9408Z" fill="#074ACB" stroke="#1161FA"/>
</svg>
