<svg width="14" height="14" viewBox="0 0 14 14" xmlns="http://www.w3.org/2000/svg">
<path d="M3.4 1C2.07452 1 1 2.07452 1 3.4V6.4H7.35148L5.97574 5.02427C5.74144 4.78995 5.74144 4.41005 5.97574 4.17573C6.21004 3.94142 6.58996 3.94142 6.82426 4.17573L9.22384 6.57532L9.22816 6.5797C9.28378 6.63628 9.32584 6.7012 9.35446 6.77032C9.38362 6.84058 9.39976 6.9175 9.4 6.9982V7V7.0018C9.39952 7.16476 9.33406 7.31248 9.22816 7.4203L9.22384 7.42468L6.82426 9.82426C6.58996 10.0586 6.21004 10.0586 5.97574 9.82426C5.74144 9.58996 5.74144 9.21004 5.97574 8.97574L7.35148 7.6H1V10.6C1 11.9255 2.07452 13 3.4 13H10.6C11.9255 13 13 11.9255 13 10.6V3.4C13 2.07452 11.9255 1 10.6 1H3.4Z"/>
</svg>
