<svg width="36" height="36" viewBox="0 0 36 36" xmlns="http://www.w3.org/2000/svg">
<path d="M20 14.5859C20.1856 14.5859 20.3695 14.6223 20.541 14.6934C20.7126 14.7644 20.8687 14.8687 21 15C21.1313 15.1312 21.2355 15.2874 21.3066 15.459C21.3777 15.6305 21.414 15.8144 21.4141 16C21.4141 16.1856 21.3776 16.3695 21.3066 16.541C21.2356 16.7126 21.1313 16.8687 21 17L20 18L18 16L19 15C19.1313 14.8687 19.2875 14.7644 19.459 14.6934C19.6305 14.6223 19.8144 14.5859 20 14.5859Z"/>
<path fill-rule="evenodd" clip-rule="evenodd" d="M18 3C26.2843 3 33 9.71573 33 18C33 26.2843 26.2843 33 18 33C9.71573 33 3 26.2843 3 18C3 9.71573 9.71573 3 18 3ZM20.0049 13.1787C19.2564 13.1785 18.5382 13.4748 18.0088 14.0039L11.002 21.001C10.7394 21.2634 10.5309 21.5751 10.3887 21.918C10.2465 22.2609 10.173 22.6288 10.1729 23C10.1727 23.3712 10.2458 23.739 10.3877 24.082C10.5297 24.4251 10.7385 24.7373 11.001 25C11.2633 25.2625 11.5752 25.4711 11.918 25.6133C12.2607 25.7553 12.628 25.8279 12.999 25.8281C13.3702 25.8283 13.738 25.7551 14.0811 25.6133C14.4241 25.4713 14.7364 25.2624 14.999 25L21.999 17.9971C22.5284 17.468 22.8258 16.7503 22.8262 16.002C22.8265 15.2535 22.5298 14.5353 22.001 14.0059C21.4719 13.4763 20.7534 13.179 20.0049 13.1787ZM25.2412 17.8975C25.1752 17.6505 24.8248 17.6505 24.7588 17.8975L24.4014 19.2256C24.3899 19.2677 24.3669 19.3061 24.3359 19.3369C24.3049 19.3678 24.266 19.3901 24.2236 19.4014L22.8965 19.7588C22.6505 19.8248 22.6505 20.1752 22.8965 20.2412L24.2236 20.5996C24.2659 20.6108 24.3049 20.6323 24.3359 20.6631C24.367 20.6939 24.3899 20.7331 24.4014 20.7754L24.7588 22.1035C24.825 22.3502 25.175 22.3502 25.2412 22.1035L25.5986 20.7754C25.61 20.7334 25.6324 20.6949 25.6631 20.6641C25.694 20.6332 25.7332 20.611 25.7754 20.5996L27.1025 20.2412C27.3495 20.1752 27.3495 19.8248 27.1025 19.7588L25.7754 19.4014C25.7332 19.3899 25.694 19.3678 25.6631 19.3369C25.6323 19.3061 25.61 19.2676 25.5986 19.2256L25.2412 17.8975ZM14.2412 9.89746C14.1752 9.65046 13.8248 9.65046 13.7588 9.89746L13.4014 11.2246C13.3899 11.2666 13.3677 11.3052 13.3369 11.3359C13.306 11.3668 13.2668 11.389 13.2246 11.4004L11.8945 11.7588C11.649 11.825 11.6491 12.175 11.8945 12.2412L13.2236 12.5996C13.2658 12.611 13.3051 12.6332 13.3359 12.6641C13.3666 12.6948 13.389 12.7334 13.4004 12.7754L13.7578 14.1035C13.824 14.3502 14.1741 14.3502 14.2402 14.1035L14.5986 12.7764C14.61 12.7344 14.6325 12.6959 14.6631 12.665C14.694 12.6341 14.7332 12.612 14.7754 12.6006L16.1045 12.2412C16.3509 12.175 16.351 11.825 16.1045 11.7588L14.7764 11.4014C14.7344 11.39 14.6958 11.3676 14.665 11.3369C14.6342 11.3061 14.611 11.2676 14.5996 11.2256L14.2412 9.89746ZM24.2412 8.89746C24.1752 8.65046 23.8248 8.65046 23.7588 8.89746L23.4004 10.2256C23.3888 10.2677 23.366 10.3061 23.335 10.3369C23.3039 10.3678 23.2649 10.3901 23.2227 10.4014L21.8945 10.7588C21.649 10.825 21.6491 11.175 21.8945 11.2412L23.2227 11.5996C23.2649 11.6108 23.3039 11.6323 23.335 11.6631C23.3661 11.694 23.3888 11.7331 23.4004 11.7754L23.7588 13.1035C23.825 13.3502 24.175 13.3502 24.2412 13.1035L24.5986 11.7754C24.61 11.7334 24.6324 11.6949 24.6631 11.6641C24.694 11.6332 24.7332 11.611 24.7754 11.5996L26.1025 11.2412C26.3495 11.1752 26.3495 10.8248 26.1025 10.7588L24.7754 10.4014C24.7332 10.39 24.694 10.3678 24.6631 10.3369C24.6323 10.3061 24.61 10.2676 24.5986 10.2256L24.2412 8.89746Z"/>
</svg>
