<svg width="24" height="24" viewBox="0 0 24 24" fill="none" xmlns="http://www.w3.org/2000/svg">
<path fill-rule="evenodd" clip-rule="evenodd" d="M16.0562 22C16.7725 22 17.3585 21.3924 17.3585 20.6498V16.5146L19 14.9534V10.8748H17.3585V9.12523L19 7.59219V5.08879H5.00004V20.6498C5.00004 21.3924 5.58607 22 6.30231 22H6.69317V18.6408C6.69317 18.2727 6.98106 17.9741 7.33621 17.9741C7.69132 17.9741 7.97925 18.2726 7.97925 18.6408V22H9.25526V18.6408C9.25526 18.2727 9.54315 17.9741 9.89829 17.9741C10.2534 17.9741 10.5413 18.2726 10.5413 18.6408V22H11.8173V18.6408C11.8173 18.2727 12.1052 17.9741 12.4603 17.9741C12.8154 17.9741 13.1034 18.2726 13.1034 18.6408V22H14.3794V18.6408C14.3794 18.2727 14.6673 17.9741 15.0224 17.9741C15.3776 17.9741 15.6655 18.2726 15.6655 18.6408V22H16.0562ZM19 3.75543V3.35019C19 2.60762 18.4139 2 17.6977 2H6.30231C5.58603 2 5 2.60758 5 3.35019V3.75543H19Z" fill="#DDC916"/>
<path fill-rule="evenodd" clip-rule="evenodd" d="M16.3585 16.0856V17.6718C16.0661 17.2554 15.5873 16.9741 15.0224 16.9741C14.4916 16.9741 14.037 17.2224 13.7414 17.5978C13.4458 17.2224 12.9911 16.9741 12.4603 16.9741C11.9296 16.9741 11.4749 17.2224 11.1793 17.5978C10.8837 17.2224 10.4291 16.9741 9.89829 16.9741C9.36751 16.9741 8.91284 17.2224 8.61725 17.5978C8.32165 17.2224 7.86696 16.9741 7.33621 16.9741C6.77122 16.9741 6.29248 17.2554 6.00004 17.672V6.08879H18V7.15784L16.3585 8.69088V11.8748H18V14.5245L16.3585 16.0856ZM19 14.9534V10.8748H17.3585V9.12523L19 7.59219V5.08879H5.00004V20.6498C5.00004 21.1647 5.28171 21.6146 5.69317 21.8422C5.8752 21.9428 6.08263 22 6.30231 22H6.69317V18.6408C6.69317 18.2727 6.98106 17.9741 7.33621 17.9741C7.69132 17.9741 7.97925 18.2726 7.97925 18.6408V22H9.25526V18.6408C9.25526 18.2727 9.54315 17.9741 9.89829 17.9741C10.2534 17.9741 10.5413 18.2726 10.5413 18.6408V22H11.8173V18.6408C11.8173 18.2727 12.1052 17.9741 12.4603 17.9741C12.8154 17.9741 13.1034 18.2726 13.1034 18.6408V22H14.3794V18.6408C14.3794 18.2727 14.6673 17.9741 15.0224 17.9741C15.3776 17.9741 15.6655 18.2726 15.6655 18.6408V22H16.0562C16.2759 22 16.4834 21.9428 16.6655 21.8421C17.0769 21.6145 17.3585 21.1646 17.3585 20.6498V16.5146L19 14.9534ZM5.134 2.75543C5.04825 2.93512 5 3.1371 5 3.35019V3.75543H19V3.35019C19 3.1371 18.9517 2.93513 18.866 2.75543C18.6529 2.30893 18.2084 2 17.6977 2H6.30231C5.79157 2 5.34705 2.30891 5.134 2.75543Z" fill="#FFE500"/>
</svg>
