<svg width="10" height="10" viewBox="0 0 10 10" xmlns="http://www.w3.org/2000/svg">
<path d="M4.73133 2.247C4.81933 1.91767 5.286 1.91767 5.374 2.247L5.85264 4.01767C5.86784 4.07387 5.89754 4.12511 5.93874 4.16628C5.97984 4.20745 6.03114 4.23712 6.08734 4.25234L7.85804 4.72967C8.18734 4.81767 8.18734 5.28434 7.85804 5.37234L6.08604 5.85105C6.02984 5.86625 5.97854 5.89585 5.93734 5.93705C5.89624 5.97825 5.86654 6.02945 5.85134 6.08565L5.37266 7.85505C5.28466 8.18435 4.818 8.18435 4.73 7.85505L4.25266 6.08435C4.23745 6.02815 4.20778 5.97685 4.16661 5.93575C4.12544 5.89455 4.0742 5.86485 4.018 5.84965L2.246 5.37234C1.918 5.28434 1.918 4.81767 2.246 4.72967L4.01933 4.251C4.07553 4.23579 4.12677 4.20612 4.16794 4.16495C4.20912 4.12378 4.23878 4.07254 4.254 4.01634L4.73133 2.247Z" fill="#4496f9"/>
</svg>
