<svg width="32" height="32" viewBox="0 0 32 32" xmlns="http://www.w3.org/2000/svg">
<path fill-rule="evenodd" clip-rule="evenodd" d="M10.6653 26.6669L19.9987 17.3296C20.7047 16.6241 21.1015 15.667 21.1019 14.669C21.1023 13.6709 20.7061 12.7136 20.0007 12.0076C19.2952 11.3015 18.3381 10.9047 17.3401 10.9043C16.342 10.904 15.3847 11.3001 14.6787 12.0056L5.33599 21.3349C4.9858 21.6848 4.70796 22.1003 4.51834 22.5576C4.32871 23.0149 4.23102 23.5051 4.23084 24.0001C4.23065 24.4952 4.32797 24.9854 4.51725 25.4429C4.70653 25.9003 4.98406 26.316 5.33399 26.6662C5.68392 27.0164 6.0994 27.2942 6.5567 27.4839C7.01401 27.6735 7.50418 27.7712 7.99924 27.7714C8.4943 27.7716 8.98455 27.6742 9.442 27.485C9.89945 27.2957 10.3151 27.0168 10.6653 26.6669ZM14.6667 14.6669L17.3333 17.3336L18.6667 16.0002C18.8418 15.8251 18.9806 15.6173 19.0754 15.3885C19.1702 15.1597 19.2189 14.9145 19.2189 14.6669C19.2189 14.4193 19.1702 14.1741 19.0754 13.9453C18.9806 13.7165 18.8418 13.5086 18.6667 13.3336C18.4916 13.1585 18.2837 13.0196 18.0549 12.9248C17.8261 12.83 17.5809 12.7813 17.3333 12.7813C17.0857 12.7813 16.8405 12.83 16.6117 12.9248C16.383 13.0196 16.1751 13.1585 16 13.3336L14.6667 14.6669Z"/>
<path d="M9.01199 6.52955C9.09999 6.20022 9.56666 6.20022 9.65466 6.52955L10.1333 8.30022C10.1485 8.35642 10.1782 8.40766 10.2194 8.44883C10.2605 8.49 10.3118 8.51967 10.368 8.53489L12.1387 9.01222C12.468 9.10022 12.468 9.56689 12.1387 9.65489L10.3667 10.1336C10.3105 10.1488 10.2592 10.1784 10.218 10.2196C10.1769 10.2608 10.1472 10.312 10.132 10.3682L9.65332 12.1376C9.56532 12.4669 9.09866 12.4669 9.01066 12.1376L8.53332 10.3669C8.51811 10.3107 8.48844 10.2594 8.44727 10.2183C8.4061 10.1771 8.35486 10.1474 8.29866 10.1322L6.52666 9.65489C6.19866 9.56689 6.19866 9.10022 6.52666 9.01222L8.29999 8.53355C8.35619 8.51834 8.40743 8.48867 8.4486 8.4475C8.48978 8.40633 8.51944 8.35509 8.53466 8.29889L9.01199 6.52955ZM22.3453 5.19622C22.4333 4.86689 22.9 4.86689 22.988 5.19622L23.4653 6.96689C23.4805 7.02309 23.5102 7.07433 23.5514 7.1155C23.5926 7.15667 23.6438 7.18634 23.7 7.20155L25.4707 7.67889C25.8 7.76689 25.8 8.23355 25.4707 8.32155L23.7 8.79889C23.6438 8.8141 23.5926 8.84377 23.5514 8.88494C23.5102 8.92611 23.4805 8.97735 23.4653 9.03355L22.988 10.8042C22.9 11.1336 22.4333 11.1336 22.3453 10.8042L21.8667 9.03355C21.8513 8.97719 21.8215 8.92584 21.78 8.88466C21.7386 8.84347 21.6871 8.81389 21.6307 8.79889L19.86 8.32155C19.532 8.23355 19.532 7.76689 19.86 7.67889L21.6307 7.20155C21.6871 7.18654 21.7386 7.15697 21.78 7.11578C21.8215 7.07459 21.8513 7.02325 21.8667 6.96689L22.3453 5.19622ZM23.6787 17.1962C23.7667 16.8669 24.2333 16.8669 24.3213 17.1962L24.7987 18.9669C24.8139 19.0231 24.8435 19.0743 24.8847 19.1155C24.9259 19.1567 24.9771 19.1863 25.0333 19.2016L26.804 19.6789C27.1333 19.7669 27.1333 20.2336 26.804 20.3216L25.0333 20.7989C24.9771 20.8141 24.9259 20.8438 24.8847 20.8849C24.8435 20.9261 24.8139 20.9773 24.7987 21.0336L24.3213 22.8042C24.2333 23.1336 23.7667 23.1336 23.6787 22.8042L23.2013 21.0336C23.186 20.9772 23.1561 20.9258 23.1147 20.8847C23.0733 20.8435 23.0218 20.8139 22.9653 20.7989L21.1947 20.3216C20.8667 20.2336 20.8667 19.7669 21.1947 19.6789L22.9653 19.2016C23.0218 19.1865 23.0733 19.157 23.1147 19.1158C23.1561 19.0746 23.186 19.0232 23.2013 18.9669L23.6787 17.1962Z"/>
</svg>
