<svg width="24" height="24" viewBox="0 0 24 24" xmlns="http://www.w3.org/2000/svg">
<path fill-rule="evenodd" clip-rule="evenodd" d="M16.0562 22C16.7725 22 17.3585 21.3924 17.3585 20.6498V16.5146L19 14.9534V10.8748H17.3585V9.12523L19 7.59219V5.08879H5.00004V20.6498C5.00004 21.3924 5.58607 22 6.30231 22H6.69317V18.6408C6.69317 18.2727 6.98106 17.9741 7.33621 17.9741C7.69132 17.9741 7.97925 18.2726 7.97925 18.6408V22H9.25526V18.6408C9.25526 18.2727 9.54315 17.9741 9.89829 17.9741C10.2534 17.9741 10.5413 18.2726 10.5413 18.6408V22H11.8173V18.6408C11.8173 18.2727 12.1052 17.9741 12.4603 17.9741C12.8154 17.9741 13.1034 18.2726 13.1034 18.6408V22H14.3794V18.6408C14.3794 18.2727 14.6673 17.9741 15.0224 17.9741C15.3776 17.9741 15.6655 18.2726 15.6655 18.6408V22L16.0562 22ZM19 3.75543V3.35019C19 2.60762 18.4139 2 17.6977 2H6.30231C5.58603 2 5 2.60758 5 3.35019V3.75543H19Z"/>
</svg>
