<svg width="24" height="24" viewBox="0 0 24 24" xmlns="http://www.w3.org/2000/svg">
<path d="M12 0.269531L5.636 6.63353C4.37734 7.89221 3.52019 9.49586 3.17293 11.2417C2.82567 12.9875 3.00391 14.7971 3.6851 16.4416C4.36629 18.0862 5.51984 19.4918 6.99988 20.4807C8.47992 21.4696 10.22 21.9975 12 21.9975C13.78 21.9975 15.5201 21.4696 17.0001 20.4807C18.4802 19.4918 19.6337 18.0862 20.3149 16.4416C20.9961 14.7971 21.1743 12.9875 20.8271 11.2417C20.4798 9.49586 19.6227 7.89221 18.364 6.63353L12 0.269531ZM16.243 10.1715L9.172 17.2435L7.757 15.8285L14.829 8.75853L16.243 10.1715ZM8.11 9.11153C8.24837 8.96827 8.41389 8.85399 8.5969 8.77538C8.7799 8.69677 8.97673 8.65539 9.1759 8.65366C9.37507 8.65192 9.57259 8.68988 9.75694 8.7653C9.94128 8.84072 10.1088 8.9521 10.2496 9.09294C10.3904 9.23378 10.5018 9.40126 10.5772 9.5856C10.6527 9.76994 10.6906 9.96746 10.6889 10.1666C10.6871 10.3658 10.6458 10.5626 10.5672 10.7456C10.4885 10.9286 10.3743 11.0942 10.231 11.2325C9.9481 11.5058 9.5692 11.657 9.1759 11.6535C8.78261 11.6501 8.40639 11.4924 8.12828 11.2143C7.85016 10.9361 7.69241 10.5599 7.68899 10.1666C7.68558 9.77334 7.83677 9.39443 8.11 9.11153ZM15.888 16.8895C15.7496 17.0328 15.5841 17.1471 15.4011 17.2257C15.2181 17.3043 15.0213 17.3457 14.8221 17.3474C14.6229 17.3491 14.4254 17.3112 14.2411 17.2358C14.0567 17.1603 13.8893 17.049 13.7484 16.9081C13.6076 16.7673 13.4962 16.5998 13.4208 16.4155C13.3454 16.2311 13.3074 16.0336 13.3091 15.8344C13.3109 15.6353 13.3522 15.4384 13.4309 15.2554C13.5095 15.0724 13.6237 14.9069 13.767 14.7685C14.0507 14.5001 14.428 14.3528 14.8185 14.3582C15.2091 14.3635 15.5822 14.521 15.8584 14.7971C16.1347 15.0733 16.2923 15.4463 16.2979 15.8368C16.3034 16.2274 16.1563 16.6057 15.888 16.8895Z"/>
</svg>
