<svg width="24" height="24" viewBox="0 0 24 24" xmlns="http://www.w3.org/2000/svg">
<path d="M11 4.99987C11 4.44758 10.5509 3.99412 10.002 4.05536C8.57508 4.21457 7.20174 4.71357 5.99987 5.51664C4.51983 6.50557 3.36628 7.91118 2.68509 9.55572C2.0039 11.2003 1.82567 13.0099 2.17294 14.7557C2.5202 16.5015 3.37737 18.1052 4.63604 19.3638C5.89472 20.6225 7.49836 21.4797 9.24419 21.8269C10.99 22.1742 12.7996 21.996 14.4442 21.3148C16.0887 20.6336 17.4943 19.48 18.4832 18C19.2863 16.7981 19.7853 15.4248 19.9445 13.9978C20.0057 13.4489 19.5523 12.9999 19 12.9999H12C11.4477 12.9999 11 12.5522 11 11.9999V4.99987Z"/>
<path d="M21 10.9999C21.5523 10.9999 22.0057 10.5508 21.9445 10.0019C21.8509 9.16262 21.6394 8.33899 21.3149 7.55571C20.8626 6.46378 20.1997 5.47163 19.364 4.6359C18.5282 3.80017 17.5361 3.13724 16.4442 2.68495C15.6609 2.3605 14.8372 2.149 13.998 2.05536C13.4491 1.99412 13 2.44758 13 2.99986V9.99986C13 10.5521 13.4477 10.9999 14 10.9999H21Z"/>
</svg>
