<svg width="28" height="28" viewBox="0 0 28 28" xmlns="http://www.w3.org/2000/svg">
<path fill-rule="evenodd" clip-rule="evenodd" d="M2.33301 13.9997C2.33301 7.55635 7.55635 2.33301 13.9997 2.33301C20.443 2.33301 25.6663 7.55635 25.6663 13.9997C25.6663 20.443 20.443 25.6663 13.9997 25.6663C7.55635 25.6663 2.33301 20.443 2.33301 13.9997ZM15.1663 9.33301C15.1663 8.68868 14.644 8.16634 13.9997 8.16634C13.3553 8.16634 12.833 8.68868 12.833 9.33301V12.833H9.33301C8.68868 12.833 8.16634 13.3553 8.16634 13.9997C8.16634 14.644 8.68868 15.1663 9.33301 15.1663H12.833V18.6663C12.833 19.3107 13.3553 19.833 13.9997 19.833C14.644 19.833 15.1663 19.3107 15.1663 18.6663V15.1663H18.6663C19.3107 15.1663 19.833 14.644 19.833 13.9997C19.833 13.3553 19.3107 12.833 18.6663 12.833H15.1663V9.33301Z"/>
</svg>
