<svg width="26" height="26" viewBox="0 0 26 26" xmlns="http://www.w3.org/2000/svg">
<path fill-rule="evenodd" clip-rule="evenodd" d="M6.04308 5.51345C6.043 4.77182 6.27929 4.04819 6.71976 3.44118C7.16023 2.83417 7.78346 2.37328 8.50452 2.12133C9.22558 1.86937 10.0094 1.83859 10.7492 2.03319C11.489 2.22779 12.1488 2.6383 12.6387 3.20879C13.2624 2.47478 14.1604 2.00856 15.1375 1.91147C16.1147 1.81437 17.0919 2.09424 17.8569 2.69026C18.6219 3.28627 19.1128 4.15026 19.2229 5.09445C19.3331 6.03864 19.0535 6.98673 18.4451 7.73267H19.521C19.8976 7.73267 20.2705 7.80442 20.6184 7.94382C20.9663 8.08323 21.2825 8.28757 21.5488 8.54516C21.815 8.80275 22.0263 9.10856 22.1704 9.44512C22.3145 9.78168 22.3887 10.1424 22.3887 10.5067V11.8937C22.3887 12.1144 22.298 12.3261 22.1367 12.4822C21.9754 12.6382 21.7565 12.7259 21.5284 12.7259H13.8431C13.7979 12.7259 13.7531 12.7173 13.7114 12.7006C13.6696 12.6838 13.6317 12.6593 13.5998 12.6284C13.5678 12.5975 13.5425 12.5608 13.5252 12.5204C13.5079 12.48 13.499 12.4367 13.499 12.393V8.55378C13.1752 8.3523 12.8851 8.10422 12.6387 7.81811C12.3922 8.10383 12.1021 8.35153 11.7784 8.55267V12.393C11.7784 12.4813 11.7421 12.566 11.6776 12.6284C11.6131 12.6908 11.5255 12.7259 11.4343 12.7259H3.74897C3.5208 12.7259 3.30198 12.6382 3.14065 12.4822C2.97931 12.3261 2.88867 12.1144 2.88867 11.8937V10.5067C2.88867 10.1424 2.96285 9.78168 3.10696 9.44512C3.25107 9.10856 3.4623 8.80275 3.72859 8.54516C3.99487 8.28757 4.311 8.08323 4.65892 7.94382C5.00684 7.80442 5.37973 7.73267 5.75632 7.73267H6.83226C6.31999 7.09915 6.04211 6.31776 6.04308 5.51345ZM11.7784 5.51345C11.7784 4.99845 11.5669 4.50454 11.1904 4.14038C10.814 3.77621 10.3034 3.57163 9.77102 3.57163C9.23864 3.57163 8.72806 3.77621 8.35161 4.14038C7.97516 4.50454 7.76367 4.99845 7.76367 5.51345C7.76367 6.02845 7.97516 6.52236 8.35161 6.88652C8.72806 7.25068 9.23864 7.45526 9.77102 7.45526C10.3034 7.45526 10.814 7.25068 11.1904 6.88652C11.5669 6.52236 11.7784 6.02845 11.7784 5.51345ZM13.499 5.51345C13.499 5.76845 13.5509 6.02096 13.6518 6.25655C13.7526 6.49214 13.9005 6.7062 14.0869 6.88652C14.2733 7.06683 14.4946 7.20987 14.7381 7.30745C14.9817 7.40504 15.2427 7.45526 15.5063 7.45526C15.7699 7.45526 16.031 7.40504 16.2745 7.30745C16.518 7.20987 16.7393 7.06683 16.9257 6.88652C17.1121 6.7062 17.26 6.49214 17.3609 6.25655C17.4618 6.02096 17.5137 5.76845 17.5137 5.51345C17.5137 4.99845 17.3022 4.50454 16.9257 4.14038C16.5493 3.77621 16.0387 3.57163 15.5063 3.57163C14.9739 3.57163 14.4634 3.77621 14.0869 4.14038C13.7105 4.50454 13.499 4.99845 13.499 5.51345Z"/>
<path d="M11.7902 14.5261C11.7902 14.4317 11.7544 14.3411 11.6907 14.2743C11.627 14.2075 11.5407 14.1699 11.4506 14.1699H5.45052C5.22814 14.1695 5.01282 14.2518 4.84287 14.4023C4.67292 14.5527 4.55935 14.7616 4.52238 14.9916C4.27119 16.5304 4.27119 18.1027 4.52238 19.6415L4.77592 21.1958C4.85954 21.705 5.09839 22.1719 5.45659 22.5265C5.81479 22.881 6.27299 23.1041 6.76237 23.1621L7.96782 23.3034C9.1246 23.4388 10.2833 23.5239 11.4438 23.5587C11.4889 23.5597 11.5337 23.5512 11.5756 23.5338C11.6175 23.5164 11.6557 23.4904 11.6879 23.4574C11.7202 23.4243 11.7458 23.3849 11.7634 23.3413C11.7809 23.2978 11.79 23.251 11.7902 23.2037V14.5261ZM13.8343 23.5587C13.7893 23.5597 13.7445 23.5512 13.7026 23.5338C13.6607 23.5164 13.6225 23.4904 13.5902 23.4574C13.558 23.4243 13.5324 23.3849 13.5148 23.3413C13.4972 23.2978 13.4881 23.251 13.488 23.2037V14.5261C13.488 14.4317 13.5238 14.3411 13.5874 14.2743C13.6511 14.2075 13.7375 14.1699 13.8276 14.1699H19.8276C20.2872 14.1699 20.6788 14.5166 20.7558 14.9916C21.0082 16.5305 21.0082 18.1026 20.7558 19.6415L20.5034 21.1958C20.4197 21.7051 20.1807 22.1722 19.8223 22.5268C19.4638 22.8814 19.0054 23.1043 18.5158 23.1621L17.3103 23.3034C16.1556 23.4391 14.9959 23.5243 13.8343 23.5587Z"/>
</svg>
