<svg width="26" height="26" viewBox="0 0 26 26" xmlns="http://www.w3.org/2000/svg">
<path d="M21.7 6.8696L13.2 3.0896C13.1374 3.06018 13.0691 3.04492 13 3.04492C12.9309 3.04492 12.8626 3.06018 12.8 3.0896L4.3 6.8696C4.21211 6.90794 4.1371 6.97075 4.08391 7.05054C4.03072 7.13032 4.00159 7.22372 4 7.3196V9.9996C4 14.9196 6.94 20.8796 12.82 22.9396C12.9367 22.9792 13.0633 22.9792 13.18 22.9396C19.06 20.8796 22 14.9196 22 9.9996V7.3196C21.9984 7.22372 21.9693 7.13032 21.9161 7.05054C21.8629 6.97075 21.7879 6.90794 21.7 6.8696ZM17.688 10.1796L12.408 16.9016C12.3313 16.9985 12.235 17.0782 12.1254 17.1354C12.0158 17.1926 11.8954 17.226 11.772 17.2336L11.72 17.2356C11.4875 17.2352 11.2646 17.1428 11.1 16.9786L8.38 14.2586C8.21596 14.0942 8.12397 13.8713 8.12425 13.639C8.12453 13.4068 8.21707 13.1841 8.3815 13.0201C8.54593 12.8561 8.7688 12.7641 9.00106 12.7643C9.23332 12.7646 9.45596 12.8572 9.62 13.0216L11.642 15.0436L16.312 9.0986C16.458 8.92364 16.6664 8.81245 16.893 8.78864C17.1197 8.76482 17.3467 8.83025 17.5258 8.97104C17.705 9.11183 17.8223 9.3169 17.8527 9.54273C17.8832 9.76855 17.8245 9.99736 17.689 10.1806L17.688 10.1796Z"/>
</svg>
