<svg width="18" height="18" viewBox="0 0 18 18" xmlns="http://www.w3.org/2000/svg">
<path d="M8.81623 17C8.31285 17 7.80946 17 7.30932 17C6.96832 17 6.74098 16.7874 6.73773 16.4623C6.86114 12.6951 6.03299 12.9827 8.85845 12.9984C11.5735 12.9796 10.7713 12.7233 10.8947 16.4154C10.8947 16.7999 10.6869 17 10.2907 17H8.81623Z"/>
<path d="M8.75453 12.2012C8.26413 12.2012 7.77049 12.198 7.28009 12.2043C6.88063 12.2293 6.79944 11.7885 6.74423 11.4978C6.60458 10.2473 7.14369 9.27499 8.10175 8.47466C8.77401 7.85566 9.68985 7.59931 10.4011 7.0397C11.0636 6.48948 10.9987 5.5641 10.2907 5.07328C9.52422 4.54494 8.3031 4.48867 7.51392 4.97949C6.95857 5.35464 6.54612 5.90799 6.10769 6.40194C5.84788 6.69894 5.59131 6.73333 5.26979 6.49573C4.59428 6.00491 3.92202 5.51096 3.24976 5.01388C2.96721 4.80442 2.92824 4.5637 3.11335 4.26983C4.96776 0.999748 9.69634 -0.0631838 12.7946 2.21274C14.8731 3.51327 15.7922 6.43946 14.1749 8.41214C13.5416 9.27186 12.4731 9.64389 11.6352 10.2723C10.4563 11.2289 11.1968 12.1324 10.229 12.2012C9.73856 12.2012 9.24492 12.2012 8.75453 12.2012Z"/>
</svg>
