<svg width="25" height="24" viewBox="0 0 25 24" xmlns="http://www.w3.org/2000/svg">
<path fill-rule="evenodd" clip-rule="evenodd" d="M20.3674 5.82582C21.4343 6.1117 22.0675 7.20837 21.7816 8.27531L18.6758 19.8664C18.3899 20.9334 17.2933 21.5665 16.2263 21.2806L4.63521 18.1748C3.56827 17.889 2.93511 16.7923 3.22099 15.7254L6.3268 4.13423C6.61268 3.0673 7.70935 2.43413 8.77628 2.72001L20.3674 5.82582ZM15.3644 14.838C14.5642 14.6236 13.7417 15.0985 13.5273 15.8987C13.3129 16.6989 13.7877 17.5214 14.5879 17.7358C15.3881 17.9502 16.2107 17.4754 16.4251 16.6752C16.6395 15.875 16.1646 15.0525 15.3644 14.838ZM12.8895 10.5514C12.0894 10.337 11.2669 10.8119 11.0524 11.6121C10.838 12.4123 11.3129 13.2348 12.1131 13.4492C12.9133 13.6636 13.7358 13.1888 13.9502 12.3885C14.1646 11.5884 13.6897 10.7659 12.8895 10.5514ZM10.4147 6.26484C9.61446 6.05044 8.79195 6.52528 8.57754 7.32549C8.36313 8.12569 8.83802 8.9482 9.63818 9.16261C10.4384 9.37702 11.2609 8.90217 11.4753 8.10197C11.6897 7.30177 11.2149 6.47925 10.4147 6.26484Z"/>
</svg>
