<svg width="16" height="16" viewBox="0 0 16 16" xmlns="http://www.w3.org/2000/svg">
<path fill-rule="evenodd" clip-rule="evenodd" d="M5.72386 1.72451C5.97391 1.47446 6.31304 1.33398 6.66667 1.33398H9.33333C9.68696 1.33398 10.0261 1.47446 10.2761 1.72451C10.5262 1.97456 10.6667 2.3137 10.6667 2.66732V4.00065H12.6589C12.6636 4.0006 12.6683 4.0006 12.673 4.00065H13.3333C13.7015 4.00065 14 4.29913 14 4.66732C14 5.03551 13.7015 5.33398 13.3333 5.33398H13.2801L12.6664 12.6978C12.6585 13.2172 12.4488 13.7137 12.0809 14.0815C11.7058 14.4566 11.1971 14.6673 10.6667 14.6673H5.33333C4.8029 14.6673 4.29419 14.4566 3.91912 14.0815C3.55125 13.7137 3.34148 13.2172 3.33357 12.6978L2.71991 5.33398H2.66667C2.29848 5.33398 2 5.03551 2 4.66732C2 4.29913 2.29848 4.00065 2.66667 4.00065H3.32703C3.33174 4.0006 3.33644 4.0006 3.34112 4.00065H5.33333V2.66732C5.33333 2.3137 5.47381 1.97456 5.72386 1.72451ZM4.05787 5.33398L4.66436 12.612C4.6659 12.6304 4.66667 12.6488 4.66667 12.6673C4.66667 12.8441 4.7369 13.0137 4.86193 13.1387C4.98695 13.2637 5.15652 13.334 5.33333 13.334H10.6667C10.8435 13.334 11.013 13.2637 11.1381 13.1387C11.2631 13.0137 11.3333 12.8441 11.3333 12.6673C11.3333 12.6488 11.3341 12.6304 11.3356 12.612L11.9421 5.33398H4.05787ZM9.33333 4.00065H6.66667V2.66732L9.33333 2.66732V4.00065ZM6.66667 6.66732C7.03486 6.66732 7.33333 6.96579 7.33333 7.33398V11.334C7.33333 11.7022 7.03486 12.0007 6.66667 12.0007C6.29848 12.0007 6 11.7022 6 11.334V7.33398C6 6.96579 6.29848 6.66732 6.66667 6.66732ZM9.33333 6.66732C9.70152 6.66732 10 6.96579 10 7.33398V11.334C10 11.7022 9.70152 12.0007 9.33333 12.0007C8.96514 12.0007 8.66667 11.7022 8.66667 11.334V7.33398C8.66667 6.96579 8.96514 6.66732 9.33333 6.66732Z"/>
</svg>
