<svg width="24" height="24" viewBox="0 0 24 24" fill="none" xmlns="http://www.w3.org/2000/svg">
<path d="M21.9998 8.62667L21.8894 3.01331C21.8825 2.74667 21.7101 2.50667 21.4549 2.40666C21.1997 2.30665 20.9031 2.36666 20.71 2.55331L18.9304 4.29333C17.0819 2.81331 14.7436 2 12.3502 2C9.41878 2 6.6184 3.20667 4.6526 5.31331C2.66612 7.44665 1.74878 10.2067 2.05918 13.08C2.54197 17.4867 6.16315 21.1866 10.681 21.8733C11.2328 21.96 11.7915 22 12.3502 22C13.9159 22 15.4541 21.66 16.8681 20.9933C17.4543 20.72 17.8475 20.2067 17.9579 19.58C18.0682 18.9467 17.8544 18.2933 17.3647 17.82C16.737 17.2133 15.7989 17.06 14.9781 17.44C13.9435 17.9067 12.7779 18.0867 11.6122 17.96C8.88076 17.66 6.49426 15.36 6.18386 12.7133C5.97694 10.98 6.51493 9.30663 7.70822 8.0133C8.88766 6.73332 10.5775 6 12.3502 6C13.6607 6 14.916 6.39331 15.9645 7.13334L14.3091 8.73331C14.1091 8.92667 14.0539 9.20667 14.1573 9.45333C14.2608 9.69999 14.5022 9.86666 14.7781 9.87333L20.5927 9.98665C20.9307 9.98665 21.3307 9.85331 21.5928 9.59333C21.8549 9.34001 22.0067 8.98665 21.9998 8.62667Z" fill="black"/>
<path d="M21.9998 8.62667L21.8894 3.01331C21.8825 2.74667 21.7101 2.50667 21.4549 2.40666C21.1997 2.30665 20.9031 2.36666 20.71 2.55331L18.9304 4.29333C17.0819 2.81331 14.7436 2 12.3502 2C9.41878 2 6.6184 3.20667 4.6526 5.31331C2.66612 7.44665 1.74878 10.2067 2.05918 13.08C2.54197 17.4867 6.16315 21.1866 10.681 21.8733C11.2328 21.96 11.7915 22 12.3502 22C13.9159 22 15.4541 21.66 16.8681 20.9933C17.4543 20.72 17.8475 20.2067 17.9579 19.58C18.0682 18.9467 17.8544 18.2933 17.3647 17.82C16.737 17.2133 15.7989 17.06 14.9781 17.44C13.9435 17.9067 12.7779 18.0867 11.6122 17.96C8.88076 17.66 6.49426 15.36 6.18386 12.7133C5.97694 10.98 6.51493 9.30663 7.70822 8.0133C8.88766 6.73332 10.5775 6 12.3502 6C13.6607 6 14.916 6.39331 15.9645 7.13334L14.3091 8.73331C14.1091 8.92667 14.0539 9.20667 14.1573 9.45333C14.2608 9.69999 14.5022 9.86666 14.7781 9.87333L20.5927 9.98665C20.9307 9.98665 21.3307 9.85331 21.5928 9.59333C21.8549 9.34001 22.0067 8.98665 21.9998 8.62667Z" fill="#DDC916"/>
</svg>
