<svg width="24" height="24" viewBox="0 0 24 24" fill="none" xmlns="http://www.w3.org/2000/svg">
<path d="M18.9634 4.96031L18.6179 4.68364C16.8594 3.27567 14.6317 2.5 12.3502 2.5C9.55495 2.5 6.88783 3.65089 5.01828 5.6543C3.13054 7.68175 2.26164 10.2977 2.55625 13.0259C3.01354 17.1982 6.45349 20.725 10.7562 21.379L10.7586 21.3794C11.2827 21.4617 11.8153 21.5 12.3502 21.5C13.8432 21.5 15.3084 21.1759 16.6548 20.5411L16.6568 20.5402C17.0961 20.3353 17.3835 19.9582 17.4654 19.4935C17.546 19.0294 17.3918 18.5416 17.0172 18.1795C16.5428 17.7211 15.8277 17.5977 15.1882 17.8937L15.1837 17.8958L15.1837 17.8958C14.065 18.4004 12.8094 18.593 11.5582 18.4571L11.5576 18.457C8.60656 18.1329 6.02646 15.6614 5.68732 12.7721C5.46326 10.8938 6.04824 9.07512 7.3407 7.67429L18.9634 4.96031ZM18.9634 4.96031L19.2799 4.65084M18.9634 4.96031L19.2799 4.65084M19.2799 4.65084L21.0574 2.91282C21.0577 2.91261 21.0579 2.91239 21.0581 2.91217C21.1098 2.86285 21.1986 2.84324 21.2725 2.87219C21.3479 2.90175 21.3877 2.96808 21.3896 3.02531C21.3896 3.02562 21.3896 3.02594 21.3896 3.02625L21.4999 8.63625C21.504 8.85105 21.4122 9.07252 21.2453 9.2338L21.2453 9.23377L21.2407 9.23837C21.0884 9.38937 20.8252 9.48544 20.597 9.48664L14.7902 9.37347C14.7899 9.37347 14.7897 9.37346 14.7894 9.37345C14.7097 9.37121 14.6452 9.32364 14.6184 9.2599L14.1573 9.45333L14.6184 9.2599C14.5951 9.20446 14.6039 9.14375 14.6566 9.09284C14.6566 9.09282 14.6566 9.09281 14.6566 9.0928L16.312 7.49286L16.7462 7.07313M19.2799 4.65084L16.7462 7.07313M16.7462 7.07313L16.2528 6.72485M16.7462 7.07313L16.2528 6.72485M16.2528 6.72485C15.118 5.92387 13.7615 5.5 12.3502 5.5C10.4408 5.5 8.61672 6.28963 7.34074 7.67424L16.2528 6.72485Z" fill="black"/>
<path d="M18.9634 4.96031L18.6179 4.68364C16.8594 3.27567 14.6317 2.5 12.3502 2.5C9.55495 2.5 6.88783 3.65089 5.01828 5.6543C3.13054 7.68175 2.26164 10.2977 2.55625 13.0259C3.01354 17.1982 6.45349 20.725 10.7562 21.379L10.7586 21.3794C11.2827 21.4617 11.8153 21.5 12.3502 21.5C13.8432 21.5 15.3084 21.1759 16.6548 20.5411L16.6568 20.5402C17.0961 20.3353 17.3835 19.9582 17.4654 19.4935C17.546 19.0294 17.3918 18.5416 17.0172 18.1795C16.5428 17.7211 15.8277 17.5977 15.1882 17.8937L15.1837 17.8958L15.1837 17.8958C14.065 18.4004 12.8094 18.593 11.5582 18.4571L11.5576 18.457C8.60656 18.1329 6.02646 15.6614 5.68732 12.7721C5.46326 10.8938 6.04824 9.07512 7.3407 7.67429L18.9634 4.96031ZM18.9634 4.96031L19.2799 4.65084M18.9634 4.96031L19.2799 4.65084M19.2799 4.65084L21.0574 2.91282C21.0577 2.91261 21.0579 2.91239 21.0581 2.91217C21.1098 2.86285 21.1986 2.84324 21.2725 2.87219C21.3479 2.90175 21.3877 2.96808 21.3896 3.02531C21.3896 3.02562 21.3896 3.02594 21.3896 3.02625L21.4999 8.63625C21.504 8.85105 21.4122 9.07252 21.2453 9.2338L21.2453 9.23377L21.2407 9.23837C21.0884 9.38937 20.8252 9.48544 20.597 9.48664L14.7902 9.37347C14.7899 9.37347 14.7897 9.37346 14.7894 9.37345C14.7097 9.37121 14.6452 9.32364 14.6184 9.2599L14.1573 9.45333L14.6184 9.2599C14.5951 9.20446 14.6039 9.14375 14.6566 9.09284C14.6566 9.09282 14.6566 9.09281 14.6566 9.0928L16.312 7.49286L16.7462 7.07313M19.2799 4.65084L16.7462 7.07313M16.7462 7.07313L16.2528 6.72485M16.7462 7.07313L16.2528 6.72485M16.2528 6.72485C15.118 5.92387 13.7615 5.5 12.3502 5.5C10.4408 5.5 8.61672 6.28963 7.34074 7.67424L16.2528 6.72485Z" fill="#DDC916"/>
<path d="M18.9634 4.96031L18.6179 4.68364C16.8594 3.27567 14.6317 2.5 12.3502 2.5C9.55495 2.5 6.88783 3.65089 5.01828 5.6543C3.13054 7.68175 2.26164 10.2977 2.55625 13.0259C3.01354 17.1982 6.45349 20.725 10.7562 21.379L10.7586 21.3794C11.2827 21.4617 11.8153 21.5 12.3502 21.5C13.8432 21.5 15.3084 21.1759 16.6548 20.5411L16.6568 20.5402C17.0961 20.3353 17.3835 19.9582 17.4654 19.4935C17.546 19.0294 17.3918 18.5416 17.0172 18.1795C16.5428 17.7211 15.8277 17.5977 15.1882 17.8937L15.1837 17.8958L15.1837 17.8958C14.065 18.4004 12.8094 18.593 11.5582 18.4571L11.5576 18.457C8.60656 18.1329 6.02646 15.6614 5.68732 12.7721C5.46326 10.8938 6.04824 9.07512 7.3407 7.67429L18.9634 4.96031ZM18.9634 4.96031L19.2799 4.65084M18.9634 4.96031L19.2799 4.65084M19.2799 4.65084L21.0574 2.91282C21.0577 2.91261 21.0579 2.91239 21.0581 2.91217C21.1098 2.86285 21.1986 2.84324 21.2725 2.87219C21.3479 2.90175 21.3877 2.96808 21.3896 3.02531C21.3896 3.02562 21.3896 3.02594 21.3896 3.02625L21.4999 8.63625C21.504 8.85105 21.4122 9.07252 21.2453 9.2338L21.2453 9.23377L21.2407 9.23837C21.0884 9.38937 20.8252 9.48544 20.597 9.48664L14.7902 9.37347C14.7899 9.37347 14.7897 9.37346 14.7894 9.37345C14.7097 9.37121 14.6452 9.32364 14.6184 9.2599L14.1573 9.45333L14.6184 9.2599C14.5951 9.20446 14.6039 9.14375 14.6566 9.09284C14.6566 9.09282 14.6566 9.09281 14.6566 9.0928L16.312 7.49286L16.7462 7.07313M19.2799 4.65084L16.7462 7.07313M16.7462 7.07313L16.2528 6.72485M16.7462 7.07313L16.2528 6.72485M16.2528 6.72485C15.118 5.92387 13.7615 5.5 12.3502 5.5C10.4408 5.5 8.61672 6.28963 7.34074 7.67424L16.2528 6.72485Z" stroke="#FFE500"/>
</svg>
