<svg width="24" height="24" viewBox="0 0 24 24" xmlns="http://www.w3.org/2000/svg">
<path d="M19.6443 17.904L16.3463 14.606C17.1411 13.4586 17.5387 12.1796 17.5387 10.7694C17.5387 9.85277 17.3607 8.97608 17.0048 8.13957C16.6491 7.30293 16.1683 6.5818 15.5625 5.97603C14.9568 5.37025 14.2357 4.88942 13.3993 4.5337C12.5625 4.17789 11.6859 4 10.7693 4C9.8527 4 8.97602 4.17789 8.13952 4.5337C7.30289 4.88942 6.58177 5.37025 5.976 5.97603C5.37016 6.5818 4.88941 7.30306 4.53366 8.13957C4.17789 8.97618 4 9.85277 4 10.7694C4 11.686 4.17789 12.5624 4.53366 13.3992C4.88937 14.2357 5.37016 14.9567 5.976 15.5625C6.58177 16.1685 7.30302 16.6491 8.13952 17.005C8.97612 17.3607 9.8527 17.5386 10.7693 17.5386C12.1797 17.5386 13.4586 17.141 14.606 16.3462L17.904 19.6346C18.1348 19.8782 18.4229 20 18.7693 20C19.1026 20 19.3913 19.8782 19.6347 19.6346C19.8782 19.3911 20 19.1026 20 18.7693C20.0001 18.4298 19.8815 18.1412 19.6443 17.904ZM13.8126 13.8124C12.9696 14.6555 11.9553 15.077 10.7693 15.077C9.58347 15.077 8.56912 14.6554 7.72612 13.8124C6.88312 12.9695 6.46164 11.9553 6.46164 10.7692C6.46164 9.58341 6.88322 8.56887 7.72612 7.72603C8.56895 6.88299 9.58347 6.46154 10.7693 6.46154C11.9552 6.46154 12.9695 6.88316 13.8126 7.72603C14.6556 8.56887 15.0771 9.58341 15.0771 10.7692C15.0771 11.9553 14.6555 12.9695 13.8126 13.8124Z"/>
</svg>
