<svg width="16" height="16" viewBox="0 0 16 16" fill="none" xmlns="http://www.w3.org/2000/svg">
<path d="M5.69328 15.9998C5.84391 16.0029 5.99285 15.9657 6.12623 15.8914C6.25962 15.8172 6.37312 15.7085 6.4562 15.5753C6.63425 15.2919 6.87455 15.0586 7.15646 14.8953C7.43838 14.732 7.75348 14.6437 8.07472 14.6378C8.39595 14.632 8.71373 14.7089 9.00075 14.8618C9.28777 15.0148 9.53547 15.2393 9.72258 15.516C9.84276 15.697 10.0188 15.8279 10.2203 15.8861C10.4219 15.9442 10.6363 15.926 10.8265 15.8346C11.5908 15.4754 12.3018 15.0004 12.9371 14.4245C13.2703 14.1265 13.4059 13.6493 13.2631 13.2406M5.69328 15.9998L5.71252 15.5002C5.71098 15.5001 5.70945 15.5001 5.70791 15.5M5.69328 15.9998L5.70364 15.4999C5.70506 15.5 5.70648 15.5 5.70791 15.5M5.69328 15.9998C5.58213 15.9955 5.4724 15.9718 5.36855 15.9296C4.53217 15.5683 3.75578 15.0674 3.06886 14.446C2.7185 14.1407 2.58723 13.6383 2.75632 13.2241L2.83883 2.63273M5.70791 15.5C5.76735 15.5005 5.8274 15.4855 5.8831 15.4545C5.94036 15.4227 5.99238 15.3741 6.03197 15.3106L6.03284 15.3093C6.25287 14.9591 6.55173 14.6677 6.90586 14.4626C7.26019 14.2574 7.65826 14.1453 8.06564 14.1379C8.47304 14.1305 8.87475 14.2281 9.2359 14.4206C9.59685 14.6129 9.90531 14.8936 10.1368 15.2359L10.1392 15.2394L10.1391 15.2395C10.1963 15.3256 10.2757 15.3816 10.359 15.4057C10.4417 15.4295 10.5296 15.4225 10.6098 15.3839L10.6138 15.382L10.6138 15.382C11.3326 15.0443 12.0021 14.5972 12.6013 14.0541L12.6037 14.0519L12.6037 14.0519C12.7967 13.8793 12.8617 13.6122 12.7921 13.4086M5.70791 15.5C5.65824 15.4976 5.60872 15.4869 5.561 15.4681C4.77792 15.129 4.04972 14.6591 3.40429 14.0752L3.40434 14.0752L3.39736 14.0691C3.1965 13.8941 3.13667 13.6153 3.21925 13.413L3.21981 13.4116C3.32951 13.1405 3.39424 12.8523 3.41165 12.5593C3.49961 11.1251 2.47979 9.80336 1.05263 9.63983C0.833186 9.60935 0.6426 9.42887 0.602781 9.19212L0.602791 9.19212L0.602262 9.18909C0.451272 8.32388 0.467644 7.43507 0.650319 6.57691L0.650355 6.57692L0.651544 6.57098C0.697508 6.34144 0.886273 6.16873 1.09851 6.13941C1.35219 6.1097 1.60003 6.04185 1.83447 5.9383C3.15076 5.36095 3.78237 3.80198 3.31185 2.47063M12.7921 13.4086C12.7927 13.4102 12.7933 13.4118 12.7939 13.4134L13.2631 13.2406M12.7921 13.4086C12.7918 13.4076 12.7914 13.4066 12.7911 13.4056L13.2631 13.2406M12.7921 13.4086C12.3066 12.0825 12.9223 10.5171 14.2308 9.92638M13.2631 13.2406C12.8614 12.1501 13.3746 10.8609 14.4373 10.3818M14.4373 10.3818L14.2299 9.92679C14.2302 9.92665 14.2305 9.92651 14.2308 9.92638M14.4373 10.3818C14.6169 10.2999 14.8061 10.2442 14.9999 10.2162M14.4373 10.3818L14.2318 9.92597C14.2314 9.9261 14.2311 9.92624 14.2308 9.92638M14.2308 9.92638C14.4513 9.826 14.6841 9.75719 14.9229 9.72212M14.9999 10.2162L14.9196 9.72267C14.9207 9.72249 14.9218 9.72231 14.9229 9.72212M14.9999 10.2162C15.4255 10.147 15.7709 9.80489 15.8497 9.37208C15.9421 8.91973 15.9924 8.45887 16 7.99612M14.9999 10.2162L14.9283 9.72134C14.9265 9.7216 14.9247 9.72186 14.9229 9.72212M14.9229 9.72212C15.1338 9.68632 15.3163 9.51051 15.3577 9.28256L15.3597 9.27199L15.3598 9.27201C15.4457 8.85133 15.4927 8.42263 15.5 7.99206M15.5 7.99206C15.5 7.99345 15.5 7.99483 15.5 7.99622L16 7.99612M15.5 7.99206C15.5 7.99068 15.5 7.9893 15.5001 7.98793L16 7.99612M15.5 7.99206C15.4996 7.53795 15.4546 7.08521 15.3657 6.64122L15.3646 6.63583L15.3646 6.63583C15.3226 6.41354 15.1441 6.24281 14.9386 6.20816L15.0217 5.71513L14.9398 6.20836C13.5148 5.9715 12.5507 4.59308 12.7047 3.16177L12.7047 3.1617C12.7258 2.96572 12.7677 2.77265 12.8299 2.5861M16 7.99612C15.9999 7.50776 15.9516 7.02074 15.8559 6.54301L13.3046 2.74301M12.8299 2.5861C12.83 2.58564 12.8302 2.58518 12.8303 2.58473L13.3046 2.74301M12.8299 2.5861C12.8298 2.58638 12.8297 2.58666 12.8296 2.58694L13.3046 2.74301M12.8299 2.5861C12.8957 2.38444 12.8298 2.12319 12.641 1.95467L12.6365 1.95066L12.6365 1.95063C11.9853 1.35512 11.2481 0.8769 10.4541 0.533883L10.4485 0.531457L10.4485 0.531423C10.3706 0.496628 10.286 0.49083 10.2062 0.513537C10.1262 0.536293 10.0497 0.588234 9.99248 0.667971M13.3046 2.74301C13.4372 2.33966 13.3012 1.87372 12.974 1.58164C12.2824 0.949247 11.4983 0.44034 10.6524 0.0748878C10.4679 -0.00751017 10.2628 -0.0223866 10.0694 0.0326116C9.87603 0.0876097 9.70549 0.209343 9.58475 0.378557M9.99248 0.667971C9.99272 0.667635 9.99295 0.667298 9.99319 0.666962L9.58475 0.378557M9.99248 0.667971C9.99224 0.668306 9.992 0.66864 9.99176 0.668976L9.58475 0.378557M9.99248 0.667971C9.15597 1.85145 7.52868 2.06682 6.43061 1.13379L6.43014 1.13339C6.27018 0.997135 6.12765 0.840778 6.00556 0.668277M9.58475 0.378557C8.91528 1.32666 7.62542 1.4929 6.75436 0.752763C6.62627 0.64365 6.51161 0.517932 6.41307 0.378557M6.00556 0.668277C6.00572 0.66851 6.00589 0.668743 6.00606 0.668976L6.41307 0.378557M6.00556 0.668277C6.00531 0.667921 6.00505 0.667564 6.0048 0.667207L6.41307 0.378557M6.00556 0.668277C5.94831 0.588366 5.87174 0.536322 5.79163 0.513537C5.7118 0.49083 5.62723 0.496628 5.54932 0.531423L5.54344 0.534049L5.54343 0.534011C4.81118 0.849805 4.12685 1.28097 3.51369 1.81371L3.5116 1.81552L3.5116 1.81551C3.3143 1.98503 3.24246 2.2577 3.31185 2.47063M6.41307 0.378557C6.29233 0.209343 6.12179 0.0876097 5.92842 0.0326116C5.73506 -0.0223866 5.52991 -0.00751017 5.34542 0.0748878C4.56518 0.411381 3.83715 0.870308 3.18575 1.43627C2.84195 1.73166 2.69943 2.21581 2.83883 2.63273M3.31185 2.47063C3.3112 2.46879 3.31054 2.46694 3.30989 2.46509L2.83883 2.63273M3.31185 2.47063C3.31224 2.47182 3.31263 2.47301 3.31303 2.47419L2.83883 2.63273M11.1658 7.99612L11.1658 7.99572C11.1644 6.1957 9.76538 4.66844 7.99846 4.67004C6.23358 4.67164 4.83053 6.19573 4.83198 7.99653C4.83343 9.79515 6.23236 11.3235 7.99936 11.3219C9.76451 11.3203 11.1658 9.7963 11.1658 7.99612Z" fill="#353551" stroke="#3E3E5D"/>
</svg>
