<svg width="24" height="24" viewBox="0 0 24 24" fill="none" xmlns="http://www.w3.org/2000/svg">
<path d="M21.5087 14.5901L20.2587 13.2701C20.4179 12.3081 20.3975 11.3248 20.1987 10.3701L21.4187 9.05014C21.5134 8.94463 21.5767 8.81473 21.6014 8.67512C21.6262 8.53552 21.6114 8.39177 21.5587 8.26014C21.0518 7.0102 20.3043 5.87199 19.3587 4.91014C19.2662 4.81766 19.1508 4.75136 19.0243 4.71798C18.8979 4.6846 18.7648 4.68535 18.6387 4.72014L16.7987 5.19014C16.2321 4.78296 15.6174 4.4471 14.9687 4.19014L14.5187 2.47014C14.4853 2.33064 14.4115 2.20407 14.3066 2.10625C14.2016 2.00844 14.0702 1.9437 13.9287 1.92014C13.3055 1.80369 12.6727 1.74677 12.0387 1.75014C11.2454 1.7539 10.4558 1.85806 9.6887 2.06014C9.56069 2.09232 9.44381 2.1586 9.35048 2.25193C9.25715 2.34525 9.19087 2.46214 9.1587 2.59014L8.6787 4.36014C8.14199 4.59821 7.6324 4.89324 7.1587 5.24014L5.3387 4.79014C5.21091 4.75674 5.07646 4.75863 4.94967 4.79561C4.82287 4.83259 4.70848 4.90328 4.6187 5.00014C3.62447 6.03301 2.86395 7.26758 2.3887 8.62014C2.34261 8.75088 2.33315 8.89173 2.36135 9.02745C2.38956 9.16317 2.45434 9.28859 2.5487 9.39014L3.8087 10.7001C3.7447 11.1208 3.71136 11.5441 3.7087 11.9701C3.7087 12.2701 3.7087 12.5701 3.7587 12.8701L2.4487 14.3301C2.36054 14.4272 2.29937 14.5457 2.2713 14.6738C2.24322 14.8019 2.24922 14.9351 2.2887 15.0601C2.69964 16.3824 3.38068 17.6048 4.2887 18.6501C4.38002 18.7575 4.49976 18.837 4.63418 18.8794C4.7686 18.9219 4.91226 18.9256 5.0487 18.8901L6.7687 18.4501C7.37124 18.9563 8.04516 19.3707 8.7687 19.6801L9.2687 21.4701C9.30722 21.5999 9.37926 21.7172 9.47758 21.8103C9.57589 21.9033 9.697 21.9688 9.8287 22.0001C10.5497 22.1631 11.2877 22.2471 12.0287 22.2501C12.6194 22.2435 13.206 22.1868 13.7887 22.0801C13.9267 22.0558 14.0552 21.9932 14.1595 21.8995C14.2638 21.8058 14.3397 21.6848 14.3787 21.5501L14.8487 19.8601C15.7122 19.5514 16.5169 19.0983 17.2287 18.5201L18.9887 18.9201C19.1207 18.9508 19.2586 18.9446 19.3873 18.9023C19.516 18.86 19.6307 18.7831 19.7187 18.6801C20.5957 17.707 21.2749 16.5726 21.7187 15.3401C21.7546 15.2078 21.754 15.0682 21.7171 14.9362C21.6801 14.8042 21.6081 14.6846 21.5087 14.5901ZM12.1187 15.8601C11.6133 15.8696 11.1111 15.7784 10.6414 15.5919C10.1716 15.4054 9.74361 15.1272 9.38238 14.7737C9.02115 14.4201 8.73389 13.9982 8.53731 13.5325C8.34073 13.0669 8.23878 12.5668 8.23739 12.0613C8.23599 11.5559 8.33519 11.0552 8.52919 10.5884C8.7232 10.1217 9.00814 9.69823 9.36741 9.34269C9.72669 8.98715 10.1531 8.70666 10.6219 8.51754C11.0906 8.32842 11.5923 8.23447 12.0977 8.24114C13.1082 8.23849 14.0783 8.63736 14.7947 9.34999C15.5111 10.0626 15.915 11.0307 15.9177 12.0411C15.9203 13.0516 15.5215 14.0218 14.8088 14.7381C14.0962 15.4545 13.1282 15.8585 12.1177 15.8611" fill="#DDC916"/>
<path fill-rule="evenodd" clip-rule="evenodd" d="M20.7052 15.196C20.3214 16.1902 19.7659 17.1095 19.0638 17.9117L16.9759 17.4372L16.5982 17.744C15.9743 18.2507 15.2689 18.6479 14.512 18.9185L14.0241 19.093L13.4597 21.1225C12.9842 21.2018 12.5061 21.2443 12.0251 21.2501C11.4081 21.2471 10.7934 21.1818 10.1912 21.0557L9.60281 18.9492L9.16189 18.7607C8.52879 18.49 7.93911 18.1273 7.41188 17.6844L7.01854 17.354L4.94889 17.8835C4.20853 17.0027 3.64389 15.9882 3.2856 14.8948L4.82414 13.1801L4.74509 12.7057C4.71104 12.5014 4.70871 12.2848 4.7087 11.9734C4.7112 11.5966 4.74074 11.2224 4.79732 10.8505L4.87155 10.3626L3.38185 8.81381C3.79568 7.69464 4.42795 6.6689 5.24186 5.79631L7.37243 6.3231L7.74953 6.04693C8.16547 5.74233 8.61291 5.48329 9.08417 5.27425L9.51926 5.08126L10.0861 2.99089C10.7267 2.83411 11.3836 2.75326 12.0434 2.75013C12.5619 2.74737 13.0801 2.78942 13.5912 2.87576L14.1295 4.93332L14.6004 5.11987C15.1729 5.34659 15.7152 5.64294 16.2151 6.00222L16.5941 6.27452L18.7536 5.7229C19.5208 6.52977 20.1368 7.46786 20.5724 8.49248L19.1147 10.0697L19.2197 10.574C19.3933 11.4079 19.4111 12.2666 19.2721 13.1069L19.191 13.597L20.7052 15.196ZM19.3587 4.91014C20.3043 5.87199 21.0518 7.0102 21.5587 8.26014C21.6114 8.39177 21.6262 8.53552 21.6014 8.67512C21.5767 8.81473 21.5134 8.94463 21.4187 9.05014L20.1987 10.3701C20.3975 11.3248 20.4179 12.3081 20.2587 13.2701L21.5087 14.5901C21.6081 14.6846 21.6801 14.8042 21.7171 14.9362C21.754 15.0682 21.7546 15.2078 21.7187 15.3401C21.2749 16.5726 20.5957 17.707 19.7187 18.6801C19.6307 18.7831 19.516 18.86 19.3873 18.9023C19.2586 18.9446 19.1207 18.9508 18.9887 18.9201L17.2287 18.5201C16.5169 19.0983 15.7122 19.5514 14.8487 19.8601L14.3787 21.5501C14.3397 21.6848 14.2638 21.8058 14.1595 21.8995C14.0552 21.9932 13.9267 22.0558 13.7887 22.0801C13.206 22.1868 12.6194 22.2435 12.0287 22.2501C11.2877 22.2471 10.5497 22.1631 9.8287 22.0001C9.697 21.9688 9.57589 21.9033 9.47758 21.8103C9.37926 21.7172 9.30722 21.5999 9.2687 21.4701L8.7687 19.6801C8.04516 19.3707 7.37124 18.9563 6.7687 18.4501L5.0487 18.8901C4.91226 18.9256 4.7686 18.9219 4.63418 18.8794C4.49976 18.837 4.38002 18.7575 4.2887 18.6501C3.38068 17.6048 2.69964 16.3824 2.2887 15.0601C2.24922 14.9351 2.24322 14.8019 2.2713 14.6738C2.29937 14.5457 2.36054 14.4272 2.4487 14.3301L3.7587 12.8701C3.7087 12.5701 3.7087 12.2701 3.7087 11.9701C3.71136 11.5441 3.7447 11.1208 3.8087 10.7001L2.5487 9.39014C2.45434 9.28859 2.38956 9.16317 2.36135 9.02745C2.33315 8.89173 2.34261 8.75088 2.3887 8.62014C2.86395 7.26758 3.62447 6.03301 4.6187 5.00014C4.70848 4.90328 4.82287 4.83259 4.94967 4.79561C5.07646 4.75863 5.21091 4.75674 5.3387 4.79014L7.1587 5.24014C7.6324 4.89324 8.14199 4.59821 8.6787 4.36014L9.1587 2.59014C9.19087 2.46214 9.25715 2.34525 9.35048 2.25193C9.44381 2.1586 9.56069 2.09232 9.6887 2.06014C10.4558 1.85806 11.2454 1.7539 12.0387 1.75014C12.6727 1.74677 13.3055 1.80369 13.9287 1.92014C14.0702 1.9437 14.2016 2.00844 14.3066 2.10625C14.4115 2.20407 14.4853 2.33064 14.5187 2.47014L14.9687 4.19014C15.6174 4.4471 16.2321 4.78296 16.7987 5.19014L18.6387 4.72014C18.7648 4.68535 18.8979 4.6846 19.0243 4.71798C19.1508 4.75136 19.2662 4.81766 19.3587 4.91014ZM12.1177 15.8611C11.6127 15.8705 11.1108 15.7783 10.6414 15.5919C10.1716 15.4054 9.74361 15.1272 9.38238 14.7737C9.02115 14.4201 8.73389 13.9982 8.53731 13.5325C8.34073 13.0669 8.23878 12.5668 8.23739 12.0613C8.23599 11.5559 8.33519 11.0552 8.52919 10.5884C8.7232 10.1217 9.00814 9.69823 9.36741 9.34269C9.72669 8.98715 10.1531 8.70666 10.6219 8.51754C11.0906 8.32842 11.5923 8.23447 12.0977 8.24114C13.1082 8.23849 14.0783 8.63736 14.7947 9.34999C15.5111 10.0626 15.915 11.0307 15.9177 12.0411C15.9203 13.0516 15.5215 14.0218 14.8088 14.7381C14.0964 15.4543 13.1288 15.8572 12.1187 15.8601C12.1184 15.8601 12.118 15.8611 12.1177 15.8611ZM12.1203 16.8603C11.4881 16.8698 10.8601 16.7547 10.2723 16.5213C9.67924 16.2858 9.13895 15.9347 8.68291 15.4883C8.22687 15.042 7.8642 14.5093 7.61603 13.9215C7.36786 13.3336 7.23915 12.7022 7.23739 12.0641C7.23563 11.4259 7.36086 10.7939 7.60579 10.2046C7.85072 9.61537 8.21044 9.08075 8.66401 8.6319C9.11758 8.18304 9.65593 7.82892 10.2477 7.59017C10.837 7.35241 11.4676 7.23379 12.103 7.24113C13.3758 7.23988 14.5974 7.74321 15.5 8.64103C16.4044 9.54072 16.9143 10.7628 16.9177 12.0385C16.921 13.3142 16.4175 14.539 15.5178 15.4434C14.6181 16.3478 13.396 16.8569 12.1203 16.8603Z" fill="#FFE500"/>
</svg>
