<svg width="16" height="16" viewBox="0 0 16 16" fill="none" xmlns="http://www.w3.org/2000/svg">
<path d="M5.69328 15.9998C5.84391 16.0029 5.99285 15.9657 6.12623 15.8914C6.25962 15.8172 6.37312 15.7085 6.4562 15.5753C6.63425 15.2919 6.87455 15.0586 7.15646 14.8953C7.43838 14.732 7.75348 14.6437 8.07472 14.6378C8.39595 14.632 8.71373 14.7089 9.00075 14.8618C9.28777 15.0148 9.53547 15.2393 9.72258 15.516C9.84276 15.697 10.0188 15.8279 10.2203 15.8861M5.69328 15.9998L5.71252 15.5002C5.71098 15.5001 5.70945 15.5001 5.70791 15.5M5.69328 15.9998L5.70364 15.4999C5.70506 15.5 5.70648 15.5 5.70791 15.5M5.69328 15.9998C5.58213 15.9955 5.4724 15.9718 5.36855 15.9296C4.53217 15.5683 3.75578 15.0674 3.06886 14.446C2.7185 14.1407 2.58723 13.6383 2.75632 13.2241C2.84559 13.0035 2.89845 12.7682 2.91259 12.5286C2.98572 11.3362 2.13498 10.2645 0.991077 10.1361L12.7921 13.4086M5.70791 15.5C5.76736 15.5005 5.82741 15.4855 5.8831 15.4545L6.11083 15.8637L5.88311 15.4545C5.94036 15.4227 5.99238 15.3741 6.03197 15.3106L6.03284 15.3093C6.25287 14.9591 6.55173 14.6677 6.90586 14.4626C7.26019 14.2574 7.65826 14.1453 8.06564 14.1379C8.47304 14.1305 8.87475 14.2281 9.2359 14.4206C9.59685 14.6129 9.90531 14.8936 10.1368 15.2359L10.1392 15.2394L10.1391 15.2395C10.1963 15.3256 10.2757 15.3816 10.359 15.4057L10.2203 15.8861M5.70791 15.5C5.65825 15.4976 5.60873 15.487 5.56102 15.4681C4.77793 15.129 4.04972 14.6591 3.40429 14.0752L3.40434 14.0752L3.39736 14.0691C3.1965 13.8941 3.13667 13.6153 3.21925 13.413L3.21981 13.4116C3.32951 13.1405 3.39424 12.8523 3.41165 12.5593C3.49961 11.1251 2.47977 9.80334 1.05259 9.63982C0.833162 9.60933 0.642598 9.42886 0.602781 9.19212L0.602791 9.19212L0.602262 9.18909C0.451272 8.32388 0.467644 7.43507 0.650319 6.57691L0.650355 6.57692L0.651544 6.57098C0.697508 6.34144 0.886272 6.16873 1.09851 6.13941C1.35219 6.1097 1.60003 6.04185 1.83447 5.9383C3.15076 5.36096 3.78237 3.80198 3.31185 2.47063C3.24246 2.2577 3.3143 1.98503 3.5116 1.81551L3.5116 1.81552L3.51369 1.81371C4.12685 1.28097 4.81118 0.849805 5.54343 0.534011L5.54344 0.534049L5.54932 0.531423C5.62723 0.496628 5.7118 0.49083 5.79163 0.513536C5.87176 0.536326 5.94833 0.588383 6.00558 0.668315C6.12767 0.8408 6.27019 0.997145 6.43014 1.13339L6.43061 1.13379C7.52868 2.06682 9.15596 1.85145 9.99248 0.667971C10.0497 0.588234 10.1262 0.536293 10.2062 0.513536C10.286 0.49083 10.3706 0.496628 10.4485 0.531423L10.4485 0.531457L10.4541 0.533883C11.2481 0.8769 11.9853 1.35512 12.6365 1.95063L12.6365 1.95066L12.641 1.95467C12.8298 2.12318 12.8957 2.38442 12.8299 2.58608C12.7677 2.77263 12.7258 2.96571 12.7047 3.16169L12.7047 3.16177C12.5507 4.59308 13.5148 5.9715 14.9398 6.20836L15.0217 5.71513L14.9386 6.20816C15.1441 6.24281 15.3226 6.41354 15.3646 6.63583L15.3646 6.63583L15.3657 6.64122C15.4546 7.08521 15.4996 7.53795 15.5 7.99206C15.4927 8.42263 15.4457 8.85133 15.3598 9.27201L15.3597 9.27199L15.3577 9.28256C15.3163 9.51051 15.1338 9.68632 14.9229 9.72212C14.6841 9.75718 14.4513 9.826 14.2308 9.92638C12.9223 10.5171 12.3066 12.0825 12.7921 13.4086M10.2203 15.8861L10.359 15.4057C10.4417 15.4295 10.5296 15.4225 10.6098 15.3839L10.6138 15.382L10.6138 15.382C11.3326 15.0443 12.0021 14.5972 12.6013 14.0541L12.6037 14.0518L12.6037 14.0519C12.7967 13.8793 12.8617 13.6122 12.7921 13.4086M10.2203 15.8861C10.4219 15.9442 10.6363 15.926 10.8265 15.8346C11.5908 15.4754 12.3018 15.0004 12.9371 14.4245L12.7921 13.4086M11.1658 7.99612V7.99572C11.1644 6.1957 9.76538 4.66844 7.99846 4.67004C6.23358 4.67164 4.83053 6.19573 4.83198 7.99653C4.83343 9.79515 6.23236 11.3235 7.99936 11.3219C9.76451 11.3203 11.1658 9.7963 11.1658 7.99612Z" fill="#353551" stroke="#3E3E5D"/>
</svg>
