<svg width="24" height="24" viewBox="0 0 24 24" xmlns="http://www.w3.org/2000/svg">
<path d="M21.5087 14.5901L20.2587 13.2701C20.4179 12.3081 20.3975 11.3248 20.1987 10.3701L21.4187 9.05014C21.5134 8.94463 21.5767 8.81473 21.6014 8.67512C21.6262 8.53552 21.6114 8.39177 21.5587 8.26014C21.0518 7.0102 20.3043 5.87199 19.3587 4.91014C19.2662 4.81766 19.1508 4.75136 19.0243 4.71798C18.8979 4.6846 18.7648 4.68535 18.6387 4.72014L16.7987 5.19014C16.2321 4.78296 15.6174 4.4471 14.9687 4.19014L14.5187 2.47014C14.4853 2.33064 14.4115 2.20407 14.3066 2.10625C14.2016 2.00844 14.0702 1.9437 13.9287 1.92014C13.3055 1.80369 12.6727 1.74677 12.0387 1.75014C11.2454 1.7539 10.4558 1.85806 9.6887 2.06014C9.56069 2.09232 9.44381 2.1586 9.35048 2.25193C9.25715 2.34525 9.19087 2.46214 9.1587 2.59014L8.6787 4.36014C8.14199 4.59821 7.6324 4.89324 7.1587 5.24014L5.3387 4.79014C5.21091 4.75674 5.07646 4.75863 4.94967 4.79561C4.82287 4.83259 4.70848 4.90328 4.6187 5.00014C3.62447 6.03301 2.86395 7.26758 2.3887 8.62014C2.34261 8.75088 2.33315 8.89173 2.36135 9.02745C2.38956 9.16317 2.45434 9.28859 2.5487 9.39014L3.8087 10.7001C3.7447 11.1208 3.71136 11.5441 3.7087 11.9701C3.7087 12.2701 3.7087 12.5701 3.7587 12.8701L2.4487 14.3301C2.36054 14.4272 2.29937 14.5457 2.2713 14.6738C2.24322 14.8019 2.24922 14.9351 2.2887 15.0601C2.69964 16.3824 3.38068 17.6048 4.2887 18.6501C4.38002 18.7575 4.49976 18.837 4.63418 18.8794C4.7686 18.9219 4.91226 18.9256 5.0487 18.8901L6.7687 18.4501C7.37124 18.9563 8.04516 19.3707 8.7687 19.6801L9.2687 21.4701C9.30722 21.5999 9.37926 21.7172 9.47758 21.8103C9.57589 21.9033 9.697 21.9688 9.8287 22.0001C10.5497 22.1631 11.2877 22.2471 12.0287 22.2501C12.6194 22.2435 13.206 22.1868 13.7887 22.0801C13.9267 22.0558 14.0552 21.9932 14.1595 21.8995C14.2638 21.8058 14.3397 21.6848 14.3787 21.5501L14.8487 19.8601C15.7122 19.5514 16.5169 19.0983 17.2287 18.5201L18.9887 18.9201C19.1207 18.9508 19.2586 18.9446 19.3873 18.9023C19.516 18.86 19.6307 18.7831 19.7187 18.6801C20.5957 17.707 21.2749 16.5726 21.7187 15.3401C21.7546 15.2078 21.754 15.0682 21.7171 14.9362C21.6801 14.8042 21.6081 14.6846 21.5087 14.5901ZM12.1187 15.8601C11.6133 15.8696 11.1111 15.7784 10.6414 15.5919C10.1716 15.4054 9.74361 15.1272 9.38238 14.7737C9.02115 14.4201 8.73389 13.9982 8.53731 13.5325C8.34073 13.0669 8.23878 12.5668 8.23739 12.0613C8.23599 11.5559 8.33519 11.0552 8.52919 10.5884C8.7232 10.1217 9.00814 9.69823 9.36741 9.34269C9.72669 8.98715 10.1531 8.70666 10.6219 8.51754C11.0906 8.32842 11.5923 8.23447 12.0977 8.24114C13.1082 8.23849 14.0783 8.63736 14.7947 9.34999C15.5111 10.0626 15.915 11.0307 15.9177 12.0411C15.9203 13.0516 15.5215 14.0218 14.8088 14.7381C14.0962 15.4545 13.1282 15.8585 12.1177 15.8611"/>
</svg>
