<svg width="24" height="24" viewBox="0 0 24 24" xmlns="http://www.w3.org/2000/svg">
<path d="M12.8162 16.3516V17.6904L15.5965 20.4697C15.668 20.5388 15.7251 20.6216 15.7644 20.7129C15.8038 20.8044 15.8241 20.9033 15.825 21.0029C15.8259 21.1024 15.8069 21.2009 15.7693 21.293C15.7317 21.3851 15.6766 21.4696 15.6062 21.54C15.5358 21.6105 15.4513 21.6663 15.3591 21.7041C15.2671 21.7417 15.1685 21.7606 15.0691 21.7598C14.9695 21.7589 14.8706 21.7385 14.7791 21.6992C14.6877 21.66 14.605 21.6027 14.5359 21.5312L12.8162 19.8105V22C12.8162 22.1989 12.737 22.3896 12.5965 22.5303C12.4558 22.6709 12.265 22.7499 12.0662 22.75C11.8673 22.75 11.6765 22.6709 11.5359 22.5303C11.3953 22.3896 11.3162 22.1989 11.3162 22V19.8096L9.59645 21.5303C9.45428 21.6628 9.26536 21.7349 9.07106 21.7314C8.87695 21.7279 8.69177 21.649 8.55446 21.5117C8.41705 21.3743 8.33816 21.1884 8.33473 20.9941C8.33141 20.8 8.40351 20.6118 8.53591 20.4697L11.3162 17.6904V14.8516L12.8162 16.3516ZM10.3318 13.8672L7.51442 15.4941L6.49587 19.292C6.47039 19.3871 6.42688 19.4766 6.36696 19.5547C6.30701 19.6328 6.23155 19.6978 6.14626 19.7471C6.06109 19.7962 5.96738 19.8289 5.86989 19.8418C5.77235 19.8547 5.67294 19.8477 5.5779 19.8223C5.48286 19.7968 5.39329 19.7532 5.3152 19.6934C5.23705 19.6334 5.17111 19.5579 5.12184 19.4727C5.07277 19.3876 5.04097 19.2937 5.02809 19.1963C5.01524 19.0988 5.02125 18.9993 5.04665 18.9043L5.67653 16.5537L3.78102 17.6504C3.60869 17.7498 3.40383 17.7761 3.21169 17.7246C3.01946 17.673 2.85509 17.5474 2.75563 17.375C2.65626 17.2027 2.62988 16.9978 2.68141 16.8057C2.73299 16.6134 2.85863 16.4491 3.03102 16.3496L4.92653 15.2559L2.57692 14.626C2.4793 14.6028 2.38731 14.5603 2.30641 14.501C2.22551 14.4416 2.15762 14.3664 2.10622 14.2803C2.05481 14.1941 2.02136 14.0984 2.00759 13.999C1.99383 13.8996 2.00011 13.7981 2.02614 13.7012C2.0522 13.6045 2.09733 13.5135 2.15895 13.4346C2.22065 13.3556 2.29795 13.29 2.38552 13.2412C2.47302 13.1925 2.56917 13.1612 2.66872 13.1504C2.76835 13.1396 2.86961 13.1489 2.96559 13.1777L6.76442 14.1953L9.23317 12.7686L10.3318 13.8672ZM21.1658 13.1768C21.3579 13.1253 21.5629 13.1525 21.7351 13.252C21.9075 13.3515 22.0333 13.5157 22.0847 13.708C22.1362 13.9003 22.1091 14.105 22.0095 14.2773C21.91 14.4495 21.7465 14.5754 21.5545 14.627L19.2049 15.2559L21.1013 16.3506C21.1873 16.3995 21.2624 16.4658 21.323 16.5439C21.3835 16.622 21.428 16.7113 21.4539 16.8066C21.4798 16.902 21.4871 17.0016 21.4744 17.0996C21.4616 17.1977 21.4291 17.2923 21.3797 17.3779C21.3303 17.4635 21.2647 17.5386 21.1863 17.5986C21.1734 17.6085 21.1578 17.615 21.1443 17.624C21.1081 17.58 21.071 17.5361 21.03 17.4951L17.6531 14.1182L21.1658 13.1768ZM18.5545 4.17773C18.6496 4.20321 18.739 4.2467 18.8172 4.30664C18.8953 4.36659 18.9603 4.44205 19.0095 4.52734C19.0587 4.61252 19.0914 4.70621 19.1043 4.80371C19.1171 4.90129 19.1102 5.00063 19.0847 5.0957L18.4549 7.44629L20.3513 6.35059C20.5233 6.25297 20.7269 6.22759 20.9177 6.2793C21.1088 6.33117 21.2718 6.45651 21.3709 6.62793C21.4698 6.79933 21.4975 7.00298 21.447 7.19434C21.3964 7.38577 21.2721 7.55022 21.1013 7.65039L19.2058 8.74414L21.5564 9.37402C21.7484 9.42568 21.9122 9.55141 22.0115 9.72363C22.1109 9.89598 22.1373 10.1008 22.0857 10.293C22.0341 10.4851 21.9084 10.6487 21.7361 10.748C21.5638 10.8474 21.3589 10.8748 21.1668 10.8232L17.3689 9.80469L14.8142 11.2783L13.7166 10.1807L16.6179 8.50586L17.6355 4.70801C17.661 4.61287 17.7055 4.52346 17.7654 4.44531C17.8252 4.36733 17.9 4.30214 17.9851 4.25293C18.0704 4.20367 18.1648 4.17108 18.2625 4.1582C18.3601 4.14534 18.4593 4.15226 18.5545 4.17773ZM3.05544 6.33789C3.1436 6.58794 3.28221 6.81747 3.47536 7.01074L6.3738 9.90918L2.96559 10.8232C2.87051 10.8486 2.77117 10.8547 2.6736 10.8418C2.57596 10.8289 2.48154 10.7973 2.39626 10.748C2.31098 10.6988 2.23647 10.6328 2.17653 10.5547C2.11656 10.4765 2.07212 10.3872 2.04665 10.292C2.02121 10.1969 2.01523 10.0976 2.02809 10C2.04098 9.90238 2.07261 9.80793 2.12184 9.72266C2.17115 9.63732 2.23699 9.56192 2.3152 9.50195C2.39335 9.44206 2.48279 9.39851 2.5779 9.37305L4.92653 8.74414L3.03102 7.65039C2.94566 7.60114 2.87034 7.53519 2.81032 7.45703C2.75039 7.37892 2.70693 7.28943 2.68141 7.19434C2.6559 7.09919 2.64906 7.00001 2.66188 6.90234C2.67471 6.80469 2.70644 6.71032 2.75563 6.625C2.80483 6.53972 2.87092 6.46526 2.94899 6.40527C2.9824 6.37962 3.01839 6.35751 3.05544 6.33789ZM12.0662 1.25C12.265 1.25005 12.4558 1.32912 12.5965 1.46973C12.737 1.61037 12.8162 1.80113 12.8162 2V4.19043L14.5359 2.46973C14.678 2.33735 14.8661 2.26518 15.0603 2.26855C15.2546 2.27198 15.4405 2.35087 15.5779 2.48828C15.7153 2.62568 15.7942 2.8116 15.7976 3.00586C15.8009 3.19998 15.7288 3.3882 15.5965 3.53027L12.8162 6.30957V9.28027L11.3162 7.78027V6.30957L8.53591 3.53027C8.40351 3.38819 8.33141 3.20002 8.33473 3.00586C8.33816 2.81156 8.41705 2.62569 8.55446 2.48828C8.69177 2.35102 8.87695 2.27208 9.07106 2.26855C9.26536 2.26513 9.45428 2.33725 9.59645 2.46973L11.3162 4.19043V2C11.3162 1.80109 11.3953 1.61038 11.5359 1.46973C11.6765 1.32914 11.8673 1.25 12.0662 1.25Z"/>
<path d="M6.87397 4.75273C6.12688 4.00564 5.04637 3.87487 4.46059 4.46066C3.8748 5.04645 4.00556 6.12696 4.75265 6.87405L17.6035 19.7249C18.3506 20.472 19.4311 20.6028 20.0169 20.017C20.6027 19.4312 20.472 18.3507 19.7249 17.6036L6.87397 4.75273Z"/>
</svg>
