<svg width="24" height="24" viewBox="0 0 24 24" xmlns="http://www.w3.org/2000/svg">
<path d="M19.1 4.90015C18.7 4.60015 18.2 4.60015 17.8 4.90015C17.4 5.30015 17.3 5.90015 17.7 6.30015C20.8 9.40015 20.8 14.5001 17.7 17.6001C17.3 18.0001 17.3 18.6001 17.7 19.0001C17.9 19.2001 18.1 19.3001 18.4 19.3001C18.7 19.3001 18.9 19.2001 19.1 19.0001C23 15.2001 23 8.80015 19.1 4.90015Z"/>
<path d="M16.2 7.80015C15.8 7.50015 15.3 7.50015 14.9 7.80015C14.5 8.20015 14.4 8.80015 14.8 9.20015C16.4 10.8001 16.4 13.3001 14.8 14.9001C14.4 15.3001 14.4 15.9001 14.8 16.3001C15 16.5001 15.2 16.6001 15.5 16.6001C15.8 16.6001 16 16.5001 16.2 16.3001C18.6 13.9001 18.6 10.1001 16.2 7.80015Z"/>
<path d="M11.4 4.10015C11 3.90015 10.6 4.00015 10.3 4.30015L6.6 8.00015H4C2.9 8.00015 2 8.90015 2 10.0001V14.0001C2 15.1001 2.9 16.0001 4 16.0001H6.6L10.3 19.7001C10.5 19.9001 10.7 20.0001 11 20.0001C11.1 20.0001 11.3 20.0001 11.4 19.9001C11.8 19.7001 12 19.4001 12 19.0001V5.00015C12 4.60015 11.8 4.20015 11.4 4.10015Z"/>
<rect x="2.29289" y="5.12109" width="4" height="23" rx="2" transform="rotate(-45 2.29289 5.12109)" stroke="#1B1B2B"/>
</svg>
