<svg width="25" height="24" viewBox="0 0 25 24" fill="none" xmlns="http://www.w3.org/2000/svg">
<path d="M5.57024 11.8367L6.07024 12.0367V11.8367H5.57024ZM5.57024 11.8367L5.38458 12.301L5.57024 12.3752V11.8367ZM10.3044 13.7277C10.4469 13.7831 10.58 13.8598 10.6992 13.9548C10.7361 13.9842 10.7717 14.0155 10.8059 14.0484C10.9502 14.1874 11.0654 14.3537 11.145 14.5376C11.1493 14.5475 11.1535 14.5575 11.1576 14.5676C11.161 14.5735 11.1645 14.5795 11.1679 14.5856C11.261 14.7506 11.32 14.9319 11.3423 15.1188C11.3499 15.1824 11.3532 15.2467 11.3522 15.3111C11.3498 15.4617 11.3236 15.6102 11.2753 15.7514C11.2753 15.7515 11.2752 15.7516 11.2752 15.7517C11.242 15.8486 11.1983 15.9421 11.1447 16.0304C11.084 16.1304 11.0115 16.2221 10.9291 16.3038C10.8327 16.3994 10.7227 16.4812 10.6022 16.5463C10.5296 16.5856 10.454 16.6183 10.3763 16.6443C10.215 16.6983 10.0447 16.7233 9.87339 16.7174C9.83064 16.716 9.78809 16.7126 9.74585 16.7073C9.63793 16.6939 9.53208 16.6683 9.43032 16.631C9.33701 16.6119 9.24546 16.5842 9.15688 16.548M10.3044 13.7277L10.4258 13.425C10.5891 13.4691 10.7465 13.5346 10.8939 13.6205C10.9625 13.6605 11.0284 13.7045 11.0911 13.7523C11.2993 13.9107 11.4737 14.1102 11.6031 14.3394C11.6032 14.3396 11.6033 14.3397 11.6034 14.3399C11.6046 14.3421 11.6058 14.3443 11.6071 14.3465C11.7108 14.589 11.7659 14.8496 11.7692 15.1135C11.7701 15.1818 11.7674 15.2499 11.7614 15.3177C11.7438 15.5144 11.6974 15.7079 11.6232 15.8917L11.6228 15.8929C11.5766 16.0066 11.5203 16.1156 11.4548 16.2187C11.3775 16.3404 11.2873 16.4538 11.1855 16.5569C11.064 16.6799 10.9276 16.7867 10.7797 16.8749C10.6988 16.9232 10.6144 16.9659 10.5271 17.0026C10.3144 17.0922 10.0882 17.1448 9.8583 17.1585C9.82169 17.1606 9.78499 17.1618 9.74824 17.162C9.59503 17.1628 9.44258 17.1463 9.29376 17.1131C9.18899 17.077 9.08725 17.0318 8.98974 16.978L9.15688 16.548M10.3044 13.7277L10.4225 13.4241C10.2588 13.3801 10.0892 13.3578 9.91824 13.3581C9.7774 13.3577 9.63697 13.3733 9.49968 13.4048L9.91756 13.5725L9.91869 13.5729L10.3044 13.7277ZM9.15688 16.548L8.9827 16.9741C8.95161 16.9568 8.92095 16.9386 8.89076 16.9195C8.60106 16.7363 8.36537 16.4793 8.20792 16.1748C8.39402 16.245 8.58265 16.3202 8.77082 16.3953L8.77087 16.3953L8.77107 16.3954C8.89179 16.4435 9.01232 16.4916 9.13186 16.5382C9.1402 16.5415 9.14854 16.5447 9.15688 16.548ZM7.34912 15.8303L6.86139 15.9404C6.88143 16.0292 6.90526 16.1168 6.93275 16.2029L7.16449 16.295L7.34912 15.8303ZM16.0781 13.582C18.2106 13.4955 19.9298 11.7533 19.9298 9.59777V9.59682C19.9257 7.40055 18.1207 5.61724 15.9045 5.61724C13.7558 5.61724 11.9849 7.29378 11.8836 9.40787L9.93447 12.175C9.42991 12.1717 8.96795 12.2786 8.54396 12.4874L16.0781 13.582ZM3 12C3 6.7533 7.2533 2.5 12.5 2.5C17.7467 2.5 22 6.7533 22 12C22 17.2467 17.7467 21.5 12.5 21.5C7.2533 21.5 3 17.2467 3 12Z" fill="#074ACB" stroke="#1161FA"/>
</svg>
