<svg width="24" height="24" viewBox="0 0 24 24" fill="none" xmlns="http://www.w3.org/2000/svg">
<path d="M3.68429 11.8041L4.18429 12.004V11.8041H3.68429ZM3.68429 11.8041L3.49863 12.2683L3.68429 12.3426V11.8041ZM9.36523 14.0732L8.90243 13.8875L8.90107 13.8869L8.39962 13.6857C8.56436 13.648 8.73288 13.6292 8.90189 13.6297C9.10709 13.6293 9.31051 13.6561 9.50698 13.7089L9.36523 14.0732ZM9.36523 14.0732C9.5363 14.1398 9.69599 14.2317 9.83901 14.3458C9.88334 14.3811 9.92606 14.4186 9.96703 14.458C9.98471 14.4751 10.002 14.4924 10.019 14.5101C10.1954 14.6468 10.3456 14.8152 10.4615 15.0072C10.4707 15.0225 10.4798 15.038 10.4886 15.0536C10.6085 15.2662 10.684 15.5002 10.7113 15.7413C10.7201 15.8186 10.7239 15.8967 10.7226 15.975C10.7195 16.1679 10.6857 16.3583 10.6232 16.5392C10.6231 16.5394 10.6231 16.5396 10.623 16.5398C10.5811 16.661 10.5262 16.7779 10.4591 16.8884C10.3822 17.0151 10.2904 17.1313 10.1861 17.2348C10.0635 17.3565 9.92354 17.4607 9.77018 17.5436C9.68018 17.5922 9.58658 17.633 9.49044 17.6656C9.28349 17.7358 9.06474 17.7684 8.84465 17.7609C8.7947 17.7592 8.74496 17.7554 8.69555 17.7496C8.43958 17.7196 8.19247 17.6355 7.9709 17.5022M9.36523 14.0732L9.51101 13.7099C9.70691 13.7629 9.89585 13.8416 10.0727 13.9446C10.155 13.9926 10.234 14.0454 10.3094 14.1027C10.3245 14.1142 10.3395 14.1259 10.3543 14.1378C10.5563 14.3422 10.7187 14.5825 10.8329 14.8466C10.8343 14.85 10.8358 14.8534 10.8373 14.8568C10.9562 15.1354 11.0193 15.4345 11.0231 15.7374C11.0241 15.8184 11.0208 15.8993 11.0134 15.9797C10.9927 16.2034 10.9395 16.4235 10.8551 16.6327L10.8547 16.6338C10.8013 16.7654 10.7361 16.8914 10.6603 17.0106C10.5715 17.1499 10.4681 17.2799 10.3514 17.398C10.2126 17.5386 10.0569 17.6607 9.88811 17.7618C9.79383 17.8182 9.69548 17.8681 9.59375 17.911C9.3518 18.0128 9.09475 18.0732 8.83339 18.0898C8.78816 18.0926 8.74279 18.0942 8.69736 18.0944C8.3909 18.096 8.08711 18.0375 7.80323 17.9221M7.9709 17.5022L7.98826 17.4576L7.97018 17.5018M7.9709 17.5022L7.80714 17.9236C7.80583 17.9231 7.80453 17.9226 7.80323 17.9221M7.9709 17.5022C7.97066 17.5021 7.97042 17.5019 7.97018 17.5018M7.97018 17.5018C7.95876 17.4949 7.94742 17.4879 7.93615 17.4808C7.88731 17.4499 7.84011 17.4168 7.79467 17.3816C7.70504 17.3462 7.6151 17.3103 7.52507 17.2744L7.52479 17.2743L7.52462 17.2742L7.52459 17.2742C7.29892 17.1842 7.0727 17.0939 6.8495 17.0098C7.01618 17.332 7.25591 17.6101 7.54875 17.822C7.59418 17.84 7.63993 17.8581 7.68607 17.8763C7.72483 17.8915 7.76386 17.9068 7.80323 17.9221M7.97018 17.5018L7.79908 17.9204C7.80046 17.9209 7.80185 17.9215 7.80323 17.9221M5.81894 16.5964L5.33122 16.7065C5.35115 16.7948 5.37429 16.8821 5.40055 16.9682L5.63431 17.061L5.81894 16.5964ZM16.2597 13.7996C18.7802 13.7131 20.8157 11.6592 20.8158 9.11732V9.11637C20.8109 6.53689 18.6906 4.44069 16.0854 4.44069C13.5497 4.44069 11.4632 6.42673 11.359 8.92312L8.97278 12.3107C8.34618 12.2987 7.77703 12.4306 7.25732 12.6945L16.2597 13.7996ZM16.091 11.4249H16.0896C14.7912 11.4249 13.7492 10.3929 13.7492 9.12173C13.7492 7.85758 14.7884 6.81853 16.0896 6.81853C17.3726 6.81853 18.4171 7.8566 18.4171 9.12171L18.4171 9.12318C18.4208 10.3948 17.3739 11.4285 16.091 11.4249ZM16.0778 11.305L16.0796 11.305C16.3678 11.3071 16.6535 11.2522 16.9205 11.1436C17.1874 11.0349 17.4302 10.8747 17.6351 10.672C17.8399 10.4693 18.0028 10.2282 18.1142 9.96244L17.6532 9.76904L18.1142 9.96244C18.2257 9.6967 18.2836 9.41156 18.2847 9.12339V9.12158C18.2847 8.69071 18.1572 8.26947 17.9183 7.9109C17.6794 7.55232 17.3398 7.27244 16.9421 7.10649C16.5445 6.94054 16.1066 6.89594 15.6837 6.9783C15.2608 7.06066 14.8717 7.26631 14.5654 7.56935C14.2591 7.87239 14.0493 8.25927 13.9624 8.68129C13.8755 9.10332 13.9155 9.54161 14.0771 9.94099C14.2388 10.3404 14.5151 10.683 14.8711 10.9257C15.2271 11.1684 15.6469 11.3004 16.0778 11.305ZM0.5 12C0.5 5.64873 5.64873 0.5 12 0.5C18.3513 0.5 23.5 5.64873 23.5 12C23.5 18.3513 18.3513 23.5 12 23.5C5.64873 23.5 0.5 18.3513 0.5 12Z" fill="#DDC916" stroke="#FFE500"/>
</svg>
