<svg width="24" height="24" viewBox="0 0 24 24" fill="none" xmlns="http://www.w3.org/2000/svg">
<path d="M12.0155 2.85547e-05C8.96156 -0.00662116 6.01966 1.14838 3.78778 3.23026C1.55591 5.31213 0.201554 8.16466 0 11.208L6.46435 13.86C6.64096 13.7428 6.83043 13.6462 7.02908 13.572C7.46479 13.3852 7.93714 13.299 8.41086 13.32L11.3426 9.04803C11.3426 8.14615 11.6104 7.26452 12.1121 6.51463C12.6138 5.76474 13.3269 5.18028 14.1612 4.83514C14.9956 4.49 15.9136 4.3997 16.7993 4.57565C17.685 4.7516 18.4986 5.1859 19.1371 5.82362C19.7757 6.46135 20.2105 7.27387 20.3867 8.15842C20.5629 9.04297 20.4725 9.95984 20.1269 10.7931C19.7813 11.6263 19.1961 12.3385 18.4452 12.8395C17.6944 13.3406 16.8116 13.608 15.9085 13.608H15.8124L11.595 16.608C11.6142 17.4317 11.3264 18.2332 10.7875 18.857C10.2485 19.4807 9.49684 19.8824 8.67817 19.984C7.85951 20.0857 7.03222 19.8801 6.35675 19.407C5.68129 18.934 5.20579 18.2273 5.02248 17.424L0.492636 15.504C1.14197 17.6281 2.36876 19.5305 4.03646 20.9996C5.70417 22.4686 7.74735 23.4466 9.93859 23.8248C12.1298 24.2029 14.3832 23.9663 16.4478 23.1414C18.5124 22.3164 20.3073 20.9355 21.6326 19.1522C22.958 17.3689 23.7618 15.2533 23.9547 13.0408C24.1476 10.8283 23.7219 8.6058 22.7251 6.62061C21.7282 4.63541 20.1993 2.96544 18.3085 1.79656C16.4177 0.627683 14.2392 0.00576433 12.0155 2.85547e-05Z" fill="black"/>
<path d="M12.0155 2.85547e-05C8.96156 -0.00662116 6.01966 1.14838 3.78778 3.23026C1.55591 5.31213 0.201554 8.16466 0 11.208L6.46435 13.86C6.64096 13.7428 6.83043 13.6462 7.02908 13.572C7.46479 13.3852 7.93714 13.299 8.41086 13.32L11.3426 9.04803C11.3426 8.14615 11.6104 7.26452 12.1121 6.51463C12.6138 5.76474 13.3269 5.18028 14.1612 4.83514C14.9956 4.49 15.9136 4.3997 16.7993 4.57565C17.685 4.7516 18.4986 5.1859 19.1371 5.82362C19.7757 6.46135 20.2105 7.27387 20.3867 8.15842C20.5629 9.04297 20.4725 9.95984 20.1269 10.7931C19.7813 11.6263 19.1961 12.3385 18.4452 12.8395C17.6944 13.3406 16.8116 13.608 15.9085 13.608H15.8124L11.595 16.608C11.6142 17.4317 11.3264 18.2332 10.7875 18.857C10.2485 19.4807 9.49684 19.8824 8.67817 19.984C7.85951 20.0857 7.03222 19.8801 6.35675 19.407C5.68129 18.934 5.20579 18.2273 5.02248 17.424L0.492636 15.504C1.14197 17.6281 2.36876 19.5305 4.03646 20.9996C5.70417 22.4686 7.74735 23.4466 9.93859 23.8248C12.1298 24.2029 14.3832 23.9663 16.4478 23.1414C18.5124 22.3164 20.3073 20.9355 21.6326 19.1522C22.958 17.3689 23.7618 15.2533 23.9547 13.0408C24.1476 10.8283 23.7219 8.6058 22.7251 6.62061C21.7282 4.63541 20.1993 2.96544 18.3085 1.79656C16.4177 0.627683 14.2392 0.00576433 12.0155 2.85547e-05Z" fill="#DDC916"/>
<mask id="path-2-inside-1_517_3376" fill="white">
<path d="M7.46163 18.384L6.00775 17.76C6.22513 18.2048 6.56714 18.577 6.99226 18.8314C7.41738 19.0858 7.90732 19.2115 8.40258 19.1932C8.89784 19.1748 9.37712 19.0133 9.78221 18.7281C10.1873 18.4429 10.5008 18.0464 10.6846 17.5868C10.8683 17.1271 10.9145 16.624 10.8176 16.1386C10.7206 15.6533 10.4845 15.2064 10.1381 14.8524C9.79175 14.4985 9.3499 14.2525 8.86624 14.1445C8.38259 14.0365 7.87793 14.0711 7.41357 14.244L8.95155 14.88C9.41681 15.0741 9.7858 15.4449 9.97733 15.9107C10.1689 16.3766 10.1673 16.8993 9.97287 17.364C9.77848 17.8286 9.40723 18.1972 8.94079 18.3884C8.47434 18.5797 7.95092 18.5781 7.48566 18.384H7.46163Z"/>
<path d="M18.9725 8.99998C18.9796 8.39804 18.8074 7.80755 18.4778 7.30357C18.1481 6.79959 17.6759 6.40486 17.1211 6.16955C16.5663 5.93423 15.954 5.86895 15.3619 5.98199C14.7699 6.09504 14.2248 6.38131 13.7961 6.80444C13.3673 7.22756 13.0742 7.76843 12.954 8.35832C12.8337 8.94821 12.8918 9.56048 13.1208 10.1173C13.3497 10.6742 13.7393 11.1505 14.24 11.4857C14.7407 11.8209 15.3298 11.9999 15.9326 12C16.7316 11.9969 17.4977 11.681 18.0661 11.1201C18.6345 10.5591 18.9599 9.79794 18.9725 8.99998ZM13.6616 8.99998C13.664 8.54956 13.7999 8.10993 14.0522 7.73657C14.3045 7.3632 14.6619 7.07284 15.0792 6.90211C15.4966 6.73138 15.9552 6.68794 16.3973 6.77726C16.8393 6.86659 17.245 7.08468 17.5631 7.40401C17.8811 7.72335 18.0974 8.12962 18.1845 8.57157C18.2716 9.01352 18.2257 9.47133 18.0526 9.88725C17.8794 10.3032 17.5868 10.6585 17.2117 10.9085C16.8365 11.1586 16.3956 11.292 15.9446 11.292C15.6427 11.292 15.3439 11.2322 15.0653 11.1162C14.7868 11.0001 14.534 10.83 14.3217 10.6157C14.1094 10.4015 13.9418 10.1473 13.8285 9.86787C13.7152 9.58847 13.6585 9.28941 13.6616 8.98798V8.99998Z"/>
</mask>
<path d="M7.46163 18.384L6.00775 17.76C6.22513 18.2048 6.56714 18.577 6.99226 18.8314C7.41738 19.0858 7.90732 19.2115 8.40258 19.1932C8.89784 19.1748 9.37712 19.0133 9.78221 18.7281C10.1873 18.4429 10.5008 18.0464 10.6846 17.5868C10.8683 17.1271 10.9145 16.624 10.8176 16.1386C10.7206 15.6533 10.4845 15.2064 10.1381 14.8524C9.79175 14.4985 9.3499 14.2525 8.86624 14.1445C8.38259 14.0365 7.87793 14.0711 7.41357 14.244L8.95155 14.88C9.41681 15.0741 9.7858 15.4449 9.97733 15.9107C10.1689 16.3766 10.1673 16.8993 9.97287 17.364C9.77848 17.8286 9.40723 18.1972 8.94079 18.3884C8.47434 18.5797 7.95092 18.5781 7.48566 18.384H7.46163Z" fill="black"/>
<path d="M7.46163 18.384L6.00775 17.76C6.22513 18.2048 6.56714 18.577 6.99226 18.8314C7.41738 19.0858 7.90732 19.2115 8.40258 19.1932C8.89784 19.1748 9.37712 19.0133 9.78221 18.7281C10.1873 18.4429 10.5008 18.0464 10.6846 17.5868C10.8683 17.1271 10.9145 16.624 10.8176 16.1386C10.7206 15.6533 10.4845 15.2064 10.1381 14.8524C9.79175 14.4985 9.3499 14.2525 8.86624 14.1445C8.38259 14.0365 7.87793 14.0711 7.41357 14.244L8.95155 14.88C9.41681 15.0741 9.7858 15.4449 9.97733 15.9107C10.1689 16.3766 10.1673 16.8993 9.97287 17.364C9.77848 17.8286 9.40723 18.1972 8.94079 18.3884C8.47434 18.5797 7.95092 18.5781 7.48566 18.384H7.46163Z" fill="#DDC916"/>
<path d="M18.9725 8.99998C18.9796 8.39804 18.8074 7.80755 18.4778 7.30357C18.1481 6.79959 17.6759 6.40486 17.1211 6.16955C16.5663 5.93423 15.954 5.86895 15.3619 5.98199C14.7699 6.09504 14.2248 6.38131 13.7961 6.80444C13.3673 7.22756 13.0742 7.76843 12.954 8.35832C12.8337 8.94821 12.8918 9.56048 13.1208 10.1173C13.3497 10.6742 13.7393 11.1505 14.24 11.4857C14.7407 11.8209 15.3298 11.9999 15.9326 12C16.7316 11.9969 17.4977 11.681 18.0661 11.1201C18.6345 10.5591 18.9599 9.79794 18.9725 8.99998ZM13.6616 8.99998C13.664 8.54956 13.7999 8.10993 14.0522 7.73657C14.3045 7.3632 14.6619 7.07284 15.0792 6.90211C15.4966 6.73138 15.9552 6.68794 16.3973 6.77726C16.8393 6.86659 17.245 7.08468 17.5631 7.40401C17.8811 7.72335 18.0974 8.12962 18.1845 8.57157C18.2716 9.01352 18.2257 9.47133 18.0526 9.88725C17.8794 10.3032 17.5868 10.6585 17.2117 10.9085C16.8365 11.1586 16.3956 11.292 15.9446 11.292C15.6427 11.292 15.3439 11.2322 15.0653 11.1162C14.7868 11.0001 14.534 10.83 14.3217 10.6157C14.1094 10.4015 13.9418 10.1473 13.8285 9.86787C13.7152 9.58847 13.6585 9.28941 13.6616 8.98798V8.99998Z" fill="black"/>
<path d="M18.9725 8.99998C18.9796 8.39804 18.8074 7.80755 18.4778 7.30357C18.1481 6.79959 17.6759 6.40486 17.1211 6.16955C16.5663 5.93423 15.954 5.86895 15.3619 5.98199C14.7699 6.09504 14.2248 6.38131 13.7961 6.80444C13.3673 7.22756 13.0742 7.76843 12.954 8.35832C12.8337 8.94821 12.8918 9.56048 13.1208 10.1173C13.3497 10.6742 13.7393 11.1505 14.24 11.4857C14.7407 11.8209 15.3298 11.9999 15.9326 12C16.7316 11.9969 17.4977 11.681 18.0661 11.1201C18.6345 10.5591 18.9599 9.79794 18.9725 8.99998ZM13.6616 8.99998C13.664 8.54956 13.7999 8.10993 14.0522 7.73657C14.3045 7.3632 14.6619 7.07284 15.0792 6.90211C15.4966 6.73138 15.9552 6.68794 16.3973 6.77726C16.8393 6.86659 17.245 7.08468 17.5631 7.40401C17.8811 7.72335 18.0974 8.12962 18.1845 8.57157C18.2716 9.01352 18.2257 9.47133 18.0526 9.88725C17.8794 10.3032 17.5868 10.6585 17.2117 10.9085C16.8365 11.1586 16.3956 11.292 15.9446 11.292C15.6427 11.292 15.3439 11.2322 15.0653 11.1162C14.7868 11.0001 14.534 10.83 14.3217 10.6157C14.1094 10.4015 13.9418 10.1473 13.8285 9.86787C13.7152 9.58847 13.6585 9.28941 13.6616 8.98798V8.99998Z" fill="#DDC916"/>
<path d="M7.46163 18.384L7.06722 19.3029L7.2561 19.384H7.46163V18.384ZM6.00775 17.76L6.40216 16.841L3.92638 15.7784L5.1093 18.199L6.00775 17.76ZM7.41357 14.244L7.06458 13.3069L4.67894 14.1953L7.03142 15.1681L7.41357 14.244ZM8.95155 14.88L9.33664 13.9571L9.33369 13.9559L8.95155 14.88ZM7.48566 18.384L7.87075 17.4611L7.68593 17.384H7.48566V18.384ZM18.9725 8.99998L19.9724 9.01574L19.9724 9.01185L18.9725 8.99998ZM15.9326 12L15.9325 13L15.9364 13L15.9326 12ZM13.6616 8.99998H12.6616L14.6616 9.00525L13.6616 8.99998ZM15.9446 11.292L15.9446 10.292H15.9445L15.9446 11.292ZM13.6616 8.98798H14.6616L12.6617 8.97744L13.6616 8.98798ZM7.85603 17.465L6.40216 16.841L5.61335 18.6789L7.06722 19.3029L7.85603 17.465ZM5.1093 18.199C5.41177 18.818 5.88757 19.3357 6.47875 19.6895L7.50577 17.9733C7.24671 17.8183 7.03848 17.5916 6.90621 17.3209L5.1093 18.199ZM6.47875 19.6895C7.06991 20.0433 7.75109 20.218 8.43959 20.1925L8.36557 18.1938C8.06355 18.205 7.76485 18.1284 7.50577 17.9733L6.47875 19.6895ZM8.43959 20.1925C9.12809 20.167 9.79447 19.9424 10.3578 19.5458L9.20658 17.9104C8.95976 18.0841 8.6676 18.1827 8.36557 18.1938L8.43959 20.1925ZM10.3578 19.5458C10.9212 19.1492 11.3573 18.5977 11.6131 17.958L9.75603 17.2155C9.6442 17.4952 9.45339 17.7366 9.20658 17.9104L10.3578 19.5458ZM11.6131 17.958C11.8689 17.3184 11.9332 16.6182 11.7982 15.9427L9.83694 16.3346C9.89594 16.6299 9.86785 16.9359 9.75603 17.2155L11.6131 17.958ZM11.7982 15.9427C11.6632 15.2672 11.3347 14.6455 10.8529 14.1531L9.4234 15.5518C9.63434 15.7674 9.77794 16.0394 9.83694 16.3346L11.7982 15.9427ZM10.8529 14.1531C10.3711 13.6607 9.7566 13.3187 9.0842 13.1685L8.64829 15.1205C8.9432 15.1863 9.21244 15.3362 9.4234 15.5518L10.8529 14.1531ZM9.0842 13.1685C8.4118 13.0184 7.71022 13.0664 7.06458 13.3069L7.76255 15.1811C8.04565 15.0757 8.35337 15.0546 8.64829 15.1205L9.0842 13.1685ZM7.03142 15.1681L8.56941 15.8041L9.33369 13.9559L7.79571 13.3199L7.03142 15.1681ZM8.56646 15.8029C8.78721 15.895 8.96188 16.0707 9.05245 16.291L10.9022 15.5305C10.6097 14.8191 10.0464 14.2533 9.33664 13.9571L8.56646 15.8029ZM9.05245 16.291C9.14301 16.5113 9.14226 16.7583 9.05035 16.978L10.8954 17.7499C11.1923 17.0403 11.1947 16.2419 10.9022 15.5305L9.05245 16.291ZM9.05035 16.978C8.95842 17.1978 8.78267 17.3725 8.56136 17.4632L9.32022 19.3137C10.0318 19.0218 10.5985 18.4595 10.8954 17.7499L9.05035 16.978ZM8.56136 17.4632C8.34 17.554 8.09154 17.5532 7.87075 17.4611L7.10057 19.3069C7.8103 19.603 8.60869 19.6055 9.32022 19.3137L8.56136 17.4632ZM7.48566 17.384H7.46163V19.384H7.48566V17.384ZM19.9724 9.01185C19.9819 8.21135 19.7529 7.42619 19.3147 6.75617L17.6409 7.85097C17.862 8.18891 17.9774 8.58472 17.9726 8.98811L19.9724 9.01185ZM19.3147 6.75617C18.8764 6.08616 18.2487 5.5616 17.5116 5.24893L16.7306 7.09016C17.1031 7.24813 17.4199 7.51302 17.6409 7.85097L19.3147 6.75617ZM17.5116 5.24893C16.7744 4.93627 15.9609 4.84955 15.1744 4.99974L15.5495 6.96425C15.947 6.88834 16.3582 6.93219 16.7306 7.09016L17.5116 5.24893ZM15.1744 4.99974C14.3878 5.14993 13.6635 5.53028 13.0937 6.09267L14.4985 7.5162C14.7861 7.23235 15.1519 7.04016 15.5495 6.96425L15.1744 4.99974ZM13.0937 6.09267C12.5238 6.65508 12.134 7.37415 11.9741 8.15858L13.9338 8.55806C14.0144 8.16272 14.2109 7.80005 14.4985 7.5162L13.0937 6.09267ZM11.9741 8.15858C11.8142 8.94302 11.8914 9.75722 12.1959 10.4977L14.0456 9.73703C13.8921 9.36375 13.8532 8.9534 13.9338 8.55806L11.9741 8.15858ZM12.1959 10.4977C12.5004 11.2381 13.0183 11.8712 13.6836 12.3167L14.7963 10.6548C14.4604 10.4298 14.1991 10.1103 14.0456 9.73703L12.1959 10.4977ZM13.6836 12.3167C14.349 12.7621 15.1317 12.9999 15.9325 13L15.9326 11C15.5279 11 15.1323 10.8797 14.7963 10.6548L13.6836 12.3167ZM15.9364 13C16.9969 12.9959 18.0137 12.5767 18.7685 11.8318L17.3636 10.4083C16.9816 10.7854 16.4664 10.9979 15.9288 11L15.9364 13ZM18.7685 11.8318C19.5233 11.087 19.9557 10.0759 19.9724 9.01574L17.9726 8.98422C17.9642 9.51997 17.7457 10.0313 17.3636 10.4083L18.7685 11.8318ZM14.6616 9.00525C14.663 8.75267 14.7392 8.50603 14.8808 8.29645L13.2236 7.17668C12.8607 7.71382 12.6651 8.34645 12.6616 8.99471L14.6616 9.00525ZM14.8808 8.29645C15.0224 8.08686 15.2232 7.92367 15.4578 7.82766L14.7006 5.97656C14.1006 6.22201 13.5866 6.63955 13.2236 7.17668L14.8808 8.29645ZM15.4578 7.82766C15.6926 7.73165 15.9505 7.7072 16.1992 7.75745L16.5953 5.79707C15.9599 5.66867 15.3006 5.73111 14.7006 5.97656L15.4578 7.82766ZM16.1992 7.75745C16.4479 7.8077 16.6759 7.93035 16.8546 8.10972L18.2716 6.69831C17.8141 6.23901 17.2308 5.92548 16.5953 5.79707L16.1992 7.75745ZM16.8546 8.10972C17.0332 8.28908 17.1545 8.51711 17.2034 8.76497L19.1656 8.37817C19.0402 7.74214 18.7291 7.15762 18.2716 6.69831L16.8546 8.10972ZM17.2034 8.76497C17.2522 9.01283 17.2265 9.2696 17.1294 9.50294L18.9758 10.2716C19.2249 9.67306 19.291 9.0142 19.1656 8.37817L17.2034 8.76497ZM17.1294 9.50294C17.0322 9.73629 16.868 9.93588 16.6571 10.0764L17.7662 11.7407C18.3057 11.3812 18.7266 10.87 18.9758 10.2716L17.1294 9.50294ZM16.6571 10.0764C16.4463 10.2169 16.1983 10.292 15.9446 10.292L15.9446 12.292C16.5929 12.292 17.2267 12.1002 17.7662 11.7407L16.6571 10.0764ZM15.9445 10.292C15.7747 10.292 15.6066 10.2584 15.45 10.1931L14.6807 12.0392C15.0812 12.2061 15.5108 12.292 15.9446 12.292L15.9445 10.292ZM15.45 10.1931C15.2934 10.1278 15.1513 10.0322 15.0321 9.91187L13.6114 11.3196C13.9168 11.6278 14.2802 11.8723 14.6807 12.0392L15.45 10.1931ZM15.0321 9.91187C14.9128 9.79152 14.8187 9.64882 14.7552 9.49206L12.9018 10.2437C13.0648 10.6457 13.306 11.0114 13.6114 11.3196L15.0321 9.91187ZM14.7552 9.49206C14.6916 9.33531 14.6598 9.16756 14.6616 8.99852L12.6617 8.97744C12.6571 9.41125 12.7387 9.84164 12.9018 10.2437L14.7552 9.49206ZM12.6616 8.98798V8.99998H14.6616V8.98798H12.6616Z" fill="#FFE500" mask="url(#path-2-inside-1_517_3376)"/>
</svg>
