<svg width="22" height="46" viewBox="0 0 22 46" fill="none" xmlns="http://www.w3.org/2000/svg">
<path fill-rule="evenodd" clip-rule="evenodd" d="M21.2961 46C21.1961 46 21.0961 46 20.8962 45.9025C15.3972 42.6864 11.3979 38.6907 8.89836 34.1102C6.89873 30.5042 5.89891 26.411 5.9989 22.1229C6.09888 14.8136 9.19831 9.25847 9.29829 9.06356C9.49825 8.67373 9.89818 8.57627 10.1981 8.77119C10.598 8.9661 10.698 9.35593 10.4981 9.6483C10.4981 9.74576 7.49862 15.2034 7.39864 22.2203C7.29866 31.4788 12.0978 39.0805 21.696 44.7331C21.9959 44.928 22.0959 45.3178 21.896 45.7076C21.796 45.9025 21.496 46 21.2961 46Z" fill="url(#paint0_linear_4031_1813)"/>
<path fill-rule="evenodd" clip-rule="evenodd" d="M9.89818 10.0381C9.49825 10.0381 9.19831 9.74576 9.19831 9.35593C8.89836 6.72458 9.49825 4.48305 10.998 2.92373C13.3975 0.292373 17.3968 0 18.0967 0C18.2966 0 18.4966 0 18.5966 0.0974576C18.6966 0.194915 18.7965 0.292373 18.7965 0.38983C18.8965 0.487288 18.8965 0.584746 18.8965 0.682203C18.8965 0.877119 18.7965 1.07203 18.6966 1.16949C18.2966 1.65678 16.8969 3.50847 16.397 5.36017C15.5971 7.99153 12.7976 10.0381 10.0981 10.0381H9.89818Z" fill="url(#paint1_linear_4031_1813)"/>
<path fill-rule="evenodd" clip-rule="evenodd" d="M7.29866 17.5424H7.19867C7.09869 17.5424 6.99871 17.5424 6.99871 17.4449C4.79912 16.2754 3.39937 14.5212 2.79948 12.3771C1.99963 9.64831 2.6995 6.33475 4.69913 3.02119C4.69913 2.92373 4.79912 2.82627 4.79912 2.82627C4.8991 2.63136 5.09906 2.33898 5.49899 2.24153C5.89891 2.24153 6.09888 2.43644 6.29884 2.63136L6.39882 2.72881V2.82627C6.79875 3.2161 8.59842 5.45763 8.49844 8.08898L8.39845 13.2542C9.99816 11.2076 11.5979 10.1356 13.1976 10.0381C15.4971 10.0381 16.7969 11.8898 16.8969 11.9873C16.9969 12.2797 16.9969 12.572 16.8969 12.7669C14.1974 16.2754 11.7978 17.4449 7.29866 17.5424Z" fill="url(#paint2_linear_4031_1813)"/>
<path fill-rule="evenodd" clip-rule="evenodd" d="M6.99871 27.1907C3.89928 26.9958 1.79967 25.5339 0.799853 22.7076C0 20.4661 0 17.7373 0 15.4958C0 15.3983 0 15.3008 0 15.2034C0 14.911 0 14.4237 0.399926 14.2288C0.799853 13.9364 1.19978 14.1314 1.69969 14.4237C2.49954 14.7161 3.49936 15.4958 4.59915 17.1525C5.39901 18.322 6.09888 19.7839 6.59878 21.5381C7.39864 19.7839 8.49844 18.5169 9.89818 17.9322C11.9978 17.1525 13.7975 17.9322 13.8974 18.0297C14.1974 18.1271 14.3973 18.4195 14.2974 18.8093C13.3975 21.8305 11.8978 25.5339 7.5986 26.8983C7.49862 27.0932 7.29866 27.1907 6.99871 27.1907Z" fill="url(#paint3_linear_4031_1813)"/>
<path fill-rule="evenodd" clip-rule="evenodd" d="M9.19831 36.3517C4.39919 36.3517 1.59971 34.1102 0.599889 29.5297C0.599889 29.3347 0.599889 29.2373 0.499908 29.2373C0.399926 28.5551 0.299945 28.0678 0.699871 27.5805C1.0998 27.1907 1.69969 27.1907 2.79948 27.2881C3.7993 27.3856 6.19886 27.8729 8.49844 30.8941C8.49844 29.9195 8.6984 28.9449 8.99834 28.0678C9.69821 26.0212 11.098 24.9492 13.2976 24.8517C13.4975 24.8517 13.6975 24.9492 13.7975 25.0466C13.8974 25.1441 13.9974 25.339 13.9974 25.5339V27.0932C14.0974 30.3093 14.1974 34.0127 10.998 36.2542C10.898 36.3517 10.698 36.3517 10.598 36.3517C10.4981 36.3517 10.3981 36.3517 10.2981 36.2542C9.89818 36.3517 9.49825 36.3517 9.19831 36.3517Z" fill="url(#paint4_linear_4031_1813)"/>
<path fill-rule="evenodd" clip-rule="evenodd" d="M14.0974 45.5127C13.9974 45.5127 13.9974 45.5127 13.8974 45.5127C10.898 45.4153 7.79856 42.9788 6.09888 40.5424C5.9989 40.4449 5.89891 40.3475 5.89891 40.25C5.59897 39.8602 5.29902 39.4703 5.49899 38.9831C5.69895 38.3983 6.19886 38.2034 7.09869 38.0085C9.39827 37.2288 12.1978 38.7881 14.5973 40.25C14.1974 39.3729 13.8974 38.4958 13.6975 37.6186C13.2976 35.4746 13.5975 33.6229 14.5973 32.161C15.1972 31.3814 15.4971 30.9915 15.9971 31.089C16.5969 31.089 16.7969 31.4788 17.0969 32.0636C17.9967 33.5254 22.1959 40.9322 18.2966 43.4661C17.1968 44.8305 15.6971 45.5127 14.0974 45.5127Z" fill="url(#paint5_linear_4031_1813)"/>
<defs>
<linearGradient id="paint0_linear_4031_1813" x1="11" y1="0" x2="11" y2="46" gradientUnits="userSpaceOnUse">
<stop stop-color="#FFE500"/>
<stop offset="1" stop-color="#992500"/>
</linearGradient>
<linearGradient id="paint1_linear_4031_1813" x1="11" y1="0" x2="11" y2="46" gradientUnits="userSpaceOnUse">
<stop stop-color="#FFE500"/>
<stop offset="1" stop-color="#992500"/>
</linearGradient>
<linearGradient id="paint2_linear_4031_1813" x1="11" y1="0" x2="11" y2="46" gradientUnits="userSpaceOnUse">
<stop stop-color="#FFE500"/>
<stop offset="1" stop-color="#992500"/>
</linearGradient>
<linearGradient id="paint3_linear_4031_1813" x1="11" y1="0" x2="11" y2="46" gradientUnits="userSpaceOnUse">
<stop stop-color="#FFE500"/>
<stop offset="1" stop-color="#992500"/>
</linearGradient>
<linearGradient id="paint4_linear_4031_1813" x1="11" y1="0" x2="11" y2="46" gradientUnits="userSpaceOnUse">
<stop stop-color="#FFE500"/>
<stop offset="1" stop-color="#992500"/>
</linearGradient>
<linearGradient id="paint5_linear_4031_1813" x1="11" y1="0" x2="11" y2="46" gradientUnits="userSpaceOnUse">
<stop stop-color="#FFE500"/>
<stop offset="1" stop-color="#992500"/>
</linearGradient>
</defs>
</svg>
