<svg width="24" height="24" viewBox="0 0 24 24" fill="none" xmlns="http://www.w3.org/2000/svg">
<path d="M10.2883 2C5.71078 2 2 5.7167 2 10.3015C2 10.6157 2.01746 10.926 2.05152 11.2317L2.05163 17.2269C2.05166 18.4131 3.19905 19.2597 4.33004 18.9082L6.75609 18.1539C7.03503 18.0672 7.36733 18.0815 7.71943 18.1964C8.52915 18.4605 9.39283 18.603 10.2883 18.603C14.8658 18.603 18.5765 14.8863 18.5765 10.3015C18.5765 5.7167 14.8658 2 10.2883 2Z" fill="#85DD16"/>
<path d="M10.0624 20.7685C9.70106 20.5907 9.88523 20.0767 10.2879 20.0767C15.6973 20.0767 20.0824 15.6845 20.0824 10.2665C20.0824 9.56559 20.9374 9.18341 21.2322 9.81905C21.7249 10.8809 22 12.0647 22 13.3131C22 13.6272 21.9825 13.9376 21.9485 14.2432L21.9484 20.2385C21.9484 21.4247 20.801 22.2713 19.67 21.9196L17.244 21.1655C16.965 21.0788 16.6327 21.093 16.2806 21.2079C15.4709 21.472 14.6072 21.6146 13.7118 21.6146C12.4021 21.6146 11.1634 21.3102 10.0624 20.7685Z" fill="#85DD16"/>
</svg>
