<svg width="24" height="24" viewBox="0 0 24 24" fill="none" xmlns="http://www.w3.org/2000/svg">
<path d="M10.0624 20.7685C9.70106 20.5907 9.88523 20.0767 10.2879 20.0767C15.6973 20.0767 20.0824 15.6845 20.0824 10.2665C20.0824 9.56559 20.9374 9.18341 21.2322 9.81905C21.7249 10.8809 22 12.0647 22 13.3131C22 13.6272 21.9825 13.9376 21.9485 14.2432L21.9484 20.2385C21.9484 21.4247 20.801 22.2713 19.67 21.9196L17.244 21.1655C16.965 21.0788 16.6327 21.093 16.2806 21.2079C15.4709 21.472 14.6072 21.6146 13.7118 21.6146C12.4021 21.6146 11.1634 21.3102 10.0624 20.7685ZM10.0624 20.7685L10.2832 20.3199C10.2846 20.3206 10.2862 20.3215 10.2879 20.3225C10.306 20.3331 10.3387 20.3613 10.3571 20.4109C10.3749 20.4587 10.3688 20.4971 10.3621 20.5167C10.3497 20.5532 10.3167 20.5767 10.2879 20.5767C10.4694 20.5767 10.6497 20.572 10.8289 20.5627M10.0624 20.7685L10.2832 20.3199C10.2847 20.3207 10.2863 20.3214 10.2879 20.3222C10.4646 20.409 10.645 20.4892 10.8289 20.5627M10.8289 20.5627C11.72 20.9186 12.6926 21.1146 13.7118 21.1146C14.5538 21.1146 15.3653 20.9806 16.1255 20.7325C16.5504 20.5939 16.9914 20.5635 17.3924 20.6881L17.3924 20.6881L19.8184 21.4422L19.8184 21.4422C20.6265 21.6934 21.4484 21.0888 21.4484 20.2385L21.4485 14.2432V14.2154L21.4516 14.1878C21.4836 13.9006 21.5 13.6087 21.5 13.3131C21.5 12.1388 21.2414 11.0267 20.7787 10.0295L20.7787 10.0295C20.7711 10.0131 20.7646 10.0028 20.7599 9.9966M10.8289 20.5627C16.2636 20.2809 20.5824 15.7782 20.5824 10.2665C20.5824 10.1252 20.6678 10.0326 20.738 10.0036C20.7475 9.99961 20.7548 9.9976 20.7599 9.9966M20.7599 9.9966C20.7577 9.99363 20.7559 9.9916 20.7546 9.9903M20.7599 9.9966C20.7645 9.99571 20.7674 9.99562 20.7686 9.99566M20.7546 9.9903L20.7694 9.99573C20.7694 9.99575 20.7692 9.99575 20.7686 9.99566M20.7546 9.9903C20.7563 9.99138 20.759 9.99278 20.7629 9.99412C20.7657 9.99511 20.7677 9.99552 20.7686 9.99566M20.7546 9.9903L20.7686 9.99566M20.7546 9.9903C20.7529 9.98925 20.7522 9.9885 20.7522 9.98837C20.7522 9.98825 20.7531 9.98877 20.7546 9.9903ZM2.55152 11.2317L2.55152 11.2039L2.54844 11.1764C2.51643 10.889 2.5 10.5972 2.5 10.3015C2.5 5.99209 5.98767 2.5 10.2883 2.5C14.5889 2.5 18.0765 5.99209 18.0765 10.3015C18.0765 14.6109 14.5889 18.103 10.2883 18.103C9.44612 18.103 8.63475 17.9691 7.87451 17.7211C7.44976 17.5825 7.0087 17.5518 6.60767 17.6765L6.60765 17.6765L4.18162 18.4307C4.18162 18.4307 4.18161 18.4307 4.18161 18.4307C3.37351 18.6819 2.55165 18.0772 2.55163 17.2269L2.55152 11.2317Z" fill="#323243"/>
<path d="M10.0624 20.7685C9.70106 20.5907 9.88523 20.0767 10.2879 20.0767C15.6973 20.0767 20.0824 15.6845 20.0824 10.2665C20.0824 9.56559 20.9374 9.18341 21.2322 9.81905C21.7249 10.8809 22 12.0647 22 13.3131C22 13.6272 21.9825 13.9376 21.9485 14.2432L21.9484 20.2385C21.9484 21.4247 20.801 22.2713 19.67 21.9196L17.244 21.1655C16.965 21.0788 16.6327 21.093 16.2806 21.2079C15.4709 21.472 14.6072 21.6146 13.7118 21.6146C12.4021 21.6146 11.1634 21.3102 10.0624 20.7685ZM10.0624 20.7685L10.2832 20.3199C10.2846 20.3206 10.2862 20.3215 10.2879 20.3225C10.306 20.3331 10.3387 20.3613 10.3571 20.4109C10.3749 20.4587 10.3688 20.4971 10.3621 20.5167C10.3497 20.5532 10.3167 20.5767 10.2879 20.5767C10.4694 20.5767 10.6497 20.572 10.8289 20.5627M10.0624 20.7685L10.2832 20.3199C10.2847 20.3207 10.2863 20.3214 10.2879 20.3222C10.4646 20.409 10.645 20.4892 10.8289 20.5627M10.8289 20.5627C11.72 20.9186 12.6926 21.1146 13.7118 21.1146C14.5538 21.1146 15.3653 20.9806 16.1255 20.7325C16.5504 20.5939 16.9914 20.5635 17.3924 20.6881L17.3924 20.6881L19.8184 21.4422L19.8184 21.4422C20.6265 21.6934 21.4484 21.0888 21.4484 20.2385L21.4485 14.2432V14.2154L21.4516 14.1878C21.4836 13.9006 21.5 13.6087 21.5 13.3131C21.5 12.1388 21.2414 11.0267 20.7787 10.0295L20.7787 10.0295C20.7711 10.0131 20.7646 10.0028 20.7599 9.9966M10.8289 20.5627C16.2636 20.2809 20.5824 15.7782 20.5824 10.2665C20.5824 10.1252 20.6678 10.0326 20.738 10.0036C20.7475 9.99961 20.7548 9.9976 20.7599 9.9966M20.7599 9.9966C20.7577 9.99363 20.7559 9.9916 20.7546 9.9903M20.7599 9.9966C20.7645 9.99571 20.7674 9.99562 20.7686 9.99566M20.7546 9.9903L20.7694 9.99573C20.7694 9.99575 20.7692 9.99575 20.7686 9.99566M20.7546 9.9903C20.7563 9.99138 20.759 9.99278 20.7629 9.99412C20.7657 9.99511 20.7677 9.99552 20.7686 9.99566M20.7546 9.9903L20.7686 9.99566M20.7546 9.9903C20.7529 9.98925 20.7522 9.9885 20.7522 9.98837C20.7522 9.98825 20.7531 9.98877 20.7546 9.9903ZM2.55152 11.2317L2.55152 11.2039L2.54844 11.1764C2.51643 10.889 2.5 10.5972 2.5 10.3015C2.5 5.99209 5.98767 2.5 10.2883 2.5C14.5889 2.5 18.0765 5.99209 18.0765 10.3015C18.0765 14.6109 14.5889 18.103 10.2883 18.103C9.44612 18.103 8.63475 17.9691 7.87451 17.7211C7.44976 17.5825 7.0087 17.5518 6.60767 17.6765L6.60765 17.6765L4.18162 18.4307C4.18162 18.4307 4.18161 18.4307 4.18161 18.4307C3.37351 18.6819 2.55165 18.0772 2.55163 17.2269L2.55152 11.2317Z" fill="#85DD16"/>
<path d="M10.0624 20.7685C9.70106 20.5907 9.88523 20.0767 10.2879 20.0767C15.6973 20.0767 20.0824 15.6845 20.0824 10.2665C20.0824 9.56559 20.9374 9.18341 21.2322 9.81905C21.7249 10.8809 22 12.0647 22 13.3131C22 13.6272 21.9825 13.9376 21.9485 14.2432L21.9484 20.2385C21.9484 21.4247 20.801 22.2713 19.67 21.9196L17.244 21.1655C16.965 21.0788 16.6327 21.093 16.2806 21.2079C15.4709 21.472 14.6072 21.6146 13.7118 21.6146C12.4021 21.6146 11.1634 21.3102 10.0624 20.7685ZM10.0624 20.7685L10.2832 20.3199C10.2846 20.3206 10.2862 20.3215 10.2879 20.3225C10.306 20.3331 10.3387 20.3613 10.3571 20.4109C10.3749 20.4587 10.3688 20.4971 10.3621 20.5167C10.3497 20.5532 10.3167 20.5767 10.2879 20.5767C10.4694 20.5767 10.6497 20.572 10.8289 20.5627M10.0624 20.7685L10.2832 20.3199C10.2847 20.3207 10.2863 20.3214 10.2879 20.3222C10.4646 20.409 10.645 20.4892 10.8289 20.5627M10.8289 20.5627C11.72 20.9186 12.6926 21.1146 13.7118 21.1146C14.5538 21.1146 15.3653 20.9806 16.1255 20.7325C16.5504 20.5939 16.9914 20.5635 17.3924 20.6881L17.3924 20.6881L19.8184 21.4422L19.8184 21.4422C20.6265 21.6934 21.4484 21.0888 21.4484 20.2385L21.4485 14.2432V14.2154L21.4516 14.1878C21.4836 13.9006 21.5 13.6087 21.5 13.3131C21.5 12.1388 21.2414 11.0267 20.7787 10.0295L20.7787 10.0295C20.7711 10.0131 20.7646 10.0028 20.7599 9.9966M10.8289 20.5627C16.2636 20.2809 20.5824 15.7782 20.5824 10.2665C20.5824 10.1252 20.6678 10.0326 20.738 10.0036C20.7475 9.99961 20.7548 9.9976 20.7599 9.9966M20.7599 9.9966C20.7577 9.99363 20.7559 9.9916 20.7546 9.9903M20.7599 9.9966C20.7645 9.99571 20.7674 9.99562 20.7686 9.99566M20.7546 9.9903L20.7694 9.99573C20.7694 9.99575 20.7692 9.99575 20.7686 9.99566M20.7546 9.9903C20.7563 9.99138 20.759 9.99278 20.7629 9.99412C20.7657 9.99511 20.7677 9.99552 20.7686 9.99566M20.7546 9.9903L20.7686 9.99566M20.7546 9.9903C20.7529 9.98925 20.7522 9.9885 20.7522 9.98837C20.7522 9.98825 20.7531 9.98877 20.7546 9.9903ZM2.55152 11.2317L2.55152 11.2039L2.54844 11.1764C2.51643 10.889 2.5 10.5972 2.5 10.3015C2.5 5.99209 5.98767 2.5 10.2883 2.5C14.5889 2.5 18.0765 5.99209 18.0765 10.3015C18.0765 14.6109 14.5889 18.103 10.2883 18.103C9.44612 18.103 8.63475 17.9691 7.87451 17.7211C7.44976 17.5825 7.0087 17.5518 6.60767 17.6765L6.60765 17.6765L4.18162 18.4307C4.18162 18.4307 4.18161 18.4307 4.18161 18.4307C3.37351 18.6819 2.55165 18.0772 2.55163 17.2269L2.55152 11.2317Z" stroke="#8FFF00"/>
</svg>
