<svg width="36" height="36" viewBox="0 0 36 36" fill="none" xmlns="http://www.w3.org/2000/svg">
<path d="M32.115 17.37L18.615 3.87C18.06 3.315 17.295 3 16.5 3H6C4.35 3 3 4.35 3 6V16.5C3 17.295 3.315 18.06 3.885 18.615L4.5 19.215C5.85 18.405 7.41 18 9 18C13.965 18 18 22.035 18 27C18 28.59 17.58 30.135 16.77 31.5L17.37 32.1C17.925 32.67 18.705 33 19.5 33C20.295 33 21.06 32.685 21.615 32.115L32.115 21.615C32.685 21.06 33 20.295 33 19.5C33 18.705 32.685 17.94 32.115 17.37ZM8.25 10.5C7.005 10.5 6 9.495 6 8.25C6 7.005 7.005 6 8.25 6C9.495 6 10.5 7.005 10.5 8.25C10.5 9.495 9.495 10.5 8.25 10.5ZM12.945 21.405L7.14 27.255L5.115 25.2L3 27.33L7.125 31.5L15.045 23.52L12.945 21.405Z" fill="#DDC916"/>
<path fill-rule="evenodd" clip-rule="evenodd" d="M4.58332 17.8992L4.671 17.9848C6.01566 17.3254 7.50107 17 9 17C14.5173 17 19 21.4827 19 27C19 28.505 18.6612 29.9765 18.0035 31.3193L18.0865 31.4023C18.4538 31.7795 18.9756 32 19.5 32C20.0318 32 20.5364 31.7893 20.8985 31.4174L20.9078 31.4078L31.4173 20.8985C31.7893 20.5363 32 20.0318 32 19.5C32 18.9706 31.7906 18.4598 31.4079 18.0771L17.9079 4.57711C17.5428 4.21204 17.0332 4 16.5 4H6C4.90228 4 4 4.90228 4 6V16.5C4 17.0318 4.21137 17.5371 4.58332 17.8992ZM16.77 31.5C17.58 30.135 18 28.59 18 27C18 22.035 13.965 18 9 18C7.41 18 5.85 18.405 4.5 19.215L3.885 18.615C3.315 18.06 3 17.295 3 16.5V6C3 4.35 4.35 3 6 3H16.5C17.295 3 18.06 3.315 18.615 3.87L32.115 17.37C32.685 17.94 33 18.705 33 19.5C33 20.295 32.685 21.06 32.115 21.615L21.615 32.115C21.06 32.685 20.295 33 19.5 33C18.705 33 17.925 32.67 17.37 32.1L16.77 31.5ZM5.115 25.2L3 27.33L7.125 31.5L15.045 23.52L12.945 21.405L7.14 27.255L5.115 25.2ZM12.9452 22.8245L7.13752 28.6772L5.11228 26.622L4.40792 27.3313L7.12617 30.0792L13.6359 23.5202L12.9452 22.8245ZM8.25 11.5C6.45272 11.5 5 10.0473 5 8.25C5 6.45272 6.45272 5 8.25 5C10.0473 5 11.5 6.45272 11.5 8.25C11.5 10.0473 10.0473 11.5 8.25 11.5ZM6 8.25C6 9.495 7.005 10.5 8.25 10.5C9.495 10.5 10.5 9.495 10.5 8.25C10.5 7.005 9.495 6 8.25 6C7.005 6 6 7.005 6 8.25Z" fill="#FFE500"/>
</svg>
