<svg width="24" height="24" viewBox="0 0 24 24" fill="none" xmlns="http://www.w3.org/2000/svg">
<path d="M7.62501 16.5247H15.125V23H7.62501V16.5247Z" fill="#85DD16"/>
<path d="M14.583 13.5812L13.9159 10.5361L12.4753 10.0726V12.6396C12.4753 13.3549 13.0349 13.9346 13.7253 13.9346C14.0575 13.9346 14.3591 13.8001 14.583 13.5812Z" fill="#85DD16"/>
<path d="M21.6339 8.77033L17.6564 4.36222L11.2103 2.53071C11.2103 2.53071 10.1587 2.28983 8.39068 1H2V3.26777C2.989 5.15514 3.06092 6.76217 3.11913 7.03703C3.20758 7.67842 3.49442 8.27281 3.93663 8.73092C4.35613 9.16558 4.63642 9.72349 4.73934 10.3289L5.22763 12.9287C5.3803 13.6248 6.04051 14.068 6.71609 13.928C7.30359 13.8063 7.72955 13.2762 7.73759 12.6554C7.74988 11.7024 7.67484 9.85662 7.67484 9.85662C7.6268 8.91015 8.44088 7.65887 10.3265 8.02511L14.9753 9.52081L15.8788 13.6448C16.1617 14.3775 16.9468 14.7548 17.6694 14.5053C18.4232 14.2449 18.8306 13.4363 18.5793 12.6554L18.0395 9.26905C17.9254 8.62571 17.6386 8.04549 17.2291 7.58233L19.8662 10.6018C20.3544 11.1075 21.1458 11.1075 21.634 10.6018C22.122 10.0961 22.122 9.27609 21.6339 8.77033Z" fill="#85DD16"/>
</svg>
