<svg width="24" height="24" viewBox="0 0 24 24" fill="none" xmlns="http://www.w3.org/2000/svg">
<path d="M21.2666 9.11311L21.2609 9.10684L17.3802 4.80595L11.0815 3.01633L11.0737 3.01437C11.0614 3.01124 11.0452 3.00693 11.025 3.00122C10.9846 2.9898 10.9285 2.97283 10.8573 2.94871C10.7148 2.90047 10.5121 2.8237 10.2545 2.70581C9.76454 2.4816 9.07709 2.10914 8.22826 1.50232H2.50232V3.14574C2.98504 4.09428 3.24866 4.9696 3.39904 5.64844C3.4772 6.00122 3.52471 6.30071 3.55634 6.52845C3.56894 6.61925 3.57916 6.69972 3.58744 6.76496C3.58946 6.78081 3.59135 6.79577 3.59315 6.80975C3.59785 6.84647 3.60163 6.87515 3.60495 6.898C3.60658 6.90923 3.60791 6.9178 3.60899 6.92422C3.61011 6.93088 3.61065 6.93341 3.61055 6.93295L3.61428 6.95057L3.61674 6.9684C3.69092 7.50624 3.93113 8.00195 4.29804 8.38204L4.29807 8.38208C4.78795 8.88967 5.11361 9.53862 5.2338 10.2402L5.71976 12.8277C5.81931 13.2657 6.22457 13.5169 6.61417 13.4361C6.95987 13.3645 7.23016 13.0454 7.23531 12.649L21.2666 9.11311ZM21.2666 9.11311L21.2724 9.11918M21.2666 9.11311L21.2724 9.11918M21.2724 9.11918C21.5728 9.43034 21.5727 9.94193 21.2726 10.2529C20.9844 10.5514 20.5264 10.554 20.2353 10.2607L17.6352 7.28366M21.2724 9.11918L17.6352 7.28366M17.6352 7.28366C17.6253 7.27225 17.6154 7.26091 17.6054 7.24962L16.8508 7.91277L16.8528 7.91504L16.8766 7.94235C17.2118 8.33128 17.4481 8.8153 17.5441 9.35263L18.0833 12.7345L18.0893 12.7726L18.1011 12.8093C18.2697 13.3331 17.9979 13.8604 17.5054 14.0305C17.0598 14.1843 16.5599 13.9658 16.3605 13.4961L15.466 9.41331L15.4042 9.13111L15.1292 9.04263L10.4804 7.54693L10.4518 7.53773L10.4223 7.532C9.35256 7.32423 8.51094 7.56693 7.9417 8.07327C7.38809 8.5657 7.14188 9.26572 7.17316 9.88208L7.17314 9.88213L7.17375 9.89753L7.17609 9.95724C7.17811 10.0092 7.18098 10.0847 7.18438 10.1782C7.1912 10.3653 7.20015 10.6246 7.20872 10.9135C7.22595 11.4942 7.2413 12.1842 7.23531 12.6489L17.6352 7.28366ZM8.12733 17.0271H14.6227V22.4977H8.12733V17.0271ZM12.9776 10.7619L13.4871 10.9258L14.0219 13.3673C13.9304 13.4095 13.8301 13.4323 13.7253 13.4323C13.3289 13.4323 12.9776 13.0944 12.9776 12.6396V10.7619Z" fill="#85DD16" stroke="#8FFF00" stroke-width="1.00465"/>
</svg>
