<svg width="24" height="24" viewBox="0 0 24 24" fill="none" xmlns="http://www.w3.org/2000/svg">
<path d="M1.96307 11.8706L6.79339 13.554L18.2611 6.35973C18.4274 6.2554 18.5977 6.48708 18.4543 6.6225L9.77238 14.8229L9.44952 19.4139C9.42493 19.7632 9.83491 19.9576 10.0782 19.7121L12.7514 17.0147L17.6381 20.8108C18.1649 21.2201 18.9276 20.9316 19.0697 20.2695L22.4724 4.41528C22.6665 3.51084 21.8029 2.74764 20.96 3.07886L1.93849 10.5533C1.34179 10.7878 1.35804 11.6598 1.96307 11.8706Z" fill="black"/>
<path d="M1.96307 11.8706L6.79339 13.554L18.2611 6.35973C18.4274 6.2554 18.5977 6.48708 18.4543 6.6225L9.77238 14.8229L9.44952 19.4139C9.42493 19.7632 9.83491 19.9576 10.0782 19.7121L12.7514 17.0147L17.6381 20.8108C18.1649 21.2201 18.9276 20.9316 19.0697 20.2695L22.4724 4.41528C22.6665 3.51084 21.8029 2.74764 20.96 3.07886L1.93849 10.5533C1.34179 10.7878 1.35804 11.6598 1.96307 11.8706Z" fill="#DDC916"/>
<path fill-rule="evenodd" clip-rule="evenodd" d="M19.0697 20.2695L22.4724 4.41528C22.6665 3.51084 21.8029 2.74764 20.96 3.07886L1.93849 10.5533C1.34179 10.7878 1.35804 11.6598 1.96307 11.8706L6.79339 13.554L18.2611 6.35973C18.4274 6.2554 18.5977 6.48708 18.4543 6.6225L9.77238 14.8229L9.44952 19.4139C9.42493 19.7632 9.83491 19.9576 10.0782 19.7121L12.7514 17.0147L17.6381 20.8108C18.1649 21.2201 18.9276 20.9316 19.0697 20.2695ZM10.5655 17.7997L12.6649 15.6813L18.1219 19.9203L21.4947 4.20545C21.4947 4.20545 21.4947 4.20546 21.4947 4.20545C21.5043 4.16038 21.4995 4.12845 21.4913 4.10472C21.482 4.07801 21.4652 4.05276 21.4429 4.03304C21.4206 4.01332 21.399 4.00451 21.384 4.00152C21.3728 3.99928 21.3556 3.99785 21.3258 4.00957L3.05075 11.1907L6.66888 12.4516L17.7295 5.51275C18.3371 5.1314 18.9837 5.40647 19.2795 5.80888C19.5707 6.20493 19.6416 6.87663 19.141 7.34947L10.7426 15.2821L10.5655 17.7997ZM2.29216 10.9263C2.29207 10.9263 2.29225 10.9263 2.29216 10.9263ZM18.2516 20.0211C18.2516 20.0211 18.2517 20.0211 18.2516 20.0211Z" fill="#FFE500"/>
</svg>
