<svg width="16" height="16" viewBox="0 0 16 16" fill="none" xmlns="http://www.w3.org/2000/svg">
<path d="M1.30871 7.91373L4.52893 9.03601L12.1741 4.23982C12.2849 4.17026 12.3985 4.32472 12.3029 4.415L6.51492 9.88195L6.29968 12.9426C6.28329 13.1754 6.5566 13.3051 6.71881 13.1414L8.50091 11.3431L11.7588 13.8739C12.1099 14.1467 12.6184 13.9544 12.7131 13.513L14.9816 2.94352C15.111 2.34056 14.5352 1.83176 13.9734 2.05257L1.29233 7.03553C0.894525 7.19186 0.90536 7.77318 1.30871 7.91373Z" fill="black"/>
<path d="M1.30871 7.91373L4.52893 9.03601L12.1741 4.23982C12.2849 4.17026 12.3985 4.32472 12.3029 4.415L6.51492 9.88195L6.29968 12.9426C6.28329 13.1754 6.5566 13.3051 6.71881 13.1414L8.50091 11.3431L11.7588 13.8739C12.1099 14.1467 12.6184 13.9544 12.7131 13.513L14.9816 2.94352C15.111 2.34056 14.5352 1.83176 13.9734 2.05257L1.29233 7.03553C0.894525 7.19186 0.90536 7.77318 1.30871 7.91373Z" fill="#353551"/>
<path fill-rule="evenodd" clip-rule="evenodd" d="M13.9734 2.05257L1.29233 7.03553C0.894525 7.19186 0.90536 7.77318 1.30871 7.91373L4.52893 9.03601L12.1741 4.23982C12.2849 4.17026 12.3985 4.32472 12.3029 4.415L6.51492 9.88195L6.29968 12.9426C6.28329 13.1754 6.5566 13.3051 6.71881 13.1414L8.50091 11.3431L11.7588 13.8739C12.1099 14.1467 12.6184 13.9544 12.7131 13.513L14.9816 2.94352C15.111 2.34056 14.5352 1.83176 13.9734 2.05257ZM7.4392 10.9938L8.41448 10.0097L11.8667 12.6914L13.9145 3.15014L12.979 3.51773C13.0329 3.56668 13.0808 3.61967 13.1216 3.67514C13.3976 4.05059 13.4662 4.6917 12.9896 5.14197L7.4851 10.3411L7.4392 10.9938ZM8.86913 5.13269L2.99294 7.44171L4.40442 7.93363L8.86913 5.13269Z" fill="#3E3E5D"/>
</svg>
