<svg width="24" height="24" viewBox="0 0 24 24" fill="none" xmlns="http://www.w3.org/2000/svg">
<path d="M14.3247 1.39165C15.4658 1.64164 16.0363 1.76699 16.4953 1.95215C18.8178 2.88903 20.2939 5.19225 20.1741 7.69372C20.1504 8.18815 20.0246 8.75926 19.7746 9.90056L18.1844 17.1591C17.9345 18.3 17.81 18.8709 17.6249 19.3299C16.688 21.6525 14.3839 23.1284 11.8824 23.0084C11.388 22.9847 10.8173 22.8601 9.67627 22.6101C8.53496 22.3601 7.9638 22.2346 7.50474 22.0494C5.18232 21.1124 3.70717 18.8086 3.82712 16.3071C3.85087 15.8127 3.97547 15.242 4.22545 14.101L5.81562 6.84247C6.06565 5.70117 6.19115 5.13001 6.37633 4.67095C7.31327 2.34866 9.61637 0.873322 12.1177 0.993116C12.6121 1.01682 13.1834 1.14162 14.3247 1.39165ZM12.3858 10.2423L10.9844 8.0918L6.63947 10.8259L8.74198 14.0518L9.82851 13.368L11.2299 15.5185L13.402 14.1509L14.1022 15.226L17.3608 13.1747L14.5579 8.87466L12.3858 10.2423ZM15.5741 12.7833L14.4875 13.467L13.7873 12.3918L11.6152 13.7595L10.2139 11.609L9.12735 12.2927L8.42715 11.2175L10.599 9.85087L12.0165 11.9279L14.1725 10.6337L15.5741 12.7833ZM14.0434 2.67565C13.4884 2.55405 12.9393 2.90575 12.8177 3.46084C12.6962 4.01587 13.0481 4.56401 13.6031 4.6856C14.1581 4.80702 14.706 4.45608 14.8277 3.90117C14.9493 3.34618 14.5984 2.79739 14.0434 2.67565Z" fill="#DDC916"/>
<path d="M14.3247 1.39165C15.4658 1.64164 16.0363 1.76699 16.4953 1.95215C18.8178 2.88903 20.2939 5.19225 20.1741 7.69372C20.1504 8.18815 20.0246 8.75926 19.7746 9.90056L18.1844 17.1591C17.9345 18.3 17.81 18.8709 17.6249 19.3299C16.688 21.6525 14.3839 23.1284 11.8824 23.0084C11.388 22.9847 10.8173 22.8601 9.67627 22.6101C8.53496 22.3601 7.9638 22.2346 7.50474 22.0494C5.18232 21.1124 3.70717 18.8086 3.82712 16.3071C3.85087 15.8127 3.97547 15.242 4.22545 14.101L5.81562 6.84247C6.06565 5.70117 6.19115 5.13001 6.37633 4.67095C7.31327 2.34866 9.61637 0.873322 12.1177 0.993116C12.6121 1.01682 13.1834 1.14162 14.3247 1.39165ZM12.3858 10.2423L10.9844 8.0918L6.63947 10.8259L8.74198 14.0518L9.82851 13.368L11.2299 15.5185L13.402 14.1509L14.1022 15.226L17.3608 13.1747L14.5579 8.87466L12.3858 10.2423ZM15.5741 12.7833L14.4875 13.467L13.7873 12.3918L11.6152 13.7595L10.2139 11.609L9.12735 12.2927L8.42715 11.2175L10.599 9.85087L12.0165 11.9279L14.1725 10.6337L15.5741 12.7833ZM14.0434 2.67565C13.4884 2.55405 12.9393 2.90575 12.8177 3.46084C12.6962 4.01587 13.0481 4.56401 13.6031 4.6856C14.1581 4.80702 14.706 4.45608 14.8277 3.90117C14.9493 3.34618 14.5984 2.79739 14.0434 2.67565Z" fill="#DDC916"/>
<path d="M17.7933 17.0734L19.3835 9.81488C19.6371 8.65723 19.7528 8.12645 19.7745 7.67416C19.886 5.34301 18.5105 3.19663 16.346 2.32333C15.926 2.1539 15.3959 2.0362 14.2391 1.78277C13.082 1.52928 12.5505 1.41441 12.0981 1.39272C9.76705 1.28126 7.62085 2.65609 6.74751 4.82025C6.57806 5.2403 6.46022 5.7711 6.20673 6.92816L4.61656 14.1867C4.36315 15.3434 4.24845 15.8743 4.22672 16.3267C4.1151 18.6579 5.48981 20.8049 7.65404 21.6782C8.07409 21.8477 8.60489 21.9655 9.76195 22.219L9.67627 22.6101L8.92 22.4434C8.36692 22.3189 7.99192 22.2247 7.683 22.1165L7.50474 22.0494C5.25479 21.1417 3.80047 18.951 3.82093 16.5407L3.82712 16.3071C3.85087 15.8127 3.97547 15.242 4.22545 14.101L5.81562 6.84247C6.0344 5.84382 6.15778 5.28167 6.30928 4.84921L6.37633 4.67095C7.28403 2.42113 9.47394 0.966628 11.8841 0.986931L12.1177 0.993116C12.6121 1.01682 13.1834 1.14162 14.3247 1.39165L15.081 1.55833C15.7443 1.70771 16.1511 1.81329 16.4953 1.95215C18.8178 2.88903 20.2939 5.19225 20.1741 7.69372C20.1504 8.18815 20.0246 8.75926 19.7746 9.90056L18.1844 17.1591L18.0178 17.9153C17.8686 18.5786 17.7637 18.9857 17.6249 19.3299L17.5328 19.5446C16.5436 21.7428 14.3059 23.1247 11.8824 23.0084L11.6924 22.9948C11.2364 22.9517 10.6747 22.8288 9.67627 22.6101L9.76195 22.219C10.9187 22.4724 11.4496 22.5871 11.9019 22.6088C14.2333 22.7205 16.3804 21.345 17.2537 19.1806C17.423 18.7607 17.5398 18.2306 17.7933 17.0734ZM17.9179 13.2967L13.982 15.7746L13.2811 14.6983L11.1097 16.067L9.7076 13.9154L8.62182 14.6003L6.08237 10.7039L10.7717 7.75327L11.1046 7.54329L12.5059 9.69378L14.678 8.32615L17.9179 13.2967ZM12.3858 10.2423L10.9844 8.0918L6.63947 10.8259L8.74198 14.0518L9.82851 13.368L11.2299 15.5185L13.402 14.1509L14.1022 15.226L17.3608 13.1747L14.5579 8.87466L12.3858 10.2423ZM15.5741 12.7833L14.4875 13.467L13.7873 12.3918L11.6152 13.7595L10.2139 11.609L9.12735 12.2927L8.42715 11.2175L10.599 9.85087L12.0165 11.9279L14.1725 10.6337L15.5741 12.7833ZM11.8988 12.465L10.4851 10.3937L8.9833 11.3394L9.24752 11.7442L10.0011 11.2704L10.334 11.0605L11.7354 13.211L13.9075 11.8433L14.6077 12.9185L15.017 12.6612L14.0481 11.1743L11.8988 12.465ZM14.8277 3.90117C14.9416 3.38095 14.6406 2.86571 14.1454 2.703L14.0434 2.67565C13.4884 2.55405 12.9393 2.90575 12.8177 3.46084L12.7999 3.56491C12.7446 4.04821 13.0388 4.5066 13.5011 4.65826L13.6031 4.6856C14.1233 4.79941 14.6378 4.49834 14.8003 4.00315L14.8277 3.90117ZM15.2188 3.98685C15.0604 4.70927 14.3813 5.1828 13.6622 5.10044L13.5174 5.07672C12.747 4.90794 12.2578 4.14637 12.4266 3.37515C12.5955 2.60427 13.3582 2.11566 14.1291 2.28454L14.2705 2.32352C14.9586 2.54953 15.377 3.26468 15.2188 3.98685Z" fill="#FFE500"/>
</svg>
