<svg width="24" height="24" viewBox="0 0 24 24" xmlns="http://www.w3.org/2000/svg">
<path d="M15.9 4.525L9.23333 2.025C9.13333 1.99167 9.03333 1.99167 8.93333 2.025L2.26667 4.525C2.10833 4.58333 2 4.74167 2 4.91667V10.275C2 17.875 8.925 19.475 8.99167 19.4917C9.025 19.5 9.05 19.5 9.08333 19.5C9.11667 19.5 9.14167 19.5 9.175 19.4917C9.2 19.4833 10.0083 19.3 11.0667 18.7583C10.6167 18.3083 10.3333 17.6833 10.3333 17C10.3333 16.35 10.6 15.7083 11.0583 15.2417L15.3917 10.9917C15.6167 10.7667 15.875 10.6 16.1583 10.4917C16.1667 10.4167 16.1667 10.35 16.1667 10.275V4.91667C16.1667 4.74167 16.0583 4.58333 15.9 4.525Z"/>
<path d="M19.7083 22H14.2917C13.9467 22 13.6667 21.72 13.6667 21.375V17.8242H12.8242C12.37 17.8242 12 17.4542 12 17C12 16.7842 12.0875 16.5717 12.2408 16.4167L16.5633 12.1783C16.8058 11.94 17.1958 11.94 17.4383 12.1783L21.7533 16.41C21.9125 16.5717 22 16.7842 22 17C22 17.4542 21.63 17.8242 21.1758 17.8242H20.3333V21.375C20.3333 21.72 20.0533 22 19.7083 22Z"/>
<path d="M19.7083 22H14.2917C13.9467 22 13.6667 21.72 13.6667 21.375V17.8242H12.8242C12.37 17.8242 12 17.4542 12 17C12 16.7842 12.0875 16.5717 12.2408 16.4167L16.5633 12.1783C16.8058 11.94 17.1958 11.94 17.4383 12.1783L21.7533 16.41C21.9125 16.5717 22 16.7842 22 17C22 17.4542 21.63 17.8242 21.1758 17.8242H20.3333V21.375C20.3333 21.72 20.0533 22 19.7083 22Z"/>
</svg>
