<svg width="24" height="24" viewBox="0 0 24 24" xmlns="http://www.w3.org/2000/svg">
<path fill-rule="evenodd" clip-rule="evenodd" d="M2 12C2 6.47715 6.47715 2 12 2C17.5228 2 22 6.47715 22 12C22 17.5228 17.5228 22 12 22C6.47715 22 2 17.5228 2 12ZM14.6 7.01667L10.1556 5.35C10.0889 5.32778 10.0222 5.32778 9.95555 5.35L5.51111 7.01667C5.40556 7.05556 5.33333 7.16111 5.33333 7.27778V10.85C5.33333 15.8717 9.86845 16.9641 9.99219 16.9939L9.99444 16.9944C10.0167 17 10.0333 17 10.0556 17C10.0778 17 10.0944 17 10.1167 16.9944L10.13 16.9909C10.2186 16.9683 10.7274 16.8384 11.3778 16.5056C11.0778 16.2056 10.8889 15.7889 10.8889 15.3333C10.8889 14.9 11.0667 14.4722 11.3722 14.1611L14.2611 11.3278C14.4111 11.1778 14.5833 11.0667 14.7722 10.9944C14.7778 10.9444 14.7778 10.9 14.7778 10.85V7.27778C14.7778 7.16111 14.7056 7.05556 14.6 7.01667ZM17.5556 18.25C17.5556 18.48 17.3689 18.6667 17.1389 18.6667H13.5278C13.2978 18.6667 13.1111 18.48 13.1111 18.25V15.8828H12.5494C12.2467 15.8828 12 15.6361 12 15.3333C12 15.1894 12.0583 15.0478 12.1606 14.9444L15.0422 12.1189C15.2039 11.96 15.4639 11.96 15.6256 12.1189L18.5022 14.94C18.6083 15.0478 18.6667 15.1894 18.6667 15.3333C18.6667 15.6361 18.42 15.8828 18.1172 15.8828H17.5556V18.25Z"/>
</svg>
