<svg width="20" height="20" viewBox="0 0 20 20" fill="none" xmlns="http://www.w3.org/2000/svg">
<path d="M13.12 4.02L7.78667 2.02C7.70667 1.99333 7.62667 1.99333 7.54667 2.02L2.21333 4.02C2.08667 4.06667 2 4.19333 2 4.33333V8.62C2 14.7 7.54 15.98 7.59333 15.9933C7.62 16 7.64 16 7.66667 16C7.69333 16 7.71333 16 7.74 15.9933C7.76 15.9867 8.40667 15.84 9.25333 15.4067C8.89333 15.0467 8.66667 14.5467 8.66667 14C8.66667 13.48 8.88 12.9667 9.24667 12.5933L12.7133 9.19333C12.8933 9.01333 13.1 8.88 13.3267 8.79333C13.3333 8.73333 13.3333 8.68 13.3333 8.62V4.33333C13.3333 4.19333 13.2467 4.06667 13.12 4.02Z" fill="#DDC916"/>
<path d="M16.1667 18H11.8333C11.5573 18 11.3333 17.776 11.3333 17.5V14.6593H10.6593C10.296 14.6593 10 14.3633 10 14C10 13.8273 10.07 13.6573 10.1927 13.5333L13.6507 10.1427C13.8447 9.952 14.1567 9.952 14.3507 10.1427L17.8027 13.528C17.93 13.6573 18 13.8273 18 14C18 14.3633 17.704 14.6593 17.3407 14.6593H16.6667V17.5C16.6667 17.776 16.4427 18 16.1667 18Z" fill="#DDC916"/>
<path d="M16.1667 18H11.8333C11.5573 18 11.3333 17.776 11.3333 17.5V14.6593H10.6593C10.296 14.6593 10 14.3633 10 14C10 13.8273 10.07 13.6573 10.1927 13.5333L13.6507 10.1427C13.8447 9.952 14.1567 9.952 14.3507 10.1427L17.8027 13.528C17.93 13.6573 18 13.8273 18 14C18 14.3633 17.704 14.6593 17.3407 14.6593H16.6667V17.5C16.6667 17.776 16.4427 18 16.1667 18Z" fill="#DDC916"/>
<path fill-rule="evenodd" clip-rule="evenodd" d="M11.8333 14.1593L11.8333 17.5H16.1667L16.1667 14.1593H17.0967V13.7367H17.1033V14.1593H17.3407C17.4279 14.1593 17.5 14.0872 17.5 14C17.5 13.9634 17.4851 13.9193 17.4485 13.881L14.0007 10.4997L10.5464 13.8868C10.5167 13.9177 10.5 13.9607 10.5 14C10.5 14.0872 10.5721 14.1593 10.6593 14.1593H11.8333ZM16.6667 14.6593V17.5C16.6667 17.776 16.4427 18 16.1667 18H11.8333C11.5573 18 11.3333 17.776 11.3333 17.5V14.6593H10.6593C10.296 14.6593 10 14.3633 10 14C10 13.8273 10.07 13.6573 10.1927 13.5333L13.6507 10.1427C13.8447 9.952 14.1567 9.952 14.3507 10.1427L17.8027 13.528C17.93 13.6573 18 13.8273 18 14C18 14.3633 17.704 14.6593 17.3407 14.6593H16.6667ZM13.12 4.02L7.78667 2.02C7.70667 1.99333 7.62667 1.99333 7.54667 2.02L2.21333 4.02C2.08667 4.06667 2 4.19333 2 4.33333V8.62C2 14.6461 7.44216 15.9569 7.59063 15.9927L7.59333 15.9933C7.62 16 7.64 16 7.66667 16C7.69333 16 7.71333 16 7.74 15.9933L7.74547 15.9918L7.75597 15.9891C7.81174 15.9749 8.0062 15.9253 8.29114 15.8236C8.54948 15.7315 8.88219 15.5966 9.25333 15.4067C9.01723 15.1706 8.83847 14.8742 8.7434 14.544C8.69351 14.3707 8.66667 14.1881 8.66667 14C8.66667 13.48 8.88 12.9667 9.24667 12.5933L12.7133 9.19333C12.8933 9.01333 13.1 8.88 13.3267 8.79333C13.3333 8.73333 13.3333 8.68 13.3333 8.62V4.33333C13.3333 4.19333 13.2467 4.06667 13.12 4.02ZM12.3333 8.2056V4.793L7.66667 3.043L3 4.793V8.62C3 11.3012 4.19995 12.8669 5.39035 13.7921C5.99823 14.2646 6.6119 14.5742 7.07751 14.7659C7.30912 14.8612 7.50062 14.926 7.6316 14.9662C7.64322 14.9698 7.65435 14.9732 7.66499 14.9764C7.70998 14.963 7.76041 14.9475 7.81595 14.9294C7.71943 14.6369 7.66667 14.3243 7.66667 14C7.66667 13.2127 7.98658 12.4492 8.53322 11.8926L8.53978 11.8859L12.01 8.48244C12.1117 8.38114 12.2197 8.28875 12.3333 8.2056ZM7.51047 15.0201C7.50615 15.0211 7.50182 15.0221 7.49746 15.0232C7.49868 15.0229 7.5 15.0229 7.50124 15.0226C7.50425 15.0218 7.50732 15.0209 7.51047 15.0201ZM7.82396 15.0203C7.82791 15.0212 7.83188 15.0222 7.83587 15.0232C7.83529 15.023 7.83428 15.0228 7.83285 15.0225C7.83078 15.022 7.82781 15.0213 7.82396 15.0203Z" fill="#FFE500"/>
</svg>
