<svg width="32" height="32" viewBox="0 0 32 32" fill="none" xmlns="http://www.w3.org/2000/svg">
<path d="M21.2 6.03268L12.3111 2.69935C12.1777 2.6549 12.0444 2.6549 11.9111 2.69935L3.02218 6.03268C2.81107 6.11046 2.66663 6.32157 2.66663 6.5549V13.6993C2.66663 23.8327 11.9 25.966 11.9888 25.9882C12.0333 25.9993 12.0666 25.9993 12.1111 25.9993C12.1555 25.9993 12.1888 25.9993 12.2333 25.9882C12.2666 25.9771 13.3444 25.7327 14.7555 25.0105C14.1555 24.4105 13.7777 23.5771 13.7777 22.666C13.7777 21.7993 14.1333 20.9438 14.7444 20.3216L20.5222 14.6549C20.8222 14.3549 21.1666 14.1327 21.5444 13.9882C21.5555 13.8882 21.5555 13.7993 21.5555 13.6993V6.5549C21.5555 6.32157 21.4111 6.11046 21.2 6.03268Z" fill="#323243"/>
<path d="M26.2777 29.3327H19.0555C18.5955 29.3327 18.2222 28.9593 18.2222 28.4993V23.7649H17.0988C16.4933 23.7649 16 23.2716 16 22.666C16 22.3782 16.1166 22.0949 16.3211 21.8882L22.0844 16.2371C22.4077 15.9193 22.9277 15.9193 23.2511 16.2371L29.0044 21.8793C29.2166 22.0949 29.3333 22.3782 29.3333 22.666C29.3333 23.2716 28.84 23.7649 28.2344 23.7649H27.1111V28.4993C27.1111 28.9593 26.7377 29.3327 26.2777 29.3327Z" fill="#323243"/>
<path d="M26.2778 29.3339H19.0556C18.5956 29.3339 18.2222 28.9606 18.2222 28.5006V23.7661H17.0989C16.4933 23.7661 16 23.2728 16 22.6672C16 22.3794 16.1167 22.0961 16.3211 21.8894L22.0844 16.2383C22.4078 15.9206 22.9278 15.9206 23.2511 16.2383L29.0044 21.8806C29.2167 22.0961 29.3333 22.3794 29.3333 22.6672C29.3333 23.2728 28.84 23.7661 28.2344 23.7661H27.1111V28.5006C27.1111 28.9606 26.7378 29.3339 26.2778 29.3339Z" fill="url(#paint0_linear_4405_3273)"/>
<defs>
<linearGradient id="paint0_linear_4405_3273" x1="22.6667" y1="16" x2="22.6667" y2="29.3339" gradientUnits="userSpaceOnUse">
<stop stop-color="#FFE500"/>
<stop offset="1" stop-color="#992500"/>
</linearGradient>
</defs>
</svg>
