<svg width="32" height="32" viewBox="0 0 32 32" fill="none" xmlns="http://www.w3.org/2000/svg">
<path d="M11.9445 12.4756C12.8758 14.6666 15.7069 15.7506 17.8426 14.6919C20.6975 13.5241 21.3486 9.30897 19.0347 7.32535C15.505 4.01652 9.93778 8.03515 11.9445 12.4756Z" fill="black"/>
<path d="M11.9445 12.4756C12.8758 14.6666 15.7069 15.7506 17.8426 14.6919C20.6975 13.5241 21.3486 9.30897 19.0347 7.32535C15.505 4.01652 9.93778 8.03515 11.9445 12.4756Z" fill="#85DD16"/>
<path d="M20.8594 16.9446C19.9648 16.3729 18.8754 16.0653 17.7703 16.0545C17.639 16.0508 13.9015 16.043 13.9046 16.0726C10.8429 16.2149 8.35799 18.8159 8.35873 21.9587C8.41068 22.4791 8.27437 24.0603 8.44008 24.5474C8.76514 25.9463 10.0207 27 11.52 27H20.4801C22.2387 27.0075 23.6585 25.5306 23.6413 23.8208V21.9587C23.6329 19.8575 22.5401 17.9809 20.8594 16.9446Z" fill="black"/>
<path d="M20.8594 16.9446C19.9648 16.3729 18.8754 16.0653 17.7703 16.0545C17.639 16.0508 13.9015 16.043 13.9046 16.0726C10.8429 16.2149 8.35799 18.8159 8.35873 21.9587C8.41068 22.4791 8.27437 24.0603 8.44008 24.5474C8.76514 25.9463 10.0207 27 11.52 27H20.4801C22.2387 27.0075 23.6585 25.5306 23.6413 23.8208V21.9587C23.6329 19.8575 22.5401 17.9809 20.8594 16.9446Z" fill="#85DD16"/>
<path d="M5.02575 24.5474H7.06708C6.95052 24.0724 7.02287 22.337 7.00384 21.8224C7.07117 18.6274 9.18679 15.8933 12.1613 14.9917C11.8934 14.7781 11.6582 14.4929 11.4387 14.2378C11.231 14.2105 11.0413 14.2014 10.8336 14.2014H7.53677C4.4839 14.2014 2 16.6994 2 19.7695V21.5045C2 23.1849 3.35483 24.5474 5.02575 24.5474Z" fill="black"/>
<path d="M5.02575 24.5474H7.06708C6.95052 24.0724 7.02287 22.337 7.00384 21.8224C7.07117 18.6274 9.18679 15.8933 12.1613 14.9917C11.8934 14.7781 11.6582 14.4929 11.4387 14.2378C11.231 14.2105 11.0413 14.2014 10.8336 14.2014H7.53677C4.4839 14.2014 2 16.6994 2 19.7695V21.5045C2 23.1849 3.35483 24.5474 5.02575 24.5474Z" fill="#85DD16"/>
<path d="M9.1897 13.5202C9.75874 13.5202 10.2916 13.4112 10.7884 13.2023C10.3754 12.3671 10.1403 11.388 10.1923 10.4046C10.2396 8.79888 10.9794 7.26296 12.1613 6.22627C9.62361 3.58772 4.86443 5.54075 4.94458 9.26028C4.94453 11.6036 6.85033 13.5202 9.1897 13.5202Z" fill="black"/>
<path d="M9.1897 13.5202C9.75874 13.5202 10.2916 13.4112 10.7884 13.2023C10.3754 12.3671 10.1403 11.388 10.1923 10.4046C10.2396 8.79888 10.9794 7.26296 12.1613 6.22627C9.62361 3.58772 4.86443 5.54075 4.94458 9.26028C4.94453 11.6036 6.85033 13.5202 9.1897 13.5202Z" fill="#85DD16"/>
<path d="M24.4632 14.2014H21.1664C20.5176 14.0623 20.2759 14.6349 19.8387 14.9918C21.0491 15.355 22.1239 16.0272 22.9729 16.9264C24.1922 18.1982 24.96 19.924 24.9961 21.8224C24.9778 22.3434 25.0479 24.0556 24.9329 24.5474L26.9742 24.5474C28.6452 24.5474 30 23.1849 30 21.5045V19.7695C30 16.6994 27.5161 14.2014 24.4632 14.2014Z" fill="black"/>
<path d="M24.4632 14.2014H21.1664C20.5176 14.0623 20.2759 14.6349 19.8387 14.9918C21.0491 15.355 22.1239 16.0272 22.9729 16.9264C24.1922 18.1982 24.96 19.924 24.9961 21.8224C24.9778 22.3434 25.0479 24.0556 24.9329 24.5474L26.9742 24.5474C28.6452 24.5474 30 23.1849 30 21.5045V19.7695C30 16.6994 27.5161 14.2014 24.4632 14.2014Z" fill="#85DD16"/>
<path d="M21.4465 8.57889C21.6906 9.20981 21.8089 9.90856 21.8168 10.6135C21.8168 11.54 21.6 12.4211 21.2116 13.2023C21.7084 13.4112 22.2413 13.5202 22.8103 13.5202C28.4205 13.3366 28.4186 5.17691 22.8102 5C21.6542 5 20.6064 5.47228 19.8387 6.22627C20.5522 6.853 21.1123 7.66146 21.4465 8.57889Z" fill="black"/>
<path d="M21.4465 8.57889C21.6906 9.20981 21.8089 9.90856 21.8168 10.6135C21.8168 11.54 21.6 12.4211 21.2116 13.2023C21.7084 13.4112 22.2413 13.5202 22.8103 13.5202C28.4205 13.3366 28.4186 5.17691 22.8102 5C21.6542 5 20.6064 5.47228 19.8387 6.22627C20.5522 6.853 21.1123 7.66146 21.4465 8.57889Z" fill="#85DD16"/>
<path fill-rule="evenodd" clip-rule="evenodd" d="M12.8604 12.0741L12.8648 12.0844C13.5765 13.7588 15.7905 14.5931 17.3984 13.796L17.4307 13.78L17.464 13.7664C18.5075 13.3395 19.2027 12.3304 19.3894 11.1574C19.5764 9.98261 19.2271 8.80743 18.3839 8.08457L18.367 8.07011L18.3508 8.05492C15.6482 5.52147 11.2831 8.58387 12.8558 12.0638L12.8604 12.0741ZM20.3277 17.7916L20.3209 17.7873C19.5958 17.3239 18.6923 17.0635 17.7606 17.0544L17.7515 17.0544L17.7425 17.0541C17.7444 17.0542 17.7436 17.0542 17.7388 17.0541C17.7326 17.054 17.7199 17.0539 17.698 17.0537L17.562 17.053C17.4482 17.0525 17.2923 17.052 17.1083 17.0516C16.7405 17.0508 16.2623 17.0504 15.7884 17.0511C15.3139 17.0517 14.8462 17.0534 14.4984 17.0567C14.3726 17.0579 14.2649 17.0593 14.1794 17.0609L13.951 17.0715C11.4438 17.188 9.37921 19.3202 9.35889 21.9186C9.37847 22.1835 9.37008 22.5909 9.36255 22.9568C9.36022 23.0699 9.35798 23.179 9.35666 23.2787C9.35329 23.5345 9.35382 23.7682 9.3635 23.9603C9.37128 24.1146 9.38325 24.1935 9.3872 24.2196C9.38892 24.2309 9.38912 24.2322 9.38681 24.2254L9.40285 24.2726L9.41413 24.3211C9.63733 25.2816 10.5007 26 11.52 26H20.4843C21.6752 26.0051 22.6531 24.9928 22.6414 23.8309L22.6413 23.8208L22.6413 21.9609C22.6337 20.2076 21.7221 18.6513 20.3346 17.7959L20.3277 17.7916ZM23.6413 21.9587V23.8208C23.6585 25.5306 22.2387 27.0075 20.4801 27H11.52C10.0207 27 8.76514 25.9463 8.44008 24.5474C8.33627 24.2423 8.35099 23.5077 8.3637 22.8736C8.37128 22.4955 8.37814 22.1531 8.35873 21.9587C8.35804 19.0379 10.5042 16.5851 13.2649 16.1389C13.4748 16.105 13.6882 16.0827 13.9046 16.0726C13.9046 16.0726 13.9046 16.0726 13.9046 16.0726C13.9046 16.0704 13.9248 16.0684 13.9621 16.0666C14.0971 16.0602 14.4569 16.0562 14.9045 16.0538C14.9057 16.0538 14.9068 16.0538 14.908 16.0538C15.0395 16.0531 15.1786 16.0525 15.3218 16.0521C15.8077 16.0506 16.3406 16.0505 16.7851 16.0511C17.321 16.0517 17.7285 16.0533 17.7703 16.0545C18.8754 16.0653 19.9648 16.3729 20.8594 16.9446C22.5401 17.9809 23.6329 19.8575 23.6413 21.9587ZM24.9961 21.8224C24.9905 21.9825 24.9932 22.2549 24.9963 22.5699C24.9994 22.8769 25.0028 23.2244 24.9993 23.5474C24.9947 23.9717 24.9781 24.3539 24.9329 24.5474L26.9742 24.5474C28.6452 24.5474 30 23.1849 30 21.5045V19.7695C30 16.7536 27.603 14.2898 24.6243 14.2038C24.5708 14.2022 24.5171 14.2014 24.4632 14.2014H21.1664C21.0938 14.1859 21.0263 14.1792 20.963 14.1802C20.8682 14.1816 20.7829 14.2002 20.7043 14.2315C20.4937 14.3153 20.3313 14.4908 20.1624 14.6733C20.0608 14.783 19.9569 14.8953 19.8387 14.9918C20.1927 15.0981 20.5351 15.2307 20.8637 15.3878C21.6585 15.7677 22.3722 16.2902 22.9729 16.9264C24.1922 18.1982 24.96 19.924 24.9961 21.8224ZM23.6974 16.2371C25.082 17.6826 25.9548 19.6449 25.996 21.8034L25.9965 21.8306L25.9955 21.8577C25.9906 21.998 25.9929 22.2284 25.9959 22.517C25.998 22.7181 26.0004 22.9474 26.0007 23.1943C26.0009 23.3111 26.0006 23.4299 25.9994 23.5474L26.9742 23.5474C26.9742 23.5474 26.9742 23.5474 26.9742 23.5474C28.0876 23.5474 29 22.638 29 21.5045V19.7695C29 17.2463 26.9585 15.2014 24.4632 15.2014H22.5088C22.9375 15.5073 23.3355 15.8542 23.6974 16.2371ZM21.8168 10.6135C21.8168 11.2829 21.7036 11.9285 21.4944 12.5299C21.4148 12.7586 21.3213 12.981 21.2148 13.1958C21.2139 13.1977 21.2125 13.2004 21.2116 13.2023C21.2117 13.202 21.2115 13.2025 21.2116 13.2023C21.2632 13.2239 21.3151 13.2446 21.3675 13.2641C21.6316 13.3626 21.9057 13.4334 22.1896 13.4753C22.3915 13.505 22.5984 13.5202 22.8103 13.5202C23.4165 13.5003 23.9572 13.3874 24.4323 13.2014C28.3546 11.6665 27.8126 5.1578 22.8102 5C22.018 5 21.2767 5.22179 20.6414 5.60404C20.3497 5.77959 20.0803 5.98898 19.8387 6.22627C20.0493 6.41124 20.2465 6.61205 20.4285 6.82682C20.8631 7.33972 21.2109 7.93224 21.4465 8.57889C21.6906 9.20981 21.8089 9.90856 21.8168 10.6135ZM22.3827 8.22736C22.6737 8.98343 22.8077 9.7997 22.8167 10.6024L22.8168 10.6135C22.8168 11.269 22.7239 11.906 22.5496 12.5101C22.6299 12.5164 22.7114 12.5197 22.7942 12.5201C27.1109 12.3631 27.0721 6.15044 22.7947 6.00004C22.2724 6.00255 21.7776 6.13173 21.3381 6.35952C21.7781 6.9164 22.1334 7.54612 22.3827 8.22736ZM10.5094 12.5389C10.2743 11.8684 10.1536 11.1377 10.1923 10.4046C10.2344 8.97389 10.8264 7.59859 11.7909 6.58247C11.9089 6.45817 12.0325 6.33926 12.1613 6.22627C11.9172 5.97251 11.6526 5.76122 11.3737 5.58988C8.75295 3.97972 4.87214 5.89847 4.94458 9.26028C4.94454 11.0336 6.03598 12.5626 7.5808 13.2014C8.07733 13.4068 8.62069 13.5202 9.1897 13.5202C9.40172 13.5202 9.60872 13.505 9.8107 13.4752C10.1508 13.4251 10.4767 13.3333 10.7884 13.2023C10.7885 13.2025 10.7883 13.202 10.7884 13.2023C10.6835 12.99 10.5896 12.7675 10.5094 12.5389ZM9.45058 12.5101C9.25302 11.8296 9.15551 11.1014 9.19304 10.3636C9.23905 8.89074 9.77841 7.4738 10.6741 6.34505C8.69912 5.32288 5.89116 6.77033 5.94435 9.23873L5.94458 9.24952L5.94458 9.2603C5.94454 11.0552 7.4065 12.5201 9.1897 12.5201C9.27814 12.5201 9.36508 12.5168 9.45058 12.5101ZM15.3953 15.0518C15.83 15.1171 16.2732 15.1192 16.7072 15.051C17.0973 14.9897 17.4799 14.8717 17.8426 14.6919C20.6975 13.5241 21.3486 9.30897 19.0347 7.32535C15.505 4.01652 9.93778 8.03515 11.9445 12.4756C12.5417 13.8805 13.92 14.8303 15.3953 15.0518ZM10.9766 14.203C10.9296 14.2019 10.8821 14.2014 10.8336 14.2014H7.53677C7.48997 14.2014 7.4433 14.202 7.39677 14.2032C4.40833 14.2782 2 16.7465 2 19.7695V21.5045C2 23.1849 3.35483 24.5474 5.02575 24.5474H7.06708C7.02103 24.3598 7.00447 23.9755 7.00011 23.5474C6.99684 23.227 7.00041 22.8821 7.00357 22.5768C7.00687 22.2576 7.00973 21.9816 7.00384 21.8224C7.06308 19.0116 8.70761 16.5575 11.1276 15.3941C11.4584 15.2351 11.8036 15.1001 12.1613 14.9917C11.9195 14.7989 11.7043 14.5477 11.5033 14.3131L11.4387 14.2378C11.3981 14.2325 11.3582 14.2278 11.3187 14.2238C11.2033 14.2121 11.0915 14.2057 10.9766 14.203ZM9.49321 15.2014H7.53677C5.0415 15.2014 3 17.2463 3 19.7695V21.5045C3 22.638 3.91243 23.5474 5.02575 23.5474H6.00006C5.99892 23.4311 5.99865 23.3135 5.99889 23.1977C5.99939 22.9512 6.00185 22.722 6.00401 22.5213C6.00714 22.2294 6.00963 21.9975 6.00453 21.8594L6.00345 21.8304L6.00406 21.8014C6.06104 19.0976 7.40939 16.6822 9.49321 15.2014Z" fill="#8FFF00"/>
</svg>
