<svg width="24" height="24" viewBox="0 0 24 24" fill="none" xmlns="http://www.w3.org/2000/svg">
<path d="M16 14C17.2885 14.0001 18.5272 14.4975 19.4578 15.3887C20.3884 16.2798 20.9391 17.4958 20.995 18.783L21 19V20C21.0002 20.5046 20.8096 20.9906 20.4665 21.3605C20.1234 21.7305 19.6532 21.9572 19.15 21.995L19 22H5C4.49542 22.0002 4.00943 21.8096 3.63945 21.4665C3.26947 21.1234 3.04284 20.6532 3.005 20.15L3 20V19C3.00007 17.7115 3.49754 16.4728 4.38866 15.5422C5.27978 14.6116 6.49575 14.0609 7.783 14.005L8 14H16ZM12 2C13.3261 2 14.5979 2.52678 15.5355 3.46447C16.4732 4.40215 17 5.67392 17 7C17 8.32608 16.4732 9.59785 15.5355 10.5355C14.5979 11.4732 13.3261 12 12 12C10.6739 12 9.40215 11.4732 8.46447 10.5355C7.52678 9.59785 7 8.32608 7 7C7 5.67392 7.52678 4.40215 8.46447 3.46447C9.40215 2.52678 10.6739 2 12 2Z" fill="#DDC916"/>
<path fill-rule="evenodd" clip-rule="evenodd" d="M21 20V19L20.995 18.783C20.9391 17.4958 20.3884 16.2798 19.4578 15.3887C18.5272 14.4975 17.2885 14.0001 16 14H8L7.783 14.005C6.49575 14.0609 5.27978 14.6116 4.38866 15.5422C3.49754 16.4728 3.00007 17.7115 3 19V20L3.005 20.15C3.04284 20.6532 3.26947 21.1234 3.63945 21.4665C4.00943 21.8096 4.49542 22.0002 5 22H19L19.15 21.995C19.6532 21.9572 20.1234 21.7305 20.4665 21.3605C20.8096 20.9906 21.0002 20.5046 21 20ZM19.0922 20.9964C19.3373 20.9737 19.5656 20.8613 19.7333 20.6806C19.9048 20.4956 20.0001 20.2526 20 20.0003V19.0115L19.9955 18.8168C19.9485 17.7905 19.5083 16.8216 18.7662 16.1109C18.0217 15.398 17.0308 15.0001 16 15C16 15 16 15 16 15H8.01153L7.81678 15.0045C6.79054 15.0515 5.8216 15.4917 5.11093 16.2338C4.39805 16.9783 4.00007 17.9693 4 19C4 19 4 19 4 19V19.9833L4.00363 20.0922C4.02633 20.3373 4.13865 20.5656 4.31941 20.7333C4.5044 20.9048 4.7474 21.0001 4.99968 21H18.9833L19.0922 20.9964ZM14.8284 4.17157C14.0783 3.42143 13.0609 3 12 3C10.9391 3 9.92172 3.42143 9.17157 4.17157C8.42143 4.92172 8 5.93913 8 7C8 8.06087 8.42143 9.07828 9.17157 9.82843C9.92172 10.5786 10.9391 11 12 11C13.0609 11 14.0783 10.5786 14.8284 9.82843C15.5786 9.07828 16 8.06087 16 7C16 5.93913 15.5786 4.92172 14.8284 4.17157ZM15.5355 3.46447C14.5979 2.52678 13.3261 2 12 2C10.6739 2 9.40215 2.52678 8.46447 3.46447C7.52678 4.40215 7 5.67392 7 7C7 8.32608 7.52678 9.59785 8.46447 10.5355C9.40215 11.4732 10.6739 12 12 12C13.3261 12 14.5979 11.4732 15.5355 10.5355C16.4732 9.59785 17 8.32608 17 7C17 5.67392 16.4732 4.40215 15.5355 3.46447Z" fill="#FFE500"/>
</svg>
