<svg width="24" height="24" viewBox="0 0 24 24" xmlns="http://www.w3.org/2000/svg">
<path d="M11.8791 11.634C13.1482 11.634 14.2472 11.1593 15.1451 10.2227C16.0431 9.28632 16.4982 8.14055 16.4982 6.81686C16.4982 5.49363 16.0431 4.3477 15.145 3.41097C14.2469 2.4747 13.1481 2 11.8791 2C10.6098 2 9.51118 2.4747 8.61325 3.41112C7.71532 4.34755 7.25999 5.49347 7.25999 6.81686C7.25999 8.14055 7.71532 9.28647 8.6134 10.2229C9.51147 11.1592 10.6103 11.634 11.8791 11.634Z"/>
<path d="M19.9613 17.3789C19.9355 16.9892 19.8831 16.5641 19.806 16.1152C19.7281 15.6629 19.6279 15.2354 19.5079 14.8446C19.384 14.4407 19.2154 14.0418 19.0071 13.6596C18.7908 13.2629 18.5368 12.9174 18.2518 12.6332C17.9538 12.3358 17.5889 12.0967 17.1669 11.9223C16.7464 11.7488 16.2804 11.6609 15.7819 11.6609C15.5861 11.6609 15.3968 11.7446 15.0312 11.9929C14.8061 12.1459 14.5429 12.3229 14.2491 12.5187C13.9979 12.6856 13.6576 12.842 13.2372 12.9837C12.8271 13.122 12.4107 13.1922 11.9997 13.1922C11.5887 13.1922 11.1724 13.122 10.7619 12.9837C10.3419 12.8422 10.0016 12.6858 9.75069 12.5189C9.45968 12.3249 9.19631 12.1479 8.96792 11.9928C8.60272 11.7445 8.41324 11.6607 8.21747 11.6607C7.71883 11.6607 7.25297 11.7488 6.83261 11.9224C6.41093 12.0965 6.04588 12.3356 5.74755 12.6333C5.46267 12.9177 5.20853 13.263 4.99257 13.6596C4.78436 14.0418 4.61581 14.4405 4.49174 14.8447C4.37191 15.2355 4.27168 15.6629 4.19384 16.1152C4.11673 16.5635 4.06435 16.9887 4.03846 17.3794C4.013 17.7621 4.00012 18.1592 4.00012 18.5604C4.00012 19.6044 4.31835 20.4496 4.94589 21.0729C5.56568 21.688 6.38577 22 7.38304 22H16.6172C17.6145 22 18.4343 21.6881 19.0542 21.0729C19.6819 20.45 20.0001 19.6047 20.0001 18.5602C20 18.1573 19.987 17.7598 19.9613 17.3789Z"/>
</svg>
