<svg width="25" height="24" viewBox="0 0 25 24" fill="none" xmlns="http://www.w3.org/2000/svg">
<path d="M4.64286 4.65925H20.3571C20.5407 4.65915 20.7241 4.67046 20.9062 4.69297C20.8444 4.2739 20.6956 3.87126 20.4687 3.50931C20.2417 3.14738 19.9414 2.83364 19.5857 2.58702C19.23 2.3404 18.8264 2.16601 18.3992 2.07436C17.972 1.98271 17.53 1.97571 17.0999 2.05376L4.17634 4.18803H4.16161C3.3504 4.33809 2.62901 4.78204 2.14478 5.42926C2.87431 4.9273 3.7476 4.65815 4.64286 4.65925Z" fill="#85DD16"/>
<path d="M20.3571 5.7993H4.64286C3.8096 5.8002 3.01073 6.12075 2.42153 6.69072C1.83233 7.26066 1.50091 8.03342 1.5 8.83944V17.9599C1.50091 18.7659 1.83233 19.5386 2.42153 20.1086C3.01073 20.6786 3.8096 20.9991 4.64286 21H20.3571C21.1904 20.9991 21.9893 20.6786 22.5785 20.1086C23.1677 19.5386 23.4991 18.7659 23.5 17.9599V8.83944C23.4991 8.03342 23.1677 7.26066 22.5785 6.69072C21.9893 6.12075 21.1904 5.8002 20.3571 5.7993ZM18.0246 14.9197C17.7138 14.9197 17.4099 14.8306 17.1515 14.6635C16.8931 14.4965 16.6917 14.2591 16.5728 13.9814C16.4538 13.7036 16.4227 13.398 16.4833 13.1031C16.5439 12.8082 16.6936 12.5374 16.9134 12.3248C17.1332 12.1122 17.4132 11.9675 17.718 11.9088C18.0228 11.8501 18.3387 11.8802 18.6259 11.9953C18.913 12.1103 19.1585 12.3052 19.3311 12.5552C19.5038 12.8051 19.596 13.099 19.596 13.3996C19.596 13.8028 19.4304 14.1894 19.1357 14.4745C18.841 14.7596 18.4413 14.9197 18.0246 14.9197Z" fill="#85DD16"/>
<path d="M1.52455 12.0458V7.31937C1.52455 6.29 2.11384 4.56424 4.15915 4.1904C5.8951 3.87547 7.61385 3.87546 7.61385 3.87546C7.61385 3.87546 8.74331 4.6355 7.81028 4.6355C6.87724 4.6355 6.90179 5.7993 7.81028 5.7993C8.71876 5.7993 7.81028 6.9156 7.81028 6.9156L4.15178 10.9295L1.52455 12.0458Z" fill="#85DD16"/>
</svg>
