<svg width="36" height="36" viewBox="0 0 36 36" fill="none" xmlns="http://www.w3.org/2000/svg">
<path d="M2.53467 9.67671C2.38933 9.81729 2.25336 9.96538 2.12717 10.1201C2.23336 9.60219 2.4401 9.04522 2.78335 8.53342C3.78648 7.85301 4.98441 7.48737 6.21367 7.48887H6.21428H9.47097C9.44215 7.60114 9.42837 7.71639 9.42959 7.83137C9.43092 7.95769 9.44973 8.08114 9.48475 8.19895H6.21428L6.21374 8.19895C4.83672 8.20044 3.5133 8.73001 2.53467 9.67671ZM2.53467 9.67671L2.88157 10.0353L2.53467 9.67671ZM10.964 9.19895C10.9645 9.19895 10.9649 9.19895 10.9654 9.19895C11.0053 9.19895 11.0366 9.20068 11.061 9.20315C11.0532 9.2368 11.0392 9.28421 11.0133 9.34772C10.9472 9.51022 10.8414 9.68642 10.7432 9.83112C10.6957 9.90127 10.6529 9.95966 10.6224 10C10.6072 10.0201 10.5952 10.0355 10.5874 10.0454L10.5848 10.0487L5.18167 15.9768L2.03683 17.313V12.7282C2.15777 11.8523 2.573 11.0309 3.22992 10.3955L3.22994 10.3955C4.01891 9.63222 5.09209 9.20016 6.21482 9.19895H10.964ZM11.1361 9.21992C11.1356 9.22027 11.1315 9.21892 11.1253 9.2148C11.1336 9.2175 11.1367 9.21956 11.1361 9.21992ZM10.9654 10.3734C11.3532 10.689 11.3533 10.6889 11.3534 10.6888L11.3536 10.6886L11.3541 10.688L11.3554 10.6863L11.3596 10.6811L11.3734 10.6637C11.3848 10.6492 11.4008 10.6286 11.4202 10.6029C11.4589 10.5517 11.512 10.4792 11.5709 10.3924C11.6856 10.2232 11.8353 9.98074 11.9396 9.72463C11.9943 9.59016 12.0574 9.40292 12.0691 9.19895H29.7852C30.9079 9.20016 31.9811 9.63222 32.77 10.3955L32.7701 10.3955C33.5585 11.1581 33.9988 12.1886 34 13.2597V26.9392C33.9988 28.0104 33.5585 29.0409 32.77 29.8036C31.9811 30.5667 30.9079 30.9988 29.7852 31H6.2148C5.0921 30.9988 4.01892 30.5667 3.22992 29.8036C2.44156 29.0409 2.00129 28.0106 2 26.9395V18.4152L5.67321 16.8545L5.77368 16.8118L5.84721 16.7311L11.3349 10.7102L11.3444 10.6999L11.3532 10.689L10.9654 10.3734ZM10.5874 6.48887H7.64592C8.17027 6.43482 8.65975 6.39731 9.0866 6.37133C9.56501 6.3422 9.9628 6.32766 10.2403 6.32041C10.3514 6.31751 10.4431 6.31577 10.5129 6.31473C10.541 6.33553 10.5725 6.35935 10.606 6.38551C10.6403 6.41225 10.6752 6.44031 10.7098 6.4691C10.6683 6.47439 10.6275 6.48099 10.5874 6.48887ZM11.7197 6.05455C11.6431 5.96671 11.5564 5.88202 11.4707 5.80517L24.9813 3.57395L24.9813 3.57401L24.9891 3.5726C25.5699 3.46719 26.167 3.47666 26.7439 3.60042C27.3208 3.72418 27.865 3.95949 28.3437 4.29142C28.8224 4.62332 29.2254 5.04474 29.5294 5.52957L29.5294 5.52961C29.719 5.83191 29.8676 6.15508 29.9727 6.49122C29.9103 6.48962 29.8479 6.48884 29.7855 6.48887H11.9824C11.9697 6.44861 11.955 6.41279 11.9409 6.38243C11.8818 6.25475 11.7966 6.1427 11.7197 6.05455ZM27.3748 17.5288L27.3748 17.5288C26.8548 17.3205 26.2835 17.2661 25.7325 17.3722C25.1815 17.4783 24.6731 17.7403 24.2724 18.1279C23.8717 18.5155 23.5967 19.0115 23.4852 19.554C23.3736 20.0966 23.4311 20.6589 23.6495 21.1689C23.8678 21.6786 24.2363 22.1117 24.7059 22.4152C25.1752 22.7186 25.7254 22.8796 26.2868 22.8796C27.0393 22.8796 27.7642 22.5906 28.3012 22.0712L28.3012 22.0711C28.8387 21.5511 29.144 20.8423 29.144 20.0995C29.144 19.5458 28.9741 19.0061 28.6581 18.5486C28.3422 18.0913 27.895 17.7372 27.3748 17.5288Z" fill="#DDC916" stroke="#FFE500"/>
</svg>
