<svg width="24" height="24" viewBox="0 0 24 24" fill="none" xmlns="http://www.w3.org/2000/svg">
<g filter="url(#filter0_d_4260_1521)">
<path d="M4.14286 4.65925H19.8571C20.0407 4.65915 20.2241 4.67046 20.4062 4.69297C20.3444 4.2739 20.1956 3.87126 19.9687 3.50931C19.7417 3.14738 19.4414 2.83364 19.0857 2.58702C18.73 2.3404 18.3264 2.16601 17.8992 2.07436C17.472 1.98271 17.03 1.97571 16.5999 2.05376L3.67634 4.18803H3.66161C2.8504 4.33809 2.12901 4.78204 1.64478 5.42926C2.37431 4.9273 3.2476 4.65815 4.14286 4.65925Z" fill="#161119"/>
<path d="M19.8571 5.7993H4.14286C3.3096 5.8002 2.51073 6.12075 1.92153 6.69072C1.33233 7.26066 1.00091 8.03342 1 8.83944V17.9599C1.00091 18.7659 1.33233 19.5386 1.92153 20.1086C2.51073 20.6786 3.3096 20.9991 4.14286 21H19.8571C20.6904 20.9991 21.4893 20.6786 22.0785 20.1086C22.6677 19.5386 22.9991 18.7659 23 17.9599V8.83944C22.9991 8.03342 22.6677 7.26066 22.0785 6.69072C21.4893 6.12075 20.6904 5.8002 19.8571 5.7993ZM17.5246 14.9197C17.2138 14.9197 16.9099 14.8306 16.6515 14.6635C16.3931 14.4965 16.1917 14.2591 16.0728 13.9814C15.9538 13.7036 15.9227 13.398 15.9833 13.1031C16.0439 12.8082 16.1936 12.5374 16.4134 12.3248C16.6332 12.1122 16.9132 11.9675 17.218 11.9088C17.5228 11.8501 17.8387 11.8802 18.1259 11.9953C18.4131 12.1103 18.6585 12.3052 18.8311 12.5552C19.0038 12.8051 19.096 13.099 19.096 13.3996C19.096 13.8028 18.9304 14.1894 18.6357 14.4745C18.341 14.7596 17.9413 14.9197 17.5246 14.9197Z" fill="#161119"/>
<path d="M1.02455 12.0458V7.31937C1.02455 6.29 1.61384 4.56424 3.65915 4.1904C5.3951 3.87547 7.11385 3.87546 7.11385 3.87546C7.11385 3.87546 8.24331 4.6355 7.31028 4.6355C6.37724 4.6355 6.40179 5.7993 7.31028 5.7993C8.21876 5.7993 7.31028 6.9156 7.31028 6.9156L3.65178 10.9295L1.02455 12.0458Z" fill="#161119"/>
</g>
<defs>
<filter id="filter0_d_4260_1521" x="1" y="2" width="22" height="20" filterUnits="userSpaceOnUse" color-interpolation-filters="sRGB">
<feFlood flood-opacity="0" result="BackgroundImageFix"/>
<feColorMatrix in="SourceAlpha" type="matrix" values="0 0 0 0 0 0 0 0 0 0 0 0 0 0 0 0 0 0 127 0" result="hardAlpha"/>
<feOffset dy="1"/>
<feComposite in2="hardAlpha" operator="out"/>
<feColorMatrix type="matrix" values="0 0 0 0 0.920833 0 0 0 0 0.790401 0 0 0 0 0.134288 0 0 0 1 0"/>
<feBlend mode="normal" in2="BackgroundImageFix" result="effect1_dropShadow_4260_1521"/>
<feBlend mode="normal" in="SourceGraphic" in2="effect1_dropShadow_4260_1521" result="shape"/>
</filter>
</defs>
</svg>
