<svg width="25" height="24" viewBox="0 0 25 24" fill="none" xmlns="http://www.w3.org/2000/svg">
<path fill-rule="evenodd" clip-rule="evenodd" d="M15.1837 4.65886C14.0783 2.44706 10.922 2.44705 9.81662 4.65883L3.81962 16.6581C2.82272 18.6528 4.27322 20.9993 6.50314 20.9993H18.497C20.7269 20.9993 22.1774 18.6528 21.1805 16.6581L15.1837 4.65886ZM11.5 8.99927C11.5 8.44698 11.9477 7.99927 12.5 7.99927C13.0523 7.99927 13.5 8.44698 13.5 8.99927V12.9993C13.5 13.5516 13.0523 13.9993 12.5 13.9993C11.9477 13.9993 11.5 13.5516 11.5 12.9993V8.99927ZM11.5 15.9993C11.5 15.447 11.9477 14.9993 12.5 14.9993C13.0523 14.9993 13.5 15.447 13.5 15.9993C13.5 16.5516 13.0523 16.9993 12.5 16.9993C11.9477 16.9993 11.5 16.5516 11.5 15.9993Z" fill="#C81B25"/>
<path fill-rule="evenodd" clip-rule="evenodd" d="M14.2892 5.1059C13.5522 3.63137 11.4481 3.63136 10.7111 5.10589L4.71412 17.1052C4.04953 18.4349 5.01653 19.9993 6.50314 19.9993H18.497C19.9836 19.9993 20.9506 18.435 20.286 17.1052L14.2892 5.1059ZM10.5 8.99927C10.5 7.8947 11.3954 6.99927 12.5 6.99927C13.6046 6.99927 14.5 7.8947 14.5 8.99927V12.9993C14.5 13.5966 14.2381 14.1328 13.8229 14.4993C14.2381 14.8657 14.5 15.4019 14.5 15.9993C14.5 17.1038 13.6046 17.9993 12.5 17.9993C11.3954 17.9993 10.5 17.1038 10.5 15.9993C10.5 15.4019 10.7619 14.8657 11.1771 14.4993C10.7619 14.1328 10.5 13.5966 10.5 12.9993V8.99927ZM9.81662 4.65883C10.922 2.44705 14.0783 2.44706 15.1837 4.65886L21.1805 16.6581C22.1774 18.6528 20.7269 20.9993 18.497 20.9993H6.50314C4.27322 20.9993 2.82272 18.6528 3.81962 16.6581L9.81662 4.65883ZM12.5 7.99927C11.9477 7.99927 11.5 8.44698 11.5 8.99927V12.9993C11.5 13.5516 11.9477 13.9993 12.5 13.9993C13.0523 13.9993 13.5 13.5516 13.5 12.9993V8.99927C13.5 8.44698 13.0523 7.99927 12.5 7.99927ZM12.5 14.9993C11.9477 14.9993 11.5 15.447 11.5 15.9993C11.5 16.5516 11.9477 16.9993 12.5 16.9993C13.0523 16.9993 13.5 16.5516 13.5 15.9993C13.5 15.447 13.0523 14.9993 12.5 14.9993Z" fill="#FF000F"/>
</svg>
