<svg width="40" height="40" viewBox="0 0 40 40" xmlns="http://www.w3.org/2000/svg">
<path fill-rule="evenodd" clip-rule="evenodd" d="M24.474 7.76574C22.6317 4.07941 17.3713 4.07939 15.5289 7.7657L5.53392 27.7645C3.87242 31.0889 6.28993 34.9998 10.0065 34.9998H29.9962C33.7127 34.9998 36.1302 31.089 34.4688 27.7645L24.474 7.76574ZM18.3346 14.9998C18.3346 14.0793 19.0807 13.3331 20.0012 13.3331C20.9217 13.3331 21.6679 14.0793 21.6679 14.9998V21.6664C21.6679 22.5869 20.9217 23.3331 20.0012 23.3331C19.0807 23.3331 18.3346 22.5869 18.3346 21.6664V14.9998ZM18.3346 26.6664C18.3346 25.7459 19.0807 24.9998 20.0012 24.9998C20.9217 24.9998 21.6679 25.7459 21.6679 26.6664C21.6679 27.5869 20.9217 28.3331 20.0012 28.3331C19.0807 28.3331 18.3346 27.5869 18.3346 26.6664Z"/>
<path fill-rule="evenodd" clip-rule="evenodd" d="M22.9832 8.51082C21.755 6.05327 18.248 6.05325 17.0198 8.51079L7.02476 28.5096C5.9171 30.7259 7.52877 33.3331 10.0065 33.3331H29.9962C32.4739 33.3331 34.0855 30.7259 32.9779 28.5096L22.9832 8.51082ZM16.6679 14.9998C16.6679 13.1588 18.1603 11.6664 20.0012 11.6664C21.8422 11.6664 23.3346 13.1588 23.3346 14.9998V21.6664C23.3346 22.662 22.8981 23.5556 22.2061 24.1664C22.8981 24.7772 23.3346 25.6708 23.3346 26.6664C23.3346 28.5074 21.8422 29.9998 20.0012 29.9998C18.1603 29.9998 16.6679 28.5074 16.6679 26.6664C16.6679 25.6708 17.1044 24.7772 17.7964 24.1664C17.1044 23.5556 16.6679 22.662 16.6679 21.6664V14.9998ZM15.5289 7.7657C17.3713 4.07939 22.6317 4.07941 24.474 7.76574L34.4688 27.7645C36.1302 31.089 33.7127 34.9998 29.9962 34.9998H10.0065C6.28993 34.9998 3.87242 31.0889 5.53392 27.7645L15.5289 7.7657ZM20.0012 13.3331C19.0807 13.3331 18.3346 14.0793 18.3346 14.9998V21.6664C18.3346 22.5869 19.0807 23.3331 20.0012 23.3331C20.9217 23.3331 21.6679 22.5869 21.6679 21.6664V14.9998C21.6679 14.0793 20.9217 13.3331 20.0012 13.3331ZM20.0012 24.9998C19.0807 24.9998 18.3346 25.7459 18.3346 26.6664C18.3346 27.5869 19.0807 28.3331 20.0012 28.3331C20.9217 28.3331 21.6679 27.5869 21.6679 26.6664C21.6679 25.7459 20.9217 24.9998 20.0012 24.9998Z"/>
</svg>
